%TF.GenerationSoftware,KiCad,Pcbnew,8.0.1*%
%TF.CreationDate,2024-04-27T05:15:47+02:00*%
%TF.ProjectId,driver_v2,64726976-6572-45f7-9632-2e6b69636164,rev?*%
%TF.SameCoordinates,Original*%
%TF.FileFunction,Copper,L2,Bot*%
%TF.FilePolarity,Positive*%
%FSLAX46Y46*%
G04 Gerber Fmt 4.6, Leading zero omitted, Abs format (unit mm)*
G04 Created by KiCad (PCBNEW 8.0.1) date 2024-04-27 05:15:47*
%MOMM*%
%LPD*%
G01*
G04 APERTURE LIST*
%TA.AperFunction,ComponentPad*%
%ADD10C,2.500000*%
%TD*%
%TA.AperFunction,ComponentPad*%
%ADD11R,2.500000X2.500000*%
%TD*%
%TA.AperFunction,ComponentPad*%
%ADD12C,1.520000*%
%TD*%
%TA.AperFunction,ComponentPad*%
%ADD13R,1.520000X1.520000*%
%TD*%
%TA.AperFunction,ComponentPad*%
%ADD14C,0.600000*%
%TD*%
%TA.AperFunction,ComponentPad*%
%ADD15R,1.700000X1.700000*%
%TD*%
%TA.AperFunction,ComponentPad*%
%ADD16O,1.700000X1.700000*%
%TD*%
%TA.AperFunction,ViaPad*%
%ADD17C,0.600000*%
%TD*%
%TA.AperFunction,Conductor*%
%ADD18C,0.200000*%
%TD*%
%TA.AperFunction,Conductor*%
%ADD19C,0.520000*%
%TD*%
G04 APERTURE END LIST*
D10*
%TO.P,BAT,2,Pin_2*%
%TO.N,GND*%
X162500000Y-91500000D03*
D11*
%TO.P,BAT,1,Pin_1*%
%TO.N,VCC*%
X167500000Y-91500000D03*
%TD*%
%TO.P,M2,1,Pin_1*%
%TO.N,Net-(IC3-OUTA)*%
X110500000Y-80000000D03*
D10*
%TO.P,M2,2,Pin_2*%
%TO.N,Net-(IC3-OUTB)*%
X110500000Y-75000000D03*
%TD*%
D11*
%TO.P,M1,1,Pin_1*%
%TO.N,Net-(IC2-OUTA)*%
X110500000Y-67000000D03*
D10*
%TO.P,M1,2,Pin_2*%
%TO.N,Net-(IC2-OUTB)*%
X110500000Y-62000000D03*
%TD*%
D12*
%TO.P,RJ12,6*%
%TO.N,Net-(IC1-IO23)*%
X167050000Y-67800000D03*
%TO.P,RJ12,5*%
%TO.N,Net-(IC1-IO22)*%
X166030000Y-70340000D03*
%TO.P,RJ12,4*%
%TO.N,unconnected-(J1-Pad4)*%
X165010000Y-67800000D03*
%TO.P,RJ12,3*%
%TO.N,GND*%
X163990000Y-70340000D03*
%TO.P,RJ12,2*%
%TO.N,+3.3V*%
X162970000Y-67800000D03*
D13*
%TO.P,RJ12,1*%
%TO.N,GND*%
X161950000Y-70340000D03*
%TD*%
D14*
%TO.P,IC1,39,GND*%
%TO.N,GND*%
X138000000Y-74400000D03*
X138000000Y-75800000D03*
X138700000Y-73700000D03*
X138700000Y-75100000D03*
X138700000Y-76500000D03*
X139400000Y-74400000D03*
X139400000Y-75800000D03*
X140100000Y-73700000D03*
X140100000Y-75100000D03*
X140100000Y-76500000D03*
X140800000Y-74400000D03*
X140800000Y-75800000D03*
%TD*%
D11*
%TO.P,M4,1,Pin_1*%
%TO.N,Net-(IC5-OUTA)*%
X124000000Y-91500000D03*
D10*
%TO.P,M4,2,Pin_2*%
%TO.N,Net-(IC5-OUTB)*%
X119000000Y-91500000D03*
%TD*%
D11*
%TO.P,M3,1,Pin_1*%
%TO.N,Net-(IC4-OUTA)*%
X110500000Y-93000000D03*
D10*
%TO.P,M3,2,Pin_2*%
%TO.N,Net-(IC4-OUTB)*%
X110500000Y-88000000D03*
%TD*%
D15*
%TO.P,J4,1,Pin_1*%
%TO.N,Net-(IC1-IO26)*%
X130500000Y-88500000D03*
D16*
%TO.P,J4,2,Pin_2*%
%TO.N,Net-(IC1-IO27)*%
X133040000Y-88500000D03*
%TO.P,J4,3,Pin_3*%
%TO.N,Net-(IC1-IO14)*%
X135580000Y-88500000D03*
%TO.P,J4,4,Pin_4*%
%TO.N,Net-(IC1-IO12)*%
X138120000Y-88500000D03*
%TO.P,J4,5,Pin_5*%
%TO.N,Net-(IC1-IO13)*%
X140660000Y-88500000D03*
%TO.P,J4,6,Pin_6*%
%TO.N,Net-(IC1-IO15)*%
X143200000Y-88500000D03*
%TO.P,J4,7,Pin_7*%
%TO.N,Net-(IC1-IO2)*%
X145740000Y-88500000D03*
%TO.P,J4,8,Pin_8*%
%TO.N,Net-(IC1-IO0)*%
X148280000Y-88500000D03*
%TO.P,J4,9,Pin_9*%
%TO.N,Net-(IC1-IO4)*%
X150820000Y-88500000D03*
%TD*%
D15*
%TO.P,J3,1,Pin_1*%
%TO.N,Net-(IC1-IO16)*%
X153500000Y-83660000D03*
D16*
%TO.P,J3,2,Pin_2*%
%TO.N,Net-(IC1-IO17)*%
X153500000Y-81120000D03*
%TO.P,J3,3,Pin_3*%
%TO.N,Net-(IC1-IO5)*%
X153500000Y-78580000D03*
%TO.P,J3,4,Pin_4*%
%TO.N,Net-(IC1-IO18)*%
X153500000Y-76040000D03*
%TO.P,J3,5,Pin_5*%
%TO.N,Net-(IC1-IO19)*%
X153500000Y-73500000D03*
%TO.P,J3,6,Pin_6*%
%TO.N,Net-(IC1-IO21)*%
X153500000Y-70960000D03*
%TO.P,J3,7,Pin_7*%
%TO.N,Net-(IC1-RXD0{slash}IO3)*%
X153500000Y-68420000D03*
%TO.P,J3,8,Pin_8*%
%TO.N,Net-(IC1-TXD0{slash}IO1)*%
X153500000Y-65880000D03*
%TO.P,J3,9,Pin_9*%
%TO.N,Net-(IC1-IO22)*%
X153500000Y-63340000D03*
%TO.P,J3,10,Pin_10*%
%TO.N,Net-(IC1-IO23)*%
X153500000Y-60800000D03*
%TD*%
%TO.P,J2,10,Pin_10*%
%TO.N,Net-(IC1-IO25)*%
X128000000Y-83740000D03*
%TO.P,J2,9,Pin_9*%
%TO.N,Net-(IC1-IO33)*%
X128000000Y-81200000D03*
%TO.P,J2,8,Pin_8*%
%TO.N,Net-(IC1-IO32)*%
X128000000Y-78660000D03*
%TO.P,J2,7,Pin_7*%
%TO.N,Net-(IC1-IO35)*%
X128000000Y-76120000D03*
%TO.P,J2,6,Pin_6*%
%TO.N,Net-(IC1-IO34)*%
X128000000Y-73580000D03*
%TO.P,J2,5,Pin_5*%
%TO.N,Net-(IC1-SENSOR_VN)*%
X128000000Y-71040000D03*
%TO.P,J2,4,Pin_4*%
%TO.N,Net-(IC1-SENSOR_VP)*%
X128000000Y-68500000D03*
%TO.P,J2,3,Pin_3*%
%TO.N,Net-(IC1-EN)*%
X128000000Y-65960000D03*
%TO.P,J2,2,Pin_2*%
%TO.N,+3.3V*%
X128000000Y-63420000D03*
D15*
%TO.P,J2,1,Pin_1*%
%TO.N,GND*%
X128000000Y-60880000D03*
%TD*%
D17*
%TO.N,GND*%
X165709620Y-85790380D03*
%TO.N,Net-(IC1-IO22)*%
X158500000Y-70500000D03*
X160100000Y-72000000D03*
%TO.N,VCC*%
X114500000Y-71500000D03*
X113500000Y-62500000D03*
%TO.N,Net-(IC1-IO16)*%
X124240000Y-84984856D03*
X124240000Y-86707107D03*
%TO.N,Net-(IC1-IO4)*%
X120000000Y-83000000D03*
X120000000Y-81500000D03*
%TO.N,GND*%
X165500000Y-89600000D03*
X158000000Y-89600000D03*
X158000000Y-88400000D03*
%TO.N,Net-(IC1-IO17)*%
X166500000Y-86500000D03*
X166500000Y-89000000D03*
%TO.N,+3.3V*%
X148000000Y-69810000D03*
X155541587Y-70958413D03*
%TO.N,VCC*%
X113750000Y-78250000D03*
X114000000Y-90500000D03*
X127500000Y-91000000D03*
X129125000Y-91450000D03*
%TD*%
D18*
%TO.N,GND*%
X158000000Y-88400000D02*
X158000000Y-89600000D01*
%TO.N,Net-(IC1-IO22)*%
X158600000Y-70500000D02*
X158500000Y-70500000D01*
X160100000Y-72000000D02*
X158600000Y-70500000D01*
%TO.N,+3.3V*%
X154393173Y-69810000D02*
X148000000Y-69810000D01*
X155541587Y-70958413D02*
X154393173Y-69810000D01*
D19*
%TO.N,VCC*%
X115500000Y-73000000D02*
X114500000Y-72000000D01*
X114500000Y-72000000D02*
X114500000Y-71500000D01*
X123500000Y-73000000D02*
X115500000Y-73000000D01*
X125000000Y-74500000D02*
X123500000Y-73000000D01*
X126000000Y-68000000D02*
X126000000Y-88250000D01*
X124500000Y-66500000D02*
X126000000Y-68000000D01*
X126000000Y-88250000D02*
X129125000Y-91375000D01*
X129125000Y-91375000D02*
X129125000Y-91450000D01*
X113500000Y-62500000D02*
X117500000Y-66500000D01*
X117500000Y-66500000D02*
X124500000Y-66500000D01*
X125000000Y-88500000D02*
X125000000Y-74500000D01*
D18*
%TO.N,Net-(IC1-IO4)*%
X120000000Y-83000000D02*
X120000000Y-81500000D01*
%TO.N,Net-(IC1-IO16)*%
X124240000Y-84984856D02*
X124240000Y-86707107D01*
%TO.N,GND*%
X165500000Y-86000000D02*
X165500000Y-89600000D01*
X165709620Y-85790380D02*
X165500000Y-86000000D01*
%TO.N,Net-(IC1-IO17)*%
X166500000Y-86500000D02*
X166500000Y-89000000D01*
D19*
%TO.N,VCC*%
X127500000Y-91000000D02*
X125000000Y-88500000D01*
X113500000Y-90000000D02*
X114000000Y-90500000D01*
X113750000Y-78250000D02*
X113500000Y-78500000D01*
X113500000Y-78500000D02*
X113500000Y-90000000D01*
%TD*%
%TA.AperFunction,Conductor*%
%TO.N,GND*%
G36*
X172442539Y-59020185D02*
G01*
X172488294Y-59072989D01*
X172499500Y-59124500D01*
X172499500Y-96875500D01*
X172479815Y-96942539D01*
X172427011Y-96988294D01*
X172375500Y-96999500D01*
X106124500Y-96999500D01*
X106057461Y-96979815D01*
X106011706Y-96927011D01*
X106000500Y-96875500D01*
X106000500Y-94297870D01*
X108749500Y-94297870D01*
X108749501Y-94297876D01*
X108755908Y-94357483D01*
X108806202Y-94492328D01*
X108806206Y-94492335D01*
X108892452Y-94607544D01*
X108892455Y-94607547D01*
X109007664Y-94693793D01*
X109007671Y-94693797D01*
X109142517Y-94744091D01*
X109142516Y-94744091D01*
X109149444Y-94744835D01*
X109202127Y-94750500D01*
X111797872Y-94750499D01*
X111857483Y-94744091D01*
X111992331Y-94693796D01*
X112107546Y-94607546D01*
X112193796Y-94492331D01*
X112244091Y-94357483D01*
X112250500Y-94297873D01*
X112250499Y-91702128D01*
X112244091Y-91642517D01*
X112239353Y-91629815D01*
X112193797Y-91507671D01*
X112193793Y-91507664D01*
X112188059Y-91500004D01*
X117244592Y-91500004D01*
X117264196Y-91761620D01*
X117264197Y-91761625D01*
X117322576Y-92017402D01*
X117322578Y-92017411D01*
X117322580Y-92017416D01*
X117418432Y-92261643D01*
X117549614Y-92488857D01*
X117681736Y-92654533D01*
X117713198Y-92693985D01*
X117825163Y-92797872D01*
X117905521Y-92872433D01*
X118122296Y-93020228D01*
X118122301Y-93020230D01*
X118122302Y-93020231D01*
X118122303Y-93020232D01*
X118247843Y-93080688D01*
X118358673Y-93134061D01*
X118358674Y-93134061D01*
X118358677Y-93134063D01*
X118609385Y-93211396D01*
X118868818Y-93250500D01*
X119131182Y-93250500D01*
X119390615Y-93211396D01*
X119641323Y-93134063D01*
X119877704Y-93020228D01*
X120094479Y-92872433D01*
X120286805Y-92693981D01*
X120450386Y-92488857D01*
X120581568Y-92261643D01*
X120677420Y-92017416D01*
X120735802Y-91761630D01*
X120735808Y-91761550D01*
X120755408Y-91500004D01*
X120755408Y-91499995D01*
X120735803Y-91238379D01*
X120735802Y-91238374D01*
X120735802Y-91238370D01*
X120677420Y-90982584D01*
X120581568Y-90738357D01*
X120450386Y-90511143D01*
X120286805Y-90306019D01*
X120286804Y-90306018D01*
X120286801Y-90306014D01*
X120094479Y-90127567D01*
X120017235Y-90074903D01*
X119877704Y-89979772D01*
X119877700Y-89979770D01*
X119877697Y-89979768D01*
X119877696Y-89979767D01*
X119641325Y-89865938D01*
X119641327Y-89865938D01*
X119390623Y-89788606D01*
X119390619Y-89788605D01*
X119390615Y-89788604D01*
X119265823Y-89769794D01*
X119131187Y-89749500D01*
X119131182Y-89749500D01*
X118868818Y-89749500D01*
X118868812Y-89749500D01*
X118707247Y-89773853D01*
X118609385Y-89788604D01*
X118609382Y-89788605D01*
X118609376Y-89788606D01*
X118358673Y-89865938D01*
X118122303Y-89979767D01*
X118122302Y-89979768D01*
X117905520Y-90127567D01*
X117713198Y-90306014D01*
X117549614Y-90511143D01*
X117418432Y-90738356D01*
X117322582Y-90982578D01*
X117322576Y-90982597D01*
X117264197Y-91238374D01*
X117264196Y-91238379D01*
X117244592Y-91499995D01*
X117244592Y-91500004D01*
X112188059Y-91500004D01*
X112107547Y-91392455D01*
X112107544Y-91392452D01*
X111992335Y-91306206D01*
X111992328Y-91306202D01*
X111857482Y-91255908D01*
X111857483Y-91255908D01*
X111797883Y-91249501D01*
X111797881Y-91249500D01*
X111797873Y-91249500D01*
X111797864Y-91249500D01*
X109202129Y-91249500D01*
X109202123Y-91249501D01*
X109142516Y-91255908D01*
X109007671Y-91306202D01*
X109007664Y-91306206D01*
X108892455Y-91392452D01*
X108892452Y-91392455D01*
X108806206Y-91507664D01*
X108806202Y-91507671D01*
X108755908Y-91642517D01*
X108750847Y-91689598D01*
X108749501Y-91702123D01*
X108749500Y-91702135D01*
X108749500Y-94297870D01*
X106000500Y-94297870D01*
X106000500Y-90074907D01*
X112739500Y-90074907D01*
X112768723Y-90221822D01*
X112768725Y-90221830D01*
X112826051Y-90360229D01*
X112826056Y-90360238D01*
X112909280Y-90484790D01*
X112909283Y-90484794D01*
X113019528Y-90595039D01*
X113019550Y-90595059D01*
X113264664Y-90840173D01*
X113281977Y-90861882D01*
X113299776Y-90890209D01*
X113370184Y-91002262D01*
X113497738Y-91129816D01*
X113650478Y-91225789D01*
X113736556Y-91255909D01*
X113820745Y-91285368D01*
X113820750Y-91285369D01*
X113999996Y-91305565D01*
X114000000Y-91305565D01*
X114000004Y-91305565D01*
X114179249Y-91285369D01*
X114179252Y-91285368D01*
X114179255Y-91285368D01*
X114349522Y-91225789D01*
X114502262Y-91129816D01*
X114629816Y-91002262D01*
X114725789Y-90849522D01*
X114785368Y-90679255D01*
X114785369Y-90679249D01*
X114805565Y-90500003D01*
X114805565Y-90499996D01*
X114785369Y-90320750D01*
X114785368Y-90320745D01*
X114750753Y-90221822D01*
X114725789Y-90150478D01*
X114629816Y-89997738D01*
X114502262Y-89870184D01*
X114460735Y-89844091D01*
X114361882Y-89781977D01*
X114340173Y-89764664D01*
X114296819Y-89721310D01*
X114263334Y-89659987D01*
X114260500Y-89633629D01*
X114260500Y-83000003D01*
X119194435Y-83000003D01*
X119214630Y-83179249D01*
X119214631Y-83179254D01*
X119274211Y-83349523D01*
X119370184Y-83502262D01*
X119497738Y-83629816D01*
X119650478Y-83725789D01*
X119691091Y-83740000D01*
X119820745Y-83785368D01*
X119820750Y-83785369D01*
X119999996Y-83805565D01*
X120000000Y-83805565D01*
X120000004Y-83805565D01*
X120179249Y-83785369D01*
X120179252Y-83785368D01*
X120179255Y-83785368D01*
X120349522Y-83725789D01*
X120502262Y-83629816D01*
X120629816Y-83502262D01*
X120725789Y-83349522D01*
X120785368Y-83179255D01*
X120798560Y-83062171D01*
X120805565Y-83000003D01*
X120805565Y-82999996D01*
X120785369Y-82820750D01*
X120785368Y-82820745D01*
X120725788Y-82650476D01*
X120673758Y-82567671D01*
X120629816Y-82497738D01*
X120629814Y-82497736D01*
X120629813Y-82497734D01*
X120627550Y-82494896D01*
X120626659Y-82492715D01*
X120626111Y-82491842D01*
X120626264Y-82491745D01*
X120601144Y-82430209D01*
X120600500Y-82417587D01*
X120600500Y-82082412D01*
X120620185Y-82015373D01*
X120627555Y-82005097D01*
X120629810Y-82002267D01*
X120629816Y-82002262D01*
X120725789Y-81849522D01*
X120785368Y-81679255D01*
X120787126Y-81663655D01*
X120805565Y-81500003D01*
X120805565Y-81499996D01*
X120785369Y-81320750D01*
X120785368Y-81320745D01*
X120725788Y-81150476D01*
X120629815Y-80997737D01*
X120502262Y-80870184D01*
X120349523Y-80774211D01*
X120179254Y-80714631D01*
X120179249Y-80714630D01*
X120000004Y-80694435D01*
X119999996Y-80694435D01*
X119820750Y-80714630D01*
X119820745Y-80714631D01*
X119650476Y-80774211D01*
X119497737Y-80870184D01*
X119370184Y-80997737D01*
X119274211Y-81150476D01*
X119214631Y-81320745D01*
X119214630Y-81320750D01*
X119194435Y-81499996D01*
X119194435Y-81500003D01*
X119214630Y-81679249D01*
X119214631Y-81679254D01*
X119274211Y-81849523D01*
X119334515Y-81945496D01*
X119363360Y-81991402D01*
X119370185Y-82002263D01*
X119372445Y-82005097D01*
X119373334Y-82007275D01*
X119373889Y-82008158D01*
X119373734Y-82008255D01*
X119398855Y-82069783D01*
X119399500Y-82082412D01*
X119399500Y-82417587D01*
X119379815Y-82484626D01*
X119372450Y-82494896D01*
X119370186Y-82497734D01*
X119274211Y-82650476D01*
X119214631Y-82820745D01*
X119214630Y-82820750D01*
X119194435Y-82999996D01*
X119194435Y-83000003D01*
X114260500Y-83000003D01*
X114260500Y-78922940D01*
X114280185Y-78855901D01*
X114296819Y-78835259D01*
X114316675Y-78815403D01*
X114379816Y-78752262D01*
X114475789Y-78599522D01*
X114535368Y-78429255D01*
X114535369Y-78429249D01*
X114555565Y-78250003D01*
X114555565Y-78249996D01*
X114535369Y-78070750D01*
X114535368Y-78070745D01*
X114515934Y-78015205D01*
X114475789Y-77900478D01*
X114475453Y-77899944D01*
X114416690Y-77806423D01*
X114379816Y-77747738D01*
X114252262Y-77620184D01*
X114099523Y-77524211D01*
X113929254Y-77464631D01*
X113929249Y-77464630D01*
X113750004Y-77444435D01*
X113749996Y-77444435D01*
X113570750Y-77464630D01*
X113570745Y-77464631D01*
X113400476Y-77524211D01*
X113247737Y-77620184D01*
X113120182Y-77747739D01*
X113120178Y-77747744D01*
X113031977Y-77888115D01*
X113014665Y-77909824D01*
X112909283Y-78015205D01*
X112909280Y-78015209D01*
X112826056Y-78139761D01*
X112826051Y-78139770D01*
X112768725Y-78278169D01*
X112768723Y-78278177D01*
X112739500Y-78425092D01*
X112739500Y-90074907D01*
X106000500Y-90074907D01*
X106000500Y-88000004D01*
X108744592Y-88000004D01*
X108764196Y-88261620D01*
X108764197Y-88261625D01*
X108822576Y-88517402D01*
X108822578Y-88517411D01*
X108822580Y-88517416D01*
X108918432Y-88761643D01*
X109049614Y-88988857D01*
X109166178Y-89135023D01*
X109213198Y-89193985D01*
X109380829Y-89349522D01*
X109405521Y-89372433D01*
X109622296Y-89520228D01*
X109622301Y-89520230D01*
X109622302Y-89520231D01*
X109622303Y-89520232D01*
X109747843Y-89580688D01*
X109858673Y-89634061D01*
X109858674Y-89634061D01*
X109858677Y-89634063D01*
X110109385Y-89711396D01*
X110368818Y-89750500D01*
X110631182Y-89750500D01*
X110890615Y-89711396D01*
X111141323Y-89634063D01*
X111377704Y-89520228D01*
X111594479Y-89372433D01*
X111786805Y-89193981D01*
X111950386Y-88988857D01*
X112081568Y-88761643D01*
X112177420Y-88517416D01*
X112235802Y-88261630D01*
X112235803Y-88261620D01*
X112255408Y-88000004D01*
X112255408Y-87999995D01*
X112235803Y-87738379D01*
X112235802Y-87738374D01*
X112235802Y-87738370D01*
X112177420Y-87482584D01*
X112081568Y-87238357D01*
X111950386Y-87011143D01*
X111786805Y-86806019D01*
X111786804Y-86806018D01*
X111786801Y-86806014D01*
X111594479Y-86627567D01*
X111377704Y-86479772D01*
X111377700Y-86479770D01*
X111377697Y-86479768D01*
X111377696Y-86479767D01*
X111141325Y-86365938D01*
X111141327Y-86365938D01*
X110890623Y-86288606D01*
X110890619Y-86288605D01*
X110890615Y-86288604D01*
X110765823Y-86269794D01*
X110631187Y-86249500D01*
X110631182Y-86249500D01*
X110368818Y-86249500D01*
X110368812Y-86249500D01*
X110207247Y-86273853D01*
X110109385Y-86288604D01*
X110109382Y-86288605D01*
X110109376Y-86288606D01*
X109858673Y-86365938D01*
X109622303Y-86479767D01*
X109622302Y-86479768D01*
X109405520Y-86627567D01*
X109213198Y-86806014D01*
X109049614Y-87011143D01*
X108918432Y-87238356D01*
X108822582Y-87482578D01*
X108822576Y-87482597D01*
X108764197Y-87738374D01*
X108764196Y-87738379D01*
X108744592Y-87999995D01*
X108744592Y-88000004D01*
X106000500Y-88000004D01*
X106000500Y-81297870D01*
X108749500Y-81297870D01*
X108749501Y-81297876D01*
X108755908Y-81357483D01*
X108806202Y-81492328D01*
X108806206Y-81492335D01*
X108892452Y-81607544D01*
X108892455Y-81607547D01*
X109007664Y-81693793D01*
X109007671Y-81693797D01*
X109142517Y-81744091D01*
X109142516Y-81744091D01*
X109149444Y-81744835D01*
X109202127Y-81750500D01*
X111797872Y-81750499D01*
X111857483Y-81744091D01*
X111992331Y-81693796D01*
X112107546Y-81607546D01*
X112193796Y-81492331D01*
X112244091Y-81357483D01*
X112250500Y-81297873D01*
X112250499Y-78702128D01*
X112244091Y-78642517D01*
X112228055Y-78599523D01*
X112193797Y-78507671D01*
X112193793Y-78507664D01*
X112107547Y-78392455D01*
X112107544Y-78392452D01*
X111992335Y-78306206D01*
X111992328Y-78306202D01*
X111857482Y-78255908D01*
X111857483Y-78255908D01*
X111797883Y-78249501D01*
X111797881Y-78249500D01*
X111797873Y-78249500D01*
X111797864Y-78249500D01*
X109202129Y-78249500D01*
X109202123Y-78249501D01*
X109142516Y-78255908D01*
X109007671Y-78306202D01*
X109007664Y-78306206D01*
X108892455Y-78392452D01*
X108892452Y-78392455D01*
X108806206Y-78507664D01*
X108806202Y-78507671D01*
X108755908Y-78642517D01*
X108754029Y-78659999D01*
X108749501Y-78702123D01*
X108749500Y-78702135D01*
X108749500Y-81297870D01*
X106000500Y-81297870D01*
X106000500Y-75000004D01*
X108744592Y-75000004D01*
X108764196Y-75261620D01*
X108764197Y-75261625D01*
X108822576Y-75517402D01*
X108822578Y-75517411D01*
X108822580Y-75517416D01*
X108918432Y-75761643D01*
X109049614Y-75988857D01*
X109118898Y-76075736D01*
X109213198Y-76193985D01*
X109387167Y-76355403D01*
X109405521Y-76372433D01*
X109622296Y-76520228D01*
X109622301Y-76520230D01*
X109622302Y-76520231D01*
X109622303Y-76520232D01*
X109747843Y-76580688D01*
X109858673Y-76634061D01*
X109858674Y-76634061D01*
X109858677Y-76634063D01*
X110109385Y-76711396D01*
X110368818Y-76750500D01*
X110631182Y-76750500D01*
X110890615Y-76711396D01*
X111141323Y-76634063D01*
X111377704Y-76520228D01*
X111594479Y-76372433D01*
X111786805Y-76193981D01*
X111950386Y-75988857D01*
X112081568Y-75761643D01*
X112177420Y-75517416D01*
X112235802Y-75261630D01*
X112238581Y-75224551D01*
X112255408Y-75000004D01*
X112255408Y-74999995D01*
X112235803Y-74738379D01*
X112235802Y-74738374D01*
X112235802Y-74738370D01*
X112177420Y-74482584D01*
X112081568Y-74238357D01*
X111950386Y-74011143D01*
X111786805Y-73806019D01*
X111786804Y-73806018D01*
X111786801Y-73806014D01*
X111644465Y-73673947D01*
X111594479Y-73627567D01*
X111377704Y-73479772D01*
X111377700Y-73479770D01*
X111377697Y-73479768D01*
X111377696Y-73479767D01*
X111141325Y-73365938D01*
X111141327Y-73365938D01*
X110890623Y-73288606D01*
X110890619Y-73288605D01*
X110890615Y-73288604D01*
X110765823Y-73269794D01*
X110631187Y-73249500D01*
X110631182Y-73249500D01*
X110368818Y-73249500D01*
X110368812Y-73249500D01*
X110207247Y-73273853D01*
X110109385Y-73288604D01*
X110109382Y-73288605D01*
X110109376Y-73288606D01*
X109858673Y-73365938D01*
X109622303Y-73479767D01*
X109622302Y-73479768D01*
X109622296Y-73479771D01*
X109622296Y-73479772D01*
X109405521Y-73627567D01*
X109366266Y-73663990D01*
X109213198Y-73806014D01*
X109049614Y-74011143D01*
X108918432Y-74238356D01*
X108822582Y-74482578D01*
X108822576Y-74482597D01*
X108764197Y-74738374D01*
X108764196Y-74738379D01*
X108744592Y-74999995D01*
X108744592Y-75000004D01*
X106000500Y-75000004D01*
X106000500Y-68297870D01*
X108749500Y-68297870D01*
X108749501Y-68297876D01*
X108755908Y-68357483D01*
X108806202Y-68492328D01*
X108806206Y-68492335D01*
X108892452Y-68607544D01*
X108892455Y-68607547D01*
X109007664Y-68693793D01*
X109007671Y-68693797D01*
X109142517Y-68744091D01*
X109142516Y-68744091D01*
X109149444Y-68744835D01*
X109202127Y-68750500D01*
X111797872Y-68750499D01*
X111857483Y-68744091D01*
X111992331Y-68693796D01*
X112107546Y-68607546D01*
X112193796Y-68492331D01*
X112244091Y-68357483D01*
X112250500Y-68297873D01*
X112250499Y-65702128D01*
X112245299Y-65653757D01*
X112244091Y-65642516D01*
X112193797Y-65507671D01*
X112193793Y-65507664D01*
X112107547Y-65392455D01*
X112107544Y-65392452D01*
X111992335Y-65306206D01*
X111992328Y-65306202D01*
X111857482Y-65255908D01*
X111857483Y-65255908D01*
X111797883Y-65249501D01*
X111797881Y-65249500D01*
X111797873Y-65249500D01*
X111797864Y-65249500D01*
X109202129Y-65249500D01*
X109202123Y-65249501D01*
X109142516Y-65255908D01*
X109007671Y-65306202D01*
X109007664Y-65306206D01*
X108892455Y-65392452D01*
X108892452Y-65392455D01*
X108806206Y-65507664D01*
X108806202Y-65507671D01*
X108755908Y-65642517D01*
X108755685Y-65644596D01*
X108749501Y-65702123D01*
X108749500Y-65702135D01*
X108749500Y-68297870D01*
X106000500Y-68297870D01*
X106000500Y-62000004D01*
X108744592Y-62000004D01*
X108764196Y-62261620D01*
X108764197Y-62261625D01*
X108822576Y-62517402D01*
X108822578Y-62517411D01*
X108822580Y-62517416D01*
X108918432Y-62761643D01*
X109049614Y-62988857D01*
X109141905Y-63104586D01*
X109213198Y-63193985D01*
X109370565Y-63339999D01*
X109405521Y-63372433D01*
X109622296Y-63520228D01*
X109622301Y-63520230D01*
X109622302Y-63520231D01*
X109622303Y-63520232D01*
X109736889Y-63575413D01*
X109858673Y-63634061D01*
X109858674Y-63634061D01*
X109858677Y-63634063D01*
X110109385Y-63711396D01*
X110368818Y-63750500D01*
X110631182Y-63750500D01*
X110890615Y-63711396D01*
X111141323Y-63634063D01*
X111377704Y-63520228D01*
X111594479Y-63372433D01*
X111786805Y-63193981D01*
X111950386Y-62988857D01*
X112081568Y-62761643D01*
X112177420Y-62517416D01*
X112181394Y-62500003D01*
X112694435Y-62500003D01*
X112714630Y-62679249D01*
X112714631Y-62679254D01*
X112774211Y-62849523D01*
X112791064Y-62876344D01*
X112870184Y-63002262D01*
X112997738Y-63129816D01*
X113138118Y-63218022D01*
X113159825Y-63235334D01*
X116906155Y-66981664D01*
X116906184Y-66981695D01*
X117015205Y-67090716D01*
X117015209Y-67090719D01*
X117139761Y-67173943D01*
X117139767Y-67173946D01*
X117139768Y-67173947D01*
X117278170Y-67231275D01*
X117425092Y-67260499D01*
X117425096Y-67260500D01*
X117425097Y-67260500D01*
X124133629Y-67260500D01*
X124200668Y-67280185D01*
X124221310Y-67296819D01*
X125203181Y-68278690D01*
X125236666Y-68340013D01*
X125239500Y-68366371D01*
X125239500Y-73364628D01*
X125219815Y-73431667D01*
X125167011Y-73477422D01*
X125097853Y-73487366D01*
X125034297Y-73458341D01*
X125027819Y-73452309D01*
X124097789Y-72522280D01*
X124097786Y-72522276D01*
X124097786Y-72522277D01*
X124090719Y-72515210D01*
X124090719Y-72515209D01*
X123984791Y-72409281D01*
X123984790Y-72409280D01*
X123984789Y-72409279D01*
X123860238Y-72326056D01*
X123860229Y-72326051D01*
X123721830Y-72268725D01*
X123721822Y-72268723D01*
X123574907Y-72239500D01*
X123574903Y-72239500D01*
X115866371Y-72239500D01*
X115799332Y-72219815D01*
X115778690Y-72203181D01*
X115324494Y-71748985D01*
X115291009Y-71687662D01*
X115288955Y-71647420D01*
X115305565Y-71500002D01*
X115305565Y-71499996D01*
X115285369Y-71320750D01*
X115285368Y-71320745D01*
X115241512Y-71195413D01*
X115225789Y-71150478D01*
X115217739Y-71137667D01*
X115156370Y-71039999D01*
X115129816Y-70997738D01*
X115002262Y-70870184D01*
X114969379Y-70849522D01*
X114849523Y-70774211D01*
X114679254Y-70714631D01*
X114679249Y-70714630D01*
X114500004Y-70694435D01*
X114499996Y-70694435D01*
X114320750Y-70714630D01*
X114320745Y-70714631D01*
X114150476Y-70774211D01*
X113997737Y-70870184D01*
X113870184Y-70997737D01*
X113774211Y-71150476D01*
X113714631Y-71320745D01*
X113714630Y-71320750D01*
X113694435Y-71499996D01*
X113694435Y-71500003D01*
X113714630Y-71679246D01*
X113714632Y-71679256D01*
X113732541Y-71730435D01*
X113739500Y-71771390D01*
X113739500Y-72074907D01*
X113768723Y-72221822D01*
X113768725Y-72221830D01*
X113826051Y-72360229D01*
X113826056Y-72360238D01*
X113909280Y-72484790D01*
X113909283Y-72484794D01*
X114019528Y-72595039D01*
X114019550Y-72595059D01*
X114906155Y-73481664D01*
X114906184Y-73481695D01*
X115015206Y-73590717D01*
X115015209Y-73590719D01*
X115070356Y-73627567D01*
X115139768Y-73673947D01*
X115278170Y-73731275D01*
X115405713Y-73756645D01*
X115425093Y-73760500D01*
X115425096Y-73760501D01*
X115425098Y-73760501D01*
X115581017Y-73760501D01*
X115581037Y-73760500D01*
X123133629Y-73760500D01*
X123200668Y-73780185D01*
X123221310Y-73796819D01*
X124203181Y-74778690D01*
X124236666Y-74840013D01*
X124239500Y-74866371D01*
X124239500Y-84068533D01*
X124219815Y-84135572D01*
X124167011Y-84181327D01*
X124129384Y-84191753D01*
X124060750Y-84199486D01*
X123890478Y-84259066D01*
X123737737Y-84355040D01*
X123610184Y-84482593D01*
X123514211Y-84635332D01*
X123454631Y-84805601D01*
X123454630Y-84805606D01*
X123434435Y-84984852D01*
X123434435Y-84984859D01*
X123454630Y-85164105D01*
X123454631Y-85164110D01*
X123514211Y-85334379D01*
X123610185Y-85487119D01*
X123612445Y-85489953D01*
X123613334Y-85492131D01*
X123613889Y-85493014D01*
X123613734Y-85493111D01*
X123638855Y-85554639D01*
X123639500Y-85567268D01*
X123639500Y-86124694D01*
X123619815Y-86191733D01*
X123612450Y-86202003D01*
X123610186Y-86204841D01*
X123514211Y-86357583D01*
X123454631Y-86527852D01*
X123454630Y-86527857D01*
X123434435Y-86707103D01*
X123434435Y-86707110D01*
X123454630Y-86886356D01*
X123454631Y-86886361D01*
X123514211Y-87056630D01*
X123569324Y-87144341D01*
X123610184Y-87209369D01*
X123737738Y-87336923D01*
X123828080Y-87393689D01*
X123850329Y-87407669D01*
X123890478Y-87432896D01*
X124060745Y-87492475D01*
X124129384Y-87500208D01*
X124193796Y-87527273D01*
X124233352Y-87584867D01*
X124239500Y-87623428D01*
X124239500Y-88574907D01*
X124268723Y-88721822D01*
X124268725Y-88721830D01*
X124326051Y-88860229D01*
X124326056Y-88860238D01*
X124409280Y-88984790D01*
X124409283Y-88984794D01*
X124519528Y-89095039D01*
X124519550Y-89095059D01*
X124962310Y-89537819D01*
X124995795Y-89599142D01*
X124990811Y-89668834D01*
X124948939Y-89724767D01*
X124883475Y-89749184D01*
X124874629Y-89749500D01*
X122702129Y-89749500D01*
X122702123Y-89749501D01*
X122642516Y-89755908D01*
X122507671Y-89806202D01*
X122507664Y-89806206D01*
X122392455Y-89892452D01*
X122392452Y-89892455D01*
X122306206Y-90007664D01*
X122306202Y-90007671D01*
X122255908Y-90142517D01*
X122249501Y-90202116D01*
X122249501Y-90202123D01*
X122249500Y-90202135D01*
X122249500Y-92797870D01*
X122249501Y-92797876D01*
X122255908Y-92857483D01*
X122306202Y-92992328D01*
X122306206Y-92992335D01*
X122392452Y-93107544D01*
X122392455Y-93107547D01*
X122507664Y-93193793D01*
X122507671Y-93193797D01*
X122642517Y-93244091D01*
X122642516Y-93244091D01*
X122649444Y-93244835D01*
X122702127Y-93250500D01*
X125297872Y-93250499D01*
X125357483Y-93244091D01*
X125492331Y-93193796D01*
X125607546Y-93107546D01*
X125623066Y-93086814D01*
X161761713Y-93086814D01*
X161858857Y-93133595D01*
X161858855Y-93133595D01*
X162109494Y-93210907D01*
X162109500Y-93210909D01*
X162368848Y-93249999D01*
X162368857Y-93250000D01*
X162631143Y-93250000D01*
X162631151Y-93249999D01*
X162890499Y-93210909D01*
X162890505Y-93210907D01*
X163141141Y-93133595D01*
X163141144Y-93133594D01*
X163238285Y-93086813D01*
X162500001Y-92348528D01*
X162500000Y-92348528D01*
X161761713Y-93086814D01*
X125623066Y-93086814D01*
X125693796Y-92992331D01*
X125744091Y-92857483D01*
X125750500Y-92797873D01*
X125750499Y-90625369D01*
X125770184Y-90558331D01*
X125822987Y-90512576D01*
X125892146Y-90502632D01*
X125955702Y-90531657D01*
X125962180Y-90537689D01*
X126764664Y-91340173D01*
X126781977Y-91361882D01*
X126801187Y-91392454D01*
X126870184Y-91502262D01*
X126997738Y-91629816D01*
X127017950Y-91642516D01*
X127127213Y-91711171D01*
X127150478Y-91725789D01*
X127252906Y-91761630D01*
X127320745Y-91785368D01*
X127320750Y-91785369D01*
X127499996Y-91805565D01*
X127500000Y-91805565D01*
X127500004Y-91805565D01*
X127679249Y-91785369D01*
X127679252Y-91785368D01*
X127679255Y-91785368D01*
X127849522Y-91725789D01*
X128002262Y-91629816D01*
X128065603Y-91566475D01*
X128126926Y-91532990D01*
X128196618Y-91537974D01*
X128240965Y-91566475D01*
X128338935Y-91664445D01*
X128368295Y-91711171D01*
X128399210Y-91799520D01*
X128399211Y-91799522D01*
X128495184Y-91952262D01*
X128622738Y-92079816D01*
X128775478Y-92175789D01*
X128945745Y-92235368D01*
X128945750Y-92235369D01*
X129124996Y-92255565D01*
X129125000Y-92255565D01*
X129125004Y-92255565D01*
X129304249Y-92235369D01*
X129304252Y-92235368D01*
X129304255Y-92235368D01*
X129474522Y-92175789D01*
X129627262Y-92079816D01*
X129754816Y-91952262D01*
X129850789Y-91799522D01*
X129910368Y-91629255D01*
X129917442Y-91566475D01*
X129924931Y-91500004D01*
X160745093Y-91500004D01*
X160764692Y-91761545D01*
X160764693Y-91761550D01*
X160823058Y-92017270D01*
X160910754Y-92240715D01*
X160910755Y-92240715D01*
X161587452Y-91564019D01*
X161850000Y-91564019D01*
X161874979Y-91689598D01*
X161923978Y-91807890D01*
X161995112Y-91914351D01*
X162085649Y-92004888D01*
X162192110Y-92076022D01*
X162310402Y-92125021D01*
X162435981Y-92150000D01*
X162564019Y-92150000D01*
X162689598Y-92125021D01*
X162807890Y-92076022D01*
X162914351Y-92004888D01*
X163004888Y-91914351D01*
X163076022Y-91807890D01*
X163125021Y-91689598D01*
X163150000Y-91564019D01*
X163150000Y-91500000D01*
X163348528Y-91500000D01*
X164089244Y-92240716D01*
X164089244Y-92240715D01*
X164176938Y-92017273D01*
X164176944Y-92017254D01*
X164235306Y-91761550D01*
X164235307Y-91761545D01*
X164254907Y-91500004D01*
X164254907Y-91499995D01*
X164235307Y-91238454D01*
X164235306Y-91238449D01*
X164176944Y-90982745D01*
X164176942Y-90982738D01*
X164089243Y-90759283D01*
X163348528Y-91499999D01*
X163348528Y-91500000D01*
X163150000Y-91500000D01*
X163150000Y-91435981D01*
X163125021Y-91310402D01*
X163076022Y-91192110D01*
X163004888Y-91085649D01*
X162914351Y-90995112D01*
X162807890Y-90923978D01*
X162689598Y-90874979D01*
X162564019Y-90850000D01*
X162435981Y-90850000D01*
X162310402Y-90874979D01*
X162192110Y-90923978D01*
X162085649Y-90995112D01*
X161995112Y-91085649D01*
X161923978Y-91192110D01*
X161874979Y-91310402D01*
X161850000Y-91435981D01*
X161850000Y-91564019D01*
X161587452Y-91564019D01*
X161651471Y-91500000D01*
X161651471Y-91499999D01*
X160910755Y-90759283D01*
X160910754Y-90759283D01*
X160823058Y-90982729D01*
X160764693Y-91238449D01*
X160764692Y-91238454D01*
X160745093Y-91499995D01*
X160745093Y-91500004D01*
X129924931Y-91500004D01*
X129930565Y-91450003D01*
X129930565Y-91449996D01*
X129910369Y-91270750D01*
X129910366Y-91270737D01*
X129850790Y-91100481D01*
X129850789Y-91100477D01*
X129808405Y-91033024D01*
X129799760Y-91016289D01*
X129798948Y-91014770D01*
X129790590Y-91002262D01*
X129766135Y-90965662D01*
X129764266Y-90962777D01*
X129754816Y-90947738D01*
X129754815Y-90947737D01*
X129754020Y-90946740D01*
X129747862Y-90938315D01*
X129738282Y-90923978D01*
X129715719Y-90890209D01*
X129609791Y-90784281D01*
X129609790Y-90784280D01*
X128738695Y-89913185D01*
X161761714Y-89913185D01*
X162500000Y-90651471D01*
X162500001Y-90651471D01*
X163238285Y-89913186D01*
X163238284Y-89913184D01*
X163141142Y-89866404D01*
X163141144Y-89866404D01*
X162890505Y-89789092D01*
X162890499Y-89789090D01*
X162631151Y-89750000D01*
X162368848Y-89750000D01*
X162109500Y-89789090D01*
X162109494Y-89789092D01*
X161858856Y-89866403D01*
X161761714Y-89913184D01*
X161761714Y-89913185D01*
X128738695Y-89913185D01*
X128223380Y-89397870D01*
X129149500Y-89397870D01*
X129149501Y-89397876D01*
X129155908Y-89457483D01*
X129206202Y-89592328D01*
X129206206Y-89592335D01*
X129292452Y-89707544D01*
X129292455Y-89707547D01*
X129407664Y-89793793D01*
X129407671Y-89793797D01*
X129542517Y-89844091D01*
X129542516Y-89844091D01*
X129549444Y-89844835D01*
X129602127Y-89850500D01*
X131397872Y-89850499D01*
X131457483Y-89844091D01*
X131592331Y-89793796D01*
X131707546Y-89707546D01*
X131793796Y-89592331D01*
X131842810Y-89460916D01*
X131884681Y-89404984D01*
X131950145Y-89380566D01*
X132018418Y-89395417D01*
X132046673Y-89416569D01*
X132168599Y-89538495D01*
X132255212Y-89599142D01*
X132362165Y-89674032D01*
X132362167Y-89674033D01*
X132362170Y-89674035D01*
X132576337Y-89773903D01*
X132804592Y-89835063D01*
X132981034Y-89850500D01*
X133039999Y-89855659D01*
X133040000Y-89855659D01*
X133040001Y-89855659D01*
X133098966Y-89850500D01*
X133275408Y-89835063D01*
X133503663Y-89773903D01*
X133717830Y-89674035D01*
X133911401Y-89538495D01*
X134078495Y-89371401D01*
X134208425Y-89185842D01*
X134263002Y-89142217D01*
X134332500Y-89135023D01*
X134394855Y-89166546D01*
X134411575Y-89185842D01*
X134541500Y-89371395D01*
X134541505Y-89371401D01*
X134708599Y-89538495D01*
X134795212Y-89599142D01*
X134902165Y-89674032D01*
X134902167Y-89674033D01*
X134902170Y-89674035D01*
X135116337Y-89773903D01*
X135344592Y-89835063D01*
X135521034Y-89850500D01*
X135579999Y-89855659D01*
X135580000Y-89855659D01*
X135580001Y-89855659D01*
X135638966Y-89850500D01*
X135815408Y-89835063D01*
X136043663Y-89773903D01*
X136257830Y-89674035D01*
X136451401Y-89538495D01*
X136618495Y-89371401D01*
X136748425Y-89185842D01*
X136803002Y-89142217D01*
X136872500Y-89135023D01*
X136934855Y-89166546D01*
X136951575Y-89185842D01*
X137081500Y-89371395D01*
X137081505Y-89371401D01*
X137248599Y-89538495D01*
X137335212Y-89599142D01*
X137442165Y-89674032D01*
X137442167Y-89674033D01*
X137442170Y-89674035D01*
X137656337Y-89773903D01*
X137884592Y-89835063D01*
X138061034Y-89850500D01*
X138119999Y-89855659D01*
X138120000Y-89855659D01*
X138120001Y-89855659D01*
X138178966Y-89850500D01*
X138355408Y-89835063D01*
X138583663Y-89773903D01*
X138797830Y-89674035D01*
X138991401Y-89538495D01*
X139158495Y-89371401D01*
X139288425Y-89185842D01*
X139343002Y-89142217D01*
X139412500Y-89135023D01*
X139474855Y-89166546D01*
X139491575Y-89185842D01*
X139621500Y-89371395D01*
X139621505Y-89371401D01*
X139788599Y-89538495D01*
X139875212Y-89599142D01*
X139982165Y-89674032D01*
X139982167Y-89674033D01*
X139982170Y-89674035D01*
X140196337Y-89773903D01*
X140424592Y-89835063D01*
X140601034Y-89850500D01*
X140659999Y-89855659D01*
X140660000Y-89855659D01*
X140660001Y-89855659D01*
X140718966Y-89850500D01*
X140895408Y-89835063D01*
X141123663Y-89773903D01*
X141337830Y-89674035D01*
X141531401Y-89538495D01*
X141698495Y-89371401D01*
X141828425Y-89185842D01*
X141883002Y-89142217D01*
X141952500Y-89135023D01*
X142014855Y-89166546D01*
X142031575Y-89185842D01*
X142161500Y-89371395D01*
X142161505Y-89371401D01*
X142328599Y-89538495D01*
X142415212Y-89599142D01*
X142522165Y-89674032D01*
X142522167Y-89674033D01*
X142522170Y-89674035D01*
X142736337Y-89773903D01*
X142964592Y-89835063D01*
X143141034Y-89850500D01*
X143199999Y-89855659D01*
X143200000Y-89855659D01*
X143200001Y-89855659D01*
X143258966Y-89850500D01*
X143435408Y-89835063D01*
X143663663Y-89773903D01*
X143877830Y-89674035D01*
X144071401Y-89538495D01*
X144238495Y-89371401D01*
X144368425Y-89185842D01*
X144423002Y-89142217D01*
X144492500Y-89135023D01*
X144554855Y-89166546D01*
X144571575Y-89185842D01*
X144701500Y-89371395D01*
X144701505Y-89371401D01*
X144868599Y-89538495D01*
X144955212Y-89599142D01*
X145062165Y-89674032D01*
X145062167Y-89674033D01*
X145062170Y-89674035D01*
X145276337Y-89773903D01*
X145504592Y-89835063D01*
X145681034Y-89850500D01*
X145739999Y-89855659D01*
X145740000Y-89855659D01*
X145740001Y-89855659D01*
X145798966Y-89850500D01*
X145975408Y-89835063D01*
X146203663Y-89773903D01*
X146417830Y-89674035D01*
X146611401Y-89538495D01*
X146778495Y-89371401D01*
X146908425Y-89185842D01*
X146963002Y-89142217D01*
X147032500Y-89135023D01*
X147094855Y-89166546D01*
X147111575Y-89185842D01*
X147241500Y-89371395D01*
X147241505Y-89371401D01*
X147408599Y-89538495D01*
X147495212Y-89599142D01*
X147602165Y-89674032D01*
X147602167Y-89674033D01*
X147602170Y-89674035D01*
X147816337Y-89773903D01*
X148044592Y-89835063D01*
X148221034Y-89850500D01*
X148279999Y-89855659D01*
X148280000Y-89855659D01*
X148280001Y-89855659D01*
X148338966Y-89850500D01*
X148515408Y-89835063D01*
X148743663Y-89773903D01*
X148957830Y-89674035D01*
X149151401Y-89538495D01*
X149318495Y-89371401D01*
X149448425Y-89185842D01*
X149503002Y-89142217D01*
X149572500Y-89135023D01*
X149634855Y-89166546D01*
X149651575Y-89185842D01*
X149781500Y-89371395D01*
X149781505Y-89371401D01*
X149948599Y-89538495D01*
X150035212Y-89599142D01*
X150142165Y-89674032D01*
X150142167Y-89674033D01*
X150142170Y-89674035D01*
X150356337Y-89773903D01*
X150584592Y-89835063D01*
X150761034Y-89850500D01*
X150819999Y-89855659D01*
X150820000Y-89855659D01*
X150820001Y-89855659D01*
X150878966Y-89850500D01*
X151055408Y-89835063D01*
X151283663Y-89773903D01*
X151497830Y-89674035D01*
X151691401Y-89538495D01*
X151858495Y-89371401D01*
X151994035Y-89177830D01*
X152076957Y-89000003D01*
X165694435Y-89000003D01*
X165714630Y-89179249D01*
X165714631Y-89179254D01*
X165774211Y-89349523D01*
X165870184Y-89502262D01*
X166001674Y-89633752D01*
X166035159Y-89695075D01*
X166030175Y-89764767D01*
X165988305Y-89820699D01*
X165892452Y-89892455D01*
X165806206Y-90007664D01*
X165806202Y-90007671D01*
X165755908Y-90142517D01*
X165749501Y-90202116D01*
X165749501Y-90202123D01*
X165749500Y-90202135D01*
X165749500Y-92797870D01*
X165749501Y-92797876D01*
X165755908Y-92857483D01*
X165806202Y-92992328D01*
X165806206Y-92992335D01*
X165892452Y-93107544D01*
X165892455Y-93107547D01*
X166007664Y-93193793D01*
X166007671Y-93193797D01*
X166142517Y-93244091D01*
X166142516Y-93244091D01*
X166149444Y-93244835D01*
X166202127Y-93250500D01*
X168797872Y-93250499D01*
X168857483Y-93244091D01*
X168992331Y-93193796D01*
X169107546Y-93107546D01*
X169193796Y-92992331D01*
X169244091Y-92857483D01*
X169250500Y-92797873D01*
X169250499Y-90202128D01*
X169244091Y-90142517D01*
X169193796Y-90007669D01*
X169193795Y-90007668D01*
X169193793Y-90007664D01*
X169107547Y-89892455D01*
X169107544Y-89892452D01*
X168992335Y-89806206D01*
X168992328Y-89806202D01*
X168857482Y-89755908D01*
X168857483Y-89755908D01*
X168797883Y-89749501D01*
X168797881Y-89749500D01*
X168797873Y-89749500D01*
X168797865Y-89749500D01*
X167181940Y-89749500D01*
X167114901Y-89729815D01*
X167069146Y-89677011D01*
X167059202Y-89607853D01*
X167088227Y-89544297D01*
X167094259Y-89537819D01*
X167111850Y-89520228D01*
X167129816Y-89502262D01*
X167225789Y-89349522D01*
X167285368Y-89179255D01*
X167286800Y-89166546D01*
X167305565Y-89000003D01*
X167305565Y-88999996D01*
X167285369Y-88820750D01*
X167285368Y-88820745D01*
X167255507Y-88735408D01*
X167225789Y-88650478D01*
X167129816Y-88497738D01*
X167129814Y-88497736D01*
X167129813Y-88497734D01*
X167127550Y-88494896D01*
X167126659Y-88492715D01*
X167126111Y-88491842D01*
X167126264Y-88491745D01*
X167101144Y-88430209D01*
X167100500Y-88417587D01*
X167100500Y-87082412D01*
X167120185Y-87015373D01*
X167127555Y-87005097D01*
X167129810Y-87002267D01*
X167129816Y-87002262D01*
X167225789Y-86849522D01*
X167285368Y-86679255D01*
X167291192Y-86627567D01*
X167305565Y-86500003D01*
X167305565Y-86499996D01*
X167285369Y-86320750D01*
X167285368Y-86320745D01*
X167240225Y-86191733D01*
X167225789Y-86150478D01*
X167129816Y-85997738D01*
X167002262Y-85870184D01*
X166849523Y-85774211D01*
X166679254Y-85714631D01*
X166679249Y-85714630D01*
X166500004Y-85694435D01*
X166499996Y-85694435D01*
X166320750Y-85714630D01*
X166320745Y-85714631D01*
X166150476Y-85774211D01*
X165997737Y-85870184D01*
X165870184Y-85997737D01*
X165774211Y-86150476D01*
X165714631Y-86320745D01*
X165714630Y-86320750D01*
X165694435Y-86499996D01*
X165694435Y-86500003D01*
X165714630Y-86679249D01*
X165714631Y-86679254D01*
X165774211Y-86849523D01*
X165870185Y-87002263D01*
X165872445Y-87005097D01*
X165873334Y-87007275D01*
X165873889Y-87008158D01*
X165873734Y-87008255D01*
X165898855Y-87069783D01*
X165899500Y-87082412D01*
X165899500Y-88417587D01*
X165879815Y-88484626D01*
X165872450Y-88494896D01*
X165870186Y-88497734D01*
X165774211Y-88650476D01*
X165714631Y-88820745D01*
X165714630Y-88820750D01*
X165694435Y-88999996D01*
X165694435Y-89000003D01*
X152076957Y-89000003D01*
X152093903Y-88963663D01*
X152155063Y-88735408D01*
X152175659Y-88500000D01*
X152175212Y-88494896D01*
X152155063Y-88264596D01*
X152155063Y-88264592D01*
X152093903Y-88036337D01*
X151994035Y-87822171D01*
X151988425Y-87814158D01*
X151858494Y-87628597D01*
X151691402Y-87461506D01*
X151691395Y-87461501D01*
X151497834Y-87325967D01*
X151497830Y-87325965D01*
X151497828Y-87325964D01*
X151283663Y-87226097D01*
X151283659Y-87226096D01*
X151283655Y-87226094D01*
X151055413Y-87164938D01*
X151055403Y-87164936D01*
X150820001Y-87144341D01*
X150819999Y-87144341D01*
X150584596Y-87164936D01*
X150584586Y-87164938D01*
X150356344Y-87226094D01*
X150356335Y-87226098D01*
X150142171Y-87325964D01*
X150142169Y-87325965D01*
X149948597Y-87461505D01*
X149781505Y-87628597D01*
X149651575Y-87814158D01*
X149596998Y-87857783D01*
X149527500Y-87864977D01*
X149465145Y-87833454D01*
X149448425Y-87814158D01*
X149318494Y-87628597D01*
X149151402Y-87461506D01*
X149151395Y-87461501D01*
X148957834Y-87325967D01*
X148957830Y-87325965D01*
X148957828Y-87325964D01*
X148743663Y-87226097D01*
X148743659Y-87226096D01*
X148743655Y-87226094D01*
X148515413Y-87164938D01*
X148515403Y-87164936D01*
X148280001Y-87144341D01*
X148279999Y-87144341D01*
X148044596Y-87164936D01*
X148044586Y-87164938D01*
X147816344Y-87226094D01*
X147816335Y-87226098D01*
X147602171Y-87325964D01*
X147602169Y-87325965D01*
X147408597Y-87461505D01*
X147241505Y-87628597D01*
X147111575Y-87814158D01*
X147056998Y-87857783D01*
X146987500Y-87864977D01*
X146925145Y-87833454D01*
X146908425Y-87814158D01*
X146778494Y-87628597D01*
X146611402Y-87461506D01*
X146611395Y-87461501D01*
X146417834Y-87325967D01*
X146417830Y-87325965D01*
X146417828Y-87325964D01*
X146203663Y-87226097D01*
X146203659Y-87226096D01*
X146203655Y-87226094D01*
X145975413Y-87164938D01*
X145975403Y-87164936D01*
X145740001Y-87144341D01*
X145739999Y-87144341D01*
X145504596Y-87164936D01*
X145504586Y-87164938D01*
X145276344Y-87226094D01*
X145276335Y-87226098D01*
X145062171Y-87325964D01*
X145062169Y-87325965D01*
X144868597Y-87461505D01*
X144701505Y-87628597D01*
X144571575Y-87814158D01*
X144516998Y-87857783D01*
X144447500Y-87864977D01*
X144385145Y-87833454D01*
X144368425Y-87814158D01*
X144238494Y-87628597D01*
X144071402Y-87461506D01*
X144071395Y-87461501D01*
X143877834Y-87325967D01*
X143877830Y-87325965D01*
X143877828Y-87325964D01*
X143663663Y-87226097D01*
X143663659Y-87226096D01*
X143663655Y-87226094D01*
X143435413Y-87164938D01*
X143435403Y-87164936D01*
X143200001Y-87144341D01*
X143199999Y-87144341D01*
X142964596Y-87164936D01*
X142964586Y-87164938D01*
X142736344Y-87226094D01*
X142736335Y-87226098D01*
X142522171Y-87325964D01*
X142522169Y-87325965D01*
X142328597Y-87461505D01*
X142161505Y-87628597D01*
X142031575Y-87814158D01*
X141976998Y-87857783D01*
X141907500Y-87864977D01*
X141845145Y-87833454D01*
X141828425Y-87814158D01*
X141698494Y-87628597D01*
X141531402Y-87461506D01*
X141531395Y-87461501D01*
X141337834Y-87325967D01*
X141337830Y-87325965D01*
X141337828Y-87325964D01*
X141123663Y-87226097D01*
X141123659Y-87226096D01*
X141123655Y-87226094D01*
X140895413Y-87164938D01*
X140895403Y-87164936D01*
X140660001Y-87144341D01*
X140659999Y-87144341D01*
X140424596Y-87164936D01*
X140424586Y-87164938D01*
X140196344Y-87226094D01*
X140196335Y-87226098D01*
X139982171Y-87325964D01*
X139982169Y-87325965D01*
X139788597Y-87461505D01*
X139621505Y-87628597D01*
X139491575Y-87814158D01*
X139436998Y-87857783D01*
X139367500Y-87864977D01*
X139305145Y-87833454D01*
X139288425Y-87814158D01*
X139158494Y-87628597D01*
X138991402Y-87461506D01*
X138991395Y-87461501D01*
X138797834Y-87325967D01*
X138797830Y-87325965D01*
X138797828Y-87325964D01*
X138583663Y-87226097D01*
X138583659Y-87226096D01*
X138583655Y-87226094D01*
X138355413Y-87164938D01*
X138355403Y-87164936D01*
X138120001Y-87144341D01*
X138119999Y-87144341D01*
X137884596Y-87164936D01*
X137884586Y-87164938D01*
X137656344Y-87226094D01*
X137656335Y-87226098D01*
X137442171Y-87325964D01*
X137442169Y-87325965D01*
X137248597Y-87461505D01*
X137081505Y-87628597D01*
X136951575Y-87814158D01*
X136896998Y-87857783D01*
X136827500Y-87864977D01*
X136765145Y-87833454D01*
X136748425Y-87814158D01*
X136618494Y-87628597D01*
X136451402Y-87461506D01*
X136451395Y-87461501D01*
X136257834Y-87325967D01*
X136257830Y-87325965D01*
X136257828Y-87325964D01*
X136043663Y-87226097D01*
X136043659Y-87226096D01*
X136043655Y-87226094D01*
X135815413Y-87164938D01*
X135815403Y-87164936D01*
X135580001Y-87144341D01*
X135579999Y-87144341D01*
X135344596Y-87164936D01*
X135344586Y-87164938D01*
X135116344Y-87226094D01*
X135116335Y-87226098D01*
X134902171Y-87325964D01*
X134902169Y-87325965D01*
X134708597Y-87461505D01*
X134541505Y-87628597D01*
X134411575Y-87814158D01*
X134356998Y-87857783D01*
X134287500Y-87864977D01*
X134225145Y-87833454D01*
X134208425Y-87814158D01*
X134078494Y-87628597D01*
X133911402Y-87461506D01*
X133911395Y-87461501D01*
X133717834Y-87325967D01*
X133717830Y-87325965D01*
X133717828Y-87325964D01*
X133503663Y-87226097D01*
X133503659Y-87226096D01*
X133503655Y-87226094D01*
X133275413Y-87164938D01*
X133275403Y-87164936D01*
X133040001Y-87144341D01*
X133039999Y-87144341D01*
X132804596Y-87164936D01*
X132804586Y-87164938D01*
X132576344Y-87226094D01*
X132576335Y-87226098D01*
X132362171Y-87325964D01*
X132362169Y-87325965D01*
X132168600Y-87461503D01*
X132046673Y-87583430D01*
X131985350Y-87616914D01*
X131915658Y-87611930D01*
X131859725Y-87570058D01*
X131842810Y-87539081D01*
X131793797Y-87407671D01*
X131793793Y-87407664D01*
X131707547Y-87292455D01*
X131707544Y-87292452D01*
X131592335Y-87206206D01*
X131592328Y-87206202D01*
X131457482Y-87155908D01*
X131457483Y-87155908D01*
X131397883Y-87149501D01*
X131397881Y-87149500D01*
X131397873Y-87149500D01*
X131397864Y-87149500D01*
X129602129Y-87149500D01*
X129602123Y-87149501D01*
X129542516Y-87155908D01*
X129407671Y-87206202D01*
X129407664Y-87206206D01*
X129292455Y-87292452D01*
X129292452Y-87292455D01*
X129206206Y-87407664D01*
X129206202Y-87407671D01*
X129155908Y-87542517D01*
X129149501Y-87602116D01*
X129149500Y-87602135D01*
X129149500Y-89397870D01*
X128223380Y-89397870D01*
X126796819Y-87971309D01*
X126763334Y-87909986D01*
X126760500Y-87883628D01*
X126760500Y-84709758D01*
X126780185Y-84642719D01*
X126832989Y-84596964D01*
X126902147Y-84587020D01*
X126965703Y-84616045D01*
X126972181Y-84622077D01*
X127128599Y-84778495D01*
X127225384Y-84846265D01*
X127322165Y-84914032D01*
X127322167Y-84914033D01*
X127322170Y-84914035D01*
X127536337Y-85013903D01*
X127764592Y-85075063D01*
X127952918Y-85091539D01*
X127999999Y-85095659D01*
X128000000Y-85095659D01*
X128000001Y-85095659D01*
X128039234Y-85092226D01*
X128235408Y-85075063D01*
X128463663Y-85013903D01*
X128677830Y-84914035D01*
X128871401Y-84778495D01*
X129038495Y-84611401D01*
X129174035Y-84417830D01*
X129273903Y-84203663D01*
X129335063Y-83975408D01*
X129355659Y-83740000D01*
X129335063Y-83504592D01*
X129273903Y-83276337D01*
X129174035Y-83062171D01*
X129054466Y-82891407D01*
X129038494Y-82868597D01*
X128871402Y-82701506D01*
X128871396Y-82701501D01*
X128685842Y-82571575D01*
X128642217Y-82516998D01*
X128635023Y-82447500D01*
X128666546Y-82385145D01*
X128685842Y-82368425D01*
X128769995Y-82309500D01*
X128871401Y-82238495D01*
X129038495Y-82071401D01*
X129174035Y-81877830D01*
X129273903Y-81663663D01*
X129335063Y-81435408D01*
X129355659Y-81200000D01*
X129335063Y-80964592D01*
X129273903Y-80736337D01*
X129174035Y-80522171D01*
X129118018Y-80442169D01*
X129038494Y-80328597D01*
X128871402Y-80161506D01*
X128871396Y-80161501D01*
X128685842Y-80031575D01*
X128642217Y-79976998D01*
X128635023Y-79907500D01*
X128666546Y-79845145D01*
X128685842Y-79828425D01*
X128776215Y-79765145D01*
X128871401Y-79698495D01*
X129038495Y-79531401D01*
X129174035Y-79337830D01*
X129273903Y-79123663D01*
X129335063Y-78895408D01*
X129355659Y-78660000D01*
X129335063Y-78424592D01*
X129273903Y-78196337D01*
X129174035Y-77982171D01*
X129123378Y-77909824D01*
X129038494Y-77788597D01*
X128871402Y-77621506D01*
X128871396Y-77621501D01*
X128685842Y-77491575D01*
X128642217Y-77436998D01*
X128635023Y-77367500D01*
X128666546Y-77305145D01*
X128685842Y-77288425D01*
X128758089Y-77237837D01*
X138386424Y-77237837D01*
X138520858Y-77284877D01*
X138520861Y-77284878D01*
X138699997Y-77305062D01*
X138700003Y-77305062D01*
X138879138Y-77284878D01*
X138879141Y-77284877D01*
X139013574Y-77237837D01*
X139786424Y-77237837D01*
X139920858Y-77284877D01*
X139920861Y-77284878D01*
X140099997Y-77305062D01*
X140100003Y-77305062D01*
X140279138Y-77284878D01*
X140279141Y-77284877D01*
X140413574Y-77237837D01*
X140100001Y-76924264D01*
X140100000Y-76924264D01*
X139786424Y-77237837D01*
X139013574Y-77237837D01*
X138700001Y-76924264D01*
X138700000Y-76924264D01*
X138386424Y-77237837D01*
X128758089Y-77237837D01*
X128776215Y-77225145D01*
X128871401Y-77158495D01*
X129038495Y-76991401D01*
X129174035Y-76797830D01*
X129273903Y-76583663D01*
X129286182Y-76537837D01*
X137686424Y-76537837D01*
X137820859Y-76584877D01*
X137821644Y-76585057D01*
X137822099Y-76585311D01*
X137827430Y-76587177D01*
X137827103Y-76588110D01*
X137882623Y-76619166D01*
X137911953Y-76672875D01*
X137912823Y-76672571D01*
X137914670Y-76677851D01*
X137914939Y-76678343D01*
X137915120Y-76679135D01*
X137962160Y-76813573D01*
X137962161Y-76813574D01*
X138255845Y-76519891D01*
X138600000Y-76519891D01*
X138615224Y-76556645D01*
X138643355Y-76584776D01*
X138680109Y-76600000D01*
X138719891Y-76600000D01*
X138756645Y-76584776D01*
X138784776Y-76556645D01*
X138800000Y-76519891D01*
X138800000Y-76500000D01*
X139124264Y-76500000D01*
X139400000Y-76775736D01*
X139655845Y-76519891D01*
X140000000Y-76519891D01*
X140015224Y-76556645D01*
X140043355Y-76584776D01*
X140080109Y-76600000D01*
X140119891Y-76600000D01*
X140156645Y-76584776D01*
X140184776Y-76556645D01*
X140200000Y-76519891D01*
X140200000Y-76500000D01*
X140524264Y-76500000D01*
X140837837Y-76813573D01*
X140884876Y-76679144D01*
X140885056Y-76678358D01*
X140885311Y-76677901D01*
X140887177Y-76672570D01*
X140888110Y-76672896D01*
X140919164Y-76617379D01*
X140972875Y-76588049D01*
X140972570Y-76587177D01*
X140977870Y-76585322D01*
X140978358Y-76585056D01*
X140979144Y-76584876D01*
X141113573Y-76537837D01*
X140800000Y-76224264D01*
X140524264Y-76500000D01*
X140200000Y-76500000D01*
X140200000Y-76480109D01*
X140184776Y-76443355D01*
X140156645Y-76415224D01*
X140119891Y-76400000D01*
X140080109Y-76400000D01*
X140043355Y-76415224D01*
X140015224Y-76443355D01*
X140000000Y-76480109D01*
X140000000Y-76519891D01*
X139655845Y-76519891D01*
X139675736Y-76500000D01*
X139400000Y-76224264D01*
X139124264Y-76500000D01*
X138800000Y-76500000D01*
X138800000Y-76480109D01*
X138784776Y-76443355D01*
X138756645Y-76415224D01*
X138719891Y-76400000D01*
X138680109Y-76400000D01*
X138643355Y-76415224D01*
X138615224Y-76443355D01*
X138600000Y-76480109D01*
X138600000Y-76519891D01*
X138255845Y-76519891D01*
X138275736Y-76500000D01*
X138275736Y-76499999D01*
X138000001Y-76224264D01*
X138000000Y-76224264D01*
X137686424Y-76537837D01*
X129286182Y-76537837D01*
X129335063Y-76355408D01*
X129355659Y-76120000D01*
X129335063Y-75884592D01*
X129312397Y-75800002D01*
X137194938Y-75800002D01*
X137215122Y-75979142D01*
X137262160Y-76113573D01*
X137262161Y-76113574D01*
X137555845Y-75819891D01*
X137900000Y-75819891D01*
X137915224Y-75856645D01*
X137943355Y-75884776D01*
X137980109Y-75900000D01*
X138019891Y-75900000D01*
X138056645Y-75884776D01*
X138084776Y-75856645D01*
X138100000Y-75819891D01*
X138100000Y-75800000D01*
X138424264Y-75800000D01*
X138700000Y-76075736D01*
X138955845Y-75819891D01*
X139300000Y-75819891D01*
X139315224Y-75856645D01*
X139343355Y-75884776D01*
X139380109Y-75900000D01*
X139419891Y-75900000D01*
X139456645Y-75884776D01*
X139484776Y-75856645D01*
X139500000Y-75819891D01*
X139500000Y-75800000D01*
X139824264Y-75800000D01*
X140100000Y-76075736D01*
X140355845Y-75819891D01*
X140700000Y-75819891D01*
X140715224Y-75856645D01*
X140743355Y-75884776D01*
X140780109Y-75900000D01*
X140819891Y-75900000D01*
X140856645Y-75884776D01*
X140884776Y-75856645D01*
X140900000Y-75819891D01*
X140900000Y-75800000D01*
X141224264Y-75800000D01*
X141537837Y-76113573D01*
X141584877Y-75979141D01*
X141584878Y-75979138D01*
X141605062Y-75800002D01*
X141605062Y-75799997D01*
X141584878Y-75620861D01*
X141584877Y-75620858D01*
X141537837Y-75486425D01*
X141537837Y-75486424D01*
X141224264Y-75799999D01*
X141224264Y-75800000D01*
X140900000Y-75800000D01*
X140900000Y-75780109D01*
X140884776Y-75743355D01*
X140856645Y-75715224D01*
X140819891Y-75700000D01*
X140780109Y-75700000D01*
X140743355Y-75715224D01*
X140715224Y-75743355D01*
X140700000Y-75780109D01*
X140700000Y-75819891D01*
X140355845Y-75819891D01*
X140375736Y-75800000D01*
X140100000Y-75524264D01*
X139824264Y-75800000D01*
X139500000Y-75800000D01*
X139500000Y-75780109D01*
X139484776Y-75743355D01*
X139456645Y-75715224D01*
X139419891Y-75700000D01*
X139380109Y-75700000D01*
X139343355Y-75715224D01*
X139315224Y-75743355D01*
X139300000Y-75780109D01*
X139300000Y-75819891D01*
X138955845Y-75819891D01*
X138975736Y-75800000D01*
X138700000Y-75524264D01*
X138424264Y-75800000D01*
X138100000Y-75800000D01*
X138100000Y-75780109D01*
X138084776Y-75743355D01*
X138056645Y-75715224D01*
X138019891Y-75700000D01*
X137980109Y-75700000D01*
X137943355Y-75715224D01*
X137915224Y-75743355D01*
X137900000Y-75780109D01*
X137900000Y-75819891D01*
X137555845Y-75819891D01*
X137575736Y-75800000D01*
X137262160Y-75486424D01*
X137215122Y-75620857D01*
X137194938Y-75799997D01*
X137194938Y-75800002D01*
X129312397Y-75800002D01*
X129273903Y-75656337D01*
X129174035Y-75442171D01*
X129118018Y-75362169D01*
X129038494Y-75248597D01*
X128889896Y-75100000D01*
X137724264Y-75100000D01*
X138000000Y-75375736D01*
X138255845Y-75119891D01*
X138600000Y-75119891D01*
X138615224Y-75156645D01*
X138643355Y-75184776D01*
X138680109Y-75200000D01*
X138719891Y-75200000D01*
X138756645Y-75184776D01*
X138784776Y-75156645D01*
X138800000Y-75119891D01*
X138800000Y-75100000D01*
X139124264Y-75100000D01*
X139400000Y-75375736D01*
X139655845Y-75119891D01*
X140000000Y-75119891D01*
X140015224Y-75156645D01*
X140043355Y-75184776D01*
X140080109Y-75200000D01*
X140119891Y-75200000D01*
X140156645Y-75184776D01*
X140184776Y-75156645D01*
X140200000Y-75119891D01*
X140200000Y-75100000D01*
X140524264Y-75100000D01*
X140800000Y-75375736D01*
X141075736Y-75100000D01*
X140800000Y-74824264D01*
X140524264Y-75100000D01*
X140200000Y-75100000D01*
X140200000Y-75080109D01*
X140184776Y-75043355D01*
X140156645Y-75015224D01*
X140119891Y-75000000D01*
X140080109Y-75000000D01*
X140043355Y-75015224D01*
X140015224Y-75043355D01*
X140000000Y-75080109D01*
X140000000Y-75119891D01*
X139655845Y-75119891D01*
X139675736Y-75100000D01*
X139400000Y-74824264D01*
X139124264Y-75100000D01*
X138800000Y-75100000D01*
X138800000Y-75080109D01*
X138784776Y-75043355D01*
X138756645Y-75015224D01*
X138719891Y-75000000D01*
X138680109Y-75000000D01*
X138643355Y-75015224D01*
X138615224Y-75043355D01*
X138600000Y-75080109D01*
X138600000Y-75119891D01*
X138255845Y-75119891D01*
X138275736Y-75100000D01*
X138000000Y-74824264D01*
X137724264Y-75100000D01*
X128889896Y-75100000D01*
X128871402Y-75081506D01*
X128871396Y-75081501D01*
X128685842Y-74951575D01*
X128642217Y-74896998D01*
X128635023Y-74827500D01*
X128666546Y-74765145D01*
X128685842Y-74748425D01*
X128789652Y-74675736D01*
X128871401Y-74618495D01*
X129038495Y-74451401D01*
X129074485Y-74400002D01*
X137194938Y-74400002D01*
X137215122Y-74579142D01*
X137262160Y-74713573D01*
X137262161Y-74713574D01*
X137555845Y-74419891D01*
X137900000Y-74419891D01*
X137915224Y-74456645D01*
X137943355Y-74484776D01*
X137980109Y-74500000D01*
X138019891Y-74500000D01*
X138056645Y-74484776D01*
X138084776Y-74456645D01*
X138100000Y-74419891D01*
X138100000Y-74400000D01*
X138424264Y-74400000D01*
X138700000Y-74675736D01*
X138955845Y-74419891D01*
X139300000Y-74419891D01*
X139315224Y-74456645D01*
X139343355Y-74484776D01*
X139380109Y-74500000D01*
X139419891Y-74500000D01*
X139456645Y-74484776D01*
X139484776Y-74456645D01*
X139500000Y-74419891D01*
X139500000Y-74400000D01*
X139824264Y-74400000D01*
X140100000Y-74675736D01*
X140355845Y-74419891D01*
X140700000Y-74419891D01*
X140715224Y-74456645D01*
X140743355Y-74484776D01*
X140780109Y-74500000D01*
X140819891Y-74500000D01*
X140856645Y-74484776D01*
X140884776Y-74456645D01*
X140900000Y-74419891D01*
X140900000Y-74400000D01*
X141224264Y-74400000D01*
X141537837Y-74713573D01*
X141584877Y-74579141D01*
X141584878Y-74579138D01*
X141605062Y-74400002D01*
X141605062Y-74399997D01*
X141584878Y-74220861D01*
X141584877Y-74220858D01*
X141537837Y-74086425D01*
X141537837Y-74086424D01*
X141224264Y-74399999D01*
X141224264Y-74400000D01*
X140900000Y-74400000D01*
X140900000Y-74380109D01*
X140884776Y-74343355D01*
X140856645Y-74315224D01*
X140819891Y-74300000D01*
X140780109Y-74300000D01*
X140743355Y-74315224D01*
X140715224Y-74343355D01*
X140700000Y-74380109D01*
X140700000Y-74419891D01*
X140355845Y-74419891D01*
X140375736Y-74400000D01*
X140100000Y-74124264D01*
X139824264Y-74400000D01*
X139500000Y-74400000D01*
X139500000Y-74380109D01*
X139484776Y-74343355D01*
X139456645Y-74315224D01*
X139419891Y-74300000D01*
X139380109Y-74300000D01*
X139343355Y-74315224D01*
X139315224Y-74343355D01*
X139300000Y-74380109D01*
X139300000Y-74419891D01*
X138955845Y-74419891D01*
X138975736Y-74400000D01*
X138700000Y-74124264D01*
X138424264Y-74400000D01*
X138100000Y-74400000D01*
X138100000Y-74380109D01*
X138084776Y-74343355D01*
X138056645Y-74315224D01*
X138019891Y-74300000D01*
X137980109Y-74300000D01*
X137943355Y-74315224D01*
X137915224Y-74343355D01*
X137900000Y-74380109D01*
X137900000Y-74419891D01*
X137555845Y-74419891D01*
X137575736Y-74400000D01*
X137262160Y-74086424D01*
X137215122Y-74220857D01*
X137194938Y-74399997D01*
X137194938Y-74400002D01*
X129074485Y-74400002D01*
X129174035Y-74257830D01*
X129273903Y-74043663D01*
X129335063Y-73815408D01*
X129348471Y-73662160D01*
X137686424Y-73662160D01*
X138000000Y-73975736D01*
X138255845Y-73719891D01*
X138600000Y-73719891D01*
X138615224Y-73756645D01*
X138643355Y-73784776D01*
X138680109Y-73800000D01*
X138719891Y-73800000D01*
X138756645Y-73784776D01*
X138784776Y-73756645D01*
X138800000Y-73719891D01*
X138800000Y-73700000D01*
X139124264Y-73700000D01*
X139400000Y-73975736D01*
X139655845Y-73719891D01*
X140000000Y-73719891D01*
X140015224Y-73756645D01*
X140043355Y-73784776D01*
X140080109Y-73800000D01*
X140119891Y-73800000D01*
X140156645Y-73784776D01*
X140184776Y-73756645D01*
X140200000Y-73719891D01*
X140200000Y-73700000D01*
X140524264Y-73700000D01*
X140800000Y-73975736D01*
X140800001Y-73975736D01*
X141113574Y-73662161D01*
X141113573Y-73662160D01*
X140979135Y-73615120D01*
X140978343Y-73614939D01*
X140977883Y-73614681D01*
X140972571Y-73612823D01*
X140972896Y-73611891D01*
X140917368Y-73580824D01*
X140888049Y-73527124D01*
X140887177Y-73527430D01*
X140885322Y-73522130D01*
X140885057Y-73521644D01*
X140884877Y-73520859D01*
X140837837Y-73386425D01*
X140837837Y-73386424D01*
X140524264Y-73699999D01*
X140524264Y-73700000D01*
X140200000Y-73700000D01*
X140200000Y-73680109D01*
X140184776Y-73643355D01*
X140156645Y-73615224D01*
X140119891Y-73600000D01*
X140080109Y-73600000D01*
X140043355Y-73615224D01*
X140015224Y-73643355D01*
X140000000Y-73680109D01*
X140000000Y-73719891D01*
X139655845Y-73719891D01*
X139675736Y-73700000D01*
X139400000Y-73424264D01*
X139124264Y-73700000D01*
X138800000Y-73700000D01*
X138800000Y-73680109D01*
X138784776Y-73643355D01*
X138756645Y-73615224D01*
X138719891Y-73600000D01*
X138680109Y-73600000D01*
X138643355Y-73615224D01*
X138615224Y-73643355D01*
X138600000Y-73680109D01*
X138600000Y-73719891D01*
X138255845Y-73719891D01*
X138275736Y-73700000D01*
X137962160Y-73386424D01*
X137915119Y-73520866D01*
X137914938Y-73521660D01*
X137914680Y-73522119D01*
X137912823Y-73527429D01*
X137911892Y-73527103D01*
X137880822Y-73582634D01*
X137827124Y-73611954D01*
X137827429Y-73612823D01*
X137822151Y-73614669D01*
X137821660Y-73614938D01*
X137820866Y-73615119D01*
X137686424Y-73662160D01*
X129348471Y-73662160D01*
X129355659Y-73580000D01*
X129335063Y-73344592D01*
X129273903Y-73116337D01*
X129202009Y-72962160D01*
X138386424Y-72962160D01*
X138700000Y-73275736D01*
X138700001Y-73275736D01*
X139013574Y-72962161D01*
X139013573Y-72962160D01*
X139786424Y-72962160D01*
X140100000Y-73275736D01*
X140100001Y-73275736D01*
X140413574Y-72962161D01*
X140413573Y-72962160D01*
X140279142Y-72915122D01*
X140100003Y-72894938D01*
X140099997Y-72894938D01*
X139920857Y-72915122D01*
X139786424Y-72962160D01*
X139013573Y-72962160D01*
X138879142Y-72915122D01*
X138700003Y-72894938D01*
X138699997Y-72894938D01*
X138520857Y-72915122D01*
X138386424Y-72962160D01*
X129202009Y-72962160D01*
X129174035Y-72902171D01*
X129168971Y-72894938D01*
X129038494Y-72708597D01*
X128871402Y-72541506D01*
X128871396Y-72541501D01*
X128685842Y-72411575D01*
X128642217Y-72356998D01*
X128635023Y-72287500D01*
X128666546Y-72225145D01*
X128685842Y-72208425D01*
X128727502Y-72179254D01*
X128871401Y-72078495D01*
X129038495Y-71911401D01*
X129174035Y-71717830D01*
X129273903Y-71503663D01*
X129335063Y-71275408D01*
X129355659Y-71040000D01*
X129335063Y-70804592D01*
X129273903Y-70576337D01*
X129174035Y-70362171D01*
X129158512Y-70340001D01*
X129038494Y-70168597D01*
X128871402Y-70001506D01*
X128871396Y-70001501D01*
X128685842Y-69871575D01*
X128642217Y-69816998D01*
X128641493Y-69810003D01*
X147194435Y-69810003D01*
X147214630Y-69989249D01*
X147214631Y-69989254D01*
X147274211Y-70159523D01*
X147350387Y-70280756D01*
X147370184Y-70312262D01*
X147497738Y-70439816D01*
X147650478Y-70535789D01*
X147738511Y-70566593D01*
X147820745Y-70595368D01*
X147820750Y-70595369D01*
X147999996Y-70615565D01*
X148000000Y-70615565D01*
X148000004Y-70615565D01*
X148179249Y-70595369D01*
X148179252Y-70595368D01*
X148179255Y-70595368D01*
X148349522Y-70535789D01*
X148502262Y-70439816D01*
X148502267Y-70439810D01*
X148505097Y-70437555D01*
X148507275Y-70436665D01*
X148508158Y-70436111D01*
X148508255Y-70436265D01*
X148569783Y-70411145D01*
X148582412Y-70410500D01*
X152087497Y-70410500D01*
X152154536Y-70430185D01*
X152200291Y-70482989D01*
X152210235Y-70552147D01*
X152207272Y-70566593D01*
X152164938Y-70724586D01*
X152164936Y-70724596D01*
X152144341Y-70959999D01*
X152144341Y-70960000D01*
X152164936Y-71195403D01*
X152164938Y-71195413D01*
X152226094Y-71423655D01*
X152226096Y-71423659D01*
X152226097Y-71423663D01*
X152293062Y-71567269D01*
X152325965Y-71637830D01*
X152325967Y-71637834D01*
X152461501Y-71831395D01*
X152461506Y-71831402D01*
X152628597Y-71998493D01*
X152628603Y-71998498D01*
X152814158Y-72128425D01*
X152857783Y-72183002D01*
X152864977Y-72252500D01*
X152833454Y-72314855D01*
X152814158Y-72331575D01*
X152628597Y-72461505D01*
X152461505Y-72628597D01*
X152325965Y-72822169D01*
X152325964Y-72822171D01*
X152226098Y-73036335D01*
X152226094Y-73036344D01*
X152164938Y-73264586D01*
X152164936Y-73264596D01*
X152144341Y-73499999D01*
X152144341Y-73500000D01*
X152164936Y-73735403D01*
X152164938Y-73735413D01*
X152226094Y-73963655D01*
X152226096Y-73963659D01*
X152226097Y-73963663D01*
X152283342Y-74086424D01*
X152325965Y-74177830D01*
X152325967Y-74177834D01*
X152461501Y-74371395D01*
X152461506Y-74371402D01*
X152628597Y-74538493D01*
X152628603Y-74538498D01*
X152814158Y-74668425D01*
X152857783Y-74723002D01*
X152864977Y-74792500D01*
X152833454Y-74854855D01*
X152814158Y-74871575D01*
X152628597Y-75001505D01*
X152461505Y-75168597D01*
X152325965Y-75362169D01*
X152325964Y-75362171D01*
X152226098Y-75576335D01*
X152226094Y-75576344D01*
X152164938Y-75804586D01*
X152164936Y-75804596D01*
X152144341Y-76039999D01*
X152144341Y-76040000D01*
X152164936Y-76275403D01*
X152164938Y-76275413D01*
X152226094Y-76503655D01*
X152226096Y-76503659D01*
X152226097Y-76503663D01*
X152307346Y-76677901D01*
X152325965Y-76717830D01*
X152325967Y-76717834D01*
X152461501Y-76911395D01*
X152461506Y-76911402D01*
X152628597Y-77078493D01*
X152628603Y-77078498D01*
X152814158Y-77208425D01*
X152857783Y-77263002D01*
X152864977Y-77332500D01*
X152833454Y-77394855D01*
X152814158Y-77411575D01*
X152628597Y-77541505D01*
X152461505Y-77708597D01*
X152325965Y-77902169D01*
X152325964Y-77902171D01*
X152226098Y-78116335D01*
X152226094Y-78116344D01*
X152164938Y-78344586D01*
X152164936Y-78344596D01*
X152144341Y-78579999D01*
X152144341Y-78580000D01*
X152164936Y-78815403D01*
X152164938Y-78815413D01*
X152226094Y-79043655D01*
X152226096Y-79043659D01*
X152226097Y-79043663D01*
X152297805Y-79197440D01*
X152325965Y-79257830D01*
X152325967Y-79257834D01*
X152461501Y-79451395D01*
X152461506Y-79451402D01*
X152628597Y-79618493D01*
X152628603Y-79618498D01*
X152814158Y-79748425D01*
X152857783Y-79803002D01*
X152864977Y-79872500D01*
X152833454Y-79934855D01*
X152814158Y-79951575D01*
X152628597Y-80081505D01*
X152461505Y-80248597D01*
X152325965Y-80442169D01*
X152325964Y-80442171D01*
X152226098Y-80656335D01*
X152226094Y-80656344D01*
X152164938Y-80884586D01*
X152164936Y-80884596D01*
X152144341Y-81119999D01*
X152144341Y-81120000D01*
X152164936Y-81355403D01*
X152164938Y-81355413D01*
X152226094Y-81583655D01*
X152226096Y-81583659D01*
X152226097Y-81583663D01*
X152297805Y-81737440D01*
X152325965Y-81797830D01*
X152325967Y-81797834D01*
X152381984Y-81877834D01*
X152461501Y-81991396D01*
X152461506Y-81991402D01*
X152583430Y-82113326D01*
X152616915Y-82174649D01*
X152611931Y-82244341D01*
X152570059Y-82300274D01*
X152539083Y-82317189D01*
X152407669Y-82366203D01*
X152407664Y-82366206D01*
X152292455Y-82452452D01*
X152292452Y-82452455D01*
X152206206Y-82567664D01*
X152206202Y-82567671D01*
X152155908Y-82702517D01*
X152149501Y-82762116D01*
X152149501Y-82762123D01*
X152149500Y-82762135D01*
X152149500Y-84557870D01*
X152149501Y-84557876D01*
X152155908Y-84617483D01*
X152206202Y-84752328D01*
X152206206Y-84752335D01*
X152292452Y-84867544D01*
X152292455Y-84867547D01*
X152407664Y-84953793D01*
X152407671Y-84953797D01*
X152542517Y-85004091D01*
X152542516Y-85004091D01*
X152549444Y-85004835D01*
X152602127Y-85010500D01*
X154397872Y-85010499D01*
X154457483Y-85004091D01*
X154592331Y-84953796D01*
X154707546Y-84867546D01*
X154793796Y-84752331D01*
X154844091Y-84617483D01*
X154850500Y-84557873D01*
X154850499Y-82762128D01*
X154844091Y-82702517D01*
X154793796Y-82567669D01*
X154793795Y-82567668D01*
X154793793Y-82567664D01*
X154707547Y-82452455D01*
X154707544Y-82452452D01*
X154592335Y-82366206D01*
X154592328Y-82366202D01*
X154460917Y-82317189D01*
X154404983Y-82275318D01*
X154380566Y-82209853D01*
X154395418Y-82141580D01*
X154416563Y-82113332D01*
X154538495Y-81991401D01*
X154674035Y-81797830D01*
X154773903Y-81583663D01*
X154835063Y-81355408D01*
X154855659Y-81120000D01*
X154835063Y-80884592D01*
X154784111Y-80694435D01*
X154773905Y-80656344D01*
X154773904Y-80656343D01*
X154773903Y-80656337D01*
X154674035Y-80442171D01*
X154594512Y-80328599D01*
X154538494Y-80248597D01*
X154371402Y-80081506D01*
X154371396Y-80081501D01*
X154185842Y-79951575D01*
X154142217Y-79896998D01*
X154135023Y-79827500D01*
X154166546Y-79765145D01*
X154185842Y-79748425D01*
X154257152Y-79698493D01*
X154371401Y-79618495D01*
X154538495Y-79451401D01*
X154674035Y-79257830D01*
X154773903Y-79043663D01*
X154835063Y-78815408D01*
X154855659Y-78580000D01*
X154835063Y-78344592D01*
X154780179Y-78139761D01*
X154773905Y-78116344D01*
X154773904Y-78116343D01*
X154773903Y-78116337D01*
X154674035Y-77902171D01*
X154672849Y-77900476D01*
X154538494Y-77708597D01*
X154371402Y-77541506D01*
X154371396Y-77541501D01*
X154185842Y-77411575D01*
X154142217Y-77356998D01*
X154135023Y-77287500D01*
X154166546Y-77225145D01*
X154185842Y-77208425D01*
X154257152Y-77158493D01*
X154371401Y-77078495D01*
X154538495Y-76911401D01*
X154674035Y-76717830D01*
X154773903Y-76503663D01*
X154835063Y-76275408D01*
X154855659Y-76040000D01*
X154835063Y-75804592D01*
X154785832Y-75620857D01*
X154773905Y-75576344D01*
X154773904Y-75576343D01*
X154773903Y-75576337D01*
X154674035Y-75362171D01*
X154603633Y-75261625D01*
X154538494Y-75168597D01*
X154371402Y-75001506D01*
X154371396Y-75001501D01*
X154185842Y-74871575D01*
X154142217Y-74816998D01*
X154135023Y-74747500D01*
X154166546Y-74685145D01*
X154185842Y-74668425D01*
X154313351Y-74579142D01*
X154371401Y-74538495D01*
X154538495Y-74371401D01*
X154674035Y-74177830D01*
X154773903Y-73963663D01*
X154835063Y-73735408D01*
X154855659Y-73500000D01*
X154854057Y-73481695D01*
X154851486Y-73452309D01*
X154835063Y-73264592D01*
X154788626Y-73091285D01*
X154773905Y-73036344D01*
X154773904Y-73036343D01*
X154773903Y-73036337D01*
X154674035Y-72822171D01*
X154662408Y-72805565D01*
X154538494Y-72628597D01*
X154371402Y-72461506D01*
X154371396Y-72461501D01*
X154185842Y-72331575D01*
X154142217Y-72276998D01*
X154135023Y-72207500D01*
X154166546Y-72145145D01*
X154185842Y-72128425D01*
X154237391Y-72092330D01*
X154371401Y-71998495D01*
X154538495Y-71831401D01*
X154674035Y-71637830D01*
X154731135Y-71515376D01*
X154777307Y-71462939D01*
X154844501Y-71443787D01*
X154911382Y-71464003D01*
X154931198Y-71480102D01*
X155039325Y-71588229D01*
X155118271Y-71637834D01*
X155184177Y-71679246D01*
X155192065Y-71684202D01*
X155362332Y-71743781D01*
X155362337Y-71743782D01*
X155541583Y-71763978D01*
X155541587Y-71763978D01*
X155541591Y-71763978D01*
X155720836Y-71743782D01*
X155720839Y-71743781D01*
X155720842Y-71743781D01*
X155891109Y-71684202D01*
X156043849Y-71588229D01*
X156171403Y-71460675D01*
X156267376Y-71307935D01*
X156326955Y-71137668D01*
X156327840Y-71129815D01*
X156347152Y-70958416D01*
X156347152Y-70958409D01*
X156326956Y-70779163D01*
X156326955Y-70779158D01*
X156307863Y-70724596D01*
X156267376Y-70608891D01*
X156198957Y-70500003D01*
X157694435Y-70500003D01*
X157714630Y-70679249D01*
X157714631Y-70679254D01*
X157774211Y-70849523D01*
X157851585Y-70972662D01*
X157870184Y-71002262D01*
X157997738Y-71129816D01*
X158060573Y-71169298D01*
X158132721Y-71214632D01*
X158150478Y-71225789D01*
X158288860Y-71274211D01*
X158320745Y-71285368D01*
X158320750Y-71285369D01*
X158499997Y-71305565D01*
X158504968Y-71305565D01*
X158572007Y-71325250D01*
X158592649Y-71341884D01*
X159269298Y-72018533D01*
X159302783Y-72079856D01*
X159304837Y-72092330D01*
X159314630Y-72179249D01*
X159374210Y-72349521D01*
X159444572Y-72461501D01*
X159470184Y-72502262D01*
X159597738Y-72629816D01*
X159750478Y-72725789D01*
X159920745Y-72785368D01*
X159920750Y-72785369D01*
X160099996Y-72805565D01*
X160100000Y-72805565D01*
X160100004Y-72805565D01*
X160279249Y-72785369D01*
X160279252Y-72785368D01*
X160279255Y-72785368D01*
X160449522Y-72725789D01*
X160602262Y-72629816D01*
X160729816Y-72502262D01*
X160825789Y-72349522D01*
X160885368Y-72179255D01*
X160885369Y-72179249D01*
X160905565Y-72000003D01*
X160905565Y-71999996D01*
X160885369Y-71820750D01*
X160885366Y-71820737D01*
X160851658Y-71724406D01*
X160848096Y-71654627D01*
X160882824Y-71594000D01*
X160944817Y-71561772D01*
X161012032Y-71567269D01*
X161082620Y-71593596D01*
X161082627Y-71593598D01*
X161142155Y-71599999D01*
X161142172Y-71600000D01*
X161350000Y-71600000D01*
X161350000Y-70940000D01*
X160690000Y-70940000D01*
X160690000Y-71147830D01*
X160694648Y-71191065D01*
X160682242Y-71259824D01*
X160634631Y-71310961D01*
X160566931Y-71328240D01*
X160505385Y-71309312D01*
X160449523Y-71274211D01*
X160279249Y-71214630D01*
X160192330Y-71204837D01*
X160127916Y-71177770D01*
X160118533Y-71169298D01*
X159348479Y-70399244D01*
X161500000Y-70399244D01*
X161530667Y-70513694D01*
X161589910Y-70616306D01*
X161673694Y-70700090D01*
X161776306Y-70759333D01*
X161890756Y-70790000D01*
X162009244Y-70790000D01*
X162123694Y-70759333D01*
X162226306Y-70700090D01*
X162310090Y-70616306D01*
X162369333Y-70513694D01*
X162400000Y-70399244D01*
X162400000Y-70280756D01*
X162369333Y-70166306D01*
X162310090Y-70063694D01*
X162226306Y-69979910D01*
X162123694Y-69920667D01*
X162009244Y-69890000D01*
X161890756Y-69890000D01*
X161776306Y-69920667D01*
X161673694Y-69979910D01*
X161589910Y-70063694D01*
X161530667Y-70166306D01*
X161500000Y-70280756D01*
X161500000Y-70399244D01*
X159348479Y-70399244D01*
X159313663Y-70364428D01*
X159284303Y-70317704D01*
X159225789Y-70150478D01*
X159129816Y-69997738D01*
X159002262Y-69870184D01*
X158977866Y-69854855D01*
X158849523Y-69774211D01*
X158751754Y-69740000D01*
X160690000Y-69740000D01*
X161350000Y-69740000D01*
X161350000Y-69080000D01*
X161142155Y-69080000D01*
X161082627Y-69086401D01*
X161082620Y-69086403D01*
X160947913Y-69136645D01*
X160947906Y-69136649D01*
X160832812Y-69222809D01*
X160832809Y-69222812D01*
X160746649Y-69337906D01*
X160746645Y-69337913D01*
X160696403Y-69472620D01*
X160696401Y-69472627D01*
X160690000Y-69532155D01*
X160690000Y-69740000D01*
X158751754Y-69740000D01*
X158679254Y-69714631D01*
X158679249Y-69714630D01*
X158500004Y-69694435D01*
X158499996Y-69694435D01*
X158320750Y-69714630D01*
X158320745Y-69714631D01*
X158150476Y-69774211D01*
X157997737Y-69870184D01*
X157870184Y-69997737D01*
X157774211Y-70150476D01*
X157714631Y-70320745D01*
X157714630Y-70320750D01*
X157694435Y-70499996D01*
X157694435Y-70500003D01*
X156198957Y-70500003D01*
X156171403Y-70456151D01*
X156043849Y-70328597D01*
X155922452Y-70252318D01*
X155891108Y-70232623D01*
X155720836Y-70173043D01*
X155633917Y-70163250D01*
X155569503Y-70136183D01*
X155560120Y-70127711D01*
X154761890Y-69329481D01*
X154761885Y-69329477D01*
X154701011Y-69294332D01*
X154652796Y-69243765D01*
X154639572Y-69175158D01*
X154661438Y-69115819D01*
X154674035Y-69097830D01*
X154773903Y-68883663D01*
X154835063Y-68655408D01*
X154855659Y-68420000D01*
X154835063Y-68184592D01*
X154788626Y-68011285D01*
X154773905Y-67956344D01*
X154773904Y-67956343D01*
X154773903Y-67956337D01*
X154701002Y-67800001D01*
X161704685Y-67800001D01*
X161723907Y-68019714D01*
X161723909Y-68019724D01*
X161780990Y-68232755D01*
X161780995Y-68232769D01*
X161874203Y-68432654D01*
X161874207Y-68432662D01*
X162000712Y-68613330D01*
X162156669Y-68769287D01*
X162337337Y-68895792D01*
X162337339Y-68895793D01*
X162337342Y-68895795D01*
X162418201Y-68933500D01*
X162478404Y-68961573D01*
X162530844Y-69007745D01*
X162550000Y-69073955D01*
X162550000Y-71600000D01*
X162757828Y-71600000D01*
X162757844Y-71599999D01*
X162817372Y-71593598D01*
X162817379Y-71593596D01*
X162952086Y-71543354D01*
X162952093Y-71543350D01*
X163067186Y-71457190D01*
X163105793Y-71405620D01*
X163161727Y-71363749D01*
X163231419Y-71358765D01*
X163276184Y-71378356D01*
X163357593Y-71435359D01*
X163557406Y-71528533D01*
X163557412Y-71528536D01*
X163770365Y-71585597D01*
X163770373Y-71585598D01*
X163989998Y-71604813D01*
X163990002Y-71604813D01*
X164209630Y-71585598D01*
X164349572Y-71548099D01*
X163229153Y-70427680D01*
X163213626Y-70399244D01*
X163540000Y-70399244D01*
X163570667Y-70513694D01*
X163629910Y-70616306D01*
X163713694Y-70700090D01*
X163816306Y-70759333D01*
X163930756Y-70790000D01*
X164049244Y-70790000D01*
X164163694Y-70759333D01*
X164266306Y-70700090D01*
X164350090Y-70616306D01*
X164409333Y-70513694D01*
X164440000Y-70399244D01*
X164440000Y-70280756D01*
X164409333Y-70166306D01*
X164350090Y-70063694D01*
X164266306Y-69979910D01*
X164163694Y-69920667D01*
X164049244Y-69890000D01*
X163930756Y-69890000D01*
X163816306Y-69920667D01*
X163713694Y-69979910D01*
X163629910Y-70063694D01*
X163570667Y-70166306D01*
X163540000Y-70280756D01*
X163540000Y-70399244D01*
X163213626Y-70399244D01*
X163195668Y-70366357D01*
X163200652Y-70296665D01*
X163229153Y-70252318D01*
X163990000Y-69491472D01*
X164349571Y-69131899D01*
X164342134Y-69104141D01*
X164342282Y-69097907D01*
X164323773Y-69108791D01*
X164261490Y-69108297D01*
X164209637Y-69094403D01*
X164209626Y-69094401D01*
X163990002Y-69075187D01*
X163989998Y-69075187D01*
X163770373Y-69094401D01*
X163770359Y-69094404D01*
X163718508Y-69108297D01*
X163648658Y-69106634D01*
X163590796Y-69067471D01*
X163563293Y-69003242D01*
X163574880Y-68934340D01*
X163615291Y-68886949D01*
X163783329Y-68769288D01*
X163817214Y-68735403D01*
X163902319Y-68650299D01*
X163963642Y-68616814D01*
X164033334Y-68621798D01*
X164077681Y-68650299D01*
X164196668Y-68769286D01*
X164196671Y-68769288D01*
X164360004Y-68883655D01*
X164364706Y-68886947D01*
X164408331Y-68941524D01*
X164410713Y-68964542D01*
X164447188Y-68948924D01*
X164514311Y-68959664D01*
X164577237Y-68989007D01*
X164790280Y-69046092D01*
X164947222Y-69059822D01*
X165009998Y-69065315D01*
X165010000Y-69065315D01*
X165010002Y-69065315D01*
X165064930Y-69060509D01*
X165229720Y-69046092D01*
X165280296Y-69032540D01*
X165350144Y-69034203D01*
X165408006Y-69073365D01*
X165435511Y-69137593D01*
X165423925Y-69206495D01*
X165383511Y-69253890D01*
X165216668Y-69370713D01*
X165060713Y-69526668D01*
X164934205Y-69707342D01*
X164934204Y-69707344D01*
X164840994Y-69907235D01*
X164840990Y-69907244D01*
X164783909Y-70120275D01*
X164783907Y-70120285D01*
X164764685Y-70339998D01*
X164764685Y-70340001D01*
X164783907Y-70559714D01*
X164783909Y-70559724D01*
X164840990Y-70772755D01*
X164840995Y-70772769D01*
X164934203Y-70972654D01*
X164934207Y-70972662D01*
X165060712Y-71153330D01*
X165216669Y-71309287D01*
X165397337Y-71435792D01*
X165397339Y-71435793D01*
X165397342Y-71435795D01*
X165450698Y-71460675D01*
X165597230Y-71529004D01*
X165597232Y-71529004D01*
X165597237Y-71529007D01*
X165810280Y-71586092D01*
X165967222Y-71599822D01*
X166029998Y-71605315D01*
X166030000Y-71605315D01*
X166030002Y-71605315D01*
X166090762Y-71599999D01*
X166249720Y-71586092D01*
X166462763Y-71529007D01*
X166662658Y-71435795D01*
X166843329Y-71309288D01*
X166999288Y-71153329D01*
X167125795Y-70972658D01*
X167219007Y-70772763D01*
X167276092Y-70559720D01*
X167295315Y-70340000D01*
X167294317Y-70328597D01*
X167280319Y-70168597D01*
X167276092Y-70120280D01*
X167219007Y-69907237D01*
X167125795Y-69707343D01*
X166999288Y-69526671D01*
X166999286Y-69526668D01*
X166843330Y-69370712D01*
X166676491Y-69253891D01*
X166632866Y-69199314D01*
X166625672Y-69129816D01*
X166657195Y-69067461D01*
X166717425Y-69032047D01*
X166779707Y-69032541D01*
X166830280Y-69046092D01*
X166987222Y-69059822D01*
X167049998Y-69065315D01*
X167050000Y-69065315D01*
X167050002Y-69065315D01*
X167104930Y-69060509D01*
X167269720Y-69046092D01*
X167482763Y-68989007D01*
X167682658Y-68895795D01*
X167863329Y-68769288D01*
X168019288Y-68613329D01*
X168145795Y-68432658D01*
X168239007Y-68232763D01*
X168296092Y-68019720D01*
X168315315Y-67800000D01*
X168296092Y-67580280D01*
X168239007Y-67367237D01*
X168145795Y-67167343D01*
X168019288Y-66986671D01*
X168019286Y-66986668D01*
X167863330Y-66830712D01*
X167682662Y-66704207D01*
X167682654Y-66704203D01*
X167482769Y-66610995D01*
X167482755Y-66610990D01*
X167269724Y-66553909D01*
X167269722Y-66553908D01*
X167269720Y-66553908D01*
X167269718Y-66553907D01*
X167269714Y-66553907D01*
X167050002Y-66534685D01*
X167049998Y-66534685D01*
X166830285Y-66553907D01*
X166830275Y-66553909D01*
X166617244Y-66610990D01*
X166617235Y-66610994D01*
X166417344Y-66704204D01*
X166417342Y-66704205D01*
X166236668Y-66830713D01*
X166117681Y-66949701D01*
X166056358Y-66983186D01*
X165986666Y-66978202D01*
X165942319Y-66949701D01*
X165823330Y-66830712D01*
X165642662Y-66704207D01*
X165642654Y-66704203D01*
X165442769Y-66610995D01*
X165442755Y-66610990D01*
X165229724Y-66553909D01*
X165229722Y-66553908D01*
X165229720Y-66553908D01*
X165229718Y-66553907D01*
X165229714Y-66553907D01*
X165010002Y-66534685D01*
X165009998Y-66534685D01*
X164790285Y-66553907D01*
X164790275Y-66553909D01*
X164577244Y-66610990D01*
X164577235Y-66610994D01*
X164377344Y-66704204D01*
X164377342Y-66704205D01*
X164196668Y-66830713D01*
X164077681Y-66949701D01*
X164016358Y-66983186D01*
X163946666Y-66978202D01*
X163902319Y-66949701D01*
X163783330Y-66830712D01*
X163602662Y-66704207D01*
X163602654Y-66704203D01*
X163402769Y-66610995D01*
X163402755Y-66610990D01*
X163189724Y-66553909D01*
X163189722Y-66553908D01*
X163189720Y-66553908D01*
X163189718Y-66553907D01*
X163189714Y-66553907D01*
X162970002Y-66534685D01*
X162969998Y-66534685D01*
X162750285Y-66553907D01*
X162750275Y-66553909D01*
X162537244Y-66610990D01*
X162537235Y-66610994D01*
X162337344Y-66704204D01*
X162337342Y-66704205D01*
X162156668Y-66830713D01*
X162000713Y-66986668D01*
X161874205Y-67167342D01*
X161874204Y-67167344D01*
X161780994Y-67367235D01*
X161780990Y-67367244D01*
X161723909Y-67580275D01*
X161723907Y-67580285D01*
X161704685Y-67799998D01*
X161704685Y-67800001D01*
X154701002Y-67800001D01*
X154674035Y-67742171D01*
X154661965Y-67724932D01*
X154538494Y-67548597D01*
X154371402Y-67381506D01*
X154371396Y-67381501D01*
X154185842Y-67251575D01*
X154142217Y-67196998D01*
X154135023Y-67127500D01*
X154166546Y-67065145D01*
X154185842Y-67048425D01*
X154257152Y-66998493D01*
X154371401Y-66918495D01*
X154538495Y-66751401D01*
X154674035Y-66557830D01*
X154773903Y-66343663D01*
X154835063Y-66115408D01*
X154855659Y-65880000D01*
X154835063Y-65644592D01*
X154825853Y-65610221D01*
X157099500Y-65610221D01*
X157133985Y-65827952D01*
X157202103Y-66037603D01*
X157202104Y-66037606D01*
X157241750Y-66115413D01*
X157282507Y-66195403D01*
X157302187Y-66234025D01*
X157431752Y-66412358D01*
X157431756Y-66412363D01*
X157587636Y-66568243D01*
X157587641Y-66568247D01*
X157743192Y-66681260D01*
X157765978Y-66697815D01*
X157894375Y-66763237D01*
X157962393Y-66797895D01*
X157962396Y-66797896D01*
X158067221Y-66831955D01*
X158172049Y-66866015D01*
X158389778Y-66900500D01*
X158389779Y-66900500D01*
X158610221Y-66900500D01*
X158610222Y-66900500D01*
X158827951Y-66866015D01*
X159037606Y-66797895D01*
X159234022Y-66697815D01*
X159412365Y-66568242D01*
X159568242Y-66412365D01*
X159697815Y-66234022D01*
X159797895Y-66037606D01*
X159866015Y-65827951D01*
X159900500Y-65610222D01*
X159900500Y-65610221D01*
X169099500Y-65610221D01*
X169133985Y-65827952D01*
X169202103Y-66037603D01*
X169202104Y-66037606D01*
X169241750Y-66115413D01*
X169282507Y-66195403D01*
X169302187Y-66234025D01*
X169431752Y-66412358D01*
X169431756Y-66412363D01*
X169587636Y-66568243D01*
X169587641Y-66568247D01*
X169743192Y-66681260D01*
X169765978Y-66697815D01*
X169894375Y-66763237D01*
X169962393Y-66797895D01*
X169962396Y-66797896D01*
X170067221Y-66831955D01*
X170172049Y-66866015D01*
X170389778Y-66900500D01*
X170389779Y-66900500D01*
X170610221Y-66900500D01*
X170610222Y-66900500D01*
X170827951Y-66866015D01*
X171037606Y-66797895D01*
X171234022Y-66697815D01*
X171412365Y-66568242D01*
X171568242Y-66412365D01*
X171697815Y-66234022D01*
X171797895Y-66037606D01*
X171866015Y-65827951D01*
X171900500Y-65610222D01*
X171900500Y-65389778D01*
X171866015Y-65172049D01*
X171797895Y-64962394D01*
X171797895Y-64962393D01*
X171763237Y-64894375D01*
X171697815Y-64765978D01*
X171654213Y-64705965D01*
X171568247Y-64587641D01*
X171568243Y-64587636D01*
X171412363Y-64431756D01*
X171412358Y-64431752D01*
X171234025Y-64302187D01*
X171234024Y-64302186D01*
X171234022Y-64302185D01*
X171171096Y-64270122D01*
X171037606Y-64202104D01*
X171037603Y-64202103D01*
X170827952Y-64133985D01*
X170719086Y-64116742D01*
X170610222Y-64099500D01*
X170389778Y-64099500D01*
X170317201Y-64110995D01*
X170172047Y-64133985D01*
X169962396Y-64202103D01*
X169962393Y-64202104D01*
X169765974Y-64302187D01*
X169587641Y-64431752D01*
X169587636Y-64431756D01*
X169431756Y-64587636D01*
X169431752Y-64587641D01*
X169302187Y-64765974D01*
X169202104Y-64962393D01*
X169202103Y-64962396D01*
X169133985Y-65172047D01*
X169099500Y-65389778D01*
X169099500Y-65610221D01*
X159900500Y-65610221D01*
X159900500Y-65389778D01*
X159866015Y-65172049D01*
X159797895Y-64962394D01*
X159797895Y-64962393D01*
X159763237Y-64894375D01*
X159697815Y-64765978D01*
X159654213Y-64705965D01*
X159568247Y-64587641D01*
X159568243Y-64587636D01*
X159412363Y-64431756D01*
X159412358Y-64431752D01*
X159234025Y-64302187D01*
X159234024Y-64302186D01*
X159234022Y-64302185D01*
X159171096Y-64270122D01*
X159037606Y-64202104D01*
X159037603Y-64202103D01*
X158827952Y-64133985D01*
X158719086Y-64116742D01*
X158610222Y-64099500D01*
X158389778Y-64099500D01*
X158317201Y-64110995D01*
X158172047Y-64133985D01*
X157962396Y-64202103D01*
X157962393Y-64202104D01*
X157765974Y-64302187D01*
X157587641Y-64431752D01*
X157587636Y-64431756D01*
X157431756Y-64587636D01*
X157431752Y-64587641D01*
X157302187Y-64765974D01*
X157202104Y-64962393D01*
X157202103Y-64962396D01*
X157133985Y-65172047D01*
X157099500Y-65389778D01*
X157099500Y-65610221D01*
X154825853Y-65610221D01*
X154773903Y-65416337D01*
X154674035Y-65202171D01*
X154652944Y-65172049D01*
X154538494Y-65008597D01*
X154371402Y-64841506D01*
X154371396Y-64841501D01*
X154185842Y-64711575D01*
X154142217Y-64656998D01*
X154135023Y-64587500D01*
X154166546Y-64525145D01*
X154185842Y-64508425D01*
X154257152Y-64458493D01*
X154371401Y-64378495D01*
X154538495Y-64211401D01*
X154674035Y-64017830D01*
X154773903Y-63803663D01*
X154835063Y-63575408D01*
X154855659Y-63340000D01*
X154835063Y-63104592D01*
X154773903Y-62876337D01*
X154674035Y-62662171D01*
X154594512Y-62548599D01*
X154538494Y-62468597D01*
X154371402Y-62301506D01*
X154371396Y-62301501D01*
X154185842Y-62171575D01*
X154142217Y-62116998D01*
X154135023Y-62047500D01*
X154166546Y-61985145D01*
X154185842Y-61968425D01*
X154326144Y-61870184D01*
X154371401Y-61838495D01*
X154538495Y-61671401D01*
X154674035Y-61477830D01*
X154773903Y-61263663D01*
X154835063Y-61035408D01*
X154855659Y-60800000D01*
X154835063Y-60564592D01*
X154785602Y-60380000D01*
X154773905Y-60336344D01*
X154773904Y-60336343D01*
X154773903Y-60336337D01*
X154674035Y-60122171D01*
X154575996Y-59982155D01*
X154538494Y-59928597D01*
X154371402Y-59761506D01*
X154371395Y-59761501D01*
X154177834Y-59625967D01*
X154177830Y-59625965D01*
X154177828Y-59625964D01*
X153963663Y-59526097D01*
X153963659Y-59526096D01*
X153963655Y-59526094D01*
X153735413Y-59464938D01*
X153735403Y-59464936D01*
X153500001Y-59444341D01*
X153499999Y-59444341D01*
X153264596Y-59464936D01*
X153264586Y-59464938D01*
X153036344Y-59526094D01*
X153036335Y-59526098D01*
X152822171Y-59625964D01*
X152822169Y-59625965D01*
X152628597Y-59761505D01*
X152461505Y-59928597D01*
X152325965Y-60122169D01*
X152325964Y-60122171D01*
X152226098Y-60336335D01*
X152226094Y-60336344D01*
X152164938Y-60564586D01*
X152164936Y-60564596D01*
X152144341Y-60799999D01*
X152144341Y-60800000D01*
X152164936Y-61035403D01*
X152164938Y-61035413D01*
X152226094Y-61263655D01*
X152226096Y-61263659D01*
X152226097Y-61263663D01*
X152264457Y-61345925D01*
X152325965Y-61477830D01*
X152325967Y-61477834D01*
X152461501Y-61671395D01*
X152461506Y-61671402D01*
X152628597Y-61838493D01*
X152628603Y-61838498D01*
X152814158Y-61968425D01*
X152857783Y-62023002D01*
X152864977Y-62092500D01*
X152833454Y-62154855D01*
X152814158Y-62171575D01*
X152628597Y-62301505D01*
X152461505Y-62468597D01*
X152325965Y-62662169D01*
X152325964Y-62662171D01*
X152226098Y-62876335D01*
X152226094Y-62876344D01*
X152164938Y-63104586D01*
X152164936Y-63104596D01*
X152144341Y-63339999D01*
X152144341Y-63340000D01*
X152164936Y-63575403D01*
X152164938Y-63575413D01*
X152226094Y-63803655D01*
X152226096Y-63803659D01*
X152226097Y-63803663D01*
X152325965Y-64017830D01*
X152325967Y-64017834D01*
X152434281Y-64172521D01*
X152454994Y-64202103D01*
X152461501Y-64211395D01*
X152461506Y-64211402D01*
X152628597Y-64378493D01*
X152628603Y-64378498D01*
X152814158Y-64508425D01*
X152857783Y-64563002D01*
X152864977Y-64632500D01*
X152833454Y-64694855D01*
X152814158Y-64711575D01*
X152628597Y-64841505D01*
X152461505Y-65008597D01*
X152325965Y-65202169D01*
X152325964Y-65202171D01*
X152226098Y-65416335D01*
X152226094Y-65416344D01*
X152164938Y-65644586D01*
X152164936Y-65644596D01*
X152144341Y-65879999D01*
X152144341Y-65880000D01*
X152164936Y-66115403D01*
X152164938Y-66115413D01*
X152226094Y-66343655D01*
X152226096Y-66343659D01*
X152226097Y-66343663D01*
X152315172Y-66534685D01*
X152325965Y-66557830D01*
X152325967Y-66557834D01*
X152461501Y-66751395D01*
X152461506Y-66751402D01*
X152628597Y-66918493D01*
X152628603Y-66918498D01*
X152814158Y-67048425D01*
X152857783Y-67103002D01*
X152864977Y-67172500D01*
X152833454Y-67234855D01*
X152814158Y-67251575D01*
X152628597Y-67381505D01*
X152461505Y-67548597D01*
X152325965Y-67742169D01*
X152325964Y-67742171D01*
X152226098Y-67956335D01*
X152226094Y-67956344D01*
X152164938Y-68184586D01*
X152164936Y-68184596D01*
X152144341Y-68419999D01*
X152144341Y-68420000D01*
X152164936Y-68655403D01*
X152164938Y-68655413D01*
X152226094Y-68883655D01*
X152226097Y-68883664D01*
X152249336Y-68933500D01*
X152295779Y-69033096D01*
X152306271Y-69102172D01*
X152277751Y-69165956D01*
X152219275Y-69204196D01*
X152183397Y-69209500D01*
X148582412Y-69209500D01*
X148515373Y-69189815D01*
X148505097Y-69182445D01*
X148502263Y-69180185D01*
X148502262Y-69180184D01*
X148422102Y-69129816D01*
X148349523Y-69084211D01*
X148179254Y-69024631D01*
X148179249Y-69024630D01*
X148000004Y-69004435D01*
X147999996Y-69004435D01*
X147820750Y-69024630D01*
X147820745Y-69024631D01*
X147650476Y-69084211D01*
X147497737Y-69180184D01*
X147370184Y-69307737D01*
X147274211Y-69460476D01*
X147214631Y-69630745D01*
X147214630Y-69630750D01*
X147194435Y-69809996D01*
X147194435Y-69810003D01*
X128641493Y-69810003D01*
X128635023Y-69747500D01*
X128666546Y-69685145D01*
X128685842Y-69668425D01*
X128739654Y-69630745D01*
X128871401Y-69538495D01*
X129038495Y-69371401D01*
X129174035Y-69177830D01*
X129273903Y-68963663D01*
X129335063Y-68735408D01*
X129355659Y-68500000D01*
X129335063Y-68264592D01*
X129273903Y-68036337D01*
X129174035Y-67822171D01*
X129158512Y-67800001D01*
X129038494Y-67628597D01*
X128871402Y-67461506D01*
X128871396Y-67461501D01*
X128685842Y-67331575D01*
X128642217Y-67276998D01*
X128635023Y-67207500D01*
X128666546Y-67145145D01*
X128685842Y-67128425D01*
X128722150Y-67103002D01*
X128871401Y-66998495D01*
X129038495Y-66831401D01*
X129174035Y-66637830D01*
X129273903Y-66423663D01*
X129335063Y-66195408D01*
X129355659Y-65960000D01*
X129335063Y-65724592D01*
X129273903Y-65496337D01*
X129174035Y-65282171D01*
X129155647Y-65255909D01*
X129038494Y-65088597D01*
X128871402Y-64921506D01*
X128871396Y-64921501D01*
X128685842Y-64791575D01*
X128642217Y-64736998D01*
X128635023Y-64667500D01*
X128666546Y-64605145D01*
X128685842Y-64588425D01*
X128776215Y-64525145D01*
X128871401Y-64458495D01*
X129038495Y-64291401D01*
X129174035Y-64097830D01*
X129273903Y-63883663D01*
X129335063Y-63655408D01*
X129355659Y-63420000D01*
X129335063Y-63184592D01*
X129273903Y-62956337D01*
X129174035Y-62742171D01*
X129129980Y-62679254D01*
X129038496Y-62548600D01*
X128989892Y-62499996D01*
X128916179Y-62426283D01*
X128882696Y-62364963D01*
X128887680Y-62295271D01*
X128929551Y-62239337D01*
X128960529Y-62222422D01*
X129092086Y-62173354D01*
X129092093Y-62173350D01*
X129207187Y-62087190D01*
X129207190Y-62087187D01*
X129293350Y-61972093D01*
X129293354Y-61972086D01*
X129343596Y-61837379D01*
X129343598Y-61837372D01*
X129349999Y-61777844D01*
X129350000Y-61777827D01*
X129350000Y-61480000D01*
X126650000Y-61480000D01*
X126650000Y-61777844D01*
X126656401Y-61837372D01*
X126656403Y-61837379D01*
X126706645Y-61972086D01*
X126706649Y-61972093D01*
X126792809Y-62087187D01*
X126792812Y-62087190D01*
X126907906Y-62173350D01*
X126907913Y-62173354D01*
X127039470Y-62222421D01*
X127095403Y-62264292D01*
X127119821Y-62329756D01*
X127104970Y-62398029D01*
X127083819Y-62426284D01*
X126961503Y-62548600D01*
X126825965Y-62742169D01*
X126825964Y-62742171D01*
X126726098Y-62956335D01*
X126726094Y-62956344D01*
X126664938Y-63184586D01*
X126664936Y-63184596D01*
X126644341Y-63419999D01*
X126644341Y-63420000D01*
X126664936Y-63655403D01*
X126664938Y-63655413D01*
X126726094Y-63883655D01*
X126726096Y-63883659D01*
X126726097Y-63883663D01*
X126788660Y-64017830D01*
X126825965Y-64097830D01*
X126825967Y-64097834D01*
X126961501Y-64291395D01*
X126961506Y-64291402D01*
X127128597Y-64458493D01*
X127128603Y-64458498D01*
X127314158Y-64588425D01*
X127357783Y-64643002D01*
X127364977Y-64712500D01*
X127333454Y-64774855D01*
X127314158Y-64791575D01*
X127128597Y-64921505D01*
X126961505Y-65088597D01*
X126825965Y-65282169D01*
X126825964Y-65282171D01*
X126726098Y-65496335D01*
X126726094Y-65496344D01*
X126664938Y-65724586D01*
X126664936Y-65724596D01*
X126644341Y-65959999D01*
X126644341Y-65960000D01*
X126664936Y-66195403D01*
X126664938Y-66195413D01*
X126726094Y-66423655D01*
X126726096Y-66423659D01*
X126726097Y-66423663D01*
X126793516Y-66568243D01*
X126825965Y-66637830D01*
X126825967Y-66637834D01*
X126961501Y-66831395D01*
X126961506Y-66831402D01*
X127128597Y-66998493D01*
X127128603Y-66998498D01*
X127314158Y-67128425D01*
X127357783Y-67183002D01*
X127364977Y-67252500D01*
X127333454Y-67314855D01*
X127314158Y-67331575D01*
X127128597Y-67461505D01*
X126961504Y-67628598D01*
X126907561Y-67705637D01*
X126852984Y-67749262D01*
X126783486Y-67756454D01*
X126721131Y-67724932D01*
X126691426Y-67681965D01*
X126673950Y-67639774D01*
X126673943Y-67639761D01*
X126590720Y-67515210D01*
X126590719Y-67515209D01*
X126484791Y-67409281D01*
X126484790Y-67409280D01*
X125097788Y-66022279D01*
X125097786Y-66022276D01*
X125097786Y-66022277D01*
X125090719Y-66015210D01*
X125090719Y-66015209D01*
X124984791Y-65909281D01*
X124984790Y-65909280D01*
X124984789Y-65909279D01*
X124860238Y-65826056D01*
X124860229Y-65826051D01*
X124721830Y-65768725D01*
X124721822Y-65768723D01*
X124574907Y-65739500D01*
X124574903Y-65739500D01*
X117866371Y-65739500D01*
X117799332Y-65719815D01*
X117778690Y-65703181D01*
X114235334Y-62159825D01*
X114218021Y-62138116D01*
X114186022Y-62087190D01*
X114129816Y-61997738D01*
X114002262Y-61870184D01*
X113951834Y-61838498D01*
X113849523Y-61774211D01*
X113679254Y-61714631D01*
X113679249Y-61714630D01*
X113500004Y-61694435D01*
X113499996Y-61694435D01*
X113320750Y-61714630D01*
X113320745Y-61714631D01*
X113150476Y-61774211D01*
X112997737Y-61870184D01*
X112870184Y-61997737D01*
X112774211Y-62150476D01*
X112714631Y-62320745D01*
X112714630Y-62320750D01*
X112694435Y-62499996D01*
X112694435Y-62500003D01*
X112181394Y-62500003D01*
X112235802Y-62261630D01*
X112243431Y-62159825D01*
X112255408Y-62000004D01*
X112255408Y-61999995D01*
X112235803Y-61738379D01*
X112235802Y-61738374D01*
X112235802Y-61738370D01*
X112177420Y-61482584D01*
X112081568Y-61238357D01*
X111950386Y-61011143D01*
X111898297Y-60945826D01*
X127500000Y-60945826D01*
X127534075Y-61072993D01*
X127599901Y-61187007D01*
X127692993Y-61280099D01*
X127807007Y-61345925D01*
X127934174Y-61380000D01*
X128065826Y-61380000D01*
X128192993Y-61345925D01*
X128307007Y-61280099D01*
X128400099Y-61187007D01*
X128465925Y-61072993D01*
X128500000Y-60945826D01*
X128500000Y-60814174D01*
X128465925Y-60687007D01*
X128400099Y-60572993D01*
X128307007Y-60479901D01*
X128192993Y-60414075D01*
X128065826Y-60380000D01*
X127934174Y-60380000D01*
X127807007Y-60414075D01*
X127692993Y-60479901D01*
X127599901Y-60572993D01*
X127534075Y-60687007D01*
X127500000Y-60814174D01*
X127500000Y-60945826D01*
X111898297Y-60945826D01*
X111786805Y-60806019D01*
X111786804Y-60806018D01*
X111786801Y-60806014D01*
X111594479Y-60627567D01*
X111377704Y-60479772D01*
X111377700Y-60479770D01*
X111377697Y-60479768D01*
X111377696Y-60479767D01*
X111141325Y-60365938D01*
X111141327Y-60365938D01*
X110890623Y-60288606D01*
X110890619Y-60288605D01*
X110890615Y-60288604D01*
X110833533Y-60280000D01*
X126650000Y-60280000D01*
X127400000Y-60280000D01*
X127400000Y-59530000D01*
X128600000Y-59530000D01*
X128600000Y-60280000D01*
X129350000Y-60280000D01*
X129350000Y-59982172D01*
X129349999Y-59982155D01*
X129343598Y-59922627D01*
X129343596Y-59922620D01*
X129293354Y-59787913D01*
X129293350Y-59787906D01*
X129207190Y-59672812D01*
X129207187Y-59672809D01*
X129092093Y-59586649D01*
X129092086Y-59586645D01*
X128957379Y-59536403D01*
X128957372Y-59536401D01*
X128897844Y-59530000D01*
X128600000Y-59530000D01*
X127400000Y-59530000D01*
X127102155Y-59530000D01*
X127042627Y-59536401D01*
X127042620Y-59536403D01*
X126907913Y-59586645D01*
X126907906Y-59586649D01*
X126792812Y-59672809D01*
X126792809Y-59672812D01*
X126706649Y-59787906D01*
X126706645Y-59787913D01*
X126656403Y-59922620D01*
X126656401Y-59922627D01*
X126650000Y-59982155D01*
X126650000Y-60280000D01*
X110833533Y-60280000D01*
X110765823Y-60269794D01*
X110631187Y-60249500D01*
X110631182Y-60249500D01*
X110368818Y-60249500D01*
X110368812Y-60249500D01*
X110207247Y-60273853D01*
X110109385Y-60288604D01*
X110109382Y-60288605D01*
X110109376Y-60288606D01*
X109858673Y-60365938D01*
X109622303Y-60479767D01*
X109622302Y-60479768D01*
X109405520Y-60627567D01*
X109213198Y-60806014D01*
X109049614Y-61011143D01*
X108918432Y-61238356D01*
X108822582Y-61482578D01*
X108822576Y-61482597D01*
X108764197Y-61738374D01*
X108764196Y-61738379D01*
X108744592Y-61999995D01*
X108744592Y-62000004D01*
X106000500Y-62000004D01*
X106000500Y-59124500D01*
X106020185Y-59057461D01*
X106072989Y-59011706D01*
X106124500Y-59000500D01*
X172375500Y-59000500D01*
X172442539Y-59020185D01*
G37*
%TD.AperFunction*%
%TD*%
M02*
