%TF.GenerationSoftware,KiCad,Pcbnew,8.0.1*%
%TF.CreationDate,2024-04-27T05:15:47+02:00*%
%TF.ProjectId,driver_v2,64726976-6572-45f7-9632-2e6b69636164,rev?*%
%TF.SameCoordinates,Original*%
%TF.FileFunction,Soldermask,Bot*%
%TF.FilePolarity,Negative*%
%FSLAX46Y46*%
G04 Gerber Fmt 4.6, Leading zero omitted, Abs format (unit mm)*
G04 Created by KiCad (PCBNEW 8.0.1) date 2024-04-27 05:15:47*
%MOMM*%
%LPD*%
G01*
G04 APERTURE LIST*
%ADD10C,2.500000*%
%ADD11R,2.500000X2.500000*%
%ADD12C,1.520000*%
%ADD13R,1.520000X1.520000*%
%ADD14C,2.300000*%
%ADD15C,0.600000*%
%ADD16R,1.700000X1.700000*%
%ADD17O,1.700000X1.700000*%
G04 APERTURE END LIST*
D10*
%TO.C,BAT*%
X162500000Y-91500000D03*
D11*
X167500000Y-91500000D03*
%TD*%
%TO.C,M2*%
X110500000Y-80000000D03*
D10*
X110500000Y-75000000D03*
%TD*%
D11*
%TO.C,M1*%
X110500000Y-67000000D03*
D10*
X110500000Y-62000000D03*
%TD*%
D12*
%TO.C,RJ12*%
X167050000Y-67800000D03*
X166030000Y-70340000D03*
X165010000Y-67800000D03*
X163990000Y-70340000D03*
X162970000Y-67800000D03*
D13*
X161950000Y-70340000D03*
D14*
X158500000Y-65500000D03*
X170500000Y-65500000D03*
%TD*%
D15*
%TO.C,IC1*%
X138000000Y-74400000D03*
X138000000Y-75800000D03*
X138700000Y-73700000D03*
X138700000Y-75100000D03*
X138700000Y-76500000D03*
X139400000Y-74400000D03*
X139400000Y-75800000D03*
X140100000Y-73700000D03*
X140100000Y-75100000D03*
X140100000Y-76500000D03*
X140800000Y-74400000D03*
X140800000Y-75800000D03*
%TD*%
D11*
%TO.C,M4*%
X124000000Y-91500000D03*
D10*
X119000000Y-91500000D03*
%TD*%
D11*
%TO.C,M3*%
X110500000Y-93000000D03*
D10*
X110500000Y-88000000D03*
%TD*%
D16*
%TO.C,J4*%
X130500000Y-88500000D03*
D17*
X133040000Y-88500000D03*
X135580000Y-88500000D03*
X138120000Y-88500000D03*
X140660000Y-88500000D03*
X143200000Y-88500000D03*
X145740000Y-88500000D03*
X148280000Y-88500000D03*
X150820000Y-88500000D03*
%TD*%
D16*
%TO.C,J3*%
X153500000Y-83660000D03*
D17*
X153500000Y-81120000D03*
X153500000Y-78580000D03*
X153500000Y-76040000D03*
X153500000Y-73500000D03*
X153500000Y-70960000D03*
X153500000Y-68420000D03*
X153500000Y-65880000D03*
X153500000Y-63340000D03*
X153500000Y-60800000D03*
%TD*%
%TO.C,J2*%
X128000000Y-83740000D03*
X128000000Y-81200000D03*
X128000000Y-78660000D03*
X128000000Y-76120000D03*
X128000000Y-73580000D03*
X128000000Y-71040000D03*
X128000000Y-68500000D03*
X128000000Y-65960000D03*
X128000000Y-63420000D03*
D16*
X128000000Y-60880000D03*
%TD*%
M02*
