%TF.GenerationSoftware,KiCad,Pcbnew,8.0.1*%
%TF.CreationDate,2024-04-27T05:15:47+02:00*%
%TF.ProjectId,driver_v2,64726976-6572-45f7-9632-2e6b69636164,rev?*%
%TF.SameCoordinates,Original*%
%TF.FileFunction,Copper,L1,Top*%
%TF.FilePolarity,Positive*%
%FSLAX46Y46*%
G04 Gerber Fmt 4.6, Leading zero omitted, Abs format (unit mm)*
G04 Created by KiCad (PCBNEW 8.0.1) date 2024-04-27 05:15:47*
%MOMM*%
%LPD*%
G01*
G04 APERTURE LIST*
G04 Aperture macros list*
%AMRoundRect*
0 Rectangle with rounded corners*
0 $1 Rounding radius*
0 $2 $3 $4 $5 $6 $7 $8 $9 X,Y pos of 4 corners*
0 Add a 4 corners polygon primitive as box body*
4,1,4,$2,$3,$4,$5,$6,$7,$8,$9,$2,$3,0*
0 Add four circle primitives for the rounded corners*
1,1,$1+$1,$2,$3*
1,1,$1+$1,$4,$5*
1,1,$1+$1,$6,$7*
1,1,$1+$1,$8,$9*
0 Add four rect primitives between the rounded corners*
20,1,$1+$1,$2,$3,$4,$5,0*
20,1,$1+$1,$4,$5,$6,$7,0*
20,1,$1+$1,$6,$7,$8,$9,0*
20,1,$1+$1,$8,$9,$2,$3,0*%
G04 Aperture macros list end*
%TA.AperFunction,ComponentPad*%
%ADD10C,2.500000*%
%TD*%
%TA.AperFunction,ComponentPad*%
%ADD11R,2.500000X2.500000*%
%TD*%
%TA.AperFunction,ComponentPad*%
%ADD12C,1.520000*%
%TD*%
%TA.AperFunction,ComponentPad*%
%ADD13R,1.520000X1.520000*%
%TD*%
%TA.AperFunction,SMDPad,CuDef*%
%ADD14R,1.500000X0.900000*%
%TD*%
%TA.AperFunction,SMDPad,CuDef*%
%ADD15R,0.900000X1.500000*%
%TD*%
%TA.AperFunction,SMDPad,CuDef*%
%ADD16R,0.900000X0.900000*%
%TD*%
%TA.AperFunction,ComponentPad*%
%ADD17C,0.600000*%
%TD*%
%TA.AperFunction,ComponentPad*%
%ADD18R,1.700000X1.700000*%
%TD*%
%TA.AperFunction,ComponentPad*%
%ADD19O,1.700000X1.700000*%
%TD*%
%TA.AperFunction,SMDPad,CuDef*%
%ADD20RoundRect,0.250000X-0.625000X0.400000X-0.625000X-0.400000X0.625000X-0.400000X0.625000X0.400000X0*%
%TD*%
%TA.AperFunction,SMDPad,CuDef*%
%ADD21RoundRect,0.250001X-0.624999X0.462499X-0.624999X-0.462499X0.624999X-0.462499X0.624999X0.462499X0*%
%TD*%
%TA.AperFunction,SMDPad,CuDef*%
%ADD22RoundRect,0.375000X0.375000X-0.625000X0.375000X0.625000X-0.375000X0.625000X-0.375000X-0.625000X0*%
%TD*%
%TA.AperFunction,SMDPad,CuDef*%
%ADD23RoundRect,0.500000X1.400000X-0.500000X1.400000X0.500000X-1.400000X0.500000X-1.400000X-0.500000X0*%
%TD*%
%TA.AperFunction,SMDPad,CuDef*%
%ADD24RoundRect,0.150000X0.825000X0.150000X-0.825000X0.150000X-0.825000X-0.150000X0.825000X-0.150000X0*%
%TD*%
%TA.AperFunction,SMDPad,CuDef*%
%ADD25RoundRect,0.250000X0.412500X0.650000X-0.412500X0.650000X-0.412500X-0.650000X0.412500X-0.650000X0*%
%TD*%
%TA.AperFunction,ViaPad*%
%ADD26C,0.600000*%
%TD*%
%TA.AperFunction,Conductor*%
%ADD27C,0.200000*%
%TD*%
%TA.AperFunction,Conductor*%
%ADD28C,0.520000*%
%TD*%
%TA.AperFunction,Conductor*%
%ADD29C,0.300000*%
%TD*%
G04 APERTURE END LIST*
D10*
%TO.P,BAT,2,Pin_2*%
%TO.N,GND*%
X162500000Y-91500000D03*
D11*
%TO.P,BAT,1,Pin_1*%
%TO.N,VCC*%
X167500000Y-91500000D03*
%TD*%
%TO.P,M2,1,Pin_1*%
%TO.N,Net-(IC3-OUTA)*%
X110500000Y-80000000D03*
D10*
%TO.P,M2,2,Pin_2*%
%TO.N,Net-(IC3-OUTB)*%
X110500000Y-75000000D03*
%TD*%
D11*
%TO.P,M1,1,Pin_1*%
%TO.N,Net-(IC2-OUTA)*%
X110500000Y-67000000D03*
D10*
%TO.P,M1,2,Pin_2*%
%TO.N,Net-(IC2-OUTB)*%
X110500000Y-62000000D03*
%TD*%
D12*
%TO.P,RJ12,6*%
%TO.N,Net-(IC1-IO23)*%
X167050000Y-67800000D03*
%TO.P,RJ12,5*%
%TO.N,Net-(IC1-IO22)*%
X166030000Y-70340000D03*
%TO.P,RJ12,4*%
%TO.N,unconnected-(J1-Pad4)*%
X165010000Y-67800000D03*
%TO.P,RJ12,3*%
%TO.N,GND*%
X163990000Y-70340000D03*
%TO.P,RJ12,2*%
%TO.N,+3.3V*%
X162970000Y-67800000D03*
D13*
%TO.P,RJ12,1*%
%TO.N,GND*%
X161950000Y-70340000D03*
%TD*%
D14*
%TO.P,IC1,1,GND*%
%TO.N,GND*%
X132150000Y-67380000D03*
%TO.P,IC1,2,VDD*%
%TO.N,+3.3V*%
X132150000Y-68650000D03*
%TO.P,IC1,3,EN*%
%TO.N,Net-(IC1-EN)*%
X132150000Y-69920000D03*
%TO.P,IC1,4,SENSOR_VP*%
%TO.N,Net-(IC1-SENSOR_VP)*%
X132150000Y-71190000D03*
%TO.P,IC1,5,SENSOR_VN*%
%TO.N,Net-(IC1-SENSOR_VN)*%
X132150000Y-72460000D03*
%TO.P,IC1,6,IO34*%
%TO.N,Net-(IC1-IO34)*%
X132150000Y-73730000D03*
%TO.P,IC1,7,IO35*%
%TO.N,Net-(IC1-IO35)*%
X132150000Y-75000000D03*
%TO.P,IC1,8,IO32*%
%TO.N,Net-(IC1-IO32)*%
X132150000Y-76270000D03*
%TO.P,IC1,9,IO33*%
%TO.N,Net-(IC1-IO33)*%
X132150000Y-77540000D03*
%TO.P,IC1,10,IO25*%
%TO.N,Net-(IC1-IO25)*%
X132150000Y-78810000D03*
%TO.P,IC1,11,IO26*%
%TO.N,Net-(IC1-IO26)*%
X132150000Y-80080000D03*
%TO.P,IC1,12,IO27*%
%TO.N,Net-(IC1-IO27)*%
X132150000Y-81350000D03*
%TO.P,IC1,13,IO14*%
%TO.N,Net-(IC1-IO14)*%
X132150000Y-82620000D03*
%TO.P,IC1,14,IO12*%
%TO.N,Net-(IC1-IO12)*%
X132150000Y-83890000D03*
D15*
%TO.P,IC1,15,GND*%
%TO.N,GND*%
X135185000Y-85140000D03*
%TO.P,IC1,16,IO13*%
%TO.N,Net-(IC1-IO13)*%
X136455000Y-85140000D03*
%TO.P,IC1,17,NC*%
%TO.N,unconnected-(IC1-NC-Pad17)*%
X137725000Y-85140000D03*
%TO.P,IC1,18,NC*%
%TO.N,unconnected-(IC1-NC-Pad18)*%
X138995000Y-85140000D03*
%TO.P,IC1,19,NC*%
%TO.N,unconnected-(IC1-NC-Pad19)*%
X140265000Y-85140000D03*
%TO.P,IC1,20,NC*%
%TO.N,unconnected-(IC1-NC-Pad20)*%
X141535000Y-85140000D03*
%TO.P,IC1,21,NC*%
%TO.N,unconnected-(IC1-NC-Pad21)*%
X142805000Y-85140000D03*
%TO.P,IC1,22,NC*%
%TO.N,unconnected-(IC1-NC-Pad22)*%
X144075000Y-85140000D03*
%TO.P,IC1,23,IO15*%
%TO.N,Net-(IC1-IO15)*%
X145345000Y-85140000D03*
%TO.P,IC1,24,IO2*%
%TO.N,Net-(IC1-IO2)*%
X146615000Y-85140000D03*
D14*
%TO.P,IC1,25,IO0*%
%TO.N,Net-(IC1-IO0)*%
X149650000Y-83890000D03*
%TO.P,IC1,26,IO4*%
%TO.N,Net-(IC1-IO4)*%
X149650000Y-82620000D03*
%TO.P,IC1,27,IO16*%
%TO.N,Net-(IC1-IO16)*%
X149650000Y-81350000D03*
%TO.P,IC1,28,IO17*%
%TO.N,Net-(IC1-IO17)*%
X149650000Y-80080000D03*
%TO.P,IC1,29,IO5*%
%TO.N,Net-(IC1-IO5)*%
X149650000Y-78810000D03*
%TO.P,IC1,30,IO18*%
%TO.N,Net-(IC1-IO18)*%
X149650000Y-77540000D03*
%TO.P,IC1,31,IO19*%
%TO.N,Net-(IC1-IO19)*%
X149650000Y-76270000D03*
%TO.P,IC1,32,NC*%
%TO.N,unconnected-(IC1-NC-Pad32)*%
X149650000Y-75000000D03*
%TO.P,IC1,33,IO21*%
%TO.N,Net-(IC1-IO21)*%
X149650000Y-73730000D03*
%TO.P,IC1,34,RXD0/IO3*%
%TO.N,Net-(IC1-RXD0{slash}IO3)*%
X149650000Y-72460000D03*
%TO.P,IC1,35,TXD0/IO1*%
%TO.N,Net-(IC1-TXD0{slash}IO1)*%
X149650000Y-71190000D03*
%TO.P,IC1,36,IO22*%
%TO.N,Net-(IC1-IO22)*%
X149650000Y-69920000D03*
%TO.P,IC1,37,IO23*%
%TO.N,Net-(IC1-IO23)*%
X149650000Y-68650000D03*
%TO.P,IC1,38,GND*%
%TO.N,GND*%
X149650000Y-67380000D03*
D16*
%TO.P,IC1,39,GND*%
X138000000Y-73700000D03*
D17*
X138000000Y-74400000D03*
D16*
X138000000Y-75100000D03*
D17*
X138000000Y-75800000D03*
D16*
X138000000Y-76500000D03*
D17*
X138700000Y-73700000D03*
X138700000Y-75100000D03*
X138700000Y-76500000D03*
D16*
X139400000Y-73700000D03*
D17*
X139400000Y-74400000D03*
D16*
X139400000Y-75100000D03*
D17*
X139400000Y-75800000D03*
D16*
X139400000Y-76500000D03*
D17*
X140100000Y-73700000D03*
X140100000Y-75100000D03*
X140100000Y-76500000D03*
D16*
X140800000Y-73700000D03*
D17*
X140800000Y-74400000D03*
D16*
X140800000Y-75100000D03*
D17*
X140800000Y-75800000D03*
D16*
X140800000Y-76500000D03*
%TD*%
D11*
%TO.P,M4,1,Pin_1*%
%TO.N,Net-(IC5-OUTA)*%
X124000000Y-91500000D03*
D10*
%TO.P,M4,2,Pin_2*%
%TO.N,Net-(IC5-OUTB)*%
X119000000Y-91500000D03*
%TD*%
D11*
%TO.P,M3,1,Pin_1*%
%TO.N,Net-(IC4-OUTA)*%
X110500000Y-93000000D03*
D10*
%TO.P,M3,2,Pin_2*%
%TO.N,Net-(IC4-OUTB)*%
X110500000Y-88000000D03*
%TD*%
D18*
%TO.P,J4,1,Pin_1*%
%TO.N,Net-(IC1-IO26)*%
X130500000Y-88500000D03*
D19*
%TO.P,J4,2,Pin_2*%
%TO.N,Net-(IC1-IO27)*%
X133040000Y-88500000D03*
%TO.P,J4,3,Pin_3*%
%TO.N,Net-(IC1-IO14)*%
X135580000Y-88500000D03*
%TO.P,J4,4,Pin_4*%
%TO.N,Net-(IC1-IO12)*%
X138120000Y-88500000D03*
%TO.P,J4,5,Pin_5*%
%TO.N,Net-(IC1-IO13)*%
X140660000Y-88500000D03*
%TO.P,J4,6,Pin_6*%
%TO.N,Net-(IC1-IO15)*%
X143200000Y-88500000D03*
%TO.P,J4,7,Pin_7*%
%TO.N,Net-(IC1-IO2)*%
X145740000Y-88500000D03*
%TO.P,J4,8,Pin_8*%
%TO.N,Net-(IC1-IO0)*%
X148280000Y-88500000D03*
%TO.P,J4,9,Pin_9*%
%TO.N,Net-(IC1-IO4)*%
X150820000Y-88500000D03*
%TD*%
D18*
%TO.P,J3,1,Pin_1*%
%TO.N,Net-(IC1-IO16)*%
X153500000Y-83660000D03*
D19*
%TO.P,J3,2,Pin_2*%
%TO.N,Net-(IC1-IO17)*%
X153500000Y-81120000D03*
%TO.P,J3,3,Pin_3*%
%TO.N,Net-(IC1-IO5)*%
X153500000Y-78580000D03*
%TO.P,J3,4,Pin_4*%
%TO.N,Net-(IC1-IO18)*%
X153500000Y-76040000D03*
%TO.P,J3,5,Pin_5*%
%TO.N,Net-(IC1-IO19)*%
X153500000Y-73500000D03*
%TO.P,J3,6,Pin_6*%
%TO.N,Net-(IC1-IO21)*%
X153500000Y-70960000D03*
%TO.P,J3,7,Pin_7*%
%TO.N,Net-(IC1-RXD0{slash}IO3)*%
X153500000Y-68420000D03*
%TO.P,J3,8,Pin_8*%
%TO.N,Net-(IC1-TXD0{slash}IO1)*%
X153500000Y-65880000D03*
%TO.P,J3,9,Pin_9*%
%TO.N,Net-(IC1-IO22)*%
X153500000Y-63340000D03*
%TO.P,J3,10,Pin_10*%
%TO.N,Net-(IC1-IO23)*%
X153500000Y-60800000D03*
%TD*%
%TO.P,J2,10,Pin_10*%
%TO.N,Net-(IC1-IO25)*%
X128000000Y-83740000D03*
%TO.P,J2,9,Pin_9*%
%TO.N,Net-(IC1-IO33)*%
X128000000Y-81200000D03*
%TO.P,J2,8,Pin_8*%
%TO.N,Net-(IC1-IO32)*%
X128000000Y-78660000D03*
%TO.P,J2,7,Pin_7*%
%TO.N,Net-(IC1-IO35)*%
X128000000Y-76120000D03*
%TO.P,J2,6,Pin_6*%
%TO.N,Net-(IC1-IO34)*%
X128000000Y-73580000D03*
%TO.P,J2,5,Pin_5*%
%TO.N,Net-(IC1-SENSOR_VN)*%
X128000000Y-71040000D03*
%TO.P,J2,4,Pin_4*%
%TO.N,Net-(IC1-SENSOR_VP)*%
X128000000Y-68500000D03*
%TO.P,J2,3,Pin_3*%
%TO.N,Net-(IC1-EN)*%
X128000000Y-65960000D03*
%TO.P,J2,2,Pin_2*%
%TO.N,+3.3V*%
X128000000Y-63420000D03*
D18*
%TO.P,J2,1,Pin_1*%
%TO.N,GND*%
X128000000Y-60880000D03*
%TD*%
D20*
%TO.P,R3,1*%
%TO.N,Net-(IC1-IO17)*%
X168000000Y-82400000D03*
%TO.P,R3,2*%
%TO.N,Net-(D1-A)*%
X168000000Y-85500000D03*
%TD*%
D21*
%TO.P,LED,2,A*%
%TO.N,Net-(D1-A)*%
X171000000Y-85437500D03*
%TO.P,LED,1,K*%
%TO.N,GND*%
X171000000Y-82462500D03*
%TD*%
D22*
%TO.P,U1,1,GND*%
%TO.N,GND*%
X158700000Y-82650000D03*
%TO.P,U1,2,VO*%
%TO.N,+3.3V*%
X161000000Y-82650000D03*
D23*
X161000000Y-76350000D03*
D22*
%TO.P,U1,3,VI*%
%TO.N,VCC*%
X163300000Y-82650000D03*
%TD*%
D20*
%TO.P,R2,2*%
%TO.N,+3.3V*%
X168000000Y-77500000D03*
%TO.P,R2,1*%
%TO.N,Net-(IC1-IO22)*%
X168000000Y-74400000D03*
%TD*%
%TO.P,R1,2*%
%TO.N,+3.3V*%
X171000000Y-77500000D03*
%TO.P,R1,1*%
%TO.N,Net-(IC1-IO23)*%
X171000000Y-74400000D03*
%TD*%
D24*
%TO.P,IC5,1,NC*%
%TO.N,unconnected-(IC5-NC-Pad1)*%
X122450000Y-84810000D03*
%TO.P,IC5,2,INA*%
%TO.N,Net-(IC1-IO16)*%
X122450000Y-83540000D03*
%TO.P,IC5,3,GND*%
%TO.N,GND*%
X122450000Y-82270000D03*
%TO.P,IC5,4,INB*%
%TO.N,Net-(IC1-IO4)*%
X122450000Y-81000000D03*
%TO.P,IC5,5,OUTB*%
%TO.N,Net-(IC5-OUTB)*%
X117500000Y-81000000D03*
%TO.P,IC5,6,VDD*%
%TO.N,VCC*%
X117500000Y-82270000D03*
%TO.P,IC5,7,OUTA*%
%TO.N,Net-(IC5-OUTA)*%
X117500000Y-83540000D03*
%TO.P,IC5,8,NC*%
%TO.N,unconnected-(IC5-NC-Pad8)*%
X117500000Y-84810000D03*
%TD*%
%TO.P,IC4,1,NC*%
%TO.N,unconnected-(IC4-NC-Pad1)*%
X122450000Y-78000000D03*
%TO.P,IC4,2,INA*%
%TO.N,Net-(IC1-IO14)*%
X122450000Y-76730000D03*
%TO.P,IC4,3,GND*%
%TO.N,GND*%
X122450000Y-75460000D03*
%TO.P,IC4,4,INB*%
%TO.N,Net-(IC1-IO27)*%
X122450000Y-74190000D03*
%TO.P,IC4,5,OUTB*%
%TO.N,Net-(IC4-OUTB)*%
X117500000Y-74190000D03*
%TO.P,IC4,6,VDD*%
%TO.N,VCC*%
X117500000Y-75460000D03*
%TO.P,IC4,7,OUTA*%
%TO.N,Net-(IC4-OUTA)*%
X117500000Y-76730000D03*
%TO.P,IC4,8,NC*%
%TO.N,unconnected-(IC4-NC-Pad8)*%
X117500000Y-78000000D03*
%TD*%
%TO.P,IC3,1,NC*%
%TO.N,unconnected-(IC3-NC-Pad1)*%
X122475000Y-71500000D03*
%TO.P,IC3,2,INA*%
%TO.N,Net-(IC1-IO26)*%
X122475000Y-70230000D03*
%TO.P,IC3,3,GND*%
%TO.N,GND*%
X122475000Y-68960000D03*
%TO.P,IC3,4,INB*%
%TO.N,Net-(IC1-IO25)*%
X122475000Y-67690000D03*
%TO.P,IC3,5,OUTB*%
%TO.N,Net-(IC3-OUTB)*%
X117525000Y-67690000D03*
%TO.P,IC3,6,VDD*%
%TO.N,VCC*%
X117525000Y-68960000D03*
%TO.P,IC3,7,OUTA*%
%TO.N,Net-(IC3-OUTA)*%
X117525000Y-70230000D03*
%TO.P,IC3,8,NC*%
%TO.N,unconnected-(IC3-NC-Pad8)*%
X117525000Y-71500000D03*
%TD*%
%TO.P,IC2,8,NC*%
%TO.N,unconnected-(IC2-NC-Pad8)*%
X117500000Y-63810000D03*
%TO.P,IC2,7,OUTA*%
%TO.N,Net-(IC2-OUTA)*%
X117500000Y-62540000D03*
%TO.P,IC2,6,VDD*%
%TO.N,VCC*%
X117500000Y-61270000D03*
%TO.P,IC2,5,OUTB*%
%TO.N,Net-(IC2-OUTB)*%
X117500000Y-60000000D03*
%TO.P,IC2,4,INB*%
%TO.N,Net-(IC1-IO32)*%
X122450000Y-60000000D03*
%TO.P,IC2,3,GND*%
%TO.N,GND*%
X122450000Y-61270000D03*
%TO.P,IC2,2,INA*%
%TO.N,Net-(IC1-IO33)*%
X122450000Y-62540000D03*
%TO.P,IC2,1,NC*%
%TO.N,unconnected-(IC2-NC-Pad1)*%
X122450000Y-63810000D03*
%TD*%
D25*
%TO.P,C1,1*%
%TO.N,+3.3V*%
X161062500Y-85500000D03*
%TO.P,C1,2*%
%TO.N,GND*%
X157937500Y-85500000D03*
%TD*%
D26*
%TO.N,GND*%
X165709620Y-85790380D03*
%TO.N,Net-(IC1-IO22)*%
X158500000Y-70500000D03*
X160100000Y-72000000D03*
%TO.N,VCC*%
X114500000Y-71500000D03*
X113500000Y-62500000D03*
%TO.N,Net-(IC1-IO16)*%
X124240000Y-84984856D03*
X124240000Y-86707107D03*
%TO.N,Net-(IC1-IO4)*%
X120000000Y-83000000D03*
X120000000Y-81500000D03*
%TO.N,GND*%
X165500000Y-89600000D03*
X158000000Y-89600000D03*
X158000000Y-88400000D03*
%TO.N,Net-(IC1-IO17)*%
X166500000Y-86500000D03*
X166500000Y-89000000D03*
%TO.N,+3.3V*%
X148000000Y-69810000D03*
X155541587Y-70958413D03*
%TO.N,VCC*%
X113750000Y-78250000D03*
X114000000Y-90500000D03*
X127500000Y-91000000D03*
X129125000Y-91450000D03*
%TD*%
D27*
%TO.N,Net-(IC1-IO22)*%
X156000000Y-70500000D02*
X155000000Y-69500000D01*
X158500000Y-70500000D02*
X156000000Y-70500000D01*
X160600000Y-72500000D02*
X160100000Y-72000000D01*
X165000000Y-72500000D02*
X160600000Y-72500000D01*
X165000000Y-72500000D02*
X166030000Y-71470000D01*
X153500000Y-64000000D02*
X153500000Y-63340000D01*
X155000000Y-65500000D02*
X153500000Y-64000000D01*
X155000000Y-69500000D02*
X155000000Y-65500000D01*
%TO.N,+3.3V*%
X161200000Y-67800000D02*
X159500000Y-69500000D01*
X159500000Y-74850000D02*
X161000000Y-76350000D01*
X162970000Y-67800000D02*
X161200000Y-67800000D01*
X159500000Y-69500000D02*
X159500000Y-74850000D01*
%TO.N,Net-(IC1-IO22)*%
X168000000Y-73440000D02*
X166030000Y-71470000D01*
X168000000Y-74400000D02*
X168000000Y-73440000D01*
X166030000Y-71470000D02*
X166030000Y-70340000D01*
%TO.N,+3.3V*%
X155608413Y-70958413D02*
X161000000Y-76350000D01*
X155541587Y-70958413D02*
X155608413Y-70958413D01*
D28*
%TO.N,VCC*%
X116550001Y-68960000D02*
X117525000Y-68960000D01*
X114500000Y-71010001D02*
X116550001Y-68960000D01*
X114500000Y-71500000D02*
X114500000Y-71010001D01*
X114730000Y-61270000D02*
X113500000Y-62500000D01*
X117500000Y-61270000D02*
X114730000Y-61270000D01*
D27*
%TO.N,Net-(IC1-IO4)*%
X121609304Y-85584856D02*
X124019172Y-85584856D01*
X124019172Y-85584856D02*
X128884315Y-90450000D01*
X120000000Y-83975552D02*
X121609304Y-85584856D01*
X120000000Y-83000000D02*
X120000000Y-83975552D01*
X148870000Y-90450000D02*
X150820000Y-88500000D01*
X128884315Y-90450000D02*
X148870000Y-90450000D01*
%TO.N,Net-(IC1-IO16)*%
X124575737Y-86707107D02*
X128718630Y-90850000D01*
X124240000Y-86707107D02*
X124575737Y-86707107D01*
X122795144Y-83540000D02*
X124240000Y-84984856D01*
X122450000Y-83540000D02*
X122795144Y-83540000D01*
X153500000Y-87500000D02*
X153500000Y-83660000D01*
X150150000Y-90850000D02*
X153500000Y-87500000D01*
X128718630Y-90850000D02*
X150150000Y-90850000D01*
X122450000Y-83540000D02*
X121475001Y-83540000D01*
%TO.N,Net-(IC1-IO4)*%
X120000000Y-81500000D02*
X120500000Y-81000000D01*
X120500000Y-81000000D02*
X122450000Y-81000000D01*
%TO.N,Net-(IC1-IO14)*%
X134030000Y-90050000D02*
X135580000Y-88500000D01*
X129050000Y-90050000D02*
X134030000Y-90050000D01*
X128600000Y-89600000D02*
X129050000Y-90050000D01*
X128600000Y-87097718D02*
X128600000Y-89600000D01*
X124850000Y-80312742D02*
X125600000Y-81062742D01*
X125600000Y-81062742D02*
X125600000Y-84097718D01*
X124850000Y-77655001D02*
X124850000Y-80312742D01*
X123924999Y-76730000D02*
X124850000Y-77655001D01*
X122950000Y-76730000D02*
X123924999Y-76730000D01*
X125600000Y-84097718D02*
X128600000Y-87097718D01*
%TO.N,Net-(IC1-IO27)*%
X131890000Y-89650000D02*
X133040000Y-88500000D01*
X129350000Y-89650000D02*
X131890000Y-89650000D01*
X129000000Y-86932032D02*
X129000000Y-89300000D01*
X126000000Y-83932032D02*
X129000000Y-86932032D01*
X129000000Y-89300000D02*
X129350000Y-89650000D01*
X126000000Y-80897057D02*
X126000000Y-83932032D01*
X123924999Y-74190000D02*
X125250000Y-75515001D01*
X125250000Y-80147056D02*
X126000000Y-80897057D01*
X125250000Y-75515001D02*
X125250000Y-80147056D01*
X122950000Y-74190000D02*
X123924999Y-74190000D01*
%TO.N,Net-(IC1-IO26)*%
X125650000Y-70930001D02*
X124949999Y-70230000D01*
X124949999Y-70230000D02*
X122475000Y-70230000D01*
X126450000Y-83816346D02*
X126450000Y-80781371D01*
X126450000Y-80781371D02*
X125650000Y-79981370D01*
X125650000Y-79981370D02*
X125650000Y-70930001D01*
X127633654Y-85000000D02*
X126450000Y-83816346D01*
X129550000Y-85000000D02*
X127633654Y-85000000D01*
%TO.N,Net-(IC1-IO25)*%
X124949999Y-67690000D02*
X122475000Y-67690000D01*
X126050000Y-79815685D02*
X126050000Y-68790001D01*
X126850000Y-80615685D02*
X126050000Y-79815685D01*
X126050000Y-68790001D02*
X124949999Y-67690000D01*
X128000000Y-83740000D02*
X126850000Y-82590000D01*
X126850000Y-82590000D02*
X126850000Y-80615685D01*
D28*
%TO.N,Net-(IC5-OUTA)*%
X119000000Y-87500000D02*
X123000000Y-91500000D01*
X119000000Y-84065001D02*
X119000000Y-87500000D01*
X123000000Y-91500000D02*
X124000000Y-91500000D01*
X118474999Y-83540000D02*
X119000000Y-84065001D01*
X117500000Y-83540000D02*
X118474999Y-83540000D01*
D27*
%TO.N,GND*%
X165500000Y-90500000D02*
X164500000Y-91500000D01*
X164500000Y-91500000D02*
X162500000Y-91500000D01*
X165500000Y-89600000D02*
X165500000Y-90500000D01*
X167140256Y-81450000D02*
X165709620Y-82880636D01*
X169987500Y-81450000D02*
X167140256Y-81450000D01*
X171000000Y-82462500D02*
X169987500Y-81450000D01*
X165709620Y-82880636D02*
X165709620Y-85790380D01*
X121475001Y-61270000D02*
X122450000Y-61270000D01*
X121175000Y-59659448D02*
X121175000Y-60969999D01*
X121434448Y-59400000D02*
X121175000Y-59659448D01*
X126520000Y-59400000D02*
X121434448Y-59400000D01*
X121175000Y-60969999D02*
X121475001Y-61270000D01*
X128000000Y-60880000D02*
X126520000Y-59400000D01*
X159900000Y-91500000D02*
X162500000Y-91500000D01*
X158000000Y-89600000D02*
X159900000Y-91500000D01*
X157937500Y-88337500D02*
X158000000Y-88400000D01*
X157937500Y-85500000D02*
X157937500Y-88337500D01*
%TO.N,Net-(IC1-IO17)*%
X155500000Y-83120000D02*
X153500000Y-81120000D01*
X155500000Y-88500000D02*
X155500000Y-83120000D01*
X156000000Y-89000000D02*
X155500000Y-88500000D01*
X166500000Y-89000000D02*
X156000000Y-89000000D01*
%TO.N,GND*%
X157937500Y-83412500D02*
X158700000Y-82650000D01*
X157937500Y-85500000D02*
X157937500Y-83412500D01*
%TO.N,+3.3V*%
X161000000Y-76350000D02*
X161000000Y-82650000D01*
D28*
%TO.N,VCC*%
X131175000Y-93500000D02*
X129675000Y-92000000D01*
X164500000Y-93500000D02*
X131175000Y-93500000D01*
X166500000Y-91500000D02*
X164500000Y-93500000D01*
X167500000Y-91500000D02*
X166500000Y-91500000D01*
X168000000Y-92000000D02*
X167500000Y-91500000D01*
X168000000Y-93500000D02*
X168000000Y-92000000D01*
X122290000Y-93210000D02*
X124580000Y-95500000D01*
X166000000Y-95500000D02*
X168000000Y-93500000D01*
X116065000Y-86146694D02*
X122290000Y-92371694D01*
X122290000Y-92371694D02*
X122290000Y-93210000D01*
X124580000Y-95500000D02*
X166000000Y-95500000D01*
X116525001Y-82270000D02*
X116065000Y-82730001D01*
X116065000Y-82730001D02*
X116065000Y-86146694D01*
X117500000Y-82270000D02*
X116525001Y-82270000D01*
X169000000Y-93000000D02*
X167500000Y-91500000D01*
X166560000Y-96440000D02*
X169000000Y-94000000D01*
X119940000Y-96440000D02*
X166560000Y-96440000D01*
X169000000Y-94000000D02*
X169000000Y-93000000D01*
X114000000Y-90500000D02*
X119940000Y-96440000D01*
X167500000Y-92500000D02*
X167500000Y-91500000D01*
X165500000Y-94500000D02*
X167500000Y-92500000D01*
X131000000Y-94500000D02*
X165500000Y-94500000D01*
X127500000Y-91000000D02*
X131000000Y-94500000D01*
D27*
%TO.N,Net-(IC1-IO23)*%
X171000000Y-74400000D02*
X171000000Y-71750000D01*
%TO.N,GND*%
X138700000Y-76500000D02*
X139400000Y-76500000D01*
X140100000Y-76500000D02*
X139400000Y-76500000D01*
%TO.N,+3.3V*%
X166450000Y-76350000D02*
X161000000Y-76350000D01*
X167600000Y-77500000D02*
X166450000Y-76350000D01*
X168000000Y-77500000D02*
X167600000Y-77500000D01*
%TO.N,Net-(IC1-IO17)*%
X166500000Y-83900000D02*
X166500000Y-86500000D01*
X166825000Y-83575000D02*
X166500000Y-83900000D01*
D29*
%TO.N,VCC*%
X163300000Y-84300000D02*
X163300000Y-82650000D01*
X167500000Y-88500000D02*
X163300000Y-84300000D01*
X167500000Y-91500000D02*
X167500000Y-88500000D01*
D27*
%TO.N,+3.3V*%
X171000000Y-77500000D02*
X168000000Y-77500000D01*
%TO.N,Net-(IC1-IO17)*%
X168000000Y-82400000D02*
X166825000Y-83575000D01*
%TO.N,Net-(IC1-IO5)*%
X149880000Y-78580000D02*
X149650000Y-78810000D01*
X153500000Y-78580000D02*
X149880000Y-78580000D01*
%TO.N,Net-(IC1-IO17)*%
X153500000Y-81120000D02*
X152460000Y-80080000D01*
%TO.N,+3.3V*%
X146840000Y-68650000D02*
X132150000Y-68650000D01*
X148000000Y-69810000D02*
X146840000Y-68650000D01*
D28*
%TO.N,VCC*%
X129125000Y-91450000D02*
X129675000Y-92000000D01*
D27*
%TO.N,Net-(IC1-IO4)*%
X123234999Y-81000000D02*
X122450000Y-81000000D01*
D28*
%TO.N,VCC*%
X113750000Y-78250000D02*
X116540000Y-75460000D01*
X116540000Y-75460000D02*
X117500000Y-75460000D01*
%TO.N,Net-(IC5-OUTB)*%
X117000000Y-91500000D02*
X119000000Y-91500000D01*
X114500000Y-83025001D02*
X114500000Y-89000000D01*
X116525001Y-81000000D02*
X114500000Y-83025001D01*
X114500000Y-89000000D02*
X117000000Y-91500000D01*
X117500000Y-81000000D02*
X116525001Y-81000000D01*
%TO.N,Net-(IC4-OUTA)*%
X112960000Y-90540000D02*
X110500000Y-93000000D01*
X112960000Y-80295001D02*
X112960000Y-90540000D01*
X117500000Y-76730000D02*
X116525001Y-76730000D01*
X116525001Y-76730000D02*
X112960000Y-80295001D01*
%TO.N,Net-(IC4-OUTB)*%
X112240000Y-86260000D02*
X110500000Y-88000000D01*
X112240000Y-78475001D02*
X112240000Y-86260000D01*
X116525001Y-74190000D02*
X112240000Y-78475001D01*
%TO.N,Net-(IC3-OUTA)*%
X113033956Y-74966044D02*
X110500000Y-77500000D01*
X113033956Y-74040847D02*
X113033956Y-74966044D01*
X116844803Y-70230000D02*
X113033956Y-74040847D01*
X117525000Y-70230000D02*
X116844803Y-70230000D01*
X110500000Y-77500000D02*
X110500000Y-80000000D01*
%TO.N,Net-(IC3-OUTB)*%
X110500000Y-73740001D02*
X110500000Y-75000000D01*
X116550001Y-67690000D02*
X110500000Y-73740001D01*
X117525000Y-67690000D02*
X116550001Y-67690000D01*
%TO.N,Net-(IC4-OUTB)*%
X116525001Y-74190000D02*
X117500000Y-74190000D01*
%TO.N,Net-(IC2-OUTA)*%
X114960000Y-62540000D02*
X117500000Y-62540000D01*
X110500000Y-67000000D02*
X114960000Y-62540000D01*
%TO.N,Net-(IC2-OUTB)*%
X112500000Y-60000000D02*
X117500000Y-60000000D01*
X110500000Y-62000000D02*
X112500000Y-60000000D01*
D27*
%TO.N,Net-(IC1-IO33)*%
X124440000Y-62540000D02*
X122450000Y-62540000D01*
X126450000Y-64550000D02*
X124440000Y-62540000D01*
X126450000Y-64550000D02*
X126450000Y-79650000D01*
%TO.N,Net-(IC1-IO32)*%
X124829999Y-60000000D02*
X122450000Y-60000000D01*
X126850000Y-62020001D02*
X124829999Y-60000000D01*
%TO.N,Net-(IC1-IO23)*%
X171000000Y-71750000D02*
X167050000Y-67800000D01*
X160050000Y-60800000D02*
X153500000Y-60800000D01*
X167050000Y-67800000D02*
X160050000Y-60800000D01*
%TO.N,Net-(IC1-IO26)*%
X129550000Y-85000000D02*
X129550000Y-87550000D01*
X129550000Y-81450000D02*
X129550000Y-85000000D01*
%TO.N,Net-(IC1-IO33)*%
X126450000Y-79650000D02*
X128000000Y-81200000D01*
%TO.N,Net-(IC1-IO32)*%
X126850000Y-77510000D02*
X128000000Y-78660000D01*
X126850000Y-62020001D02*
X126850000Y-77510000D01*
%TO.N,Net-(D1-A)*%
X168062500Y-85437500D02*
X168000000Y-85500000D01*
X171000000Y-85437500D02*
X168062500Y-85437500D01*
%TO.N,+3.3V*%
X161062500Y-82712500D02*
X161000000Y-82650000D01*
X161062500Y-85500000D02*
X161062500Y-82712500D01*
%TO.N,Net-(IC1-IO4)*%
X150600000Y-82620000D02*
X149650000Y-82620000D01*
X151670000Y-83690000D02*
X150600000Y-82620000D01*
X150820000Y-88500000D02*
X151670000Y-87650000D01*
X151670000Y-87650000D02*
X151670000Y-83690000D01*
%TO.N,Net-(IC1-IO0)*%
X150500000Y-84740000D02*
X150500000Y-86280000D01*
X150500000Y-86280000D02*
X148280000Y-88500000D01*
X149650000Y-83890000D02*
X150500000Y-84740000D01*
%TO.N,Net-(IC1-IO16)*%
X152910000Y-83660000D02*
X153500000Y-83660000D01*
X149650000Y-81350000D02*
X150600000Y-81350000D01*
X150600000Y-81350000D02*
X152910000Y-83660000D01*
%TO.N,Net-(IC1-IO17)*%
X149650000Y-80080000D02*
X152460000Y-80080000D01*
%TO.N,Net-(IC1-IO18)*%
X152000000Y-77540000D02*
X153500000Y-76040000D01*
X149650000Y-77540000D02*
X152000000Y-77540000D01*
%TO.N,Net-(IC1-IO19)*%
X150730000Y-76270000D02*
X153500000Y-73500000D01*
X149650000Y-76270000D02*
X150730000Y-76270000D01*
%TO.N,Net-(IC1-IO21)*%
X150730000Y-73730000D02*
X153500000Y-70960000D01*
X149650000Y-73730000D02*
X150730000Y-73730000D01*
%TO.N,Net-(IC1-RXD0{slash}IO3)*%
X153500000Y-69140000D02*
X153500000Y-68420000D01*
X150180000Y-72460000D02*
X153500000Y-69140000D01*
X149650000Y-72460000D02*
X150180000Y-72460000D01*
%TO.N,Net-(IC1-TXD0{slash}IO1)*%
X152000000Y-67380000D02*
X153500000Y-65880000D01*
X152000000Y-69790000D02*
X152000000Y-67380000D01*
X150600000Y-71190000D02*
X152000000Y-69790000D01*
X149650000Y-71190000D02*
X150600000Y-71190000D01*
%TO.N,Net-(IC1-IO22)*%
X151400000Y-69120000D02*
X151400000Y-65440000D01*
X150600000Y-69920000D02*
X151400000Y-69120000D01*
X149650000Y-69920000D02*
X150600000Y-69920000D01*
X151400000Y-65440000D02*
X153500000Y-63340000D01*
%TO.N,Net-(IC1-IO23)*%
X150180000Y-68650000D02*
X151000000Y-67830000D01*
X151000000Y-67830000D02*
X151000000Y-63300000D01*
X151000000Y-63300000D02*
X153500000Y-60800000D01*
X149650000Y-68650000D02*
X150180000Y-68650000D01*
%TO.N,Net-(IC1-IO2)*%
X146615000Y-87625000D02*
X145740000Y-88500000D01*
X146615000Y-85140000D02*
X146615000Y-87625000D01*
%TO.N,Net-(IC1-IO15)*%
X145345000Y-86355000D02*
X143200000Y-88500000D01*
X145345000Y-85140000D02*
X145345000Y-86355000D01*
%TO.N,Net-(IC1-IO13)*%
X139510000Y-87350000D02*
X140660000Y-88500000D01*
X137715000Y-87350000D02*
X139510000Y-87350000D01*
X136455000Y-86090000D02*
X137715000Y-87350000D01*
X136455000Y-85140000D02*
X136455000Y-86090000D01*
%TO.N,Net-(IC1-IO12)*%
X132621372Y-86950000D02*
X136570000Y-86950000D01*
X131000000Y-85328628D02*
X132621372Y-86950000D01*
X131110000Y-83890000D02*
X131000000Y-84000000D01*
X132150000Y-83890000D02*
X131110000Y-83890000D01*
X131000000Y-84000000D02*
X131000000Y-85328628D01*
X136570000Y-86950000D02*
X138120000Y-88500000D01*
%TO.N,Net-(IC1-IO14)*%
X132455686Y-87350000D02*
X134430000Y-87350000D01*
X130400000Y-85294314D02*
X132455686Y-87350000D01*
X130400000Y-83100000D02*
X130400000Y-85294314D01*
X130880000Y-82620000D02*
X130400000Y-83100000D01*
X134430000Y-87350000D02*
X135580000Y-88500000D01*
X132150000Y-82620000D02*
X130880000Y-82620000D01*
%TO.N,Net-(IC1-IO27)*%
X130000000Y-85460000D02*
X133040000Y-88500000D01*
X130650000Y-81350000D02*
X130000000Y-82000000D01*
X130000000Y-82000000D02*
X130000000Y-85460000D01*
X132150000Y-81350000D02*
X130650000Y-81350000D01*
%TO.N,Net-(IC1-IO26)*%
X130920000Y-80080000D02*
X129550000Y-81450000D01*
X132150000Y-80080000D02*
X130920000Y-80080000D01*
X129550000Y-87550000D02*
X130500000Y-88500000D01*
%TO.N,Net-(IC1-IO25)*%
X129150000Y-82590000D02*
X128000000Y-83740000D01*
X129150000Y-81280000D02*
X129150000Y-82590000D01*
X131620000Y-78810000D02*
X129150000Y-81280000D01*
X132150000Y-78810000D02*
X131620000Y-78810000D01*
%TO.N,Net-(IC1-IO33)*%
X131660000Y-77540000D02*
X128000000Y-81200000D01*
X132150000Y-77540000D02*
X131660000Y-77540000D01*
%TO.N,Net-(IC1-IO32)*%
X130390000Y-76270000D02*
X128000000Y-78660000D01*
X132150000Y-76270000D02*
X130390000Y-76270000D01*
%TO.N,Net-(IC1-IO35)*%
X129120000Y-75000000D02*
X128000000Y-76120000D01*
X132150000Y-75000000D02*
X129120000Y-75000000D01*
%TO.N,Net-(IC1-IO34)*%
X132150000Y-73730000D02*
X128150000Y-73730000D01*
X128150000Y-73730000D02*
X128000000Y-73580000D01*
%TO.N,Net-(IC1-SENSOR_VN)*%
X132150000Y-72460000D02*
X129420000Y-72460000D01*
X129420000Y-72460000D02*
X128000000Y-71040000D01*
%TO.N,Net-(IC1-SENSOR_VP)*%
X130690000Y-71190000D02*
X128000000Y-68500000D01*
X132150000Y-71190000D02*
X130690000Y-71190000D01*
%TO.N,Net-(IC1-EN)*%
X128000000Y-66720000D02*
X128000000Y-65960000D01*
X131200000Y-69920000D02*
X128000000Y-66720000D01*
X132150000Y-69920000D02*
X131200000Y-69920000D01*
%TO.N,+3.3V*%
X129150000Y-64570000D02*
X128000000Y-63420000D01*
X129150000Y-66600000D02*
X129150000Y-64570000D01*
X132150000Y-68650000D02*
X131200000Y-68650000D01*
X131200000Y-68650000D02*
X129150000Y-66600000D01*
%TD*%
%TA.AperFunction,Conductor*%
%TO.N,GND*%
G36*
X112434676Y-59020185D02*
G01*
X112480431Y-59072989D01*
X112490375Y-59142147D01*
X112461350Y-59205703D01*
X112402572Y-59243477D01*
X112391828Y-59246117D01*
X112278177Y-59268723D01*
X112278169Y-59268725D01*
X112139770Y-59326051D01*
X112139761Y-59326056D01*
X112015210Y-59409279D01*
X111984067Y-59440423D01*
X111909281Y-59515209D01*
X111909278Y-59515212D01*
X111130898Y-60293591D01*
X111069575Y-60327076D01*
X111006668Y-60324401D01*
X110961035Y-60310325D01*
X110890623Y-60288606D01*
X110890619Y-60288605D01*
X110890615Y-60288604D01*
X110765823Y-60269794D01*
X110631187Y-60249500D01*
X110631182Y-60249500D01*
X110368818Y-60249500D01*
X110368812Y-60249500D01*
X110207247Y-60273853D01*
X110109385Y-60288604D01*
X110109382Y-60288605D01*
X110109376Y-60288606D01*
X109858673Y-60365938D01*
X109622303Y-60479767D01*
X109622302Y-60479768D01*
X109405520Y-60627567D01*
X109213198Y-60806014D01*
X109049614Y-61011143D01*
X108918432Y-61238356D01*
X108822582Y-61482578D01*
X108822576Y-61482597D01*
X108764197Y-61738374D01*
X108764196Y-61738379D01*
X108744592Y-61999995D01*
X108744592Y-62000004D01*
X108764196Y-62261620D01*
X108764197Y-62261625D01*
X108822576Y-62517402D01*
X108822578Y-62517411D01*
X108822580Y-62517416D01*
X108918432Y-62761643D01*
X109049614Y-62988857D01*
X109141905Y-63104586D01*
X109213198Y-63193985D01*
X109357224Y-63327620D01*
X109405521Y-63372433D01*
X109622296Y-63520228D01*
X109622301Y-63520230D01*
X109622302Y-63520231D01*
X109622303Y-63520232D01*
X109736889Y-63575413D01*
X109858673Y-63634061D01*
X109858674Y-63634061D01*
X109858677Y-63634063D01*
X110109385Y-63711396D01*
X110368818Y-63750500D01*
X110631182Y-63750500D01*
X110890615Y-63711396D01*
X111141323Y-63634063D01*
X111377704Y-63520228D01*
X111594479Y-63372433D01*
X111786805Y-63193981D01*
X111950386Y-62988857D01*
X112081568Y-62761643D01*
X112177420Y-62517416D01*
X112235802Y-62261630D01*
X112238740Y-62222422D01*
X112255408Y-62000004D01*
X112255408Y-61999995D01*
X112235803Y-61738379D01*
X112235803Y-61738378D01*
X112235802Y-61738374D01*
X112235802Y-61738370D01*
X112177420Y-61482584D01*
X112177417Y-61482577D01*
X112176967Y-61480604D01*
X112181240Y-61410865D01*
X112210175Y-61365332D01*
X112778690Y-60796819D01*
X112840013Y-60763334D01*
X112866371Y-60760500D01*
X113864628Y-60760500D01*
X113931667Y-60780185D01*
X113977422Y-60832989D01*
X113987366Y-60902147D01*
X113958341Y-60965703D01*
X113952309Y-60972181D01*
X113159823Y-61764666D01*
X113138114Y-61781979D01*
X112997738Y-61870183D01*
X112870184Y-61997737D01*
X112774211Y-62150476D01*
X112714631Y-62320745D01*
X112714630Y-62320750D01*
X112694435Y-62499996D01*
X112694435Y-62500003D01*
X112714630Y-62679249D01*
X112714631Y-62679254D01*
X112774211Y-62849523D01*
X112841326Y-62956335D01*
X112870184Y-63002262D01*
X112997738Y-63129816D01*
X113048434Y-63161670D01*
X113094726Y-63214004D01*
X113105375Y-63283057D01*
X113077000Y-63346906D01*
X113070144Y-63354345D01*
X111211308Y-65213181D01*
X111149985Y-65246666D01*
X111123627Y-65249500D01*
X109202129Y-65249500D01*
X109202123Y-65249501D01*
X109142516Y-65255908D01*
X109007671Y-65306202D01*
X109007664Y-65306206D01*
X108892455Y-65392452D01*
X108892452Y-65392455D01*
X108806206Y-65507664D01*
X108806202Y-65507671D01*
X108755908Y-65642517D01*
X108749501Y-65702116D01*
X108749500Y-65702135D01*
X108749500Y-68297870D01*
X108749501Y-68297876D01*
X108755908Y-68357483D01*
X108806202Y-68492328D01*
X108806206Y-68492335D01*
X108892452Y-68607544D01*
X108892455Y-68607547D01*
X109007664Y-68693793D01*
X109007671Y-68693797D01*
X109142517Y-68744091D01*
X109142516Y-68744091D01*
X109149444Y-68744835D01*
X109202127Y-68750500D01*
X111797872Y-68750499D01*
X111857483Y-68744091D01*
X111992331Y-68693796D01*
X112107546Y-68607546D01*
X112193796Y-68492331D01*
X112244091Y-68357483D01*
X112250500Y-68297873D01*
X112250499Y-66376370D01*
X112270184Y-66309332D01*
X112286813Y-66288695D01*
X115238691Y-63336819D01*
X115300014Y-63303334D01*
X115326372Y-63300500D01*
X115936895Y-63300500D01*
X116003934Y-63320185D01*
X116049689Y-63372989D01*
X116059633Y-63442147D01*
X116055971Y-63459095D01*
X116027402Y-63557426D01*
X116027401Y-63557432D01*
X116024500Y-63594298D01*
X116024500Y-64025701D01*
X116027401Y-64062567D01*
X116027402Y-64062573D01*
X116073254Y-64220393D01*
X116073255Y-64220396D01*
X116156917Y-64361862D01*
X116156923Y-64361870D01*
X116273129Y-64478076D01*
X116273133Y-64478079D01*
X116273135Y-64478081D01*
X116414602Y-64561744D01*
X116456224Y-64573836D01*
X116572426Y-64607597D01*
X116572429Y-64607597D01*
X116572431Y-64607598D01*
X116609306Y-64610500D01*
X116609314Y-64610500D01*
X118390686Y-64610500D01*
X118390694Y-64610500D01*
X118427569Y-64607598D01*
X118427571Y-64607597D01*
X118427573Y-64607597D01*
X118469191Y-64595505D01*
X118585398Y-64561744D01*
X118726865Y-64478081D01*
X118843081Y-64361865D01*
X118926744Y-64220398D01*
X118972598Y-64062569D01*
X118975500Y-64025694D01*
X118975500Y-63594306D01*
X118972598Y-63557431D01*
X118961790Y-63520231D01*
X118926745Y-63399606D01*
X118926744Y-63399603D01*
X118926744Y-63399602D01*
X118843081Y-63258135D01*
X118843078Y-63258132D01*
X118838298Y-63251969D01*
X118840750Y-63250066D01*
X118814155Y-63201421D01*
X118819104Y-63131726D01*
X118839940Y-63099304D01*
X118838298Y-63098031D01*
X118843075Y-63091870D01*
X118843081Y-63091865D01*
X118926744Y-62950398D01*
X118972598Y-62792569D01*
X118975500Y-62755694D01*
X118975500Y-62324306D01*
X118972598Y-62287431D01*
X118958625Y-62239337D01*
X118932809Y-62150478D01*
X118926744Y-62129602D01*
X118843081Y-61988135D01*
X118843080Y-61988134D01*
X118838298Y-61981969D01*
X118840750Y-61980066D01*
X118814155Y-61931421D01*
X118819104Y-61861726D01*
X118839940Y-61829304D01*
X118838298Y-61828031D01*
X118843075Y-61821870D01*
X118843081Y-61821865D01*
X118926744Y-61680398D01*
X118972598Y-61522569D01*
X118975500Y-61485694D01*
X118975500Y-61054306D01*
X118972598Y-61017431D01*
X118970771Y-61011143D01*
X118926745Y-60859606D01*
X118926744Y-60859603D01*
X118926744Y-60859602D01*
X118843081Y-60718135D01*
X118843078Y-60718132D01*
X118838298Y-60711969D01*
X118840750Y-60710066D01*
X118814155Y-60661421D01*
X118819104Y-60591726D01*
X118839940Y-60559304D01*
X118838298Y-60558031D01*
X118843075Y-60551870D01*
X118843081Y-60551865D01*
X118926744Y-60410398D01*
X118972598Y-60252569D01*
X118975500Y-60215694D01*
X118975500Y-59784306D01*
X118972598Y-59747431D01*
X118926744Y-59589602D01*
X118843081Y-59448135D01*
X118843080Y-59448134D01*
X118843076Y-59448129D01*
X118726870Y-59331923D01*
X118726862Y-59331917D01*
X118585396Y-59248255D01*
X118585395Y-59248254D01*
X118569291Y-59243576D01*
X118510406Y-59205970D01*
X118481200Y-59142497D01*
X118490946Y-59073310D01*
X118536550Y-59020376D01*
X118603534Y-59000501D01*
X118603887Y-59000500D01*
X121346113Y-59000500D01*
X121413152Y-59020185D01*
X121458907Y-59072989D01*
X121468851Y-59142147D01*
X121439826Y-59205703D01*
X121381048Y-59243477D01*
X121380709Y-59243576D01*
X121364604Y-59248254D01*
X121364603Y-59248255D01*
X121223137Y-59331917D01*
X121223129Y-59331923D01*
X121106923Y-59448129D01*
X121106919Y-59448135D01*
X121023255Y-59589603D01*
X121023254Y-59589606D01*
X120977402Y-59747426D01*
X120977401Y-59747432D01*
X120974500Y-59784298D01*
X120974500Y-60215701D01*
X120977401Y-60252567D01*
X120977402Y-60252569D01*
X121023254Y-60410393D01*
X121023255Y-60410396D01*
X121106917Y-60551862D01*
X121111702Y-60558031D01*
X121109369Y-60559840D01*
X121136210Y-60608995D01*
X121131226Y-60678687D01*
X121110470Y-60711021D01*
X121112097Y-60712283D01*
X121107313Y-60718449D01*
X121023718Y-60859801D01*
X120991704Y-60970000D01*
X123908296Y-60970000D01*
X123876281Y-60859801D01*
X123833594Y-60787621D01*
X123816411Y-60719897D01*
X123838571Y-60653635D01*
X123893037Y-60609871D01*
X123940326Y-60600500D01*
X124529902Y-60600500D01*
X124596941Y-60620185D01*
X124617583Y-60636819D01*
X126213181Y-62232417D01*
X126246666Y-62293740D01*
X126249500Y-62320098D01*
X126249500Y-63200903D01*
X126229815Y-63267942D01*
X126177011Y-63313697D01*
X126107853Y-63323641D01*
X126044297Y-63294616D01*
X126037819Y-63288584D01*
X124927590Y-62178355D01*
X124927588Y-62178352D01*
X124808717Y-62059481D01*
X124808709Y-62059475D01*
X124685143Y-61988135D01*
X124685140Y-61988134D01*
X124671785Y-61980423D01*
X124647945Y-61974035D01*
X124519057Y-61939499D01*
X124360943Y-61939499D01*
X124353347Y-61939499D01*
X124353331Y-61939500D01*
X123940326Y-61939500D01*
X123873287Y-61919815D01*
X123827532Y-61867011D01*
X123817588Y-61797853D01*
X123833594Y-61752379D01*
X123876281Y-61680198D01*
X123908296Y-61570000D01*
X120991704Y-61570000D01*
X121023718Y-61680198D01*
X121107314Y-61821552D01*
X121112100Y-61827722D01*
X121109640Y-61829629D01*
X121136210Y-61878288D01*
X121131226Y-61947980D01*
X121110162Y-61980781D01*
X121111699Y-61981974D01*
X121106915Y-61988140D01*
X121023255Y-62129603D01*
X121023254Y-62129606D01*
X120977402Y-62287426D01*
X120977401Y-62287432D01*
X120974500Y-62324298D01*
X120974500Y-62755701D01*
X120977401Y-62792567D01*
X120977402Y-62792573D01*
X121023254Y-62950393D01*
X121023255Y-62950396D01*
X121023256Y-62950398D01*
X121053928Y-63002262D01*
X121106917Y-63091862D01*
X121111702Y-63098031D01*
X121109256Y-63099927D01*
X121135857Y-63148642D01*
X121130873Y-63218334D01*
X121110069Y-63250703D01*
X121111702Y-63251969D01*
X121106917Y-63258137D01*
X121023255Y-63399603D01*
X121023254Y-63399606D01*
X120977402Y-63557426D01*
X120977401Y-63557432D01*
X120974500Y-63594298D01*
X120974500Y-64025701D01*
X120977401Y-64062567D01*
X120977402Y-64062573D01*
X121023254Y-64220393D01*
X121023255Y-64220396D01*
X121106917Y-64361862D01*
X121106923Y-64361870D01*
X121223129Y-64478076D01*
X121223133Y-64478079D01*
X121223135Y-64478081D01*
X121364602Y-64561744D01*
X121406224Y-64573836D01*
X121522426Y-64607597D01*
X121522429Y-64607597D01*
X121522431Y-64607598D01*
X121559306Y-64610500D01*
X121559314Y-64610500D01*
X123340686Y-64610500D01*
X123340694Y-64610500D01*
X123377569Y-64607598D01*
X123377571Y-64607597D01*
X123377573Y-64607597D01*
X123419191Y-64595505D01*
X123535398Y-64561744D01*
X123676865Y-64478081D01*
X123793081Y-64361865D01*
X123876744Y-64220398D01*
X123922598Y-64062569D01*
X123925500Y-64025694D01*
X123925500Y-63594306D01*
X123922598Y-63557431D01*
X123911790Y-63520231D01*
X123876745Y-63399606D01*
X123876744Y-63399603D01*
X123876744Y-63399602D01*
X123861005Y-63372989D01*
X123834175Y-63327620D01*
X123816992Y-63259896D01*
X123839152Y-63193634D01*
X123893619Y-63149871D01*
X123940907Y-63140500D01*
X124139903Y-63140500D01*
X124206942Y-63160185D01*
X124227584Y-63176819D01*
X125813181Y-64762416D01*
X125846666Y-64823739D01*
X125849500Y-64850097D01*
X125849500Y-67440904D01*
X125829815Y-67507943D01*
X125777011Y-67553698D01*
X125707853Y-67563642D01*
X125644297Y-67534617D01*
X125637819Y-67528585D01*
X125437589Y-67328355D01*
X125437587Y-67328352D01*
X125318716Y-67209481D01*
X125318715Y-67209480D01*
X125212600Y-67148215D01*
X125212599Y-67148214D01*
X125181782Y-67130422D01*
X125125880Y-67115443D01*
X125029056Y-67089499D01*
X124870942Y-67089499D01*
X124863346Y-67089499D01*
X124863330Y-67089500D01*
X123820808Y-67089500D01*
X123753769Y-67069815D01*
X123733126Y-67053180D01*
X123701870Y-67021923D01*
X123701862Y-67021917D01*
X123595006Y-66958723D01*
X123560398Y-66938256D01*
X123560397Y-66938255D01*
X123560396Y-66938255D01*
X123560393Y-66938254D01*
X123402573Y-66892402D01*
X123402567Y-66892401D01*
X123365701Y-66889500D01*
X123365694Y-66889500D01*
X121584306Y-66889500D01*
X121584298Y-66889500D01*
X121547432Y-66892401D01*
X121547426Y-66892402D01*
X121389606Y-66938254D01*
X121389603Y-66938255D01*
X121248137Y-67021917D01*
X121248129Y-67021923D01*
X121131923Y-67138129D01*
X121131917Y-67138137D01*
X121048255Y-67279603D01*
X121048254Y-67279606D01*
X121002402Y-67437426D01*
X121002401Y-67437432D01*
X120999500Y-67474298D01*
X120999500Y-67905701D01*
X121002401Y-67942567D01*
X121002402Y-67942573D01*
X121048254Y-68100393D01*
X121048255Y-68100396D01*
X121048256Y-68100398D01*
X121059470Y-68119360D01*
X121131917Y-68241862D01*
X121136702Y-68248031D01*
X121134369Y-68249840D01*
X121161210Y-68298995D01*
X121156226Y-68368687D01*
X121135470Y-68401021D01*
X121137097Y-68402283D01*
X121132313Y-68408449D01*
X121048718Y-68549801D01*
X121016704Y-68660000D01*
X123933296Y-68660000D01*
X123901281Y-68549801D01*
X123858594Y-68477621D01*
X123841411Y-68409897D01*
X123863571Y-68343635D01*
X123918037Y-68299871D01*
X123965326Y-68290500D01*
X124649902Y-68290500D01*
X124716941Y-68310185D01*
X124737583Y-68326819D01*
X125413181Y-69002417D01*
X125446666Y-69063740D01*
X125449500Y-69090098D01*
X125449500Y-69610214D01*
X125429815Y-69677253D01*
X125377011Y-69723008D01*
X125307853Y-69732952D01*
X125263503Y-69717603D01*
X125231905Y-69699361D01*
X125231905Y-69699359D01*
X125231899Y-69699358D01*
X125181784Y-69670423D01*
X125029056Y-69629499D01*
X124870942Y-69629499D01*
X124863346Y-69629499D01*
X124863330Y-69629500D01*
X123965326Y-69629500D01*
X123898287Y-69609815D01*
X123852532Y-69557011D01*
X123842588Y-69487853D01*
X123858594Y-69442379D01*
X123901281Y-69370198D01*
X123933296Y-69260000D01*
X121016704Y-69260000D01*
X121048718Y-69370198D01*
X121132314Y-69511552D01*
X121137100Y-69517722D01*
X121134640Y-69519629D01*
X121161210Y-69568288D01*
X121156226Y-69637980D01*
X121135162Y-69670781D01*
X121136699Y-69671974D01*
X121131915Y-69678140D01*
X121048255Y-69819603D01*
X121048254Y-69819606D01*
X121002402Y-69977426D01*
X121002401Y-69977432D01*
X120999500Y-70014298D01*
X120999500Y-70445701D01*
X121002401Y-70482567D01*
X121002402Y-70482573D01*
X121048254Y-70640393D01*
X121048255Y-70640396D01*
X121048256Y-70640398D01*
X121079402Y-70693063D01*
X121131917Y-70781862D01*
X121136702Y-70788031D01*
X121134256Y-70789927D01*
X121160857Y-70838642D01*
X121155873Y-70908334D01*
X121135069Y-70940703D01*
X121136702Y-70941969D01*
X121131917Y-70948137D01*
X121048255Y-71089603D01*
X121048254Y-71089606D01*
X121002402Y-71247426D01*
X121002401Y-71247432D01*
X120999500Y-71284298D01*
X120999500Y-71715701D01*
X121002401Y-71752567D01*
X121002402Y-71752573D01*
X121048254Y-71910393D01*
X121048255Y-71910396D01*
X121048256Y-71910398D01*
X121078853Y-71962135D01*
X121131917Y-72051862D01*
X121131923Y-72051870D01*
X121248129Y-72168076D01*
X121248133Y-72168079D01*
X121248135Y-72168081D01*
X121389602Y-72251744D01*
X121431224Y-72263836D01*
X121547426Y-72297597D01*
X121547429Y-72297597D01*
X121547431Y-72297598D01*
X121584306Y-72300500D01*
X121584314Y-72300500D01*
X123365686Y-72300500D01*
X123365694Y-72300500D01*
X123402569Y-72297598D01*
X123402571Y-72297597D01*
X123402573Y-72297597D01*
X123473474Y-72276998D01*
X123560398Y-72251744D01*
X123701865Y-72168081D01*
X123818081Y-72051865D01*
X123901744Y-71910398D01*
X123939144Y-71781669D01*
X123947597Y-71752573D01*
X123947598Y-71752567D01*
X123947998Y-71747481D01*
X123950500Y-71715694D01*
X123950500Y-71284306D01*
X123947598Y-71247431D01*
X123942562Y-71230098D01*
X123901745Y-71089606D01*
X123901744Y-71089603D01*
X123901744Y-71089602D01*
X123872410Y-71040000D01*
X123859175Y-71017620D01*
X123841992Y-70949896D01*
X123864152Y-70883634D01*
X123918619Y-70839871D01*
X123965907Y-70830500D01*
X124649902Y-70830500D01*
X124716941Y-70850185D01*
X124737583Y-70866819D01*
X125013181Y-71142417D01*
X125046666Y-71203740D01*
X125049500Y-71230098D01*
X125049500Y-74165904D01*
X125029815Y-74232943D01*
X124977011Y-74278698D01*
X124907853Y-74288642D01*
X124844297Y-74259617D01*
X124837819Y-74253585D01*
X124412589Y-73828355D01*
X124412587Y-73828352D01*
X124293716Y-73709481D01*
X124293708Y-73709475D01*
X124170142Y-73638135D01*
X124170139Y-73638134D01*
X124170130Y-73638129D01*
X124156784Y-73630423D01*
X124004056Y-73589499D01*
X123845942Y-73589499D01*
X123838346Y-73589499D01*
X123838330Y-73589500D01*
X123795808Y-73589500D01*
X123728769Y-73569815D01*
X123708126Y-73553180D01*
X123676870Y-73521923D01*
X123676862Y-73521917D01*
X123555474Y-73450129D01*
X123535398Y-73438256D01*
X123535397Y-73438255D01*
X123535396Y-73438255D01*
X123535393Y-73438254D01*
X123377573Y-73392402D01*
X123377567Y-73392401D01*
X123340701Y-73389500D01*
X123340694Y-73389500D01*
X121559306Y-73389500D01*
X121559298Y-73389500D01*
X121522432Y-73392401D01*
X121522426Y-73392402D01*
X121364606Y-73438254D01*
X121364603Y-73438255D01*
X121223137Y-73521917D01*
X121223129Y-73521923D01*
X121106923Y-73638129D01*
X121106919Y-73638135D01*
X121023255Y-73779603D01*
X121023254Y-73779606D01*
X120977402Y-73937426D01*
X120977401Y-73937432D01*
X120974500Y-73974298D01*
X120974500Y-74405701D01*
X120977401Y-74442567D01*
X120977402Y-74442573D01*
X121023254Y-74600393D01*
X121023255Y-74600396D01*
X121106917Y-74741862D01*
X121111702Y-74748031D01*
X121109369Y-74749840D01*
X121136210Y-74798995D01*
X121131226Y-74868687D01*
X121110470Y-74901021D01*
X121112097Y-74902283D01*
X121107313Y-74908449D01*
X121023718Y-75049801D01*
X120991704Y-75160000D01*
X123929353Y-75160000D01*
X123937435Y-75153967D01*
X124007134Y-75149078D01*
X124068291Y-75182527D01*
X124613181Y-75727417D01*
X124646666Y-75788740D01*
X124649500Y-75815098D01*
X124649500Y-76305904D01*
X124629815Y-76372943D01*
X124577011Y-76418698D01*
X124507853Y-76428642D01*
X124444297Y-76399617D01*
X124437819Y-76393585D01*
X124412589Y-76368355D01*
X124412587Y-76368352D01*
X124293716Y-76249481D01*
X124293708Y-76249475D01*
X124170142Y-76178135D01*
X124170139Y-76178134D01*
X124156784Y-76170423D01*
X124145860Y-76167496D01*
X124004056Y-76129499D01*
X123940327Y-76129499D01*
X123873288Y-76109814D01*
X123827533Y-76057010D01*
X123817589Y-75987852D01*
X123833595Y-75942378D01*
X123876281Y-75870198D01*
X123908296Y-75760000D01*
X120991704Y-75760000D01*
X121023718Y-75870198D01*
X121107314Y-76011552D01*
X121112100Y-76017722D01*
X121109640Y-76019629D01*
X121136210Y-76068288D01*
X121131226Y-76137980D01*
X121110162Y-76170781D01*
X121111699Y-76171974D01*
X121106915Y-76178140D01*
X121023255Y-76319603D01*
X121023254Y-76319606D01*
X120977402Y-76477426D01*
X120977401Y-76477432D01*
X120974500Y-76514298D01*
X120974500Y-76945701D01*
X120977401Y-76982567D01*
X120977402Y-76982573D01*
X121023254Y-77140393D01*
X121023255Y-77140396D01*
X121106917Y-77281862D01*
X121111702Y-77288031D01*
X121109256Y-77289927D01*
X121135857Y-77338642D01*
X121130873Y-77408334D01*
X121110069Y-77440703D01*
X121111702Y-77441969D01*
X121106917Y-77448137D01*
X121023255Y-77589603D01*
X121023254Y-77589606D01*
X120977402Y-77747426D01*
X120977401Y-77747432D01*
X120974500Y-77784298D01*
X120974500Y-78215701D01*
X120977401Y-78252567D01*
X120977402Y-78252573D01*
X121023254Y-78410393D01*
X121023255Y-78410396D01*
X121106917Y-78551862D01*
X121106923Y-78551870D01*
X121223129Y-78668076D01*
X121223133Y-78668079D01*
X121223135Y-78668081D01*
X121364602Y-78751744D01*
X121366385Y-78752262D01*
X121522426Y-78797597D01*
X121522429Y-78797597D01*
X121522431Y-78797598D01*
X121559306Y-78800500D01*
X121559314Y-78800500D01*
X123340686Y-78800500D01*
X123340694Y-78800500D01*
X123377569Y-78797598D01*
X123377571Y-78797597D01*
X123377573Y-78797597D01*
X123419191Y-78785505D01*
X123535398Y-78751744D01*
X123676865Y-78668081D01*
X123793081Y-78551865D01*
X123876744Y-78410398D01*
X123921628Y-78255908D01*
X123922597Y-78252573D01*
X123922598Y-78252567D01*
X123922839Y-78249501D01*
X123925500Y-78215694D01*
X123925500Y-77879098D01*
X123945185Y-77812059D01*
X123997989Y-77766304D01*
X124067147Y-77756360D01*
X124130703Y-77785385D01*
X124137181Y-77791417D01*
X124213181Y-77867417D01*
X124246666Y-77928740D01*
X124249500Y-77955098D01*
X124249500Y-80226072D01*
X124249499Y-80226090D01*
X124249499Y-80391796D01*
X124249498Y-80391796D01*
X124290423Y-80544528D01*
X124290424Y-80544529D01*
X124316447Y-80589602D01*
X124369109Y-80680816D01*
X124369481Y-80681459D01*
X124488349Y-80800327D01*
X124488355Y-80800332D01*
X124963181Y-81275158D01*
X124996666Y-81336481D01*
X124999500Y-81362839D01*
X124999500Y-84011048D01*
X124999499Y-84011066D01*
X124999499Y-84176772D01*
X124999498Y-84176772D01*
X124999499Y-84176775D01*
X125030176Y-84291263D01*
X125039130Y-84324677D01*
X125037467Y-84394527D01*
X124998305Y-84452390D01*
X124934076Y-84479894D01*
X124865174Y-84468308D01*
X124831674Y-84444452D01*
X124742262Y-84355040D01*
X124589521Y-84259066D01*
X124419249Y-84199486D01*
X124332330Y-84189693D01*
X124267916Y-84162626D01*
X124258533Y-84154154D01*
X123961148Y-83856769D01*
X123927663Y-83795446D01*
X123925212Y-83759350D01*
X123925499Y-83755702D01*
X123925500Y-83755694D01*
X123925500Y-83324306D01*
X123922598Y-83287431D01*
X123920834Y-83281361D01*
X123876745Y-83129606D01*
X123876744Y-83129603D01*
X123876744Y-83129602D01*
X123793081Y-82988135D01*
X123793078Y-82988132D01*
X123788298Y-82981969D01*
X123790635Y-82980155D01*
X123763798Y-82931050D01*
X123768756Y-82861356D01*
X123789554Y-82828998D01*
X123787903Y-82827717D01*
X123792686Y-82821550D01*
X123876281Y-82680198D01*
X123908296Y-82570000D01*
X120991704Y-82570000D01*
X121023718Y-82680198D01*
X121107314Y-82821552D01*
X121112100Y-82827722D01*
X121109640Y-82829629D01*
X121136210Y-82878288D01*
X121131226Y-82947980D01*
X121110162Y-82980781D01*
X121111699Y-82981974D01*
X121106915Y-82988140D01*
X121031082Y-83116367D01*
X120980012Y-83164051D01*
X120911271Y-83176554D01*
X120846681Y-83149908D01*
X120806752Y-83092573D01*
X120801130Y-83039362D01*
X120805565Y-83000002D01*
X120805565Y-82999996D01*
X120785369Y-82820750D01*
X120785368Y-82820745D01*
X120762810Y-82756277D01*
X120725789Y-82650478D01*
X120629816Y-82497738D01*
X120502262Y-82370184D01*
X120478084Y-82354992D01*
X120431796Y-82302661D01*
X120421146Y-82233607D01*
X120449521Y-82169758D01*
X120478082Y-82145009D01*
X120502262Y-82129816D01*
X120629816Y-82002262D01*
X120725789Y-81849522D01*
X120783867Y-81683545D01*
X120824589Y-81626769D01*
X120889542Y-81601022D01*
X120900909Y-81600500D01*
X120959674Y-81600500D01*
X121026713Y-81620185D01*
X121072468Y-81672989D01*
X121082412Y-81742147D01*
X121066406Y-81787621D01*
X121023718Y-81859801D01*
X120991704Y-81970000D01*
X123908296Y-81970000D01*
X123876281Y-81859801D01*
X123792685Y-81718447D01*
X123787900Y-81712278D01*
X123790366Y-81710364D01*
X123763802Y-81661776D01*
X123768749Y-81592082D01*
X123789856Y-81559232D01*
X123788301Y-81558026D01*
X123793077Y-81551868D01*
X123793081Y-81551865D01*
X123876744Y-81410398D01*
X123922598Y-81252569D01*
X123925500Y-81215694D01*
X123925500Y-80784306D01*
X123922598Y-80747431D01*
X123920834Y-80741361D01*
X123876745Y-80589606D01*
X123876744Y-80589602D01*
X123793082Y-80448137D01*
X123793081Y-80448135D01*
X123793079Y-80448133D01*
X123793076Y-80448129D01*
X123676870Y-80331923D01*
X123676862Y-80331917D01*
X123535978Y-80248599D01*
X123535398Y-80248256D01*
X123535397Y-80248255D01*
X123535396Y-80248255D01*
X123535393Y-80248254D01*
X123377573Y-80202402D01*
X123377567Y-80202401D01*
X123340701Y-80199500D01*
X123340694Y-80199500D01*
X121559306Y-80199500D01*
X121559298Y-80199500D01*
X121522432Y-80202401D01*
X121522426Y-80202402D01*
X121364606Y-80248254D01*
X121364603Y-80248255D01*
X121223137Y-80331917D01*
X121223129Y-80331923D01*
X121191874Y-80363180D01*
X121130552Y-80396666D01*
X121104192Y-80399500D01*
X120586670Y-80399500D01*
X120586654Y-80399499D01*
X120579058Y-80399499D01*
X120420943Y-80399499D01*
X120344579Y-80419961D01*
X120268214Y-80440423D01*
X120268209Y-80440426D01*
X120131290Y-80519475D01*
X120131286Y-80519478D01*
X119981465Y-80669299D01*
X119920142Y-80702783D01*
X119907668Y-80704837D01*
X119820750Y-80714630D01*
X119650478Y-80774210D01*
X119497737Y-80870184D01*
X119370184Y-80997737D01*
X119274211Y-81150476D01*
X119214631Y-81320745D01*
X119214630Y-81320750D01*
X119194435Y-81499996D01*
X119194435Y-81500003D01*
X119214630Y-81679249D01*
X119214631Y-81679254D01*
X119274211Y-81849523D01*
X119363356Y-81991395D01*
X119370184Y-82002262D01*
X119497738Y-82129816D01*
X119499247Y-82130764D01*
X119521913Y-82145006D01*
X119568204Y-82197341D01*
X119578852Y-82266395D01*
X119550477Y-82330243D01*
X119521913Y-82354994D01*
X119497737Y-82370184D01*
X119370184Y-82497737D01*
X119274211Y-82650476D01*
X119214631Y-82820745D01*
X119214630Y-82820750D01*
X119204639Y-82909430D01*
X119177573Y-82973844D01*
X119119978Y-83013400D01*
X119050141Y-83015537D01*
X118993738Y-82983228D01*
X118959793Y-82949283D01*
X118959789Y-82949280D01*
X118919710Y-82922500D01*
X118874905Y-82868888D01*
X118866198Y-82799563D01*
X118881869Y-82756277D01*
X118926744Y-82680398D01*
X118972598Y-82522569D01*
X118975500Y-82485694D01*
X118975500Y-82054306D01*
X118972598Y-82017431D01*
X118971770Y-82014582D01*
X118926745Y-81859606D01*
X118926744Y-81859603D01*
X118926744Y-81859602D01*
X118843081Y-81718135D01*
X118843078Y-81718132D01*
X118838298Y-81711969D01*
X118840750Y-81710066D01*
X118814155Y-81661421D01*
X118819104Y-81591726D01*
X118839940Y-81559304D01*
X118838298Y-81558031D01*
X118843075Y-81551870D01*
X118843081Y-81551865D01*
X118926744Y-81410398D01*
X118972598Y-81252569D01*
X118975500Y-81215694D01*
X118975500Y-80784306D01*
X118972598Y-80747431D01*
X118970834Y-80741361D01*
X118926745Y-80589606D01*
X118926744Y-80589602D01*
X118843082Y-80448137D01*
X118843081Y-80448135D01*
X118843079Y-80448133D01*
X118843076Y-80448129D01*
X118726870Y-80331923D01*
X118726862Y-80331917D01*
X118585978Y-80248599D01*
X118585398Y-80248256D01*
X118585397Y-80248255D01*
X118585396Y-80248255D01*
X118585393Y-80248254D01*
X118427573Y-80202402D01*
X118427567Y-80202401D01*
X118390701Y-80199500D01*
X118390694Y-80199500D01*
X116609306Y-80199500D01*
X116609298Y-80199500D01*
X116572432Y-80202401D01*
X116572426Y-80202402D01*
X116438263Y-80241381D01*
X116427860Y-80243922D01*
X116303176Y-80268723D01*
X116303170Y-80268725D01*
X116164771Y-80326051D01*
X116164762Y-80326056D01*
X116040211Y-80409279D01*
X116009068Y-80440423D01*
X115934282Y-80515209D01*
X115934279Y-80515212D01*
X114015212Y-82434279D01*
X114015209Y-82434282D01*
X113963805Y-82485686D01*
X113932181Y-82517310D01*
X113870857Y-82550794D01*
X113801166Y-82545810D01*
X113745232Y-82503938D01*
X113720816Y-82438473D01*
X113720500Y-82429628D01*
X113720500Y-80661371D01*
X113740185Y-80594332D01*
X113756814Y-80573695D01*
X115903308Y-78427200D01*
X115964629Y-78393717D01*
X116034321Y-78398701D01*
X116090254Y-78440573D01*
X116097719Y-78451763D01*
X116156914Y-78551858D01*
X116156923Y-78551870D01*
X116273129Y-78668076D01*
X116273133Y-78668079D01*
X116273135Y-78668081D01*
X116414602Y-78751744D01*
X116416385Y-78752262D01*
X116572426Y-78797597D01*
X116572429Y-78797597D01*
X116572431Y-78797598D01*
X116609306Y-78800500D01*
X116609314Y-78800500D01*
X118390686Y-78800500D01*
X118390694Y-78800500D01*
X118427569Y-78797598D01*
X118427571Y-78797597D01*
X118427573Y-78797597D01*
X118469191Y-78785505D01*
X118585398Y-78751744D01*
X118726865Y-78668081D01*
X118843081Y-78551865D01*
X118926744Y-78410398D01*
X118971628Y-78255908D01*
X118972597Y-78252573D01*
X118972598Y-78252567D01*
X118972839Y-78249501D01*
X118975500Y-78215694D01*
X118975500Y-77784306D01*
X118972598Y-77747431D01*
X118926744Y-77589602D01*
X118843081Y-77448135D01*
X118843078Y-77448132D01*
X118838298Y-77441969D01*
X118840750Y-77440066D01*
X118814155Y-77391421D01*
X118819104Y-77321726D01*
X118839940Y-77289304D01*
X118838298Y-77288031D01*
X118843075Y-77281870D01*
X118843081Y-77281865D01*
X118926744Y-77140398D01*
X118972598Y-76982569D01*
X118975500Y-76945694D01*
X118975500Y-76514306D01*
X118972598Y-76477431D01*
X118969254Y-76465922D01*
X118936137Y-76351934D01*
X118926744Y-76319602D01*
X118843081Y-76178135D01*
X118843080Y-76178134D01*
X118838298Y-76171969D01*
X118840750Y-76170066D01*
X118814155Y-76121421D01*
X118819104Y-76051726D01*
X118839940Y-76019304D01*
X118838298Y-76018031D01*
X118843075Y-76011870D01*
X118843081Y-76011865D01*
X118926744Y-75870398D01*
X118972598Y-75712569D01*
X118975500Y-75675694D01*
X118975500Y-75244306D01*
X118972598Y-75207431D01*
X118926744Y-75049602D01*
X118843081Y-74908135D01*
X118843078Y-74908132D01*
X118838298Y-74901969D01*
X118840750Y-74900066D01*
X118814155Y-74851421D01*
X118819104Y-74781726D01*
X118839940Y-74749304D01*
X118838298Y-74748031D01*
X118843075Y-74741870D01*
X118843081Y-74741865D01*
X118926744Y-74600398D01*
X118972598Y-74442569D01*
X118975500Y-74405694D01*
X118975500Y-73974306D01*
X118972598Y-73937431D01*
X118971486Y-73933605D01*
X118926745Y-73779606D01*
X118926744Y-73779603D01*
X118926744Y-73779602D01*
X118843081Y-73638135D01*
X118843080Y-73638134D01*
X118843076Y-73638129D01*
X118726870Y-73521923D01*
X118726862Y-73521917D01*
X118605474Y-73450129D01*
X118585398Y-73438256D01*
X118585397Y-73438255D01*
X118585396Y-73438255D01*
X118585393Y-73438254D01*
X118427573Y-73392402D01*
X118427567Y-73392401D01*
X118390701Y-73389500D01*
X118390694Y-73389500D01*
X116609306Y-73389500D01*
X116609298Y-73389500D01*
X116572432Y-73392401D01*
X116572426Y-73392402D01*
X116438263Y-73431381D01*
X116427860Y-73433922D01*
X116303176Y-73458723D01*
X116303170Y-73458725D01*
X116164771Y-73516051D01*
X116164762Y-73516056D01*
X116040211Y-73599279D01*
X116011924Y-73627567D01*
X115934282Y-73705209D01*
X115934279Y-73705212D01*
X111755212Y-77884279D01*
X111755209Y-77884282D01*
X111710751Y-77928740D01*
X111649279Y-77990211D01*
X111566051Y-78114771D01*
X111541952Y-78172953D01*
X111498111Y-78227356D01*
X111431817Y-78249421D01*
X111427391Y-78249500D01*
X111384500Y-78249500D01*
X111317461Y-78229815D01*
X111271706Y-78177011D01*
X111260500Y-78125500D01*
X111260500Y-77866370D01*
X111280185Y-77799331D01*
X111296814Y-77778694D01*
X113518743Y-75556765D01*
X113518747Y-75556763D01*
X113624675Y-75450835D01*
X113707903Y-75326276D01*
X113765231Y-75187874D01*
X113794456Y-75040947D01*
X113794456Y-74407217D01*
X113814141Y-74340178D01*
X113830770Y-74319541D01*
X116052501Y-72097809D01*
X116113824Y-72064325D01*
X116183516Y-72069309D01*
X116227863Y-72097810D01*
X116298129Y-72168076D01*
X116298133Y-72168079D01*
X116298135Y-72168081D01*
X116439602Y-72251744D01*
X116481224Y-72263836D01*
X116597426Y-72297597D01*
X116597429Y-72297597D01*
X116597431Y-72297598D01*
X116634306Y-72300500D01*
X116634314Y-72300500D01*
X118415686Y-72300500D01*
X118415694Y-72300500D01*
X118452569Y-72297598D01*
X118452571Y-72297597D01*
X118452573Y-72297597D01*
X118523474Y-72276998D01*
X118610398Y-72251744D01*
X118751865Y-72168081D01*
X118868081Y-72051865D01*
X118951744Y-71910398D01*
X118989144Y-71781669D01*
X118997597Y-71752573D01*
X118997598Y-71752567D01*
X118997998Y-71747481D01*
X119000500Y-71715694D01*
X119000500Y-71284306D01*
X118997598Y-71247431D01*
X118992562Y-71230098D01*
X118951745Y-71089606D01*
X118951744Y-71089603D01*
X118951744Y-71089602D01*
X118868081Y-70948135D01*
X118868078Y-70948132D01*
X118863298Y-70941969D01*
X118865750Y-70940066D01*
X118839155Y-70891421D01*
X118844104Y-70821726D01*
X118864940Y-70789304D01*
X118863298Y-70788031D01*
X118868075Y-70781870D01*
X118868081Y-70781865D01*
X118951744Y-70640398D01*
X118988555Y-70513694D01*
X118997597Y-70482573D01*
X118997598Y-70482567D01*
X119000499Y-70445701D01*
X119000500Y-70445694D01*
X119000500Y-70014306D01*
X118997598Y-69977431D01*
X118981106Y-69920667D01*
X118951745Y-69819606D01*
X118951744Y-69819603D01*
X118951744Y-69819602D01*
X118868081Y-69678135D01*
X118868078Y-69678132D01*
X118863298Y-69671969D01*
X118865750Y-69670066D01*
X118839155Y-69621421D01*
X118844104Y-69551726D01*
X118864940Y-69519304D01*
X118863298Y-69518031D01*
X118868075Y-69511870D01*
X118868081Y-69511865D01*
X118951744Y-69370398D01*
X118997598Y-69212569D01*
X119000500Y-69175694D01*
X119000500Y-68744306D01*
X118997598Y-68707431D01*
X118980999Y-68650299D01*
X118951745Y-68549606D01*
X118951744Y-68549603D01*
X118951744Y-68549602D01*
X118868081Y-68408135D01*
X118868078Y-68408132D01*
X118863298Y-68401969D01*
X118865750Y-68400066D01*
X118839155Y-68351421D01*
X118844104Y-68281726D01*
X118864940Y-68249304D01*
X118863298Y-68248031D01*
X118868075Y-68241870D01*
X118868081Y-68241865D01*
X118951744Y-68100398D01*
X118997598Y-67942569D01*
X119000500Y-67905694D01*
X119000500Y-67474306D01*
X118997598Y-67437431D01*
X118995812Y-67431284D01*
X118956251Y-67295115D01*
X118951744Y-67279602D01*
X118868081Y-67138135D01*
X118868079Y-67138133D01*
X118868076Y-67138129D01*
X118751870Y-67021923D01*
X118751862Y-67021917D01*
X118645006Y-66958723D01*
X118610398Y-66938256D01*
X118610397Y-66938255D01*
X118610396Y-66938255D01*
X118610393Y-66938254D01*
X118452573Y-66892402D01*
X118452567Y-66892401D01*
X118415701Y-66889500D01*
X118415694Y-66889500D01*
X116634306Y-66889500D01*
X116634298Y-66889500D01*
X116597432Y-66892401D01*
X116463253Y-66931384D01*
X116452850Y-66933924D01*
X116328178Y-66958723D01*
X116328170Y-66958725D01*
X116189771Y-67016051D01*
X116189762Y-67016056D01*
X116065210Y-67099280D01*
X116065206Y-67099283D01*
X111526661Y-71637830D01*
X110015211Y-73149280D01*
X110015209Y-73149282D01*
X109976991Y-73187500D01*
X109909279Y-73255211D01*
X109843007Y-73354395D01*
X109793707Y-73397224D01*
X109622300Y-73479769D01*
X109405520Y-73627567D01*
X109213198Y-73806014D01*
X109049614Y-74011143D01*
X108918432Y-74238356D01*
X108822582Y-74482578D01*
X108822576Y-74482597D01*
X108764197Y-74738374D01*
X108764196Y-74738379D01*
X108744592Y-74999995D01*
X108744592Y-75000004D01*
X108764196Y-75261620D01*
X108764197Y-75261625D01*
X108764197Y-75261629D01*
X108764198Y-75261630D01*
X108765802Y-75268656D01*
X108822576Y-75517402D01*
X108822578Y-75517411D01*
X108822580Y-75517416D01*
X108918432Y-75761643D01*
X109049614Y-75988857D01*
X109146074Y-76109814D01*
X109213198Y-76193985D01*
X109380805Y-76349500D01*
X109405521Y-76372433D01*
X109622296Y-76520228D01*
X109622301Y-76520230D01*
X109622302Y-76520231D01*
X109622303Y-76520232D01*
X109747843Y-76580688D01*
X109858673Y-76634061D01*
X109858674Y-76634061D01*
X109858677Y-76634063D01*
X109991999Y-76675187D01*
X110050258Y-76713757D01*
X110078416Y-76777702D01*
X110067532Y-76846719D01*
X110043132Y-76881358D01*
X110015212Y-76909278D01*
X110015209Y-76909281D01*
X109987824Y-76936666D01*
X109909279Y-77015210D01*
X109826056Y-77139761D01*
X109826051Y-77139770D01*
X109768725Y-77278169D01*
X109768723Y-77278177D01*
X109739500Y-77425092D01*
X109739500Y-78125500D01*
X109719815Y-78192539D01*
X109667011Y-78238294D01*
X109615500Y-78249500D01*
X109202129Y-78249500D01*
X109202123Y-78249501D01*
X109142516Y-78255908D01*
X109007671Y-78306202D01*
X109007664Y-78306206D01*
X108892455Y-78392452D01*
X108892452Y-78392455D01*
X108806206Y-78507664D01*
X108806202Y-78507671D01*
X108755908Y-78642517D01*
X108749501Y-78702116D01*
X108749500Y-78702135D01*
X108749500Y-81297870D01*
X108749501Y-81297876D01*
X108755908Y-81357483D01*
X108806202Y-81492328D01*
X108806206Y-81492335D01*
X108892452Y-81607544D01*
X108892455Y-81607547D01*
X109007664Y-81693793D01*
X109007671Y-81693797D01*
X109142517Y-81744091D01*
X109142516Y-81744091D01*
X109149444Y-81744835D01*
X109202127Y-81750500D01*
X111355500Y-81750499D01*
X111422539Y-81770184D01*
X111468294Y-81822987D01*
X111479500Y-81874499D01*
X111479500Y-85893628D01*
X111459815Y-85960667D01*
X111443181Y-85981309D01*
X111130899Y-86293591D01*
X111069576Y-86327076D01*
X111006669Y-86324401D01*
X110890627Y-86288607D01*
X110890620Y-86288605D01*
X110890615Y-86288604D01*
X110765823Y-86269794D01*
X110631187Y-86249500D01*
X110631182Y-86249500D01*
X110368818Y-86249500D01*
X110368812Y-86249500D01*
X110207247Y-86273853D01*
X110109385Y-86288604D01*
X110109382Y-86288605D01*
X110109376Y-86288606D01*
X109858673Y-86365938D01*
X109622303Y-86479767D01*
X109622302Y-86479768D01*
X109622296Y-86479771D01*
X109622296Y-86479772D01*
X109603318Y-86492711D01*
X109405520Y-86627567D01*
X109213198Y-86806014D01*
X109049614Y-87011143D01*
X108918432Y-87238356D01*
X108822582Y-87482578D01*
X108822576Y-87482597D01*
X108764197Y-87738374D01*
X108764196Y-87738379D01*
X108744592Y-87999995D01*
X108744592Y-88000004D01*
X108764196Y-88261620D01*
X108764197Y-88261625D01*
X108764197Y-88261629D01*
X108764198Y-88261630D01*
X108766381Y-88271193D01*
X108822576Y-88517402D01*
X108822578Y-88517411D01*
X108822580Y-88517416D01*
X108918432Y-88761643D01*
X109049614Y-88988857D01*
X109166178Y-89135023D01*
X109213198Y-89193985D01*
X109392371Y-89360232D01*
X109405521Y-89372433D01*
X109622296Y-89520228D01*
X109622301Y-89520230D01*
X109622302Y-89520231D01*
X109622303Y-89520232D01*
X109704003Y-89559576D01*
X109858673Y-89634061D01*
X109858674Y-89634061D01*
X109858677Y-89634063D01*
X110109385Y-89711396D01*
X110368818Y-89750500D01*
X110631182Y-89750500D01*
X110890615Y-89711396D01*
X111141323Y-89634063D01*
X111377704Y-89520228D01*
X111594479Y-89372433D01*
X111786805Y-89193981D01*
X111950386Y-88988857D01*
X111968114Y-88958150D01*
X112018679Y-88909937D01*
X112087286Y-88896713D01*
X112152151Y-88922681D01*
X112192680Y-88979595D01*
X112199500Y-89020152D01*
X112199500Y-90173628D01*
X112179815Y-90240667D01*
X112163181Y-90261309D01*
X111211308Y-91213181D01*
X111149985Y-91246666D01*
X111123627Y-91249500D01*
X109202129Y-91249500D01*
X109202123Y-91249501D01*
X109142516Y-91255908D01*
X109007671Y-91306202D01*
X109007664Y-91306206D01*
X108892455Y-91392452D01*
X108892452Y-91392455D01*
X108806206Y-91507664D01*
X108806202Y-91507671D01*
X108755908Y-91642517D01*
X108749501Y-91702116D01*
X108749500Y-91702135D01*
X108749500Y-94297870D01*
X108749501Y-94297876D01*
X108755908Y-94357483D01*
X108806202Y-94492328D01*
X108806206Y-94492335D01*
X108892452Y-94607544D01*
X108892455Y-94607547D01*
X109007664Y-94693793D01*
X109007671Y-94693797D01*
X109142517Y-94744091D01*
X109142516Y-94744091D01*
X109149444Y-94744835D01*
X109202127Y-94750500D01*
X111797872Y-94750499D01*
X111857483Y-94744091D01*
X111992331Y-94693796D01*
X112107546Y-94607546D01*
X112193796Y-94492331D01*
X112244091Y-94357483D01*
X112250500Y-94297873D01*
X112250499Y-92376370D01*
X112270184Y-92309332D01*
X112286813Y-92288694D01*
X113395853Y-91179654D01*
X113457174Y-91146171D01*
X113526866Y-91151155D01*
X113549503Y-91162343D01*
X113638115Y-91218021D01*
X113659825Y-91235334D01*
X119212310Y-96787819D01*
X119245795Y-96849142D01*
X119240811Y-96918834D01*
X119198939Y-96974767D01*
X119133475Y-96999184D01*
X119124629Y-96999500D01*
X106124500Y-96999500D01*
X106057461Y-96979815D01*
X106011706Y-96927011D01*
X106000500Y-96875500D01*
X106000500Y-59124500D01*
X106020185Y-59057461D01*
X106072989Y-59011706D01*
X106124500Y-59000500D01*
X112367637Y-59000500D01*
X112434676Y-59020185D01*
G37*
%TD.AperFunction*%
%TA.AperFunction,Conductor*%
G36*
X154834926Y-84862738D02*
G01*
X154884332Y-84912143D01*
X154899500Y-84971571D01*
X154899500Y-88413330D01*
X154899499Y-88413348D01*
X154899499Y-88579054D01*
X154899498Y-88579054D01*
X154899499Y-88579057D01*
X154940423Y-88731785D01*
X154940424Y-88731787D01*
X154940423Y-88731787D01*
X154954859Y-88756789D01*
X154954860Y-88756790D01*
X155019480Y-88868716D01*
X155131284Y-88980520D01*
X155131285Y-88980521D01*
X155631284Y-89480520D01*
X155631286Y-89480521D01*
X155631290Y-89480524D01*
X155768209Y-89559573D01*
X155768216Y-89559577D01*
X155920943Y-89600501D01*
X155920945Y-89600501D01*
X156086654Y-89600501D01*
X156086670Y-89600500D01*
X161898209Y-89600500D01*
X161965248Y-89620185D01*
X162011003Y-89672989D01*
X162020947Y-89742147D01*
X161991922Y-89805703D01*
X161934758Y-89842991D01*
X161858858Y-89866402D01*
X161858857Y-89866403D01*
X161761714Y-89913184D01*
X161761714Y-89913185D01*
X162500000Y-90651471D01*
X162500001Y-90651471D01*
X163238285Y-89913186D01*
X163238284Y-89913184D01*
X163141142Y-89866404D01*
X163141144Y-89866404D01*
X163065239Y-89842991D01*
X163006980Y-89804421D01*
X162978822Y-89740476D01*
X162989706Y-89671459D01*
X163036175Y-89619282D01*
X163101789Y-89600500D01*
X165909897Y-89600500D01*
X165976936Y-89620185D01*
X166022691Y-89672989D01*
X166032635Y-89742147D01*
X166003610Y-89805703D01*
X165984208Y-89823766D01*
X165892455Y-89892452D01*
X165892452Y-89892455D01*
X165806206Y-90007664D01*
X165806202Y-90007671D01*
X165755908Y-90142517D01*
X165752564Y-90173628D01*
X165749501Y-90202123D01*
X165749500Y-90202135D01*
X165749500Y-91123628D01*
X165729815Y-91190667D01*
X165713181Y-91211309D01*
X164221310Y-92703181D01*
X164159987Y-92736666D01*
X164133629Y-92739500D01*
X164007354Y-92739500D01*
X163940315Y-92719815D01*
X163894560Y-92667011D01*
X163884616Y-92597853D01*
X163910407Y-92538188D01*
X163949969Y-92488577D01*
X164081116Y-92261426D01*
X164176941Y-92017270D01*
X164235306Y-91761550D01*
X164235307Y-91761545D01*
X164254907Y-91500004D01*
X164254907Y-91499995D01*
X164235307Y-91238454D01*
X164235306Y-91238449D01*
X164176944Y-90982745D01*
X164176942Y-90982738D01*
X164089243Y-90759283D01*
X163101044Y-91747481D01*
X163125021Y-91689598D01*
X163150000Y-91564019D01*
X163150000Y-91435981D01*
X163125021Y-91310402D01*
X163076022Y-91192110D01*
X163004888Y-91085649D01*
X162914351Y-90995112D01*
X162807890Y-90923978D01*
X162689598Y-90874979D01*
X162564019Y-90850000D01*
X162435981Y-90850000D01*
X162310402Y-90874979D01*
X162192110Y-90923978D01*
X162085649Y-90995112D01*
X161995112Y-91085649D01*
X161923978Y-91192110D01*
X161874979Y-91310402D01*
X161850000Y-91435981D01*
X161850000Y-91564019D01*
X161874979Y-91689598D01*
X161898956Y-91747484D01*
X160910755Y-90759283D01*
X160910754Y-90759283D01*
X160823058Y-90982729D01*
X160764693Y-91238449D01*
X160764692Y-91238454D01*
X160745093Y-91499995D01*
X160745093Y-91500004D01*
X160764692Y-91761545D01*
X160764693Y-91761550D01*
X160823058Y-92017270D01*
X160918883Y-92261426D01*
X160918882Y-92261426D01*
X161050030Y-92488577D01*
X161089593Y-92538188D01*
X161116002Y-92602874D01*
X161103245Y-92671570D01*
X161055374Y-92722463D01*
X160992646Y-92739500D01*
X131541372Y-92739500D01*
X131474333Y-92719815D01*
X131453691Y-92703181D01*
X130961818Y-92211308D01*
X130412689Y-91662180D01*
X130379205Y-91600858D01*
X130384189Y-91531166D01*
X130426061Y-91475233D01*
X130491525Y-91450816D01*
X130500371Y-91450500D01*
X150063331Y-91450500D01*
X150063347Y-91450501D01*
X150070943Y-91450501D01*
X150229054Y-91450501D01*
X150229057Y-91450501D01*
X150381785Y-91409577D01*
X150441504Y-91375098D01*
X150518716Y-91330520D01*
X150630520Y-91218716D01*
X150630520Y-91218714D01*
X150640724Y-91208511D01*
X150640728Y-91208506D01*
X153858506Y-87990728D01*
X153858511Y-87990724D01*
X153868714Y-87980520D01*
X153868716Y-87980520D01*
X153980520Y-87868716D01*
X154059577Y-87731784D01*
X154094318Y-87602128D01*
X154100500Y-87579058D01*
X154100500Y-87420943D01*
X154100500Y-85134499D01*
X154120185Y-85067460D01*
X154172989Y-85021705D01*
X154224500Y-85010499D01*
X154397871Y-85010499D01*
X154397872Y-85010499D01*
X154457483Y-85004091D01*
X154592331Y-84953796D01*
X154667586Y-84897460D01*
X154701189Y-84872305D01*
X154766653Y-84847887D01*
X154834926Y-84862738D01*
G37*
%TD.AperFunction*%
%TA.AperFunction,Conductor*%
G36*
X162310402Y-92125021D02*
G01*
X162435981Y-92150000D01*
X162564019Y-92150000D01*
X162689598Y-92125021D01*
X162747481Y-92101044D01*
X162587680Y-92260846D01*
X162526357Y-92294331D01*
X162456665Y-92289347D01*
X162412318Y-92260846D01*
X162252515Y-92101043D01*
X162310402Y-92125021D01*
G37*
%TD.AperFunction*%
%TA.AperFunction,Conductor*%
G36*
X158049339Y-87917639D02*
G01*
X158072015Y-87955746D01*
X158097164Y-88023170D01*
X158097166Y-88023173D01*
X158097168Y-88023179D01*
X158130653Y-88084502D01*
X158216877Y-88199683D01*
X158216879Y-88199685D01*
X158218005Y-88201189D01*
X158242422Y-88266653D01*
X158227570Y-88334926D01*
X158178165Y-88384332D01*
X158118738Y-88399500D01*
X157870334Y-88399500D01*
X157803295Y-88379815D01*
X157757540Y-88327011D01*
X157747596Y-88257853D01*
X157757149Y-88224852D01*
X157803738Y-88120737D01*
X157822744Y-88054766D01*
X157833052Y-87981744D01*
X157861914Y-87918118D01*
X157920595Y-87880194D01*
X157990464Y-87880015D01*
X158049339Y-87917639D01*
G37*
%TD.AperFunction*%
%TA.AperFunction,Conductor*%
G36*
X146606942Y-69270185D02*
G01*
X146627584Y-69286819D01*
X147169298Y-69828533D01*
X147202783Y-69889856D01*
X147204837Y-69902330D01*
X147214630Y-69989249D01*
X147274210Y-70159521D01*
X147355387Y-70288713D01*
X147370184Y-70312262D01*
X147497738Y-70439816D01*
X147557685Y-70477483D01*
X147639103Y-70528642D01*
X147650478Y-70535789D01*
X147769044Y-70577277D01*
X147820745Y-70595368D01*
X147820750Y-70595369D01*
X147999996Y-70615565D01*
X148000000Y-70615565D01*
X148000004Y-70615565D01*
X148179249Y-70595369D01*
X148179251Y-70595368D01*
X148179255Y-70595368D01*
X148179258Y-70595366D01*
X148179262Y-70595366D01*
X148234545Y-70576022D01*
X148304324Y-70572460D01*
X148364951Y-70607188D01*
X148397179Y-70669182D01*
X148399500Y-70693063D01*
X148399500Y-71687870D01*
X148399501Y-71687876D01*
X148405908Y-71747481D01*
X148418659Y-71781669D01*
X148423642Y-71851361D01*
X148418659Y-71868331D01*
X148405908Y-71902518D01*
X148399501Y-71962116D01*
X148399501Y-71962123D01*
X148399500Y-71962135D01*
X148399500Y-72957870D01*
X148399501Y-72957876D01*
X148405908Y-73017481D01*
X148418659Y-73051669D01*
X148423642Y-73121361D01*
X148418659Y-73138331D01*
X148405908Y-73172518D01*
X148399501Y-73232116D01*
X148399501Y-73232123D01*
X148399500Y-73232135D01*
X148399500Y-74227870D01*
X148399501Y-74227876D01*
X148405908Y-74287481D01*
X148418659Y-74321669D01*
X148423642Y-74391361D01*
X148418659Y-74408331D01*
X148405908Y-74442518D01*
X148399501Y-74502116D01*
X148399501Y-74502123D01*
X148399500Y-74502135D01*
X148399500Y-75497870D01*
X148399501Y-75497876D01*
X148405908Y-75557481D01*
X148418659Y-75591669D01*
X148423642Y-75661361D01*
X148418659Y-75678331D01*
X148405908Y-75712518D01*
X148402723Y-75742147D01*
X148399501Y-75772123D01*
X148399500Y-75772135D01*
X148399500Y-76767870D01*
X148399501Y-76767876D01*
X148405908Y-76827481D01*
X148418659Y-76861669D01*
X148423642Y-76931361D01*
X148418659Y-76948331D01*
X148405908Y-76982518D01*
X148399501Y-77042116D01*
X148399501Y-77042123D01*
X148399500Y-77042135D01*
X148399500Y-78037870D01*
X148399501Y-78037876D01*
X148405908Y-78097481D01*
X148418659Y-78131669D01*
X148423642Y-78201361D01*
X148418659Y-78218331D01*
X148405908Y-78252518D01*
X148399523Y-78311910D01*
X148399501Y-78312123D01*
X148399500Y-78312135D01*
X148399500Y-79307870D01*
X148399501Y-79307876D01*
X148405908Y-79367481D01*
X148418659Y-79401669D01*
X148423642Y-79471361D01*
X148418659Y-79488331D01*
X148405908Y-79522518D01*
X148399501Y-79582116D01*
X148399501Y-79582123D01*
X148399500Y-79582135D01*
X148399500Y-80577870D01*
X148399501Y-80577876D01*
X148405908Y-80637481D01*
X148418659Y-80671669D01*
X148423642Y-80741361D01*
X148418659Y-80758331D01*
X148405908Y-80792518D01*
X148401170Y-80836593D01*
X148399501Y-80852123D01*
X148399500Y-80852135D01*
X148399500Y-81847870D01*
X148399501Y-81847876D01*
X148405908Y-81907481D01*
X148418659Y-81941669D01*
X148423642Y-82011361D01*
X148418659Y-82028331D01*
X148405908Y-82062518D01*
X148400446Y-82113326D01*
X148399501Y-82122123D01*
X148399500Y-82122135D01*
X148399500Y-83117870D01*
X148399501Y-83117876D01*
X148405908Y-83177481D01*
X148418659Y-83211669D01*
X148423642Y-83281361D01*
X148418659Y-83298331D01*
X148405908Y-83332518D01*
X148401522Y-83373321D01*
X148399501Y-83392123D01*
X148399500Y-83392135D01*
X148399500Y-84387870D01*
X148399501Y-84387876D01*
X148405908Y-84447483D01*
X148456202Y-84582328D01*
X148456206Y-84582335D01*
X148542452Y-84697544D01*
X148542455Y-84697547D01*
X148657664Y-84783793D01*
X148657671Y-84783797D01*
X148792517Y-84834091D01*
X148792516Y-84834091D01*
X148799444Y-84834835D01*
X148852127Y-84840500D01*
X149699900Y-84840499D01*
X149766939Y-84860183D01*
X149787581Y-84876817D01*
X149863181Y-84952416D01*
X149896666Y-85013739D01*
X149899500Y-85040098D01*
X149899500Y-85979902D01*
X149879815Y-86046941D01*
X149863181Y-86067583D01*
X148763530Y-87167233D01*
X148702207Y-87200718D01*
X148643756Y-87199327D01*
X148515413Y-87164938D01*
X148515403Y-87164936D01*
X148280001Y-87144341D01*
X148279999Y-87144341D01*
X148044596Y-87164936D01*
X148044586Y-87164938D01*
X147816344Y-87226094D01*
X147816335Y-87226098D01*
X147602171Y-87325964D01*
X147602169Y-87325965D01*
X147410623Y-87460087D01*
X147344417Y-87482414D01*
X147276650Y-87465404D01*
X147228837Y-87414456D01*
X147215500Y-87358512D01*
X147215500Y-86454141D01*
X147235185Y-86387102D01*
X147287989Y-86341347D01*
X147296149Y-86337966D01*
X147307331Y-86333796D01*
X147316406Y-86327003D01*
X147361038Y-86293591D01*
X147422546Y-86247546D01*
X147508796Y-86132331D01*
X147559091Y-85997483D01*
X147565500Y-85937873D01*
X147565499Y-84342128D01*
X147559091Y-84282517D01*
X147552482Y-84264798D01*
X147508797Y-84147671D01*
X147508793Y-84147664D01*
X147422547Y-84032455D01*
X147422544Y-84032452D01*
X147307335Y-83946206D01*
X147307328Y-83946202D01*
X147172482Y-83895908D01*
X147172483Y-83895908D01*
X147112883Y-83889501D01*
X147112881Y-83889500D01*
X147112873Y-83889500D01*
X147112864Y-83889500D01*
X146117129Y-83889500D01*
X146117123Y-83889501D01*
X146057518Y-83895908D01*
X146023331Y-83908659D01*
X145953639Y-83913642D01*
X145936669Y-83908659D01*
X145919140Y-83902121D01*
X145902483Y-83895909D01*
X145902482Y-83895908D01*
X145842883Y-83889501D01*
X145842881Y-83889500D01*
X145842873Y-83889500D01*
X145842864Y-83889500D01*
X144847129Y-83889500D01*
X144847123Y-83889501D01*
X144787518Y-83895908D01*
X144753331Y-83908659D01*
X144683639Y-83913642D01*
X144666669Y-83908659D01*
X144649140Y-83902121D01*
X144632483Y-83895909D01*
X144632482Y-83895908D01*
X144572883Y-83889501D01*
X144572881Y-83889500D01*
X144572873Y-83889500D01*
X144572864Y-83889500D01*
X143577129Y-83889500D01*
X143577123Y-83889501D01*
X143517518Y-83895908D01*
X143483331Y-83908659D01*
X143413639Y-83913642D01*
X143396669Y-83908659D01*
X143379140Y-83902121D01*
X143362483Y-83895909D01*
X143362482Y-83895908D01*
X143302883Y-83889501D01*
X143302881Y-83889500D01*
X143302873Y-83889500D01*
X143302864Y-83889500D01*
X142307129Y-83889500D01*
X142307123Y-83889501D01*
X142247518Y-83895908D01*
X142213331Y-83908659D01*
X142143639Y-83913642D01*
X142126669Y-83908659D01*
X142109140Y-83902121D01*
X142092483Y-83895909D01*
X142092482Y-83895908D01*
X142032883Y-83889501D01*
X142032881Y-83889500D01*
X142032873Y-83889500D01*
X142032864Y-83889500D01*
X141037129Y-83889500D01*
X141037123Y-83889501D01*
X140977518Y-83895908D01*
X140943331Y-83908659D01*
X140873639Y-83913642D01*
X140856669Y-83908659D01*
X140839140Y-83902121D01*
X140822483Y-83895909D01*
X140822482Y-83895908D01*
X140762883Y-83889501D01*
X140762881Y-83889500D01*
X140762873Y-83889500D01*
X140762864Y-83889500D01*
X139767129Y-83889500D01*
X139767123Y-83889501D01*
X139707518Y-83895908D01*
X139673331Y-83908659D01*
X139603639Y-83913642D01*
X139586669Y-83908659D01*
X139569140Y-83902121D01*
X139552483Y-83895909D01*
X139552482Y-83895908D01*
X139492883Y-83889501D01*
X139492881Y-83889500D01*
X139492873Y-83889500D01*
X139492864Y-83889500D01*
X138497129Y-83889500D01*
X138497123Y-83889501D01*
X138437518Y-83895908D01*
X138403331Y-83908659D01*
X138333639Y-83913642D01*
X138316669Y-83908659D01*
X138299140Y-83902121D01*
X138282483Y-83895909D01*
X138282482Y-83895908D01*
X138222883Y-83889501D01*
X138222881Y-83889500D01*
X138222873Y-83889500D01*
X138222864Y-83889500D01*
X137227129Y-83889500D01*
X137227123Y-83889501D01*
X137167518Y-83895908D01*
X137133331Y-83908659D01*
X137063639Y-83913642D01*
X137046669Y-83908659D01*
X137029140Y-83902121D01*
X137012483Y-83895909D01*
X137012482Y-83895908D01*
X136952883Y-83889501D01*
X136952881Y-83889500D01*
X136952873Y-83889500D01*
X136952864Y-83889500D01*
X135957129Y-83889500D01*
X135957123Y-83889501D01*
X135897520Y-83895908D01*
X135897517Y-83895908D01*
X135897517Y-83895909D01*
X135862620Y-83908925D01*
X135862617Y-83908926D01*
X135792925Y-83913909D01*
X135775952Y-83908925D01*
X135742379Y-83896403D01*
X135742372Y-83896401D01*
X135682844Y-83890000D01*
X135635000Y-83890000D01*
X135635000Y-84007818D01*
X135615315Y-84074857D01*
X135610267Y-84082129D01*
X135561204Y-84147668D01*
X135561202Y-84147671D01*
X135510908Y-84282517D01*
X135506376Y-84324677D01*
X135504500Y-84342127D01*
X135504500Y-85134499D01*
X135504501Y-85466000D01*
X135484816Y-85533039D01*
X135432013Y-85578794D01*
X135380501Y-85590000D01*
X134235000Y-85590000D01*
X134235000Y-85937844D01*
X134241401Y-85997372D01*
X134241403Y-85997379D01*
X134291645Y-86132086D01*
X134291649Y-86132093D01*
X134305945Y-86151190D01*
X134330362Y-86216654D01*
X134315510Y-86284927D01*
X134266105Y-86334332D01*
X134206678Y-86349500D01*
X132921469Y-86349500D01*
X132854430Y-86329815D01*
X132833788Y-86313181D01*
X131636819Y-85116212D01*
X131603334Y-85054889D01*
X131600500Y-85028531D01*
X131600500Y-84964499D01*
X131620185Y-84897460D01*
X131672989Y-84851705D01*
X131724500Y-84840499D01*
X132947871Y-84840499D01*
X132947872Y-84840499D01*
X133007483Y-84834091D01*
X133142331Y-84783796D01*
X133257546Y-84697546D01*
X133263195Y-84690000D01*
X134235000Y-84690000D01*
X134735000Y-84690000D01*
X134735000Y-83890000D01*
X134687155Y-83890000D01*
X134627627Y-83896401D01*
X134627620Y-83896403D01*
X134492913Y-83946645D01*
X134492906Y-83946649D01*
X134377812Y-84032809D01*
X134377809Y-84032812D01*
X134291649Y-84147906D01*
X134291645Y-84147913D01*
X134241403Y-84282620D01*
X134241401Y-84282627D01*
X134235000Y-84342155D01*
X134235000Y-84690000D01*
X133263195Y-84690000D01*
X133343796Y-84582331D01*
X133394091Y-84447483D01*
X133400500Y-84387873D01*
X133400499Y-83392128D01*
X133394091Y-83332517D01*
X133381340Y-83298332D01*
X133376357Y-83228642D01*
X133381340Y-83211669D01*
X133394091Y-83177483D01*
X133400500Y-83117873D01*
X133400499Y-82122128D01*
X133394091Y-82062517D01*
X133381340Y-82028332D01*
X133376357Y-81958642D01*
X133381340Y-81941669D01*
X133394091Y-81907483D01*
X133400500Y-81847873D01*
X133400499Y-80852128D01*
X133394091Y-80792517D01*
X133381340Y-80758332D01*
X133376357Y-80688642D01*
X133381340Y-80671669D01*
X133394091Y-80637483D01*
X133400500Y-80577873D01*
X133400499Y-79582128D01*
X133394091Y-79522517D01*
X133381340Y-79488332D01*
X133376357Y-79418642D01*
X133381340Y-79401669D01*
X133394091Y-79367483D01*
X133400500Y-79307873D01*
X133400499Y-78312128D01*
X133394091Y-78252517D01*
X133381340Y-78218332D01*
X133376357Y-78148642D01*
X133381340Y-78131669D01*
X133394091Y-78097483D01*
X133400500Y-78037873D01*
X133400499Y-77042128D01*
X133394091Y-76982517D01*
X133381962Y-76950000D01*
X137050000Y-76950000D01*
X137050000Y-76997844D01*
X137056401Y-77057372D01*
X137056403Y-77057379D01*
X137106645Y-77192086D01*
X137106649Y-77192093D01*
X137192809Y-77307187D01*
X137192812Y-77307190D01*
X137307906Y-77393350D01*
X137307913Y-77393354D01*
X137442620Y-77443596D01*
X137442627Y-77443598D01*
X137502155Y-77449999D01*
X137502172Y-77450000D01*
X137550000Y-77450000D01*
X137550000Y-76950000D01*
X138450000Y-76950000D01*
X138450000Y-77450000D01*
X138497828Y-77450000D01*
X138497844Y-77449999D01*
X138557372Y-77443598D01*
X138557376Y-77443597D01*
X138656666Y-77406564D01*
X138726358Y-77401580D01*
X138743334Y-77406564D01*
X138842623Y-77443597D01*
X138842627Y-77443598D01*
X138902155Y-77449999D01*
X138902172Y-77450000D01*
X138950000Y-77450000D01*
X138950000Y-76950000D01*
X139850000Y-76950000D01*
X139850000Y-77450000D01*
X139897828Y-77450000D01*
X139897844Y-77449999D01*
X139957372Y-77443598D01*
X139957376Y-77443597D01*
X140056666Y-77406564D01*
X140126358Y-77401580D01*
X140143334Y-77406564D01*
X140242623Y-77443597D01*
X140242627Y-77443598D01*
X140302155Y-77449999D01*
X140302172Y-77450000D01*
X140350000Y-77450000D01*
X140350000Y-76950000D01*
X141250000Y-76950000D01*
X141250000Y-77450000D01*
X141297828Y-77450000D01*
X141297844Y-77449999D01*
X141357372Y-77443598D01*
X141357379Y-77443596D01*
X141492086Y-77393354D01*
X141492093Y-77393350D01*
X141607187Y-77307190D01*
X141607190Y-77307187D01*
X141693350Y-77192093D01*
X141693354Y-77192086D01*
X141743596Y-77057379D01*
X141743598Y-77057372D01*
X141749999Y-76997844D01*
X141750000Y-76997827D01*
X141750000Y-76950000D01*
X141250000Y-76950000D01*
X140350000Y-76950000D01*
X139850000Y-76950000D01*
X138950000Y-76950000D01*
X138450000Y-76950000D01*
X137550000Y-76950000D01*
X137050000Y-76950000D01*
X133381962Y-76950000D01*
X133381340Y-76948332D01*
X133376357Y-76878642D01*
X133381340Y-76861669D01*
X133394091Y-76827483D01*
X133400500Y-76767873D01*
X133400500Y-76519891D01*
X138600000Y-76519891D01*
X138615224Y-76556645D01*
X138643355Y-76584776D01*
X138680109Y-76600000D01*
X138719891Y-76600000D01*
X138756645Y-76584776D01*
X138784776Y-76556645D01*
X138800000Y-76519891D01*
X140000000Y-76519891D01*
X140015224Y-76556645D01*
X140043355Y-76584776D01*
X140080109Y-76600000D01*
X140119891Y-76600000D01*
X140156645Y-76584776D01*
X140184776Y-76556645D01*
X140200000Y-76519891D01*
X140200000Y-76480109D01*
X140184776Y-76443355D01*
X140156645Y-76415224D01*
X140119891Y-76400000D01*
X140080109Y-76400000D01*
X140043355Y-76415224D01*
X140015224Y-76443355D01*
X140000000Y-76480109D01*
X140000000Y-76519891D01*
X138800000Y-76519891D01*
X138800000Y-76480109D01*
X138784776Y-76443355D01*
X138756645Y-76415224D01*
X138719891Y-76400000D01*
X138680109Y-76400000D01*
X138643355Y-76415224D01*
X138615224Y-76443355D01*
X138600000Y-76480109D01*
X138600000Y-76519891D01*
X133400500Y-76519891D01*
X133400499Y-75772128D01*
X133394091Y-75712517D01*
X133381340Y-75678332D01*
X133376357Y-75608642D01*
X133381340Y-75591669D01*
X133394091Y-75557483D01*
X133394896Y-75550000D01*
X137050000Y-75550000D01*
X137050000Y-75597844D01*
X137056401Y-75657372D01*
X137056403Y-75657383D01*
X137093434Y-75756668D01*
X137098418Y-75826360D01*
X137093434Y-75843332D01*
X137056403Y-75942616D01*
X137056401Y-75942627D01*
X137050000Y-76002155D01*
X137050000Y-76050000D01*
X137550000Y-76050000D01*
X137550000Y-75819891D01*
X137900000Y-75819891D01*
X137915224Y-75856645D01*
X137943355Y-75884776D01*
X137980109Y-75900000D01*
X138019891Y-75900000D01*
X138056645Y-75884776D01*
X138084776Y-75856645D01*
X138097579Y-75825736D01*
X138450000Y-75825736D01*
X138674264Y-76050000D01*
X138725736Y-76050000D01*
X138725736Y-76049999D01*
X138950000Y-75825735D01*
X138950000Y-75819891D01*
X139300000Y-75819891D01*
X139315224Y-75856645D01*
X139343355Y-75884776D01*
X139380109Y-75900000D01*
X139419891Y-75900000D01*
X139456645Y-75884776D01*
X139484776Y-75856645D01*
X139497579Y-75825736D01*
X139850000Y-75825736D01*
X140074264Y-76050000D01*
X140125736Y-76050000D01*
X140125736Y-76049999D01*
X140350000Y-75825735D01*
X140350000Y-75819891D01*
X140700000Y-75819891D01*
X140715224Y-75856645D01*
X140743355Y-75884776D01*
X140780109Y-75900000D01*
X140819891Y-75900000D01*
X140856645Y-75884776D01*
X140884776Y-75856645D01*
X140900000Y-75819891D01*
X140900000Y-75780109D01*
X140884776Y-75743355D01*
X140856645Y-75715224D01*
X140819891Y-75700000D01*
X140780109Y-75700000D01*
X140743355Y-75715224D01*
X140715224Y-75743355D01*
X140700000Y-75780109D01*
X140700000Y-75819891D01*
X140350000Y-75819891D01*
X140350000Y-75774264D01*
X140125736Y-75550000D01*
X141250000Y-75550000D01*
X141250000Y-76050000D01*
X141750000Y-76050000D01*
X141750000Y-76002172D01*
X141749999Y-76002155D01*
X141743598Y-75942627D01*
X141743597Y-75942623D01*
X141706564Y-75843334D01*
X141701580Y-75773642D01*
X141706564Y-75756666D01*
X141743597Y-75657376D01*
X141743598Y-75657372D01*
X141749999Y-75597844D01*
X141750000Y-75597827D01*
X141750000Y-75550000D01*
X141250000Y-75550000D01*
X140125736Y-75550000D01*
X140074263Y-75550000D01*
X139850000Y-75774263D01*
X139850000Y-75825736D01*
X139497579Y-75825736D01*
X139500000Y-75819891D01*
X139500000Y-75780109D01*
X139484776Y-75743355D01*
X139456645Y-75715224D01*
X139419891Y-75700000D01*
X139380109Y-75700000D01*
X139343355Y-75715224D01*
X139315224Y-75743355D01*
X139300000Y-75780109D01*
X139300000Y-75819891D01*
X138950000Y-75819891D01*
X138950000Y-75774264D01*
X138725736Y-75550000D01*
X138674263Y-75550000D01*
X138450000Y-75774263D01*
X138450000Y-75825736D01*
X138097579Y-75825736D01*
X138100000Y-75819891D01*
X138100000Y-75780109D01*
X138084776Y-75743355D01*
X138056645Y-75715224D01*
X138019891Y-75700000D01*
X137980109Y-75700000D01*
X137943355Y-75715224D01*
X137915224Y-75743355D01*
X137900000Y-75780109D01*
X137900000Y-75819891D01*
X137550000Y-75819891D01*
X137550000Y-75550000D01*
X137050000Y-75550000D01*
X133394896Y-75550000D01*
X133400500Y-75497873D01*
X133400500Y-75119891D01*
X138600000Y-75119891D01*
X138615224Y-75156645D01*
X138643355Y-75184776D01*
X138680109Y-75200000D01*
X138719891Y-75200000D01*
X138756645Y-75184776D01*
X138784776Y-75156645D01*
X138800000Y-75119891D01*
X140000000Y-75119891D01*
X140015224Y-75156645D01*
X140043355Y-75184776D01*
X140080109Y-75200000D01*
X140119891Y-75200000D01*
X140156645Y-75184776D01*
X140184776Y-75156645D01*
X140200000Y-75119891D01*
X140200000Y-75080109D01*
X140184776Y-75043355D01*
X140156645Y-75015224D01*
X140119891Y-75000000D01*
X140080109Y-75000000D01*
X140043355Y-75015224D01*
X140015224Y-75043355D01*
X140000000Y-75080109D01*
X140000000Y-75119891D01*
X138800000Y-75119891D01*
X138800000Y-75080109D01*
X138784776Y-75043355D01*
X138756645Y-75015224D01*
X138719891Y-75000000D01*
X138680109Y-75000000D01*
X138643355Y-75015224D01*
X138615224Y-75043355D01*
X138600000Y-75080109D01*
X138600000Y-75119891D01*
X133400500Y-75119891D01*
X133400499Y-74502128D01*
X133394091Y-74442517D01*
X133381340Y-74408332D01*
X133376357Y-74338642D01*
X133381340Y-74321669D01*
X133394091Y-74287483D01*
X133400500Y-74227873D01*
X133400500Y-74150000D01*
X137050000Y-74150000D01*
X137050000Y-74197844D01*
X137056401Y-74257372D01*
X137056403Y-74257383D01*
X137093434Y-74356668D01*
X137098418Y-74426360D01*
X137093434Y-74443332D01*
X137056403Y-74542616D01*
X137056401Y-74542627D01*
X137050000Y-74602155D01*
X137050000Y-74650000D01*
X137550000Y-74650000D01*
X137550000Y-74419891D01*
X137900000Y-74419891D01*
X137915224Y-74456645D01*
X137943355Y-74484776D01*
X137980109Y-74500000D01*
X138019891Y-74500000D01*
X138056645Y-74484776D01*
X138084776Y-74456645D01*
X138097579Y-74425736D01*
X138450000Y-74425736D01*
X138674264Y-74650000D01*
X138725736Y-74650000D01*
X138725736Y-74649999D01*
X138950000Y-74425735D01*
X138950000Y-74419891D01*
X139300000Y-74419891D01*
X139315224Y-74456645D01*
X139343355Y-74484776D01*
X139380109Y-74500000D01*
X139419891Y-74500000D01*
X139456645Y-74484776D01*
X139484776Y-74456645D01*
X139497579Y-74425736D01*
X139850000Y-74425736D01*
X140074264Y-74650000D01*
X140125736Y-74650000D01*
X140125736Y-74649999D01*
X140350000Y-74425735D01*
X140350000Y-74419891D01*
X140700000Y-74419891D01*
X140715224Y-74456645D01*
X140743355Y-74484776D01*
X140780109Y-74500000D01*
X140819891Y-74500000D01*
X140856645Y-74484776D01*
X140884776Y-74456645D01*
X140900000Y-74419891D01*
X140900000Y-74380109D01*
X140884776Y-74343355D01*
X140856645Y-74315224D01*
X140819891Y-74300000D01*
X140780109Y-74300000D01*
X140743355Y-74315224D01*
X140715224Y-74343355D01*
X140700000Y-74380109D01*
X140700000Y-74419891D01*
X140350000Y-74419891D01*
X140350000Y-74374264D01*
X140125736Y-74150000D01*
X141250000Y-74150000D01*
X141250000Y-74650000D01*
X141750000Y-74650000D01*
X141750000Y-74602172D01*
X141749999Y-74602155D01*
X141743598Y-74542627D01*
X141743597Y-74542623D01*
X141706564Y-74443334D01*
X141701580Y-74373642D01*
X141706564Y-74356666D01*
X141743597Y-74257376D01*
X141743598Y-74257372D01*
X141749999Y-74197844D01*
X141750000Y-74197827D01*
X141750000Y-74150000D01*
X141250000Y-74150000D01*
X140125736Y-74150000D01*
X140074263Y-74150000D01*
X139850000Y-74374263D01*
X139850000Y-74425736D01*
X139497579Y-74425736D01*
X139500000Y-74419891D01*
X139500000Y-74380109D01*
X139484776Y-74343355D01*
X139456645Y-74315224D01*
X139419891Y-74300000D01*
X139380109Y-74300000D01*
X139343355Y-74315224D01*
X139315224Y-74343355D01*
X139300000Y-74380109D01*
X139300000Y-74419891D01*
X138950000Y-74419891D01*
X138950000Y-74374264D01*
X138725736Y-74150000D01*
X138674263Y-74150000D01*
X138450000Y-74374263D01*
X138450000Y-74425736D01*
X138097579Y-74425736D01*
X138100000Y-74419891D01*
X138100000Y-74380109D01*
X138084776Y-74343355D01*
X138056645Y-74315224D01*
X138019891Y-74300000D01*
X137980109Y-74300000D01*
X137943355Y-74315224D01*
X137915224Y-74343355D01*
X137900000Y-74380109D01*
X137900000Y-74419891D01*
X137550000Y-74419891D01*
X137550000Y-74150000D01*
X137050000Y-74150000D01*
X133400500Y-74150000D01*
X133400500Y-73719891D01*
X138600000Y-73719891D01*
X138615224Y-73756645D01*
X138643355Y-73784776D01*
X138680109Y-73800000D01*
X138719891Y-73800000D01*
X138756645Y-73784776D01*
X138784776Y-73756645D01*
X138800000Y-73719891D01*
X140000000Y-73719891D01*
X140015224Y-73756645D01*
X140043355Y-73784776D01*
X140080109Y-73800000D01*
X140119891Y-73800000D01*
X140156645Y-73784776D01*
X140184776Y-73756645D01*
X140200000Y-73719891D01*
X140200000Y-73680109D01*
X140184776Y-73643355D01*
X140156645Y-73615224D01*
X140119891Y-73600000D01*
X140080109Y-73600000D01*
X140043355Y-73615224D01*
X140015224Y-73643355D01*
X140000000Y-73680109D01*
X140000000Y-73719891D01*
X138800000Y-73719891D01*
X138800000Y-73680109D01*
X138784776Y-73643355D01*
X138756645Y-73615224D01*
X138719891Y-73600000D01*
X138680109Y-73600000D01*
X138643355Y-73615224D01*
X138615224Y-73643355D01*
X138600000Y-73680109D01*
X138600000Y-73719891D01*
X133400500Y-73719891D01*
X133400499Y-73250000D01*
X137050000Y-73250000D01*
X137550000Y-73250000D01*
X137550000Y-72750000D01*
X138450000Y-72750000D01*
X138450000Y-73250000D01*
X138950000Y-73250000D01*
X138950000Y-72750000D01*
X139850000Y-72750000D01*
X139850000Y-73250000D01*
X140350000Y-73250000D01*
X140350000Y-72750000D01*
X141250000Y-72750000D01*
X141250000Y-73250000D01*
X141750000Y-73250000D01*
X141750000Y-73202172D01*
X141749999Y-73202155D01*
X141743598Y-73142627D01*
X141743596Y-73142620D01*
X141693354Y-73007913D01*
X141693350Y-73007906D01*
X141607190Y-72892812D01*
X141607187Y-72892809D01*
X141492093Y-72806649D01*
X141492086Y-72806645D01*
X141357379Y-72756403D01*
X141357372Y-72756401D01*
X141297844Y-72750000D01*
X141250000Y-72750000D01*
X140350000Y-72750000D01*
X140302155Y-72750000D01*
X140242627Y-72756401D01*
X140242616Y-72756403D01*
X140143332Y-72793434D01*
X140073640Y-72798418D01*
X140056668Y-72793434D01*
X139957383Y-72756403D01*
X139957372Y-72756401D01*
X139897844Y-72750000D01*
X139850000Y-72750000D01*
X138950000Y-72750000D01*
X138902155Y-72750000D01*
X138842627Y-72756401D01*
X138842616Y-72756403D01*
X138743332Y-72793434D01*
X138673640Y-72798418D01*
X138656668Y-72793434D01*
X138557383Y-72756403D01*
X138557372Y-72756401D01*
X138497844Y-72750000D01*
X138450000Y-72750000D01*
X137550000Y-72750000D01*
X137502155Y-72750000D01*
X137442627Y-72756401D01*
X137442620Y-72756403D01*
X137307913Y-72806645D01*
X137307906Y-72806649D01*
X137192812Y-72892809D01*
X137192809Y-72892812D01*
X137106649Y-73007906D01*
X137106645Y-73007913D01*
X137056403Y-73142620D01*
X137056401Y-73142627D01*
X137050000Y-73202155D01*
X137050000Y-73250000D01*
X133400499Y-73250000D01*
X133400499Y-73232128D01*
X133394091Y-73172517D01*
X133381340Y-73138332D01*
X133376357Y-73068642D01*
X133381340Y-73051669D01*
X133394091Y-73017483D01*
X133400500Y-72957873D01*
X133400499Y-71962128D01*
X133394091Y-71902517D01*
X133381340Y-71868332D01*
X133376357Y-71798642D01*
X133381340Y-71781669D01*
X133394091Y-71747483D01*
X133400500Y-71687873D01*
X133400499Y-70692128D01*
X133394091Y-70632517D01*
X133381340Y-70598332D01*
X133376357Y-70528642D01*
X133381338Y-70511672D01*
X133394091Y-70477483D01*
X133400500Y-70417873D01*
X133400499Y-69422128D01*
X133396804Y-69387753D01*
X133409211Y-69318994D01*
X133456822Y-69267857D01*
X133520094Y-69250500D01*
X146539903Y-69250500D01*
X146606942Y-69270185D01*
G37*
%TD.AperFunction*%
%TA.AperFunction,Conductor*%
G36*
X166543834Y-82014582D02*
G01*
X166599767Y-82056454D01*
X166624184Y-82121918D01*
X166624500Y-82130764D01*
X166624500Y-82850000D01*
X166624501Y-82850011D01*
X166625581Y-82860583D01*
X166612808Y-82929275D01*
X166589903Y-82960860D01*
X166456284Y-83094481D01*
X166131286Y-83419478D01*
X166019481Y-83531282D01*
X166019477Y-83531287D01*
X165974405Y-83609356D01*
X165973489Y-83610943D01*
X165940423Y-83668215D01*
X165899499Y-83820943D01*
X165899499Y-83820945D01*
X165899499Y-83989046D01*
X165899500Y-83989059D01*
X165899500Y-85680192D01*
X165879815Y-85747231D01*
X165827011Y-85792986D01*
X165757853Y-85802930D01*
X165694297Y-85773905D01*
X165687819Y-85767873D01*
X165427061Y-85507115D01*
X165393576Y-85445792D01*
X165398560Y-85376100D01*
X165421025Y-85338237D01*
X165514687Y-85230148D01*
X165574458Y-85099271D01*
X165594143Y-85032232D01*
X165594144Y-85032228D01*
X165614620Y-84889812D01*
X165614619Y-82892644D01*
X165634304Y-82825606D01*
X165650933Y-82804969D01*
X166412821Y-82043081D01*
X166474142Y-82009598D01*
X166543834Y-82014582D01*
G37*
%TD.AperFunction*%
%TA.AperFunction,Conductor*%
G36*
X169628306Y-78120185D02*
G01*
X169674061Y-78172989D01*
X169678972Y-78185494D01*
X169690184Y-78219328D01*
X169690187Y-78219336D01*
X169725069Y-78275888D01*
X169782288Y-78368656D01*
X169906344Y-78492712D01*
X170055666Y-78584814D01*
X170222203Y-78639999D01*
X170324991Y-78650500D01*
X171675008Y-78650499D01*
X171777797Y-78639999D01*
X171944334Y-78584814D01*
X172093656Y-78492712D01*
X172217712Y-78368656D01*
X172269961Y-78283945D01*
X172321909Y-78237221D01*
X172390871Y-78225998D01*
X172454953Y-78253841D01*
X172493810Y-78311910D01*
X172499500Y-78349042D01*
X172499500Y-81551910D01*
X172479815Y-81618949D01*
X172427011Y-81664704D01*
X172357853Y-81674648D01*
X172294297Y-81645623D01*
X172269961Y-81617007D01*
X172217315Y-81531655D01*
X172093344Y-81407684D01*
X171944123Y-81315643D01*
X171944118Y-81315641D01*
X171777696Y-81260494D01*
X171777689Y-81260493D01*
X171674985Y-81250000D01*
X171600000Y-81250000D01*
X171600000Y-83675000D01*
X171674973Y-83675000D01*
X171674985Y-83674999D01*
X171777689Y-83664506D01*
X171777696Y-83664505D01*
X171944118Y-83609358D01*
X171944123Y-83609356D01*
X172093344Y-83517315D01*
X172217317Y-83393342D01*
X172269961Y-83307993D01*
X172321909Y-83261268D01*
X172390871Y-83250045D01*
X172454954Y-83277889D01*
X172493810Y-83335957D01*
X172499500Y-83373089D01*
X172499500Y-84525958D01*
X172479815Y-84592997D01*
X172427011Y-84638752D01*
X172357853Y-84648696D01*
X172294297Y-84619671D01*
X172269962Y-84591056D01*
X172217711Y-84506345D01*
X172093655Y-84382289D01*
X172093651Y-84382286D01*
X171944337Y-84290187D01*
X171944335Y-84290186D01*
X171810039Y-84245685D01*
X171777797Y-84235001D01*
X171777795Y-84235000D01*
X171675015Y-84224500D01*
X171675008Y-84224500D01*
X170324992Y-84224500D01*
X170324984Y-84224500D01*
X170222204Y-84235000D01*
X170222203Y-84235001D01*
X170055664Y-84290186D01*
X170055662Y-84290187D01*
X169906348Y-84382286D01*
X169906344Y-84382289D01*
X169782289Y-84506344D01*
X169782286Y-84506348D01*
X169690187Y-84655662D01*
X169690186Y-84655664D01*
X169658263Y-84752004D01*
X169618491Y-84809449D01*
X169553975Y-84836272D01*
X169540557Y-84837000D01*
X169413768Y-84837000D01*
X169346729Y-84817315D01*
X169308229Y-84778097D01*
X169304379Y-84771855D01*
X169217712Y-84631344D01*
X169093656Y-84507288D01*
X168944334Y-84415186D01*
X168777797Y-84360001D01*
X168777795Y-84360000D01*
X168675010Y-84349500D01*
X167324998Y-84349500D01*
X167324980Y-84349501D01*
X167237101Y-84358479D01*
X167168408Y-84345709D01*
X167117524Y-84297828D01*
X167100500Y-84235121D01*
X167100500Y-84200097D01*
X167120185Y-84133058D01*
X167136819Y-84112416D01*
X167305519Y-83943716D01*
X167479500Y-83769735D01*
X167662416Y-83586817D01*
X167723739Y-83553333D01*
X167750097Y-83550499D01*
X168675002Y-83550499D01*
X168675008Y-83550499D01*
X168777797Y-83539999D01*
X168944334Y-83484814D01*
X169093656Y-83392712D01*
X169217712Y-83268656D01*
X169309814Y-83119334D01*
X169328647Y-83062500D01*
X169633942Y-83062500D01*
X169635494Y-83077696D01*
X169690641Y-83244118D01*
X169690643Y-83244123D01*
X169782684Y-83393344D01*
X169906655Y-83517315D01*
X170055876Y-83609356D01*
X170055881Y-83609358D01*
X170222303Y-83664505D01*
X170222310Y-83664506D01*
X170325014Y-83674999D01*
X170325027Y-83675000D01*
X170400000Y-83675000D01*
X170400000Y-83062500D01*
X169633942Y-83062500D01*
X169328647Y-83062500D01*
X169364999Y-82952797D01*
X169375500Y-82850009D01*
X169375499Y-81949992D01*
X169375442Y-81949438D01*
X169366562Y-81862500D01*
X169633942Y-81862500D01*
X170400000Y-81862500D01*
X170400000Y-81250000D01*
X170325014Y-81250000D01*
X170222310Y-81260493D01*
X170222303Y-81260494D01*
X170055881Y-81315641D01*
X170055876Y-81315643D01*
X169906655Y-81407684D01*
X169782684Y-81531655D01*
X169690643Y-81680876D01*
X169690641Y-81680881D01*
X169635494Y-81847303D01*
X169633942Y-81862499D01*
X169633942Y-81862500D01*
X169366562Y-81862500D01*
X169364999Y-81847203D01*
X169364998Y-81847200D01*
X169309814Y-81680666D01*
X169217712Y-81531344D01*
X169093656Y-81407288D01*
X168978859Y-81336481D01*
X168944336Y-81315187D01*
X168944331Y-81315185D01*
X168933141Y-81311477D01*
X168777797Y-81260001D01*
X168777795Y-81260000D01*
X168675010Y-81249500D01*
X167324998Y-81249500D01*
X167324981Y-81249501D01*
X167222203Y-81260000D01*
X167222200Y-81260001D01*
X167168504Y-81277795D01*
X167098676Y-81280197D01*
X167038634Y-81244465D01*
X167007441Y-81181945D01*
X167005500Y-81160089D01*
X167005500Y-78739910D01*
X167025185Y-78672871D01*
X167077989Y-78627116D01*
X167147147Y-78617172D01*
X167168492Y-78622201D01*
X167222203Y-78639999D01*
X167324991Y-78650500D01*
X168675008Y-78650499D01*
X168777797Y-78639999D01*
X168944334Y-78584814D01*
X169093656Y-78492712D01*
X169217712Y-78368656D01*
X169309814Y-78219334D01*
X169321028Y-78185494D01*
X169360801Y-78128050D01*
X169425317Y-78101228D01*
X169438733Y-78100500D01*
X169561267Y-78100500D01*
X169628306Y-78120185D01*
G37*
%TD.AperFunction*%
%TA.AperFunction,Conductor*%
G36*
X172442539Y-59020185D02*
G01*
X172488294Y-59072989D01*
X172499500Y-59124500D01*
X172499500Y-73550957D01*
X172479815Y-73617996D01*
X172427011Y-73663751D01*
X172357853Y-73673695D01*
X172294297Y-73644670D01*
X172269961Y-73616054D01*
X172260059Y-73600000D01*
X172217712Y-73531344D01*
X172093656Y-73407288D01*
X171944334Y-73315186D01*
X171777797Y-73260001D01*
X171777794Y-73260000D01*
X171711897Y-73253268D01*
X171647205Y-73226871D01*
X171607054Y-73169690D01*
X171600500Y-73129910D01*
X171600500Y-71839060D01*
X171600501Y-71839047D01*
X171600501Y-71670944D01*
X171600501Y-71670943D01*
X171559577Y-71518216D01*
X171559573Y-71518209D01*
X171480524Y-71381290D01*
X171480518Y-71381282D01*
X169899333Y-69800097D01*
X168309280Y-68210045D01*
X168275796Y-68148723D01*
X168277188Y-68090270D01*
X168296090Y-68019727D01*
X168296089Y-68019727D01*
X168296092Y-68019720D01*
X168315315Y-67800000D01*
X168296092Y-67580280D01*
X168239007Y-67367237D01*
X168145795Y-67167343D01*
X168019288Y-66986671D01*
X168019286Y-66986668D01*
X167863330Y-66830712D01*
X167682662Y-66704207D01*
X167682654Y-66704203D01*
X167482769Y-66610995D01*
X167482755Y-66610990D01*
X167269724Y-66553909D01*
X167269722Y-66553908D01*
X167269720Y-66553908D01*
X167269718Y-66553907D01*
X167269714Y-66553907D01*
X167050002Y-66534685D01*
X167049998Y-66534685D01*
X166830285Y-66553907D01*
X166830271Y-66553910D01*
X166759726Y-66572812D01*
X166689877Y-66571149D01*
X166639953Y-66540718D01*
X165709456Y-65610221D01*
X169099500Y-65610221D01*
X169133985Y-65827952D01*
X169202103Y-66037603D01*
X169202104Y-66037606D01*
X169302187Y-66234025D01*
X169431752Y-66412358D01*
X169431756Y-66412363D01*
X169587636Y-66568243D01*
X169587641Y-66568247D01*
X169743192Y-66681260D01*
X169765978Y-66697815D01*
X169894375Y-66763237D01*
X169962393Y-66797895D01*
X169962396Y-66797896D01*
X170038491Y-66822620D01*
X170172049Y-66866015D01*
X170389778Y-66900500D01*
X170389779Y-66900500D01*
X170610221Y-66900500D01*
X170610222Y-66900500D01*
X170827951Y-66866015D01*
X171037606Y-66797895D01*
X171234022Y-66697815D01*
X171412365Y-66568242D01*
X171568242Y-66412365D01*
X171697815Y-66234022D01*
X171797895Y-66037606D01*
X171866015Y-65827951D01*
X171900500Y-65610222D01*
X171900500Y-65389778D01*
X171866015Y-65172049D01*
X171816443Y-65019480D01*
X171797896Y-64962396D01*
X171797895Y-64962393D01*
X171740676Y-64850097D01*
X171697815Y-64765978D01*
X171616369Y-64653876D01*
X171568247Y-64587641D01*
X171568243Y-64587636D01*
X171412363Y-64431756D01*
X171412358Y-64431752D01*
X171234025Y-64302187D01*
X171234024Y-64302186D01*
X171234022Y-64302185D01*
X171171096Y-64270122D01*
X171037606Y-64202104D01*
X171037603Y-64202103D01*
X170827952Y-64133985D01*
X170696373Y-64113145D01*
X170610222Y-64099500D01*
X170389778Y-64099500D01*
X170317201Y-64110995D01*
X170172047Y-64133985D01*
X169962396Y-64202103D01*
X169962393Y-64202104D01*
X169765974Y-64302187D01*
X169587641Y-64431752D01*
X169587636Y-64431756D01*
X169431756Y-64587636D01*
X169431752Y-64587641D01*
X169302187Y-64765974D01*
X169202104Y-64962393D01*
X169202103Y-64962396D01*
X169133985Y-65172047D01*
X169099500Y-65389778D01*
X169099500Y-65610221D01*
X165709456Y-65610221D01*
X160537590Y-60438355D01*
X160537588Y-60438352D01*
X160418717Y-60319481D01*
X160418709Y-60319475D01*
X160302823Y-60252569D01*
X160302822Y-60252568D01*
X160288035Y-60244031D01*
X160281785Y-60240423D01*
X160129057Y-60199499D01*
X159970943Y-60199499D01*
X159963347Y-60199499D01*
X159963331Y-60199500D01*
X154789091Y-60199500D01*
X154722052Y-60179815D01*
X154676711Y-60127909D01*
X154674037Y-60122175D01*
X154674034Y-60122170D01*
X154674033Y-60122169D01*
X154538495Y-59928599D01*
X154538494Y-59928597D01*
X154371402Y-59761506D01*
X154371395Y-59761501D01*
X154177834Y-59625967D01*
X154177830Y-59625965D01*
X154099858Y-59589606D01*
X153963663Y-59526097D01*
X153963659Y-59526096D01*
X153963655Y-59526094D01*
X153735413Y-59464938D01*
X153735403Y-59464936D01*
X153500001Y-59444341D01*
X153499999Y-59444341D01*
X153264596Y-59464936D01*
X153264586Y-59464938D01*
X153036344Y-59526094D01*
X153036335Y-59526098D01*
X152822171Y-59625964D01*
X152822169Y-59625965D01*
X152628597Y-59761505D01*
X152461505Y-59928597D01*
X152325965Y-60122169D01*
X152325964Y-60122171D01*
X152226098Y-60336335D01*
X152226094Y-60336344D01*
X152164938Y-60564586D01*
X152164936Y-60564596D01*
X152144341Y-60799999D01*
X152144341Y-60800000D01*
X152164936Y-61035403D01*
X152164938Y-61035413D01*
X152199327Y-61163756D01*
X152197664Y-61233606D01*
X152167233Y-61283530D01*
X150631286Y-62819478D01*
X150519481Y-62931282D01*
X150519479Y-62931285D01*
X150508446Y-62950396D01*
X150489047Y-62983996D01*
X150440423Y-63068215D01*
X150399499Y-63220943D01*
X150399499Y-63220945D01*
X150399499Y-63389046D01*
X150399500Y-63389059D01*
X150399500Y-66306000D01*
X150379815Y-66373039D01*
X150327011Y-66418794D01*
X150275500Y-66430000D01*
X150100000Y-66430000D01*
X150100000Y-67575500D01*
X150080315Y-67642539D01*
X150027511Y-67688294D01*
X149976000Y-67699500D01*
X148852129Y-67699500D01*
X148852123Y-67699501D01*
X148792516Y-67705908D01*
X148657671Y-67756202D01*
X148657668Y-67756204D01*
X148592129Y-67805267D01*
X148526664Y-67829684D01*
X148517818Y-67830000D01*
X148400000Y-67830000D01*
X148400000Y-67877844D01*
X148406401Y-67937372D01*
X148406403Y-67937379D01*
X148418925Y-67970952D01*
X148423909Y-68040643D01*
X148418925Y-68057617D01*
X148405909Y-68092514D01*
X148405908Y-68092516D01*
X148399501Y-68152116D01*
X148399500Y-68152135D01*
X148399500Y-68926937D01*
X148379815Y-68993976D01*
X148327011Y-69039731D01*
X148257853Y-69049675D01*
X148234547Y-69043979D01*
X148179249Y-69024630D01*
X148179252Y-69024630D01*
X148092330Y-69014837D01*
X148027916Y-68987770D01*
X148018533Y-68979298D01*
X147327590Y-68288355D01*
X147327588Y-68288352D01*
X147208717Y-68169481D01*
X147208716Y-68169480D01*
X147121904Y-68119360D01*
X147121904Y-68119359D01*
X147121900Y-68119358D01*
X147071785Y-68090423D01*
X146919057Y-68049499D01*
X146760943Y-68049499D01*
X146753347Y-68049499D01*
X146753331Y-68049500D01*
X133519589Y-68049500D01*
X133452550Y-68029815D01*
X133406795Y-67977011D01*
X133396300Y-67912242D01*
X133399999Y-67877839D01*
X133400000Y-67877827D01*
X133400000Y-67830000D01*
X133282182Y-67830000D01*
X133215143Y-67810315D01*
X133207871Y-67805267D01*
X133142331Y-67756204D01*
X133142328Y-67756202D01*
X133007482Y-67705908D01*
X133007483Y-67705908D01*
X132947883Y-67699501D01*
X132947881Y-67699500D01*
X132947873Y-67699500D01*
X132947865Y-67699500D01*
X131824000Y-67699500D01*
X131756961Y-67679815D01*
X131711206Y-67627011D01*
X131700000Y-67575500D01*
X131700000Y-66430000D01*
X132600000Y-66430000D01*
X132600000Y-66930000D01*
X133400000Y-66930000D01*
X148400000Y-66930000D01*
X149200000Y-66930000D01*
X149200000Y-66430000D01*
X148852155Y-66430000D01*
X148792627Y-66436401D01*
X148792620Y-66436403D01*
X148657913Y-66486645D01*
X148657906Y-66486649D01*
X148542812Y-66572809D01*
X148542809Y-66572812D01*
X148456649Y-66687906D01*
X148456645Y-66687913D01*
X148406403Y-66822620D01*
X148406401Y-66822627D01*
X148400000Y-66882155D01*
X148400000Y-66930000D01*
X133400000Y-66930000D01*
X133400000Y-66882172D01*
X133399999Y-66882155D01*
X133393598Y-66822627D01*
X133393596Y-66822620D01*
X133343354Y-66687913D01*
X133343350Y-66687906D01*
X133257190Y-66572812D01*
X133257187Y-66572809D01*
X133142093Y-66486649D01*
X133142086Y-66486645D01*
X133007379Y-66436403D01*
X133007372Y-66436401D01*
X132947844Y-66430000D01*
X132600000Y-66430000D01*
X131700000Y-66430000D01*
X131352155Y-66430000D01*
X131292627Y-66436401D01*
X131292620Y-66436403D01*
X131157913Y-66486645D01*
X131157906Y-66486649D01*
X131042812Y-66572809D01*
X131042809Y-66572812D01*
X130956649Y-66687906D01*
X130956645Y-66687913D01*
X130906403Y-66822620D01*
X130906401Y-66822627D01*
X130900000Y-66882155D01*
X130900000Y-67201402D01*
X130880315Y-67268441D01*
X130827511Y-67314196D01*
X130758353Y-67324140D01*
X130694797Y-67295115D01*
X130688319Y-67289083D01*
X129786819Y-66387583D01*
X129753334Y-66326260D01*
X129750500Y-66299902D01*
X129750500Y-64659060D01*
X129750501Y-64659047D01*
X129750501Y-64490944D01*
X129747055Y-64478082D01*
X129709577Y-64338216D01*
X129688775Y-64302185D01*
X129630524Y-64201290D01*
X129630518Y-64201282D01*
X129332766Y-63903530D01*
X129299281Y-63842207D01*
X129300672Y-63783755D01*
X129335063Y-63655408D01*
X129355659Y-63420000D01*
X129353874Y-63399603D01*
X129341651Y-63259896D01*
X129335063Y-63184592D01*
X129273903Y-62956337D01*
X129174035Y-62742171D01*
X129129980Y-62679254D01*
X129038496Y-62548600D01*
X128989892Y-62499996D01*
X128916179Y-62426283D01*
X128882696Y-62364963D01*
X128887680Y-62295271D01*
X128929551Y-62239337D01*
X128960529Y-62222422D01*
X129092086Y-62173354D01*
X129092093Y-62173350D01*
X129207187Y-62087190D01*
X129207190Y-62087187D01*
X129293350Y-61972093D01*
X129293354Y-61972086D01*
X129343596Y-61837379D01*
X129343598Y-61837372D01*
X129349999Y-61777844D01*
X129350000Y-61777827D01*
X129350000Y-61480000D01*
X127524000Y-61480000D01*
X127456961Y-61460315D01*
X127411206Y-61407511D01*
X127400000Y-61356000D01*
X127400000Y-60945826D01*
X127500000Y-60945826D01*
X127534075Y-61072993D01*
X127599901Y-61187007D01*
X127692993Y-61280099D01*
X127807007Y-61345925D01*
X127934174Y-61380000D01*
X128065826Y-61380000D01*
X128192993Y-61345925D01*
X128307007Y-61280099D01*
X128400099Y-61187007D01*
X128465925Y-61072993D01*
X128500000Y-60945826D01*
X128500000Y-60814174D01*
X128465925Y-60687007D01*
X128400099Y-60572993D01*
X128307007Y-60479901D01*
X128192993Y-60414075D01*
X128065826Y-60380000D01*
X127934174Y-60380000D01*
X127807007Y-60414075D01*
X127692993Y-60479901D01*
X127599901Y-60572993D01*
X127534075Y-60687007D01*
X127500000Y-60814174D01*
X127500000Y-60945826D01*
X127400000Y-60945826D01*
X127400000Y-59530000D01*
X128600000Y-59530000D01*
X128600000Y-60280000D01*
X129350000Y-60280000D01*
X129350000Y-59982172D01*
X129349999Y-59982155D01*
X129343598Y-59922627D01*
X129343596Y-59922620D01*
X129331430Y-59890000D01*
X131900000Y-59890000D01*
X131900000Y-66080000D01*
X149900000Y-66080000D01*
X149900000Y-59890000D01*
X131900000Y-59890000D01*
X129331430Y-59890000D01*
X129293354Y-59787913D01*
X129293350Y-59787906D01*
X129207190Y-59672812D01*
X129207187Y-59672809D01*
X129092093Y-59586649D01*
X129092086Y-59586645D01*
X128957379Y-59536403D01*
X128957372Y-59536401D01*
X128897844Y-59530000D01*
X128600000Y-59530000D01*
X127400000Y-59530000D01*
X127102155Y-59530000D01*
X127042627Y-59536401D01*
X127042620Y-59536403D01*
X126907913Y-59586645D01*
X126907906Y-59586649D01*
X126792812Y-59672809D01*
X126792809Y-59672812D01*
X126706649Y-59787906D01*
X126706645Y-59787913D01*
X126656403Y-59922620D01*
X126656401Y-59922627D01*
X126650000Y-59982155D01*
X126650000Y-60671404D01*
X126630315Y-60738443D01*
X126577511Y-60784198D01*
X126508353Y-60794142D01*
X126444797Y-60765117D01*
X126438319Y-60759085D01*
X125317589Y-59638355D01*
X125317587Y-59638352D01*
X125198716Y-59519481D01*
X125198708Y-59519475D01*
X125075142Y-59448135D01*
X125075139Y-59448134D01*
X125075130Y-59448129D01*
X125061784Y-59440423D01*
X124909056Y-59399499D01*
X124750942Y-59399499D01*
X124743346Y-59399499D01*
X124743330Y-59399500D01*
X123795808Y-59399500D01*
X123728769Y-59379815D01*
X123708126Y-59363180D01*
X123676870Y-59331923D01*
X123676862Y-59331917D01*
X123535396Y-59248255D01*
X123535395Y-59248254D01*
X123519291Y-59243576D01*
X123460406Y-59205970D01*
X123431200Y-59142497D01*
X123440946Y-59073310D01*
X123486550Y-59020376D01*
X123553534Y-59000501D01*
X123553887Y-59000500D01*
X172375500Y-59000500D01*
X172442539Y-59020185D01*
G37*
%TD.AperFunction*%
%TA.AperFunction,Conductor*%
G36*
X161854177Y-68420185D02*
G01*
X161888711Y-68453375D01*
X161915991Y-68492335D01*
X162000713Y-68613331D01*
X162156669Y-68769287D01*
X162337337Y-68895792D01*
X162337339Y-68895793D01*
X162337342Y-68895795D01*
X162404127Y-68926937D01*
X162478404Y-68961573D01*
X162530844Y-69007745D01*
X162550000Y-69073955D01*
X162550000Y-71600000D01*
X162757828Y-71600000D01*
X162757844Y-71599999D01*
X162817372Y-71593598D01*
X162817379Y-71593596D01*
X162952086Y-71543354D01*
X162952093Y-71543350D01*
X163067186Y-71457190D01*
X163105793Y-71405620D01*
X163161727Y-71363749D01*
X163231419Y-71358765D01*
X163276184Y-71378356D01*
X163357593Y-71435359D01*
X163557406Y-71528533D01*
X163557412Y-71528536D01*
X163770365Y-71585597D01*
X163770373Y-71585598D01*
X163989998Y-71604813D01*
X163990002Y-71604813D01*
X164209630Y-71585598D01*
X164349572Y-71548099D01*
X163229153Y-70427680D01*
X163213626Y-70399244D01*
X163540000Y-70399244D01*
X163570667Y-70513694D01*
X163629910Y-70616306D01*
X163713694Y-70700090D01*
X163816306Y-70759333D01*
X163930756Y-70790000D01*
X164049244Y-70790000D01*
X164163694Y-70759333D01*
X164266306Y-70700090D01*
X164350090Y-70616306D01*
X164409333Y-70513694D01*
X164440000Y-70399244D01*
X164440000Y-70280756D01*
X164409333Y-70166306D01*
X164350090Y-70063694D01*
X164266306Y-69979910D01*
X164163694Y-69920667D01*
X164049244Y-69890000D01*
X163930756Y-69890000D01*
X163816306Y-69920667D01*
X163713694Y-69979910D01*
X163629910Y-70063694D01*
X163570667Y-70166306D01*
X163540000Y-70280756D01*
X163540000Y-70399244D01*
X163213626Y-70399244D01*
X163195668Y-70366357D01*
X163200652Y-70296665D01*
X163229153Y-70252318D01*
X163990000Y-69491472D01*
X164349571Y-69131899D01*
X164342134Y-69104141D01*
X164342282Y-69097907D01*
X164323773Y-69108791D01*
X164261490Y-69108297D01*
X164209637Y-69094403D01*
X164209626Y-69094401D01*
X163990002Y-69075187D01*
X163989998Y-69075187D01*
X163770373Y-69094401D01*
X163770359Y-69094404D01*
X163718508Y-69108297D01*
X163648658Y-69106634D01*
X163590796Y-69067471D01*
X163563293Y-69003242D01*
X163574880Y-68934340D01*
X163615291Y-68886949D01*
X163783329Y-68769288D01*
X163808526Y-68744091D01*
X163902319Y-68650299D01*
X163963642Y-68616814D01*
X164033334Y-68621798D01*
X164077681Y-68650299D01*
X164196668Y-68769286D01*
X164196671Y-68769288D01*
X164338513Y-68868607D01*
X164364706Y-68886947D01*
X164408331Y-68941524D01*
X164410713Y-68964542D01*
X164447188Y-68948924D01*
X164514311Y-68959664D01*
X164577237Y-68989007D01*
X164790280Y-69046092D01*
X164941031Y-69059281D01*
X165009998Y-69065315D01*
X165010000Y-69065315D01*
X165010002Y-69065315D01*
X165064930Y-69060509D01*
X165229720Y-69046092D01*
X165280296Y-69032540D01*
X165350144Y-69034203D01*
X165408006Y-69073365D01*
X165435511Y-69137593D01*
X165423925Y-69206495D01*
X165383511Y-69253890D01*
X165216668Y-69370713D01*
X165060713Y-69526668D01*
X164934205Y-69707342D01*
X164934204Y-69707344D01*
X164840994Y-69907235D01*
X164840990Y-69907244D01*
X164783909Y-70120275D01*
X164783907Y-70120285D01*
X164764685Y-70339998D01*
X164764685Y-70340001D01*
X164783907Y-70559714D01*
X164783909Y-70559724D01*
X164840990Y-70772755D01*
X164840995Y-70772769D01*
X164934203Y-70972654D01*
X164934207Y-70972662D01*
X165060712Y-71153330D01*
X165191392Y-71284010D01*
X165224877Y-71345333D01*
X165219893Y-71415025D01*
X165191392Y-71459372D01*
X164787584Y-71863181D01*
X164726261Y-71896666D01*
X164699903Y-71899500D01*
X161000909Y-71899500D01*
X160933870Y-71879815D01*
X160888115Y-71827011D01*
X160883868Y-71816455D01*
X160851658Y-71724406D01*
X160848095Y-71654628D01*
X160882824Y-71594000D01*
X160944817Y-71561772D01*
X161012032Y-71567269D01*
X161082620Y-71593596D01*
X161082627Y-71593598D01*
X161142155Y-71599999D01*
X161142172Y-71600000D01*
X161350000Y-71600000D01*
X161350000Y-70940000D01*
X160690000Y-70940000D01*
X160690000Y-71147830D01*
X160694648Y-71191065D01*
X160682242Y-71259824D01*
X160634631Y-71310961D01*
X160566931Y-71328240D01*
X160505385Y-71309312D01*
X160449523Y-71274211D01*
X160279249Y-71214630D01*
X160210616Y-71206897D01*
X160146202Y-71179830D01*
X160106647Y-71122235D01*
X160100500Y-71083677D01*
X160100500Y-70399244D01*
X161500000Y-70399244D01*
X161530667Y-70513694D01*
X161589910Y-70616306D01*
X161673694Y-70700090D01*
X161776306Y-70759333D01*
X161890756Y-70790000D01*
X162009244Y-70790000D01*
X162123694Y-70759333D01*
X162226306Y-70700090D01*
X162310090Y-70616306D01*
X162369333Y-70513694D01*
X162400000Y-70399244D01*
X162400000Y-70280756D01*
X162369333Y-70166306D01*
X162310090Y-70063694D01*
X162226306Y-69979910D01*
X162123694Y-69920667D01*
X162009244Y-69890000D01*
X161890756Y-69890000D01*
X161776306Y-69920667D01*
X161673694Y-69979910D01*
X161589910Y-70063694D01*
X161530667Y-70166306D01*
X161500000Y-70280756D01*
X161500000Y-70399244D01*
X160100500Y-70399244D01*
X160100500Y-69800097D01*
X160120185Y-69733058D01*
X160136819Y-69712416D01*
X160297509Y-69551726D01*
X160486572Y-69362662D01*
X160547893Y-69329179D01*
X160617584Y-69334163D01*
X160673518Y-69376034D01*
X160697935Y-69441499D01*
X160696069Y-69464788D01*
X160697231Y-69464913D01*
X160690000Y-69532155D01*
X160690000Y-69740000D01*
X161350000Y-69740000D01*
X161350000Y-69080000D01*
X161142155Y-69080000D01*
X161074913Y-69087231D01*
X161074584Y-69084177D01*
X161019005Y-69081157D01*
X160962363Y-69040248D01*
X160936830Y-68975211D01*
X160950512Y-68906694D01*
X160972661Y-68876573D01*
X161412416Y-68436819D01*
X161473739Y-68403334D01*
X161500097Y-68400500D01*
X161787138Y-68400500D01*
X161854177Y-68420185D01*
G37*
%TD.AperFunction*%
%TD*%
%TA.AperFunction,Conductor*%
%TO.N,+3.3V*%
G36*
X160293799Y-73016612D02*
G01*
X160368216Y-73059577D01*
X160520943Y-73100501D01*
X160520945Y-73100501D01*
X160686654Y-73100501D01*
X160686670Y-73100500D01*
X164913331Y-73100500D01*
X164913347Y-73100501D01*
X164920943Y-73100501D01*
X165079054Y-73100501D01*
X165079057Y-73100501D01*
X165231785Y-73059577D01*
X165231789Y-73059575D01*
X165238269Y-73055833D01*
X165281900Y-73030640D01*
X165281904Y-73030640D01*
X165281904Y-73030639D01*
X165306200Y-73016611D01*
X165368199Y-73000000D01*
X166376000Y-73000000D01*
X166443039Y-73019685D01*
X166488794Y-73072489D01*
X166500000Y-73124000D01*
X166500000Y-81189658D01*
X166480315Y-81256697D01*
X166463681Y-81277339D01*
X165229101Y-82511918D01*
X165229100Y-82511920D01*
X165186370Y-82585931D01*
X165159896Y-82631785D01*
X165155455Y-82639478D01*
X165150043Y-82648851D01*
X165109119Y-82801579D01*
X165109119Y-82801581D01*
X165109119Y-82969682D01*
X165109120Y-82969695D01*
X165109120Y-84889812D01*
X165089435Y-84956851D01*
X165036631Y-85002606D01*
X164967473Y-85012550D01*
X164903917Y-84983525D01*
X164897439Y-84977493D01*
X164128848Y-84208902D01*
X164095363Y-84147579D01*
X164100347Y-84077887D01*
X164142219Y-84021954D01*
X164149087Y-84017197D01*
X164149292Y-84017031D01*
X164149296Y-84017030D01*
X164297722Y-83897722D01*
X164417030Y-83749296D01*
X164501641Y-83578693D01*
X164547600Y-83393889D01*
X164550500Y-83351123D01*
X164550499Y-81948878D01*
X164547600Y-81906111D01*
X164501641Y-81721307D01*
X164482040Y-81681785D01*
X164417032Y-81550707D01*
X164417030Y-81550704D01*
X164297722Y-81402278D01*
X164297721Y-81402277D01*
X164149295Y-81282969D01*
X164149292Y-81282967D01*
X163978697Y-81198360D01*
X163793892Y-81152400D01*
X163772506Y-81150950D01*
X163751123Y-81149500D01*
X163751120Y-81149500D01*
X162848877Y-81149500D01*
X162848874Y-81149501D01*
X162806113Y-81152399D01*
X162806112Y-81152399D01*
X162621303Y-81198360D01*
X162450707Y-81282967D01*
X162450704Y-81282969D01*
X162302280Y-81402276D01*
X162302278Y-81402278D01*
X162274625Y-81436678D01*
X162246326Y-81471885D01*
X162188982Y-81511803D01*
X162119160Y-81514383D01*
X162059027Y-81478804D01*
X162053031Y-81471884D01*
X161997364Y-81402630D01*
X161849025Y-81283392D01*
X161750000Y-81234280D01*
X161750000Y-84116638D01*
X161730315Y-84183677D01*
X161725000Y-84190272D01*
X161725000Y-84837500D01*
X162224999Y-84837500D01*
X162224999Y-84800028D01*
X162224998Y-84800013D01*
X162214505Y-84697302D01*
X162159358Y-84530880D01*
X162159356Y-84530875D01*
X162067315Y-84381654D01*
X161943344Y-84257683D01*
X161943340Y-84257680D01*
X161869724Y-84212273D01*
X161822999Y-84160325D01*
X161811778Y-84091363D01*
X161839621Y-84027281D01*
X161857134Y-84010087D01*
X161997369Y-83897364D01*
X162053033Y-83828115D01*
X162110376Y-83788196D01*
X162180198Y-83785616D01*
X162240331Y-83821194D01*
X162246305Y-83828089D01*
X162302278Y-83897722D01*
X162450704Y-84017030D01*
X162580596Y-84081450D01*
X162631907Y-84128869D01*
X162649500Y-84192537D01*
X162649500Y-84364069D01*
X162649500Y-84364071D01*
X162649499Y-84364071D01*
X162668498Y-84459577D01*
X162668498Y-84459578D01*
X162674496Y-84489737D01*
X162674498Y-84489742D01*
X162691450Y-84530666D01*
X162723535Y-84608127D01*
X162783119Y-84697302D01*
X162794726Y-84714673D01*
X166165678Y-88085625D01*
X166199163Y-88146948D01*
X166194179Y-88216640D01*
X166152307Y-88272573D01*
X166143970Y-88278299D01*
X165997739Y-88370183D01*
X165994903Y-88372445D01*
X165992723Y-88373335D01*
X165991843Y-88373888D01*
X165991746Y-88373733D01*
X165930217Y-88398855D01*
X165917588Y-88399500D01*
X158916322Y-88399500D01*
X158849283Y-88379815D01*
X158803528Y-88327011D01*
X158793102Y-88289383D01*
X158785369Y-88220750D01*
X158785368Y-88220748D01*
X158785368Y-88220745D01*
X158725789Y-88050478D01*
X158629816Y-87897738D01*
X158574319Y-87842241D01*
X158540834Y-87780918D01*
X158538000Y-87754560D01*
X158538000Y-86967874D01*
X158557685Y-86900835D01*
X158610489Y-86855080D01*
X158622988Y-86850170D01*
X158669334Y-86834814D01*
X158818656Y-86742712D01*
X158942712Y-86618656D01*
X159034814Y-86469334D01*
X159089999Y-86302797D01*
X159100500Y-86200009D01*
X159100500Y-86162500D01*
X159900001Y-86162500D01*
X159900001Y-86199986D01*
X159910494Y-86302697D01*
X159965641Y-86469119D01*
X159965643Y-86469124D01*
X160057684Y-86618345D01*
X160181654Y-86742315D01*
X160330881Y-86834359D01*
X160399999Y-86857262D01*
X160400000Y-86857262D01*
X160400000Y-86162500D01*
X161725000Y-86162500D01*
X161725000Y-86857262D01*
X161794118Y-86834359D01*
X161943345Y-86742315D01*
X162067315Y-86618345D01*
X162159356Y-86469124D01*
X162159358Y-86469119D01*
X162214505Y-86302697D01*
X162214506Y-86302690D01*
X162224999Y-86199986D01*
X162225000Y-86199973D01*
X162225000Y-86162500D01*
X161725000Y-86162500D01*
X160400000Y-86162500D01*
X159900001Y-86162500D01*
X159100500Y-86162500D01*
X159100499Y-84799992D01*
X159089999Y-84697203D01*
X159034814Y-84530666D01*
X158942712Y-84381344D01*
X158923548Y-84362180D01*
X158890063Y-84300857D01*
X158895047Y-84231165D01*
X158936919Y-84175232D01*
X159002383Y-84150815D01*
X159011229Y-84150499D01*
X159151123Y-84150499D01*
X159151123Y-84150498D01*
X159193889Y-84147600D01*
X159378693Y-84101641D01*
X159549296Y-84017030D01*
X159697722Y-83897722D01*
X159753675Y-83828112D01*
X159811015Y-83788196D01*
X159880837Y-83785616D01*
X159940970Y-83821194D01*
X159946967Y-83828115D01*
X160002632Y-83897366D01*
X160002633Y-83897367D01*
X160150972Y-84016605D01*
X160184407Y-84033187D01*
X160235720Y-84080607D01*
X160253251Y-84148242D01*
X160231432Y-84214618D01*
X160194415Y-84249812D01*
X160181658Y-84257680D01*
X160057684Y-84381654D01*
X159965643Y-84530875D01*
X159965641Y-84530880D01*
X159910494Y-84697302D01*
X159910493Y-84697309D01*
X159900000Y-84800013D01*
X159900000Y-84837500D01*
X160400000Y-84837500D01*
X160400000Y-84193000D01*
X160374000Y-84193000D01*
X160306961Y-84173315D01*
X160261206Y-84120511D01*
X160250000Y-84069000D01*
X160250000Y-81234280D01*
X160150974Y-81283392D01*
X160002635Y-81402631D01*
X159946967Y-81471885D01*
X159889624Y-81511803D01*
X159819801Y-81514383D01*
X159759669Y-81478804D01*
X159753673Y-81471884D01*
X159697722Y-81402278D01*
X159697721Y-81402277D01*
X159549295Y-81282969D01*
X159549292Y-81282967D01*
X159378697Y-81198360D01*
X159193892Y-81152400D01*
X159172506Y-81150950D01*
X159151123Y-81149500D01*
X159151120Y-81149500D01*
X158248877Y-81149500D01*
X158248874Y-81149501D01*
X158206113Y-81152399D01*
X158206112Y-81152399D01*
X158021303Y-81198360D01*
X157850707Y-81282967D01*
X157850704Y-81282969D01*
X157702278Y-81402277D01*
X157702277Y-81402278D01*
X157582969Y-81550704D01*
X157582967Y-81550707D01*
X157498360Y-81721302D01*
X157452400Y-81906107D01*
X157449500Y-81948879D01*
X157449500Y-83023514D01*
X157432887Y-83085513D01*
X157417353Y-83112419D01*
X157417353Y-83112421D01*
X157377923Y-83180714D01*
X157377923Y-83180715D01*
X157336999Y-83333443D01*
X157336999Y-83333445D01*
X157336999Y-83501546D01*
X157337000Y-83501559D01*
X157337000Y-84032125D01*
X157317315Y-84099164D01*
X157264511Y-84144919D01*
X157252009Y-84149829D01*
X157205666Y-84165186D01*
X157205663Y-84165187D01*
X157056342Y-84257289D01*
X156932289Y-84381342D01*
X156840187Y-84530663D01*
X156840185Y-84530668D01*
X156840115Y-84530880D01*
X156785001Y-84697203D01*
X156785001Y-84697204D01*
X156785000Y-84697204D01*
X156774500Y-84799983D01*
X156774500Y-86200001D01*
X156774501Y-86200018D01*
X156785000Y-86302796D01*
X156785001Y-86302799D01*
X156790948Y-86320745D01*
X156840186Y-86469334D01*
X156932288Y-86618656D01*
X157056344Y-86742712D01*
X157205666Y-86834814D01*
X157205668Y-86834815D01*
X157221923Y-86840201D01*
X157252002Y-86850168D01*
X157309447Y-86889938D01*
X157336272Y-86954453D01*
X157337000Y-86967874D01*
X157337000Y-87914825D01*
X157317994Y-87980796D01*
X157274211Y-88050476D01*
X157214630Y-88220750D01*
X157206898Y-88289383D01*
X157179832Y-88353797D01*
X157122237Y-88393352D01*
X157083678Y-88399500D01*
X156300098Y-88399500D01*
X156233059Y-88379815D01*
X156212417Y-88363181D01*
X156136819Y-88287583D01*
X156103334Y-88226260D01*
X156100500Y-88199902D01*
X156100500Y-83040945D01*
X156100500Y-83040943D01*
X156059577Y-82888216D01*
X156059577Y-82888215D01*
X156015574Y-82812000D01*
X155980520Y-82751284D01*
X155868716Y-82639480D01*
X155868715Y-82639479D01*
X155864385Y-82635149D01*
X155864374Y-82635139D01*
X155536319Y-82307084D01*
X155502834Y-82245761D01*
X155500000Y-82219403D01*
X155500000Y-77350000D01*
X158732969Y-77350000D01*
X158760722Y-77403131D01*
X158889246Y-77560753D01*
X159046870Y-77689278D01*
X159227138Y-77783442D01*
X159422671Y-77839390D01*
X159422674Y-77839391D01*
X159541999Y-77849999D01*
X159542002Y-77850000D01*
X160000000Y-77850000D01*
X160000000Y-77350000D01*
X162000000Y-77350000D01*
X162000000Y-77850000D01*
X162457998Y-77850000D01*
X162458000Y-77849999D01*
X162577325Y-77839391D01*
X162577328Y-77839390D01*
X162772861Y-77783442D01*
X162953129Y-77689278D01*
X163110753Y-77560753D01*
X163239277Y-77403131D01*
X163267031Y-77350000D01*
X162000000Y-77350000D01*
X160000000Y-77350000D01*
X158732969Y-77350000D01*
X155500000Y-77350000D01*
X155500000Y-75350000D01*
X158732969Y-75350000D01*
X160000000Y-75350000D01*
X160000000Y-74850000D01*
X162000000Y-74850000D01*
X162000000Y-75350000D01*
X163267031Y-75350000D01*
X163267030Y-75349999D01*
X163239277Y-75296868D01*
X163110753Y-75139246D01*
X162953129Y-75010721D01*
X162772861Y-74916557D01*
X162577328Y-74860609D01*
X162577325Y-74860608D01*
X162458000Y-74850000D01*
X162000000Y-74850000D01*
X160000000Y-74850000D01*
X159541999Y-74850000D01*
X159422674Y-74860608D01*
X159422671Y-74860609D01*
X159227138Y-74916557D01*
X159046870Y-75010721D01*
X158889246Y-75139246D01*
X158760722Y-75296868D01*
X158732969Y-75349999D01*
X158732969Y-75350000D01*
X155500000Y-75350000D01*
X155500000Y-73124000D01*
X155519685Y-73056961D01*
X155572489Y-73011206D01*
X155624000Y-73000000D01*
X160231800Y-73000000D01*
X160293799Y-73016612D01*
G37*
%TD.AperFunction*%
%TD*%
M02*
