%TF.GenerationSoftware,KiCad,Pcbnew,8.0.1*%
%TF.CreationDate,2024-04-27T05:15:47+02:00*%
%TF.ProjectId,driver_v2,64726976-6572-45f7-9632-2e6b69636164,rev?*%
%TF.SameCoordinates,Original*%
%TF.FileFunction,Paste,Top*%
%TF.FilePolarity,Positive*%
%FSLAX46Y46*%
G04 Gerber Fmt 4.6, Leading zero omitted, Abs format (unit mm)*
G04 Created by KiCad (PCBNEW 8.0.1) date 2024-04-27 05:15:47*
%MOMM*%
%LPD*%
G01*
G04 APERTURE LIST*
G04 Aperture macros list*
%AMRoundRect*
0 Rectangle with rounded corners*
0 $1 Rounding radius*
0 $2 $3 $4 $5 $6 $7 $8 $9 X,Y pos of 4 corners*
0 Add a 4 corners polygon primitive as box body*
4,1,4,$2,$3,$4,$5,$6,$7,$8,$9,$2,$3,0*
0 Add four circle primitives for the rounded corners*
1,1,$1+$1,$2,$3*
1,1,$1+$1,$4,$5*
1,1,$1+$1,$6,$7*
1,1,$1+$1,$8,$9*
0 Add four rect primitives between the rounded corners*
20,1,$1+$1,$2,$3,$4,$5,0*
20,1,$1+$1,$4,$5,$6,$7,0*
20,1,$1+$1,$6,$7,$8,$9,0*
20,1,$1+$1,$8,$9,$2,$3,0*%
G04 Aperture macros list end*
%ADD10R,1.500000X0.900000*%
%ADD11R,0.900000X1.500000*%
%ADD12R,0.900000X0.900000*%
%ADD13RoundRect,0.250000X-0.625000X0.400000X-0.625000X-0.400000X0.625000X-0.400000X0.625000X0.400000X0*%
%ADD14RoundRect,0.250001X-0.624999X0.462499X-0.624999X-0.462499X0.624999X-0.462499X0.624999X0.462499X0*%
%ADD15RoundRect,0.375000X0.375000X-0.625000X0.375000X0.625000X-0.375000X0.625000X-0.375000X-0.625000X0*%
%ADD16RoundRect,0.500000X1.400000X-0.500000X1.400000X0.500000X-1.400000X0.500000X-1.400000X-0.500000X0*%
%ADD17RoundRect,0.150000X0.825000X0.150000X-0.825000X0.150000X-0.825000X-0.150000X0.825000X-0.150000X0*%
%ADD18RoundRect,0.250000X0.412500X0.650000X-0.412500X0.650000X-0.412500X-0.650000X0.412500X-0.650000X0*%
G04 APERTURE END LIST*
D10*
%TO.C,IC1*%
X132150000Y-67380000D03*
X132150000Y-68650000D03*
X132150000Y-69920000D03*
X132150000Y-71190000D03*
X132150000Y-72460000D03*
X132150000Y-73730000D03*
X132150000Y-75000000D03*
X132150000Y-76270000D03*
X132150000Y-77540000D03*
X132150000Y-78810000D03*
X132150000Y-80080000D03*
X132150000Y-81350000D03*
X132150000Y-82620000D03*
X132150000Y-83890000D03*
D11*
X135185000Y-85140000D03*
X136455000Y-85140000D03*
X137725000Y-85140000D03*
X138995000Y-85140000D03*
X140265000Y-85140000D03*
X141535000Y-85140000D03*
X142805000Y-85140000D03*
X144075000Y-85140000D03*
X145345000Y-85140000D03*
X146615000Y-85140000D03*
D10*
X149650000Y-83890000D03*
X149650000Y-82620000D03*
X149650000Y-81350000D03*
X149650000Y-80080000D03*
X149650000Y-78810000D03*
X149650000Y-77540000D03*
X149650000Y-76270000D03*
X149650000Y-75000000D03*
X149650000Y-73730000D03*
X149650000Y-72460000D03*
X149650000Y-71190000D03*
X149650000Y-69920000D03*
X149650000Y-68650000D03*
X149650000Y-67380000D03*
D12*
X138000000Y-73700000D03*
X138000000Y-75100000D03*
X138000000Y-76500000D03*
X139400000Y-73700000D03*
X139400000Y-75100000D03*
X139400000Y-76500000D03*
X140800000Y-73700000D03*
X140800000Y-75100000D03*
X140800000Y-76500000D03*
%TD*%
D13*
%TO.C,R3*%
X168000000Y-82400000D03*
X168000000Y-85500000D03*
%TD*%
D14*
%TO.C,LED*%
X171000000Y-85437500D03*
X171000000Y-82462500D03*
%TD*%
D15*
%TO.C,U1*%
X158700000Y-82650000D03*
X161000000Y-82650000D03*
D16*
X161000000Y-76350000D03*
D15*
X163300000Y-82650000D03*
%TD*%
D13*
%TO.C,R2*%
X168000000Y-77500000D03*
X168000000Y-74400000D03*
%TD*%
%TO.C,R1*%
X171000000Y-77500000D03*
X171000000Y-74400000D03*
%TD*%
D17*
%TO.C,IC5*%
X122450000Y-84810000D03*
X122450000Y-83540000D03*
X122450000Y-82270000D03*
X122450000Y-81000000D03*
X117500000Y-81000000D03*
X117500000Y-82270000D03*
X117500000Y-83540000D03*
X117500000Y-84810000D03*
%TD*%
%TO.C,IC4*%
X122450000Y-78000000D03*
X122450000Y-76730000D03*
X122450000Y-75460000D03*
X122450000Y-74190000D03*
X117500000Y-74190000D03*
X117500000Y-75460000D03*
X117500000Y-76730000D03*
X117500000Y-78000000D03*
%TD*%
%TO.C,IC3*%
X122475000Y-71500000D03*
X122475000Y-70230000D03*
X122475000Y-68960000D03*
X122475000Y-67690000D03*
X117525000Y-67690000D03*
X117525000Y-68960000D03*
X117525000Y-70230000D03*
X117525000Y-71500000D03*
%TD*%
%TO.C,IC2*%
X117500000Y-63810000D03*
X117500000Y-62540000D03*
X117500000Y-61270000D03*
X117500000Y-60000000D03*
X122450000Y-60000000D03*
X122450000Y-61270000D03*
X122450000Y-62540000D03*
X122450000Y-63810000D03*
%TD*%
D18*
%TO.C,C1*%
X161062500Y-85500000D03*
X157937500Y-85500000D03*
%TD*%
M02*
