%TF.GenerationSoftware,KiCad,Pcbnew,8.0.1*%
%TF.CreationDate,2024-04-27T05:15:47+02:00*%
%TF.ProjectId,driver_v2,64726976-6572-45f7-9632-2e6b69636164,rev?*%
%TF.SameCoordinates,Original*%
%TF.FileFunction,Legend,Top*%
%TF.FilePolarity,Positive*%
%FSLAX46Y46*%
G04 Gerber Fmt 4.6, Leading zero omitted, Abs format (unit mm)*
G04 Created by KiCad (PCBNEW 8.0.1) date 2024-04-27 05:15:47*
%MOMM*%
%LPD*%
G01*
G04 APERTURE LIST*
%ADD10C,0.300000*%
%ADD11C,0.200000*%
%ADD12C,0.150000*%
%ADD13C,0.100000*%
%ADD14C,0.120000*%
%ADD15C,0.130000*%
%ADD16C,0.000000*%
G04 APERTURE END LIST*
D10*
X145483082Y-92777038D02*
X145883082Y-92777038D01*
X146054510Y-93405609D02*
X145483082Y-93405609D01*
X145483082Y-93405609D02*
X145483082Y-92205609D01*
X145483082Y-92205609D02*
X146054510Y-92205609D01*
X146511653Y-93348467D02*
X146683082Y-93405609D01*
X146683082Y-93405609D02*
X146968796Y-93405609D01*
X146968796Y-93405609D02*
X147083082Y-93348467D01*
X147083082Y-93348467D02*
X147140224Y-93291324D01*
X147140224Y-93291324D02*
X147197367Y-93177038D01*
X147197367Y-93177038D02*
X147197367Y-93062752D01*
X147197367Y-93062752D02*
X147140224Y-92948467D01*
X147140224Y-92948467D02*
X147083082Y-92891324D01*
X147083082Y-92891324D02*
X146968796Y-92834181D01*
X146968796Y-92834181D02*
X146740224Y-92777038D01*
X146740224Y-92777038D02*
X146625939Y-92719895D01*
X146625939Y-92719895D02*
X146568796Y-92662752D01*
X146568796Y-92662752D02*
X146511653Y-92548467D01*
X146511653Y-92548467D02*
X146511653Y-92434181D01*
X146511653Y-92434181D02*
X146568796Y-92319895D01*
X146568796Y-92319895D02*
X146625939Y-92262752D01*
X146625939Y-92262752D02*
X146740224Y-92205609D01*
X146740224Y-92205609D02*
X147025939Y-92205609D01*
X147025939Y-92205609D02*
X147197367Y-92262752D01*
X147711653Y-93405609D02*
X147711653Y-92205609D01*
X147711653Y-92205609D02*
X148168796Y-92205609D01*
X148168796Y-92205609D02*
X148283081Y-92262752D01*
X148283081Y-92262752D02*
X148340224Y-92319895D01*
X148340224Y-92319895D02*
X148397367Y-92434181D01*
X148397367Y-92434181D02*
X148397367Y-92605609D01*
X148397367Y-92605609D02*
X148340224Y-92719895D01*
X148340224Y-92719895D02*
X148283081Y-92777038D01*
X148283081Y-92777038D02*
X148168796Y-92834181D01*
X148168796Y-92834181D02*
X147711653Y-92834181D01*
X149825939Y-93405609D02*
X149825939Y-92205609D01*
X149825939Y-92205609D02*
X150225939Y-93062752D01*
X150225939Y-93062752D02*
X150625939Y-92205609D01*
X150625939Y-92205609D02*
X150625939Y-93405609D01*
X151368796Y-93405609D02*
X151254511Y-93348467D01*
X151254511Y-93348467D02*
X151197368Y-93291324D01*
X151197368Y-93291324D02*
X151140225Y-93177038D01*
X151140225Y-93177038D02*
X151140225Y-92834181D01*
X151140225Y-92834181D02*
X151197368Y-92719895D01*
X151197368Y-92719895D02*
X151254511Y-92662752D01*
X151254511Y-92662752D02*
X151368796Y-92605609D01*
X151368796Y-92605609D02*
X151540225Y-92605609D01*
X151540225Y-92605609D02*
X151654511Y-92662752D01*
X151654511Y-92662752D02*
X151711654Y-92719895D01*
X151711654Y-92719895D02*
X151768796Y-92834181D01*
X151768796Y-92834181D02*
X151768796Y-93177038D01*
X151768796Y-93177038D02*
X151711654Y-93291324D01*
X151711654Y-93291324D02*
X151654511Y-93348467D01*
X151654511Y-93348467D02*
X151540225Y-93405609D01*
X151540225Y-93405609D02*
X151368796Y-93405609D01*
X152111653Y-92605609D02*
X152568796Y-92605609D01*
X152283082Y-92205609D02*
X152283082Y-93234181D01*
X152283082Y-93234181D02*
X152340225Y-93348467D01*
X152340225Y-93348467D02*
X152454510Y-93405609D01*
X152454510Y-93405609D02*
X152568796Y-93405609D01*
X153140224Y-93405609D02*
X153025939Y-93348467D01*
X153025939Y-93348467D02*
X152968796Y-93291324D01*
X152968796Y-93291324D02*
X152911653Y-93177038D01*
X152911653Y-93177038D02*
X152911653Y-92834181D01*
X152911653Y-92834181D02*
X152968796Y-92719895D01*
X152968796Y-92719895D02*
X153025939Y-92662752D01*
X153025939Y-92662752D02*
X153140224Y-92605609D01*
X153140224Y-92605609D02*
X153311653Y-92605609D01*
X153311653Y-92605609D02*
X153425939Y-92662752D01*
X153425939Y-92662752D02*
X153483082Y-92719895D01*
X153483082Y-92719895D02*
X153540224Y-92834181D01*
X153540224Y-92834181D02*
X153540224Y-93177038D01*
X153540224Y-93177038D02*
X153483082Y-93291324D01*
X153483082Y-93291324D02*
X153425939Y-93348467D01*
X153425939Y-93348467D02*
X153311653Y-93405609D01*
X153311653Y-93405609D02*
X153140224Y-93405609D01*
X154054510Y-93405609D02*
X154054510Y-92605609D01*
X154054510Y-92834181D02*
X154111653Y-92719895D01*
X154111653Y-92719895D02*
X154168796Y-92662752D01*
X154168796Y-92662752D02*
X154283081Y-92605609D01*
X154283081Y-92605609D02*
X154397367Y-92605609D01*
X145483082Y-95337542D02*
X145483082Y-94137542D01*
X145483082Y-94137542D02*
X145768796Y-94137542D01*
X145768796Y-94137542D02*
X145940225Y-94194685D01*
X145940225Y-94194685D02*
X146054510Y-94308971D01*
X146054510Y-94308971D02*
X146111653Y-94423257D01*
X146111653Y-94423257D02*
X146168796Y-94651828D01*
X146168796Y-94651828D02*
X146168796Y-94823257D01*
X146168796Y-94823257D02*
X146111653Y-95051828D01*
X146111653Y-95051828D02*
X146054510Y-95166114D01*
X146054510Y-95166114D02*
X145940225Y-95280400D01*
X145940225Y-95280400D02*
X145768796Y-95337542D01*
X145768796Y-95337542D02*
X145483082Y-95337542D01*
X146683082Y-95337542D02*
X146683082Y-94537542D01*
X146683082Y-94766114D02*
X146740225Y-94651828D01*
X146740225Y-94651828D02*
X146797368Y-94594685D01*
X146797368Y-94594685D02*
X146911653Y-94537542D01*
X146911653Y-94537542D02*
X147025939Y-94537542D01*
X147425939Y-95337542D02*
X147425939Y-94537542D01*
X147425939Y-94137542D02*
X147368796Y-94194685D01*
X147368796Y-94194685D02*
X147425939Y-94251828D01*
X147425939Y-94251828D02*
X147483082Y-94194685D01*
X147483082Y-94194685D02*
X147425939Y-94137542D01*
X147425939Y-94137542D02*
X147425939Y-94251828D01*
X147883082Y-94537542D02*
X148168796Y-95337542D01*
X148168796Y-95337542D02*
X148454511Y-94537542D01*
X149368797Y-95280400D02*
X149254511Y-95337542D01*
X149254511Y-95337542D02*
X149025940Y-95337542D01*
X149025940Y-95337542D02*
X148911654Y-95280400D01*
X148911654Y-95280400D02*
X148854511Y-95166114D01*
X148854511Y-95166114D02*
X148854511Y-94708971D01*
X148854511Y-94708971D02*
X148911654Y-94594685D01*
X148911654Y-94594685D02*
X149025940Y-94537542D01*
X149025940Y-94537542D02*
X149254511Y-94537542D01*
X149254511Y-94537542D02*
X149368797Y-94594685D01*
X149368797Y-94594685D02*
X149425940Y-94708971D01*
X149425940Y-94708971D02*
X149425940Y-94823257D01*
X149425940Y-94823257D02*
X148854511Y-94937542D01*
X149940225Y-95337542D02*
X149940225Y-94537542D01*
X149940225Y-94766114D02*
X149997368Y-94651828D01*
X149997368Y-94651828D02*
X150054511Y-94594685D01*
X150054511Y-94594685D02*
X150168796Y-94537542D01*
X150168796Y-94537542D02*
X150283082Y-94537542D01*
X151425939Y-94137542D02*
X151825939Y-95337542D01*
X151825939Y-95337542D02*
X152225939Y-94137542D01*
X152854510Y-94137542D02*
X152968796Y-94137542D01*
X152968796Y-94137542D02*
X153083082Y-94194685D01*
X153083082Y-94194685D02*
X153140225Y-94251828D01*
X153140225Y-94251828D02*
X153197367Y-94366114D01*
X153197367Y-94366114D02*
X153254510Y-94594685D01*
X153254510Y-94594685D02*
X153254510Y-94880400D01*
X153254510Y-94880400D02*
X153197367Y-95108971D01*
X153197367Y-95108971D02*
X153140225Y-95223257D01*
X153140225Y-95223257D02*
X153083082Y-95280400D01*
X153083082Y-95280400D02*
X152968796Y-95337542D01*
X152968796Y-95337542D02*
X152854510Y-95337542D01*
X152854510Y-95337542D02*
X152740225Y-95280400D01*
X152740225Y-95280400D02*
X152683082Y-95223257D01*
X152683082Y-95223257D02*
X152625939Y-95108971D01*
X152625939Y-95108971D02*
X152568796Y-94880400D01*
X152568796Y-94880400D02*
X152568796Y-94594685D01*
X152568796Y-94594685D02*
X152625939Y-94366114D01*
X152625939Y-94366114D02*
X152683082Y-94251828D01*
X152683082Y-94251828D02*
X152740225Y-94194685D01*
X152740225Y-94194685D02*
X152854510Y-94137542D01*
X153768796Y-95223257D02*
X153825939Y-95280400D01*
X153825939Y-95280400D02*
X153768796Y-95337542D01*
X153768796Y-95337542D02*
X153711653Y-95280400D01*
X153711653Y-95280400D02*
X153768796Y-95223257D01*
X153768796Y-95223257D02*
X153768796Y-95337542D01*
X154283082Y-94251828D02*
X154340225Y-94194685D01*
X154340225Y-94194685D02*
X154454511Y-94137542D01*
X154454511Y-94137542D02*
X154740225Y-94137542D01*
X154740225Y-94137542D02*
X154854511Y-94194685D01*
X154854511Y-94194685D02*
X154911653Y-94251828D01*
X154911653Y-94251828D02*
X154968796Y-94366114D01*
X154968796Y-94366114D02*
X154968796Y-94480400D01*
X154968796Y-94480400D02*
X154911653Y-94651828D01*
X154911653Y-94651828D02*
X154225939Y-95337542D01*
X154225939Y-95337542D02*
X154968796Y-95337542D01*
D11*
X157917292Y-94885600D02*
X158831578Y-94885600D01*
X170917292Y-94885600D02*
X171831578Y-94885600D01*
X171374435Y-95342742D02*
X171374435Y-94428457D01*
D12*
X171431009Y-92238095D02*
X171478628Y-92095238D01*
X171478628Y-92095238D02*
X171526247Y-92047619D01*
X171526247Y-92047619D02*
X171621485Y-92000000D01*
X171621485Y-92000000D02*
X171764342Y-92000000D01*
X171764342Y-92000000D02*
X171859580Y-92047619D01*
X171859580Y-92047619D02*
X171907200Y-92095238D01*
X171907200Y-92095238D02*
X171954819Y-92190476D01*
X171954819Y-92190476D02*
X171954819Y-92571428D01*
X171954819Y-92571428D02*
X170954819Y-92571428D01*
X170954819Y-92571428D02*
X170954819Y-92238095D01*
X170954819Y-92238095D02*
X171002438Y-92142857D01*
X171002438Y-92142857D02*
X171050057Y-92095238D01*
X171050057Y-92095238D02*
X171145295Y-92047619D01*
X171145295Y-92047619D02*
X171240533Y-92047619D01*
X171240533Y-92047619D02*
X171335771Y-92095238D01*
X171335771Y-92095238D02*
X171383390Y-92142857D01*
X171383390Y-92142857D02*
X171431009Y-92238095D01*
X171431009Y-92238095D02*
X171431009Y-92571428D01*
X171669104Y-91619047D02*
X171669104Y-91142857D01*
X171954819Y-91714285D02*
X170954819Y-91380952D01*
X170954819Y-91380952D02*
X171954819Y-91047619D01*
X170954819Y-90857142D02*
X170954819Y-90285714D01*
X171954819Y-90571428D02*
X170954819Y-90571428D01*
X106690476Y-84454819D02*
X106690476Y-83454819D01*
X106690476Y-83454819D02*
X107023809Y-84169104D01*
X107023809Y-84169104D02*
X107357142Y-83454819D01*
X107357142Y-83454819D02*
X107357142Y-84454819D01*
X107785714Y-83550057D02*
X107833333Y-83502438D01*
X107833333Y-83502438D02*
X107928571Y-83454819D01*
X107928571Y-83454819D02*
X108166666Y-83454819D01*
X108166666Y-83454819D02*
X108261904Y-83502438D01*
X108261904Y-83502438D02*
X108309523Y-83550057D01*
X108309523Y-83550057D02*
X108357142Y-83645295D01*
X108357142Y-83645295D02*
X108357142Y-83740533D01*
X108357142Y-83740533D02*
X108309523Y-83883390D01*
X108309523Y-83883390D02*
X107738095Y-84454819D01*
X107738095Y-84454819D02*
X108357142Y-84454819D01*
X106690476Y-71454819D02*
X106690476Y-70454819D01*
X106690476Y-70454819D02*
X107023809Y-71169104D01*
X107023809Y-71169104D02*
X107357142Y-70454819D01*
X107357142Y-70454819D02*
X107357142Y-71454819D01*
X108357142Y-71454819D02*
X107785714Y-71454819D01*
X108071428Y-71454819D02*
X108071428Y-70454819D01*
X108071428Y-70454819D02*
X107976190Y-70597676D01*
X107976190Y-70597676D02*
X107880952Y-70692914D01*
X107880952Y-70692914D02*
X107785714Y-70740533D01*
X156454819Y-62023809D02*
X155978628Y-62357142D01*
X156454819Y-62595237D02*
X155454819Y-62595237D01*
X155454819Y-62595237D02*
X155454819Y-62214285D01*
X155454819Y-62214285D02*
X155502438Y-62119047D01*
X155502438Y-62119047D02*
X155550057Y-62071428D01*
X155550057Y-62071428D02*
X155645295Y-62023809D01*
X155645295Y-62023809D02*
X155788152Y-62023809D01*
X155788152Y-62023809D02*
X155883390Y-62071428D01*
X155883390Y-62071428D02*
X155931009Y-62119047D01*
X155931009Y-62119047D02*
X155978628Y-62214285D01*
X155978628Y-62214285D02*
X155978628Y-62595237D01*
X155454819Y-61309523D02*
X156169104Y-61309523D01*
X156169104Y-61309523D02*
X156311961Y-61357142D01*
X156311961Y-61357142D02*
X156407200Y-61452380D01*
X156407200Y-61452380D02*
X156454819Y-61595237D01*
X156454819Y-61595237D02*
X156454819Y-61690475D01*
X156454819Y-60309523D02*
X156454819Y-60880951D01*
X156454819Y-60595237D02*
X155454819Y-60595237D01*
X155454819Y-60595237D02*
X155597676Y-60690475D01*
X155597676Y-60690475D02*
X155692914Y-60785713D01*
X155692914Y-60785713D02*
X155740533Y-60880951D01*
X155550057Y-59928570D02*
X155502438Y-59880951D01*
X155502438Y-59880951D02*
X155454819Y-59785713D01*
X155454819Y-59785713D02*
X155454819Y-59547618D01*
X155454819Y-59547618D02*
X155502438Y-59452380D01*
X155502438Y-59452380D02*
X155550057Y-59404761D01*
X155550057Y-59404761D02*
X155645295Y-59357142D01*
X155645295Y-59357142D02*
X155740533Y-59357142D01*
X155740533Y-59357142D02*
X155883390Y-59404761D01*
X155883390Y-59404761D02*
X156454819Y-59976189D01*
X156454819Y-59976189D02*
X156454819Y-59357142D01*
X163476190Y-66349819D02*
X163142857Y-65873628D01*
X162904762Y-66349819D02*
X162904762Y-65349819D01*
X162904762Y-65349819D02*
X163285714Y-65349819D01*
X163285714Y-65349819D02*
X163380952Y-65397438D01*
X163380952Y-65397438D02*
X163428571Y-65445057D01*
X163428571Y-65445057D02*
X163476190Y-65540295D01*
X163476190Y-65540295D02*
X163476190Y-65683152D01*
X163476190Y-65683152D02*
X163428571Y-65778390D01*
X163428571Y-65778390D02*
X163380952Y-65826009D01*
X163380952Y-65826009D02*
X163285714Y-65873628D01*
X163285714Y-65873628D02*
X162904762Y-65873628D01*
X164190476Y-65349819D02*
X164190476Y-66064104D01*
X164190476Y-66064104D02*
X164142857Y-66206961D01*
X164142857Y-66206961D02*
X164047619Y-66302200D01*
X164047619Y-66302200D02*
X163904762Y-66349819D01*
X163904762Y-66349819D02*
X163809524Y-66349819D01*
X165190476Y-66349819D02*
X164619048Y-66349819D01*
X164904762Y-66349819D02*
X164904762Y-65349819D01*
X164904762Y-65349819D02*
X164809524Y-65492676D01*
X164809524Y-65492676D02*
X164714286Y-65587914D01*
X164714286Y-65587914D02*
X164619048Y-65635533D01*
X165571429Y-65445057D02*
X165619048Y-65397438D01*
X165619048Y-65397438D02*
X165714286Y-65349819D01*
X165714286Y-65349819D02*
X165952381Y-65349819D01*
X165952381Y-65349819D02*
X166047619Y-65397438D01*
X166047619Y-65397438D02*
X166095238Y-65445057D01*
X166095238Y-65445057D02*
X166142857Y-65540295D01*
X166142857Y-65540295D02*
X166142857Y-65635533D01*
X166142857Y-65635533D02*
X166095238Y-65778390D01*
X166095238Y-65778390D02*
X165523810Y-66349819D01*
X165523810Y-66349819D02*
X166142857Y-66349819D01*
D13*
X130957419Y-61976189D02*
X129957419Y-61976189D01*
X130862180Y-60928571D02*
X130909800Y-60976190D01*
X130909800Y-60976190D02*
X130957419Y-61119047D01*
X130957419Y-61119047D02*
X130957419Y-61214285D01*
X130957419Y-61214285D02*
X130909800Y-61357142D01*
X130909800Y-61357142D02*
X130814561Y-61452380D01*
X130814561Y-61452380D02*
X130719323Y-61499999D01*
X130719323Y-61499999D02*
X130528847Y-61547618D01*
X130528847Y-61547618D02*
X130385990Y-61547618D01*
X130385990Y-61547618D02*
X130195514Y-61499999D01*
X130195514Y-61499999D02*
X130100276Y-61452380D01*
X130100276Y-61452380D02*
X130005038Y-61357142D01*
X130005038Y-61357142D02*
X129957419Y-61214285D01*
X129957419Y-61214285D02*
X129957419Y-61119047D01*
X129957419Y-61119047D02*
X130005038Y-60976190D01*
X130005038Y-60976190D02*
X130052657Y-60928571D01*
X130957419Y-59976190D02*
X130957419Y-60547618D01*
X130957419Y-60261904D02*
X129957419Y-60261904D01*
X129957419Y-60261904D02*
X130100276Y-60357142D01*
X130100276Y-60357142D02*
X130195514Y-60452380D01*
X130195514Y-60452380D02*
X130243133Y-60547618D01*
D12*
X135447619Y-71571009D02*
X135780952Y-71571009D01*
X135923809Y-72094819D02*
X135447619Y-72094819D01*
X135447619Y-72094819D02*
X135447619Y-71094819D01*
X135447619Y-71094819D02*
X135923809Y-71094819D01*
X136304762Y-72047200D02*
X136447619Y-72094819D01*
X136447619Y-72094819D02*
X136685714Y-72094819D01*
X136685714Y-72094819D02*
X136780952Y-72047200D01*
X136780952Y-72047200D02*
X136828571Y-71999580D01*
X136828571Y-71999580D02*
X136876190Y-71904342D01*
X136876190Y-71904342D02*
X136876190Y-71809104D01*
X136876190Y-71809104D02*
X136828571Y-71713866D01*
X136828571Y-71713866D02*
X136780952Y-71666247D01*
X136780952Y-71666247D02*
X136685714Y-71618628D01*
X136685714Y-71618628D02*
X136495238Y-71571009D01*
X136495238Y-71571009D02*
X136400000Y-71523390D01*
X136400000Y-71523390D02*
X136352381Y-71475771D01*
X136352381Y-71475771D02*
X136304762Y-71380533D01*
X136304762Y-71380533D02*
X136304762Y-71285295D01*
X136304762Y-71285295D02*
X136352381Y-71190057D01*
X136352381Y-71190057D02*
X136400000Y-71142438D01*
X136400000Y-71142438D02*
X136495238Y-71094819D01*
X136495238Y-71094819D02*
X136733333Y-71094819D01*
X136733333Y-71094819D02*
X136876190Y-71142438D01*
X137304762Y-72094819D02*
X137304762Y-71094819D01*
X137304762Y-71094819D02*
X137685714Y-71094819D01*
X137685714Y-71094819D02*
X137780952Y-71142438D01*
X137780952Y-71142438D02*
X137828571Y-71190057D01*
X137828571Y-71190057D02*
X137876190Y-71285295D01*
X137876190Y-71285295D02*
X137876190Y-71428152D01*
X137876190Y-71428152D02*
X137828571Y-71523390D01*
X137828571Y-71523390D02*
X137780952Y-71571009D01*
X137780952Y-71571009D02*
X137685714Y-71618628D01*
X137685714Y-71618628D02*
X137304762Y-71618628D01*
X138209524Y-71094819D02*
X138828571Y-71094819D01*
X138828571Y-71094819D02*
X138495238Y-71475771D01*
X138495238Y-71475771D02*
X138638095Y-71475771D01*
X138638095Y-71475771D02*
X138733333Y-71523390D01*
X138733333Y-71523390D02*
X138780952Y-71571009D01*
X138780952Y-71571009D02*
X138828571Y-71666247D01*
X138828571Y-71666247D02*
X138828571Y-71904342D01*
X138828571Y-71904342D02*
X138780952Y-71999580D01*
X138780952Y-71999580D02*
X138733333Y-72047200D01*
X138733333Y-72047200D02*
X138638095Y-72094819D01*
X138638095Y-72094819D02*
X138352381Y-72094819D01*
X138352381Y-72094819D02*
X138257143Y-72047200D01*
X138257143Y-72047200D02*
X138209524Y-71999580D01*
X139209524Y-71190057D02*
X139257143Y-71142438D01*
X139257143Y-71142438D02*
X139352381Y-71094819D01*
X139352381Y-71094819D02*
X139590476Y-71094819D01*
X139590476Y-71094819D02*
X139685714Y-71142438D01*
X139685714Y-71142438D02*
X139733333Y-71190057D01*
X139733333Y-71190057D02*
X139780952Y-71285295D01*
X139780952Y-71285295D02*
X139780952Y-71380533D01*
X139780952Y-71380533D02*
X139733333Y-71523390D01*
X139733333Y-71523390D02*
X139161905Y-72094819D01*
X139161905Y-72094819D02*
X139780952Y-72094819D01*
X140209524Y-71713866D02*
X140971429Y-71713866D01*
X141352381Y-71094819D02*
X141590476Y-72094819D01*
X141590476Y-72094819D02*
X141780952Y-71380533D01*
X141780952Y-71380533D02*
X141971428Y-72094819D01*
X141971428Y-72094819D02*
X142209524Y-71094819D01*
X143161904Y-72094819D02*
X142828571Y-71618628D01*
X142590476Y-72094819D02*
X142590476Y-71094819D01*
X142590476Y-71094819D02*
X142971428Y-71094819D01*
X142971428Y-71094819D02*
X143066666Y-71142438D01*
X143066666Y-71142438D02*
X143114285Y-71190057D01*
X143114285Y-71190057D02*
X143161904Y-71285295D01*
X143161904Y-71285295D02*
X143161904Y-71428152D01*
X143161904Y-71428152D02*
X143114285Y-71523390D01*
X143114285Y-71523390D02*
X143066666Y-71571009D01*
X143066666Y-71571009D02*
X142971428Y-71618628D01*
X142971428Y-71618628D02*
X142590476Y-71618628D01*
X143780952Y-71094819D02*
X143971428Y-71094819D01*
X143971428Y-71094819D02*
X144066666Y-71142438D01*
X144066666Y-71142438D02*
X144161904Y-71237676D01*
X144161904Y-71237676D02*
X144209523Y-71428152D01*
X144209523Y-71428152D02*
X144209523Y-71761485D01*
X144209523Y-71761485D02*
X144161904Y-71951961D01*
X144161904Y-71951961D02*
X144066666Y-72047200D01*
X144066666Y-72047200D02*
X143971428Y-72094819D01*
X143971428Y-72094819D02*
X143780952Y-72094819D01*
X143780952Y-72094819D02*
X143685714Y-72047200D01*
X143685714Y-72047200D02*
X143590476Y-71951961D01*
X143590476Y-71951961D02*
X143542857Y-71761485D01*
X143542857Y-71761485D02*
X143542857Y-71428152D01*
X143542857Y-71428152D02*
X143590476Y-71237676D01*
X143590476Y-71237676D02*
X143685714Y-71142438D01*
X143685714Y-71142438D02*
X143780952Y-71094819D01*
X144828571Y-71094819D02*
X145019047Y-71094819D01*
X145019047Y-71094819D02*
X145114285Y-71142438D01*
X145114285Y-71142438D02*
X145209523Y-71237676D01*
X145209523Y-71237676D02*
X145257142Y-71428152D01*
X145257142Y-71428152D02*
X145257142Y-71761485D01*
X145257142Y-71761485D02*
X145209523Y-71951961D01*
X145209523Y-71951961D02*
X145114285Y-72047200D01*
X145114285Y-72047200D02*
X145019047Y-72094819D01*
X145019047Y-72094819D02*
X144828571Y-72094819D01*
X144828571Y-72094819D02*
X144733333Y-72047200D01*
X144733333Y-72047200D02*
X144638095Y-71951961D01*
X144638095Y-71951961D02*
X144590476Y-71761485D01*
X144590476Y-71761485D02*
X144590476Y-71428152D01*
X144590476Y-71428152D02*
X144638095Y-71237676D01*
X144638095Y-71237676D02*
X144733333Y-71142438D01*
X144733333Y-71142438D02*
X144828571Y-71094819D01*
X145685714Y-72094819D02*
X145685714Y-71094819D01*
X145685714Y-71094819D02*
X146019047Y-71809104D01*
X146019047Y-71809104D02*
X146352380Y-71094819D01*
X146352380Y-71094819D02*
X146352380Y-72094819D01*
X127690476Y-95454819D02*
X127690476Y-94454819D01*
X127690476Y-94454819D02*
X128023809Y-95169104D01*
X128023809Y-95169104D02*
X128357142Y-94454819D01*
X128357142Y-94454819D02*
X128357142Y-95454819D01*
X129261904Y-94788152D02*
X129261904Y-95454819D01*
X129023809Y-94407200D02*
X128785714Y-95121485D01*
X128785714Y-95121485D02*
X129404761Y-95121485D01*
X112190476Y-84454819D02*
X112190476Y-83454819D01*
X112190476Y-83454819D02*
X112523809Y-84169104D01*
X112523809Y-84169104D02*
X112857142Y-83454819D01*
X112857142Y-83454819D02*
X112857142Y-84454819D01*
X113238095Y-83454819D02*
X113857142Y-83454819D01*
X113857142Y-83454819D02*
X113523809Y-83835771D01*
X113523809Y-83835771D02*
X113666666Y-83835771D01*
X113666666Y-83835771D02*
X113761904Y-83883390D01*
X113761904Y-83883390D02*
X113809523Y-83931009D01*
X113809523Y-83931009D02*
X113857142Y-84026247D01*
X113857142Y-84026247D02*
X113857142Y-84264342D01*
X113857142Y-84264342D02*
X113809523Y-84359580D01*
X113809523Y-84359580D02*
X113761904Y-84407200D01*
X113761904Y-84407200D02*
X113666666Y-84454819D01*
X113666666Y-84454819D02*
X113380952Y-84454819D01*
X113380952Y-84454819D02*
X113285714Y-84407200D01*
X113285714Y-84407200D02*
X113238095Y-84359580D01*
X153166666Y-88954819D02*
X153166666Y-89669104D01*
X153166666Y-89669104D02*
X153119047Y-89811961D01*
X153119047Y-89811961D02*
X153023809Y-89907200D01*
X153023809Y-89907200D02*
X152880952Y-89954819D01*
X152880952Y-89954819D02*
X152785714Y-89954819D01*
X154071428Y-89288152D02*
X154071428Y-89954819D01*
X153833333Y-88907200D02*
X153595238Y-89621485D01*
X153595238Y-89621485D02*
X154214285Y-89621485D01*
X153166666Y-85444819D02*
X153166666Y-86159104D01*
X153166666Y-86159104D02*
X153119047Y-86301961D01*
X153119047Y-86301961D02*
X153023809Y-86397200D01*
X153023809Y-86397200D02*
X152880952Y-86444819D01*
X152880952Y-86444819D02*
X152785714Y-86444819D01*
X153547619Y-85444819D02*
X154166666Y-85444819D01*
X154166666Y-85444819D02*
X153833333Y-85825771D01*
X153833333Y-85825771D02*
X153976190Y-85825771D01*
X153976190Y-85825771D02*
X154071428Y-85873390D01*
X154071428Y-85873390D02*
X154119047Y-85921009D01*
X154119047Y-85921009D02*
X154166666Y-86016247D01*
X154166666Y-86016247D02*
X154166666Y-86254342D01*
X154166666Y-86254342D02*
X154119047Y-86349580D01*
X154119047Y-86349580D02*
X154071428Y-86397200D01*
X154071428Y-86397200D02*
X153976190Y-86444819D01*
X153976190Y-86444819D02*
X153690476Y-86444819D01*
X153690476Y-86444819D02*
X153595238Y-86397200D01*
X153595238Y-86397200D02*
X153547619Y-86349580D01*
X127666666Y-85954819D02*
X127666666Y-86669104D01*
X127666666Y-86669104D02*
X127619047Y-86811961D01*
X127619047Y-86811961D02*
X127523809Y-86907200D01*
X127523809Y-86907200D02*
X127380952Y-86954819D01*
X127380952Y-86954819D02*
X127285714Y-86954819D01*
X128095238Y-86050057D02*
X128142857Y-86002438D01*
X128142857Y-86002438D02*
X128238095Y-85954819D01*
X128238095Y-85954819D02*
X128476190Y-85954819D01*
X128476190Y-85954819D02*
X128571428Y-86002438D01*
X128571428Y-86002438D02*
X128619047Y-86050057D01*
X128619047Y-86050057D02*
X128666666Y-86145295D01*
X128666666Y-86145295D02*
X128666666Y-86240533D01*
X128666666Y-86240533D02*
X128619047Y-86383390D01*
X128619047Y-86383390D02*
X128047619Y-86954819D01*
X128047619Y-86954819D02*
X128666666Y-86954819D01*
D14*
X167866667Y-81363855D02*
X167600000Y-80982902D01*
X167409524Y-81363855D02*
X167409524Y-80563855D01*
X167409524Y-80563855D02*
X167714286Y-80563855D01*
X167714286Y-80563855D02*
X167790476Y-80601950D01*
X167790476Y-80601950D02*
X167828571Y-80640045D01*
X167828571Y-80640045D02*
X167866667Y-80716236D01*
X167866667Y-80716236D02*
X167866667Y-80830521D01*
X167866667Y-80830521D02*
X167828571Y-80906712D01*
X167828571Y-80906712D02*
X167790476Y-80944807D01*
X167790476Y-80944807D02*
X167714286Y-80982902D01*
X167714286Y-80982902D02*
X167409524Y-80982902D01*
X168133333Y-80563855D02*
X168628571Y-80563855D01*
X168628571Y-80563855D02*
X168361905Y-80868617D01*
X168361905Y-80868617D02*
X168476190Y-80868617D01*
X168476190Y-80868617D02*
X168552381Y-80906712D01*
X168552381Y-80906712D02*
X168590476Y-80944807D01*
X168590476Y-80944807D02*
X168628571Y-81020998D01*
X168628571Y-81020998D02*
X168628571Y-81211474D01*
X168628571Y-81211474D02*
X168590476Y-81287664D01*
X168590476Y-81287664D02*
X168552381Y-81325760D01*
X168552381Y-81325760D02*
X168476190Y-81363855D01*
X168476190Y-81363855D02*
X168247619Y-81363855D01*
X168247619Y-81363855D02*
X168171428Y-81325760D01*
X168171428Y-81325760D02*
X168133333Y-81287664D01*
X170485714Y-81363855D02*
X170104762Y-81363855D01*
X170104762Y-81363855D02*
X170104762Y-80563855D01*
X170752381Y-80944807D02*
X171019047Y-80944807D01*
X171133333Y-81363855D02*
X170752381Y-81363855D01*
X170752381Y-81363855D02*
X170752381Y-80563855D01*
X170752381Y-80563855D02*
X171133333Y-80563855D01*
X171476191Y-81363855D02*
X171476191Y-80563855D01*
X171476191Y-80563855D02*
X171666667Y-80563855D01*
X171666667Y-80563855D02*
X171780953Y-80601950D01*
X171780953Y-80601950D02*
X171857143Y-80678140D01*
X171857143Y-80678140D02*
X171895238Y-80754331D01*
X171895238Y-80754331D02*
X171933334Y-80906712D01*
X171933334Y-80906712D02*
X171933334Y-81020998D01*
X171933334Y-81020998D02*
X171895238Y-81173379D01*
X171895238Y-81173379D02*
X171857143Y-81249569D01*
X171857143Y-81249569D02*
X171780953Y-81325760D01*
X171780953Y-81325760D02*
X171666667Y-81363855D01*
X171666667Y-81363855D02*
X171476191Y-81363855D01*
D12*
X160238095Y-73954819D02*
X160238095Y-74764342D01*
X160238095Y-74764342D02*
X160285714Y-74859580D01*
X160285714Y-74859580D02*
X160333333Y-74907200D01*
X160333333Y-74907200D02*
X160428571Y-74954819D01*
X160428571Y-74954819D02*
X160619047Y-74954819D01*
X160619047Y-74954819D02*
X160714285Y-74907200D01*
X160714285Y-74907200D02*
X160761904Y-74859580D01*
X160761904Y-74859580D02*
X160809523Y-74764342D01*
X160809523Y-74764342D02*
X160809523Y-73954819D01*
X161809523Y-74954819D02*
X161238095Y-74954819D01*
X161523809Y-74954819D02*
X161523809Y-73954819D01*
X161523809Y-73954819D02*
X161428571Y-74097676D01*
X161428571Y-74097676D02*
X161333333Y-74192914D01*
X161333333Y-74192914D02*
X161238095Y-74240533D01*
D14*
X167866667Y-79363855D02*
X167600000Y-78982902D01*
X167409524Y-79363855D02*
X167409524Y-78563855D01*
X167409524Y-78563855D02*
X167714286Y-78563855D01*
X167714286Y-78563855D02*
X167790476Y-78601950D01*
X167790476Y-78601950D02*
X167828571Y-78640045D01*
X167828571Y-78640045D02*
X167866667Y-78716236D01*
X167866667Y-78716236D02*
X167866667Y-78830521D01*
X167866667Y-78830521D02*
X167828571Y-78906712D01*
X167828571Y-78906712D02*
X167790476Y-78944807D01*
X167790476Y-78944807D02*
X167714286Y-78982902D01*
X167714286Y-78982902D02*
X167409524Y-78982902D01*
X168171428Y-78640045D02*
X168209524Y-78601950D01*
X168209524Y-78601950D02*
X168285714Y-78563855D01*
X168285714Y-78563855D02*
X168476190Y-78563855D01*
X168476190Y-78563855D02*
X168552381Y-78601950D01*
X168552381Y-78601950D02*
X168590476Y-78640045D01*
X168590476Y-78640045D02*
X168628571Y-78716236D01*
X168628571Y-78716236D02*
X168628571Y-78792426D01*
X168628571Y-78792426D02*
X168590476Y-78906712D01*
X168590476Y-78906712D02*
X168133333Y-79363855D01*
X168133333Y-79363855D02*
X168628571Y-79363855D01*
X170866667Y-79363855D02*
X170600000Y-78982902D01*
X170409524Y-79363855D02*
X170409524Y-78563855D01*
X170409524Y-78563855D02*
X170714286Y-78563855D01*
X170714286Y-78563855D02*
X170790476Y-78601950D01*
X170790476Y-78601950D02*
X170828571Y-78640045D01*
X170828571Y-78640045D02*
X170866667Y-78716236D01*
X170866667Y-78716236D02*
X170866667Y-78830521D01*
X170866667Y-78830521D02*
X170828571Y-78906712D01*
X170828571Y-78906712D02*
X170790476Y-78944807D01*
X170790476Y-78944807D02*
X170714286Y-78982902D01*
X170714286Y-78982902D02*
X170409524Y-78982902D01*
X171628571Y-79363855D02*
X171171428Y-79363855D01*
X171400000Y-79363855D02*
X171400000Y-78563855D01*
X171400000Y-78563855D02*
X171323809Y-78678140D01*
X171323809Y-78678140D02*
X171247619Y-78754331D01*
X171247619Y-78754331D02*
X171171428Y-78792426D01*
D12*
X119023810Y-86954819D02*
X119023810Y-85954819D01*
X120071428Y-86859580D02*
X120023809Y-86907200D01*
X120023809Y-86907200D02*
X119880952Y-86954819D01*
X119880952Y-86954819D02*
X119785714Y-86954819D01*
X119785714Y-86954819D02*
X119642857Y-86907200D01*
X119642857Y-86907200D02*
X119547619Y-86811961D01*
X119547619Y-86811961D02*
X119500000Y-86716723D01*
X119500000Y-86716723D02*
X119452381Y-86526247D01*
X119452381Y-86526247D02*
X119452381Y-86383390D01*
X119452381Y-86383390D02*
X119500000Y-86192914D01*
X119500000Y-86192914D02*
X119547619Y-86097676D01*
X119547619Y-86097676D02*
X119642857Y-86002438D01*
X119642857Y-86002438D02*
X119785714Y-85954819D01*
X119785714Y-85954819D02*
X119880952Y-85954819D01*
X119880952Y-85954819D02*
X120023809Y-86002438D01*
X120023809Y-86002438D02*
X120071428Y-86050057D01*
X120976190Y-85954819D02*
X120500000Y-85954819D01*
X120500000Y-85954819D02*
X120452381Y-86431009D01*
X120452381Y-86431009D02*
X120500000Y-86383390D01*
X120500000Y-86383390D02*
X120595238Y-86335771D01*
X120595238Y-86335771D02*
X120833333Y-86335771D01*
X120833333Y-86335771D02*
X120928571Y-86383390D01*
X120928571Y-86383390D02*
X120976190Y-86431009D01*
X120976190Y-86431009D02*
X121023809Y-86526247D01*
X121023809Y-86526247D02*
X121023809Y-86764342D01*
X121023809Y-86764342D02*
X120976190Y-86859580D01*
X120976190Y-86859580D02*
X120928571Y-86907200D01*
X120928571Y-86907200D02*
X120833333Y-86954819D01*
X120833333Y-86954819D02*
X120595238Y-86954819D01*
X120595238Y-86954819D02*
X120500000Y-86907200D01*
X120500000Y-86907200D02*
X120452381Y-86859580D01*
D15*
X119484597Y-85326428D02*
X119484597Y-84812143D01*
X120384597Y-85069285D02*
X119484597Y-85069285D01*
X120298882Y-83997857D02*
X120341740Y-84040714D01*
X120341740Y-84040714D02*
X120384597Y-84169286D01*
X120384597Y-84169286D02*
X120384597Y-84255000D01*
X120384597Y-84255000D02*
X120341740Y-84383571D01*
X120341740Y-84383571D02*
X120256025Y-84469286D01*
X120256025Y-84469286D02*
X120170311Y-84512143D01*
X120170311Y-84512143D02*
X119998882Y-84555000D01*
X119998882Y-84555000D02*
X119870311Y-84555000D01*
X119870311Y-84555000D02*
X119698882Y-84512143D01*
X119698882Y-84512143D02*
X119613168Y-84469286D01*
X119613168Y-84469286D02*
X119527454Y-84383571D01*
X119527454Y-84383571D02*
X119484597Y-84255000D01*
X119484597Y-84255000D02*
X119484597Y-84169286D01*
X119484597Y-84169286D02*
X119527454Y-84040714D01*
X119527454Y-84040714D02*
X119570311Y-83997857D01*
X119784597Y-83226429D02*
X120384597Y-83226429D01*
X119441740Y-83440714D02*
X120084597Y-83655000D01*
X120084597Y-83655000D02*
X120084597Y-83097857D01*
X119784597Y-82369286D02*
X120384597Y-82369286D01*
X119441740Y-82583571D02*
X120084597Y-82797857D01*
X120084597Y-82797857D02*
X120084597Y-82240714D01*
X119570311Y-81940714D02*
X119527454Y-81897857D01*
X119527454Y-81897857D02*
X119484597Y-81812143D01*
X119484597Y-81812143D02*
X119484597Y-81597857D01*
X119484597Y-81597857D02*
X119527454Y-81512143D01*
X119527454Y-81512143D02*
X119570311Y-81469285D01*
X119570311Y-81469285D02*
X119656025Y-81426428D01*
X119656025Y-81426428D02*
X119741740Y-81426428D01*
X119741740Y-81426428D02*
X119870311Y-81469285D01*
X119870311Y-81469285D02*
X120384597Y-81983571D01*
X120384597Y-81983571D02*
X120384597Y-81426428D01*
X119484597Y-81126428D02*
X119484597Y-80526428D01*
X119484597Y-80526428D02*
X120384597Y-80912142D01*
D12*
X119023810Y-79954819D02*
X119023810Y-78954819D01*
X120071428Y-79859580D02*
X120023809Y-79907200D01*
X120023809Y-79907200D02*
X119880952Y-79954819D01*
X119880952Y-79954819D02*
X119785714Y-79954819D01*
X119785714Y-79954819D02*
X119642857Y-79907200D01*
X119642857Y-79907200D02*
X119547619Y-79811961D01*
X119547619Y-79811961D02*
X119500000Y-79716723D01*
X119500000Y-79716723D02*
X119452381Y-79526247D01*
X119452381Y-79526247D02*
X119452381Y-79383390D01*
X119452381Y-79383390D02*
X119500000Y-79192914D01*
X119500000Y-79192914D02*
X119547619Y-79097676D01*
X119547619Y-79097676D02*
X119642857Y-79002438D01*
X119642857Y-79002438D02*
X119785714Y-78954819D01*
X119785714Y-78954819D02*
X119880952Y-78954819D01*
X119880952Y-78954819D02*
X120023809Y-79002438D01*
X120023809Y-79002438D02*
X120071428Y-79050057D01*
X120928571Y-79288152D02*
X120928571Y-79954819D01*
X120690476Y-78907200D02*
X120452381Y-79621485D01*
X120452381Y-79621485D02*
X121071428Y-79621485D01*
D15*
X119484597Y-78516428D02*
X119484597Y-78002143D01*
X120384597Y-78259285D02*
X119484597Y-78259285D01*
X120298882Y-77187857D02*
X120341740Y-77230714D01*
X120341740Y-77230714D02*
X120384597Y-77359286D01*
X120384597Y-77359286D02*
X120384597Y-77445000D01*
X120384597Y-77445000D02*
X120341740Y-77573571D01*
X120341740Y-77573571D02*
X120256025Y-77659286D01*
X120256025Y-77659286D02*
X120170311Y-77702143D01*
X120170311Y-77702143D02*
X119998882Y-77745000D01*
X119998882Y-77745000D02*
X119870311Y-77745000D01*
X119870311Y-77745000D02*
X119698882Y-77702143D01*
X119698882Y-77702143D02*
X119613168Y-77659286D01*
X119613168Y-77659286D02*
X119527454Y-77573571D01*
X119527454Y-77573571D02*
X119484597Y-77445000D01*
X119484597Y-77445000D02*
X119484597Y-77359286D01*
X119484597Y-77359286D02*
X119527454Y-77230714D01*
X119527454Y-77230714D02*
X119570311Y-77187857D01*
X119784597Y-76416429D02*
X120384597Y-76416429D01*
X119441740Y-76630714D02*
X120084597Y-76845000D01*
X120084597Y-76845000D02*
X120084597Y-76287857D01*
X119784597Y-75559286D02*
X120384597Y-75559286D01*
X119441740Y-75773571D02*
X120084597Y-75987857D01*
X120084597Y-75987857D02*
X120084597Y-75430714D01*
X119570311Y-75130714D02*
X119527454Y-75087857D01*
X119527454Y-75087857D02*
X119484597Y-75002143D01*
X119484597Y-75002143D02*
X119484597Y-74787857D01*
X119484597Y-74787857D02*
X119527454Y-74702143D01*
X119527454Y-74702143D02*
X119570311Y-74659285D01*
X119570311Y-74659285D02*
X119656025Y-74616428D01*
X119656025Y-74616428D02*
X119741740Y-74616428D01*
X119741740Y-74616428D02*
X119870311Y-74659285D01*
X119870311Y-74659285D02*
X120384597Y-75173571D01*
X120384597Y-75173571D02*
X120384597Y-74616428D01*
X119484597Y-74316428D02*
X119484597Y-73716428D01*
X119484597Y-73716428D02*
X120384597Y-74102142D01*
D14*
X119219048Y-73363855D02*
X119219048Y-72563855D01*
X120057143Y-73287664D02*
X120019047Y-73325760D01*
X120019047Y-73325760D02*
X119904762Y-73363855D01*
X119904762Y-73363855D02*
X119828571Y-73363855D01*
X119828571Y-73363855D02*
X119714285Y-73325760D01*
X119714285Y-73325760D02*
X119638095Y-73249569D01*
X119638095Y-73249569D02*
X119600000Y-73173379D01*
X119600000Y-73173379D02*
X119561904Y-73020998D01*
X119561904Y-73020998D02*
X119561904Y-72906712D01*
X119561904Y-72906712D02*
X119600000Y-72754331D01*
X119600000Y-72754331D02*
X119638095Y-72678140D01*
X119638095Y-72678140D02*
X119714285Y-72601950D01*
X119714285Y-72601950D02*
X119828571Y-72563855D01*
X119828571Y-72563855D02*
X119904762Y-72563855D01*
X119904762Y-72563855D02*
X120019047Y-72601950D01*
X120019047Y-72601950D02*
X120057143Y-72640045D01*
X120323809Y-72563855D02*
X120819047Y-72563855D01*
X120819047Y-72563855D02*
X120552381Y-72868617D01*
X120552381Y-72868617D02*
X120666666Y-72868617D01*
X120666666Y-72868617D02*
X120742857Y-72906712D01*
X120742857Y-72906712D02*
X120780952Y-72944807D01*
X120780952Y-72944807D02*
X120819047Y-73020998D01*
X120819047Y-73020998D02*
X120819047Y-73211474D01*
X120819047Y-73211474D02*
X120780952Y-73287664D01*
X120780952Y-73287664D02*
X120742857Y-73325760D01*
X120742857Y-73325760D02*
X120666666Y-73363855D01*
X120666666Y-73363855D02*
X120438095Y-73363855D01*
X120438095Y-73363855D02*
X120361904Y-73325760D01*
X120361904Y-73325760D02*
X120323809Y-73287664D01*
D15*
X119509597Y-72016428D02*
X119509597Y-71502143D01*
X120409597Y-71759285D02*
X119509597Y-71759285D01*
X120323882Y-70687857D02*
X120366740Y-70730714D01*
X120366740Y-70730714D02*
X120409597Y-70859286D01*
X120409597Y-70859286D02*
X120409597Y-70945000D01*
X120409597Y-70945000D02*
X120366740Y-71073571D01*
X120366740Y-71073571D02*
X120281025Y-71159286D01*
X120281025Y-71159286D02*
X120195311Y-71202143D01*
X120195311Y-71202143D02*
X120023882Y-71245000D01*
X120023882Y-71245000D02*
X119895311Y-71245000D01*
X119895311Y-71245000D02*
X119723882Y-71202143D01*
X119723882Y-71202143D02*
X119638168Y-71159286D01*
X119638168Y-71159286D02*
X119552454Y-71073571D01*
X119552454Y-71073571D02*
X119509597Y-70945000D01*
X119509597Y-70945000D02*
X119509597Y-70859286D01*
X119509597Y-70859286D02*
X119552454Y-70730714D01*
X119552454Y-70730714D02*
X119595311Y-70687857D01*
X119809597Y-69916429D02*
X120409597Y-69916429D01*
X119466740Y-70130714D02*
X120109597Y-70345000D01*
X120109597Y-70345000D02*
X120109597Y-69787857D01*
X119809597Y-69059286D02*
X120409597Y-69059286D01*
X119466740Y-69273571D02*
X120109597Y-69487857D01*
X120109597Y-69487857D02*
X120109597Y-68930714D01*
X119595311Y-68630714D02*
X119552454Y-68587857D01*
X119552454Y-68587857D02*
X119509597Y-68502143D01*
X119509597Y-68502143D02*
X119509597Y-68287857D01*
X119509597Y-68287857D02*
X119552454Y-68202143D01*
X119552454Y-68202143D02*
X119595311Y-68159285D01*
X119595311Y-68159285D02*
X119681025Y-68116428D01*
X119681025Y-68116428D02*
X119766740Y-68116428D01*
X119766740Y-68116428D02*
X119895311Y-68159285D01*
X119895311Y-68159285D02*
X120409597Y-68673571D01*
X120409597Y-68673571D02*
X120409597Y-68116428D01*
X119509597Y-67816428D02*
X119509597Y-67216428D01*
X119509597Y-67216428D02*
X120409597Y-67602142D01*
D12*
X119023810Y-65954819D02*
X119023810Y-64954819D01*
X120071428Y-65859580D02*
X120023809Y-65907200D01*
X120023809Y-65907200D02*
X119880952Y-65954819D01*
X119880952Y-65954819D02*
X119785714Y-65954819D01*
X119785714Y-65954819D02*
X119642857Y-65907200D01*
X119642857Y-65907200D02*
X119547619Y-65811961D01*
X119547619Y-65811961D02*
X119500000Y-65716723D01*
X119500000Y-65716723D02*
X119452381Y-65526247D01*
X119452381Y-65526247D02*
X119452381Y-65383390D01*
X119452381Y-65383390D02*
X119500000Y-65192914D01*
X119500000Y-65192914D02*
X119547619Y-65097676D01*
X119547619Y-65097676D02*
X119642857Y-65002438D01*
X119642857Y-65002438D02*
X119785714Y-64954819D01*
X119785714Y-64954819D02*
X119880952Y-64954819D01*
X119880952Y-64954819D02*
X120023809Y-65002438D01*
X120023809Y-65002438D02*
X120071428Y-65050057D01*
X120452381Y-65050057D02*
X120500000Y-65002438D01*
X120500000Y-65002438D02*
X120595238Y-64954819D01*
X120595238Y-64954819D02*
X120833333Y-64954819D01*
X120833333Y-64954819D02*
X120928571Y-65002438D01*
X120928571Y-65002438D02*
X120976190Y-65050057D01*
X120976190Y-65050057D02*
X121023809Y-65145295D01*
X121023809Y-65145295D02*
X121023809Y-65240533D01*
X121023809Y-65240533D02*
X120976190Y-65383390D01*
X120976190Y-65383390D02*
X120404762Y-65954819D01*
X120404762Y-65954819D02*
X121023809Y-65954819D01*
D15*
X119484597Y-64326428D02*
X119484597Y-63812143D01*
X120384597Y-64069285D02*
X119484597Y-64069285D01*
X120298882Y-62997857D02*
X120341740Y-63040714D01*
X120341740Y-63040714D02*
X120384597Y-63169286D01*
X120384597Y-63169286D02*
X120384597Y-63255000D01*
X120384597Y-63255000D02*
X120341740Y-63383571D01*
X120341740Y-63383571D02*
X120256025Y-63469286D01*
X120256025Y-63469286D02*
X120170311Y-63512143D01*
X120170311Y-63512143D02*
X119998882Y-63555000D01*
X119998882Y-63555000D02*
X119870311Y-63555000D01*
X119870311Y-63555000D02*
X119698882Y-63512143D01*
X119698882Y-63512143D02*
X119613168Y-63469286D01*
X119613168Y-63469286D02*
X119527454Y-63383571D01*
X119527454Y-63383571D02*
X119484597Y-63255000D01*
X119484597Y-63255000D02*
X119484597Y-63169286D01*
X119484597Y-63169286D02*
X119527454Y-63040714D01*
X119527454Y-63040714D02*
X119570311Y-62997857D01*
X119784597Y-62226429D02*
X120384597Y-62226429D01*
X119441740Y-62440714D02*
X120084597Y-62655000D01*
X120084597Y-62655000D02*
X120084597Y-62097857D01*
X119784597Y-61369286D02*
X120384597Y-61369286D01*
X119441740Y-61583571D02*
X120084597Y-61797857D01*
X120084597Y-61797857D02*
X120084597Y-61240714D01*
X119570311Y-60940714D02*
X119527454Y-60897857D01*
X119527454Y-60897857D02*
X119484597Y-60812143D01*
X119484597Y-60812143D02*
X119484597Y-60597857D01*
X119484597Y-60597857D02*
X119527454Y-60512143D01*
X119527454Y-60512143D02*
X119570311Y-60469285D01*
X119570311Y-60469285D02*
X119656025Y-60426428D01*
X119656025Y-60426428D02*
X119741740Y-60426428D01*
X119741740Y-60426428D02*
X119870311Y-60469285D01*
X119870311Y-60469285D02*
X120384597Y-60983571D01*
X120384597Y-60983571D02*
X120384597Y-60426428D01*
X119484597Y-60126428D02*
X119484597Y-59526428D01*
X119484597Y-59526428D02*
X120384597Y-59912142D01*
D12*
X163333333Y-85859580D02*
X163285714Y-85907200D01*
X163285714Y-85907200D02*
X163142857Y-85954819D01*
X163142857Y-85954819D02*
X163047619Y-85954819D01*
X163047619Y-85954819D02*
X162904762Y-85907200D01*
X162904762Y-85907200D02*
X162809524Y-85811961D01*
X162809524Y-85811961D02*
X162761905Y-85716723D01*
X162761905Y-85716723D02*
X162714286Y-85526247D01*
X162714286Y-85526247D02*
X162714286Y-85383390D01*
X162714286Y-85383390D02*
X162761905Y-85192914D01*
X162761905Y-85192914D02*
X162809524Y-85097676D01*
X162809524Y-85097676D02*
X162904762Y-85002438D01*
X162904762Y-85002438D02*
X163047619Y-84954819D01*
X163047619Y-84954819D02*
X163142857Y-84954819D01*
X163142857Y-84954819D02*
X163285714Y-85002438D01*
X163285714Y-85002438D02*
X163333333Y-85050057D01*
X164285714Y-85954819D02*
X163714286Y-85954819D01*
X164000000Y-85954819D02*
X164000000Y-84954819D01*
X164000000Y-84954819D02*
X163904762Y-85097676D01*
X163904762Y-85097676D02*
X163809524Y-85192914D01*
X163809524Y-85192914D02*
X163714286Y-85240533D01*
D16*
%TO.C,G\u002A\u002A\u002A*%
G36*
X135314132Y-94000000D02*
G01*
X135314132Y-96403785D01*
X132906340Y-96403785D01*
X130498549Y-96403785D01*
X130498549Y-94000000D01*
X130498549Y-92886246D01*
X132766119Y-92886246D01*
X132766119Y-94244385D01*
X132766119Y-95602524D01*
X133038549Y-95602524D01*
X133310978Y-95602524D01*
X133311136Y-94667050D01*
X133311230Y-94521691D01*
X133311457Y-94385555D01*
X133311812Y-94259292D01*
X133312290Y-94143554D01*
X133312885Y-94038990D01*
X133313592Y-93946249D01*
X133314406Y-93865982D01*
X133315322Y-93798838D01*
X133316334Y-93745468D01*
X133317436Y-93706522D01*
X133318625Y-93682650D01*
X133319204Y-93676876D01*
X133337191Y-93606766D01*
X133369417Y-93542799D01*
X133414814Y-93486364D01*
X133472318Y-93438850D01*
X133524846Y-93408897D01*
X133587413Y-93379022D01*
X134054148Y-93376714D01*
X134520883Y-93374406D01*
X134520883Y-93130326D01*
X134520883Y-92886246D01*
X133643501Y-92886246D01*
X132766119Y-92886246D01*
X130498549Y-92886246D01*
X130498549Y-92341388D01*
X131275772Y-92341388D01*
X131275772Y-92609811D01*
X131275772Y-92878233D01*
X132016940Y-92878233D01*
X132758107Y-92878233D01*
X132758107Y-92609811D01*
X132758107Y-92341388D01*
X132016940Y-92341388D01*
X131275772Y-92341388D01*
X130498549Y-92341388D01*
X130498549Y-91596215D01*
X132906340Y-91596215D01*
X135314132Y-91596215D01*
X135314132Y-94000000D01*
G37*
G36*
X142501451Y-94000000D02*
G01*
X142501451Y-96403785D01*
X138999937Y-96403785D01*
X135498422Y-96403785D01*
X135498422Y-94000000D01*
X135498422Y-92629842D01*
X136556088Y-92629842D01*
X136556088Y-93943912D01*
X136556088Y-95257981D01*
X136780441Y-95257981D01*
X137004795Y-95257981D01*
X137004795Y-94693091D01*
X137004795Y-94128202D01*
X137513596Y-94128202D01*
X138022397Y-94128202D01*
X138022397Y-93935899D01*
X138022397Y-93743596D01*
X137513596Y-93743596D01*
X137004795Y-93743596D01*
X137004795Y-93379022D01*
X137004795Y-93014448D01*
X137549653Y-93014448D01*
X138094511Y-93014448D01*
X138094511Y-92822145D01*
X138094511Y-92629842D01*
X138647381Y-92629842D01*
X138647381Y-93943912D01*
X138647381Y-95257981D01*
X138871735Y-95257981D01*
X139096088Y-95257981D01*
X139096088Y-93943912D01*
X139096088Y-92629842D01*
X139584858Y-92629842D01*
X139584858Y-92822145D01*
X139584858Y-93014448D01*
X139961451Y-93014448D01*
X140338044Y-93014448D01*
X140338044Y-94136215D01*
X140338044Y-95257981D01*
X140562397Y-95257981D01*
X140786750Y-95257981D01*
X140786750Y-94136215D01*
X140786750Y-93014448D01*
X141163343Y-93014448D01*
X141539937Y-93014448D01*
X141539937Y-92822145D01*
X141539937Y-92629842D01*
X140562397Y-92629842D01*
X139584858Y-92629842D01*
X139096088Y-92629842D01*
X138871735Y-92629842D01*
X138647381Y-92629842D01*
X138094511Y-92629842D01*
X137325299Y-92629842D01*
X136556088Y-92629842D01*
X135498422Y-92629842D01*
X135498422Y-91596215D01*
X138999937Y-91596215D01*
X142501451Y-91596215D01*
X142501451Y-94000000D01*
G37*
D14*
%TO.C,BAT*%
X164180000Y-91500000D02*
G75*
G02*
X160820000Y-91500000I-1680000J0D01*
G01*
X160820000Y-91500000D02*
G75*
G02*
X164180000Y-91500000I1680000J0D01*
G01*
X166016048Y-92289089D02*
G75*
G02*
X166016000Y-90711000I1483952J789089D01*
G01*
X166711288Y-90016649D02*
G75*
G02*
X167500000Y-89820001I788712J-1483351D01*
G01*
X167470617Y-89819551D02*
G75*
G02*
X168289000Y-90016001I29385J-1680444D01*
G01*
X168289089Y-92983953D02*
G75*
G02*
X166711000Y-92984000I-789089J1483948D01*
G01*
X168983953Y-90710911D02*
G75*
G02*
X168984000Y-92289000I-1483948J-789089D01*
G01*
X159940000Y-95560000D02*
X159940000Y-87440000D01*
X161225000Y-92569000D02*
X161319000Y-92476000D01*
X161430000Y-92775000D02*
X161489000Y-92716000D01*
X163510000Y-90284000D02*
X163569000Y-90226000D01*
X163680000Y-90524000D02*
X163774000Y-90431000D01*
X170060000Y-87440000D02*
X159940000Y-87440000D01*
X170060000Y-89500000D02*
X159940000Y-89500000D01*
X170060000Y-93500000D02*
X159940000Y-93500000D01*
X170060000Y-95560000D02*
X159940000Y-95560000D01*
X170060000Y-95560000D02*
X170060000Y-87440000D01*
X170300000Y-87200000D02*
X168300000Y-87200000D01*
X170300000Y-89440000D02*
X170300000Y-87200000D01*
%TO.C,M2*%
X112560000Y-82800000D02*
X114800000Y-82800000D01*
X114800000Y-82800000D02*
X114800000Y-80800000D01*
X106440000Y-82560000D02*
X114560000Y-82560000D01*
X106440000Y-82560000D02*
X106440000Y-72440000D01*
X108500000Y-82560000D02*
X108500000Y-72440000D01*
X112500000Y-82560000D02*
X112500000Y-72440000D01*
X114560000Y-82560000D02*
X114560000Y-72440000D01*
X111476000Y-76180000D02*
X111569000Y-76274000D01*
X111716000Y-76010000D02*
X111774000Y-76069000D01*
X109225000Y-73930000D02*
X109284000Y-73989000D01*
X109431000Y-73725000D02*
X109524000Y-73819000D01*
X106440000Y-72440000D02*
X114560000Y-72440000D01*
X111289089Y-81483953D02*
G75*
G02*
X109711000Y-81484000I-789089J1483948D01*
G01*
X109016047Y-80789089D02*
G75*
G02*
X109016000Y-79211000I1483948J789089D01*
G01*
X112180449Y-79970617D02*
G75*
G02*
X111983999Y-80789000I-1680444J-29385D01*
G01*
X111983351Y-79211288D02*
G75*
G02*
X112179999Y-80000000I-1483351J-788712D01*
G01*
X109710911Y-78516048D02*
G75*
G02*
X111289000Y-78516000I789089J-1483952D01*
G01*
X112180000Y-75000000D02*
G75*
G02*
X108820000Y-75000000I-1680000J0D01*
G01*
X108820000Y-75000000D02*
G75*
G02*
X112180000Y-75000000I1680000J0D01*
G01*
%TO.C,M1*%
X112560000Y-69800000D02*
X114800000Y-69800000D01*
X114800000Y-69800000D02*
X114800000Y-67800000D01*
X106440000Y-69560000D02*
X114560000Y-69560000D01*
X106440000Y-69560000D02*
X106440000Y-59440000D01*
X108500000Y-69560000D02*
X108500000Y-59440000D01*
X112500000Y-69560000D02*
X112500000Y-59440000D01*
X114560000Y-69560000D02*
X114560000Y-59440000D01*
X111476000Y-63180000D02*
X111569000Y-63274000D01*
X111716000Y-63010000D02*
X111774000Y-63069000D01*
X109225000Y-60930000D02*
X109284000Y-60989000D01*
X109431000Y-60725000D02*
X109524000Y-60819000D01*
X106440000Y-59440000D02*
X114560000Y-59440000D01*
X111289089Y-68483953D02*
G75*
G02*
X109711000Y-68484000I-789089J1483948D01*
G01*
X109016047Y-67789089D02*
G75*
G02*
X109016000Y-66211000I1483948J789089D01*
G01*
X112180449Y-66970617D02*
G75*
G02*
X111983999Y-67789000I-1680444J-29385D01*
G01*
X111983351Y-66211288D02*
G75*
G02*
X112179999Y-67000000I-1483351J-788712D01*
G01*
X109710911Y-65516048D02*
G75*
G02*
X111289000Y-65516000I789089J-1483952D01*
G01*
X112180000Y-62000000D02*
G75*
G02*
X108820000Y-62000000I-1680000J0D01*
G01*
X108820000Y-62000000D02*
G75*
G02*
X112180000Y-62000000I1680000J0D01*
G01*
%TO.C,RJ12*%
X157630000Y-70840000D02*
X157630000Y-69840000D01*
X157630000Y-70840000D02*
X158130000Y-70340000D01*
X158130000Y-70340000D02*
X157630000Y-69840000D01*
X158290000Y-64120000D02*
X158290000Y-59390000D01*
X158290000Y-72610000D02*
X158290000Y-66870000D01*
X170710000Y-59390000D02*
X158290000Y-59390000D01*
X170710000Y-64120000D02*
X170710000Y-59390000D01*
X170710000Y-72610000D02*
X158290000Y-72610000D01*
X170710000Y-72610000D02*
X170710000Y-66870000D01*
%TO.C,IC1*%
X131700000Y-85590000D02*
X131700000Y-84640000D01*
X133100000Y-85590000D02*
X131700000Y-85590000D01*
X148700000Y-85590000D02*
X150100000Y-85590000D01*
X150100000Y-85590000D02*
X150100000Y-84640000D01*
X131700000Y-66640000D02*
X131200000Y-66640000D01*
X131700000Y-66140000D01*
X131700000Y-66640000D01*
G36*
X131700000Y-66640000D02*
G01*
X131200000Y-66640000D01*
X131700000Y-66140000D01*
X131700000Y-66640000D01*
G37*
%TO.C,M4*%
X126800000Y-89440000D02*
X126800000Y-87200000D01*
X126800000Y-87200000D02*
X124800000Y-87200000D01*
X126560000Y-95560000D02*
X126560000Y-87440000D01*
X126560000Y-95560000D02*
X116440000Y-95560000D01*
X126560000Y-93500000D02*
X116440000Y-93500000D01*
X126560000Y-89500000D02*
X116440000Y-89500000D01*
X126560000Y-87440000D02*
X116440000Y-87440000D01*
X120180000Y-90524000D02*
X120274000Y-90431000D01*
X120010000Y-90284000D02*
X120069000Y-90226000D01*
X117930000Y-92775000D02*
X117989000Y-92716000D01*
X117725000Y-92569000D02*
X117819000Y-92476000D01*
X116440000Y-95560000D02*
X116440000Y-87440000D01*
X125483953Y-90710911D02*
G75*
G02*
X125484000Y-92289000I-1483948J-789089D01*
G01*
X124789089Y-92983953D02*
G75*
G02*
X123211000Y-92984000I-789089J1483948D01*
G01*
X123970617Y-89819551D02*
G75*
G02*
X124789000Y-90016001I29385J-1680444D01*
G01*
X123211288Y-90016649D02*
G75*
G02*
X124000000Y-89820001I788712J-1483351D01*
G01*
X122516048Y-92289089D02*
G75*
G02*
X122516000Y-90711000I1483952J789089D01*
G01*
X120680000Y-91500000D02*
G75*
G02*
X117320000Y-91500000I-1680000J0D01*
G01*
X117320000Y-91500000D02*
G75*
G02*
X120680000Y-91500000I1680000J0D01*
G01*
%TO.C,M3*%
X112560000Y-95800000D02*
X114800000Y-95800000D01*
X114800000Y-95800000D02*
X114800000Y-93800000D01*
X106440000Y-95560000D02*
X114560000Y-95560000D01*
X106440000Y-95560000D02*
X106440000Y-85440000D01*
X108500000Y-95560000D02*
X108500000Y-85440000D01*
X112500000Y-95560000D02*
X112500000Y-85440000D01*
X114560000Y-95560000D02*
X114560000Y-85440000D01*
X111476000Y-89180000D02*
X111569000Y-89274000D01*
X111716000Y-89010000D02*
X111774000Y-89069000D01*
X109225000Y-86930000D02*
X109284000Y-86989000D01*
X109431000Y-86725000D02*
X109524000Y-86819000D01*
X106440000Y-85440000D02*
X114560000Y-85440000D01*
X111289089Y-94483953D02*
G75*
G02*
X109711000Y-94484000I-789089J1483948D01*
G01*
X109016047Y-93789089D02*
G75*
G02*
X109016000Y-92211000I1483948J789089D01*
G01*
X112180449Y-92970617D02*
G75*
G02*
X111983999Y-93789000I-1680444J-29385D01*
G01*
X111983351Y-92211288D02*
G75*
G02*
X112179999Y-93000000I-1483351J-788712D01*
G01*
X109710911Y-91516048D02*
G75*
G02*
X111289000Y-91516000I789089J-1483952D01*
G01*
X112180000Y-88000000D02*
G75*
G02*
X108820000Y-88000000I-1680000J0D01*
G01*
X108820000Y-88000000D02*
G75*
G02*
X112180000Y-88000000I1680000J0D01*
G01*
%TO.C,J4*%
X129170000Y-89830000D02*
X129170000Y-88500000D01*
X130500000Y-89830000D02*
X129170000Y-89830000D01*
X131770000Y-89830000D02*
X152150000Y-89830000D01*
X131770000Y-89830000D02*
X131770000Y-87170000D01*
X152150000Y-89830000D02*
X152150000Y-87170000D01*
X131770000Y-87170000D02*
X152150000Y-87170000D01*
%TO.C,J3*%
X154830000Y-84990000D02*
X153500000Y-84990000D01*
X154830000Y-83660000D02*
X154830000Y-84990000D01*
X154830000Y-82390000D02*
X154830000Y-59470000D01*
X154830000Y-82390000D02*
X152170000Y-82390000D01*
X154830000Y-59470000D02*
X152170000Y-59470000D01*
X152170000Y-82390000D02*
X152170000Y-59470000D01*
%TO.C,J2*%
X129330000Y-62150000D02*
X129330000Y-85070000D01*
X126670000Y-85070000D02*
X129330000Y-85070000D01*
X126670000Y-62150000D02*
X129330000Y-62150000D01*
X126670000Y-62150000D02*
X126670000Y-85070000D01*
X126670000Y-60880000D02*
X126670000Y-59550000D01*
X126670000Y-59550000D02*
X128000000Y-59550000D01*
%TO.C,R3*%
X168910000Y-83222936D02*
X168910000Y-84677064D01*
X167090000Y-83222936D02*
X167090000Y-84677064D01*
%TO.C,LED*%
X172135000Y-85550000D02*
X172135000Y-81490000D01*
X169865000Y-81490000D02*
X169865000Y-85550000D01*
X172135000Y-81490000D02*
X169865000Y-81490000D01*
%TO.C,U1*%
X157590000Y-81350000D02*
X157590000Y-77590000D01*
X164410000Y-81350000D02*
X164410000Y-77590000D01*
X157590000Y-77590000D02*
X158850000Y-77590000D01*
X164410000Y-77590000D02*
X163150000Y-77590000D01*
X157690000Y-82630000D02*
X157360000Y-82870000D01*
X157360000Y-82390000D01*
X157690000Y-82630000D01*
G36*
X157690000Y-82630000D02*
G01*
X157360000Y-82870000D01*
X157360000Y-82390000D01*
X157690000Y-82630000D01*
G37*
%TO.C,R2*%
X167090000Y-75222936D02*
X167090000Y-76677064D01*
X168910000Y-75222936D02*
X168910000Y-76677064D01*
%TO.C,R1*%
X170090000Y-75222936D02*
X170090000Y-76677064D01*
X171910000Y-75222936D02*
X171910000Y-76677064D01*
%TO.C,IC5*%
X119975000Y-85465000D02*
X121925000Y-85465000D01*
X119975000Y-85465000D02*
X118025000Y-85465000D01*
X119975000Y-80345000D02*
X121925000Y-80345000D01*
X119975000Y-80345000D02*
X118025000Y-80345000D01*
X122915000Y-85700000D02*
X122435000Y-85700000D01*
X122675000Y-85370000D01*
X122915000Y-85700000D01*
G36*
X122915000Y-85700000D02*
G01*
X122435000Y-85700000D01*
X122675000Y-85370000D01*
X122915000Y-85700000D01*
G37*
%TO.C,IC4*%
X119975000Y-78655000D02*
X121925000Y-78655000D01*
X119975000Y-78655000D02*
X118025000Y-78655000D01*
X119975000Y-73535000D02*
X121925000Y-73535000D01*
X119975000Y-73535000D02*
X118025000Y-73535000D01*
X122915000Y-78890000D02*
X122435000Y-78890000D01*
X122675000Y-78560000D01*
X122915000Y-78890000D01*
G36*
X122915000Y-78890000D02*
G01*
X122435000Y-78890000D01*
X122675000Y-78560000D01*
X122915000Y-78890000D01*
G37*
%TO.C,IC3*%
X120000000Y-72155000D02*
X121950000Y-72155000D01*
X120000000Y-72155000D02*
X118050000Y-72155000D01*
X120000000Y-67035000D02*
X121950000Y-67035000D01*
X120000000Y-67035000D02*
X118050000Y-67035000D01*
X122940000Y-72390000D02*
X122460000Y-72390000D01*
X122700000Y-72060000D01*
X122940000Y-72390000D01*
G36*
X122940000Y-72390000D02*
G01*
X122460000Y-72390000D01*
X122700000Y-72060000D01*
X122940000Y-72390000D01*
G37*
%TO.C,IC2*%
X122915000Y-64700000D02*
X122435000Y-64700000D01*
X122675000Y-64370000D01*
X122915000Y-64700000D01*
G36*
X122915000Y-64700000D02*
G01*
X122435000Y-64700000D01*
X122675000Y-64370000D01*
X122915000Y-64700000D01*
G37*
X119975000Y-59345000D02*
X118025000Y-59345000D01*
X119975000Y-59345000D02*
X121925000Y-59345000D01*
X119975000Y-64465000D02*
X118025000Y-64465000D01*
X119975000Y-64465000D02*
X121925000Y-64465000D01*
%TO.C,C1*%
X160211252Y-86410000D02*
X158788748Y-86410000D01*
X160211252Y-84590000D02*
X158788748Y-84590000D01*
%TD*%
M02*
