%TF.GenerationSoftware,KiCad,Pcbnew,8.0.1*%
%TF.CreationDate,2024-04-27T11:46:23+02:00*%
%TF.ProjectId,driver_v2,64726976-6572-45f7-9632-2e6b69636164,rev?*%
%TF.SameCoordinates,Original*%
%TF.FileFunction,Copper,L2,Bot*%
%TF.FilePolarity,Positive*%
%FSLAX46Y46*%
G04 Gerber Fmt 4.6, Leading zero omitted, Abs format (unit mm)*
G04 Created by KiCad (PCBNEW 8.0.1) date 2024-04-27 11:46:23*
%MOMM*%
%LPD*%
G01*
G04 APERTURE LIST*
%TA.AperFunction,ComponentPad*%
%ADD10R,1.700000X1.700000*%
%TD*%
%TA.AperFunction,ComponentPad*%
%ADD11O,1.700000X1.700000*%
%TD*%
%TA.AperFunction,ComponentPad*%
%ADD12R,2.500000X2.500000*%
%TD*%
%TA.AperFunction,ComponentPad*%
%ADD13C,2.500000*%
%TD*%
%TA.AperFunction,ComponentPad*%
%ADD14C,0.600000*%
%TD*%
%TA.AperFunction,ComponentPad*%
%ADD15R,1.520000X1.520000*%
%TD*%
%TA.AperFunction,ComponentPad*%
%ADD16C,1.520000*%
%TD*%
%TA.AperFunction,ViaPad*%
%ADD17C,0.600000*%
%TD*%
%TA.AperFunction,Conductor*%
%ADD18C,0.200000*%
%TD*%
%TA.AperFunction,Conductor*%
%ADD19C,0.520000*%
%TD*%
G04 APERTURE END LIST*
D10*
%TO.P,J4,1,Pin_1*%
%TO.N,Net-(IC1-IO26)*%
X130500000Y-88500000D03*
D11*
%TO.P,J4,2,Pin_2*%
%TO.N,Net-(IC1-IO27)*%
X133040000Y-88500000D03*
%TO.P,J4,3,Pin_3*%
%TO.N,Net-(IC1-IO14)*%
X135580000Y-88500000D03*
%TO.P,J4,4,Pin_4*%
%TO.N,Net-(IC1-IO12)*%
X138120000Y-88500000D03*
%TO.P,J4,5,Pin_5*%
%TO.N,Net-(IC1-IO13)*%
X140660000Y-88500000D03*
%TO.P,J4,6,Pin_6*%
%TO.N,Net-(IC1-IO15)*%
X143200000Y-88500000D03*
%TO.P,J4,7,Pin_7*%
%TO.N,Net-(IC1-IO2)*%
X145740000Y-88500000D03*
%TO.P,J4,8,Pin_8*%
%TO.N,Net-(IC1-IO0)*%
X148280000Y-88500000D03*
%TO.P,J4,9,Pin_9*%
%TO.N,Net-(IC1-IO4)*%
X150820000Y-88500000D03*
%TD*%
D10*
%TO.P,J3,1,Pin_1*%
%TO.N,Net-(IC1-IO16)*%
X153500000Y-83660000D03*
D11*
%TO.P,J3,2,Pin_2*%
%TO.N,Net-(IC1-IO17)*%
X153500000Y-81120000D03*
%TO.P,J3,3,Pin_3*%
%TO.N,Net-(IC1-IO5)*%
X153500000Y-78580000D03*
%TO.P,J3,4,Pin_4*%
%TO.N,Net-(IC1-IO18)*%
X153500000Y-76040000D03*
%TO.P,J3,5,Pin_5*%
%TO.N,Net-(IC1-IO19)*%
X153500000Y-73500000D03*
%TO.P,J3,6,Pin_6*%
%TO.N,Net-(IC1-IO21)*%
X153500000Y-70960000D03*
%TO.P,J3,7,Pin_7*%
%TO.N,Net-(IC1-RXD0{slash}IO3)*%
X153500000Y-68420000D03*
%TO.P,J3,8,Pin_8*%
%TO.N,Net-(IC1-TXD0{slash}IO1)*%
X153500000Y-65880000D03*
%TO.P,J3,9,Pin_9*%
%TO.N,Net-(IC1-IO22)*%
X153500000Y-63340000D03*
%TO.P,J3,10,Pin_10*%
%TO.N,Net-(IC1-IO23)*%
X153500000Y-60800000D03*
%TD*%
D12*
%TO.P,M2,1,Pin_1*%
%TO.N,Net-(IC3-OUTA)*%
X109500000Y-80000000D03*
D13*
%TO.P,M2,2,Pin_2*%
%TO.N,Net-(IC3-OUTB)*%
X109500000Y-75000000D03*
%TD*%
D14*
%TO.P,IC1,39,GND*%
%TO.N,GND*%
X138000000Y-74400000D03*
X138000000Y-75800000D03*
X138700000Y-73700000D03*
X138700000Y-75100000D03*
X138700000Y-76500000D03*
X139400000Y-74400000D03*
X139400000Y-75800000D03*
X140100000Y-73700000D03*
X140100000Y-75100000D03*
X140100000Y-76500000D03*
X140800000Y-74400000D03*
X140800000Y-75800000D03*
%TD*%
D12*
%TO.P,BAT,1,Pin_1*%
%TO.N,VCC*%
X167500000Y-91500000D03*
D13*
%TO.P,BAT,2,Pin_2*%
%TO.N,GND*%
X162500000Y-91500000D03*
%TD*%
D15*
%TO.P,RJ12,1*%
%TO.N,GND*%
X161950000Y-70340000D03*
D16*
%TO.P,RJ12,2*%
%TO.N,+3.3V*%
X162970000Y-67800000D03*
%TO.P,RJ12,3*%
%TO.N,GND*%
X163990000Y-70340000D03*
%TO.P,RJ12,4*%
%TO.N,unconnected-(J1-Pad4)*%
X165010000Y-67800000D03*
%TO.P,RJ12,5*%
%TO.N,Net-(IC1-IO22)*%
X166030000Y-70340000D03*
%TO.P,RJ12,6*%
%TO.N,Net-(IC1-IO23)*%
X167050000Y-67800000D03*
%TD*%
D10*
%TO.P,J2,1,Pin_1*%
%TO.N,GND*%
X128000000Y-60880000D03*
D11*
%TO.P,J2,2,Pin_2*%
%TO.N,+3.3V*%
X128000000Y-63420000D03*
%TO.P,J2,3,Pin_3*%
%TO.N,Net-(IC1-EN)*%
X128000000Y-65960000D03*
%TO.P,J2,4,Pin_4*%
%TO.N,Net-(IC1-SENSOR_VP)*%
X128000000Y-68500000D03*
%TO.P,J2,5,Pin_5*%
%TO.N,Net-(IC1-SENSOR_VN)*%
X128000000Y-71040000D03*
%TO.P,J2,6,Pin_6*%
%TO.N,Net-(IC1-IO34)*%
X128000000Y-73580000D03*
%TO.P,J2,7,Pin_7*%
%TO.N,Net-(IC1-IO35)*%
X128000000Y-76120000D03*
%TO.P,J2,8,Pin_8*%
%TO.N,Net-(IC1-IO32)*%
X128000000Y-78660000D03*
%TO.P,J2,9,Pin_9*%
%TO.N,Net-(IC1-IO33)*%
X128000000Y-81200000D03*
%TO.P,J2,10,Pin_10*%
%TO.N,Net-(IC1-IO25)*%
X128000000Y-83740000D03*
%TD*%
D12*
%TO.P,M4,1,Pin_1*%
%TO.N,Net-(IC5-OUTA)*%
X122500000Y-91500000D03*
D13*
%TO.P,M4,2,Pin_2*%
%TO.N,Net-(IC5-OUTB)*%
X117500000Y-91500000D03*
%TD*%
D12*
%TO.P,M3,1,Pin_1*%
%TO.N,Net-(IC4-OUTA)*%
X109500000Y-93000000D03*
D13*
%TO.P,M3,2,Pin_2*%
%TO.N,Net-(IC4-OUTB)*%
X109500000Y-88000000D03*
%TD*%
D12*
%TO.P,M1,1,Pin_1*%
%TO.N,Net-(IC2-OUTA)*%
X109500000Y-67000000D03*
D13*
%TO.P,M1,2,Pin_2*%
%TO.N,Net-(IC2-OUTB)*%
X109500000Y-62000000D03*
%TD*%
D17*
%TO.N,GND*%
X168809744Y-89500000D03*
X127000000Y-77500000D03*
X157000000Y-90000000D03*
X157000000Y-88696446D03*
X165896446Y-89896446D03*
%TO.N,VCC*%
X113000000Y-71000000D03*
X124400000Y-65200000D03*
X126000000Y-90000000D03*
X112500000Y-62500000D03*
X112750000Y-77735001D03*
X113000000Y-90500000D03*
X127000000Y-90000000D03*
%TO.N,+3.3V*%
X156500000Y-70000000D03*
X155541587Y-70958413D03*
X148000000Y-69810000D03*
%TO.N,Net-(IC1-IO16)*%
X122500000Y-86500000D03*
X122424897Y-84984956D03*
%TO.N,Net-(IC1-IO4)*%
X119012224Y-84487776D03*
X119000000Y-81000000D03*
%TO.N,Net-(IC1-IO17)*%
X166500000Y-89296446D03*
X166500000Y-86500000D03*
%TO.N,Net-(IC1-IO0)*%
X165000000Y-87700000D03*
%TO.N,Net-(IC1-IO26)*%
X119000000Y-73760000D03*
X122500000Y-78900000D03*
%TO.N,Net-(IC1-IO27)*%
X119721220Y-74106186D03*
X124000000Y-79500000D03*
%TO.N,Net-(IC1-IO25)*%
X124240000Y-78182893D03*
X122630881Y-67705685D03*
X122825000Y-74000000D03*
X122825000Y-72000000D03*
%TD*%
D18*
%TO.N,GND*%
X126690000Y-77190000D02*
X126690000Y-62190000D01*
X157000000Y-88696446D02*
X157000000Y-90000000D01*
X168413298Y-89896446D02*
X168809744Y-89500000D01*
X165896446Y-89896446D02*
X168413298Y-89896446D01*
X126690000Y-62190000D02*
X128000000Y-60880000D01*
X125000000Y-63880000D02*
X128000000Y-60880000D01*
X127000000Y-77500000D02*
X126690000Y-77190000D01*
%TO.N,VCC*%
X123800000Y-65200000D02*
X122500000Y-66500000D01*
D19*
X127000000Y-90000000D02*
X127000000Y-86500000D01*
X126000000Y-85500000D02*
X126000000Y-70000000D01*
D18*
X124400000Y-65200000D02*
X123800000Y-65200000D01*
D19*
X115000000Y-73000000D02*
X113000000Y-71000000D01*
X112750000Y-77735001D02*
X112750000Y-90250000D01*
X126000000Y-90000000D02*
X126000000Y-87152753D01*
X126000000Y-87152753D02*
X125000000Y-86152753D01*
X116500000Y-66500000D02*
X112500000Y-62500000D01*
X124500000Y-73000000D02*
X115000000Y-73000000D01*
X122500000Y-66500000D02*
X116500000Y-66500000D01*
X126000000Y-70000000D02*
X122500000Y-66500000D01*
X112750000Y-90250000D02*
X113000000Y-90500000D01*
X125000000Y-73500000D02*
X124500000Y-73000000D01*
X125000000Y-86152753D02*
X125000000Y-73500000D01*
X127000000Y-86500000D02*
X126000000Y-85500000D01*
D18*
%TO.N,+3.3V*%
X156500000Y-70000000D02*
X155541587Y-70958413D01*
X155541587Y-70958413D02*
X154393173Y-69810000D01*
X154393173Y-69810000D02*
X148000000Y-69810000D01*
%TO.N,Net-(IC1-IO16)*%
X122500000Y-86500000D02*
X122424897Y-86424897D01*
X122424897Y-86424897D02*
X122424897Y-84984956D01*
%TO.N,Net-(IC1-IO4)*%
X119012224Y-84487776D02*
X119000000Y-84475552D01*
X119000000Y-84475552D02*
X119000000Y-81000000D01*
%TO.N,Net-(IC1-IO17)*%
X166500000Y-86500000D02*
X166500000Y-89296446D01*
%TO.N,Net-(IC1-IO0)*%
X165000000Y-87700000D02*
X163700000Y-89000000D01*
X156850000Y-87350000D02*
X149430000Y-87350000D01*
X163700000Y-89000000D02*
X158500000Y-89000000D01*
X149430000Y-87350000D02*
X148280000Y-88500000D01*
X158500000Y-89000000D02*
X156850000Y-87350000D01*
%TO.N,Net-(IC1-IO26)*%
X122500000Y-78900000D02*
X119000000Y-75400000D01*
X119000000Y-75400000D02*
X119000000Y-73760000D01*
%TO.N,Net-(IC1-IO27)*%
X119721220Y-74106186D02*
X119721220Y-75221220D01*
X119721220Y-75221220D02*
X124000000Y-79500000D01*
%TO.N,Net-(IC1-IO25)*%
X122825000Y-67899804D02*
X122630881Y-67705685D01*
X124240000Y-75415000D02*
X124240000Y-78182893D01*
X122825000Y-74000000D02*
X124240000Y-75415000D01*
X122825000Y-72000000D02*
X122825000Y-67899804D01*
%TD*%
%TA.AperFunction,Conductor*%
%TO.N,GND*%
G36*
X126965703Y-76996045D02*
G01*
X126972181Y-77002077D01*
X127128597Y-77158493D01*
X127128603Y-77158498D01*
X127314158Y-77288425D01*
X127357783Y-77343002D01*
X127364977Y-77412500D01*
X127333454Y-77474855D01*
X127314158Y-77491575D01*
X127128597Y-77621505D01*
X126972181Y-77777922D01*
X126910858Y-77811407D01*
X126841166Y-77806423D01*
X126785233Y-77764551D01*
X126760816Y-77699087D01*
X126760500Y-77690241D01*
X126760500Y-77089758D01*
X126780185Y-77022719D01*
X126832989Y-76976964D01*
X126902147Y-76967020D01*
X126965703Y-76996045D01*
G37*
%TD.AperFunction*%
%TA.AperFunction,Conductor*%
G36*
X126965703Y-74456045D02*
G01*
X126972181Y-74462077D01*
X127128597Y-74618493D01*
X127128603Y-74618498D01*
X127314158Y-74748425D01*
X127357783Y-74803002D01*
X127364977Y-74872500D01*
X127333454Y-74934855D01*
X127314158Y-74951575D01*
X127128597Y-75081505D01*
X126972181Y-75237922D01*
X126910858Y-75271407D01*
X126841166Y-75266423D01*
X126785233Y-75224551D01*
X126760816Y-75159087D01*
X126760500Y-75150241D01*
X126760500Y-74549758D01*
X126780185Y-74482719D01*
X126832989Y-74436964D01*
X126902147Y-74427020D01*
X126965703Y-74456045D01*
G37*
%TD.AperFunction*%
%TA.AperFunction,Conductor*%
G36*
X126965703Y-71916045D02*
G01*
X126972181Y-71922077D01*
X127128597Y-72078493D01*
X127128603Y-72078498D01*
X127314158Y-72208425D01*
X127357783Y-72263002D01*
X127364977Y-72332500D01*
X127333454Y-72394855D01*
X127314158Y-72411575D01*
X127128597Y-72541505D01*
X126972181Y-72697922D01*
X126910858Y-72731407D01*
X126841166Y-72726423D01*
X126785233Y-72684551D01*
X126760816Y-72619087D01*
X126760500Y-72610241D01*
X126760500Y-72009758D01*
X126780185Y-71942719D01*
X126832989Y-71896964D01*
X126902147Y-71887020D01*
X126965703Y-71916045D01*
G37*
%TD.AperFunction*%
%TA.AperFunction,Conductor*%
G36*
X172442539Y-59020185D02*
G01*
X172488294Y-59072989D01*
X172499500Y-59124500D01*
X172499500Y-96875500D01*
X172479815Y-96942539D01*
X172427011Y-96988294D01*
X172375500Y-96999500D01*
X104624500Y-96999500D01*
X104557461Y-96979815D01*
X104511706Y-96927011D01*
X104500500Y-96875500D01*
X104500500Y-94297870D01*
X107749500Y-94297870D01*
X107749501Y-94297876D01*
X107755908Y-94357483D01*
X107806202Y-94492328D01*
X107806206Y-94492335D01*
X107892452Y-94607544D01*
X107892455Y-94607547D01*
X108007664Y-94693793D01*
X108007671Y-94693797D01*
X108142517Y-94744091D01*
X108142516Y-94744091D01*
X108149444Y-94744835D01*
X108202127Y-94750500D01*
X110797872Y-94750499D01*
X110857483Y-94744091D01*
X110992331Y-94693796D01*
X111107546Y-94607546D01*
X111193796Y-94492331D01*
X111244091Y-94357483D01*
X111250500Y-94297873D01*
X111250499Y-91702128D01*
X111244091Y-91642517D01*
X111193796Y-91507669D01*
X111193795Y-91507668D01*
X111193793Y-91507664D01*
X111188059Y-91500004D01*
X115744592Y-91500004D01*
X115764196Y-91761620D01*
X115764197Y-91761625D01*
X115822576Y-92017402D01*
X115822578Y-92017411D01*
X115822580Y-92017416D01*
X115918432Y-92261643D01*
X116049614Y-92488857D01*
X116181736Y-92654533D01*
X116213198Y-92693985D01*
X116325163Y-92797872D01*
X116405521Y-92872433D01*
X116622296Y-93020228D01*
X116622301Y-93020230D01*
X116622302Y-93020231D01*
X116622303Y-93020232D01*
X116747843Y-93080688D01*
X116858673Y-93134061D01*
X116858674Y-93134061D01*
X116858677Y-93134063D01*
X117109385Y-93211396D01*
X117368818Y-93250500D01*
X117631182Y-93250500D01*
X117890615Y-93211396D01*
X118141323Y-93134063D01*
X118377704Y-93020228D01*
X118594479Y-92872433D01*
X118674839Y-92797870D01*
X120749500Y-92797870D01*
X120749501Y-92797876D01*
X120755908Y-92857483D01*
X120806202Y-92992328D01*
X120806206Y-92992335D01*
X120892452Y-93107544D01*
X120892455Y-93107547D01*
X121007664Y-93193793D01*
X121007671Y-93193797D01*
X121142517Y-93244091D01*
X121142516Y-93244091D01*
X121149444Y-93244835D01*
X121202127Y-93250500D01*
X123797872Y-93250499D01*
X123857483Y-93244091D01*
X123992331Y-93193796D01*
X124107546Y-93107546D01*
X124123066Y-93086814D01*
X161761713Y-93086814D01*
X161858857Y-93133595D01*
X161858855Y-93133595D01*
X162109494Y-93210907D01*
X162109500Y-93210909D01*
X162368848Y-93249999D01*
X162368857Y-93250000D01*
X162631143Y-93250000D01*
X162631151Y-93249999D01*
X162890499Y-93210909D01*
X162890505Y-93210907D01*
X163141141Y-93133595D01*
X163141144Y-93133594D01*
X163238285Y-93086813D01*
X162500001Y-92348528D01*
X162500000Y-92348528D01*
X161761713Y-93086814D01*
X124123066Y-93086814D01*
X124193796Y-92992331D01*
X124244091Y-92857483D01*
X124250500Y-92797873D01*
X124250500Y-91500004D01*
X160745093Y-91500004D01*
X160764692Y-91761545D01*
X160764693Y-91761550D01*
X160823058Y-92017270D01*
X160910754Y-92240715D01*
X160910755Y-92240715D01*
X161587452Y-91564019D01*
X161850000Y-91564019D01*
X161874979Y-91689598D01*
X161923978Y-91807890D01*
X161995112Y-91914351D01*
X162085649Y-92004888D01*
X162192110Y-92076022D01*
X162310402Y-92125021D01*
X162435981Y-92150000D01*
X162564019Y-92150000D01*
X162689598Y-92125021D01*
X162807890Y-92076022D01*
X162914351Y-92004888D01*
X163004888Y-91914351D01*
X163076022Y-91807890D01*
X163125021Y-91689598D01*
X163150000Y-91564019D01*
X163150000Y-91500000D01*
X163348528Y-91500000D01*
X164089244Y-92240716D01*
X164089244Y-92240715D01*
X164176938Y-92017273D01*
X164176944Y-92017254D01*
X164235306Y-91761550D01*
X164235307Y-91761545D01*
X164254907Y-91500004D01*
X164254907Y-91499995D01*
X164235307Y-91238454D01*
X164235306Y-91238449D01*
X164176944Y-90982745D01*
X164176942Y-90982738D01*
X164089243Y-90759283D01*
X163348528Y-91499999D01*
X163348528Y-91500000D01*
X163150000Y-91500000D01*
X163150000Y-91435981D01*
X163125021Y-91310402D01*
X163076022Y-91192110D01*
X163004888Y-91085649D01*
X162914351Y-90995112D01*
X162807890Y-90923978D01*
X162689598Y-90874979D01*
X162564019Y-90850000D01*
X162435981Y-90850000D01*
X162310402Y-90874979D01*
X162192110Y-90923978D01*
X162085649Y-90995112D01*
X161995112Y-91085649D01*
X161923978Y-91192110D01*
X161874979Y-91310402D01*
X161850000Y-91435981D01*
X161850000Y-91564019D01*
X161587452Y-91564019D01*
X161651471Y-91500000D01*
X161651471Y-91499999D01*
X160910755Y-90759283D01*
X160910754Y-90759283D01*
X160823058Y-90982729D01*
X160764693Y-91238449D01*
X160764692Y-91238454D01*
X160745093Y-91499995D01*
X160745093Y-91500004D01*
X124250500Y-91500004D01*
X124250499Y-90202128D01*
X124244091Y-90142517D01*
X124193796Y-90007669D01*
X124193795Y-90007668D01*
X124193793Y-90007664D01*
X124107547Y-89892455D01*
X124107544Y-89892452D01*
X123992335Y-89806206D01*
X123992328Y-89806202D01*
X123857482Y-89755908D01*
X123857483Y-89755908D01*
X123797883Y-89749501D01*
X123797881Y-89749500D01*
X123797873Y-89749500D01*
X123797864Y-89749500D01*
X121202129Y-89749500D01*
X121202123Y-89749501D01*
X121142516Y-89755908D01*
X121007671Y-89806202D01*
X121007664Y-89806206D01*
X120892455Y-89892452D01*
X120892452Y-89892455D01*
X120806206Y-90007664D01*
X120806202Y-90007671D01*
X120755908Y-90142517D01*
X120751959Y-90179254D01*
X120749501Y-90202123D01*
X120749500Y-90202135D01*
X120749500Y-92797870D01*
X118674839Y-92797870D01*
X118786805Y-92693981D01*
X118950386Y-92488857D01*
X119081568Y-92261643D01*
X119177420Y-92017416D01*
X119235802Y-91761630D01*
X119235808Y-91761550D01*
X119255408Y-91500004D01*
X119255408Y-91499995D01*
X119235803Y-91238379D01*
X119235802Y-91238374D01*
X119235802Y-91238370D01*
X119177420Y-90982584D01*
X119081568Y-90738357D01*
X118950386Y-90511143D01*
X118786805Y-90306019D01*
X118786804Y-90306018D01*
X118786801Y-90306014D01*
X118594479Y-90127567D01*
X118377704Y-89979772D01*
X118377700Y-89979770D01*
X118377697Y-89979768D01*
X118377696Y-89979767D01*
X118141325Y-89865938D01*
X118141327Y-89865938D01*
X117890623Y-89788606D01*
X117890619Y-89788605D01*
X117890615Y-89788604D01*
X117764275Y-89769561D01*
X117631187Y-89749500D01*
X117631182Y-89749500D01*
X117368818Y-89749500D01*
X117368812Y-89749500D01*
X117207247Y-89773853D01*
X117109385Y-89788604D01*
X117109382Y-89788605D01*
X117109376Y-89788606D01*
X116858673Y-89865938D01*
X116622303Y-89979767D01*
X116622302Y-89979768D01*
X116405520Y-90127567D01*
X116213198Y-90306014D01*
X116049614Y-90511143D01*
X115918432Y-90738356D01*
X115822582Y-90982578D01*
X115822576Y-90982597D01*
X115764197Y-91238374D01*
X115764196Y-91238379D01*
X115744592Y-91499995D01*
X115744592Y-91500004D01*
X111188059Y-91500004D01*
X111107547Y-91392455D01*
X111107544Y-91392452D01*
X110992335Y-91306206D01*
X110992328Y-91306202D01*
X110857482Y-91255908D01*
X110857483Y-91255908D01*
X110797883Y-91249501D01*
X110797881Y-91249500D01*
X110797873Y-91249500D01*
X110797864Y-91249500D01*
X108202129Y-91249500D01*
X108202123Y-91249501D01*
X108142516Y-91255908D01*
X108007671Y-91306202D01*
X108007664Y-91306206D01*
X107892455Y-91392452D01*
X107892452Y-91392455D01*
X107806206Y-91507664D01*
X107806202Y-91507671D01*
X107755908Y-91642517D01*
X107750847Y-91689598D01*
X107749501Y-91702123D01*
X107749500Y-91702135D01*
X107749500Y-94297870D01*
X104500500Y-94297870D01*
X104500500Y-88000004D01*
X107744592Y-88000004D01*
X107764196Y-88261620D01*
X107764197Y-88261625D01*
X107822576Y-88517402D01*
X107822578Y-88517411D01*
X107822580Y-88517416D01*
X107918432Y-88761643D01*
X108049614Y-88988857D01*
X108151957Y-89117191D01*
X108213198Y-89193985D01*
X108390506Y-89358501D01*
X108405521Y-89372433D01*
X108622296Y-89520228D01*
X108622301Y-89520230D01*
X108622302Y-89520231D01*
X108622303Y-89520232D01*
X108704003Y-89559576D01*
X108858673Y-89634061D01*
X108858674Y-89634061D01*
X108858677Y-89634063D01*
X109109385Y-89711396D01*
X109368818Y-89750500D01*
X109631182Y-89750500D01*
X109890615Y-89711396D01*
X110141323Y-89634063D01*
X110377704Y-89520228D01*
X110594479Y-89372433D01*
X110786805Y-89193981D01*
X110950386Y-88988857D01*
X111081568Y-88761643D01*
X111177420Y-88517416D01*
X111235802Y-88261630D01*
X111245104Y-88137504D01*
X111255408Y-88000004D01*
X111255408Y-87999995D01*
X111235803Y-87738379D01*
X111235802Y-87738374D01*
X111235802Y-87738370D01*
X111177420Y-87482584D01*
X111081568Y-87238357D01*
X110950386Y-87011143D01*
X110786805Y-86806019D01*
X110786804Y-86806018D01*
X110786801Y-86806014D01*
X110594479Y-86627567D01*
X110526201Y-86581016D01*
X110377704Y-86479772D01*
X110377700Y-86479770D01*
X110377697Y-86479768D01*
X110377696Y-86479767D01*
X110141325Y-86365938D01*
X110141327Y-86365938D01*
X109890623Y-86288606D01*
X109890619Y-86288605D01*
X109890615Y-86288604D01*
X109765823Y-86269794D01*
X109631187Y-86249500D01*
X109631182Y-86249500D01*
X109368818Y-86249500D01*
X109368812Y-86249500D01*
X109207247Y-86273853D01*
X109109385Y-86288604D01*
X109109382Y-86288605D01*
X109109376Y-86288606D01*
X108858673Y-86365938D01*
X108622303Y-86479767D01*
X108622302Y-86479768D01*
X108405520Y-86627567D01*
X108213198Y-86806014D01*
X108049614Y-87011143D01*
X107918432Y-87238356D01*
X107822582Y-87482578D01*
X107822576Y-87482597D01*
X107764197Y-87738374D01*
X107764196Y-87738379D01*
X107744592Y-87999995D01*
X107744592Y-88000004D01*
X104500500Y-88000004D01*
X104500500Y-81297870D01*
X107749500Y-81297870D01*
X107749501Y-81297876D01*
X107755908Y-81357483D01*
X107806202Y-81492328D01*
X107806206Y-81492335D01*
X107892452Y-81607544D01*
X107892455Y-81607547D01*
X108007664Y-81693793D01*
X108007671Y-81693797D01*
X108142517Y-81744091D01*
X108142516Y-81744091D01*
X108149444Y-81744835D01*
X108202127Y-81750500D01*
X110797872Y-81750499D01*
X110857483Y-81744091D01*
X110992331Y-81693796D01*
X111107546Y-81607546D01*
X111193796Y-81492331D01*
X111244091Y-81357483D01*
X111250500Y-81297873D01*
X111250499Y-78702128D01*
X111244091Y-78642517D01*
X111220773Y-78579999D01*
X111193797Y-78507671D01*
X111193793Y-78507664D01*
X111107547Y-78392455D01*
X111107544Y-78392452D01*
X110992335Y-78306206D01*
X110992328Y-78306202D01*
X110857482Y-78255908D01*
X110857483Y-78255908D01*
X110797883Y-78249501D01*
X110797881Y-78249500D01*
X110797873Y-78249500D01*
X110797864Y-78249500D01*
X108202129Y-78249500D01*
X108202123Y-78249501D01*
X108142516Y-78255908D01*
X108007671Y-78306202D01*
X108007664Y-78306206D01*
X107892455Y-78392452D01*
X107892452Y-78392455D01*
X107806206Y-78507664D01*
X107806202Y-78507671D01*
X107755908Y-78642517D01*
X107754029Y-78659999D01*
X107749501Y-78702123D01*
X107749500Y-78702135D01*
X107749500Y-81297870D01*
X104500500Y-81297870D01*
X104500500Y-77735004D01*
X111944435Y-77735004D01*
X111964630Y-77914247D01*
X111964632Y-77914257D01*
X111982541Y-77965436D01*
X111989500Y-78006391D01*
X111989500Y-90324907D01*
X112018723Y-90471822D01*
X112018725Y-90471830D01*
X112076051Y-90610229D01*
X112076056Y-90610238D01*
X112159279Y-90734789D01*
X112159280Y-90734790D01*
X112159281Y-90734791D01*
X112264669Y-90840179D01*
X112281979Y-90861885D01*
X112370184Y-91002262D01*
X112497738Y-91129816D01*
X112650478Y-91225789D01*
X112736556Y-91255909D01*
X112820745Y-91285368D01*
X112820750Y-91285369D01*
X112999996Y-91305565D01*
X113000000Y-91305565D01*
X113000004Y-91305565D01*
X113179249Y-91285369D01*
X113179252Y-91285368D01*
X113179255Y-91285368D01*
X113349522Y-91225789D01*
X113502262Y-91129816D01*
X113629816Y-91002262D01*
X113725789Y-90849522D01*
X113785368Y-90679255D01*
X113786108Y-90672691D01*
X113805565Y-90500003D01*
X113805565Y-90499996D01*
X113785369Y-90320750D01*
X113785368Y-90320745D01*
X113780213Y-90306014D01*
X113725789Y-90150478D01*
X113629816Y-89997738D01*
X113546819Y-89914741D01*
X113513334Y-89853418D01*
X113510500Y-89827060D01*
X113510500Y-81000003D01*
X118194435Y-81000003D01*
X118214630Y-81179249D01*
X118214631Y-81179254D01*
X118274211Y-81349523D01*
X118279213Y-81357483D01*
X118363946Y-81492335D01*
X118370185Y-81502263D01*
X118372445Y-81505097D01*
X118373334Y-81507275D01*
X118373889Y-81508158D01*
X118373734Y-81508255D01*
X118398855Y-81569783D01*
X118399500Y-81582412D01*
X118399500Y-83922588D01*
X118380494Y-83988560D01*
X118286435Y-84138252D01*
X118226855Y-84308521D01*
X118226854Y-84308526D01*
X118206659Y-84487772D01*
X118206659Y-84487779D01*
X118226854Y-84667025D01*
X118226855Y-84667030D01*
X118286435Y-84837299D01*
X118359636Y-84953797D01*
X118382408Y-84990038D01*
X118509962Y-85117592D01*
X118662702Y-85213565D01*
X118832969Y-85273144D01*
X118832974Y-85273145D01*
X119012220Y-85293341D01*
X119012224Y-85293341D01*
X119012228Y-85293341D01*
X119191473Y-85273145D01*
X119191476Y-85273144D01*
X119191479Y-85273144D01*
X119361746Y-85213565D01*
X119514486Y-85117592D01*
X119642040Y-84990038D01*
X119645231Y-84984959D01*
X121619332Y-84984959D01*
X121639527Y-85164205D01*
X121639528Y-85164210D01*
X121699108Y-85334479D01*
X121795082Y-85487219D01*
X121797342Y-85490053D01*
X121798231Y-85492231D01*
X121798786Y-85493114D01*
X121798631Y-85493211D01*
X121823752Y-85554739D01*
X121824397Y-85567368D01*
X121824397Y-86034883D01*
X121805391Y-86100854D01*
X121774209Y-86150479D01*
X121714633Y-86320737D01*
X121714630Y-86320750D01*
X121694435Y-86499996D01*
X121694435Y-86500003D01*
X121714630Y-86679249D01*
X121714631Y-86679254D01*
X121774211Y-86849523D01*
X121815122Y-86914632D01*
X121870184Y-87002262D01*
X121997738Y-87129816D01*
X122088080Y-87186582D01*
X122137852Y-87217856D01*
X122150478Y-87225789D01*
X122255381Y-87262496D01*
X122320745Y-87285368D01*
X122320750Y-87285369D01*
X122499996Y-87305565D01*
X122500000Y-87305565D01*
X122500004Y-87305565D01*
X122679249Y-87285369D01*
X122679252Y-87285368D01*
X122679255Y-87285368D01*
X122849522Y-87225789D01*
X123002262Y-87129816D01*
X123129816Y-87002262D01*
X123225789Y-86849522D01*
X123285368Y-86679255D01*
X123285369Y-86679249D01*
X123305565Y-86500003D01*
X123305565Y-86499996D01*
X123285369Y-86320750D01*
X123285368Y-86320745D01*
X123225788Y-86150476D01*
X123153156Y-86034883D01*
X123129816Y-85997738D01*
X123061716Y-85929638D01*
X123028231Y-85868315D01*
X123025397Y-85841957D01*
X123025397Y-85567368D01*
X123045082Y-85500329D01*
X123052452Y-85490053D01*
X123054707Y-85487223D01*
X123054713Y-85487218D01*
X123150686Y-85334478D01*
X123210265Y-85164211D01*
X123217989Y-85095659D01*
X123230462Y-84984959D01*
X123230462Y-84984952D01*
X123210266Y-84805706D01*
X123210265Y-84805701D01*
X123200745Y-84778495D01*
X123150686Y-84635434D01*
X123054713Y-84482694D01*
X122927159Y-84355140D01*
X122774420Y-84259167D01*
X122604151Y-84199587D01*
X122604146Y-84199586D01*
X122424901Y-84179391D01*
X122424893Y-84179391D01*
X122245647Y-84199586D01*
X122245642Y-84199587D01*
X122075373Y-84259167D01*
X121922634Y-84355140D01*
X121795081Y-84482693D01*
X121699108Y-84635432D01*
X121639528Y-84805701D01*
X121639527Y-84805706D01*
X121619332Y-84984952D01*
X121619332Y-84984959D01*
X119645231Y-84984959D01*
X119738013Y-84837298D01*
X119797592Y-84667031D01*
X119797593Y-84667025D01*
X119817789Y-84487779D01*
X119817789Y-84487772D01*
X119797593Y-84308526D01*
X119797592Y-84308521D01*
X119760901Y-84203664D01*
X119738013Y-84138254D01*
X119642040Y-83985514D01*
X119636819Y-83980293D01*
X119603334Y-83918970D01*
X119600500Y-83892612D01*
X119600500Y-81582412D01*
X119620185Y-81515373D01*
X119627555Y-81505097D01*
X119629810Y-81502267D01*
X119629816Y-81502262D01*
X119725789Y-81349522D01*
X119785368Y-81179255D01*
X119785369Y-81179249D01*
X119805565Y-81000003D01*
X119805565Y-80999996D01*
X119785369Y-80820750D01*
X119785368Y-80820745D01*
X119755832Y-80736335D01*
X119725789Y-80650478D01*
X119629816Y-80497738D01*
X119502262Y-80370184D01*
X119349523Y-80274211D01*
X119179254Y-80214631D01*
X119179249Y-80214630D01*
X119000004Y-80194435D01*
X118999996Y-80194435D01*
X118820750Y-80214630D01*
X118820745Y-80214631D01*
X118650476Y-80274211D01*
X118497737Y-80370184D01*
X118370184Y-80497737D01*
X118274211Y-80650476D01*
X118214631Y-80820745D01*
X118214630Y-80820750D01*
X118194435Y-80999996D01*
X118194435Y-81000003D01*
X113510500Y-81000003D01*
X113510500Y-78006391D01*
X113517459Y-77965436D01*
X113526543Y-77939475D01*
X113535368Y-77914256D01*
X113537791Y-77892748D01*
X113555565Y-77735004D01*
X113555565Y-77734997D01*
X113535369Y-77555751D01*
X113535368Y-77555746D01*
X113530383Y-77541501D01*
X113475789Y-77385479D01*
X113379816Y-77232739D01*
X113252262Y-77105185D01*
X113209782Y-77078493D01*
X113099523Y-77009212D01*
X112929254Y-76949632D01*
X112929249Y-76949631D01*
X112750004Y-76929436D01*
X112749996Y-76929436D01*
X112570750Y-76949631D01*
X112570745Y-76949632D01*
X112400476Y-77009212D01*
X112247737Y-77105185D01*
X112120184Y-77232738D01*
X112024211Y-77385477D01*
X111964631Y-77555746D01*
X111964630Y-77555751D01*
X111944435Y-77734997D01*
X111944435Y-77735004D01*
X104500500Y-77735004D01*
X104500500Y-75000004D01*
X107744592Y-75000004D01*
X107764196Y-75261620D01*
X107764197Y-75261625D01*
X107822576Y-75517402D01*
X107822578Y-75517411D01*
X107822580Y-75517416D01*
X107918432Y-75761643D01*
X108049614Y-75988857D01*
X108118898Y-76075736D01*
X108213198Y-76193985D01*
X108387167Y-76355403D01*
X108405521Y-76372433D01*
X108622296Y-76520228D01*
X108622301Y-76520230D01*
X108622302Y-76520231D01*
X108622303Y-76520232D01*
X108747843Y-76580688D01*
X108858673Y-76634061D01*
X108858674Y-76634061D01*
X108858677Y-76634063D01*
X109109385Y-76711396D01*
X109368818Y-76750500D01*
X109631182Y-76750500D01*
X109890615Y-76711396D01*
X110141323Y-76634063D01*
X110377704Y-76520228D01*
X110594479Y-76372433D01*
X110786805Y-76193981D01*
X110950386Y-75988857D01*
X111081568Y-75761643D01*
X111177420Y-75517416D01*
X111235802Y-75261630D01*
X111238581Y-75224551D01*
X111255408Y-75000004D01*
X111255408Y-74999995D01*
X111235803Y-74738379D01*
X111235802Y-74738374D01*
X111235802Y-74738370D01*
X111177420Y-74482584D01*
X111081568Y-74238357D01*
X110950386Y-74011143D01*
X110786805Y-73806019D01*
X110786804Y-73806018D01*
X110786801Y-73806014D01*
X110594479Y-73627567D01*
X110575561Y-73614669D01*
X110377704Y-73479772D01*
X110377700Y-73479770D01*
X110377697Y-73479768D01*
X110377696Y-73479767D01*
X110141325Y-73365938D01*
X110141327Y-73365938D01*
X109890623Y-73288606D01*
X109890619Y-73288605D01*
X109890615Y-73288604D01*
X109765823Y-73269794D01*
X109631187Y-73249500D01*
X109631182Y-73249500D01*
X109368818Y-73249500D01*
X109368812Y-73249500D01*
X109207247Y-73273853D01*
X109109385Y-73288604D01*
X109109382Y-73288605D01*
X109109376Y-73288606D01*
X108858673Y-73365938D01*
X108622303Y-73479767D01*
X108622302Y-73479768D01*
X108622296Y-73479771D01*
X108622296Y-73479772D01*
X108596839Y-73497128D01*
X108405520Y-73627567D01*
X108213198Y-73806014D01*
X108049614Y-74011143D01*
X107918432Y-74238356D01*
X107822582Y-74482578D01*
X107822576Y-74482597D01*
X107764197Y-74738374D01*
X107764196Y-74738379D01*
X107744592Y-74999995D01*
X107744592Y-75000004D01*
X104500500Y-75000004D01*
X104500500Y-68297870D01*
X107749500Y-68297870D01*
X107749501Y-68297876D01*
X107755908Y-68357483D01*
X107806202Y-68492328D01*
X107806206Y-68492335D01*
X107892452Y-68607544D01*
X107892455Y-68607547D01*
X108007664Y-68693793D01*
X108007671Y-68693797D01*
X108142517Y-68744091D01*
X108142516Y-68744091D01*
X108149444Y-68744835D01*
X108202127Y-68750500D01*
X110797872Y-68750499D01*
X110857483Y-68744091D01*
X110992331Y-68693796D01*
X111107546Y-68607546D01*
X111193796Y-68492331D01*
X111244091Y-68357483D01*
X111250500Y-68297873D01*
X111250499Y-65702128D01*
X111245299Y-65653757D01*
X111244091Y-65642516D01*
X111193797Y-65507671D01*
X111193793Y-65507664D01*
X111107547Y-65392455D01*
X111107544Y-65392452D01*
X110992335Y-65306206D01*
X110992328Y-65306202D01*
X110857482Y-65255908D01*
X110857483Y-65255908D01*
X110797883Y-65249501D01*
X110797881Y-65249500D01*
X110797873Y-65249500D01*
X110797864Y-65249500D01*
X108202129Y-65249500D01*
X108202123Y-65249501D01*
X108142516Y-65255908D01*
X108007671Y-65306202D01*
X108007664Y-65306206D01*
X107892455Y-65392452D01*
X107892452Y-65392455D01*
X107806206Y-65507664D01*
X107806202Y-65507671D01*
X107755908Y-65642517D01*
X107755685Y-65644596D01*
X107749501Y-65702123D01*
X107749500Y-65702135D01*
X107749500Y-68297870D01*
X104500500Y-68297870D01*
X104500500Y-62000004D01*
X107744592Y-62000004D01*
X107764196Y-62261620D01*
X107764197Y-62261625D01*
X107822576Y-62517402D01*
X107822578Y-62517411D01*
X107822580Y-62517416D01*
X107918432Y-62761643D01*
X108049614Y-62988857D01*
X108141905Y-63104586D01*
X108213198Y-63193985D01*
X108370565Y-63339999D01*
X108405521Y-63372433D01*
X108622296Y-63520228D01*
X108622301Y-63520230D01*
X108622302Y-63520231D01*
X108622303Y-63520232D01*
X108736889Y-63575413D01*
X108858673Y-63634061D01*
X108858674Y-63634061D01*
X108858677Y-63634063D01*
X109109385Y-63711396D01*
X109368818Y-63750500D01*
X109631182Y-63750500D01*
X109890615Y-63711396D01*
X110141323Y-63634063D01*
X110377704Y-63520228D01*
X110594479Y-63372433D01*
X110786805Y-63193981D01*
X110950386Y-62988857D01*
X111081568Y-62761643D01*
X111177420Y-62517416D01*
X111181394Y-62500003D01*
X111694435Y-62500003D01*
X111714630Y-62679249D01*
X111714631Y-62679254D01*
X111774211Y-62849523D01*
X111791064Y-62876344D01*
X111870184Y-63002262D01*
X111997738Y-63129816D01*
X112138118Y-63218022D01*
X112159825Y-63235334D01*
X115906155Y-66981664D01*
X115906184Y-66981695D01*
X116015205Y-67090716D01*
X116015209Y-67090719D01*
X116139761Y-67173943D01*
X116139767Y-67173946D01*
X116139768Y-67173947D01*
X116278170Y-67231275D01*
X116425092Y-67260499D01*
X116425096Y-67260500D01*
X116425097Y-67260500D01*
X121763804Y-67260500D01*
X121830843Y-67280185D01*
X121876598Y-67332989D01*
X121886542Y-67402147D01*
X121880845Y-67425455D01*
X121845514Y-67526422D01*
X121845511Y-67526435D01*
X121825316Y-67705681D01*
X121825316Y-67705688D01*
X121845511Y-67884934D01*
X121845512Y-67884939D01*
X121905092Y-68055208D01*
X122001065Y-68207947D01*
X122128621Y-68335503D01*
X122166471Y-68359285D01*
X122212763Y-68411619D01*
X122224500Y-68464279D01*
X122224500Y-71417587D01*
X122204815Y-71484626D01*
X122197450Y-71494896D01*
X122195186Y-71497734D01*
X122099211Y-71650476D01*
X122039631Y-71820745D01*
X122039630Y-71820750D01*
X122019435Y-71999996D01*
X122019435Y-72000002D01*
X122030884Y-72101616D01*
X122018830Y-72170438D01*
X121971480Y-72221818D01*
X121907664Y-72239500D01*
X115366371Y-72239500D01*
X115299332Y-72219815D01*
X115278690Y-72203181D01*
X113735334Y-70659825D01*
X113718021Y-70638116D01*
X113704317Y-70616306D01*
X113629816Y-70497738D01*
X113502262Y-70370184D01*
X113454226Y-70340001D01*
X113349523Y-70274211D01*
X113179254Y-70214631D01*
X113179249Y-70214630D01*
X113000004Y-70194435D01*
X112999996Y-70194435D01*
X112820750Y-70214630D01*
X112820745Y-70214631D01*
X112650476Y-70274211D01*
X112497737Y-70370184D01*
X112370184Y-70497737D01*
X112274211Y-70650476D01*
X112214631Y-70820745D01*
X112214630Y-70820750D01*
X112194435Y-70999996D01*
X112194435Y-71000003D01*
X112214630Y-71179249D01*
X112214631Y-71179254D01*
X112274211Y-71349523D01*
X112363576Y-71491745D01*
X112370184Y-71502262D01*
X112497738Y-71629816D01*
X112638118Y-71718022D01*
X112659825Y-71735334D01*
X114406155Y-73481664D01*
X114406184Y-73481695D01*
X114515205Y-73590716D01*
X114515209Y-73590719D01*
X114639761Y-73673943D01*
X114639767Y-73673946D01*
X114639768Y-73673947D01*
X114778170Y-73731275D01*
X114905716Y-73756645D01*
X114925092Y-73760499D01*
X114925096Y-73760500D01*
X114925097Y-73760500D01*
X114925098Y-73760500D01*
X115074902Y-73760500D01*
X118083678Y-73760500D01*
X118150717Y-73780185D01*
X118196472Y-73832989D01*
X118206898Y-73870617D01*
X118214630Y-73939249D01*
X118274210Y-74109521D01*
X118274211Y-74109522D01*
X118367399Y-74257830D01*
X118370185Y-74262263D01*
X118372445Y-74265097D01*
X118373334Y-74267275D01*
X118373889Y-74268158D01*
X118373734Y-74268255D01*
X118398855Y-74329783D01*
X118399500Y-74342412D01*
X118399500Y-75313330D01*
X118399499Y-75313348D01*
X118399499Y-75479054D01*
X118399498Y-75479054D01*
X118425567Y-75576344D01*
X118440423Y-75631785D01*
X118454598Y-75656337D01*
X118469358Y-75681900D01*
X118469359Y-75681904D01*
X118469360Y-75681904D01*
X118515396Y-75761643D01*
X118519479Y-75768714D01*
X118519481Y-75768717D01*
X118638349Y-75887585D01*
X118638355Y-75887590D01*
X121669298Y-78918533D01*
X121702783Y-78979856D01*
X121704837Y-78992330D01*
X121714630Y-79079249D01*
X121774210Y-79249521D01*
X121829701Y-79337834D01*
X121870184Y-79402262D01*
X121997738Y-79529816D01*
X122028613Y-79549216D01*
X122138869Y-79618495D01*
X122150478Y-79625789D01*
X122303258Y-79679249D01*
X122320745Y-79685368D01*
X122320750Y-79685369D01*
X122499996Y-79705565D01*
X122500000Y-79705565D01*
X122500004Y-79705565D01*
X122679249Y-79685369D01*
X122679252Y-79685368D01*
X122679255Y-79685368D01*
X122849522Y-79625789D01*
X123002262Y-79529816D01*
X123002267Y-79529810D01*
X123006257Y-79526629D01*
X123070943Y-79500219D01*
X123139639Y-79512973D01*
X123190534Y-79560842D01*
X123206793Y-79609690D01*
X123214630Y-79679249D01*
X123274210Y-79849521D01*
X123370184Y-80002262D01*
X123497738Y-80129816D01*
X123588080Y-80186582D01*
X123632721Y-80214632D01*
X123650478Y-80225789D01*
X123760499Y-80264287D01*
X123820745Y-80285368D01*
X123820750Y-80285369D01*
X123999996Y-80305565D01*
X124000000Y-80305565D01*
X124000003Y-80305565D01*
X124101616Y-80294116D01*
X124170438Y-80306170D01*
X124221818Y-80353520D01*
X124239500Y-80417336D01*
X124239500Y-86227660D01*
X124268723Y-86374575D01*
X124268725Y-86374583D01*
X124326051Y-86512982D01*
X124326056Y-86512991D01*
X124409280Y-86637543D01*
X124409283Y-86637547D01*
X124519528Y-86747792D01*
X124519550Y-86747812D01*
X125203181Y-87431443D01*
X125236666Y-87492766D01*
X125239500Y-87519124D01*
X125239500Y-89728606D01*
X125232542Y-89769561D01*
X125214631Y-89820745D01*
X125214630Y-89820750D01*
X125194435Y-89999996D01*
X125194435Y-90000003D01*
X125214630Y-90179249D01*
X125214631Y-90179254D01*
X125274211Y-90349523D01*
X125351057Y-90471822D01*
X125370184Y-90502262D01*
X125497738Y-90629816D01*
X125650478Y-90725789D01*
X125820745Y-90785368D01*
X125820750Y-90785369D01*
X125999996Y-90805565D01*
X126000000Y-90805565D01*
X126000004Y-90805565D01*
X126179249Y-90785369D01*
X126179252Y-90785368D01*
X126179255Y-90785368D01*
X126349522Y-90725789D01*
X126423581Y-90679255D01*
X126434027Y-90672691D01*
X126501264Y-90653690D01*
X126565973Y-90672691D01*
X126650475Y-90725788D01*
X126820745Y-90785368D01*
X126820750Y-90785369D01*
X126999996Y-90805565D01*
X127000000Y-90805565D01*
X127000004Y-90805565D01*
X127179249Y-90785369D01*
X127179252Y-90785368D01*
X127179255Y-90785368D01*
X127349522Y-90725789D01*
X127502262Y-90629816D01*
X127629816Y-90502262D01*
X127725789Y-90349522D01*
X127785368Y-90179255D01*
X127785369Y-90179249D01*
X127805565Y-90000003D01*
X127805565Y-89999996D01*
X127785369Y-89820750D01*
X127785368Y-89820745D01*
X127767458Y-89769561D01*
X127760500Y-89728606D01*
X127760500Y-89397870D01*
X129149500Y-89397870D01*
X129149501Y-89397876D01*
X129155908Y-89457483D01*
X129206202Y-89592328D01*
X129206206Y-89592335D01*
X129292452Y-89707544D01*
X129292455Y-89707547D01*
X129407664Y-89793793D01*
X129407671Y-89793797D01*
X129542517Y-89844091D01*
X129542516Y-89844091D01*
X129549444Y-89844835D01*
X129602127Y-89850500D01*
X131397872Y-89850499D01*
X131457483Y-89844091D01*
X131592331Y-89793796D01*
X131707546Y-89707546D01*
X131793796Y-89592331D01*
X131842810Y-89460916D01*
X131884681Y-89404984D01*
X131950145Y-89380566D01*
X132018418Y-89395417D01*
X132046673Y-89416569D01*
X132168599Y-89538495D01*
X132257151Y-89600500D01*
X132362165Y-89674032D01*
X132362167Y-89674033D01*
X132362170Y-89674035D01*
X132576337Y-89773903D01*
X132804592Y-89835063D01*
X132981034Y-89850500D01*
X133039999Y-89855659D01*
X133040000Y-89855659D01*
X133040001Y-89855659D01*
X133098966Y-89850500D01*
X133275408Y-89835063D01*
X133503663Y-89773903D01*
X133717830Y-89674035D01*
X133911401Y-89538495D01*
X134078495Y-89371401D01*
X134208425Y-89185842D01*
X134263002Y-89142217D01*
X134332500Y-89135023D01*
X134394855Y-89166546D01*
X134411575Y-89185842D01*
X134541500Y-89371395D01*
X134541505Y-89371401D01*
X134708599Y-89538495D01*
X134797151Y-89600500D01*
X134902165Y-89674032D01*
X134902167Y-89674033D01*
X134902170Y-89674035D01*
X135116337Y-89773903D01*
X135344592Y-89835063D01*
X135521034Y-89850500D01*
X135579999Y-89855659D01*
X135580000Y-89855659D01*
X135580001Y-89855659D01*
X135638966Y-89850500D01*
X135815408Y-89835063D01*
X136043663Y-89773903D01*
X136257830Y-89674035D01*
X136451401Y-89538495D01*
X136618495Y-89371401D01*
X136748425Y-89185842D01*
X136803002Y-89142217D01*
X136872500Y-89135023D01*
X136934855Y-89166546D01*
X136951575Y-89185842D01*
X137081500Y-89371395D01*
X137081505Y-89371401D01*
X137248599Y-89538495D01*
X137337151Y-89600500D01*
X137442165Y-89674032D01*
X137442167Y-89674033D01*
X137442170Y-89674035D01*
X137656337Y-89773903D01*
X137884592Y-89835063D01*
X138061034Y-89850500D01*
X138119999Y-89855659D01*
X138120000Y-89855659D01*
X138120001Y-89855659D01*
X138178966Y-89850500D01*
X138355408Y-89835063D01*
X138583663Y-89773903D01*
X138797830Y-89674035D01*
X138991401Y-89538495D01*
X139158495Y-89371401D01*
X139288425Y-89185842D01*
X139343002Y-89142217D01*
X139412500Y-89135023D01*
X139474855Y-89166546D01*
X139491575Y-89185842D01*
X139621500Y-89371395D01*
X139621505Y-89371401D01*
X139788599Y-89538495D01*
X139877151Y-89600500D01*
X139982165Y-89674032D01*
X139982167Y-89674033D01*
X139982170Y-89674035D01*
X140196337Y-89773903D01*
X140424592Y-89835063D01*
X140601034Y-89850500D01*
X140659999Y-89855659D01*
X140660000Y-89855659D01*
X140660001Y-89855659D01*
X140718966Y-89850500D01*
X140895408Y-89835063D01*
X141123663Y-89773903D01*
X141337830Y-89674035D01*
X141531401Y-89538495D01*
X141698495Y-89371401D01*
X141828425Y-89185842D01*
X141883002Y-89142217D01*
X141952500Y-89135023D01*
X142014855Y-89166546D01*
X142031575Y-89185842D01*
X142161500Y-89371395D01*
X142161505Y-89371401D01*
X142328599Y-89538495D01*
X142417151Y-89600500D01*
X142522165Y-89674032D01*
X142522167Y-89674033D01*
X142522170Y-89674035D01*
X142736337Y-89773903D01*
X142964592Y-89835063D01*
X143141034Y-89850500D01*
X143199999Y-89855659D01*
X143200000Y-89855659D01*
X143200001Y-89855659D01*
X143258966Y-89850500D01*
X143435408Y-89835063D01*
X143663663Y-89773903D01*
X143877830Y-89674035D01*
X144071401Y-89538495D01*
X144238495Y-89371401D01*
X144368425Y-89185842D01*
X144423002Y-89142217D01*
X144492500Y-89135023D01*
X144554855Y-89166546D01*
X144571575Y-89185842D01*
X144701500Y-89371395D01*
X144701505Y-89371401D01*
X144868599Y-89538495D01*
X144957151Y-89600500D01*
X145062165Y-89674032D01*
X145062167Y-89674033D01*
X145062170Y-89674035D01*
X145276337Y-89773903D01*
X145504592Y-89835063D01*
X145681034Y-89850500D01*
X145739999Y-89855659D01*
X145740000Y-89855659D01*
X145740001Y-89855659D01*
X145798966Y-89850500D01*
X145975408Y-89835063D01*
X146203663Y-89773903D01*
X146417830Y-89674035D01*
X146611401Y-89538495D01*
X146778495Y-89371401D01*
X146908425Y-89185842D01*
X146963002Y-89142217D01*
X147032500Y-89135023D01*
X147094855Y-89166546D01*
X147111575Y-89185842D01*
X147241500Y-89371395D01*
X147241505Y-89371401D01*
X147408599Y-89538495D01*
X147497151Y-89600500D01*
X147602165Y-89674032D01*
X147602167Y-89674033D01*
X147602170Y-89674035D01*
X147816337Y-89773903D01*
X148044592Y-89835063D01*
X148221034Y-89850500D01*
X148279999Y-89855659D01*
X148280000Y-89855659D01*
X148280001Y-89855659D01*
X148338966Y-89850500D01*
X148515408Y-89835063D01*
X148743663Y-89773903D01*
X148957830Y-89674035D01*
X149151401Y-89538495D01*
X149318495Y-89371401D01*
X149448425Y-89185842D01*
X149503002Y-89142217D01*
X149572500Y-89135023D01*
X149634855Y-89166546D01*
X149651575Y-89185842D01*
X149781500Y-89371395D01*
X149781505Y-89371401D01*
X149948599Y-89538495D01*
X150037151Y-89600500D01*
X150142165Y-89674032D01*
X150142167Y-89674033D01*
X150142170Y-89674035D01*
X150356337Y-89773903D01*
X150584592Y-89835063D01*
X150761034Y-89850500D01*
X150819999Y-89855659D01*
X150820000Y-89855659D01*
X150820001Y-89855659D01*
X150878966Y-89850500D01*
X151055408Y-89835063D01*
X151283663Y-89773903D01*
X151497830Y-89674035D01*
X151691401Y-89538495D01*
X151858495Y-89371401D01*
X151994035Y-89177830D01*
X152093903Y-88963663D01*
X152155063Y-88735408D01*
X152175659Y-88500000D01*
X152155063Y-88264592D01*
X152112728Y-88106593D01*
X152114391Y-88036743D01*
X152153554Y-87978881D01*
X152217782Y-87951377D01*
X152232503Y-87950500D01*
X156549903Y-87950500D01*
X156616942Y-87970185D01*
X156637584Y-87986819D01*
X158015139Y-89364374D01*
X158015149Y-89364385D01*
X158019479Y-89368715D01*
X158019480Y-89368716D01*
X158131284Y-89480520D01*
X158131286Y-89480521D01*
X158131290Y-89480524D01*
X158268209Y-89559573D01*
X158268216Y-89559577D01*
X158380019Y-89589534D01*
X158420942Y-89600500D01*
X158420943Y-89600500D01*
X161898209Y-89600500D01*
X161965248Y-89620185D01*
X162011003Y-89672989D01*
X162020947Y-89742147D01*
X161991922Y-89805703D01*
X161934758Y-89842991D01*
X161858858Y-89866402D01*
X161858857Y-89866403D01*
X161761714Y-89913184D01*
X161761714Y-89913185D01*
X162500000Y-90651471D01*
X162500001Y-90651471D01*
X163238285Y-89913186D01*
X163238284Y-89913184D01*
X163141142Y-89866404D01*
X163141144Y-89866404D01*
X163065239Y-89842991D01*
X163006980Y-89804421D01*
X162978822Y-89740476D01*
X162989706Y-89671459D01*
X163036175Y-89619282D01*
X163101789Y-89600500D01*
X163613331Y-89600500D01*
X163613347Y-89600501D01*
X163620943Y-89600501D01*
X163779054Y-89600501D01*
X163779057Y-89600501D01*
X163931785Y-89559577D01*
X164002542Y-89518725D01*
X164068716Y-89480520D01*
X164180520Y-89368716D01*
X164180520Y-89368714D01*
X164190724Y-89358511D01*
X164190728Y-89358506D01*
X165018535Y-88530698D01*
X165079856Y-88497215D01*
X165092311Y-88495163D01*
X165179255Y-88485368D01*
X165349522Y-88425789D01*
X165502262Y-88329816D01*
X165629816Y-88202262D01*
X165670506Y-88137503D01*
X165722841Y-88091213D01*
X165791894Y-88080565D01*
X165855743Y-88108940D01*
X165894115Y-88167330D01*
X165899500Y-88203476D01*
X165899500Y-88714033D01*
X165879815Y-88781072D01*
X165872450Y-88791342D01*
X165870186Y-88794180D01*
X165774211Y-88946922D01*
X165714631Y-89117191D01*
X165714630Y-89117196D01*
X165694435Y-89296442D01*
X165694435Y-89296449D01*
X165714630Y-89475695D01*
X165714631Y-89475700D01*
X165774211Y-89645969D01*
X165867062Y-89793740D01*
X165886062Y-89860977D01*
X165865694Y-89927812D01*
X165861335Y-89934023D01*
X165806204Y-90007668D01*
X165806202Y-90007671D01*
X165755908Y-90142517D01*
X165751959Y-90179254D01*
X165749501Y-90202123D01*
X165749500Y-90202135D01*
X165749500Y-92797870D01*
X165749501Y-92797876D01*
X165755908Y-92857483D01*
X165806202Y-92992328D01*
X165806206Y-92992335D01*
X165892452Y-93107544D01*
X165892455Y-93107547D01*
X166007664Y-93193793D01*
X166007671Y-93193797D01*
X166142517Y-93244091D01*
X166142516Y-93244091D01*
X166149444Y-93244835D01*
X166202127Y-93250500D01*
X168797872Y-93250499D01*
X168857483Y-93244091D01*
X168992331Y-93193796D01*
X169107546Y-93107546D01*
X169193796Y-92992331D01*
X169244091Y-92857483D01*
X169250500Y-92797873D01*
X169250499Y-90202128D01*
X169244091Y-90142517D01*
X169193796Y-90007669D01*
X169193795Y-90007668D01*
X169193793Y-90007664D01*
X169107547Y-89892455D01*
X169107544Y-89892452D01*
X168992335Y-89806206D01*
X168992328Y-89806202D01*
X168857482Y-89755908D01*
X168857483Y-89755908D01*
X168797883Y-89749501D01*
X168797881Y-89749500D01*
X168797873Y-89749500D01*
X168797865Y-89749500D01*
X167364324Y-89749500D01*
X167297285Y-89729815D01*
X167251530Y-89677011D01*
X167241586Y-89607853D01*
X167247282Y-89584546D01*
X167283681Y-89480521D01*
X167285368Y-89475701D01*
X167294137Y-89397872D01*
X167305565Y-89296449D01*
X167305565Y-89296442D01*
X167285369Y-89117196D01*
X167285368Y-89117191D01*
X167240462Y-88988857D01*
X167225789Y-88946924D01*
X167129816Y-88794184D01*
X167129814Y-88794182D01*
X167129813Y-88794180D01*
X167127550Y-88791342D01*
X167126659Y-88789161D01*
X167126111Y-88788288D01*
X167126264Y-88788191D01*
X167101144Y-88726655D01*
X167100500Y-88714033D01*
X167100500Y-87082412D01*
X167120185Y-87015373D01*
X167127555Y-87005097D01*
X167129810Y-87002267D01*
X167129816Y-87002262D01*
X167225789Y-86849522D01*
X167285368Y-86679255D01*
X167285369Y-86679249D01*
X167305565Y-86500003D01*
X167305565Y-86499996D01*
X167285369Y-86320750D01*
X167285368Y-86320745D01*
X167225788Y-86150476D01*
X167153156Y-86034883D01*
X167129816Y-85997738D01*
X167002262Y-85870184D01*
X166957339Y-85841957D01*
X166849523Y-85774211D01*
X166679254Y-85714631D01*
X166679249Y-85714630D01*
X166500004Y-85694435D01*
X166499996Y-85694435D01*
X166320750Y-85714630D01*
X166320745Y-85714631D01*
X166150476Y-85774211D01*
X165997737Y-85870184D01*
X165870184Y-85997737D01*
X165774211Y-86150476D01*
X165714631Y-86320745D01*
X165714630Y-86320750D01*
X165694435Y-86499996D01*
X165694435Y-86500003D01*
X165714630Y-86679249D01*
X165714631Y-86679254D01*
X165774211Y-86849523D01*
X165815121Y-86914630D01*
X165852558Y-86974211D01*
X165870185Y-87002263D01*
X165872445Y-87005097D01*
X165873334Y-87007275D01*
X165873889Y-87008158D01*
X165873734Y-87008255D01*
X165898855Y-87069783D01*
X165899500Y-87082412D01*
X165899500Y-87196523D01*
X165879815Y-87263562D01*
X165827011Y-87309317D01*
X165757853Y-87319261D01*
X165694297Y-87290236D01*
X165670507Y-87262496D01*
X165629817Y-87197739D01*
X165502262Y-87070184D01*
X165349523Y-86974211D01*
X165179254Y-86914631D01*
X165179249Y-86914630D01*
X165000004Y-86894435D01*
X164999996Y-86894435D01*
X164820750Y-86914630D01*
X164820745Y-86914631D01*
X164650476Y-86974211D01*
X164497737Y-87070184D01*
X164370184Y-87197737D01*
X164274210Y-87350478D01*
X164214630Y-87520750D01*
X164204837Y-87607668D01*
X164177770Y-87672082D01*
X164169298Y-87681465D01*
X163487584Y-88363181D01*
X163426261Y-88396666D01*
X163399903Y-88399500D01*
X158800097Y-88399500D01*
X158733058Y-88379815D01*
X158712416Y-88363181D01*
X157337590Y-86988355D01*
X157337588Y-86988352D01*
X157218717Y-86869481D01*
X157218716Y-86869480D01*
X157131904Y-86819360D01*
X157131904Y-86819359D01*
X157131900Y-86819358D01*
X157081785Y-86790423D01*
X156929057Y-86749499D01*
X156770943Y-86749499D01*
X156763347Y-86749499D01*
X156763331Y-86749500D01*
X149516670Y-86749500D01*
X149516654Y-86749499D01*
X149509058Y-86749499D01*
X149350943Y-86749499D01*
X149274579Y-86769961D01*
X149198214Y-86790423D01*
X149198209Y-86790426D01*
X149061290Y-86869475D01*
X149061286Y-86869478D01*
X148763529Y-87167234D01*
X148702206Y-87200718D01*
X148643755Y-87199327D01*
X148515413Y-87164938D01*
X148515403Y-87164936D01*
X148280001Y-87144341D01*
X148279999Y-87144341D01*
X148044596Y-87164936D01*
X148044586Y-87164938D01*
X147816344Y-87226094D01*
X147816335Y-87226098D01*
X147602171Y-87325964D01*
X147602169Y-87325965D01*
X147408597Y-87461505D01*
X147241505Y-87628597D01*
X147111575Y-87814158D01*
X147056998Y-87857783D01*
X146987500Y-87864977D01*
X146925145Y-87833454D01*
X146908425Y-87814158D01*
X146778494Y-87628597D01*
X146611402Y-87461506D01*
X146611395Y-87461501D01*
X146417834Y-87325967D01*
X146417830Y-87325965D01*
X146374082Y-87305565D01*
X146203663Y-87226097D01*
X146203659Y-87226096D01*
X146203655Y-87226094D01*
X145975413Y-87164938D01*
X145975403Y-87164936D01*
X145740001Y-87144341D01*
X145739999Y-87144341D01*
X145504596Y-87164936D01*
X145504586Y-87164938D01*
X145276344Y-87226094D01*
X145276335Y-87226098D01*
X145062171Y-87325964D01*
X145062169Y-87325965D01*
X144868597Y-87461505D01*
X144701505Y-87628597D01*
X144571575Y-87814158D01*
X144516998Y-87857783D01*
X144447500Y-87864977D01*
X144385145Y-87833454D01*
X144368425Y-87814158D01*
X144238494Y-87628597D01*
X144071402Y-87461506D01*
X144071395Y-87461501D01*
X143877834Y-87325967D01*
X143877830Y-87325965D01*
X143834082Y-87305565D01*
X143663663Y-87226097D01*
X143663659Y-87226096D01*
X143663655Y-87226094D01*
X143435413Y-87164938D01*
X143435403Y-87164936D01*
X143200001Y-87144341D01*
X143199999Y-87144341D01*
X142964596Y-87164936D01*
X142964586Y-87164938D01*
X142736344Y-87226094D01*
X142736335Y-87226098D01*
X142522171Y-87325964D01*
X142522169Y-87325965D01*
X142328597Y-87461505D01*
X142161505Y-87628597D01*
X142031575Y-87814158D01*
X141976998Y-87857783D01*
X141907500Y-87864977D01*
X141845145Y-87833454D01*
X141828425Y-87814158D01*
X141698494Y-87628597D01*
X141531402Y-87461506D01*
X141531395Y-87461501D01*
X141337834Y-87325967D01*
X141337830Y-87325965D01*
X141294082Y-87305565D01*
X141123663Y-87226097D01*
X141123659Y-87226096D01*
X141123655Y-87226094D01*
X140895413Y-87164938D01*
X140895403Y-87164936D01*
X140660001Y-87144341D01*
X140659999Y-87144341D01*
X140424596Y-87164936D01*
X140424586Y-87164938D01*
X140196344Y-87226094D01*
X140196335Y-87226098D01*
X139982171Y-87325964D01*
X139982169Y-87325965D01*
X139788597Y-87461505D01*
X139621505Y-87628597D01*
X139491575Y-87814158D01*
X139436998Y-87857783D01*
X139367500Y-87864977D01*
X139305145Y-87833454D01*
X139288425Y-87814158D01*
X139158494Y-87628597D01*
X138991402Y-87461506D01*
X138991395Y-87461501D01*
X138797834Y-87325967D01*
X138797830Y-87325965D01*
X138754082Y-87305565D01*
X138583663Y-87226097D01*
X138583659Y-87226096D01*
X138583655Y-87226094D01*
X138355413Y-87164938D01*
X138355403Y-87164936D01*
X138120001Y-87144341D01*
X138119999Y-87144341D01*
X137884596Y-87164936D01*
X137884586Y-87164938D01*
X137656344Y-87226094D01*
X137656335Y-87226098D01*
X137442171Y-87325964D01*
X137442169Y-87325965D01*
X137248597Y-87461505D01*
X137081505Y-87628597D01*
X136951575Y-87814158D01*
X136896998Y-87857783D01*
X136827500Y-87864977D01*
X136765145Y-87833454D01*
X136748425Y-87814158D01*
X136618494Y-87628597D01*
X136451402Y-87461506D01*
X136451395Y-87461501D01*
X136257834Y-87325967D01*
X136257830Y-87325965D01*
X136214082Y-87305565D01*
X136043663Y-87226097D01*
X136043659Y-87226096D01*
X136043655Y-87226094D01*
X135815413Y-87164938D01*
X135815403Y-87164936D01*
X135580001Y-87144341D01*
X135579999Y-87144341D01*
X135344596Y-87164936D01*
X135344586Y-87164938D01*
X135116344Y-87226094D01*
X135116335Y-87226098D01*
X134902171Y-87325964D01*
X134902169Y-87325965D01*
X134708597Y-87461505D01*
X134541505Y-87628597D01*
X134411575Y-87814158D01*
X134356998Y-87857783D01*
X134287500Y-87864977D01*
X134225145Y-87833454D01*
X134208425Y-87814158D01*
X134078494Y-87628597D01*
X133911402Y-87461506D01*
X133911395Y-87461501D01*
X133717834Y-87325967D01*
X133717830Y-87325965D01*
X133674082Y-87305565D01*
X133503663Y-87226097D01*
X133503659Y-87226096D01*
X133503655Y-87226094D01*
X133275413Y-87164938D01*
X133275403Y-87164936D01*
X133040001Y-87144341D01*
X133039999Y-87144341D01*
X132804596Y-87164936D01*
X132804586Y-87164938D01*
X132576344Y-87226094D01*
X132576335Y-87226098D01*
X132362171Y-87325964D01*
X132362169Y-87325965D01*
X132168600Y-87461503D01*
X132046673Y-87583430D01*
X131985350Y-87616914D01*
X131915658Y-87611930D01*
X131859725Y-87570058D01*
X131842810Y-87539081D01*
X131793797Y-87407671D01*
X131793793Y-87407664D01*
X131707547Y-87292455D01*
X131707544Y-87292452D01*
X131592335Y-87206206D01*
X131592328Y-87206202D01*
X131457482Y-87155908D01*
X131457483Y-87155908D01*
X131397883Y-87149501D01*
X131397881Y-87149500D01*
X131397873Y-87149500D01*
X131397864Y-87149500D01*
X129602129Y-87149500D01*
X129602123Y-87149501D01*
X129542516Y-87155908D01*
X129407671Y-87206202D01*
X129407664Y-87206206D01*
X129292455Y-87292452D01*
X129292452Y-87292455D01*
X129206206Y-87407664D01*
X129206202Y-87407671D01*
X129155908Y-87542517D01*
X129149501Y-87602116D01*
X129149500Y-87602135D01*
X129149500Y-89397870D01*
X127760500Y-89397870D01*
X127760500Y-86581037D01*
X127760501Y-86581016D01*
X127760501Y-86425095D01*
X127760500Y-86425093D01*
X127748733Y-86365937D01*
X127731275Y-86278170D01*
X127678383Y-86150478D01*
X127673948Y-86139770D01*
X127624302Y-86065470D01*
X127590717Y-86015206D01*
X127481695Y-85906184D01*
X127481664Y-85906155D01*
X126796819Y-85221310D01*
X126763334Y-85159987D01*
X126760500Y-85133629D01*
X126760500Y-84709758D01*
X126780185Y-84642719D01*
X126832989Y-84596964D01*
X126902147Y-84587020D01*
X126965703Y-84616045D01*
X126972181Y-84622077D01*
X127128599Y-84778495D01*
X127212578Y-84837298D01*
X127322165Y-84914032D01*
X127322167Y-84914033D01*
X127322170Y-84914035D01*
X127536337Y-85013903D01*
X127764592Y-85075063D01*
X127952918Y-85091539D01*
X127999999Y-85095659D01*
X128000000Y-85095659D01*
X128000001Y-85095659D01*
X128039234Y-85092226D01*
X128235408Y-85075063D01*
X128463663Y-85013903D01*
X128677830Y-84914035D01*
X128871401Y-84778495D01*
X129038495Y-84611401D01*
X129174035Y-84417830D01*
X129273903Y-84203663D01*
X129335063Y-83975408D01*
X129355659Y-83740000D01*
X129335063Y-83504592D01*
X129273903Y-83276337D01*
X129174035Y-83062171D01*
X129054466Y-82891407D01*
X129038494Y-82868597D01*
X128871402Y-82701506D01*
X128871396Y-82701501D01*
X128685842Y-82571575D01*
X128642217Y-82516998D01*
X128635023Y-82447500D01*
X128666546Y-82385145D01*
X128685842Y-82368425D01*
X128769995Y-82309500D01*
X128871401Y-82238495D01*
X129038495Y-82071401D01*
X129174035Y-81877830D01*
X129273903Y-81663663D01*
X129335063Y-81435408D01*
X129355659Y-81200000D01*
X129353843Y-81179249D01*
X129338161Y-81000000D01*
X129335063Y-80964592D01*
X129273903Y-80736337D01*
X129174035Y-80522171D01*
X129156927Y-80497737D01*
X129038494Y-80328597D01*
X128871402Y-80161506D01*
X128871396Y-80161501D01*
X128685842Y-80031575D01*
X128642217Y-79976998D01*
X128635023Y-79907500D01*
X128666546Y-79845145D01*
X128685842Y-79828425D01*
X128776215Y-79765145D01*
X128871401Y-79698495D01*
X129038495Y-79531401D01*
X129174035Y-79337830D01*
X129273903Y-79123663D01*
X129335063Y-78895408D01*
X129355659Y-78660000D01*
X129335063Y-78424592D01*
X129273903Y-78196337D01*
X129174035Y-77982171D01*
X129169205Y-77975272D01*
X129038494Y-77788597D01*
X128871402Y-77621506D01*
X128871396Y-77621501D01*
X128685842Y-77491575D01*
X128642217Y-77436998D01*
X128635023Y-77367500D01*
X128666546Y-77305145D01*
X128685842Y-77288425D01*
X128758089Y-77237837D01*
X138386424Y-77237837D01*
X138520858Y-77284877D01*
X138520861Y-77284878D01*
X138699997Y-77305062D01*
X138700003Y-77305062D01*
X138879138Y-77284878D01*
X138879141Y-77284877D01*
X139013574Y-77237837D01*
X139786424Y-77237837D01*
X139920858Y-77284877D01*
X139920861Y-77284878D01*
X140099997Y-77305062D01*
X140100003Y-77305062D01*
X140279138Y-77284878D01*
X140279141Y-77284877D01*
X140413574Y-77237837D01*
X140100001Y-76924264D01*
X140100000Y-76924264D01*
X139786424Y-77237837D01*
X139013574Y-77237837D01*
X138700001Y-76924264D01*
X138700000Y-76924264D01*
X138386424Y-77237837D01*
X128758089Y-77237837D01*
X128871401Y-77158495D01*
X129038495Y-76991401D01*
X129174035Y-76797830D01*
X129273903Y-76583663D01*
X129286182Y-76537837D01*
X137686424Y-76537837D01*
X137820859Y-76584877D01*
X137821644Y-76585057D01*
X137822099Y-76585311D01*
X137827430Y-76587177D01*
X137827103Y-76588110D01*
X137882623Y-76619166D01*
X137911953Y-76672875D01*
X137912823Y-76672571D01*
X137914670Y-76677851D01*
X137914939Y-76678343D01*
X137915120Y-76679135D01*
X137962160Y-76813573D01*
X137962161Y-76813574D01*
X138255845Y-76519891D01*
X138600000Y-76519891D01*
X138615224Y-76556645D01*
X138643355Y-76584776D01*
X138680109Y-76600000D01*
X138719891Y-76600000D01*
X138756645Y-76584776D01*
X138784776Y-76556645D01*
X138800000Y-76519891D01*
X138800000Y-76500000D01*
X139124264Y-76500000D01*
X139400000Y-76775736D01*
X139655845Y-76519891D01*
X140000000Y-76519891D01*
X140015224Y-76556645D01*
X140043355Y-76584776D01*
X140080109Y-76600000D01*
X140119891Y-76600000D01*
X140156645Y-76584776D01*
X140184776Y-76556645D01*
X140200000Y-76519891D01*
X140200000Y-76500000D01*
X140524264Y-76500000D01*
X140837837Y-76813573D01*
X140884876Y-76679144D01*
X140885056Y-76678358D01*
X140885311Y-76677901D01*
X140887177Y-76672570D01*
X140888110Y-76672896D01*
X140919164Y-76617379D01*
X140972875Y-76588049D01*
X140972570Y-76587177D01*
X140977870Y-76585322D01*
X140978358Y-76585056D01*
X140979144Y-76584876D01*
X141113573Y-76537837D01*
X140800000Y-76224264D01*
X140524264Y-76500000D01*
X140200000Y-76500000D01*
X140200000Y-76480109D01*
X140184776Y-76443355D01*
X140156645Y-76415224D01*
X140119891Y-76400000D01*
X140080109Y-76400000D01*
X140043355Y-76415224D01*
X140015224Y-76443355D01*
X140000000Y-76480109D01*
X140000000Y-76519891D01*
X139655845Y-76519891D01*
X139675736Y-76500000D01*
X139400000Y-76224264D01*
X139124264Y-76500000D01*
X138800000Y-76500000D01*
X138800000Y-76480109D01*
X138784776Y-76443355D01*
X138756645Y-76415224D01*
X138719891Y-76400000D01*
X138680109Y-76400000D01*
X138643355Y-76415224D01*
X138615224Y-76443355D01*
X138600000Y-76480109D01*
X138600000Y-76519891D01*
X138255845Y-76519891D01*
X138275736Y-76500000D01*
X138275736Y-76499999D01*
X138000001Y-76224264D01*
X138000000Y-76224264D01*
X137686424Y-76537837D01*
X129286182Y-76537837D01*
X129335063Y-76355408D01*
X129355659Y-76120000D01*
X129335063Y-75884592D01*
X129312397Y-75800002D01*
X137194938Y-75800002D01*
X137215122Y-75979142D01*
X137262160Y-76113573D01*
X137262161Y-76113574D01*
X137555845Y-75819891D01*
X137900000Y-75819891D01*
X137915224Y-75856645D01*
X137943355Y-75884776D01*
X137980109Y-75900000D01*
X138019891Y-75900000D01*
X138056645Y-75884776D01*
X138084776Y-75856645D01*
X138100000Y-75819891D01*
X138100000Y-75800000D01*
X138424264Y-75800000D01*
X138700000Y-76075736D01*
X138955845Y-75819891D01*
X139300000Y-75819891D01*
X139315224Y-75856645D01*
X139343355Y-75884776D01*
X139380109Y-75900000D01*
X139419891Y-75900000D01*
X139456645Y-75884776D01*
X139484776Y-75856645D01*
X139500000Y-75819891D01*
X139500000Y-75800000D01*
X139824264Y-75800000D01*
X140100000Y-76075736D01*
X140355845Y-75819891D01*
X140700000Y-75819891D01*
X140715224Y-75856645D01*
X140743355Y-75884776D01*
X140780109Y-75900000D01*
X140819891Y-75900000D01*
X140856645Y-75884776D01*
X140884776Y-75856645D01*
X140900000Y-75819891D01*
X140900000Y-75800000D01*
X141224264Y-75800000D01*
X141537837Y-76113573D01*
X141584877Y-75979141D01*
X141584878Y-75979138D01*
X141605062Y-75800002D01*
X141605062Y-75799997D01*
X141584878Y-75620861D01*
X141584877Y-75620858D01*
X141537837Y-75486425D01*
X141537837Y-75486424D01*
X141224264Y-75799999D01*
X141224264Y-75800000D01*
X140900000Y-75800000D01*
X140900000Y-75780109D01*
X140884776Y-75743355D01*
X140856645Y-75715224D01*
X140819891Y-75700000D01*
X140780109Y-75700000D01*
X140743355Y-75715224D01*
X140715224Y-75743355D01*
X140700000Y-75780109D01*
X140700000Y-75819891D01*
X140355845Y-75819891D01*
X140375736Y-75800000D01*
X140100000Y-75524264D01*
X139824264Y-75800000D01*
X139500000Y-75800000D01*
X139500000Y-75780109D01*
X139484776Y-75743355D01*
X139456645Y-75715224D01*
X139419891Y-75700000D01*
X139380109Y-75700000D01*
X139343355Y-75715224D01*
X139315224Y-75743355D01*
X139300000Y-75780109D01*
X139300000Y-75819891D01*
X138955845Y-75819891D01*
X138975736Y-75800000D01*
X138700000Y-75524264D01*
X138424264Y-75800000D01*
X138100000Y-75800000D01*
X138100000Y-75780109D01*
X138084776Y-75743355D01*
X138056645Y-75715224D01*
X138019891Y-75700000D01*
X137980109Y-75700000D01*
X137943355Y-75715224D01*
X137915224Y-75743355D01*
X137900000Y-75780109D01*
X137900000Y-75819891D01*
X137555845Y-75819891D01*
X137575736Y-75800000D01*
X137262160Y-75486424D01*
X137215122Y-75620857D01*
X137194938Y-75799997D01*
X137194938Y-75800002D01*
X129312397Y-75800002D01*
X129273903Y-75656337D01*
X129174035Y-75442171D01*
X129118018Y-75362169D01*
X129038494Y-75248597D01*
X128889896Y-75100000D01*
X137724264Y-75100000D01*
X138000000Y-75375736D01*
X138255845Y-75119891D01*
X138600000Y-75119891D01*
X138615224Y-75156645D01*
X138643355Y-75184776D01*
X138680109Y-75200000D01*
X138719891Y-75200000D01*
X138756645Y-75184776D01*
X138784776Y-75156645D01*
X138800000Y-75119891D01*
X138800000Y-75100000D01*
X139124264Y-75100000D01*
X139400000Y-75375736D01*
X139655845Y-75119891D01*
X140000000Y-75119891D01*
X140015224Y-75156645D01*
X140043355Y-75184776D01*
X140080109Y-75200000D01*
X140119891Y-75200000D01*
X140156645Y-75184776D01*
X140184776Y-75156645D01*
X140200000Y-75119891D01*
X140200000Y-75100000D01*
X140524264Y-75100000D01*
X140800000Y-75375736D01*
X141075736Y-75100000D01*
X140800000Y-74824264D01*
X140524264Y-75100000D01*
X140200000Y-75100000D01*
X140200000Y-75080109D01*
X140184776Y-75043355D01*
X140156645Y-75015224D01*
X140119891Y-75000000D01*
X140080109Y-75000000D01*
X140043355Y-75015224D01*
X140015224Y-75043355D01*
X140000000Y-75080109D01*
X140000000Y-75119891D01*
X139655845Y-75119891D01*
X139675736Y-75100000D01*
X139400000Y-74824264D01*
X139124264Y-75100000D01*
X138800000Y-75100000D01*
X138800000Y-75080109D01*
X138784776Y-75043355D01*
X138756645Y-75015224D01*
X138719891Y-75000000D01*
X138680109Y-75000000D01*
X138643355Y-75015224D01*
X138615224Y-75043355D01*
X138600000Y-75080109D01*
X138600000Y-75119891D01*
X138255845Y-75119891D01*
X138275736Y-75100000D01*
X138000000Y-74824264D01*
X137724264Y-75100000D01*
X128889896Y-75100000D01*
X128871402Y-75081506D01*
X128871396Y-75081501D01*
X128685842Y-74951575D01*
X128642217Y-74896998D01*
X128635023Y-74827500D01*
X128666546Y-74765145D01*
X128685842Y-74748425D01*
X128735616Y-74713573D01*
X128871401Y-74618495D01*
X129038495Y-74451401D01*
X129074485Y-74400002D01*
X137194938Y-74400002D01*
X137215122Y-74579142D01*
X137262160Y-74713573D01*
X137262161Y-74713574D01*
X137555845Y-74419891D01*
X137900000Y-74419891D01*
X137915224Y-74456645D01*
X137943355Y-74484776D01*
X137980109Y-74500000D01*
X138019891Y-74500000D01*
X138056645Y-74484776D01*
X138084776Y-74456645D01*
X138100000Y-74419891D01*
X138100000Y-74400000D01*
X138424264Y-74400000D01*
X138700000Y-74675736D01*
X138955845Y-74419891D01*
X139300000Y-74419891D01*
X139315224Y-74456645D01*
X139343355Y-74484776D01*
X139380109Y-74500000D01*
X139419891Y-74500000D01*
X139456645Y-74484776D01*
X139484776Y-74456645D01*
X139500000Y-74419891D01*
X139500000Y-74400000D01*
X139824264Y-74400000D01*
X140100000Y-74675736D01*
X140355845Y-74419891D01*
X140700000Y-74419891D01*
X140715224Y-74456645D01*
X140743355Y-74484776D01*
X140780109Y-74500000D01*
X140819891Y-74500000D01*
X140856645Y-74484776D01*
X140884776Y-74456645D01*
X140900000Y-74419891D01*
X140900000Y-74400000D01*
X141224264Y-74400000D01*
X141537837Y-74713573D01*
X141584877Y-74579141D01*
X141584878Y-74579138D01*
X141605062Y-74400002D01*
X141605062Y-74399997D01*
X141584878Y-74220861D01*
X141584877Y-74220858D01*
X141537837Y-74086425D01*
X141537837Y-74086424D01*
X141224264Y-74399999D01*
X141224264Y-74400000D01*
X140900000Y-74400000D01*
X140900000Y-74380109D01*
X140884776Y-74343355D01*
X140856645Y-74315224D01*
X140819891Y-74300000D01*
X140780109Y-74300000D01*
X140743355Y-74315224D01*
X140715224Y-74343355D01*
X140700000Y-74380109D01*
X140700000Y-74419891D01*
X140355845Y-74419891D01*
X140375736Y-74400000D01*
X140100000Y-74124264D01*
X139824264Y-74400000D01*
X139500000Y-74400000D01*
X139500000Y-74380109D01*
X139484776Y-74343355D01*
X139456645Y-74315224D01*
X139419891Y-74300000D01*
X139380109Y-74300000D01*
X139343355Y-74315224D01*
X139315224Y-74343355D01*
X139300000Y-74380109D01*
X139300000Y-74419891D01*
X138955845Y-74419891D01*
X138975736Y-74400000D01*
X138700000Y-74124264D01*
X138424264Y-74400000D01*
X138100000Y-74400000D01*
X138100000Y-74380109D01*
X138084776Y-74343355D01*
X138056645Y-74315224D01*
X138019891Y-74300000D01*
X137980109Y-74300000D01*
X137943355Y-74315224D01*
X137915224Y-74343355D01*
X137900000Y-74380109D01*
X137900000Y-74419891D01*
X137555845Y-74419891D01*
X137575736Y-74400000D01*
X137262160Y-74086424D01*
X137215122Y-74220857D01*
X137194938Y-74399997D01*
X137194938Y-74400002D01*
X129074485Y-74400002D01*
X129174035Y-74257830D01*
X129273903Y-74043663D01*
X129335063Y-73815408D01*
X129348471Y-73662160D01*
X137686424Y-73662160D01*
X138000000Y-73975736D01*
X138255845Y-73719891D01*
X138600000Y-73719891D01*
X138615224Y-73756645D01*
X138643355Y-73784776D01*
X138680109Y-73800000D01*
X138719891Y-73800000D01*
X138756645Y-73784776D01*
X138784776Y-73756645D01*
X138800000Y-73719891D01*
X138800000Y-73700000D01*
X139124264Y-73700000D01*
X139400000Y-73975736D01*
X139655845Y-73719891D01*
X140000000Y-73719891D01*
X140015224Y-73756645D01*
X140043355Y-73784776D01*
X140080109Y-73800000D01*
X140119891Y-73800000D01*
X140156645Y-73784776D01*
X140184776Y-73756645D01*
X140200000Y-73719891D01*
X140200000Y-73700000D01*
X140524264Y-73700000D01*
X140800000Y-73975736D01*
X140800001Y-73975736D01*
X141113574Y-73662161D01*
X141113573Y-73662160D01*
X140979135Y-73615120D01*
X140978343Y-73614939D01*
X140977883Y-73614681D01*
X140972571Y-73612823D01*
X140972896Y-73611891D01*
X140917368Y-73580824D01*
X140888049Y-73527124D01*
X140887177Y-73527430D01*
X140885322Y-73522130D01*
X140885057Y-73521644D01*
X140884877Y-73520859D01*
X140837837Y-73386425D01*
X140837837Y-73386424D01*
X140524264Y-73699999D01*
X140524264Y-73700000D01*
X140200000Y-73700000D01*
X140200000Y-73680109D01*
X140184776Y-73643355D01*
X140156645Y-73615224D01*
X140119891Y-73600000D01*
X140080109Y-73600000D01*
X140043355Y-73615224D01*
X140015224Y-73643355D01*
X140000000Y-73680109D01*
X140000000Y-73719891D01*
X139655845Y-73719891D01*
X139675736Y-73700000D01*
X139400000Y-73424264D01*
X139124264Y-73700000D01*
X138800000Y-73700000D01*
X138800000Y-73680109D01*
X138784776Y-73643355D01*
X138756645Y-73615224D01*
X138719891Y-73600000D01*
X138680109Y-73600000D01*
X138643355Y-73615224D01*
X138615224Y-73643355D01*
X138600000Y-73680109D01*
X138600000Y-73719891D01*
X138255845Y-73719891D01*
X138275736Y-73700000D01*
X137962160Y-73386424D01*
X137915119Y-73520866D01*
X137914938Y-73521660D01*
X137914680Y-73522119D01*
X137912823Y-73527429D01*
X137911892Y-73527103D01*
X137880822Y-73582634D01*
X137827124Y-73611954D01*
X137827429Y-73612823D01*
X137822151Y-73614669D01*
X137821660Y-73614938D01*
X137820866Y-73615119D01*
X137686424Y-73662160D01*
X129348471Y-73662160D01*
X129355659Y-73580000D01*
X129335063Y-73344592D01*
X129273903Y-73116337D01*
X129202009Y-72962160D01*
X138386424Y-72962160D01*
X138700000Y-73275736D01*
X138700001Y-73275736D01*
X139013574Y-72962161D01*
X139013573Y-72962160D01*
X139786424Y-72962160D01*
X140100000Y-73275736D01*
X140100001Y-73275736D01*
X140413574Y-72962161D01*
X140413573Y-72962160D01*
X140279142Y-72915122D01*
X140100003Y-72894938D01*
X140099997Y-72894938D01*
X139920857Y-72915122D01*
X139786424Y-72962160D01*
X139013573Y-72962160D01*
X138879142Y-72915122D01*
X138700003Y-72894938D01*
X138699997Y-72894938D01*
X138520857Y-72915122D01*
X138386424Y-72962160D01*
X129202009Y-72962160D01*
X129174035Y-72902171D01*
X129168971Y-72894938D01*
X129038494Y-72708597D01*
X128871402Y-72541506D01*
X128871396Y-72541501D01*
X128685842Y-72411575D01*
X128642217Y-72356998D01*
X128635023Y-72287500D01*
X128666546Y-72225145D01*
X128685842Y-72208425D01*
X128776215Y-72145145D01*
X128871401Y-72078495D01*
X129038495Y-71911401D01*
X129174035Y-71717830D01*
X129273903Y-71503663D01*
X129335063Y-71275408D01*
X129355659Y-71040000D01*
X129335063Y-70804592D01*
X129273903Y-70576337D01*
X129174035Y-70362171D01*
X129165179Y-70349522D01*
X129038494Y-70168597D01*
X128871402Y-70001506D01*
X128871396Y-70001501D01*
X128685842Y-69871575D01*
X128642217Y-69816998D01*
X128641493Y-69810003D01*
X147194435Y-69810003D01*
X147214630Y-69989249D01*
X147214631Y-69989254D01*
X147274211Y-70159523D01*
X147346275Y-70274211D01*
X147370184Y-70312262D01*
X147497738Y-70439816D01*
X147650478Y-70535789D01*
X147738511Y-70566593D01*
X147820745Y-70595368D01*
X147820750Y-70595369D01*
X147999996Y-70615565D01*
X148000000Y-70615565D01*
X148000004Y-70615565D01*
X148179249Y-70595369D01*
X148179252Y-70595368D01*
X148179255Y-70595368D01*
X148349522Y-70535789D01*
X148502262Y-70439816D01*
X148502267Y-70439810D01*
X148505097Y-70437555D01*
X148507275Y-70436665D01*
X148508158Y-70436111D01*
X148508255Y-70436265D01*
X148569783Y-70411145D01*
X148582412Y-70410500D01*
X152087497Y-70410500D01*
X152154536Y-70430185D01*
X152200291Y-70482989D01*
X152210235Y-70552147D01*
X152207272Y-70566593D01*
X152164938Y-70724586D01*
X152164936Y-70724596D01*
X152144341Y-70959999D01*
X152144341Y-70960000D01*
X152164936Y-71195403D01*
X152164938Y-71195413D01*
X152226094Y-71423655D01*
X152226096Y-71423659D01*
X152226097Y-71423663D01*
X152275220Y-71529007D01*
X152325965Y-71637830D01*
X152325967Y-71637834D01*
X152461501Y-71831395D01*
X152461506Y-71831402D01*
X152628597Y-71998493D01*
X152628603Y-71998498D01*
X152814158Y-72128425D01*
X152857783Y-72183002D01*
X152864977Y-72252500D01*
X152833454Y-72314855D01*
X152814158Y-72331575D01*
X152628597Y-72461505D01*
X152461505Y-72628597D01*
X152325965Y-72822169D01*
X152325964Y-72822171D01*
X152226098Y-73036335D01*
X152226094Y-73036344D01*
X152164938Y-73264586D01*
X152164936Y-73264596D01*
X152144341Y-73499999D01*
X152144341Y-73500000D01*
X152164936Y-73735403D01*
X152164938Y-73735413D01*
X152226094Y-73963655D01*
X152226096Y-73963659D01*
X152226097Y-73963663D01*
X152297805Y-74117440D01*
X152325965Y-74177830D01*
X152325967Y-74177834D01*
X152461501Y-74371395D01*
X152461506Y-74371402D01*
X152628597Y-74538493D01*
X152628603Y-74538498D01*
X152814158Y-74668425D01*
X152857783Y-74723002D01*
X152864977Y-74792500D01*
X152833454Y-74854855D01*
X152814158Y-74871575D01*
X152628597Y-75001505D01*
X152461505Y-75168597D01*
X152325965Y-75362169D01*
X152325964Y-75362171D01*
X152226098Y-75576335D01*
X152226094Y-75576344D01*
X152164938Y-75804586D01*
X152164936Y-75804596D01*
X152144341Y-76039999D01*
X152144341Y-76040000D01*
X152164936Y-76275403D01*
X152164938Y-76275413D01*
X152226094Y-76503655D01*
X152226096Y-76503659D01*
X152226097Y-76503663D01*
X152307346Y-76677901D01*
X152325965Y-76717830D01*
X152325967Y-76717834D01*
X152461501Y-76911395D01*
X152461506Y-76911402D01*
X152628597Y-77078493D01*
X152628603Y-77078498D01*
X152814158Y-77208425D01*
X152857783Y-77263002D01*
X152864977Y-77332500D01*
X152833454Y-77394855D01*
X152814158Y-77411575D01*
X152628597Y-77541505D01*
X152461505Y-77708597D01*
X152325965Y-77902169D01*
X152325964Y-77902171D01*
X152226098Y-78116335D01*
X152226094Y-78116344D01*
X152164938Y-78344586D01*
X152164936Y-78344596D01*
X152144341Y-78579999D01*
X152144341Y-78580000D01*
X152164936Y-78815403D01*
X152164938Y-78815413D01*
X152226094Y-79043655D01*
X152226096Y-79043659D01*
X152226097Y-79043663D01*
X152297805Y-79197440D01*
X152325965Y-79257830D01*
X152325967Y-79257834D01*
X152461501Y-79451395D01*
X152461506Y-79451402D01*
X152628597Y-79618493D01*
X152628603Y-79618498D01*
X152814158Y-79748425D01*
X152857783Y-79803002D01*
X152864977Y-79872500D01*
X152833454Y-79934855D01*
X152814158Y-79951575D01*
X152628597Y-80081505D01*
X152461505Y-80248597D01*
X152325965Y-80442169D01*
X152325964Y-80442171D01*
X152226098Y-80656335D01*
X152226094Y-80656344D01*
X152164938Y-80884586D01*
X152164936Y-80884596D01*
X152144341Y-81119999D01*
X152144341Y-81120000D01*
X152164936Y-81355403D01*
X152164938Y-81355413D01*
X152226094Y-81583655D01*
X152226096Y-81583659D01*
X152226097Y-81583663D01*
X152297805Y-81737440D01*
X152325965Y-81797830D01*
X152325967Y-81797834D01*
X152381984Y-81877834D01*
X152461501Y-81991396D01*
X152461506Y-81991402D01*
X152583430Y-82113326D01*
X152616915Y-82174649D01*
X152611931Y-82244341D01*
X152570059Y-82300274D01*
X152539083Y-82317189D01*
X152407669Y-82366203D01*
X152407664Y-82366206D01*
X152292455Y-82452452D01*
X152292452Y-82452455D01*
X152206206Y-82567664D01*
X152206202Y-82567671D01*
X152155908Y-82702517D01*
X152149501Y-82762116D01*
X152149501Y-82762123D01*
X152149500Y-82762135D01*
X152149500Y-84557870D01*
X152149501Y-84557876D01*
X152155908Y-84617483D01*
X152206202Y-84752328D01*
X152206206Y-84752335D01*
X152292452Y-84867544D01*
X152292455Y-84867547D01*
X152407664Y-84953793D01*
X152407671Y-84953797D01*
X152542517Y-85004091D01*
X152542516Y-85004091D01*
X152549444Y-85004835D01*
X152602127Y-85010500D01*
X154397872Y-85010499D01*
X154457483Y-85004091D01*
X154592331Y-84953796D01*
X154707546Y-84867546D01*
X154793796Y-84752331D01*
X154844091Y-84617483D01*
X154850500Y-84557873D01*
X154850499Y-82762128D01*
X154844091Y-82702517D01*
X154793796Y-82567669D01*
X154793795Y-82567668D01*
X154793793Y-82567664D01*
X154707547Y-82452455D01*
X154707544Y-82452452D01*
X154592335Y-82366206D01*
X154592328Y-82366202D01*
X154460917Y-82317189D01*
X154404983Y-82275318D01*
X154380566Y-82209853D01*
X154395418Y-82141580D01*
X154416563Y-82113332D01*
X154538495Y-81991401D01*
X154674035Y-81797830D01*
X154773903Y-81583663D01*
X154835063Y-81355408D01*
X154855659Y-81120000D01*
X154835063Y-80884592D01*
X154788626Y-80711285D01*
X154773905Y-80656344D01*
X154773904Y-80656343D01*
X154773903Y-80656337D01*
X154674035Y-80442171D01*
X154656646Y-80417336D01*
X154538494Y-80248597D01*
X154371402Y-80081506D01*
X154371396Y-80081501D01*
X154185842Y-79951575D01*
X154142217Y-79896998D01*
X154135023Y-79827500D01*
X154166546Y-79765145D01*
X154185842Y-79748425D01*
X154275895Y-79685369D01*
X154371401Y-79618495D01*
X154538495Y-79451401D01*
X154674035Y-79257830D01*
X154773903Y-79043663D01*
X154835063Y-78815408D01*
X154855659Y-78580000D01*
X154835063Y-78344592D01*
X154788626Y-78171285D01*
X154773905Y-78116344D01*
X154773904Y-78116343D01*
X154773903Y-78116337D01*
X154674035Y-77902171D01*
X154594512Y-77788599D01*
X154538494Y-77708597D01*
X154371402Y-77541506D01*
X154371396Y-77541501D01*
X154185842Y-77411575D01*
X154142217Y-77356998D01*
X154135023Y-77287500D01*
X154166546Y-77225145D01*
X154185842Y-77208425D01*
X154257152Y-77158493D01*
X154371401Y-77078495D01*
X154538495Y-76911401D01*
X154674035Y-76717830D01*
X154773903Y-76503663D01*
X154835063Y-76275408D01*
X154855659Y-76040000D01*
X154835063Y-75804592D01*
X154785832Y-75620857D01*
X154773905Y-75576344D01*
X154773904Y-75576343D01*
X154773903Y-75576337D01*
X154674035Y-75362171D01*
X154645165Y-75320939D01*
X154538494Y-75168597D01*
X154371402Y-75001506D01*
X154371396Y-75001501D01*
X154185842Y-74871575D01*
X154142217Y-74816998D01*
X154135023Y-74747500D01*
X154166546Y-74685145D01*
X154185842Y-74668425D01*
X154313351Y-74579142D01*
X154371401Y-74538495D01*
X154538495Y-74371401D01*
X154674035Y-74177830D01*
X154773903Y-73963663D01*
X154835063Y-73735408D01*
X154855659Y-73500000D01*
X154854057Y-73481695D01*
X154843930Y-73365937D01*
X154835063Y-73264592D01*
X154788626Y-73091285D01*
X154773905Y-73036344D01*
X154773904Y-73036343D01*
X154773903Y-73036337D01*
X154674035Y-72822171D01*
X154594512Y-72708599D01*
X154538494Y-72628597D01*
X154371402Y-72461506D01*
X154371396Y-72461501D01*
X154185842Y-72331575D01*
X154142217Y-72276998D01*
X154135023Y-72207500D01*
X154166546Y-72145145D01*
X154185842Y-72128425D01*
X154257152Y-72078493D01*
X154371401Y-71998495D01*
X154538495Y-71831401D01*
X154674035Y-71637830D01*
X154731135Y-71515376D01*
X154777307Y-71462939D01*
X154844501Y-71443787D01*
X154911382Y-71464003D01*
X154931198Y-71480102D01*
X155039325Y-71588229D01*
X155192065Y-71684202D01*
X155338192Y-71735334D01*
X155362332Y-71743781D01*
X155362337Y-71743782D01*
X155541583Y-71763978D01*
X155541587Y-71763978D01*
X155541591Y-71763978D01*
X155720836Y-71743782D01*
X155720839Y-71743781D01*
X155720842Y-71743781D01*
X155891109Y-71684202D01*
X156043849Y-71588229D01*
X156171403Y-71460675D01*
X156267376Y-71307935D01*
X156326955Y-71137668D01*
X156336748Y-71050742D01*
X156363813Y-70986331D01*
X156372277Y-70976956D01*
X156409233Y-70940000D01*
X160690000Y-70940000D01*
X160690000Y-71147844D01*
X160696401Y-71207372D01*
X160696403Y-71207379D01*
X160746645Y-71342086D01*
X160746649Y-71342093D01*
X160832809Y-71457187D01*
X160832812Y-71457190D01*
X160947906Y-71543350D01*
X160947913Y-71543354D01*
X161082620Y-71593596D01*
X161082627Y-71593598D01*
X161142155Y-71599999D01*
X161142172Y-71600000D01*
X161350000Y-71600000D01*
X161350000Y-70940000D01*
X160690000Y-70940000D01*
X156409233Y-70940000D01*
X156518535Y-70830698D01*
X156579856Y-70797215D01*
X156592311Y-70795163D01*
X156679255Y-70785368D01*
X156849522Y-70725789D01*
X157002262Y-70629816D01*
X157129816Y-70502262D01*
X157194547Y-70399244D01*
X161500000Y-70399244D01*
X161530667Y-70513694D01*
X161589910Y-70616306D01*
X161673694Y-70700090D01*
X161776306Y-70759333D01*
X161890756Y-70790000D01*
X162009244Y-70790000D01*
X162123694Y-70759333D01*
X162226306Y-70700090D01*
X162310090Y-70616306D01*
X162369333Y-70513694D01*
X162400000Y-70399244D01*
X162400000Y-70280756D01*
X162369333Y-70166306D01*
X162310090Y-70063694D01*
X162226306Y-69979910D01*
X162123694Y-69920667D01*
X162009244Y-69890000D01*
X161890756Y-69890000D01*
X161776306Y-69920667D01*
X161673694Y-69979910D01*
X161589910Y-70063694D01*
X161530667Y-70166306D01*
X161500000Y-70280756D01*
X161500000Y-70399244D01*
X157194547Y-70399244D01*
X157225789Y-70349522D01*
X157285368Y-70179255D01*
X157286827Y-70166306D01*
X157305565Y-70000003D01*
X157305565Y-69999996D01*
X157285369Y-69820750D01*
X157285368Y-69820745D01*
X157270470Y-69778169D01*
X157257114Y-69740000D01*
X160690000Y-69740000D01*
X161350000Y-69740000D01*
X161350000Y-69080000D01*
X161142155Y-69080000D01*
X161082627Y-69086401D01*
X161082620Y-69086403D01*
X160947913Y-69136645D01*
X160947906Y-69136649D01*
X160832812Y-69222809D01*
X160832809Y-69222812D01*
X160746649Y-69337906D01*
X160746645Y-69337913D01*
X160696403Y-69472620D01*
X160696401Y-69472627D01*
X160690000Y-69532155D01*
X160690000Y-69740000D01*
X157257114Y-69740000D01*
X157225789Y-69650478D01*
X157219059Y-69639768D01*
X157155424Y-69538493D01*
X157129816Y-69497738D01*
X157002262Y-69370184D01*
X156937482Y-69329480D01*
X156849523Y-69274211D01*
X156679254Y-69214631D01*
X156679249Y-69214630D01*
X156500004Y-69194435D01*
X156499996Y-69194435D01*
X156320750Y-69214630D01*
X156320745Y-69214631D01*
X156150476Y-69274211D01*
X155997737Y-69370184D01*
X155870184Y-69497737D01*
X155774210Y-69650478D01*
X155714630Y-69820750D01*
X155704837Y-69907666D01*
X155677770Y-69972080D01*
X155669298Y-69981463D01*
X155629266Y-70021495D01*
X155567943Y-70054980D01*
X155498251Y-70049996D01*
X155453904Y-70021495D01*
X154761890Y-69329481D01*
X154761885Y-69329477D01*
X154701011Y-69294332D01*
X154652796Y-69243765D01*
X154639572Y-69175158D01*
X154661438Y-69115819D01*
X154674035Y-69097830D01*
X154773903Y-68883663D01*
X154835063Y-68655408D01*
X154855659Y-68420000D01*
X154835063Y-68184592D01*
X154773903Y-67956337D01*
X154701002Y-67800001D01*
X161704685Y-67800001D01*
X161723907Y-68019714D01*
X161723909Y-68019724D01*
X161780990Y-68232755D01*
X161780995Y-68232769D01*
X161874203Y-68432654D01*
X161874207Y-68432662D01*
X162000712Y-68613330D01*
X162156669Y-68769287D01*
X162337337Y-68895792D01*
X162337339Y-68895793D01*
X162337342Y-68895795D01*
X162418201Y-68933500D01*
X162478404Y-68961573D01*
X162530844Y-69007745D01*
X162550000Y-69073955D01*
X162550000Y-71600000D01*
X162757828Y-71600000D01*
X162757844Y-71599999D01*
X162817372Y-71593598D01*
X162817379Y-71593596D01*
X162952086Y-71543354D01*
X162952093Y-71543350D01*
X163067186Y-71457190D01*
X163105793Y-71405620D01*
X163161727Y-71363749D01*
X163231419Y-71358765D01*
X163276184Y-71378356D01*
X163357593Y-71435359D01*
X163557406Y-71528533D01*
X163557412Y-71528536D01*
X163770365Y-71585597D01*
X163770373Y-71585598D01*
X163989998Y-71604813D01*
X163990002Y-71604813D01*
X164209630Y-71585598D01*
X164349572Y-71548099D01*
X163229153Y-70427680D01*
X163213626Y-70399244D01*
X163540000Y-70399244D01*
X163570667Y-70513694D01*
X163629910Y-70616306D01*
X163713694Y-70700090D01*
X163816306Y-70759333D01*
X163930756Y-70790000D01*
X164049244Y-70790000D01*
X164163694Y-70759333D01*
X164266306Y-70700090D01*
X164350090Y-70616306D01*
X164409333Y-70513694D01*
X164440000Y-70399244D01*
X164440000Y-70280756D01*
X164409333Y-70166306D01*
X164350090Y-70063694D01*
X164266306Y-69979910D01*
X164163694Y-69920667D01*
X164049244Y-69890000D01*
X163930756Y-69890000D01*
X163816306Y-69920667D01*
X163713694Y-69979910D01*
X163629910Y-70063694D01*
X163570667Y-70166306D01*
X163540000Y-70280756D01*
X163540000Y-70399244D01*
X163213626Y-70399244D01*
X163195668Y-70366357D01*
X163200652Y-70296665D01*
X163229153Y-70252318D01*
X163990000Y-69491472D01*
X164349571Y-69131899D01*
X164342134Y-69104141D01*
X164342282Y-69097907D01*
X164323773Y-69108791D01*
X164261490Y-69108297D01*
X164209637Y-69094403D01*
X164209626Y-69094401D01*
X163990002Y-69075187D01*
X163989998Y-69075187D01*
X163770373Y-69094401D01*
X163770359Y-69094404D01*
X163718508Y-69108297D01*
X163648658Y-69106634D01*
X163590796Y-69067471D01*
X163563293Y-69003242D01*
X163574880Y-68934340D01*
X163615291Y-68886949D01*
X163783329Y-68769288D01*
X163839927Y-68712690D01*
X163902319Y-68650299D01*
X163963642Y-68616814D01*
X164033334Y-68621798D01*
X164077681Y-68650299D01*
X164196668Y-68769286D01*
X164196671Y-68769288D01*
X164360004Y-68883655D01*
X164364706Y-68886947D01*
X164408331Y-68941524D01*
X164410713Y-68964542D01*
X164447188Y-68948924D01*
X164514311Y-68959664D01*
X164577237Y-68989007D01*
X164790280Y-69046092D01*
X164947222Y-69059822D01*
X165009998Y-69065315D01*
X165010000Y-69065315D01*
X165010002Y-69065315D01*
X165064930Y-69060509D01*
X165229720Y-69046092D01*
X165280296Y-69032540D01*
X165350144Y-69034203D01*
X165408006Y-69073365D01*
X165435511Y-69137593D01*
X165423925Y-69206495D01*
X165383511Y-69253890D01*
X165216668Y-69370713D01*
X165060713Y-69526668D01*
X164934205Y-69707342D01*
X164934204Y-69707344D01*
X164840994Y-69907235D01*
X164840990Y-69907244D01*
X164783909Y-70120275D01*
X164783907Y-70120285D01*
X164764685Y-70339998D01*
X164764685Y-70340001D01*
X164783907Y-70559714D01*
X164783909Y-70559724D01*
X164840990Y-70772755D01*
X164840995Y-70772769D01*
X164934203Y-70972654D01*
X164934207Y-70972662D01*
X165060712Y-71153330D01*
X165216669Y-71309287D01*
X165397337Y-71435792D01*
X165397339Y-71435793D01*
X165397342Y-71435795D01*
X165492359Y-71480102D01*
X165597230Y-71529004D01*
X165597232Y-71529004D01*
X165597237Y-71529007D01*
X165810280Y-71586092D01*
X165967222Y-71599822D01*
X166029998Y-71605315D01*
X166030000Y-71605315D01*
X166030002Y-71605315D01*
X166090762Y-71599999D01*
X166249720Y-71586092D01*
X166462763Y-71529007D01*
X166662658Y-71435795D01*
X166843329Y-71309288D01*
X166999288Y-71153329D01*
X167125795Y-70972658D01*
X167219007Y-70772763D01*
X167276092Y-70559720D01*
X167295315Y-70340000D01*
X167276092Y-70120280D01*
X167219007Y-69907237D01*
X167125795Y-69707343D01*
X166999288Y-69526671D01*
X166999286Y-69526668D01*
X166843330Y-69370712D01*
X166676491Y-69253891D01*
X166632866Y-69199314D01*
X166625672Y-69129816D01*
X166657195Y-69067461D01*
X166717425Y-69032047D01*
X166779707Y-69032541D01*
X166830280Y-69046092D01*
X166987222Y-69059822D01*
X167049998Y-69065315D01*
X167050000Y-69065315D01*
X167050002Y-69065315D01*
X167104930Y-69060509D01*
X167269720Y-69046092D01*
X167482763Y-68989007D01*
X167682658Y-68895795D01*
X167863329Y-68769288D01*
X168019288Y-68613329D01*
X168145795Y-68432658D01*
X168239007Y-68232763D01*
X168296092Y-68019720D01*
X168315315Y-67800000D01*
X168296092Y-67580280D01*
X168239007Y-67367237D01*
X168145795Y-67167343D01*
X168019288Y-66986671D01*
X168019286Y-66986668D01*
X167863330Y-66830712D01*
X167682662Y-66704207D01*
X167682654Y-66704203D01*
X167482769Y-66610995D01*
X167482755Y-66610990D01*
X167269724Y-66553909D01*
X167269722Y-66553908D01*
X167269720Y-66553908D01*
X167269718Y-66553907D01*
X167269714Y-66553907D01*
X167050002Y-66534685D01*
X167049998Y-66534685D01*
X166830285Y-66553907D01*
X166830275Y-66553909D01*
X166617244Y-66610990D01*
X166617235Y-66610994D01*
X166417344Y-66704204D01*
X166417342Y-66704205D01*
X166236668Y-66830713D01*
X166117681Y-66949701D01*
X166056358Y-66983186D01*
X165986666Y-66978202D01*
X165942319Y-66949701D01*
X165823330Y-66830712D01*
X165642662Y-66704207D01*
X165642654Y-66704203D01*
X165442769Y-66610995D01*
X165442755Y-66610990D01*
X165229724Y-66553909D01*
X165229722Y-66553908D01*
X165229720Y-66553908D01*
X165229718Y-66553907D01*
X165229714Y-66553907D01*
X165010002Y-66534685D01*
X165009998Y-66534685D01*
X164790285Y-66553907D01*
X164790275Y-66553909D01*
X164577244Y-66610990D01*
X164577235Y-66610994D01*
X164377344Y-66704204D01*
X164377342Y-66704205D01*
X164196668Y-66830713D01*
X164077681Y-66949701D01*
X164016358Y-66983186D01*
X163946666Y-66978202D01*
X163902319Y-66949701D01*
X163783330Y-66830712D01*
X163602662Y-66704207D01*
X163602654Y-66704203D01*
X163402769Y-66610995D01*
X163402755Y-66610990D01*
X163189724Y-66553909D01*
X163189722Y-66553908D01*
X163189720Y-66553908D01*
X163189718Y-66553907D01*
X163189714Y-66553907D01*
X162970002Y-66534685D01*
X162969998Y-66534685D01*
X162750285Y-66553907D01*
X162750275Y-66553909D01*
X162537244Y-66610990D01*
X162537235Y-66610994D01*
X162337344Y-66704204D01*
X162337342Y-66704205D01*
X162156668Y-66830713D01*
X162000713Y-66986668D01*
X161874205Y-67167342D01*
X161874204Y-67167344D01*
X161780994Y-67367235D01*
X161780990Y-67367244D01*
X161723909Y-67580275D01*
X161723907Y-67580285D01*
X161704685Y-67799998D01*
X161704685Y-67800001D01*
X154701002Y-67800001D01*
X154674035Y-67742171D01*
X154648490Y-67705688D01*
X154538494Y-67548597D01*
X154371402Y-67381506D01*
X154371396Y-67381501D01*
X154185842Y-67251575D01*
X154142217Y-67196998D01*
X154135023Y-67127500D01*
X154166546Y-67065145D01*
X154185842Y-67048425D01*
X154257152Y-66998493D01*
X154371401Y-66918495D01*
X154538495Y-66751401D01*
X154674035Y-66557830D01*
X154773903Y-66343663D01*
X154835063Y-66115408D01*
X154855659Y-65880000D01*
X154835063Y-65644592D01*
X154825853Y-65610221D01*
X157099500Y-65610221D01*
X157133985Y-65827952D01*
X157202103Y-66037603D01*
X157202104Y-66037606D01*
X157241750Y-66115413D01*
X157282507Y-66195403D01*
X157302187Y-66234025D01*
X157431752Y-66412358D01*
X157431756Y-66412363D01*
X157587636Y-66568243D01*
X157587641Y-66568247D01*
X157743192Y-66681260D01*
X157765978Y-66697815D01*
X157894375Y-66763237D01*
X157962393Y-66797895D01*
X157962396Y-66797896D01*
X158067221Y-66831955D01*
X158172049Y-66866015D01*
X158389778Y-66900500D01*
X158389779Y-66900500D01*
X158610221Y-66900500D01*
X158610222Y-66900500D01*
X158827951Y-66866015D01*
X159037606Y-66797895D01*
X159234022Y-66697815D01*
X159412365Y-66568242D01*
X159568242Y-66412365D01*
X159697815Y-66234022D01*
X159797895Y-66037606D01*
X159866015Y-65827951D01*
X159900500Y-65610222D01*
X159900500Y-65610221D01*
X169099500Y-65610221D01*
X169133985Y-65827952D01*
X169202103Y-66037603D01*
X169202104Y-66037606D01*
X169241750Y-66115413D01*
X169282507Y-66195403D01*
X169302187Y-66234025D01*
X169431752Y-66412358D01*
X169431756Y-66412363D01*
X169587636Y-66568243D01*
X169587641Y-66568247D01*
X169743192Y-66681260D01*
X169765978Y-66697815D01*
X169894375Y-66763237D01*
X169962393Y-66797895D01*
X169962396Y-66797896D01*
X170067221Y-66831955D01*
X170172049Y-66866015D01*
X170389778Y-66900500D01*
X170389779Y-66900500D01*
X170610221Y-66900500D01*
X170610222Y-66900500D01*
X170827951Y-66866015D01*
X171037606Y-66797895D01*
X171234022Y-66697815D01*
X171412365Y-66568242D01*
X171568242Y-66412365D01*
X171697815Y-66234022D01*
X171797895Y-66037606D01*
X171866015Y-65827951D01*
X171900500Y-65610222D01*
X171900500Y-65389778D01*
X171866015Y-65172049D01*
X171797895Y-64962394D01*
X171797895Y-64962393D01*
X171740869Y-64850476D01*
X171697815Y-64765978D01*
X171664033Y-64719481D01*
X171568247Y-64587641D01*
X171568243Y-64587636D01*
X171412363Y-64431756D01*
X171412358Y-64431752D01*
X171234025Y-64302187D01*
X171234024Y-64302186D01*
X171234022Y-64302185D01*
X171171096Y-64270122D01*
X171037606Y-64202104D01*
X171037603Y-64202103D01*
X170827952Y-64133985D01*
X170719086Y-64116742D01*
X170610222Y-64099500D01*
X170389778Y-64099500D01*
X170317201Y-64110995D01*
X170172047Y-64133985D01*
X169962396Y-64202103D01*
X169962393Y-64202104D01*
X169765974Y-64302187D01*
X169587641Y-64431752D01*
X169587636Y-64431756D01*
X169431756Y-64587636D01*
X169431752Y-64587641D01*
X169302187Y-64765974D01*
X169202104Y-64962393D01*
X169202103Y-64962396D01*
X169133985Y-65172047D01*
X169099500Y-65389778D01*
X169099500Y-65610221D01*
X159900500Y-65610221D01*
X159900500Y-65389778D01*
X159866015Y-65172049D01*
X159797895Y-64962394D01*
X159797895Y-64962393D01*
X159740869Y-64850476D01*
X159697815Y-64765978D01*
X159664033Y-64719481D01*
X159568247Y-64587641D01*
X159568243Y-64587636D01*
X159412363Y-64431756D01*
X159412358Y-64431752D01*
X159234025Y-64302187D01*
X159234024Y-64302186D01*
X159234022Y-64302185D01*
X159171096Y-64270122D01*
X159037606Y-64202104D01*
X159037603Y-64202103D01*
X158827952Y-64133985D01*
X158719086Y-64116742D01*
X158610222Y-64099500D01*
X158389778Y-64099500D01*
X158317201Y-64110995D01*
X158172047Y-64133985D01*
X157962396Y-64202103D01*
X157962393Y-64202104D01*
X157765974Y-64302187D01*
X157587641Y-64431752D01*
X157587636Y-64431756D01*
X157431756Y-64587636D01*
X157431752Y-64587641D01*
X157302187Y-64765974D01*
X157202104Y-64962393D01*
X157202103Y-64962396D01*
X157133985Y-65172047D01*
X157099500Y-65389778D01*
X157099500Y-65610221D01*
X154825853Y-65610221D01*
X154773903Y-65416337D01*
X154674035Y-65202171D01*
X154652944Y-65172049D01*
X154538494Y-65008597D01*
X154371402Y-64841506D01*
X154371396Y-64841501D01*
X154185842Y-64711575D01*
X154142217Y-64656998D01*
X154135023Y-64587500D01*
X154166546Y-64525145D01*
X154185842Y-64508425D01*
X154208026Y-64492891D01*
X154371401Y-64378495D01*
X154538495Y-64211401D01*
X154674035Y-64017830D01*
X154773903Y-63803663D01*
X154835063Y-63575408D01*
X154855659Y-63340000D01*
X154835063Y-63104592D01*
X154773903Y-62876337D01*
X154674035Y-62662171D01*
X154594512Y-62548599D01*
X154538494Y-62468597D01*
X154371402Y-62301506D01*
X154371396Y-62301501D01*
X154185842Y-62171575D01*
X154142217Y-62116998D01*
X154135023Y-62047500D01*
X154166546Y-61985145D01*
X154185842Y-61968425D01*
X154326144Y-61870184D01*
X154371401Y-61838495D01*
X154538495Y-61671401D01*
X154674035Y-61477830D01*
X154773903Y-61263663D01*
X154835063Y-61035408D01*
X154855659Y-60800000D01*
X154835063Y-60564592D01*
X154785602Y-60380000D01*
X154773905Y-60336344D01*
X154773904Y-60336343D01*
X154773903Y-60336337D01*
X154674035Y-60122171D01*
X154575996Y-59982155D01*
X154538494Y-59928597D01*
X154371402Y-59761506D01*
X154371395Y-59761501D01*
X154177834Y-59625967D01*
X154177830Y-59625965D01*
X154177828Y-59625964D01*
X153963663Y-59526097D01*
X153963659Y-59526096D01*
X153963655Y-59526094D01*
X153735413Y-59464938D01*
X153735403Y-59464936D01*
X153500001Y-59444341D01*
X153499999Y-59444341D01*
X153264596Y-59464936D01*
X153264586Y-59464938D01*
X153036344Y-59526094D01*
X153036335Y-59526098D01*
X152822171Y-59625964D01*
X152822169Y-59625965D01*
X152628597Y-59761505D01*
X152461505Y-59928597D01*
X152325965Y-60122169D01*
X152325964Y-60122171D01*
X152226098Y-60336335D01*
X152226094Y-60336344D01*
X152164938Y-60564586D01*
X152164936Y-60564596D01*
X152144341Y-60799999D01*
X152144341Y-60800000D01*
X152164936Y-61035403D01*
X152164938Y-61035413D01*
X152226094Y-61263655D01*
X152226096Y-61263659D01*
X152226097Y-61263663D01*
X152264457Y-61345925D01*
X152325965Y-61477830D01*
X152325967Y-61477834D01*
X152461501Y-61671395D01*
X152461506Y-61671402D01*
X152628597Y-61838493D01*
X152628603Y-61838498D01*
X152814158Y-61968425D01*
X152857783Y-62023002D01*
X152864977Y-62092500D01*
X152833454Y-62154855D01*
X152814158Y-62171575D01*
X152628597Y-62301505D01*
X152461505Y-62468597D01*
X152325965Y-62662169D01*
X152325964Y-62662171D01*
X152226098Y-62876335D01*
X152226094Y-62876344D01*
X152164938Y-63104586D01*
X152164936Y-63104596D01*
X152144341Y-63339999D01*
X152144341Y-63340000D01*
X152164936Y-63575403D01*
X152164938Y-63575413D01*
X152226094Y-63803655D01*
X152226096Y-63803659D01*
X152226097Y-63803663D01*
X152325965Y-64017830D01*
X152325967Y-64017834D01*
X152434281Y-64172521D01*
X152454994Y-64202103D01*
X152461501Y-64211395D01*
X152461506Y-64211402D01*
X152628597Y-64378493D01*
X152628603Y-64378498D01*
X152814158Y-64508425D01*
X152857783Y-64563002D01*
X152864977Y-64632500D01*
X152833454Y-64694855D01*
X152814158Y-64711575D01*
X152628597Y-64841505D01*
X152461505Y-65008597D01*
X152325965Y-65202169D01*
X152325964Y-65202171D01*
X152226098Y-65416335D01*
X152226094Y-65416344D01*
X152164938Y-65644586D01*
X152164936Y-65644596D01*
X152144341Y-65879999D01*
X152144341Y-65880000D01*
X152164936Y-66115403D01*
X152164938Y-66115413D01*
X152226094Y-66343655D01*
X152226096Y-66343659D01*
X152226097Y-66343663D01*
X152287128Y-66474543D01*
X152325965Y-66557830D01*
X152325967Y-66557834D01*
X152461501Y-66751395D01*
X152461506Y-66751402D01*
X152628597Y-66918493D01*
X152628603Y-66918498D01*
X152814158Y-67048425D01*
X152857783Y-67103002D01*
X152864977Y-67172500D01*
X152833454Y-67234855D01*
X152814158Y-67251575D01*
X152628597Y-67381505D01*
X152461505Y-67548597D01*
X152325965Y-67742169D01*
X152325964Y-67742171D01*
X152226098Y-67956335D01*
X152226094Y-67956344D01*
X152164938Y-68184586D01*
X152164936Y-68184596D01*
X152144341Y-68419999D01*
X152144341Y-68420000D01*
X152164936Y-68655403D01*
X152164938Y-68655413D01*
X152226094Y-68883655D01*
X152226097Y-68883664D01*
X152249336Y-68933500D01*
X152295779Y-69033096D01*
X152306271Y-69102172D01*
X152277751Y-69165956D01*
X152219275Y-69204196D01*
X152183397Y-69209500D01*
X148582412Y-69209500D01*
X148515373Y-69189815D01*
X148505097Y-69182445D01*
X148502263Y-69180185D01*
X148502262Y-69180184D01*
X148422102Y-69129816D01*
X148349523Y-69084211D01*
X148179254Y-69024631D01*
X148179249Y-69024630D01*
X148000004Y-69004435D01*
X147999996Y-69004435D01*
X147820750Y-69024630D01*
X147820745Y-69024631D01*
X147650476Y-69084211D01*
X147497737Y-69180184D01*
X147370184Y-69307737D01*
X147274211Y-69460476D01*
X147214631Y-69630745D01*
X147214630Y-69630750D01*
X147194435Y-69809996D01*
X147194435Y-69810003D01*
X128641493Y-69810003D01*
X128635023Y-69747500D01*
X128666546Y-69685145D01*
X128685842Y-69668425D01*
X128739654Y-69630745D01*
X128871401Y-69538495D01*
X129038495Y-69371401D01*
X129174035Y-69177830D01*
X129273903Y-68963663D01*
X129335063Y-68735408D01*
X129355659Y-68500000D01*
X129335063Y-68264592D01*
X129273903Y-68036337D01*
X129174035Y-67822171D01*
X129158512Y-67800001D01*
X129038494Y-67628597D01*
X128871402Y-67461506D01*
X128871396Y-67461501D01*
X128685842Y-67331575D01*
X128642217Y-67276998D01*
X128635023Y-67207500D01*
X128666546Y-67145145D01*
X128685842Y-67128425D01*
X128722150Y-67103002D01*
X128871401Y-66998495D01*
X129038495Y-66831401D01*
X129174035Y-66637830D01*
X129273903Y-66423663D01*
X129335063Y-66195408D01*
X129355659Y-65960000D01*
X129335063Y-65724592D01*
X129273903Y-65496337D01*
X129174035Y-65282171D01*
X129155647Y-65255909D01*
X129038494Y-65088597D01*
X128871402Y-64921506D01*
X128871396Y-64921501D01*
X128685842Y-64791575D01*
X128642217Y-64736998D01*
X128635023Y-64667500D01*
X128666546Y-64605145D01*
X128685842Y-64588425D01*
X128776215Y-64525145D01*
X128871401Y-64458495D01*
X129038495Y-64291401D01*
X129174035Y-64097830D01*
X129273903Y-63883663D01*
X129335063Y-63655408D01*
X129355659Y-63420000D01*
X129335063Y-63184592D01*
X129273903Y-62956337D01*
X129174035Y-62742171D01*
X129129980Y-62679254D01*
X129038496Y-62548600D01*
X128989892Y-62499996D01*
X128916179Y-62426283D01*
X128882696Y-62364963D01*
X128887680Y-62295271D01*
X128929551Y-62239337D01*
X128960529Y-62222422D01*
X129092086Y-62173354D01*
X129092093Y-62173350D01*
X129207187Y-62087190D01*
X129207190Y-62087187D01*
X129293350Y-61972093D01*
X129293354Y-61972086D01*
X129343596Y-61837379D01*
X129343598Y-61837372D01*
X129349999Y-61777844D01*
X129350000Y-61777827D01*
X129350000Y-61480000D01*
X126650000Y-61480000D01*
X126650000Y-61777844D01*
X126656401Y-61837372D01*
X126656403Y-61837379D01*
X126706645Y-61972086D01*
X126706649Y-61972093D01*
X126792809Y-62087187D01*
X126792812Y-62087190D01*
X126907906Y-62173350D01*
X126907913Y-62173354D01*
X127039470Y-62222421D01*
X127095403Y-62264292D01*
X127119821Y-62329756D01*
X127104970Y-62398029D01*
X127083819Y-62426284D01*
X126961503Y-62548600D01*
X126825965Y-62742169D01*
X126825964Y-62742171D01*
X126726098Y-62956335D01*
X126726094Y-62956344D01*
X126664938Y-63184586D01*
X126664936Y-63184596D01*
X126644341Y-63419999D01*
X126644341Y-63420000D01*
X126664936Y-63655403D01*
X126664938Y-63655413D01*
X126726094Y-63883655D01*
X126726096Y-63883659D01*
X126726097Y-63883663D01*
X126788660Y-64017830D01*
X126825965Y-64097830D01*
X126825967Y-64097834D01*
X126961501Y-64291395D01*
X126961506Y-64291402D01*
X127128597Y-64458493D01*
X127128603Y-64458498D01*
X127314158Y-64588425D01*
X127357783Y-64643002D01*
X127364977Y-64712500D01*
X127333454Y-64774855D01*
X127314158Y-64791575D01*
X127128597Y-64921505D01*
X126961505Y-65088597D01*
X126825965Y-65282169D01*
X126825964Y-65282171D01*
X126726098Y-65496335D01*
X126726094Y-65496344D01*
X126664938Y-65724586D01*
X126664936Y-65724596D01*
X126644341Y-65959999D01*
X126644341Y-65960000D01*
X126664936Y-66195403D01*
X126664938Y-66195413D01*
X126726094Y-66423655D01*
X126726096Y-66423659D01*
X126726097Y-66423663D01*
X126793516Y-66568243D01*
X126825965Y-66637830D01*
X126825967Y-66637834D01*
X126961501Y-66831395D01*
X126961506Y-66831402D01*
X127128597Y-66998493D01*
X127128603Y-66998498D01*
X127314158Y-67128425D01*
X127357783Y-67183002D01*
X127364977Y-67252500D01*
X127333454Y-67314855D01*
X127314158Y-67331575D01*
X127128597Y-67461505D01*
X126961505Y-67628597D01*
X126825965Y-67822169D01*
X126825964Y-67822171D01*
X126726098Y-68036335D01*
X126726094Y-68036344D01*
X126664938Y-68264586D01*
X126664936Y-68264596D01*
X126644341Y-68499999D01*
X126644341Y-68500000D01*
X126664936Y-68735403D01*
X126664938Y-68735413D01*
X126726094Y-68963655D01*
X126726096Y-68963659D01*
X126726097Y-68963663D01*
X126797048Y-69115818D01*
X126825965Y-69177830D01*
X126825967Y-69177834D01*
X126961501Y-69371395D01*
X126961506Y-69371402D01*
X127128597Y-69538493D01*
X127128603Y-69538498D01*
X127314158Y-69668425D01*
X127357783Y-69723002D01*
X127364977Y-69792500D01*
X127333454Y-69854855D01*
X127314158Y-69871575D01*
X127128597Y-70001505D01*
X126972181Y-70157922D01*
X126910858Y-70191407D01*
X126841166Y-70186423D01*
X126785233Y-70144551D01*
X126760816Y-70079087D01*
X126760500Y-70070241D01*
X126760500Y-69925096D01*
X126760499Y-69925092D01*
X126746528Y-69854855D01*
X126731275Y-69778170D01*
X126678383Y-69650478D01*
X126673948Y-69639770D01*
X126673943Y-69639761D01*
X126590720Y-69515210D01*
X126548130Y-69472620D01*
X126484791Y-69409281D01*
X126484790Y-69409280D01*
X125031845Y-67956335D01*
X123550053Y-66474543D01*
X123516568Y-66413220D01*
X123521552Y-66343528D01*
X123550051Y-66299183D01*
X123902543Y-65946691D01*
X123963864Y-65913208D01*
X124033556Y-65918192D01*
X124043929Y-65923341D01*
X124044205Y-65922769D01*
X124050470Y-65925786D01*
X124050477Y-65925788D01*
X124050478Y-65925789D01*
X124220745Y-65985368D01*
X124220750Y-65985369D01*
X124399996Y-66005565D01*
X124400000Y-66005565D01*
X124400004Y-66005565D01*
X124579249Y-65985369D01*
X124579252Y-65985368D01*
X124579255Y-65985368D01*
X124749522Y-65925789D01*
X124902262Y-65829816D01*
X125029816Y-65702262D01*
X125125789Y-65549522D01*
X125185368Y-65379255D01*
X125199988Y-65249500D01*
X125205565Y-65200003D01*
X125205565Y-65199996D01*
X125185369Y-65020750D01*
X125185368Y-65020745D01*
X125125788Y-64850476D01*
X125072694Y-64765978D01*
X125029816Y-64697738D01*
X124902262Y-64570184D01*
X124830583Y-64525145D01*
X124749523Y-64474211D01*
X124579254Y-64414631D01*
X124579249Y-64414630D01*
X124400004Y-64394435D01*
X124399996Y-64394435D01*
X124220750Y-64414630D01*
X124220745Y-64414631D01*
X124050476Y-64474211D01*
X123897737Y-64570184D01*
X123894903Y-64572445D01*
X123892724Y-64573334D01*
X123891842Y-64573889D01*
X123891744Y-64573734D01*
X123830216Y-64598854D01*
X123817589Y-64599499D01*
X123720943Y-64599499D01*
X123644579Y-64619961D01*
X123568214Y-64640423D01*
X123568209Y-64640426D01*
X123431290Y-64719475D01*
X123431282Y-64719481D01*
X122447584Y-65703181D01*
X122386261Y-65736666D01*
X122359903Y-65739500D01*
X116866371Y-65739500D01*
X116799332Y-65719815D01*
X116778690Y-65703181D01*
X113235334Y-62159825D01*
X113218021Y-62138116D01*
X113186022Y-62087190D01*
X113129816Y-61997738D01*
X113002262Y-61870184D01*
X112951834Y-61838498D01*
X112849523Y-61774211D01*
X112679254Y-61714631D01*
X112679249Y-61714630D01*
X112500004Y-61694435D01*
X112499996Y-61694435D01*
X112320750Y-61714630D01*
X112320745Y-61714631D01*
X112150476Y-61774211D01*
X111997737Y-61870184D01*
X111870184Y-61997737D01*
X111774211Y-62150476D01*
X111714631Y-62320745D01*
X111714630Y-62320750D01*
X111694435Y-62499996D01*
X111694435Y-62500003D01*
X111181394Y-62500003D01*
X111235802Y-62261630D01*
X111243431Y-62159825D01*
X111255408Y-62000004D01*
X111255408Y-61999995D01*
X111235803Y-61738379D01*
X111235802Y-61738374D01*
X111235802Y-61738370D01*
X111177420Y-61482584D01*
X111081568Y-61238357D01*
X110950386Y-61011143D01*
X110898297Y-60945826D01*
X127500000Y-60945826D01*
X127534075Y-61072993D01*
X127599901Y-61187007D01*
X127692993Y-61280099D01*
X127807007Y-61345925D01*
X127934174Y-61380000D01*
X128065826Y-61380000D01*
X128192993Y-61345925D01*
X128307007Y-61280099D01*
X128400099Y-61187007D01*
X128465925Y-61072993D01*
X128500000Y-60945826D01*
X128500000Y-60814174D01*
X128465925Y-60687007D01*
X128400099Y-60572993D01*
X128307007Y-60479901D01*
X128192993Y-60414075D01*
X128065826Y-60380000D01*
X127934174Y-60380000D01*
X127807007Y-60414075D01*
X127692993Y-60479901D01*
X127599901Y-60572993D01*
X127534075Y-60687007D01*
X127500000Y-60814174D01*
X127500000Y-60945826D01*
X110898297Y-60945826D01*
X110786805Y-60806019D01*
X110786804Y-60806018D01*
X110786801Y-60806014D01*
X110594479Y-60627567D01*
X110377704Y-60479772D01*
X110377700Y-60479770D01*
X110377697Y-60479768D01*
X110377696Y-60479767D01*
X110141325Y-60365938D01*
X110141327Y-60365938D01*
X109890623Y-60288606D01*
X109890619Y-60288605D01*
X109890615Y-60288604D01*
X109833533Y-60280000D01*
X126650000Y-60280000D01*
X127400000Y-60280000D01*
X127400000Y-59530000D01*
X128600000Y-59530000D01*
X128600000Y-60280000D01*
X129350000Y-60280000D01*
X129350000Y-59982172D01*
X129349999Y-59982155D01*
X129343598Y-59922627D01*
X129343596Y-59922620D01*
X129293354Y-59787913D01*
X129293350Y-59787906D01*
X129207190Y-59672812D01*
X129207187Y-59672809D01*
X129092093Y-59586649D01*
X129092086Y-59586645D01*
X128957379Y-59536403D01*
X128957372Y-59536401D01*
X128897844Y-59530000D01*
X128600000Y-59530000D01*
X127400000Y-59530000D01*
X127102155Y-59530000D01*
X127042627Y-59536401D01*
X127042620Y-59536403D01*
X126907913Y-59586645D01*
X126907906Y-59586649D01*
X126792812Y-59672809D01*
X126792809Y-59672812D01*
X126706649Y-59787906D01*
X126706645Y-59787913D01*
X126656403Y-59922620D01*
X126656401Y-59922627D01*
X126650000Y-59982155D01*
X126650000Y-60280000D01*
X109833533Y-60280000D01*
X109765823Y-60269794D01*
X109631187Y-60249500D01*
X109631182Y-60249500D01*
X109368818Y-60249500D01*
X109368812Y-60249500D01*
X109207247Y-60273853D01*
X109109385Y-60288604D01*
X109109382Y-60288605D01*
X109109376Y-60288606D01*
X108858673Y-60365938D01*
X108622303Y-60479767D01*
X108622302Y-60479768D01*
X108405520Y-60627567D01*
X108213198Y-60806014D01*
X108049614Y-61011143D01*
X107918432Y-61238356D01*
X107822582Y-61482578D01*
X107822576Y-61482597D01*
X107764197Y-61738374D01*
X107764196Y-61738379D01*
X107744592Y-61999995D01*
X107744592Y-62000004D01*
X104500500Y-62000004D01*
X104500500Y-59124500D01*
X104520185Y-59057461D01*
X104572989Y-59011706D01*
X104624500Y-59000500D01*
X172375500Y-59000500D01*
X172442539Y-59020185D01*
G37*
%TD.AperFunction*%
%TD*%
M02*
