M48
; DRILL file {KiCad 8.0.1} date 2024-04-27T11:46:25+0200
; FORMAT={-:-/ absolute / inch / decimal}
; #@! TF.CreationDate,2024-04-27T11:46:25+02:00
; #@! TF.GenerationSoftware,Kicad,Pcbnew,8.0.1
; #@! TF.FileFunction,Plated,1,2,PTH
FMAT,2
INCH
; #@! TA.AperFunction,Plated,PTH,ComponentDrill
T1C0.0079
; #@! TA.AperFunction,Plated,PTH,ViaDrill
T2C0.0118
; #@! TA.AperFunction,Plated,PTH,ComponentDrill
T3C0.0354
; #@! TA.AperFunction,Plated,PTH,ComponentDrill
T4C0.0394
; #@! TA.AperFunction,Plated,PTH,ComponentDrill
T5C0.0512
%
G90
G05
T1
X5.4331Y-2.9291
X5.4331Y-2.9843
X5.4606Y-2.9016
X5.4606Y-2.9567
X5.4606Y-3.0118
X5.4882Y-2.9291
X5.4882Y-2.9843
X5.5157Y-2.9016
X5.5157Y-2.9567
X5.5157Y-3.0118
X5.5433Y-2.9291
X5.5433Y-2.9843
T2
X4.4291Y-2.4606
X4.439Y-3.0604
X4.4488Y-2.7953
X4.4488Y-3.563
X4.685Y-2.9039
X4.685Y-3.189
X4.6855Y-3.3263
X4.7134Y-2.9176
X4.8199Y-3.3459
X4.8228Y-3.1063
X4.8228Y-3.4055
X4.828Y-2.6656
X4.8356Y-2.8346
X4.8356Y-2.9134
X4.8819Y-3.1299
X4.8913Y-3.0781
X4.8976Y-2.5669
X4.9606Y-3.5433
X5.0Y-3.0512
X5.0Y-3.5433
X5.8268Y-2.7484
X6.1237Y-2.7936
X6.1614Y-2.7559
X6.1811Y-3.492
X6.1811Y-3.5433
X6.4961Y-3.4528
X6.5314Y-3.5392
X6.5551Y-3.4055
X6.5551Y-3.5156
X6.6461Y-3.5236
T3
X6.376Y-2.7693
X6.4161Y-2.6693
X6.4563Y-2.7693
X6.4965Y-2.6693
X6.5366Y-2.7693
X6.5768Y-2.6693
T4
X5.0394Y-2.3969
X5.0394Y-2.4969
X5.0394Y-2.5969
X5.0394Y-2.6969
X5.0394Y-2.7969
X5.0394Y-2.8969
X5.0394Y-2.9969
X5.0394Y-3.0969
X5.0394Y-3.1969
X5.0394Y-3.2969
X5.1378Y-3.4843
X5.2378Y-3.4843
X5.3378Y-3.4843
X5.4378Y-3.4843
X5.5378Y-3.4843
X5.6378Y-3.4843
X5.7378Y-3.4843
X5.8378Y-3.4843
X5.9378Y-3.4843
X6.0433Y-2.3937
X6.0433Y-2.4937
X6.0433Y-2.5937
X6.0433Y-2.6937
X6.0433Y-2.7937
X6.0433Y-2.8937
X6.0433Y-2.9937
X6.0433Y-3.0937
X6.0433Y-3.1937
X6.0433Y-3.2937
T5
X4.311Y-2.4409
X4.311Y-2.6378
X4.311Y-2.9528
X4.311Y-3.1496
X4.311Y-3.4646
X4.311Y-3.6614
X4.626Y-3.6024
X4.8228Y-3.6024
X6.3976Y-3.6024
X6.5945Y-3.6024
M30
