%TF.GenerationSoftware,KiCad,Pcbnew,8.0.1*%
%TF.CreationDate,2024-04-27T11:46:23+02:00*%
%TF.ProjectId,driver_v2,64726976-6572-45f7-9632-2e6b69636164,rev?*%
%TF.SameCoordinates,Original*%
%TF.FileFunction,Copper,L1,Top*%
%TF.FilePolarity,Positive*%
%FSLAX46Y46*%
G04 Gerber Fmt 4.6, Leading zero omitted, Abs format (unit mm)*
G04 Created by KiCad (PCBNEW 8.0.1) date 2024-04-27 11:46:23*
%MOMM*%
%LPD*%
G01*
G04 APERTURE LIST*
G04 Aperture macros list*
%AMRoundRect*
0 Rectangle with rounded corners*
0 $1 Rounding radius*
0 $2 $3 $4 $5 $6 $7 $8 $9 X,Y pos of 4 corners*
0 Add a 4 corners polygon primitive as box body*
4,1,4,$2,$3,$4,$5,$6,$7,$8,$9,$2,$3,0*
0 Add four circle primitives for the rounded corners*
1,1,$1+$1,$2,$3*
1,1,$1+$1,$4,$5*
1,1,$1+$1,$6,$7*
1,1,$1+$1,$8,$9*
0 Add four rect primitives between the rounded corners*
20,1,$1+$1,$2,$3,$4,$5,0*
20,1,$1+$1,$4,$5,$6,$7,0*
20,1,$1+$1,$6,$7,$8,$9,0*
20,1,$1+$1,$8,$9,$2,$3,0*%
G04 Aperture macros list end*
%TA.AperFunction,SMDPad,CuDef*%
%ADD10RoundRect,0.150000X0.825000X0.150000X-0.825000X0.150000X-0.825000X-0.150000X0.825000X-0.150000X0*%
%TD*%
%TA.AperFunction,SMDPad,CuDef*%
%ADD11RoundRect,0.250000X0.412500X0.650000X-0.412500X0.650000X-0.412500X-0.650000X0.412500X-0.650000X0*%
%TD*%
%TA.AperFunction,SMDPad,CuDef*%
%ADD12RoundRect,0.250000X0.625000X-0.400000X0.625000X0.400000X-0.625000X0.400000X-0.625000X-0.400000X0*%
%TD*%
%TA.AperFunction,ComponentPad*%
%ADD13R,1.700000X1.700000*%
%TD*%
%TA.AperFunction,ComponentPad*%
%ADD14O,1.700000X1.700000*%
%TD*%
%TA.AperFunction,SMDPad,CuDef*%
%ADD15RoundRect,0.250000X-0.625000X0.400000X-0.625000X-0.400000X0.625000X-0.400000X0.625000X0.400000X0*%
%TD*%
%TA.AperFunction,ComponentPad*%
%ADD16R,2.500000X2.500000*%
%TD*%
%TA.AperFunction,ComponentPad*%
%ADD17C,2.500000*%
%TD*%
%TA.AperFunction,SMDPad,CuDef*%
%ADD18RoundRect,0.250001X-0.624999X0.462499X-0.624999X-0.462499X0.624999X-0.462499X0.624999X0.462499X0*%
%TD*%
%TA.AperFunction,SMDPad,CuDef*%
%ADD19R,1.500000X0.900000*%
%TD*%
%TA.AperFunction,SMDPad,CuDef*%
%ADD20R,0.900000X1.500000*%
%TD*%
%TA.AperFunction,SMDPad,CuDef*%
%ADD21R,0.900000X0.900000*%
%TD*%
%TA.AperFunction,ComponentPad*%
%ADD22C,0.600000*%
%TD*%
%TA.AperFunction,SMDPad,CuDef*%
%ADD23RoundRect,0.375000X0.375000X-0.625000X0.375000X0.625000X-0.375000X0.625000X-0.375000X-0.625000X0*%
%TD*%
%TA.AperFunction,SMDPad,CuDef*%
%ADD24RoundRect,0.500000X1.400000X-0.500000X1.400000X0.500000X-1.400000X0.500000X-1.400000X-0.500000X0*%
%TD*%
%TA.AperFunction,ComponentPad*%
%ADD25R,1.520000X1.520000*%
%TD*%
%TA.AperFunction,ComponentPad*%
%ADD26C,1.520000*%
%TD*%
%TA.AperFunction,ViaPad*%
%ADD27C,0.600000*%
%TD*%
%TA.AperFunction,Conductor*%
%ADD28C,0.200000*%
%TD*%
%TA.AperFunction,Conductor*%
%ADD29C,0.520000*%
%TD*%
%TA.AperFunction,Conductor*%
%ADD30C,0.300000*%
%TD*%
G04 APERTURE END LIST*
D10*
%TO.P,IC5,1,NC*%
%TO.N,unconnected-(IC5-NC-Pad1)*%
X120950000Y-84810000D03*
%TO.P,IC5,2,INA*%
%TO.N,Net-(IC1-IO16)*%
X120950000Y-83540000D03*
%TO.P,IC5,3,GND*%
%TO.N,GND*%
X120950000Y-82270000D03*
%TO.P,IC5,4,INB*%
%TO.N,Net-(IC1-IO4)*%
X120950000Y-81000000D03*
%TO.P,IC5,5,OUTB*%
%TO.N,Net-(IC5-OUTB)*%
X116000000Y-81000000D03*
%TO.P,IC5,6,VDD*%
%TO.N,VCC*%
X116000000Y-82270000D03*
%TO.P,IC5,7,OUTA*%
%TO.N,Net-(IC5-OUTA)*%
X116000000Y-83540000D03*
%TO.P,IC5,8,NC*%
%TO.N,unconnected-(IC5-NC-Pad8)*%
X116000000Y-84810000D03*
%TD*%
D11*
%TO.P,C1,1*%
%TO.N,+3.3V*%
X160062500Y-85500000D03*
%TO.P,C1,2*%
%TO.N,GND*%
X156937500Y-85500000D03*
%TD*%
D10*
%TO.P,IC3,1,NC*%
%TO.N,unconnected-(IC3-NC-Pad1)*%
X120975000Y-71500000D03*
%TO.P,IC3,2,INA*%
%TO.N,Net-(IC1-IO26)*%
X120975000Y-70230000D03*
%TO.P,IC3,3,GND*%
%TO.N,GND*%
X120975000Y-68960000D03*
%TO.P,IC3,4,INB*%
%TO.N,Net-(IC1-IO25)*%
X120975000Y-67690000D03*
%TO.P,IC3,5,OUTB*%
%TO.N,Net-(IC3-OUTB)*%
X116025000Y-67690000D03*
%TO.P,IC3,6,VDD*%
%TO.N,VCC*%
X116025000Y-68960000D03*
%TO.P,IC3,7,OUTA*%
%TO.N,Net-(IC3-OUTA)*%
X116025000Y-70230000D03*
%TO.P,IC3,8,NC*%
%TO.N,unconnected-(IC3-NC-Pad8)*%
X116025000Y-71500000D03*
%TD*%
D12*
%TO.P,R7,1*%
%TO.N,GND*%
X125000000Y-75050000D03*
%TO.P,R7,2*%
%TO.N,Net-(IC1-IO35)*%
X125000000Y-71950000D03*
%TD*%
D13*
%TO.P,J4,1,Pin_1*%
%TO.N,Net-(IC1-IO26)*%
X130500000Y-88500000D03*
D14*
%TO.P,J4,2,Pin_2*%
%TO.N,Net-(IC1-IO27)*%
X133040000Y-88500000D03*
%TO.P,J4,3,Pin_3*%
%TO.N,Net-(IC1-IO14)*%
X135580000Y-88500000D03*
%TO.P,J4,4,Pin_4*%
%TO.N,Net-(IC1-IO12)*%
X138120000Y-88500000D03*
%TO.P,J4,5,Pin_5*%
%TO.N,Net-(IC1-IO13)*%
X140660000Y-88500000D03*
%TO.P,J4,6,Pin_6*%
%TO.N,Net-(IC1-IO15)*%
X143200000Y-88500000D03*
%TO.P,J4,7,Pin_7*%
%TO.N,Net-(IC1-IO2)*%
X145740000Y-88500000D03*
%TO.P,J4,8,Pin_8*%
%TO.N,Net-(IC1-IO0)*%
X148280000Y-88500000D03*
%TO.P,J4,9,Pin_9*%
%TO.N,Net-(IC1-IO4)*%
X150820000Y-88500000D03*
%TD*%
D13*
%TO.P,J3,1,Pin_1*%
%TO.N,Net-(IC1-IO16)*%
X153500000Y-83660000D03*
D14*
%TO.P,J3,2,Pin_2*%
%TO.N,Net-(IC1-IO17)*%
X153500000Y-81120000D03*
%TO.P,J3,3,Pin_3*%
%TO.N,Net-(IC1-IO5)*%
X153500000Y-78580000D03*
%TO.P,J3,4,Pin_4*%
%TO.N,Net-(IC1-IO18)*%
X153500000Y-76040000D03*
%TO.P,J3,5,Pin_5*%
%TO.N,Net-(IC1-IO19)*%
X153500000Y-73500000D03*
%TO.P,J3,6,Pin_6*%
%TO.N,Net-(IC1-IO21)*%
X153500000Y-70960000D03*
%TO.P,J3,7,Pin_7*%
%TO.N,Net-(IC1-RXD0{slash}IO3)*%
X153500000Y-68420000D03*
%TO.P,J3,8,Pin_8*%
%TO.N,Net-(IC1-TXD0{slash}IO1)*%
X153500000Y-65880000D03*
%TO.P,J3,9,Pin_9*%
%TO.N,Net-(IC1-IO22)*%
X153500000Y-63340000D03*
%TO.P,J3,10,Pin_10*%
%TO.N,Net-(IC1-IO23)*%
X153500000Y-60800000D03*
%TD*%
D15*
%TO.P,R2,1*%
%TO.N,Net-(IC1-IO22)*%
X168000000Y-74400000D03*
%TO.P,R2,2*%
%TO.N,+3.3V*%
X168000000Y-77500000D03*
%TD*%
D16*
%TO.P,M2,1,Pin_1*%
%TO.N,Net-(IC3-OUTA)*%
X109500000Y-80000000D03*
D17*
%TO.P,M2,2,Pin_2*%
%TO.N,Net-(IC3-OUTB)*%
X109500000Y-75000000D03*
%TD*%
D12*
%TO.P,R4,1*%
%TO.N,Net-(IC1-EN)*%
X125000000Y-64050000D03*
%TO.P,R4,2*%
%TO.N,+3.3V*%
X125000000Y-60950000D03*
%TD*%
%TO.P,R6,1*%
%TO.N,Net-(IC1-IO35)*%
X125000000Y-69500000D03*
%TO.P,R6,2*%
%TO.N,VCC*%
X125000000Y-66400000D03*
%TD*%
D18*
%TO.P,LED,1,K*%
%TO.N,GND*%
X171000000Y-82462500D03*
%TO.P,LED,2,A*%
%TO.N,Net-(D1-A)*%
X171000000Y-85437500D03*
%TD*%
D19*
%TO.P,IC1,1,GND*%
%TO.N,GND*%
X132150000Y-67380000D03*
%TO.P,IC1,2,VDD*%
%TO.N,+3.3V*%
X132150000Y-68650000D03*
%TO.P,IC1,3,EN*%
%TO.N,Net-(IC1-EN)*%
X132150000Y-69920000D03*
%TO.P,IC1,4,SENSOR_VP*%
%TO.N,Net-(IC1-SENSOR_VP)*%
X132150000Y-71190000D03*
%TO.P,IC1,5,SENSOR_VN*%
%TO.N,Net-(IC1-SENSOR_VN)*%
X132150000Y-72460000D03*
%TO.P,IC1,6,IO34*%
%TO.N,Net-(IC1-IO34)*%
X132150000Y-73730000D03*
%TO.P,IC1,7,IO35*%
%TO.N,Net-(IC1-IO35)*%
X132150000Y-75000000D03*
%TO.P,IC1,8,IO32*%
%TO.N,Net-(IC1-IO32)*%
X132150000Y-76270000D03*
%TO.P,IC1,9,IO33*%
%TO.N,Net-(IC1-IO33)*%
X132150000Y-77540000D03*
%TO.P,IC1,10,IO25*%
%TO.N,Net-(IC1-IO25)*%
X132150000Y-78810000D03*
%TO.P,IC1,11,IO26*%
%TO.N,Net-(IC1-IO26)*%
X132150000Y-80080000D03*
%TO.P,IC1,12,IO27*%
%TO.N,Net-(IC1-IO27)*%
X132150000Y-81350000D03*
%TO.P,IC1,13,IO14*%
%TO.N,Net-(IC1-IO14)*%
X132150000Y-82620000D03*
%TO.P,IC1,14,IO12*%
%TO.N,Net-(IC1-IO12)*%
X132150000Y-83890000D03*
D20*
%TO.P,IC1,15,GND*%
%TO.N,GND*%
X135185000Y-85140000D03*
%TO.P,IC1,16,IO13*%
%TO.N,Net-(IC1-IO13)*%
X136455000Y-85140000D03*
%TO.P,IC1,17,NC*%
%TO.N,unconnected-(IC1-NC-Pad17)*%
X137725000Y-85140000D03*
%TO.P,IC1,18,NC*%
%TO.N,unconnected-(IC1-NC-Pad18)*%
X138995000Y-85140000D03*
%TO.P,IC1,19,NC*%
%TO.N,unconnected-(IC1-NC-Pad19)*%
X140265000Y-85140000D03*
%TO.P,IC1,20,NC*%
%TO.N,unconnected-(IC1-NC-Pad20)*%
X141535000Y-85140000D03*
%TO.P,IC1,21,NC*%
%TO.N,unconnected-(IC1-NC-Pad21)*%
X142805000Y-85140000D03*
%TO.P,IC1,22,NC*%
%TO.N,unconnected-(IC1-NC-Pad22)*%
X144075000Y-85140000D03*
%TO.P,IC1,23,IO15*%
%TO.N,Net-(IC1-IO15)*%
X145345000Y-85140000D03*
%TO.P,IC1,24,IO2*%
%TO.N,Net-(IC1-IO2)*%
X146615000Y-85140000D03*
D19*
%TO.P,IC1,25,IO0*%
%TO.N,Net-(IC1-IO0)*%
X149650000Y-83890000D03*
%TO.P,IC1,26,IO4*%
%TO.N,Net-(IC1-IO4)*%
X149650000Y-82620000D03*
%TO.P,IC1,27,IO16*%
%TO.N,Net-(IC1-IO16)*%
X149650000Y-81350000D03*
%TO.P,IC1,28,IO17*%
%TO.N,Net-(IC1-IO17)*%
X149650000Y-80080000D03*
%TO.P,IC1,29,IO5*%
%TO.N,Net-(IC1-IO5)*%
X149650000Y-78810000D03*
%TO.P,IC1,30,IO18*%
%TO.N,Net-(IC1-IO18)*%
X149650000Y-77540000D03*
%TO.P,IC1,31,IO19*%
%TO.N,Net-(IC1-IO19)*%
X149650000Y-76270000D03*
%TO.P,IC1,32,NC*%
%TO.N,unconnected-(IC1-NC-Pad32)*%
X149650000Y-75000000D03*
%TO.P,IC1,33,IO21*%
%TO.N,Net-(IC1-IO21)*%
X149650000Y-73730000D03*
%TO.P,IC1,34,RXD0/IO3*%
%TO.N,Net-(IC1-RXD0{slash}IO3)*%
X149650000Y-72460000D03*
%TO.P,IC1,35,TXD0/IO1*%
%TO.N,Net-(IC1-TXD0{slash}IO1)*%
X149650000Y-71190000D03*
%TO.P,IC1,36,IO22*%
%TO.N,Net-(IC1-IO22)*%
X149650000Y-69920000D03*
%TO.P,IC1,37,IO23*%
%TO.N,Net-(IC1-IO23)*%
X149650000Y-68650000D03*
%TO.P,IC1,38,GND*%
%TO.N,GND*%
X149650000Y-67380000D03*
D21*
%TO.P,IC1,39,GND*%
X138000000Y-73700000D03*
D22*
X138000000Y-74400000D03*
D21*
X138000000Y-75100000D03*
D22*
X138000000Y-75800000D03*
D21*
X138000000Y-76500000D03*
D22*
X138700000Y-73700000D03*
X138700000Y-75100000D03*
X138700000Y-76500000D03*
D21*
X139400000Y-73700000D03*
D22*
X139400000Y-74400000D03*
D21*
X139400000Y-75100000D03*
D22*
X139400000Y-75800000D03*
D21*
X139400000Y-76500000D03*
D22*
X140100000Y-73700000D03*
X140100000Y-75100000D03*
X140100000Y-76500000D03*
D21*
X140800000Y-73700000D03*
D22*
X140800000Y-74400000D03*
D21*
X140800000Y-75100000D03*
D22*
X140800000Y-75800000D03*
D21*
X140800000Y-76500000D03*
%TD*%
D15*
%TO.P,R3,1*%
%TO.N,Net-(IC1-IO17)*%
X168000000Y-82400000D03*
%TO.P,R3,2*%
%TO.N,Net-(D1-A)*%
X168000000Y-85500000D03*
%TD*%
D16*
%TO.P,BAT,1,Pin_1*%
%TO.N,VCC*%
X167500000Y-91500000D03*
D17*
%TO.P,BAT,2,Pin_2*%
%TO.N,GND*%
X162500000Y-91500000D03*
%TD*%
D23*
%TO.P,U1,1,GND*%
%TO.N,GND*%
X157200000Y-82650000D03*
%TO.P,U1,2,VO*%
%TO.N,+3.3V*%
X159500000Y-82650000D03*
D24*
X159500000Y-76350000D03*
D23*
%TO.P,U1,3,VI*%
%TO.N,VCC*%
X161800000Y-82650000D03*
%TD*%
D12*
%TO.P,R5,1*%
%TO.N,Net-(IC1-IO0)*%
X165000000Y-85550000D03*
%TO.P,R5,2*%
%TO.N,+3.3V*%
X165000000Y-82450000D03*
%TD*%
D25*
%TO.P,RJ12,1*%
%TO.N,GND*%
X161950000Y-70340000D03*
D26*
%TO.P,RJ12,2*%
%TO.N,+3.3V*%
X162970000Y-67800000D03*
%TO.P,RJ12,3*%
%TO.N,GND*%
X163990000Y-70340000D03*
%TO.P,RJ12,4*%
%TO.N,unconnected-(J1-Pad4)*%
X165010000Y-67800000D03*
%TO.P,RJ12,5*%
%TO.N,Net-(IC1-IO22)*%
X166030000Y-70340000D03*
%TO.P,RJ12,6*%
%TO.N,Net-(IC1-IO23)*%
X167050000Y-67800000D03*
%TD*%
D13*
%TO.P,J2,1,Pin_1*%
%TO.N,GND*%
X128000000Y-60880000D03*
D14*
%TO.P,J2,2,Pin_2*%
%TO.N,+3.3V*%
X128000000Y-63420000D03*
%TO.P,J2,3,Pin_3*%
%TO.N,Net-(IC1-EN)*%
X128000000Y-65960000D03*
%TO.P,J2,4,Pin_4*%
%TO.N,Net-(IC1-SENSOR_VP)*%
X128000000Y-68500000D03*
%TO.P,J2,5,Pin_5*%
%TO.N,Net-(IC1-SENSOR_VN)*%
X128000000Y-71040000D03*
%TO.P,J2,6,Pin_6*%
%TO.N,Net-(IC1-IO34)*%
X128000000Y-73580000D03*
%TO.P,J2,7,Pin_7*%
%TO.N,Net-(IC1-IO35)*%
X128000000Y-76120000D03*
%TO.P,J2,8,Pin_8*%
%TO.N,Net-(IC1-IO32)*%
X128000000Y-78660000D03*
%TO.P,J2,9,Pin_9*%
%TO.N,Net-(IC1-IO33)*%
X128000000Y-81200000D03*
%TO.P,J2,10,Pin_10*%
%TO.N,Net-(IC1-IO25)*%
X128000000Y-83740000D03*
%TD*%
D10*
%TO.P,IC2,1,NC*%
%TO.N,unconnected-(IC2-NC-Pad1)*%
X120950000Y-64000000D03*
%TO.P,IC2,2,INA*%
%TO.N,Net-(IC1-IO33)*%
X120950000Y-62730000D03*
%TO.P,IC2,3,GND*%
%TO.N,GND*%
X120950000Y-61460000D03*
%TO.P,IC2,4,INB*%
%TO.N,Net-(IC1-IO32)*%
X120950000Y-60190000D03*
%TO.P,IC2,5,OUTB*%
%TO.N,Net-(IC2-OUTB)*%
X116000000Y-60190000D03*
%TO.P,IC2,6,VDD*%
%TO.N,VCC*%
X116000000Y-61460000D03*
%TO.P,IC2,7,OUTA*%
%TO.N,Net-(IC2-OUTA)*%
X116000000Y-62730000D03*
%TO.P,IC2,8,NC*%
%TO.N,unconnected-(IC2-NC-Pad8)*%
X116000000Y-64000000D03*
%TD*%
D16*
%TO.P,M4,1,Pin_1*%
%TO.N,Net-(IC5-OUTA)*%
X122500000Y-91500000D03*
D17*
%TO.P,M4,2,Pin_2*%
%TO.N,Net-(IC5-OUTB)*%
X117500000Y-91500000D03*
%TD*%
D16*
%TO.P,M3,1,Pin_1*%
%TO.N,Net-(IC4-OUTA)*%
X109500000Y-93000000D03*
D17*
%TO.P,M3,2,Pin_2*%
%TO.N,Net-(IC4-OUTB)*%
X109500000Y-88000000D03*
%TD*%
D10*
%TO.P,IC4,1,NC*%
%TO.N,unconnected-(IC4-NC-Pad1)*%
X120950000Y-78000000D03*
%TO.P,IC4,2,INA*%
%TO.N,Net-(IC1-IO12)*%
X120950000Y-76730000D03*
%TO.P,IC4,3,GND*%
%TO.N,GND*%
X120950000Y-75460000D03*
%TO.P,IC4,4,INB*%
%TO.N,Net-(IC1-IO27)*%
X120950000Y-74190000D03*
%TO.P,IC4,5,OUTB*%
%TO.N,Net-(IC4-OUTB)*%
X116000000Y-74190000D03*
%TO.P,IC4,6,VDD*%
%TO.N,VCC*%
X116000000Y-75460000D03*
%TO.P,IC4,7,OUTA*%
%TO.N,Net-(IC4-OUTA)*%
X116000000Y-76730000D03*
%TO.P,IC4,8,NC*%
%TO.N,unconnected-(IC4-NC-Pad8)*%
X116000000Y-78000000D03*
%TD*%
D16*
%TO.P,M1,1,Pin_1*%
%TO.N,Net-(IC2-OUTA)*%
X109500000Y-67000000D03*
D17*
%TO.P,M1,2,Pin_2*%
%TO.N,Net-(IC2-OUTB)*%
X109500000Y-62000000D03*
%TD*%
D15*
%TO.P,R1,1*%
%TO.N,Net-(IC1-IO23)*%
X171000000Y-74400000D03*
%TO.P,R1,2*%
%TO.N,+3.3V*%
X171000000Y-77500000D03*
%TD*%
D27*
%TO.N,GND*%
X168809744Y-89500000D03*
X127000000Y-77500000D03*
X157000000Y-90000000D03*
X157000000Y-88696446D03*
X165896446Y-89896446D03*
%TO.N,VCC*%
X113000000Y-71000000D03*
X124400000Y-65200000D03*
X126000000Y-90000000D03*
X112500000Y-62500000D03*
X112750000Y-77735001D03*
X113000000Y-90500000D03*
X127000000Y-90000000D03*
%TO.N,+3.3V*%
X156500000Y-70000000D03*
X155541587Y-70958413D03*
X148000000Y-69810000D03*
%TO.N,Net-(IC1-IO16)*%
X122500000Y-86500000D03*
X122424897Y-84984956D03*
%TO.N,Net-(IC1-IO4)*%
X119012224Y-84487776D03*
X119000000Y-81000000D03*
%TO.N,Net-(IC1-IO17)*%
X166500000Y-89296446D03*
X166500000Y-86500000D03*
%TO.N,Net-(IC1-IO0)*%
X165000000Y-87700000D03*
%TO.N,Net-(IC1-IO26)*%
X119000000Y-73760000D03*
X122500000Y-78900000D03*
%TO.N,Net-(IC1-IO27)*%
X119721220Y-74106186D03*
X124000000Y-79500000D03*
%TO.N,Net-(IC1-IO25)*%
X124240000Y-78182893D03*
X122630881Y-67705685D03*
X122825000Y-74000000D03*
X122825000Y-72000000D03*
%TD*%
D28*
%TO.N,GND*%
X156937500Y-88633946D02*
X156937500Y-85500000D01*
X156937500Y-82912500D02*
X157200000Y-82650000D01*
X128000000Y-60880000D02*
X126520000Y-59400000D01*
X172400000Y-85909744D02*
X172400000Y-83862500D01*
X125000000Y-75500000D02*
X127000000Y-77500000D01*
X164500000Y-91500000D02*
X165896446Y-90103554D01*
X119975001Y-61270000D02*
X120950000Y-61270000D01*
X172400000Y-83862500D02*
X171000000Y-82462500D01*
X165896446Y-90103554D02*
X165896446Y-89896446D01*
X157000000Y-90000000D02*
X161000000Y-90000000D01*
X138700000Y-76500000D02*
X139400000Y-76500000D01*
X140100000Y-76500000D02*
X139400000Y-76500000D01*
X161000000Y-90000000D02*
X162500000Y-91500000D01*
X157000000Y-88696446D02*
X156937500Y-88633946D01*
X164500000Y-91500000D02*
X162500000Y-91500000D01*
X168809744Y-89500000D02*
X172400000Y-85909744D01*
X125000000Y-75050000D02*
X125000000Y-75500000D01*
X156937500Y-85500000D02*
X156937500Y-82912500D01*
D29*
%TO.N,VCC*%
X115050001Y-68960000D02*
X115040000Y-68960000D01*
X115025001Y-82270000D02*
X116000000Y-82270000D01*
X112500000Y-62500000D02*
X113540000Y-61460000D01*
X159000000Y-94000000D02*
X166000000Y-94000000D01*
X114500000Y-82795001D02*
X115025001Y-82270000D01*
X167000000Y-96000000D02*
X158000000Y-96000000D01*
X113540000Y-61460000D02*
X116000000Y-61460000D01*
X169000000Y-94000000D02*
X167000000Y-96000000D01*
X166500000Y-95000000D02*
X158500000Y-95000000D01*
X114500000Y-86081694D02*
X114500000Y-82795001D01*
X127500000Y-91500000D02*
X158500000Y-91500000D01*
D28*
X125000000Y-66400000D02*
X125000000Y-65800000D01*
D29*
X120500000Y-92081694D02*
X114500000Y-86081694D01*
X120500000Y-92920000D02*
X120500000Y-92081694D01*
X121080000Y-93500000D02*
X120500000Y-92920000D01*
D30*
X167500000Y-89080761D02*
X167500000Y-91500000D01*
X161800000Y-87300000D02*
X163000000Y-88500000D01*
D29*
X117000000Y-94500000D02*
X113000000Y-90500000D01*
D30*
X166919239Y-88500000D02*
X167500000Y-89080761D01*
D29*
X167500000Y-91500000D02*
X168000000Y-92000000D01*
X157000000Y-93500000D02*
X121080000Y-93500000D01*
X115025001Y-75460000D02*
X116000000Y-75460000D01*
X165790000Y-93210000D02*
X167500000Y-91500000D01*
X127000000Y-91000000D02*
X127500000Y-91500000D01*
X126000000Y-90000000D02*
X126000000Y-91500000D01*
X166000000Y-94000000D02*
X167500000Y-92500000D01*
X158500000Y-91500000D02*
X160210000Y-93210000D01*
X115050001Y-68960000D02*
X116025000Y-68960000D01*
X158500000Y-95000000D02*
X157000000Y-93500000D01*
X112750000Y-77735001D02*
X115025001Y-75460000D01*
X158000000Y-96000000D02*
X156500000Y-94500000D01*
X157500000Y-92500000D02*
X159000000Y-94000000D01*
D30*
X161800000Y-82650000D02*
X161800000Y-87300000D01*
D28*
X125000000Y-66400000D02*
X124675025Y-66400000D01*
D29*
X169000000Y-93000000D02*
X169000000Y-94000000D01*
X167500000Y-91500000D02*
X169000000Y-93000000D01*
D30*
X163000000Y-88500000D02*
X166919239Y-88500000D01*
D29*
X115040000Y-68960000D02*
X113000000Y-71000000D01*
X127000000Y-90000000D02*
X127000000Y-91000000D01*
X127000000Y-92500000D02*
X157500000Y-92500000D01*
X156500000Y-94500000D02*
X117000000Y-94500000D01*
X167500000Y-92500000D02*
X167500000Y-91500000D01*
X126000000Y-91500000D02*
X127000000Y-92500000D01*
X168000000Y-93500000D02*
X166500000Y-95000000D01*
X168000000Y-92000000D02*
X168000000Y-93500000D01*
X160210000Y-93210000D02*
X165790000Y-93210000D01*
D28*
X125000000Y-65800000D02*
X124400000Y-65200000D01*
%TO.N,+3.3V*%
X168000000Y-77500000D02*
X165000000Y-77500000D01*
X124500000Y-60950000D02*
X126850000Y-63300000D01*
X155541587Y-70958413D02*
X155608413Y-70958413D01*
X131200000Y-68650000D02*
X129150000Y-66600000D01*
X155541587Y-72391587D02*
X155541587Y-70958413D01*
X129150000Y-66600000D02*
X129150000Y-64570000D01*
X159500000Y-76350000D02*
X155541587Y-72391587D01*
X148000000Y-69810000D02*
X146840000Y-68650000D01*
X132150000Y-68650000D02*
X131200000Y-68650000D01*
X126850000Y-63300000D02*
X127880000Y-63300000D01*
X160062500Y-85500000D02*
X160062500Y-83212500D01*
X171000000Y-77500000D02*
X168000000Y-77500000D01*
X129150000Y-64570000D02*
X128000000Y-63420000D01*
X165000000Y-77500000D02*
X163850000Y-76350000D01*
X160062500Y-83212500D02*
X159500000Y-82650000D01*
X146840000Y-68650000D02*
X132150000Y-68650000D01*
X163850000Y-76350000D02*
X159500000Y-76350000D01*
X127880000Y-63300000D02*
X128000000Y-63420000D01*
X158700000Y-67800000D02*
X162970000Y-67800000D01*
X165000000Y-82450000D02*
X165000000Y-77500000D01*
X156500000Y-70000000D02*
X158700000Y-67800000D01*
%TO.N,Net-(IC1-IO23)*%
X171000000Y-74400000D02*
X171000000Y-71750000D01*
X150180000Y-68650000D02*
X151000000Y-67830000D01*
X160050000Y-60800000D02*
X153500000Y-60800000D01*
X167050000Y-67800000D02*
X160050000Y-60800000D01*
X149650000Y-68650000D02*
X150180000Y-68650000D01*
X151000000Y-63300000D02*
X153500000Y-60800000D01*
X171000000Y-71750000D02*
X167050000Y-67800000D01*
X151000000Y-67830000D02*
X151000000Y-63300000D01*
%TO.N,Net-(IC1-IO14)*%
X130400000Y-83100000D02*
X130400000Y-85294314D01*
X134430000Y-87350000D02*
X135580000Y-88500000D01*
X132150000Y-82620000D02*
X130880000Y-82620000D01*
X130400000Y-85294314D02*
X132455686Y-87350000D01*
X132455686Y-87350000D02*
X134430000Y-87350000D01*
X130880000Y-82620000D02*
X130400000Y-83100000D01*
%TO.N,Net-(IC1-IO16)*%
X150600000Y-81350000D02*
X152910000Y-83660000D01*
X149650000Y-81350000D02*
X150600000Y-81350000D01*
X150150000Y-90850000D02*
X153500000Y-87500000D01*
X124575737Y-86707107D02*
X128718630Y-90850000D01*
X122707107Y-86707107D02*
X124575737Y-86707107D01*
X122424897Y-84984956D02*
X122424897Y-84669345D01*
X153500000Y-87500000D02*
X153500000Y-83660000D01*
X122424897Y-84669345D02*
X121295552Y-83540000D01*
X152910000Y-83660000D02*
X153500000Y-83660000D01*
X121295552Y-83540000D02*
X120950000Y-83540000D01*
X128718630Y-90850000D02*
X150150000Y-90850000D01*
X122500000Y-86500000D02*
X122707107Y-86707107D01*
%TO.N,Net-(IC1-IO4)*%
X150820000Y-88500000D02*
X151670000Y-87650000D01*
X128884315Y-90450000D02*
X148870000Y-90450000D01*
X119000000Y-81000000D02*
X120950000Y-81000000D01*
X121734999Y-81000000D02*
X120950000Y-81000000D01*
X151670000Y-87650000D02*
X151670000Y-83690000D01*
X150600000Y-82620000D02*
X149650000Y-82620000D01*
X148870000Y-90450000D02*
X150820000Y-88500000D01*
X151670000Y-83690000D02*
X150600000Y-82620000D01*
X120109304Y-85584856D02*
X124019172Y-85584856D01*
X124019172Y-85584856D02*
X128884315Y-90450000D01*
X119012224Y-84487776D02*
X120109304Y-85584856D01*
%TO.N,Net-(IC1-IO22)*%
X155000000Y-65500000D02*
X153500000Y-64000000D01*
X151400000Y-69120000D02*
X151400000Y-65440000D01*
X151400000Y-65440000D02*
X153500000Y-63340000D01*
X166030000Y-71470000D02*
X166030000Y-70340000D01*
X168000000Y-74400000D02*
X168000000Y-73440000D01*
X165000000Y-72500000D02*
X160000000Y-72500000D01*
X149650000Y-69920000D02*
X150600000Y-69920000D01*
X153500000Y-64000000D02*
X153500000Y-63340000D01*
X160000000Y-72500000D02*
X158500000Y-71000000D01*
X150600000Y-69920000D02*
X151400000Y-69120000D01*
X166030000Y-71470000D02*
X165000000Y-72500000D01*
X168000000Y-73440000D02*
X166030000Y-71470000D01*
X158500000Y-71000000D02*
X156500000Y-71000000D01*
X155000000Y-69500000D02*
X155000000Y-65500000D01*
X156500000Y-71000000D02*
X155000000Y-69500000D01*
D29*
%TO.N,Net-(IC2-OUTA)*%
X115025001Y-62730000D02*
X110755001Y-67000000D01*
X116000000Y-62730000D02*
X115025001Y-62730000D01*
X110755001Y-67000000D02*
X109500000Y-67000000D01*
%TO.N,Net-(IC2-OUTB)*%
X116000000Y-60190000D02*
X111310000Y-60190000D01*
X111310000Y-60190000D02*
X109500000Y-62000000D01*
%TO.N,Net-(IC3-OUTA)*%
X112033956Y-74966044D02*
X109500000Y-77500000D01*
X115050001Y-70230000D02*
X112033956Y-73246045D01*
X112033956Y-73246045D02*
X112033956Y-74966044D01*
X116025000Y-70230000D02*
X115050001Y-70230000D01*
X109500000Y-77500000D02*
X109500000Y-80000000D01*
%TO.N,Net-(IC3-OUTB)*%
X115050001Y-67690000D02*
X109500000Y-73240001D01*
X116025000Y-67690000D02*
X115050001Y-67690000D01*
X109500000Y-73240001D02*
X109500000Y-75000000D01*
%TO.N,Net-(IC4-OUTB)*%
X111240000Y-86260000D02*
X111240000Y-77975001D01*
X115025001Y-74190000D02*
X116000000Y-74190000D01*
X111240000Y-77975001D02*
X115025001Y-74190000D01*
X109500000Y-88000000D02*
X111240000Y-86260000D01*
%TO.N,Net-(IC4-OUTA)*%
X111960000Y-79795001D02*
X115025001Y-76730000D01*
X109500000Y-93000000D02*
X111960000Y-90540000D01*
X115025001Y-76730000D02*
X116000000Y-76730000D01*
X111960000Y-90540000D02*
X111960000Y-79795001D01*
%TO.N,Net-(IC5-OUTB)*%
X116000000Y-81000000D02*
X115025001Y-81000000D01*
X114500000Y-81000000D02*
X113500000Y-82000000D01*
X116000000Y-91500000D02*
X118000000Y-91500000D01*
X113500000Y-89000000D02*
X116000000Y-91500000D01*
X115525001Y-81000000D02*
X114500000Y-81000000D01*
X113500000Y-82000000D02*
X113500000Y-89000000D01*
%TO.N,Net-(IC5-OUTA)*%
X116000000Y-83540000D02*
X116974999Y-83540000D01*
X122000000Y-91500000D02*
X123000000Y-91500000D01*
X122500000Y-89065001D02*
X122500000Y-91500000D01*
X116974999Y-83540000D02*
X122500000Y-89065001D01*
D28*
%TO.N,Net-(D1-A)*%
X171000000Y-85437500D02*
X168062500Y-85437500D01*
X168062500Y-85437500D02*
X168000000Y-85500000D01*
%TO.N,Net-(IC1-IO12)*%
X119675000Y-77030001D02*
X119675000Y-78575000D01*
X129050000Y-90050000D02*
X125500000Y-86500000D01*
X131000000Y-84000000D02*
X131000000Y-85328628D01*
X132621372Y-86950000D02*
X136570000Y-86950000D01*
X119675000Y-78575000D02*
X121500000Y-80400000D01*
X136570000Y-86950000D02*
X138120000Y-88500000D01*
X124900000Y-80400000D02*
X125500000Y-81000000D01*
X131110000Y-83890000D02*
X131000000Y-84000000D01*
X138120000Y-88500000D02*
X136570000Y-90050000D01*
X132150000Y-83890000D02*
X131110000Y-83890000D01*
X120950000Y-76730000D02*
X119975001Y-76730000D01*
X125500000Y-86500000D02*
X125500000Y-81000000D01*
X119975001Y-76730000D02*
X119675000Y-77030001D01*
X121500000Y-80400000D02*
X124900000Y-80400000D01*
X131000000Y-85328628D02*
X132621372Y-86950000D01*
X136570000Y-90050000D02*
X129050000Y-90050000D01*
%TO.N,Net-(IC1-SENSOR_VN)*%
X129420000Y-72460000D02*
X128000000Y-71040000D01*
X132150000Y-72460000D02*
X129420000Y-72460000D01*
%TO.N,Net-(IC1-IO35)*%
X125000000Y-73120000D02*
X128000000Y-76120000D01*
X132150000Y-75000000D02*
X129120000Y-75000000D01*
X125000000Y-69500000D02*
X125000000Y-71950000D01*
X129120000Y-75000000D02*
X128000000Y-76120000D01*
X125000000Y-71950000D02*
X125000000Y-73120000D01*
%TO.N,Net-(IC1-IO19)*%
X150730000Y-76270000D02*
X153500000Y-73500000D01*
X149650000Y-76270000D02*
X150730000Y-76270000D01*
%TO.N,Net-(IC1-SENSOR_VP)*%
X130690000Y-71190000D02*
X128000000Y-68500000D01*
X132150000Y-71190000D02*
X130690000Y-71190000D01*
%TO.N,Net-(IC1-IO18)*%
X149650000Y-77540000D02*
X152000000Y-77540000D01*
X152000000Y-77540000D02*
X153500000Y-76040000D01*
%TO.N,Net-(IC1-EN)*%
X126090000Y-64050000D02*
X128000000Y-65960000D01*
X128000000Y-66720000D02*
X128000000Y-65960000D01*
X132150000Y-69920000D02*
X131200000Y-69920000D01*
X131200000Y-69920000D02*
X128000000Y-66720000D01*
X124500000Y-64050000D02*
X126090000Y-64050000D01*
%TO.N,Net-(IC1-IO17)*%
X149650000Y-80080000D02*
X152460000Y-80080000D01*
X168000000Y-82400000D02*
X166825000Y-83575000D01*
X155000000Y-88000000D02*
X155000000Y-82620000D01*
X153500000Y-81120000D02*
X152460000Y-80080000D01*
X166500000Y-89296446D02*
X156296446Y-89296446D01*
X166500000Y-83900000D02*
X166500000Y-86500000D01*
X166825000Y-83575000D02*
X166500000Y-83900000D01*
X155000000Y-82620000D02*
X153500000Y-81120000D01*
X156296446Y-89296446D02*
X155000000Y-88000000D01*
%TO.N,Net-(IC1-RXD0{slash}IO3)*%
X150180000Y-72460000D02*
X153500000Y-69140000D01*
X153500000Y-69140000D02*
X153500000Y-68420000D01*
X149650000Y-72460000D02*
X150180000Y-72460000D01*
%TO.N,Net-(IC1-IO5)*%
X149880000Y-78580000D02*
X149650000Y-78810000D01*
X153500000Y-78580000D02*
X149880000Y-78580000D01*
%TO.N,Net-(IC1-IO21)*%
X149650000Y-73730000D02*
X150730000Y-73730000D01*
X150730000Y-73730000D02*
X153500000Y-70960000D01*
%TO.N,Net-(IC1-TXD0{slash}IO1)*%
X152000000Y-67380000D02*
X153500000Y-65880000D01*
X152000000Y-69790000D02*
X152000000Y-67380000D01*
X149650000Y-71190000D02*
X150600000Y-71190000D01*
X150600000Y-71190000D02*
X152000000Y-69790000D01*
%TO.N,Net-(IC1-IO15)*%
X145345000Y-85140000D02*
X145345000Y-86355000D01*
X145345000Y-86355000D02*
X143200000Y-88500000D01*
%TO.N,Net-(IC1-IO2)*%
X146615000Y-87625000D02*
X145740000Y-88500000D01*
X146615000Y-85140000D02*
X146615000Y-87625000D01*
%TO.N,Net-(IC1-IO0)*%
X150500000Y-86280000D02*
X148280000Y-88500000D01*
X150500000Y-84740000D02*
X150500000Y-86280000D01*
X165000000Y-85550000D02*
X165000000Y-87700000D01*
X149650000Y-83890000D02*
X150500000Y-84740000D01*
%TO.N,Net-(IC1-IO13)*%
X137715000Y-87350000D02*
X139510000Y-87350000D01*
X139510000Y-87350000D02*
X140660000Y-88500000D01*
X136455000Y-85140000D02*
X136455000Y-86090000D01*
X136455000Y-86090000D02*
X137715000Y-87350000D01*
%TO.N,Net-(IC1-IO26)*%
X119000000Y-71859448D02*
X119000000Y-73760000D01*
X119065687Y-71793761D02*
X119000000Y-71859448D01*
X130920000Y-80080000D02*
X129550000Y-81450000D01*
X120975000Y-70230000D02*
X121730000Y-70230000D01*
X120629448Y-70230000D02*
X120975000Y-70230000D01*
X129550000Y-81450000D02*
X129550000Y-85000000D01*
X126450000Y-80598629D02*
X126450000Y-84450000D01*
X132150000Y-80080000D02*
X130920000Y-80080000D01*
X122500000Y-78900000D02*
X124751372Y-78900000D01*
X126450000Y-84450000D02*
X130500000Y-88500000D01*
X119065687Y-71793761D02*
X120629448Y-70230000D01*
X129550000Y-87550000D02*
X130500000Y-88500000D01*
X129550000Y-85000000D02*
X129550000Y-87550000D01*
X124751372Y-78900000D02*
X126450000Y-80598629D01*
%TO.N,Net-(IC1-IO33)*%
X123400000Y-64015001D02*
X121924999Y-62540000D01*
X123400000Y-67074316D02*
X123400000Y-64015001D01*
X131660000Y-77540000D02*
X128000000Y-81200000D01*
X126560000Y-79060000D02*
X126042742Y-79060000D01*
X128000000Y-81200000D02*
X128000000Y-80500000D01*
X121924999Y-62540000D02*
X120950000Y-62540000D01*
X128000000Y-80500000D02*
X126560000Y-79060000D01*
X126042742Y-79060000D02*
X123425000Y-76442256D01*
X132150000Y-77540000D02*
X131660000Y-77540000D01*
X123425000Y-76442256D02*
X123425000Y-67099316D01*
X123425000Y-67099316D02*
X123400000Y-67074316D01*
%TO.N,Net-(IC1-IO27)*%
X130650000Y-81350000D02*
X130000000Y-82000000D01*
X124785686Y-79500000D02*
X126000000Y-80714314D01*
X119721220Y-74106186D02*
X119805034Y-74190000D01*
X132150000Y-81350000D02*
X130650000Y-81350000D01*
X124000000Y-79500000D02*
X124785686Y-79500000D01*
X126000000Y-86434314D02*
X129215686Y-89650000D01*
X119805034Y-74190000D02*
X120950000Y-74190000D01*
X126000000Y-80714314D02*
X126000000Y-86434314D01*
X130000000Y-82000000D02*
X130000000Y-85460000D01*
X130000000Y-85460000D02*
X133040000Y-88500000D01*
X131890000Y-89650000D02*
X133040000Y-88500000D01*
X129215686Y-89650000D02*
X131890000Y-89650000D01*
%TO.N,Net-(IC1-IO25)*%
X122825000Y-72000000D02*
X122825000Y-74000000D01*
X120975000Y-67690000D02*
X122615196Y-67690000D01*
X132150000Y-78810000D02*
X131620000Y-78810000D01*
X126850000Y-82590000D02*
X128000000Y-83740000D01*
X122615196Y-67690000D02*
X122630881Y-67705685D01*
X129150000Y-81280000D02*
X129150000Y-82590000D01*
X124240000Y-78182893D02*
X124599950Y-78182893D01*
X124599950Y-78182893D02*
X126850000Y-80432943D01*
X126850000Y-80432943D02*
X126850000Y-82590000D01*
X129150000Y-82590000D02*
X128000000Y-83740000D01*
X131620000Y-78810000D02*
X129150000Y-81280000D01*
%TO.N,Net-(IC1-IO32)*%
X123825000Y-76276571D02*
X123825000Y-65473529D01*
X123500000Y-60190000D02*
X120950000Y-60190000D01*
X123800000Y-60490000D02*
X123500000Y-60190000D01*
X132150000Y-76270000D02*
X130390000Y-76270000D01*
X123800000Y-65448529D02*
X123800000Y-60490000D01*
X126208428Y-78660000D02*
X123825000Y-76276571D01*
X128000000Y-78660000D02*
X126208428Y-78660000D01*
X123825000Y-65473529D02*
X123800000Y-65448529D01*
X130390000Y-76270000D02*
X128000000Y-78660000D01*
%TO.N,Net-(IC1-IO34)*%
X132150000Y-73730000D02*
X128150000Y-73730000D01*
X128150000Y-73730000D02*
X128000000Y-73580000D01*
%TD*%
%TA.AperFunction,Conductor*%
%TO.N,+3.3V*%
G36*
X155868716Y-71233797D02*
G01*
X155913063Y-71262298D01*
X156015139Y-71364374D01*
X156015149Y-71364385D01*
X156019479Y-71368715D01*
X156019480Y-71368716D01*
X156131284Y-71480520D01*
X156131286Y-71480521D01*
X156131290Y-71480524D01*
X156240882Y-71543796D01*
X156268216Y-71559577D01*
X156367172Y-71586092D01*
X156420942Y-71600500D01*
X156420943Y-71600500D01*
X158199903Y-71600500D01*
X158266942Y-71620185D01*
X158287584Y-71636819D01*
X159515139Y-72864374D01*
X159515149Y-72864385D01*
X159519479Y-72868715D01*
X159519480Y-72868716D01*
X159631284Y-72980520D01*
X159631286Y-72980521D01*
X159631290Y-72980524D01*
X159768209Y-73059573D01*
X159768216Y-73059577D01*
X159880019Y-73089534D01*
X159920942Y-73100500D01*
X159920943Y-73100500D01*
X164913331Y-73100500D01*
X164913347Y-73100501D01*
X164920943Y-73100501D01*
X165079054Y-73100501D01*
X165079057Y-73100501D01*
X165231785Y-73059577D01*
X165281900Y-73030640D01*
X165281904Y-73030640D01*
X165281904Y-73030639D01*
X165306200Y-73016611D01*
X165368199Y-73000000D01*
X166376000Y-73000000D01*
X166443039Y-73019685D01*
X166488794Y-73072489D01*
X166500000Y-73124000D01*
X166500000Y-81602719D01*
X166480315Y-81669758D01*
X166427511Y-81715513D01*
X166358353Y-81725457D01*
X166294797Y-81696432D01*
X166270462Y-81667816D01*
X166217319Y-81581659D01*
X166217316Y-81581655D01*
X166093345Y-81457684D01*
X165944124Y-81365643D01*
X165944119Y-81365641D01*
X165777697Y-81310494D01*
X165777690Y-81310493D01*
X165674986Y-81300000D01*
X165650000Y-81300000D01*
X165650000Y-83599999D01*
X165674972Y-83599999D01*
X165674986Y-83599998D01*
X165784431Y-83588818D01*
X165784648Y-83590947D01*
X165844181Y-83595402D01*
X165899977Y-83637457D01*
X165924178Y-83703001D01*
X165920241Y-83743534D01*
X165899499Y-83820943D01*
X165899499Y-83989046D01*
X165899500Y-83989059D01*
X165899500Y-84285120D01*
X165879815Y-84352159D01*
X165827011Y-84397914D01*
X165762898Y-84408478D01*
X165675011Y-84399500D01*
X164324998Y-84399500D01*
X164324981Y-84399501D01*
X164222203Y-84410000D01*
X164222200Y-84410001D01*
X164055668Y-84465185D01*
X164055663Y-84465187D01*
X163906342Y-84557289D01*
X163782289Y-84681342D01*
X163690187Y-84830663D01*
X163690186Y-84830666D01*
X163635001Y-84997203D01*
X163635001Y-84997204D01*
X163635000Y-84997204D01*
X163624500Y-85099983D01*
X163624500Y-86000001D01*
X163624501Y-86000019D01*
X163635000Y-86102796D01*
X163635001Y-86102799D01*
X163667214Y-86200009D01*
X163690186Y-86269334D01*
X163782288Y-86418656D01*
X163906344Y-86542712D01*
X164055666Y-86634814D01*
X164222203Y-86689999D01*
X164288103Y-86696731D01*
X164352794Y-86723127D01*
X164392945Y-86780307D01*
X164399500Y-86820089D01*
X164399500Y-87117587D01*
X164379815Y-87184626D01*
X164372450Y-87194896D01*
X164370186Y-87197734D01*
X164274211Y-87350476D01*
X164214631Y-87520745D01*
X164214630Y-87520750D01*
X164194435Y-87699996D01*
X164194435Y-87699998D01*
X164195744Y-87711614D01*
X164183691Y-87780436D01*
X164136343Y-87831816D01*
X164072524Y-87849500D01*
X163320808Y-87849500D01*
X163253769Y-87829815D01*
X163233127Y-87813181D01*
X162486819Y-87066873D01*
X162453334Y-87005550D01*
X162450500Y-86979192D01*
X162450500Y-84192537D01*
X162470185Y-84125498D01*
X162519402Y-84081450D01*
X162649296Y-84017030D01*
X162797722Y-83897722D01*
X162917030Y-83749296D01*
X163001641Y-83578693D01*
X163047600Y-83393889D01*
X163050500Y-83351123D01*
X163050500Y-83100000D01*
X163667737Y-83100000D01*
X163690641Y-83169120D01*
X163782684Y-83318345D01*
X163906654Y-83442315D01*
X164055875Y-83534356D01*
X164055880Y-83534358D01*
X164222302Y-83589505D01*
X164222309Y-83589506D01*
X164325019Y-83599999D01*
X164350000Y-83599998D01*
X164350000Y-83100000D01*
X163667737Y-83100000D01*
X163050500Y-83100000D01*
X163050499Y-81948878D01*
X163047600Y-81906111D01*
X163021211Y-81800000D01*
X163667737Y-81800000D01*
X164350000Y-81800000D01*
X164350000Y-81299999D01*
X164325029Y-81300000D01*
X164325010Y-81300001D01*
X164222302Y-81310494D01*
X164055880Y-81365641D01*
X164055875Y-81365643D01*
X163906654Y-81457684D01*
X163782684Y-81581654D01*
X163690641Y-81730879D01*
X163667737Y-81800000D01*
X163021211Y-81800000D01*
X163001641Y-81721307D01*
X162942827Y-81602719D01*
X162917032Y-81550707D01*
X162917030Y-81550704D01*
X162797722Y-81402278D01*
X162797721Y-81402277D01*
X162649295Y-81282969D01*
X162649292Y-81282967D01*
X162478697Y-81198360D01*
X162293892Y-81152400D01*
X162272506Y-81150950D01*
X162251123Y-81149500D01*
X162251120Y-81149500D01*
X161348877Y-81149500D01*
X161348874Y-81149501D01*
X161306113Y-81152399D01*
X161306112Y-81152399D01*
X161121303Y-81198360D01*
X160950707Y-81282967D01*
X160950704Y-81282969D01*
X160802280Y-81402276D01*
X160802278Y-81402278D01*
X160774625Y-81436678D01*
X160746326Y-81471885D01*
X160688982Y-81511803D01*
X160619160Y-81514383D01*
X160559027Y-81478804D01*
X160553031Y-81471884D01*
X160497364Y-81402630D01*
X160349025Y-81283392D01*
X160250000Y-81234280D01*
X160250000Y-84057000D01*
X160267580Y-84057000D01*
X160349027Y-84016606D01*
X160497366Y-83897367D01*
X160497367Y-83897366D01*
X160553033Y-83828115D01*
X160610376Y-83788196D01*
X160680198Y-83785616D01*
X160740331Y-83821194D01*
X160746305Y-83828089D01*
X160802278Y-83897722D01*
X160839535Y-83927670D01*
X160879453Y-83985012D01*
X160882033Y-84054834D01*
X160846455Y-84114967D01*
X160784014Y-84146319D01*
X160725711Y-84142223D01*
X160725000Y-84142737D01*
X160725000Y-86857262D01*
X160794118Y-86834359D01*
X160943342Y-86742317D01*
X160948586Y-86738171D01*
X161013380Y-86712029D01*
X161082023Y-86725067D01*
X161132720Y-86773146D01*
X161149500Y-86835435D01*
X161149500Y-87364069D01*
X161149500Y-87364071D01*
X161149499Y-87364071D01*
X161174497Y-87489738D01*
X161174499Y-87489744D01*
X161223535Y-87608127D01*
X161284922Y-87700000D01*
X161294726Y-87714673D01*
X161294727Y-87714674D01*
X162064319Y-88484265D01*
X162097804Y-88545588D01*
X162092820Y-88615279D01*
X162050948Y-88671213D01*
X161985484Y-88695630D01*
X161976638Y-88695946D01*
X157916322Y-88695946D01*
X157849283Y-88676261D01*
X157803528Y-88623457D01*
X157793102Y-88585829D01*
X157785369Y-88517196D01*
X157785368Y-88517194D01*
X157785368Y-88517191D01*
X157725789Y-88346924D01*
X157629816Y-88194184D01*
X157574319Y-88138687D01*
X157540834Y-88077364D01*
X157538000Y-88051006D01*
X157538000Y-86967874D01*
X157557685Y-86900835D01*
X157610489Y-86855080D01*
X157622988Y-86850170D01*
X157669334Y-86834814D01*
X157818656Y-86742712D01*
X157942712Y-86618656D01*
X158034814Y-86469334D01*
X158089999Y-86302797D01*
X158100500Y-86200009D01*
X158100500Y-86162500D01*
X158900001Y-86162500D01*
X158900001Y-86199986D01*
X158910494Y-86302697D01*
X158965641Y-86469119D01*
X158965643Y-86469124D01*
X159057684Y-86618345D01*
X159181654Y-86742315D01*
X159330881Y-86834359D01*
X159399999Y-86857262D01*
X159400000Y-86857262D01*
X159400000Y-86162500D01*
X158900001Y-86162500D01*
X158100500Y-86162500D01*
X158100499Y-84837500D01*
X158900000Y-84837500D01*
X159400000Y-84837500D01*
X159400000Y-84193000D01*
X159286524Y-84193000D01*
X159181654Y-84257684D01*
X159057684Y-84381654D01*
X158965643Y-84530875D01*
X158965641Y-84530880D01*
X158910494Y-84697302D01*
X158910493Y-84697309D01*
X158900000Y-84800013D01*
X158900000Y-84837500D01*
X158100499Y-84837500D01*
X158100499Y-84799992D01*
X158089999Y-84697203D01*
X158034814Y-84530666D01*
X157942712Y-84381344D01*
X157856582Y-84295214D01*
X157823097Y-84233891D01*
X157828081Y-84164199D01*
X157869953Y-84108266D01*
X157889157Y-84096451D01*
X158049296Y-84017030D01*
X158197722Y-83897722D01*
X158253675Y-83828112D01*
X158311015Y-83788196D01*
X158380837Y-83785616D01*
X158440970Y-83821194D01*
X158446967Y-83828115D01*
X158502632Y-83897366D01*
X158502633Y-83897367D01*
X158650972Y-84016606D01*
X158750000Y-84065719D01*
X158750000Y-81234280D01*
X158650974Y-81283392D01*
X158502635Y-81402631D01*
X158446967Y-81471885D01*
X158389624Y-81511803D01*
X158319801Y-81514383D01*
X158259669Y-81478804D01*
X158253673Y-81471884D01*
X158197722Y-81402278D01*
X158197721Y-81402277D01*
X158049295Y-81282969D01*
X158049292Y-81282967D01*
X157878697Y-81198360D01*
X157693892Y-81152400D01*
X157672506Y-81150950D01*
X157651123Y-81149500D01*
X157651120Y-81149500D01*
X156748877Y-81149500D01*
X156748874Y-81149501D01*
X156706113Y-81152399D01*
X156706112Y-81152399D01*
X156521303Y-81198360D01*
X156350707Y-81282967D01*
X156350704Y-81282969D01*
X156202278Y-81402277D01*
X156202277Y-81402278D01*
X156082969Y-81550704D01*
X156082967Y-81550707D01*
X155998360Y-81721302D01*
X155952400Y-81906107D01*
X155949500Y-81948879D01*
X155949500Y-83351122D01*
X155949501Y-83351125D01*
X155952399Y-83393886D01*
X155952399Y-83393887D01*
X155998360Y-83578696D01*
X156082967Y-83749292D01*
X156082969Y-83749295D01*
X156202275Y-83897719D01*
X156202276Y-83897720D01*
X156202278Y-83897722D01*
X156261346Y-83945202D01*
X156301264Y-84002544D01*
X156303844Y-84072366D01*
X156268266Y-84132499D01*
X156222664Y-84159553D01*
X156205672Y-84165183D01*
X156205663Y-84165187D01*
X156056342Y-84257289D01*
X155932289Y-84381342D01*
X155840187Y-84530663D01*
X155837136Y-84537209D01*
X155834357Y-84535913D01*
X155802415Y-84582031D01*
X155737894Y-84608841D01*
X155669121Y-84596513D01*
X155617930Y-84548961D01*
X155600500Y-84485567D01*
X155600500Y-82540945D01*
X155600500Y-82540943D01*
X155559577Y-82388216D01*
X155538391Y-82351522D01*
X155516612Y-82313797D01*
X155500000Y-82251798D01*
X155500000Y-77350000D01*
X157232969Y-77350000D01*
X157260722Y-77403131D01*
X157389246Y-77560753D01*
X157546870Y-77689278D01*
X157727138Y-77783442D01*
X157922671Y-77839390D01*
X157922674Y-77839391D01*
X158041999Y-77849999D01*
X158042002Y-77850000D01*
X158500000Y-77850000D01*
X158500000Y-77350000D01*
X160500000Y-77350000D01*
X160500000Y-77850000D01*
X160957998Y-77850000D01*
X160958000Y-77849999D01*
X161077325Y-77839391D01*
X161077328Y-77839390D01*
X161272861Y-77783442D01*
X161453129Y-77689278D01*
X161610753Y-77560753D01*
X161739277Y-77403131D01*
X161767031Y-77350000D01*
X160500000Y-77350000D01*
X158500000Y-77350000D01*
X157232969Y-77350000D01*
X155500000Y-77350000D01*
X155500000Y-75350000D01*
X157232969Y-75350000D01*
X158500000Y-75350000D01*
X158500000Y-74850000D01*
X160500000Y-74850000D01*
X160500000Y-75350000D01*
X161767031Y-75350000D01*
X161767030Y-75349999D01*
X161739277Y-75296868D01*
X161610753Y-75139246D01*
X161453129Y-75010721D01*
X161272861Y-74916557D01*
X161077328Y-74860609D01*
X161077325Y-74860608D01*
X160958000Y-74850000D01*
X160500000Y-74850000D01*
X158500000Y-74850000D01*
X158041999Y-74850000D01*
X157922674Y-74860608D01*
X157922671Y-74860609D01*
X157727138Y-74916557D01*
X157546870Y-75010721D01*
X157389246Y-75139246D01*
X157260722Y-75296868D01*
X157232969Y-75349999D01*
X157232969Y-75350000D01*
X155500000Y-75350000D01*
X155500000Y-71551361D01*
X155519685Y-71484322D01*
X155536314Y-71463685D01*
X155737703Y-71262296D01*
X155799024Y-71228813D01*
X155868716Y-71233797D01*
G37*
%TD.AperFunction*%
%TD*%
%TA.AperFunction,Conductor*%
%TO.N,GND*%
G36*
X172442539Y-59020185D02*
G01*
X172488294Y-59072989D01*
X172499500Y-59124500D01*
X172499500Y-73550957D01*
X172479815Y-73617996D01*
X172427011Y-73663751D01*
X172357853Y-73673695D01*
X172294297Y-73644670D01*
X172269961Y-73616054D01*
X172269449Y-73615224D01*
X172217712Y-73531344D01*
X172093656Y-73407288D01*
X171992936Y-73345164D01*
X171944336Y-73315187D01*
X171944331Y-73315185D01*
X171942862Y-73314698D01*
X171777797Y-73260001D01*
X171777794Y-73260000D01*
X171711897Y-73253268D01*
X171647205Y-73226871D01*
X171607054Y-73169690D01*
X171600500Y-73129910D01*
X171600500Y-71839060D01*
X171600501Y-71839047D01*
X171600501Y-71670944D01*
X171600501Y-71670943D01*
X171559577Y-71518216D01*
X171559573Y-71518209D01*
X171480524Y-71381290D01*
X171480518Y-71381282D01*
X169918838Y-69819602D01*
X168309280Y-68210045D01*
X168275796Y-68148723D01*
X168277188Y-68090270D01*
X168290486Y-68040643D01*
X168296092Y-68019720D01*
X168315315Y-67800000D01*
X168296092Y-67580280D01*
X168239007Y-67367237D01*
X168145795Y-67167343D01*
X168019288Y-66986671D01*
X168019286Y-66986668D01*
X167863330Y-66830712D01*
X167682662Y-66704207D01*
X167682654Y-66704203D01*
X167482769Y-66610995D01*
X167482755Y-66610990D01*
X167269724Y-66553909D01*
X167269722Y-66553908D01*
X167269720Y-66553908D01*
X167269718Y-66553907D01*
X167269714Y-66553907D01*
X167050002Y-66534685D01*
X167049998Y-66534685D01*
X166830285Y-66553907D01*
X166830271Y-66553910D01*
X166759726Y-66572812D01*
X166689877Y-66571149D01*
X166639953Y-66540718D01*
X165709456Y-65610221D01*
X169099500Y-65610221D01*
X169133985Y-65827952D01*
X169202103Y-66037603D01*
X169202104Y-66037606D01*
X169270122Y-66171096D01*
X169282507Y-66195403D01*
X169302187Y-66234025D01*
X169431752Y-66412358D01*
X169431756Y-66412363D01*
X169587636Y-66568243D01*
X169587641Y-66568247D01*
X169743192Y-66681260D01*
X169765978Y-66697815D01*
X169894375Y-66763237D01*
X169962393Y-66797895D01*
X169962396Y-66797896D01*
X170067221Y-66831955D01*
X170172049Y-66866015D01*
X170389778Y-66900500D01*
X170389779Y-66900500D01*
X170610221Y-66900500D01*
X170610222Y-66900500D01*
X170827951Y-66866015D01*
X171037606Y-66797895D01*
X171234022Y-66697815D01*
X171412365Y-66568242D01*
X171568242Y-66412365D01*
X171697815Y-66234022D01*
X171797895Y-66037606D01*
X171866015Y-65827951D01*
X171900500Y-65610222D01*
X171900500Y-65389778D01*
X171866015Y-65172049D01*
X171816443Y-65019480D01*
X171797896Y-64962396D01*
X171797895Y-64962393D01*
X171763237Y-64894375D01*
X171697815Y-64765978D01*
X171626689Y-64668081D01*
X171568247Y-64587641D01*
X171568243Y-64587636D01*
X171412363Y-64431756D01*
X171412358Y-64431752D01*
X171234025Y-64302187D01*
X171234024Y-64302186D01*
X171234022Y-64302185D01*
X171171096Y-64270122D01*
X171037606Y-64202104D01*
X171037603Y-64202103D01*
X170827952Y-64133985D01*
X170622325Y-64101417D01*
X170610222Y-64099500D01*
X170389778Y-64099500D01*
X170377675Y-64101417D01*
X170172047Y-64133985D01*
X169962396Y-64202103D01*
X169962393Y-64202104D01*
X169765974Y-64302187D01*
X169587641Y-64431752D01*
X169587636Y-64431756D01*
X169431756Y-64587636D01*
X169431752Y-64587641D01*
X169302187Y-64765974D01*
X169202104Y-64962393D01*
X169202103Y-64962396D01*
X169133985Y-65172047D01*
X169099500Y-65389778D01*
X169099500Y-65610221D01*
X165709456Y-65610221D01*
X160537590Y-60438355D01*
X160537588Y-60438352D01*
X160418717Y-60319481D01*
X160418716Y-60319480D01*
X160312601Y-60258215D01*
X160312600Y-60258214D01*
X160281783Y-60240422D01*
X160225881Y-60225443D01*
X160129057Y-60199499D01*
X159970943Y-60199499D01*
X159963347Y-60199499D01*
X159963331Y-60199500D01*
X154789091Y-60199500D01*
X154722052Y-60179815D01*
X154676711Y-60127909D01*
X154674037Y-60122175D01*
X154674034Y-60122170D01*
X154674033Y-60122169D01*
X154544680Y-59937432D01*
X154538494Y-59928597D01*
X154371402Y-59761506D01*
X154371395Y-59761501D01*
X154177834Y-59625967D01*
X154177830Y-59625965D01*
X154120602Y-59599279D01*
X153963663Y-59526097D01*
X153963659Y-59526096D01*
X153963655Y-59526094D01*
X153735413Y-59464938D01*
X153735403Y-59464936D01*
X153500001Y-59444341D01*
X153499999Y-59444341D01*
X153264596Y-59464936D01*
X153264586Y-59464938D01*
X153036344Y-59526094D01*
X153036335Y-59526098D01*
X152822171Y-59625964D01*
X152822169Y-59625965D01*
X152628597Y-59761505D01*
X152461505Y-59928597D01*
X152325965Y-60122169D01*
X152325964Y-60122171D01*
X152226098Y-60336335D01*
X152226094Y-60336344D01*
X152164938Y-60564586D01*
X152164936Y-60564596D01*
X152144341Y-60799999D01*
X152144341Y-60800000D01*
X152164936Y-61035403D01*
X152164938Y-61035413D01*
X152199327Y-61163756D01*
X152197664Y-61233606D01*
X152167233Y-61283530D01*
X150631286Y-62819478D01*
X150519481Y-62931282D01*
X150519479Y-62931284D01*
X150499861Y-62965266D01*
X150489871Y-62982569D01*
X150440423Y-63068215D01*
X150399499Y-63220943D01*
X150399499Y-63220945D01*
X150399499Y-63389046D01*
X150399500Y-63389059D01*
X150399500Y-66306000D01*
X150379815Y-66373039D01*
X150327011Y-66418794D01*
X150275500Y-66430000D01*
X150100000Y-66430000D01*
X150100000Y-67575500D01*
X150080315Y-67642539D01*
X150027511Y-67688294D01*
X149976000Y-67699500D01*
X148852129Y-67699500D01*
X148852123Y-67699501D01*
X148792516Y-67705908D01*
X148657671Y-67756202D01*
X148657668Y-67756204D01*
X148592129Y-67805267D01*
X148526664Y-67829684D01*
X148517818Y-67830000D01*
X148400000Y-67830000D01*
X148400000Y-67877844D01*
X148406401Y-67937372D01*
X148406403Y-67937379D01*
X148418925Y-67970952D01*
X148423909Y-68040643D01*
X148418925Y-68057617D01*
X148405909Y-68092514D01*
X148405908Y-68092516D01*
X148399501Y-68152116D01*
X148399500Y-68152135D01*
X148399500Y-68926937D01*
X148379815Y-68993976D01*
X148327011Y-69039731D01*
X148257853Y-69049675D01*
X148234547Y-69043979D01*
X148179249Y-69024630D01*
X148179252Y-69024630D01*
X148092330Y-69014837D01*
X148027916Y-68987770D01*
X148018533Y-68979298D01*
X147327590Y-68288355D01*
X147327588Y-68288352D01*
X147208717Y-68169481D01*
X147208716Y-68169480D01*
X147121904Y-68119360D01*
X147121904Y-68119359D01*
X147121900Y-68119358D01*
X147071785Y-68090423D01*
X146919057Y-68049499D01*
X146760943Y-68049499D01*
X146753347Y-68049499D01*
X146753331Y-68049500D01*
X133519589Y-68049500D01*
X133452550Y-68029815D01*
X133406795Y-67977011D01*
X133396300Y-67912242D01*
X133399999Y-67877839D01*
X133400000Y-67877827D01*
X133400000Y-67830000D01*
X133282182Y-67830000D01*
X133215143Y-67810315D01*
X133207871Y-67805267D01*
X133142331Y-67756204D01*
X133142328Y-67756202D01*
X133007482Y-67705908D01*
X133007483Y-67705908D01*
X132947883Y-67699501D01*
X132947881Y-67699500D01*
X132947873Y-67699500D01*
X132947865Y-67699500D01*
X131824000Y-67699500D01*
X131756961Y-67679815D01*
X131711206Y-67627011D01*
X131700000Y-67575500D01*
X131700000Y-66430000D01*
X132600000Y-66430000D01*
X132600000Y-66930000D01*
X133400000Y-66930000D01*
X148400000Y-66930000D01*
X149200000Y-66930000D01*
X149200000Y-66430000D01*
X148852155Y-66430000D01*
X148792627Y-66436401D01*
X148792620Y-66436403D01*
X148657913Y-66486645D01*
X148657906Y-66486649D01*
X148542812Y-66572809D01*
X148542809Y-66572812D01*
X148456649Y-66687906D01*
X148456645Y-66687913D01*
X148406403Y-66822620D01*
X148406401Y-66822627D01*
X148400000Y-66882155D01*
X148400000Y-66930000D01*
X133400000Y-66930000D01*
X133400000Y-66882172D01*
X133399999Y-66882155D01*
X133393598Y-66822627D01*
X133393596Y-66822620D01*
X133343354Y-66687913D01*
X133343350Y-66687906D01*
X133257190Y-66572812D01*
X133257187Y-66572809D01*
X133142093Y-66486649D01*
X133142086Y-66486645D01*
X133007379Y-66436403D01*
X133007372Y-66436401D01*
X132947844Y-66430000D01*
X132600000Y-66430000D01*
X131700000Y-66430000D01*
X131352155Y-66430000D01*
X131292627Y-66436401D01*
X131292620Y-66436403D01*
X131157913Y-66486645D01*
X131157906Y-66486649D01*
X131042812Y-66572809D01*
X131042809Y-66572812D01*
X130956649Y-66687906D01*
X130956645Y-66687913D01*
X130906403Y-66822620D01*
X130906401Y-66822627D01*
X130900000Y-66882155D01*
X130900000Y-67201402D01*
X130880315Y-67268441D01*
X130827511Y-67314196D01*
X130758353Y-67324140D01*
X130694797Y-67295115D01*
X130688319Y-67289083D01*
X129786819Y-66387583D01*
X129753334Y-66326260D01*
X129750500Y-66299902D01*
X129750500Y-64659060D01*
X129750501Y-64659047D01*
X129750501Y-64490944D01*
X129750501Y-64490943D01*
X129709577Y-64338216D01*
X129682739Y-64291730D01*
X129630524Y-64201290D01*
X129630518Y-64201282D01*
X129332766Y-63903530D01*
X129299281Y-63842207D01*
X129300672Y-63783755D01*
X129335063Y-63655408D01*
X129355659Y-63420000D01*
X129335063Y-63184592D01*
X129280932Y-62982569D01*
X129273905Y-62956344D01*
X129273904Y-62956343D01*
X129273903Y-62956337D01*
X129174035Y-62742171D01*
X129135977Y-62687819D01*
X129038496Y-62548600D01*
X128989892Y-62499996D01*
X128916179Y-62426283D01*
X128882696Y-62364963D01*
X128887680Y-62295271D01*
X128929551Y-62239337D01*
X128960529Y-62222422D01*
X129092086Y-62173354D01*
X129092093Y-62173350D01*
X129207187Y-62087190D01*
X129207190Y-62087187D01*
X129293350Y-61972093D01*
X129293354Y-61972086D01*
X129343596Y-61837379D01*
X129343598Y-61837372D01*
X129349999Y-61777844D01*
X129350000Y-61777827D01*
X129350000Y-61480000D01*
X126650000Y-61480000D01*
X126650000Y-61777844D01*
X126656401Y-61837372D01*
X126656403Y-61837379D01*
X126706911Y-61972799D01*
X126711895Y-62042491D01*
X126678410Y-62103814D01*
X126617086Y-62137298D01*
X126547395Y-62132314D01*
X126503048Y-62103813D01*
X126287109Y-61887874D01*
X126253624Y-61826551D01*
X126258608Y-61756859D01*
X126269248Y-61735101D01*
X126309814Y-61669334D01*
X126364999Y-61502797D01*
X126375500Y-61400009D01*
X126375499Y-60945826D01*
X127500000Y-60945826D01*
X127534075Y-61072993D01*
X127599901Y-61187007D01*
X127692993Y-61280099D01*
X127807007Y-61345925D01*
X127934174Y-61380000D01*
X128065826Y-61380000D01*
X128192993Y-61345925D01*
X128307007Y-61280099D01*
X128400099Y-61187007D01*
X128465925Y-61072993D01*
X128500000Y-60945826D01*
X128500000Y-60814174D01*
X128465925Y-60687007D01*
X128400099Y-60572993D01*
X128307007Y-60479901D01*
X128192993Y-60414075D01*
X128065826Y-60380000D01*
X127934174Y-60380000D01*
X127807007Y-60414075D01*
X127692993Y-60479901D01*
X127599901Y-60572993D01*
X127534075Y-60687007D01*
X127500000Y-60814174D01*
X127500000Y-60945826D01*
X126375499Y-60945826D01*
X126375499Y-60499992D01*
X126369202Y-60438352D01*
X126364999Y-60397203D01*
X126364998Y-60397200D01*
X126341761Y-60327076D01*
X126326162Y-60280000D01*
X126650000Y-60280000D01*
X127400000Y-60280000D01*
X127400000Y-59530000D01*
X128600000Y-59530000D01*
X128600000Y-60280000D01*
X129350000Y-60280000D01*
X129350000Y-59982172D01*
X129349999Y-59982155D01*
X129343598Y-59922627D01*
X129343596Y-59922620D01*
X129331430Y-59890000D01*
X131900000Y-59890000D01*
X131900000Y-66080000D01*
X149900000Y-66080000D01*
X149900000Y-59890000D01*
X131900000Y-59890000D01*
X129331430Y-59890000D01*
X129293354Y-59787913D01*
X129293350Y-59787906D01*
X129207190Y-59672812D01*
X129207187Y-59672809D01*
X129092093Y-59586649D01*
X129092086Y-59586645D01*
X128957379Y-59536403D01*
X128957372Y-59536401D01*
X128897844Y-59530000D01*
X128600000Y-59530000D01*
X127400000Y-59530000D01*
X127102155Y-59530000D01*
X127042627Y-59536401D01*
X127042620Y-59536403D01*
X126907913Y-59586645D01*
X126907906Y-59586649D01*
X126792812Y-59672809D01*
X126792809Y-59672812D01*
X126706649Y-59787906D01*
X126706645Y-59787913D01*
X126656403Y-59922620D01*
X126656401Y-59922627D01*
X126650000Y-59982155D01*
X126650000Y-60280000D01*
X126326162Y-60280000D01*
X126309814Y-60230666D01*
X126217712Y-60081344D01*
X126093656Y-59957288D01*
X125944334Y-59865186D01*
X125777797Y-59810001D01*
X125777795Y-59810000D01*
X125675010Y-59799500D01*
X124324998Y-59799500D01*
X124324981Y-59799501D01*
X124222203Y-59810000D01*
X124222200Y-59810001D01*
X124104800Y-59848904D01*
X124034971Y-59851306D01*
X123978115Y-59818879D01*
X123868717Y-59709481D01*
X123868709Y-59709475D01*
X123745143Y-59638135D01*
X123745140Y-59638134D01*
X123745131Y-59638129D01*
X123731785Y-59630423D01*
X123579057Y-59589499D01*
X123420943Y-59589499D01*
X123413347Y-59589499D01*
X123413331Y-59589500D01*
X122295808Y-59589500D01*
X122228769Y-59569815D01*
X122208126Y-59553180D01*
X122176870Y-59521923D01*
X122176862Y-59521917D01*
X122035396Y-59438255D01*
X122035393Y-59438254D01*
X121877573Y-59392402D01*
X121877567Y-59392401D01*
X121840701Y-59389500D01*
X121840694Y-59389500D01*
X120059306Y-59389500D01*
X120059298Y-59389500D01*
X120022432Y-59392401D01*
X120022426Y-59392402D01*
X119864606Y-59438254D01*
X119864603Y-59438255D01*
X119723137Y-59521917D01*
X119723129Y-59521923D01*
X119606923Y-59638129D01*
X119606919Y-59638135D01*
X119523254Y-59779604D01*
X119477402Y-59937426D01*
X119477401Y-59937432D01*
X119474500Y-59974298D01*
X119474500Y-60405701D01*
X119477401Y-60442567D01*
X119477402Y-60442573D01*
X119523254Y-60600393D01*
X119523255Y-60600396D01*
X119606917Y-60741862D01*
X119611702Y-60748031D01*
X119609369Y-60749840D01*
X119636210Y-60798995D01*
X119631226Y-60868687D01*
X119610470Y-60901021D01*
X119612097Y-60902283D01*
X119607313Y-60908449D01*
X119523718Y-61049801D01*
X119491704Y-61160000D01*
X122408296Y-61160000D01*
X122376281Y-61049801D01*
X122333594Y-60977621D01*
X122316411Y-60909897D01*
X122338571Y-60843635D01*
X122393037Y-60799871D01*
X122440326Y-60790500D01*
X123075500Y-60790500D01*
X123142539Y-60810185D01*
X123188294Y-60862989D01*
X123199500Y-60914500D01*
X123199500Y-62665904D01*
X123179815Y-62732943D01*
X123127011Y-62778698D01*
X123057853Y-62788642D01*
X122994297Y-62759617D01*
X122987819Y-62753585D01*
X122412589Y-62178355D01*
X122412587Y-62178352D01*
X122343269Y-62109034D01*
X122309784Y-62047711D01*
X122314768Y-61978019D01*
X122324218Y-61958231D01*
X122376282Y-61870196D01*
X122408296Y-61760000D01*
X119491704Y-61760000D01*
X119523718Y-61870198D01*
X119607314Y-62011552D01*
X119612100Y-62017722D01*
X119609640Y-62019629D01*
X119636210Y-62068288D01*
X119631226Y-62137980D01*
X119610162Y-62170781D01*
X119611699Y-62171974D01*
X119606915Y-62178140D01*
X119523255Y-62319603D01*
X119523254Y-62319606D01*
X119477402Y-62477426D01*
X119477401Y-62477432D01*
X119474500Y-62514298D01*
X119474500Y-62945701D01*
X119477401Y-62982567D01*
X119477402Y-62982570D01*
X119523254Y-63140393D01*
X119523255Y-63140396D01*
X119606917Y-63281862D01*
X119611702Y-63288031D01*
X119609256Y-63289927D01*
X119635857Y-63338642D01*
X119630873Y-63408334D01*
X119610069Y-63440703D01*
X119611702Y-63441969D01*
X119606917Y-63448137D01*
X119523255Y-63589603D01*
X119523254Y-63589606D01*
X119477402Y-63747426D01*
X119477401Y-63747432D01*
X119474500Y-63784298D01*
X119474500Y-64215701D01*
X119477401Y-64252567D01*
X119477402Y-64252573D01*
X119523254Y-64410393D01*
X119523255Y-64410396D01*
X119606917Y-64551862D01*
X119606923Y-64551870D01*
X119723129Y-64668076D01*
X119723133Y-64668079D01*
X119723135Y-64668081D01*
X119864602Y-64751744D01*
X119906224Y-64763836D01*
X120022426Y-64797597D01*
X120022429Y-64797597D01*
X120022431Y-64797598D01*
X120059306Y-64800500D01*
X120059314Y-64800500D01*
X121840686Y-64800500D01*
X121840694Y-64800500D01*
X121877569Y-64797598D01*
X121877571Y-64797597D01*
X121877573Y-64797597D01*
X121919191Y-64785505D01*
X122035398Y-64751744D01*
X122176865Y-64668081D01*
X122293081Y-64551865D01*
X122376744Y-64410398D01*
X122422598Y-64252569D01*
X122425500Y-64215694D01*
X122425500Y-64189098D01*
X122445185Y-64122059D01*
X122497989Y-64076304D01*
X122567147Y-64066360D01*
X122630703Y-64095385D01*
X122637181Y-64101417D01*
X122763181Y-64227417D01*
X122796666Y-64288740D01*
X122799500Y-64315098D01*
X122799500Y-66780362D01*
X122779815Y-66847401D01*
X122727011Y-66893156D01*
X122661619Y-66903583D01*
X122650362Y-66902314D01*
X122630881Y-66900120D01*
X122630879Y-66900120D01*
X122630878Y-66900120D01*
X122630877Y-66900120D01*
X122451631Y-66920315D01*
X122451618Y-66920318D01*
X122281359Y-66979895D01*
X122272375Y-66985540D01*
X122205137Y-67004537D01*
X122143287Y-66987276D01*
X122060398Y-66938256D01*
X122060397Y-66938255D01*
X122060396Y-66938255D01*
X122060393Y-66938254D01*
X121902573Y-66892402D01*
X121902567Y-66892401D01*
X121865701Y-66889500D01*
X121865694Y-66889500D01*
X120084306Y-66889500D01*
X120084298Y-66889500D01*
X120047432Y-66892401D01*
X120047426Y-66892402D01*
X119889606Y-66938254D01*
X119889603Y-66938255D01*
X119748137Y-67021917D01*
X119748129Y-67021923D01*
X119631923Y-67138129D01*
X119631917Y-67138137D01*
X119548255Y-67279603D01*
X119548254Y-67279606D01*
X119502402Y-67437426D01*
X119502401Y-67437432D01*
X119499500Y-67474298D01*
X119499500Y-67905701D01*
X119502401Y-67942567D01*
X119502402Y-67942573D01*
X119548254Y-68100393D01*
X119548255Y-68100396D01*
X119548256Y-68100398D01*
X119559470Y-68119360D01*
X119631917Y-68241862D01*
X119636702Y-68248031D01*
X119634369Y-68249840D01*
X119661210Y-68298995D01*
X119656226Y-68368687D01*
X119635470Y-68401021D01*
X119637097Y-68402283D01*
X119632313Y-68408449D01*
X119548718Y-68549801D01*
X119516704Y-68660000D01*
X122433297Y-68660000D01*
X122433839Y-68659277D01*
X122434031Y-68591975D01*
X122471973Y-68533305D01*
X122535611Y-68504461D01*
X122566792Y-68504029D01*
X122630878Y-68511250D01*
X122630881Y-68511250D01*
X122630882Y-68511250D01*
X122644609Y-68509703D01*
X122686616Y-68504970D01*
X122755437Y-68517024D01*
X122806817Y-68564373D01*
X122824500Y-68628190D01*
X122824500Y-71083677D01*
X122804815Y-71150716D01*
X122752011Y-71196471D01*
X122714384Y-71206897D01*
X122645748Y-71214630D01*
X122580752Y-71237373D01*
X122510973Y-71240934D01*
X122450346Y-71206204D01*
X122420723Y-71154926D01*
X122401745Y-71089606D01*
X122401744Y-71089603D01*
X122401744Y-71089602D01*
X122318081Y-70948135D01*
X122318078Y-70948132D01*
X122313298Y-70941969D01*
X122315750Y-70940066D01*
X122289155Y-70891421D01*
X122294104Y-70821726D01*
X122314940Y-70789304D01*
X122313298Y-70788031D01*
X122318075Y-70781870D01*
X122318081Y-70781865D01*
X122401744Y-70640398D01*
X122438555Y-70513694D01*
X122447597Y-70482573D01*
X122447598Y-70482567D01*
X122447998Y-70477481D01*
X122450500Y-70445694D01*
X122450500Y-70014306D01*
X122447598Y-69977431D01*
X122431106Y-69920667D01*
X122401745Y-69819606D01*
X122401744Y-69819603D01*
X122401744Y-69819602D01*
X122318081Y-69678135D01*
X122318078Y-69678132D01*
X122313298Y-69671969D01*
X122315635Y-69670155D01*
X122288798Y-69621050D01*
X122293756Y-69551356D01*
X122314554Y-69518998D01*
X122312903Y-69517717D01*
X122317686Y-69511550D01*
X122401281Y-69370198D01*
X122433296Y-69260000D01*
X119516704Y-69260000D01*
X119548718Y-69370198D01*
X119632314Y-69511552D01*
X119637100Y-69517722D01*
X119634640Y-69519629D01*
X119661210Y-69568288D01*
X119656226Y-69637980D01*
X119635162Y-69670781D01*
X119636699Y-69671974D01*
X119631915Y-69678140D01*
X119548255Y-69819603D01*
X119548254Y-69819606D01*
X119502402Y-69977426D01*
X119502401Y-69977432D01*
X119499500Y-70014298D01*
X119499500Y-70445711D01*
X119499759Y-70448995D01*
X119485387Y-70517371D01*
X119463821Y-70546390D01*
X118696971Y-71313241D01*
X118696971Y-71313242D01*
X118631286Y-71378926D01*
X118631284Y-71378928D01*
X118519481Y-71490730D01*
X118519475Y-71490738D01*
X118475907Y-71566202D01*
X118475907Y-71566203D01*
X118440423Y-71627662D01*
X118440423Y-71627663D01*
X118399499Y-71780391D01*
X118399499Y-71780393D01*
X118399499Y-71948494D01*
X118399500Y-71948507D01*
X118399500Y-73177587D01*
X118379815Y-73244626D01*
X118372450Y-73254896D01*
X118370186Y-73257734D01*
X118274211Y-73410476D01*
X118214631Y-73580745D01*
X118214630Y-73580750D01*
X118194435Y-73759996D01*
X118194435Y-73760003D01*
X118214630Y-73939249D01*
X118214631Y-73939254D01*
X118274211Y-74109523D01*
X118317134Y-74177834D01*
X118370184Y-74262262D01*
X118497738Y-74389816D01*
X118568701Y-74434405D01*
X118648865Y-74484776D01*
X118650478Y-74485789D01*
X118785159Y-74532916D01*
X118820745Y-74545368D01*
X118820750Y-74545369D01*
X119006920Y-74566345D01*
X119006703Y-74568269D01*
X119064530Y-74585250D01*
X119085669Y-74604334D01*
X119086480Y-74603524D01*
X119091404Y-74608448D01*
X119218958Y-74736002D01*
X119291727Y-74781726D01*
X119371699Y-74831976D01*
X119421662Y-74849458D01*
X119461608Y-74863436D01*
X119518384Y-74904156D01*
X119544132Y-74969108D01*
X119530676Y-75037670D01*
X119527391Y-75043590D01*
X119523719Y-75049798D01*
X119523718Y-75049801D01*
X119491704Y-75160000D01*
X122408296Y-75160000D01*
X122376281Y-75049801D01*
X122292685Y-74908447D01*
X122287900Y-74902278D01*
X122290366Y-74900364D01*
X122263802Y-74851776D01*
X122268749Y-74782082D01*
X122289845Y-74749250D01*
X122288288Y-74748043D01*
X122292377Y-74742770D01*
X122295422Y-74740569D01*
X122297306Y-74737639D01*
X122298630Y-74736316D01*
X122299754Y-74737440D01*
X122349015Y-74701855D01*
X122418781Y-74698056D01*
X122456340Y-74713764D01*
X122475475Y-74725788D01*
X122475478Y-74725789D01*
X122645745Y-74785368D01*
X122714384Y-74793101D01*
X122778796Y-74820166D01*
X122818352Y-74877760D01*
X122824500Y-74916321D01*
X122824500Y-76355585D01*
X122824499Y-76355603D01*
X122824499Y-76363198D01*
X122824499Y-76521313D01*
X122841204Y-76583655D01*
X122865423Y-76674041D01*
X122865426Y-76674046D01*
X122944475Y-76810965D01*
X122944481Y-76810973D01*
X123624479Y-77490971D01*
X123657964Y-77552294D01*
X123652980Y-77621986D01*
X123624484Y-77666329D01*
X123610185Y-77680628D01*
X123514211Y-77833369D01*
X123454631Y-78003638D01*
X123454630Y-78003642D01*
X123433703Y-78189384D01*
X123406637Y-78253797D01*
X123349042Y-78293353D01*
X123310483Y-78299500D01*
X123082412Y-78299500D01*
X123015373Y-78279815D01*
X123005097Y-78272445D01*
X123002263Y-78270185D01*
X123002262Y-78270184D01*
X122932569Y-78226393D01*
X122849523Y-78174211D01*
X122679254Y-78114631D01*
X122679250Y-78114630D01*
X122535616Y-78098447D01*
X122471202Y-78071380D01*
X122431647Y-78013785D01*
X122425500Y-77975227D01*
X122425500Y-77784313D01*
X122425499Y-77784298D01*
X122422598Y-77747432D01*
X122422597Y-77747426D01*
X122388836Y-77631224D01*
X122376744Y-77589602D01*
X122293081Y-77448135D01*
X122293078Y-77448132D01*
X122288298Y-77441969D01*
X122290750Y-77440066D01*
X122264155Y-77391421D01*
X122269104Y-77321726D01*
X122289940Y-77289304D01*
X122288298Y-77288031D01*
X122293075Y-77281870D01*
X122293081Y-77281865D01*
X122376744Y-77140398D01*
X122422598Y-76982569D01*
X122425500Y-76945694D01*
X122425500Y-76514306D01*
X122422598Y-76477431D01*
X122419254Y-76465922D01*
X122387145Y-76355403D01*
X122376744Y-76319602D01*
X122293081Y-76178135D01*
X122293078Y-76178132D01*
X122288298Y-76171969D01*
X122290635Y-76170155D01*
X122263798Y-76121050D01*
X122268756Y-76051356D01*
X122289554Y-76018998D01*
X122287903Y-76017717D01*
X122292686Y-76011550D01*
X122376281Y-75870198D01*
X122408296Y-75760000D01*
X119491704Y-75760000D01*
X119523718Y-75870198D01*
X119607314Y-76011552D01*
X119612100Y-76017722D01*
X119609640Y-76019629D01*
X119636210Y-76068288D01*
X119631226Y-76137980D01*
X119610162Y-76170781D01*
X119611699Y-76171974D01*
X119606915Y-76178140D01*
X119523253Y-76319605D01*
X119522798Y-76320658D01*
X119521511Y-76322551D01*
X119519285Y-76326316D01*
X119519048Y-76326176D01*
X119496702Y-76359062D01*
X119494501Y-76361264D01*
X119494481Y-76361284D01*
X119194481Y-76661283D01*
X119194479Y-76661285D01*
X119174144Y-76696507D01*
X119165549Y-76711396D01*
X119132942Y-76767872D01*
X119115633Y-76797853D01*
X119115423Y-76798216D01*
X119074499Y-76950944D01*
X119074499Y-76950946D01*
X119074499Y-77119047D01*
X119074500Y-77119060D01*
X119074500Y-78488330D01*
X119074499Y-78488348D01*
X119074499Y-78654054D01*
X119074498Y-78654054D01*
X119113823Y-78800816D01*
X119115423Y-78806785D01*
X119140085Y-78849500D01*
X119158368Y-78881167D01*
X119194479Y-78943714D01*
X119194481Y-78943717D01*
X119313349Y-79062585D01*
X119313355Y-79062590D01*
X120238583Y-79987819D01*
X120272068Y-80049142D01*
X120267084Y-80118834D01*
X120225212Y-80174767D01*
X120159748Y-80199184D01*
X120150902Y-80199500D01*
X120059298Y-80199500D01*
X120022432Y-80202401D01*
X120022426Y-80202402D01*
X119864606Y-80248254D01*
X119864603Y-80248255D01*
X119723137Y-80331917D01*
X119723129Y-80331923D01*
X119691874Y-80363180D01*
X119630552Y-80396666D01*
X119604192Y-80399500D01*
X119582412Y-80399500D01*
X119515373Y-80379815D01*
X119505097Y-80372445D01*
X119502263Y-80370185D01*
X119502262Y-80370184D01*
X119441364Y-80331919D01*
X119349523Y-80274211D01*
X119179254Y-80214631D01*
X119179249Y-80214630D01*
X119000004Y-80194435D01*
X118999996Y-80194435D01*
X118820750Y-80214630D01*
X118820745Y-80214631D01*
X118650476Y-80274211D01*
X118497737Y-80370184D01*
X118370184Y-80497737D01*
X118274211Y-80650476D01*
X118214631Y-80820745D01*
X118214630Y-80820750D01*
X118194435Y-80999996D01*
X118194435Y-81000003D01*
X118214630Y-81179249D01*
X118214631Y-81179254D01*
X118274211Y-81349523D01*
X118312462Y-81410398D01*
X118370184Y-81502262D01*
X118497738Y-81629816D01*
X118579007Y-81680881D01*
X118649909Y-81725432D01*
X118650478Y-81725789D01*
X118753466Y-81761826D01*
X118820745Y-81785368D01*
X118820750Y-81785369D01*
X118999996Y-81805565D01*
X119000000Y-81805565D01*
X119000004Y-81805565D01*
X119179249Y-81785369D01*
X119179252Y-81785368D01*
X119179255Y-81785368D01*
X119349522Y-81725789D01*
X119349522Y-81725788D01*
X119356095Y-81723489D01*
X119356775Y-81725432D01*
X119415805Y-81715695D01*
X119479948Y-81743400D01*
X119518929Y-81801385D01*
X119520374Y-81871239D01*
X119519777Y-81873366D01*
X119491703Y-81970000D01*
X122408296Y-81970000D01*
X122376281Y-81859801D01*
X122292685Y-81718447D01*
X122287900Y-81712278D01*
X122290366Y-81710364D01*
X122263802Y-81661776D01*
X122268749Y-81592082D01*
X122289856Y-81559232D01*
X122288301Y-81558026D01*
X122293077Y-81551868D01*
X122293081Y-81551865D01*
X122376744Y-81410398D01*
X122415269Y-81277795D01*
X122422597Y-81252573D01*
X122422598Y-81252567D01*
X122422839Y-81249501D01*
X122425500Y-81215694D01*
X122425500Y-81124500D01*
X122445185Y-81057461D01*
X122497989Y-81011706D01*
X122549500Y-81000500D01*
X124599903Y-81000500D01*
X124666942Y-81020185D01*
X124687584Y-81036819D01*
X124863181Y-81212416D01*
X124896666Y-81273739D01*
X124899500Y-81300097D01*
X124899500Y-85316587D01*
X124879815Y-85383626D01*
X124827011Y-85429381D01*
X124757853Y-85439325D01*
X124694297Y-85410300D01*
X124687819Y-85404268D01*
X124506762Y-85223211D01*
X124506760Y-85223208D01*
X124387889Y-85104337D01*
X124387888Y-85104336D01*
X124301076Y-85054216D01*
X124301076Y-85054215D01*
X124301072Y-85054214D01*
X124250957Y-85025279D01*
X124098229Y-84984355D01*
X123940115Y-84984355D01*
X123932519Y-84984355D01*
X123932503Y-84984356D01*
X123341208Y-84984356D01*
X123274169Y-84964671D01*
X123228414Y-84911867D01*
X123217988Y-84874239D01*
X123210266Y-84805706D01*
X123210265Y-84805701D01*
X123189724Y-84746999D01*
X123150686Y-84635434D01*
X123140781Y-84619671D01*
X123089132Y-84537472D01*
X123054713Y-84482694D01*
X122961724Y-84389705D01*
X122942018Y-84364023D01*
X122905421Y-84300635D01*
X122905418Y-84300631D01*
X122905417Y-84300629D01*
X122793613Y-84188825D01*
X122793612Y-84188824D01*
X122789282Y-84184494D01*
X122789271Y-84184484D01*
X122461178Y-83856391D01*
X122427693Y-83795068D01*
X122425242Y-83758976D01*
X122425326Y-83757897D01*
X122425500Y-83755694D01*
X122425500Y-83324306D01*
X122422598Y-83287431D01*
X122420834Y-83281361D01*
X122376745Y-83129606D01*
X122376744Y-83129603D01*
X122376744Y-83129602D01*
X122293081Y-82988135D01*
X122293078Y-82988132D01*
X122288298Y-82981969D01*
X122290635Y-82980155D01*
X122263798Y-82931050D01*
X122268756Y-82861356D01*
X122289554Y-82828998D01*
X122287903Y-82827717D01*
X122292686Y-82821550D01*
X122376281Y-82680198D01*
X122408296Y-82570000D01*
X119491704Y-82570000D01*
X119523718Y-82680198D01*
X119607314Y-82821552D01*
X119612100Y-82827722D01*
X119609640Y-82829629D01*
X119636210Y-82878288D01*
X119631226Y-82947980D01*
X119610162Y-82980781D01*
X119611699Y-82981974D01*
X119606915Y-82988140D01*
X119523255Y-83129603D01*
X119523254Y-83129606D01*
X119477402Y-83287426D01*
X119477401Y-83287432D01*
X119474500Y-83324298D01*
X119474500Y-83626679D01*
X119454815Y-83693718D01*
X119402011Y-83739473D01*
X119332853Y-83749417D01*
X119309545Y-83743721D01*
X119191478Y-83702407D01*
X119191473Y-83702406D01*
X119012228Y-83682211D01*
X119012220Y-83682211D01*
X118832974Y-83702406D01*
X118832969Y-83702407D01*
X118662700Y-83761987D01*
X118506797Y-83859948D01*
X118439560Y-83878948D01*
X118372725Y-83858580D01*
X118353144Y-83842635D01*
X117572788Y-83062280D01*
X117572785Y-83062276D01*
X117572785Y-83062277D01*
X117565718Y-83055210D01*
X117565718Y-83055209D01*
X117459790Y-82949281D01*
X117459789Y-82949280D01*
X117459788Y-82949279D01*
X117419710Y-82922500D01*
X117374905Y-82868888D01*
X117366198Y-82799563D01*
X117381869Y-82756277D01*
X117426744Y-82680398D01*
X117472598Y-82522569D01*
X117475500Y-82485694D01*
X117475500Y-82054306D01*
X117472598Y-82017431D01*
X117470834Y-82011361D01*
X117426745Y-81859606D01*
X117426744Y-81859603D01*
X117426744Y-81859602D01*
X117343081Y-81718135D01*
X117343078Y-81718132D01*
X117338298Y-81711969D01*
X117340750Y-81710066D01*
X117314155Y-81661421D01*
X117319104Y-81591726D01*
X117339940Y-81559304D01*
X117338298Y-81558031D01*
X117343075Y-81551870D01*
X117343081Y-81551865D01*
X117426744Y-81410398D01*
X117465269Y-81277795D01*
X117472597Y-81252573D01*
X117472598Y-81252567D01*
X117472839Y-81249501D01*
X117475500Y-81215694D01*
X117475500Y-80784306D01*
X117472598Y-80747431D01*
X117470834Y-80741361D01*
X117426745Y-80589606D01*
X117426744Y-80589603D01*
X117426744Y-80589602D01*
X117343081Y-80448135D01*
X117343079Y-80448133D01*
X117343076Y-80448129D01*
X117226870Y-80331923D01*
X117226862Y-80331917D01*
X117119145Y-80268214D01*
X117085398Y-80248256D01*
X117085397Y-80248255D01*
X117085396Y-80248255D01*
X117085393Y-80248254D01*
X116927573Y-80202402D01*
X116927567Y-80202401D01*
X116890701Y-80199500D01*
X116890694Y-80199500D01*
X115109306Y-80199500D01*
X115109298Y-80199500D01*
X115072432Y-80202401D01*
X115072426Y-80202402D01*
X114961688Y-80234576D01*
X114927093Y-80239500D01*
X114581037Y-80239500D01*
X114581017Y-80239499D01*
X114574903Y-80239499D01*
X114425098Y-80239499D01*
X114425095Y-80239499D01*
X114280736Y-80268213D01*
X114280737Y-80268214D01*
X114278177Y-80268723D01*
X114278167Y-80268726D01*
X114139770Y-80326051D01*
X114139761Y-80326056D01*
X114015210Y-80409279D01*
X113982321Y-80442169D01*
X113909281Y-80515209D01*
X113909278Y-80515212D01*
X113015212Y-81409278D01*
X113015209Y-81409281D01*
X112945553Y-81478937D01*
X112932181Y-81492309D01*
X112870857Y-81525793D01*
X112801166Y-81520809D01*
X112745232Y-81478937D01*
X112720816Y-81413472D01*
X112720500Y-81404627D01*
X112720500Y-80161371D01*
X112740185Y-80094332D01*
X112756814Y-80073695D01*
X114403308Y-78427200D01*
X114464629Y-78393717D01*
X114534321Y-78398701D01*
X114590254Y-78440573D01*
X114597719Y-78451763D01*
X114656914Y-78551858D01*
X114656923Y-78551870D01*
X114773129Y-78668076D01*
X114773133Y-78668079D01*
X114773135Y-78668081D01*
X114914602Y-78751744D01*
X114956224Y-78763836D01*
X115072426Y-78797597D01*
X115072429Y-78797597D01*
X115072431Y-78797598D01*
X115109306Y-78800500D01*
X115109314Y-78800500D01*
X116890686Y-78800500D01*
X116890694Y-78800500D01*
X116927569Y-78797598D01*
X116927571Y-78797597D01*
X116927573Y-78797597D01*
X116969191Y-78785505D01*
X117085398Y-78751744D01*
X117226865Y-78668081D01*
X117343081Y-78551865D01*
X117426744Y-78410398D01*
X117464682Y-78279815D01*
X117472597Y-78252573D01*
X117472598Y-78252567D01*
X117472839Y-78249501D01*
X117475500Y-78215694D01*
X117475500Y-77784306D01*
X117472598Y-77747431D01*
X117449035Y-77666329D01*
X117438836Y-77631224D01*
X117426744Y-77589602D01*
X117343081Y-77448135D01*
X117343078Y-77448132D01*
X117338298Y-77441969D01*
X117340750Y-77440066D01*
X117314155Y-77391421D01*
X117319104Y-77321726D01*
X117339940Y-77289304D01*
X117338298Y-77288031D01*
X117343075Y-77281870D01*
X117343081Y-77281865D01*
X117426744Y-77140398D01*
X117472598Y-76982569D01*
X117475500Y-76945694D01*
X117475500Y-76514306D01*
X117472598Y-76477431D01*
X117469254Y-76465922D01*
X117437145Y-76355403D01*
X117426744Y-76319602D01*
X117343081Y-76178135D01*
X117343078Y-76178132D01*
X117338298Y-76171969D01*
X117340750Y-76170066D01*
X117314155Y-76121421D01*
X117319104Y-76051726D01*
X117339940Y-76019304D01*
X117338298Y-76018031D01*
X117343075Y-76011870D01*
X117343081Y-76011865D01*
X117426744Y-75870398D01*
X117472598Y-75712569D01*
X117475500Y-75675694D01*
X117475500Y-75244306D01*
X117472598Y-75207431D01*
X117451076Y-75133354D01*
X117431823Y-75067084D01*
X117426744Y-75049602D01*
X117343081Y-74908135D01*
X117343078Y-74908132D01*
X117338298Y-74901969D01*
X117340750Y-74900066D01*
X117314155Y-74851421D01*
X117319104Y-74781726D01*
X117339940Y-74749304D01*
X117338298Y-74748031D01*
X117343075Y-74741870D01*
X117343081Y-74741865D01*
X117426744Y-74600398D01*
X117472598Y-74442569D01*
X117475500Y-74405694D01*
X117475500Y-73974306D01*
X117472598Y-73937431D01*
X117471486Y-73933605D01*
X117426745Y-73779606D01*
X117426744Y-73779603D01*
X117426744Y-73779602D01*
X117343081Y-73638135D01*
X117343079Y-73638133D01*
X117343076Y-73638129D01*
X117226870Y-73521923D01*
X117226862Y-73521917D01*
X117097628Y-73445489D01*
X117085398Y-73438256D01*
X117085397Y-73438255D01*
X117085396Y-73438255D01*
X117085393Y-73438254D01*
X116927573Y-73392402D01*
X116927567Y-73392401D01*
X116890701Y-73389500D01*
X116890694Y-73389500D01*
X115109306Y-73389500D01*
X115109298Y-73389500D01*
X115072432Y-73392401D01*
X115072426Y-73392402D01*
X114938263Y-73431381D01*
X114927860Y-73433922D01*
X114834466Y-73452500D01*
X114819500Y-73455477D01*
X114803171Y-73458725D01*
X114803170Y-73458725D01*
X114664771Y-73516051D01*
X114664762Y-73516056D01*
X114540211Y-73599279D01*
X114511927Y-73627564D01*
X114434282Y-73705209D01*
X113006137Y-75133354D01*
X112944814Y-75166839D01*
X112875122Y-75161855D01*
X112819189Y-75119983D01*
X112794772Y-75054519D01*
X112794456Y-75045673D01*
X112794456Y-73612415D01*
X112814141Y-73545376D01*
X112830770Y-73524739D01*
X114428308Y-71927200D01*
X114489629Y-71893717D01*
X114559321Y-71898701D01*
X114615254Y-71940573D01*
X114622719Y-71951763D01*
X114681914Y-72051858D01*
X114681923Y-72051870D01*
X114798129Y-72168076D01*
X114798133Y-72168079D01*
X114798135Y-72168081D01*
X114939602Y-72251744D01*
X114978352Y-72263002D01*
X115097426Y-72297597D01*
X115097429Y-72297597D01*
X115097431Y-72297598D01*
X115134306Y-72300500D01*
X115134314Y-72300500D01*
X116915686Y-72300500D01*
X116915694Y-72300500D01*
X116952569Y-72297598D01*
X116952571Y-72297597D01*
X116952573Y-72297597D01*
X117023474Y-72276998D01*
X117110398Y-72251744D01*
X117251865Y-72168081D01*
X117368081Y-72051865D01*
X117451744Y-71910398D01*
X117489144Y-71781669D01*
X117497597Y-71752573D01*
X117497598Y-71752567D01*
X117497998Y-71747481D01*
X117500500Y-71715694D01*
X117500500Y-71284306D01*
X117497598Y-71247431D01*
X117495710Y-71240934D01*
X117451745Y-71089606D01*
X117451744Y-71089603D01*
X117451744Y-71089602D01*
X117368081Y-70948135D01*
X117368078Y-70948132D01*
X117363298Y-70941969D01*
X117365750Y-70940066D01*
X117339155Y-70891421D01*
X117344104Y-70821726D01*
X117364940Y-70789304D01*
X117363298Y-70788031D01*
X117368075Y-70781870D01*
X117368081Y-70781865D01*
X117451744Y-70640398D01*
X117488555Y-70513694D01*
X117497597Y-70482573D01*
X117497598Y-70482567D01*
X117497998Y-70477481D01*
X117500500Y-70445694D01*
X117500500Y-70014306D01*
X117497598Y-69977431D01*
X117481106Y-69920667D01*
X117451745Y-69819606D01*
X117451744Y-69819603D01*
X117451744Y-69819602D01*
X117368081Y-69678135D01*
X117368078Y-69678132D01*
X117363298Y-69671969D01*
X117365750Y-69670066D01*
X117339155Y-69621421D01*
X117344104Y-69551726D01*
X117364940Y-69519304D01*
X117363298Y-69518031D01*
X117368075Y-69511870D01*
X117368081Y-69511865D01*
X117451744Y-69370398D01*
X117497598Y-69212569D01*
X117500500Y-69175694D01*
X117500500Y-68744306D01*
X117497598Y-68707431D01*
X117480999Y-68650299D01*
X117451745Y-68549606D01*
X117451744Y-68549603D01*
X117451744Y-68549602D01*
X117368081Y-68408135D01*
X117368078Y-68408132D01*
X117363298Y-68401969D01*
X117365750Y-68400066D01*
X117339155Y-68351421D01*
X117344104Y-68281726D01*
X117364940Y-68249304D01*
X117363298Y-68248031D01*
X117368075Y-68241870D01*
X117368081Y-68241865D01*
X117451744Y-68100398D01*
X117497598Y-67942569D01*
X117500500Y-67905694D01*
X117500500Y-67474306D01*
X117497598Y-67437431D01*
X117495812Y-67431284D01*
X117456251Y-67295115D01*
X117451744Y-67279602D01*
X117368081Y-67138135D01*
X117368079Y-67138133D01*
X117368076Y-67138129D01*
X117251870Y-67021923D01*
X117251862Y-67021917D01*
X117143237Y-66957677D01*
X117110398Y-66938256D01*
X117110397Y-66938255D01*
X117110396Y-66938255D01*
X117110393Y-66938254D01*
X116952573Y-66892402D01*
X116952567Y-66892401D01*
X116915701Y-66889500D01*
X116915694Y-66889500D01*
X115134306Y-66889500D01*
X115134298Y-66889500D01*
X115097432Y-66892401D01*
X115097426Y-66892402D01*
X114963263Y-66931381D01*
X114952859Y-66933922D01*
X114833436Y-66957677D01*
X114828181Y-66958722D01*
X114828167Y-66958726D01*
X114689775Y-67016049D01*
X114689762Y-67016056D01*
X114565211Y-67099279D01*
X114536066Y-67128425D01*
X114459282Y-67205209D01*
X114459279Y-67205212D01*
X109015212Y-72649279D01*
X109015209Y-72649282D01*
X108986300Y-72678191D01*
X108909279Y-72755211D01*
X108826056Y-72879762D01*
X108826051Y-72879771D01*
X108768725Y-73018170D01*
X108768723Y-73018178D01*
X108739500Y-73165093D01*
X108739500Y-73345414D01*
X108719815Y-73412453D01*
X108669304Y-73457133D01*
X108622301Y-73479769D01*
X108622298Y-73479771D01*
X108622296Y-73479772D01*
X108592627Y-73500000D01*
X108405520Y-73627567D01*
X108213198Y-73806014D01*
X108049614Y-74011143D01*
X107918432Y-74238356D01*
X107822582Y-74482578D01*
X107822576Y-74482597D01*
X107764197Y-74738374D01*
X107764196Y-74738379D01*
X107744592Y-74999995D01*
X107744592Y-75000004D01*
X107764196Y-75261620D01*
X107764197Y-75261625D01*
X107764197Y-75261629D01*
X107764198Y-75261630D01*
X107765802Y-75268656D01*
X107822576Y-75517402D01*
X107822578Y-75517411D01*
X107822580Y-75517416D01*
X107918432Y-75761643D01*
X108049614Y-75988857D01*
X108155330Y-76121421D01*
X108213198Y-76193985D01*
X108391110Y-76359062D01*
X108405521Y-76372433D01*
X108622296Y-76520228D01*
X108622301Y-76520230D01*
X108622302Y-76520231D01*
X108622303Y-76520232D01*
X108747843Y-76580688D01*
X108858673Y-76634061D01*
X108858674Y-76634061D01*
X108858677Y-76634063D01*
X108991999Y-76675187D01*
X109050258Y-76713757D01*
X109078416Y-76777702D01*
X109067532Y-76846719D01*
X109043132Y-76881358D01*
X109015212Y-76909278D01*
X109015209Y-76909281D01*
X108987824Y-76936666D01*
X108909279Y-77015210D01*
X108826056Y-77139761D01*
X108826051Y-77139770D01*
X108768725Y-77278169D01*
X108768723Y-77278177D01*
X108739500Y-77425092D01*
X108739500Y-78125500D01*
X108719815Y-78192539D01*
X108667011Y-78238294D01*
X108615500Y-78249500D01*
X108202129Y-78249500D01*
X108202123Y-78249501D01*
X108142516Y-78255908D01*
X108007671Y-78306202D01*
X108007664Y-78306206D01*
X107892455Y-78392452D01*
X107892452Y-78392455D01*
X107806206Y-78507664D01*
X107806202Y-78507671D01*
X107755908Y-78642517D01*
X107749501Y-78702116D01*
X107749500Y-78702135D01*
X107749500Y-81297870D01*
X107749501Y-81297876D01*
X107755908Y-81357483D01*
X107806202Y-81492328D01*
X107806206Y-81492335D01*
X107892452Y-81607544D01*
X107892455Y-81607547D01*
X108007664Y-81693793D01*
X108007671Y-81693797D01*
X108142517Y-81744091D01*
X108142516Y-81744091D01*
X108149444Y-81744835D01*
X108202127Y-81750500D01*
X110355500Y-81750499D01*
X110422539Y-81770184D01*
X110468294Y-81822987D01*
X110479500Y-81874499D01*
X110479500Y-85893628D01*
X110459815Y-85960667D01*
X110443181Y-85981309D01*
X110130899Y-86293591D01*
X110069576Y-86327076D01*
X110006669Y-86324401D01*
X109890627Y-86288607D01*
X109890620Y-86288605D01*
X109890615Y-86288604D01*
X109765823Y-86269794D01*
X109631187Y-86249500D01*
X109631182Y-86249500D01*
X109368818Y-86249500D01*
X109368812Y-86249500D01*
X109207247Y-86273853D01*
X109109385Y-86288604D01*
X109109382Y-86288605D01*
X109109376Y-86288606D01*
X108858673Y-86365938D01*
X108622303Y-86479767D01*
X108622302Y-86479768D01*
X108622296Y-86479771D01*
X108622296Y-86479772D01*
X108603318Y-86492711D01*
X108405520Y-86627567D01*
X108213198Y-86806014D01*
X108049614Y-87011143D01*
X107918432Y-87238356D01*
X107822582Y-87482578D01*
X107822576Y-87482597D01*
X107764197Y-87738374D01*
X107764196Y-87738379D01*
X107744592Y-87999995D01*
X107744592Y-88000004D01*
X107764196Y-88261620D01*
X107764197Y-88261625D01*
X107764197Y-88261629D01*
X107764198Y-88261630D01*
X107772914Y-88299818D01*
X107822576Y-88517402D01*
X107822578Y-88517411D01*
X107822580Y-88517416D01*
X107918432Y-88761643D01*
X108049614Y-88988857D01*
X108155572Y-89121724D01*
X108213198Y-89193985D01*
X108374544Y-89343691D01*
X108405521Y-89372433D01*
X108622296Y-89520228D01*
X108622301Y-89520230D01*
X108622302Y-89520231D01*
X108622303Y-89520232D01*
X108747843Y-89580688D01*
X108858673Y-89634061D01*
X108858674Y-89634061D01*
X108858677Y-89634063D01*
X109109385Y-89711396D01*
X109368818Y-89750500D01*
X109631182Y-89750500D01*
X109890615Y-89711396D01*
X110141323Y-89634063D01*
X110377704Y-89520228D01*
X110594479Y-89372433D01*
X110756791Y-89221830D01*
X110786801Y-89193985D01*
X110786801Y-89193983D01*
X110786805Y-89193981D01*
X110950386Y-88988857D01*
X110968114Y-88958150D01*
X111018679Y-88909937D01*
X111087286Y-88896713D01*
X111152151Y-88922681D01*
X111192680Y-88979595D01*
X111199500Y-89020152D01*
X111199500Y-90173628D01*
X111179815Y-90240667D01*
X111163181Y-90261309D01*
X110211308Y-91213181D01*
X110149985Y-91246666D01*
X110123627Y-91249500D01*
X108202129Y-91249500D01*
X108202123Y-91249501D01*
X108142516Y-91255908D01*
X108007671Y-91306202D01*
X108007664Y-91306206D01*
X107892455Y-91392452D01*
X107892452Y-91392455D01*
X107806206Y-91507664D01*
X107806202Y-91507671D01*
X107755908Y-91642517D01*
X107749501Y-91702116D01*
X107749500Y-91702135D01*
X107749500Y-94297870D01*
X107749501Y-94297876D01*
X107755908Y-94357483D01*
X107806202Y-94492328D01*
X107806206Y-94492335D01*
X107892452Y-94607544D01*
X107892455Y-94607547D01*
X108007664Y-94693793D01*
X108007671Y-94693797D01*
X108142517Y-94744091D01*
X108142516Y-94744091D01*
X108149444Y-94744835D01*
X108202127Y-94750500D01*
X110797872Y-94750499D01*
X110857483Y-94744091D01*
X110992331Y-94693796D01*
X111107546Y-94607546D01*
X111193796Y-94492331D01*
X111244091Y-94357483D01*
X111250500Y-94297873D01*
X111250499Y-92376370D01*
X111270184Y-92309332D01*
X111286813Y-92288694D01*
X112395853Y-91179654D01*
X112457174Y-91146171D01*
X112526866Y-91151155D01*
X112549503Y-91162343D01*
X112638115Y-91218021D01*
X112659825Y-91235334D01*
X116406155Y-94981664D01*
X116406184Y-94981695D01*
X116515205Y-95090716D01*
X116515209Y-95090719D01*
X116639761Y-95173943D01*
X116639767Y-95173946D01*
X116639768Y-95173947D01*
X116778170Y-95231275D01*
X116925092Y-95260499D01*
X116925096Y-95260500D01*
X116925097Y-95260500D01*
X156133629Y-95260500D01*
X156200668Y-95280185D01*
X156221310Y-95296819D01*
X157515205Y-96590716D01*
X157515209Y-96590719D01*
X157639761Y-96673943D01*
X157639767Y-96673946D01*
X157639768Y-96673947D01*
X157778170Y-96731275D01*
X157829277Y-96741440D01*
X157891828Y-96753883D01*
X157953739Y-96786267D01*
X157988313Y-96846983D01*
X157984574Y-96916752D01*
X157943708Y-96973425D01*
X157878690Y-96999006D01*
X157867637Y-96999500D01*
X104624500Y-96999500D01*
X104557461Y-96979815D01*
X104511706Y-96927011D01*
X104500500Y-96875500D01*
X104500500Y-62000004D01*
X107744592Y-62000004D01*
X107764196Y-62261620D01*
X107764197Y-62261625D01*
X107822576Y-62517402D01*
X107822578Y-62517411D01*
X107822580Y-62517416D01*
X107918432Y-62761643D01*
X108049614Y-62988857D01*
X108112900Y-63068215D01*
X108213198Y-63193985D01*
X108369103Y-63338642D01*
X108405521Y-63372433D01*
X108622296Y-63520228D01*
X108622301Y-63520230D01*
X108622302Y-63520231D01*
X108622303Y-63520232D01*
X108736889Y-63575413D01*
X108858673Y-63634061D01*
X108858674Y-63634061D01*
X108858677Y-63634063D01*
X109109385Y-63711396D01*
X109368818Y-63750500D01*
X109631182Y-63750500D01*
X109890615Y-63711396D01*
X110141323Y-63634063D01*
X110377704Y-63520228D01*
X110594479Y-63372433D01*
X110786805Y-63193981D01*
X110950386Y-62988857D01*
X111081568Y-62761643D01*
X111177420Y-62517416D01*
X111235802Y-62261630D01*
X111236976Y-62245965D01*
X111255408Y-62000004D01*
X111255408Y-61999995D01*
X111235803Y-61738379D01*
X111235803Y-61738378D01*
X111235802Y-61738374D01*
X111235802Y-61738370D01*
X111177420Y-61482584D01*
X111177417Y-61482577D01*
X111176967Y-61480604D01*
X111181240Y-61410865D01*
X111210175Y-61365333D01*
X111588690Y-60986819D01*
X111650013Y-60953334D01*
X111676371Y-60950500D01*
X112674628Y-60950500D01*
X112741667Y-60970185D01*
X112787422Y-61022989D01*
X112797366Y-61092147D01*
X112768341Y-61155703D01*
X112762309Y-61162181D01*
X112159823Y-61764666D01*
X112138114Y-61781979D01*
X111997738Y-61870183D01*
X111870184Y-61997737D01*
X111774211Y-62150476D01*
X111714631Y-62320745D01*
X111714630Y-62320750D01*
X111694435Y-62499996D01*
X111694435Y-62500003D01*
X111714630Y-62679249D01*
X111714631Y-62679254D01*
X111774211Y-62849523D01*
X111834635Y-62945686D01*
X111870184Y-63002262D01*
X111997738Y-63129816D01*
X112077893Y-63180181D01*
X112142768Y-63220945D01*
X112150478Y-63225789D01*
X112154045Y-63227037D01*
X112320745Y-63285368D01*
X112320750Y-63285369D01*
X112499996Y-63305565D01*
X112500000Y-63305565D01*
X112500004Y-63305565D01*
X112679249Y-63285369D01*
X112679252Y-63285368D01*
X112679255Y-63285368D01*
X112849522Y-63225789D01*
X113002262Y-63129816D01*
X113129816Y-63002262D01*
X113138240Y-62988856D01*
X113208939Y-62876337D01*
X113218022Y-62861880D01*
X113235330Y-62840178D01*
X113818690Y-62256819D01*
X113880013Y-62223334D01*
X113906371Y-62220500D01*
X114159629Y-62220500D01*
X114226668Y-62240185D01*
X114272423Y-62292989D01*
X114282367Y-62362147D01*
X114253342Y-62425703D01*
X114247310Y-62432181D01*
X111284972Y-65394518D01*
X111223649Y-65428003D01*
X111153957Y-65423019D01*
X111114652Y-65397758D01*
X111114645Y-65397768D01*
X111114511Y-65397668D01*
X111109610Y-65394518D01*
X111107544Y-65392452D01*
X110992335Y-65306206D01*
X110992328Y-65306202D01*
X110857482Y-65255908D01*
X110857483Y-65255908D01*
X110797883Y-65249501D01*
X110797881Y-65249500D01*
X110797873Y-65249500D01*
X110797864Y-65249500D01*
X108202129Y-65249500D01*
X108202123Y-65249501D01*
X108142516Y-65255908D01*
X108007671Y-65306202D01*
X108007664Y-65306206D01*
X107892455Y-65392452D01*
X107892452Y-65392455D01*
X107806206Y-65507664D01*
X107806202Y-65507671D01*
X107755908Y-65642517D01*
X107749501Y-65702116D01*
X107749500Y-65702135D01*
X107749500Y-68297870D01*
X107749501Y-68297876D01*
X107755908Y-68357483D01*
X107806202Y-68492328D01*
X107806206Y-68492335D01*
X107892452Y-68607544D01*
X107892455Y-68607547D01*
X108007664Y-68693793D01*
X108007671Y-68693797D01*
X108142517Y-68744091D01*
X108142516Y-68744091D01*
X108149444Y-68744835D01*
X108202127Y-68750500D01*
X110797872Y-68750499D01*
X110857483Y-68744091D01*
X110992331Y-68693796D01*
X111107546Y-68607546D01*
X111193796Y-68492331D01*
X111244091Y-68357483D01*
X111250500Y-68297873D01*
X111250499Y-67631372D01*
X111270183Y-67564334D01*
X111286812Y-67543698D01*
X111345720Y-67484791D01*
X111345722Y-67484787D01*
X114403308Y-64427200D01*
X114464629Y-64393717D01*
X114534321Y-64398701D01*
X114590254Y-64440573D01*
X114597719Y-64451763D01*
X114656914Y-64551858D01*
X114656923Y-64551870D01*
X114773129Y-64668076D01*
X114773133Y-64668079D01*
X114773135Y-64668081D01*
X114914602Y-64751744D01*
X114956224Y-64763836D01*
X115072426Y-64797597D01*
X115072429Y-64797597D01*
X115072431Y-64797598D01*
X115109306Y-64800500D01*
X115109314Y-64800500D01*
X116890686Y-64800500D01*
X116890694Y-64800500D01*
X116927569Y-64797598D01*
X116927571Y-64797597D01*
X116927573Y-64797597D01*
X116969191Y-64785505D01*
X117085398Y-64751744D01*
X117226865Y-64668081D01*
X117343081Y-64551865D01*
X117426744Y-64410398D01*
X117472598Y-64252569D01*
X117475500Y-64215694D01*
X117475500Y-63784306D01*
X117472598Y-63747431D01*
X117426744Y-63589602D01*
X117343081Y-63448135D01*
X117343078Y-63448132D01*
X117338298Y-63441969D01*
X117340750Y-63440066D01*
X117314155Y-63391421D01*
X117319104Y-63321726D01*
X117339940Y-63289304D01*
X117338298Y-63288031D01*
X117343075Y-63281870D01*
X117343081Y-63281865D01*
X117426744Y-63140398D01*
X117466877Y-63002262D01*
X117472598Y-62982570D01*
X117472598Y-62982567D01*
X117475500Y-62945694D01*
X117475500Y-62514306D01*
X117472598Y-62477431D01*
X117470031Y-62468597D01*
X117438836Y-62361224D01*
X117426744Y-62319602D01*
X117343081Y-62178135D01*
X117343078Y-62178132D01*
X117338298Y-62171969D01*
X117340750Y-62170066D01*
X117314155Y-62121421D01*
X117319104Y-62051726D01*
X117339940Y-62019304D01*
X117338298Y-62018031D01*
X117343075Y-62011870D01*
X117343081Y-62011865D01*
X117426744Y-61870398D01*
X117472598Y-61712569D01*
X117475500Y-61675694D01*
X117475500Y-61244306D01*
X117472598Y-61207431D01*
X117466664Y-61187007D01*
X117426745Y-61049606D01*
X117426744Y-61049603D01*
X117426744Y-61049602D01*
X117343081Y-60908135D01*
X117343078Y-60908132D01*
X117338298Y-60901969D01*
X117340750Y-60900066D01*
X117314155Y-60851421D01*
X117319104Y-60781726D01*
X117339940Y-60749304D01*
X117338298Y-60748031D01*
X117343075Y-60741870D01*
X117343081Y-60741865D01*
X117426744Y-60600398D01*
X117472598Y-60442569D01*
X117475500Y-60405694D01*
X117475500Y-59974306D01*
X117472598Y-59937431D01*
X117470031Y-59928597D01*
X117426745Y-59779604D01*
X117416041Y-59761505D01*
X117343081Y-59638135D01*
X117343080Y-59638134D01*
X117343076Y-59638129D01*
X117226870Y-59521923D01*
X117226862Y-59521917D01*
X117085396Y-59438255D01*
X117085393Y-59438254D01*
X116927573Y-59392402D01*
X116927567Y-59392401D01*
X116890701Y-59389500D01*
X116890694Y-59389500D01*
X115109306Y-59389500D01*
X115109298Y-59389500D01*
X115072432Y-59392401D01*
X115072426Y-59392402D01*
X114961688Y-59424576D01*
X114927093Y-59429500D01*
X111391037Y-59429500D01*
X111391017Y-59429499D01*
X111384903Y-59429499D01*
X111235098Y-59429499D01*
X111235095Y-59429499D01*
X111088177Y-59458723D01*
X111088169Y-59458725D01*
X110949770Y-59516051D01*
X110949761Y-59516056D01*
X110825210Y-59599279D01*
X110798526Y-59625964D01*
X110719281Y-59705209D01*
X110719278Y-59705212D01*
X110130898Y-60293591D01*
X110069575Y-60327076D01*
X110006668Y-60324401D01*
X109961035Y-60310325D01*
X109890623Y-60288606D01*
X109890619Y-60288605D01*
X109890615Y-60288604D01*
X109765823Y-60269794D01*
X109631187Y-60249500D01*
X109631182Y-60249500D01*
X109368818Y-60249500D01*
X109368812Y-60249500D01*
X109207247Y-60273853D01*
X109109385Y-60288604D01*
X109109382Y-60288605D01*
X109109376Y-60288606D01*
X108858673Y-60365938D01*
X108622303Y-60479767D01*
X108622302Y-60479768D01*
X108405520Y-60627567D01*
X108213198Y-60806014D01*
X108049614Y-61011143D01*
X107918432Y-61238356D01*
X107822582Y-61482578D01*
X107822576Y-61482597D01*
X107764197Y-61738374D01*
X107764196Y-61738379D01*
X107744592Y-61999995D01*
X107744592Y-62000004D01*
X104500500Y-62000004D01*
X104500500Y-59124500D01*
X104520185Y-59057461D01*
X104572989Y-59011706D01*
X104624500Y-59000500D01*
X172375500Y-59000500D01*
X172442539Y-59020185D01*
G37*
%TD.AperFunction*%
%TA.AperFunction,Conductor*%
G36*
X169607596Y-86057685D02*
G01*
X169653351Y-86110489D01*
X169658261Y-86122990D01*
X169661981Y-86134216D01*
X169690186Y-86219335D01*
X169690187Y-86219337D01*
X169782286Y-86368651D01*
X169782289Y-86368655D01*
X169906344Y-86492710D01*
X169906348Y-86492713D01*
X170055662Y-86584812D01*
X170055664Y-86584813D01*
X170055666Y-86584814D01*
X170222203Y-86639999D01*
X170324992Y-86650500D01*
X170324997Y-86650500D01*
X171675003Y-86650500D01*
X171675008Y-86650500D01*
X171777797Y-86639999D01*
X171944334Y-86584814D01*
X172093655Y-86492711D01*
X172217711Y-86368655D01*
X172258211Y-86302995D01*
X172269962Y-86283944D01*
X172321909Y-86237219D01*
X172390872Y-86225998D01*
X172454954Y-86253841D01*
X172493810Y-86311910D01*
X172499500Y-86349041D01*
X172499500Y-96875500D01*
X172479815Y-96942539D01*
X172427011Y-96988294D01*
X172375500Y-96999500D01*
X167132363Y-96999500D01*
X167065324Y-96979815D01*
X167019569Y-96927011D01*
X167009625Y-96857853D01*
X167038650Y-96794297D01*
X167097428Y-96756523D01*
X167108172Y-96753883D01*
X167159111Y-96743750D01*
X167221830Y-96731275D01*
X167360232Y-96673947D01*
X167484791Y-96590719D01*
X167590719Y-96484791D01*
X167590720Y-96484789D01*
X167597786Y-96477723D01*
X167597789Y-96477719D01*
X169484787Y-94590721D01*
X169484791Y-94590719D01*
X169590719Y-94484791D01*
X169673947Y-94360232D01*
X169731275Y-94221830D01*
X169760500Y-94074903D01*
X169760500Y-92925097D01*
X169731275Y-92778170D01*
X169673947Y-92639768D01*
X169673946Y-92639767D01*
X169673943Y-92639761D01*
X169590720Y-92515210D01*
X169564366Y-92488856D01*
X169484791Y-92409281D01*
X169484790Y-92409280D01*
X169286818Y-92211308D01*
X169253333Y-92149985D01*
X169250499Y-92123627D01*
X169250499Y-90202129D01*
X169250498Y-90202123D01*
X169250497Y-90202116D01*
X169244091Y-90142517D01*
X169193796Y-90007669D01*
X169193795Y-90007668D01*
X169193793Y-90007664D01*
X169107547Y-89892455D01*
X169107544Y-89892452D01*
X168992335Y-89806206D01*
X168992328Y-89806202D01*
X168857482Y-89755908D01*
X168857483Y-89755908D01*
X168797883Y-89749501D01*
X168797881Y-89749500D01*
X168797873Y-89749500D01*
X168797865Y-89749500D01*
X168274500Y-89749500D01*
X168207461Y-89729815D01*
X168161706Y-89677011D01*
X168150500Y-89625500D01*
X168150500Y-89016689D01*
X168125502Y-88891022D01*
X168125501Y-88891021D01*
X168125501Y-88891017D01*
X168076465Y-88772634D01*
X168069121Y-88761643D01*
X168069120Y-88761641D01*
X168069120Y-88761642D01*
X168005277Y-88666092D01*
X168005275Y-88666090D01*
X168005273Y-88666087D01*
X167333912Y-87994726D01*
X167333908Y-87994723D01*
X167227366Y-87923535D01*
X167221109Y-87920943D01*
X167108981Y-87874498D01*
X167108971Y-87874495D01*
X167102813Y-87873270D01*
X167040905Y-87840880D01*
X167006335Y-87780162D01*
X167004277Y-87734003D01*
X167005500Y-87725500D01*
X167005500Y-87416378D01*
X166999195Y-87336786D01*
X166993047Y-87298226D01*
X166978403Y-87237641D01*
X166981786Y-87167854D01*
X167011251Y-87120827D01*
X167063244Y-87068834D01*
X167129816Y-87002262D01*
X167225789Y-86849522D01*
X167266371Y-86733543D01*
X167307091Y-86676769D01*
X167372044Y-86651021D01*
X167383391Y-86650499D01*
X168675008Y-86650499D01*
X168777797Y-86639999D01*
X168944334Y-86584814D01*
X169093656Y-86492712D01*
X169217712Y-86368656D01*
X169309814Y-86219334D01*
X169341737Y-86122995D01*
X169381510Y-86065551D01*
X169446026Y-86038728D01*
X169459443Y-86038000D01*
X169540557Y-86038000D01*
X169607596Y-86057685D01*
G37*
%TD.AperFunction*%
%TA.AperFunction,Conductor*%
G36*
X154342539Y-85030184D02*
G01*
X154388294Y-85082988D01*
X154399500Y-85134499D01*
X154399500Y-87913330D01*
X154399499Y-87913348D01*
X154399499Y-88079054D01*
X154399498Y-88079054D01*
X154440423Y-88231785D01*
X154463169Y-88271182D01*
X154469358Y-88281900D01*
X154469359Y-88281904D01*
X154469360Y-88281904D01*
X154491131Y-88319614D01*
X154519479Y-88368714D01*
X154519481Y-88368717D01*
X154638349Y-88487585D01*
X154638354Y-88487589D01*
X155927730Y-89776966D01*
X155927732Y-89776967D01*
X155927736Y-89776970D01*
X156010663Y-89824847D01*
X156064662Y-89856023D01*
X156217389Y-89896947D01*
X156217391Y-89896947D01*
X156383100Y-89896947D01*
X156383116Y-89896946D01*
X161694113Y-89896946D01*
X161761152Y-89916631D01*
X161781794Y-89933265D01*
X162500000Y-90651471D01*
X162500001Y-90651471D01*
X163218206Y-89933265D01*
X163279529Y-89899780D01*
X163305887Y-89896946D01*
X165668908Y-89896946D01*
X165735947Y-89916631D01*
X165781702Y-89969435D01*
X165791646Y-90038593D01*
X165785090Y-90064279D01*
X165755908Y-90142517D01*
X165749501Y-90202116D01*
X165749501Y-90202123D01*
X165749500Y-90202135D01*
X165749500Y-92123628D01*
X165729815Y-92190667D01*
X165713181Y-92211309D01*
X165511310Y-92413181D01*
X165449987Y-92446666D01*
X165423629Y-92449500D01*
X164187307Y-92449500D01*
X164120268Y-92429815D01*
X164074513Y-92377011D01*
X164064569Y-92307853D01*
X164079176Y-92265646D01*
X164079102Y-92265611D01*
X164079409Y-92264972D01*
X164079918Y-92263503D01*
X164081117Y-92261426D01*
X164176941Y-92017270D01*
X164235306Y-91761550D01*
X164235307Y-91761545D01*
X164254907Y-91500004D01*
X164254907Y-91499995D01*
X164235307Y-91238454D01*
X164235306Y-91238449D01*
X164176944Y-90982745D01*
X164176942Y-90982738D01*
X164089243Y-90759283D01*
X163101044Y-91747481D01*
X163125021Y-91689598D01*
X163150000Y-91564019D01*
X163150000Y-91435981D01*
X163125021Y-91310402D01*
X163076022Y-91192110D01*
X163004888Y-91085649D01*
X162914351Y-90995112D01*
X162807890Y-90923978D01*
X162689598Y-90874979D01*
X162564019Y-90850000D01*
X162435981Y-90850000D01*
X162310402Y-90874979D01*
X162192110Y-90923978D01*
X162085649Y-90995112D01*
X161995112Y-91085649D01*
X161923978Y-91192110D01*
X161874979Y-91310402D01*
X161850000Y-91435981D01*
X161850000Y-91564019D01*
X161874979Y-91689598D01*
X161898956Y-91747484D01*
X160910755Y-90759283D01*
X160910754Y-90759283D01*
X160823058Y-90982729D01*
X160764693Y-91238449D01*
X160764692Y-91238454D01*
X160745093Y-91499995D01*
X160745093Y-91500004D01*
X160764692Y-91761545D01*
X160764693Y-91761550D01*
X160823058Y-92017270D01*
X160918882Y-92261426D01*
X160920082Y-92263503D01*
X160920284Y-92264335D01*
X160920898Y-92265611D01*
X160920625Y-92265742D01*
X160936552Y-92331403D01*
X160913698Y-92397430D01*
X160858776Y-92440619D01*
X160812693Y-92449500D01*
X160576371Y-92449500D01*
X160509332Y-92429815D01*
X160488690Y-92413181D01*
X159095059Y-91019550D01*
X159095039Y-91019528D01*
X158984794Y-90909283D01*
X158984790Y-90909280D01*
X158860238Y-90826056D01*
X158860229Y-90826051D01*
X158721830Y-90768725D01*
X158721822Y-90768723D01*
X158574907Y-90739500D01*
X158574903Y-90739500D01*
X151409097Y-90739500D01*
X151342058Y-90719815D01*
X151296303Y-90667011D01*
X151286359Y-90597853D01*
X151315384Y-90534297D01*
X151321416Y-90527819D01*
X151952289Y-89896946D01*
X153858506Y-87990727D01*
X153858511Y-87990724D01*
X153868714Y-87980520D01*
X153868716Y-87980520D01*
X153980520Y-87868716D01*
X154059577Y-87731784D01*
X154094318Y-87602128D01*
X154100500Y-87579058D01*
X154100500Y-87420943D01*
X154100500Y-85134499D01*
X154120185Y-85067460D01*
X154172989Y-85021705D01*
X154224500Y-85010499D01*
X154275500Y-85010499D01*
X154342539Y-85030184D01*
G37*
%TD.AperFunction*%
%TA.AperFunction,Conductor*%
G36*
X162310402Y-92125021D02*
G01*
X162435981Y-92150000D01*
X162564019Y-92150000D01*
X162689598Y-92125021D01*
X162747481Y-92101044D01*
X162587680Y-92260846D01*
X162526357Y-92294331D01*
X162456665Y-92289347D01*
X162412318Y-92260846D01*
X162252515Y-92101043D01*
X162310402Y-92125021D01*
G37*
%TD.AperFunction*%
%TA.AperFunction,Conductor*%
G36*
X157047048Y-88207625D02*
G01*
X157069517Y-88245494D01*
X157097163Y-88319614D01*
X157097165Y-88319619D01*
X157097168Y-88319625D01*
X157130653Y-88380948D01*
X157216877Y-88496129D01*
X157216879Y-88496131D01*
X157218005Y-88497635D01*
X157242422Y-88563099D01*
X157227570Y-88631372D01*
X157178165Y-88680778D01*
X157118738Y-88695946D01*
X156859154Y-88695946D01*
X156792115Y-88676261D01*
X156746360Y-88623457D01*
X156736416Y-88554299D01*
X156746360Y-88520434D01*
X156785352Y-88435053D01*
X156802338Y-88397861D01*
X156822023Y-88330822D01*
X156822024Y-88330818D01*
X156830598Y-88271181D01*
X156859623Y-88207626D01*
X156918400Y-88169851D01*
X156988270Y-88169851D01*
X157047048Y-88207625D01*
G37*
%TD.AperFunction*%
%TA.AperFunction,Conductor*%
G36*
X146606942Y-69270185D02*
G01*
X146627584Y-69286819D01*
X147169298Y-69828533D01*
X147202783Y-69889856D01*
X147204837Y-69902330D01*
X147214630Y-69989249D01*
X147214631Y-69989254D01*
X147214632Y-69989255D01*
X147222538Y-70011849D01*
X147274210Y-70159521D01*
X147355387Y-70288713D01*
X147370184Y-70312262D01*
X147497738Y-70439816D01*
X147557685Y-70477483D01*
X147639103Y-70528642D01*
X147650478Y-70535789D01*
X147820739Y-70595366D01*
X147820745Y-70595368D01*
X147820750Y-70595369D01*
X147999996Y-70615565D01*
X148000000Y-70615565D01*
X148000004Y-70615565D01*
X148179249Y-70595369D01*
X148179251Y-70595368D01*
X148179255Y-70595368D01*
X148179258Y-70595366D01*
X148179262Y-70595366D01*
X148234545Y-70576022D01*
X148304324Y-70572460D01*
X148364951Y-70607188D01*
X148397179Y-70669182D01*
X148399500Y-70693063D01*
X148399500Y-71687870D01*
X148399501Y-71687876D01*
X148405908Y-71747481D01*
X148418659Y-71781669D01*
X148423642Y-71851361D01*
X148418659Y-71868331D01*
X148405908Y-71902518D01*
X148400964Y-71948507D01*
X148399501Y-71962123D01*
X148399500Y-71962135D01*
X148399500Y-72957870D01*
X148399501Y-72957876D01*
X148405908Y-73017481D01*
X148418659Y-73051669D01*
X148423642Y-73121361D01*
X148418659Y-73138331D01*
X148405908Y-73172518D01*
X148399501Y-73232116D01*
X148399501Y-73232123D01*
X148399500Y-73232135D01*
X148399500Y-74227870D01*
X148399501Y-74227876D01*
X148405908Y-74287481D01*
X148418659Y-74321669D01*
X148423642Y-74391361D01*
X148418659Y-74408331D01*
X148405908Y-74442518D01*
X148399501Y-74502116D01*
X148399501Y-74502123D01*
X148399500Y-74502135D01*
X148399500Y-75497870D01*
X148399501Y-75497876D01*
X148405908Y-75557481D01*
X148418659Y-75591669D01*
X148423642Y-75661361D01*
X148418659Y-75678331D01*
X148405908Y-75712518D01*
X148401170Y-75756593D01*
X148399501Y-75772123D01*
X148399500Y-75772135D01*
X148399500Y-76767870D01*
X148399501Y-76767876D01*
X148405908Y-76827481D01*
X148418659Y-76861669D01*
X148423642Y-76931361D01*
X148418659Y-76948331D01*
X148405908Y-76982518D01*
X148399501Y-77042116D01*
X148399501Y-77042123D01*
X148399500Y-77042135D01*
X148399500Y-78037870D01*
X148399501Y-78037876D01*
X148405908Y-78097481D01*
X148418659Y-78131669D01*
X148423642Y-78201361D01*
X148418659Y-78218331D01*
X148405908Y-78252518D01*
X148399523Y-78311910D01*
X148399501Y-78312123D01*
X148399500Y-78312135D01*
X148399500Y-79307870D01*
X148399501Y-79307876D01*
X148405908Y-79367481D01*
X148418659Y-79401669D01*
X148423642Y-79471361D01*
X148418659Y-79488331D01*
X148405908Y-79522518D01*
X148400749Y-79570506D01*
X148399501Y-79582123D01*
X148399500Y-79582135D01*
X148399500Y-80577870D01*
X148399501Y-80577876D01*
X148405908Y-80637481D01*
X148418659Y-80671669D01*
X148423642Y-80741361D01*
X148418659Y-80758331D01*
X148405908Y-80792518D01*
X148401170Y-80836593D01*
X148399501Y-80852123D01*
X148399500Y-80852135D01*
X148399500Y-81847870D01*
X148399501Y-81847876D01*
X148405908Y-81907481D01*
X148418659Y-81941669D01*
X148423642Y-82011361D01*
X148418659Y-82028331D01*
X148405908Y-82062518D01*
X148400446Y-82113326D01*
X148399501Y-82122123D01*
X148399500Y-82122135D01*
X148399500Y-83117870D01*
X148399501Y-83117876D01*
X148405908Y-83177481D01*
X148418659Y-83211669D01*
X148423642Y-83281361D01*
X148418659Y-83298331D01*
X148405908Y-83332518D01*
X148401522Y-83373321D01*
X148399501Y-83392123D01*
X148399500Y-83392135D01*
X148399500Y-84387870D01*
X148399501Y-84387876D01*
X148405908Y-84447483D01*
X148456202Y-84582328D01*
X148456206Y-84582335D01*
X148542452Y-84697544D01*
X148542455Y-84697547D01*
X148657664Y-84783793D01*
X148657671Y-84783797D01*
X148792517Y-84834091D01*
X148792516Y-84834091D01*
X148799444Y-84834835D01*
X148852127Y-84840500D01*
X149699900Y-84840499D01*
X149766939Y-84860183D01*
X149787581Y-84876817D01*
X149863181Y-84952416D01*
X149896666Y-85013739D01*
X149899500Y-85040098D01*
X149899500Y-85979902D01*
X149879815Y-86046941D01*
X149863181Y-86067583D01*
X148763530Y-87167233D01*
X148702207Y-87200718D01*
X148643756Y-87199327D01*
X148515413Y-87164938D01*
X148515403Y-87164936D01*
X148280001Y-87144341D01*
X148279999Y-87144341D01*
X148044596Y-87164936D01*
X148044586Y-87164938D01*
X147816344Y-87226094D01*
X147816335Y-87226098D01*
X147602171Y-87325964D01*
X147602169Y-87325965D01*
X147410623Y-87460087D01*
X147344417Y-87482414D01*
X147276650Y-87465404D01*
X147228837Y-87414456D01*
X147215500Y-87358512D01*
X147215500Y-86454141D01*
X147235185Y-86387102D01*
X147287989Y-86341347D01*
X147296149Y-86337966D01*
X147307331Y-86333796D01*
X147321434Y-86323239D01*
X147361038Y-86293591D01*
X147422546Y-86247546D01*
X147508796Y-86132331D01*
X147559091Y-85997483D01*
X147565500Y-85937873D01*
X147565499Y-84342128D01*
X147559091Y-84282517D01*
X147541413Y-84235121D01*
X147508797Y-84147671D01*
X147508793Y-84147664D01*
X147422547Y-84032455D01*
X147422544Y-84032452D01*
X147307335Y-83946206D01*
X147307328Y-83946202D01*
X147172482Y-83895908D01*
X147172483Y-83895908D01*
X147112883Y-83889501D01*
X147112881Y-83889500D01*
X147112873Y-83889500D01*
X147112864Y-83889500D01*
X146117129Y-83889500D01*
X146117123Y-83889501D01*
X146057518Y-83895908D01*
X146023331Y-83908659D01*
X145953639Y-83913642D01*
X145936669Y-83908659D01*
X145919140Y-83902121D01*
X145902483Y-83895909D01*
X145902482Y-83895908D01*
X145842883Y-83889501D01*
X145842881Y-83889500D01*
X145842873Y-83889500D01*
X145842864Y-83889500D01*
X144847129Y-83889500D01*
X144847123Y-83889501D01*
X144787518Y-83895908D01*
X144753331Y-83908659D01*
X144683639Y-83913642D01*
X144666669Y-83908659D01*
X144649140Y-83902121D01*
X144632483Y-83895909D01*
X144632482Y-83895908D01*
X144572883Y-83889501D01*
X144572881Y-83889500D01*
X144572873Y-83889500D01*
X144572864Y-83889500D01*
X143577129Y-83889500D01*
X143577123Y-83889501D01*
X143517518Y-83895908D01*
X143483331Y-83908659D01*
X143413639Y-83913642D01*
X143396669Y-83908659D01*
X143379140Y-83902121D01*
X143362483Y-83895909D01*
X143362482Y-83895908D01*
X143302883Y-83889501D01*
X143302881Y-83889500D01*
X143302873Y-83889500D01*
X143302864Y-83889500D01*
X142307129Y-83889500D01*
X142307123Y-83889501D01*
X142247518Y-83895908D01*
X142213331Y-83908659D01*
X142143639Y-83913642D01*
X142126669Y-83908659D01*
X142109140Y-83902121D01*
X142092483Y-83895909D01*
X142092482Y-83895908D01*
X142032883Y-83889501D01*
X142032881Y-83889500D01*
X142032873Y-83889500D01*
X142032864Y-83889500D01*
X141037129Y-83889500D01*
X141037123Y-83889501D01*
X140977518Y-83895908D01*
X140943331Y-83908659D01*
X140873639Y-83913642D01*
X140856669Y-83908659D01*
X140839140Y-83902121D01*
X140822483Y-83895909D01*
X140822482Y-83895908D01*
X140762883Y-83889501D01*
X140762881Y-83889500D01*
X140762873Y-83889500D01*
X140762864Y-83889500D01*
X139767129Y-83889500D01*
X139767123Y-83889501D01*
X139707518Y-83895908D01*
X139673331Y-83908659D01*
X139603639Y-83913642D01*
X139586669Y-83908659D01*
X139569140Y-83902121D01*
X139552483Y-83895909D01*
X139552482Y-83895908D01*
X139492883Y-83889501D01*
X139492881Y-83889500D01*
X139492873Y-83889500D01*
X139492864Y-83889500D01*
X138497129Y-83889500D01*
X138497123Y-83889501D01*
X138437518Y-83895908D01*
X138403331Y-83908659D01*
X138333639Y-83913642D01*
X138316669Y-83908659D01*
X138299140Y-83902121D01*
X138282483Y-83895909D01*
X138282482Y-83895908D01*
X138222883Y-83889501D01*
X138222881Y-83889500D01*
X138222873Y-83889500D01*
X138222864Y-83889500D01*
X137227129Y-83889500D01*
X137227123Y-83889501D01*
X137167518Y-83895908D01*
X137133331Y-83908659D01*
X137063639Y-83913642D01*
X137046669Y-83908659D01*
X137029140Y-83902121D01*
X137012483Y-83895909D01*
X137012482Y-83895908D01*
X136952883Y-83889501D01*
X136952881Y-83889500D01*
X136952873Y-83889500D01*
X136952864Y-83889500D01*
X135957129Y-83889500D01*
X135957123Y-83889501D01*
X135897520Y-83895908D01*
X135897517Y-83895908D01*
X135897517Y-83895909D01*
X135862620Y-83908925D01*
X135862617Y-83908926D01*
X135792925Y-83913909D01*
X135775952Y-83908925D01*
X135742379Y-83896403D01*
X135742372Y-83896401D01*
X135682844Y-83890000D01*
X135635000Y-83890000D01*
X135635000Y-84007818D01*
X135615315Y-84074857D01*
X135610267Y-84082129D01*
X135561204Y-84147668D01*
X135561202Y-84147671D01*
X135510908Y-84282517D01*
X135504584Y-84341343D01*
X135504500Y-84342127D01*
X135504500Y-85134499D01*
X135504501Y-85466000D01*
X135484816Y-85533039D01*
X135432013Y-85578794D01*
X135380501Y-85590000D01*
X134235000Y-85590000D01*
X134235000Y-85937844D01*
X134241401Y-85997372D01*
X134241403Y-85997379D01*
X134291645Y-86132086D01*
X134291649Y-86132093D01*
X134305945Y-86151190D01*
X134330362Y-86216654D01*
X134315510Y-86284927D01*
X134266105Y-86334332D01*
X134206678Y-86349500D01*
X132921469Y-86349500D01*
X132854430Y-86329815D01*
X132833788Y-86313181D01*
X131636819Y-85116212D01*
X131603334Y-85054889D01*
X131600500Y-85028531D01*
X131600500Y-84964499D01*
X131620185Y-84897460D01*
X131672989Y-84851705D01*
X131724500Y-84840499D01*
X132947871Y-84840499D01*
X132947872Y-84840499D01*
X133007483Y-84834091D01*
X133142331Y-84783796D01*
X133257546Y-84697546D01*
X133263195Y-84690000D01*
X134235000Y-84690000D01*
X134735000Y-84690000D01*
X134735000Y-83890000D01*
X134687155Y-83890000D01*
X134627627Y-83896401D01*
X134627620Y-83896403D01*
X134492913Y-83946645D01*
X134492906Y-83946649D01*
X134377812Y-84032809D01*
X134377809Y-84032812D01*
X134291649Y-84147906D01*
X134291645Y-84147913D01*
X134241403Y-84282620D01*
X134241401Y-84282627D01*
X134235000Y-84342155D01*
X134235000Y-84690000D01*
X133263195Y-84690000D01*
X133343796Y-84582331D01*
X133394091Y-84447483D01*
X133400500Y-84387873D01*
X133400499Y-83392128D01*
X133394091Y-83332517D01*
X133381340Y-83298332D01*
X133376357Y-83228642D01*
X133381340Y-83211669D01*
X133394091Y-83177483D01*
X133400500Y-83117873D01*
X133400499Y-82122128D01*
X133394091Y-82062517D01*
X133381340Y-82028332D01*
X133376357Y-81958642D01*
X133381340Y-81941669D01*
X133394091Y-81907483D01*
X133400500Y-81847873D01*
X133400499Y-80852128D01*
X133394091Y-80792517D01*
X133381340Y-80758332D01*
X133376357Y-80688642D01*
X133381340Y-80671669D01*
X133394091Y-80637483D01*
X133400500Y-80577873D01*
X133400499Y-79582128D01*
X133394091Y-79522517D01*
X133381340Y-79488332D01*
X133376357Y-79418642D01*
X133381340Y-79401669D01*
X133394091Y-79367483D01*
X133400500Y-79307873D01*
X133400499Y-78312128D01*
X133394091Y-78252517D01*
X133381340Y-78218332D01*
X133376357Y-78148642D01*
X133381340Y-78131669D01*
X133394091Y-78097483D01*
X133400500Y-78037873D01*
X133400499Y-77042128D01*
X133394091Y-76982517D01*
X133381962Y-76950000D01*
X137050000Y-76950000D01*
X137050000Y-76997844D01*
X137056401Y-77057372D01*
X137056403Y-77057379D01*
X137106645Y-77192086D01*
X137106649Y-77192093D01*
X137192809Y-77307187D01*
X137192812Y-77307190D01*
X137307906Y-77393350D01*
X137307913Y-77393354D01*
X137442620Y-77443596D01*
X137442627Y-77443598D01*
X137502155Y-77449999D01*
X137502172Y-77450000D01*
X137550000Y-77450000D01*
X137550000Y-76950000D01*
X138450000Y-76950000D01*
X138450000Y-77450000D01*
X138497828Y-77450000D01*
X138497844Y-77449999D01*
X138557372Y-77443598D01*
X138557376Y-77443597D01*
X138656666Y-77406564D01*
X138726358Y-77401580D01*
X138743334Y-77406564D01*
X138842623Y-77443597D01*
X138842627Y-77443598D01*
X138902155Y-77449999D01*
X138902172Y-77450000D01*
X138950000Y-77450000D01*
X138950000Y-76950000D01*
X139850000Y-76950000D01*
X139850000Y-77450000D01*
X139897828Y-77450000D01*
X139897844Y-77449999D01*
X139957372Y-77443598D01*
X139957376Y-77443597D01*
X140056666Y-77406564D01*
X140126358Y-77401580D01*
X140143334Y-77406564D01*
X140242623Y-77443597D01*
X140242627Y-77443598D01*
X140302155Y-77449999D01*
X140302172Y-77450000D01*
X140350000Y-77450000D01*
X140350000Y-76950000D01*
X141250000Y-76950000D01*
X141250000Y-77450000D01*
X141297828Y-77450000D01*
X141297844Y-77449999D01*
X141357372Y-77443598D01*
X141357379Y-77443596D01*
X141492086Y-77393354D01*
X141492093Y-77393350D01*
X141607187Y-77307190D01*
X141607190Y-77307187D01*
X141693350Y-77192093D01*
X141693354Y-77192086D01*
X141743596Y-77057379D01*
X141743598Y-77057372D01*
X141749999Y-76997844D01*
X141750000Y-76997827D01*
X141750000Y-76950000D01*
X141250000Y-76950000D01*
X140350000Y-76950000D01*
X139850000Y-76950000D01*
X138950000Y-76950000D01*
X138450000Y-76950000D01*
X137550000Y-76950000D01*
X137050000Y-76950000D01*
X133381962Y-76950000D01*
X133381340Y-76948332D01*
X133376357Y-76878642D01*
X133381340Y-76861669D01*
X133394091Y-76827483D01*
X133400500Y-76767873D01*
X133400500Y-76519891D01*
X138600000Y-76519891D01*
X138615224Y-76556645D01*
X138643355Y-76584776D01*
X138680109Y-76600000D01*
X138719891Y-76600000D01*
X138756645Y-76584776D01*
X138784776Y-76556645D01*
X138800000Y-76519891D01*
X140000000Y-76519891D01*
X140015224Y-76556645D01*
X140043355Y-76584776D01*
X140080109Y-76600000D01*
X140119891Y-76600000D01*
X140156645Y-76584776D01*
X140184776Y-76556645D01*
X140200000Y-76519891D01*
X140200000Y-76480109D01*
X140184776Y-76443355D01*
X140156645Y-76415224D01*
X140119891Y-76400000D01*
X140080109Y-76400000D01*
X140043355Y-76415224D01*
X140015224Y-76443355D01*
X140000000Y-76480109D01*
X140000000Y-76519891D01*
X138800000Y-76519891D01*
X138800000Y-76480109D01*
X138784776Y-76443355D01*
X138756645Y-76415224D01*
X138719891Y-76400000D01*
X138680109Y-76400000D01*
X138643355Y-76415224D01*
X138615224Y-76443355D01*
X138600000Y-76480109D01*
X138600000Y-76519891D01*
X133400500Y-76519891D01*
X133400499Y-75772128D01*
X133394091Y-75712517D01*
X133381340Y-75678332D01*
X133376357Y-75608642D01*
X133381340Y-75591669D01*
X133394091Y-75557483D01*
X133394896Y-75550000D01*
X137050000Y-75550000D01*
X137050000Y-75597844D01*
X137056401Y-75657372D01*
X137056403Y-75657383D01*
X137093434Y-75756668D01*
X137098418Y-75826360D01*
X137093434Y-75843332D01*
X137056403Y-75942616D01*
X137056401Y-75942627D01*
X137050000Y-76002155D01*
X137050000Y-76050000D01*
X137550000Y-76050000D01*
X137550000Y-75819891D01*
X137900000Y-75819891D01*
X137915224Y-75856645D01*
X137943355Y-75884776D01*
X137980109Y-75900000D01*
X138019891Y-75900000D01*
X138056645Y-75884776D01*
X138084776Y-75856645D01*
X138097579Y-75825736D01*
X138450000Y-75825736D01*
X138674264Y-76050000D01*
X138725736Y-76050000D01*
X138725736Y-76049999D01*
X138950000Y-75825735D01*
X138950000Y-75819891D01*
X139300000Y-75819891D01*
X139315224Y-75856645D01*
X139343355Y-75884776D01*
X139380109Y-75900000D01*
X139419891Y-75900000D01*
X139456645Y-75884776D01*
X139484776Y-75856645D01*
X139497579Y-75825736D01*
X139850000Y-75825736D01*
X140074264Y-76050000D01*
X140125736Y-76050000D01*
X140125736Y-76049999D01*
X140350000Y-75825735D01*
X140350000Y-75819891D01*
X140700000Y-75819891D01*
X140715224Y-75856645D01*
X140743355Y-75884776D01*
X140780109Y-75900000D01*
X140819891Y-75900000D01*
X140856645Y-75884776D01*
X140884776Y-75856645D01*
X140900000Y-75819891D01*
X140900000Y-75780109D01*
X140884776Y-75743355D01*
X140856645Y-75715224D01*
X140819891Y-75700000D01*
X140780109Y-75700000D01*
X140743355Y-75715224D01*
X140715224Y-75743355D01*
X140700000Y-75780109D01*
X140700000Y-75819891D01*
X140350000Y-75819891D01*
X140350000Y-75774264D01*
X140125736Y-75550000D01*
X141250000Y-75550000D01*
X141250000Y-76050000D01*
X141750000Y-76050000D01*
X141750000Y-76002172D01*
X141749999Y-76002155D01*
X141743598Y-75942627D01*
X141743597Y-75942623D01*
X141706564Y-75843334D01*
X141701580Y-75773642D01*
X141706564Y-75756666D01*
X141743597Y-75657376D01*
X141743598Y-75657372D01*
X141749999Y-75597844D01*
X141750000Y-75597827D01*
X141750000Y-75550000D01*
X141250000Y-75550000D01*
X140125736Y-75550000D01*
X140074263Y-75550000D01*
X139850000Y-75774263D01*
X139850000Y-75825736D01*
X139497579Y-75825736D01*
X139500000Y-75819891D01*
X139500000Y-75780109D01*
X139484776Y-75743355D01*
X139456645Y-75715224D01*
X139419891Y-75700000D01*
X139380109Y-75700000D01*
X139343355Y-75715224D01*
X139315224Y-75743355D01*
X139300000Y-75780109D01*
X139300000Y-75819891D01*
X138950000Y-75819891D01*
X138950000Y-75774264D01*
X138725736Y-75550000D01*
X138674263Y-75550000D01*
X138450000Y-75774263D01*
X138450000Y-75825736D01*
X138097579Y-75825736D01*
X138100000Y-75819891D01*
X138100000Y-75780109D01*
X138084776Y-75743355D01*
X138056645Y-75715224D01*
X138019891Y-75700000D01*
X137980109Y-75700000D01*
X137943355Y-75715224D01*
X137915224Y-75743355D01*
X137900000Y-75780109D01*
X137900000Y-75819891D01*
X137550000Y-75819891D01*
X137550000Y-75550000D01*
X137050000Y-75550000D01*
X133394896Y-75550000D01*
X133400500Y-75497873D01*
X133400500Y-75119891D01*
X138600000Y-75119891D01*
X138615224Y-75156645D01*
X138643355Y-75184776D01*
X138680109Y-75200000D01*
X138719891Y-75200000D01*
X138756645Y-75184776D01*
X138784776Y-75156645D01*
X138800000Y-75119891D01*
X140000000Y-75119891D01*
X140015224Y-75156645D01*
X140043355Y-75184776D01*
X140080109Y-75200000D01*
X140119891Y-75200000D01*
X140156645Y-75184776D01*
X140184776Y-75156645D01*
X140200000Y-75119891D01*
X140200000Y-75080109D01*
X140184776Y-75043355D01*
X140156645Y-75015224D01*
X140119891Y-75000000D01*
X140080109Y-75000000D01*
X140043355Y-75015224D01*
X140015224Y-75043355D01*
X140000000Y-75080109D01*
X140000000Y-75119891D01*
X138800000Y-75119891D01*
X138800000Y-75080109D01*
X138784776Y-75043355D01*
X138756645Y-75015224D01*
X138719891Y-75000000D01*
X138680109Y-75000000D01*
X138643355Y-75015224D01*
X138615224Y-75043355D01*
X138600000Y-75080109D01*
X138600000Y-75119891D01*
X133400500Y-75119891D01*
X133400499Y-74502128D01*
X133394091Y-74442517D01*
X133381340Y-74408332D01*
X133376357Y-74338642D01*
X133381340Y-74321669D01*
X133394091Y-74287483D01*
X133400500Y-74227873D01*
X133400500Y-74150000D01*
X137050000Y-74150000D01*
X137050000Y-74197844D01*
X137056401Y-74257372D01*
X137056403Y-74257383D01*
X137093434Y-74356668D01*
X137098418Y-74426360D01*
X137093434Y-74443332D01*
X137056403Y-74542616D01*
X137056401Y-74542627D01*
X137050000Y-74602155D01*
X137050000Y-74650000D01*
X137550000Y-74650000D01*
X137550000Y-74419891D01*
X137900000Y-74419891D01*
X137915224Y-74456645D01*
X137943355Y-74484776D01*
X137980109Y-74500000D01*
X138019891Y-74500000D01*
X138056645Y-74484776D01*
X138084776Y-74456645D01*
X138097579Y-74425736D01*
X138450000Y-74425736D01*
X138674264Y-74650000D01*
X138725736Y-74650000D01*
X138725736Y-74649999D01*
X138950000Y-74425735D01*
X138950000Y-74419891D01*
X139300000Y-74419891D01*
X139315224Y-74456645D01*
X139343355Y-74484776D01*
X139380109Y-74500000D01*
X139419891Y-74500000D01*
X139456645Y-74484776D01*
X139484776Y-74456645D01*
X139497579Y-74425736D01*
X139850000Y-74425736D01*
X140074264Y-74650000D01*
X140125736Y-74650000D01*
X140125736Y-74649999D01*
X140350000Y-74425735D01*
X140350000Y-74419891D01*
X140700000Y-74419891D01*
X140715224Y-74456645D01*
X140743355Y-74484776D01*
X140780109Y-74500000D01*
X140819891Y-74500000D01*
X140856645Y-74484776D01*
X140884776Y-74456645D01*
X140900000Y-74419891D01*
X140900000Y-74380109D01*
X140884776Y-74343355D01*
X140856645Y-74315224D01*
X140819891Y-74300000D01*
X140780109Y-74300000D01*
X140743355Y-74315224D01*
X140715224Y-74343355D01*
X140700000Y-74380109D01*
X140700000Y-74419891D01*
X140350000Y-74419891D01*
X140350000Y-74374264D01*
X140125736Y-74150000D01*
X141250000Y-74150000D01*
X141250000Y-74650000D01*
X141750000Y-74650000D01*
X141750000Y-74602172D01*
X141749999Y-74602155D01*
X141743598Y-74542627D01*
X141743597Y-74542623D01*
X141706564Y-74443334D01*
X141701580Y-74373642D01*
X141706564Y-74356666D01*
X141743597Y-74257376D01*
X141743598Y-74257372D01*
X141749999Y-74197844D01*
X141750000Y-74197827D01*
X141750000Y-74150000D01*
X141250000Y-74150000D01*
X140125736Y-74150000D01*
X140074263Y-74150000D01*
X139850000Y-74374263D01*
X139850000Y-74425736D01*
X139497579Y-74425736D01*
X139500000Y-74419891D01*
X139500000Y-74380109D01*
X139484776Y-74343355D01*
X139456645Y-74315224D01*
X139419891Y-74300000D01*
X139380109Y-74300000D01*
X139343355Y-74315224D01*
X139315224Y-74343355D01*
X139300000Y-74380109D01*
X139300000Y-74419891D01*
X138950000Y-74419891D01*
X138950000Y-74374264D01*
X138725736Y-74150000D01*
X138674263Y-74150000D01*
X138450000Y-74374263D01*
X138450000Y-74425736D01*
X138097579Y-74425736D01*
X138100000Y-74419891D01*
X138100000Y-74380109D01*
X138084776Y-74343355D01*
X138056645Y-74315224D01*
X138019891Y-74300000D01*
X137980109Y-74300000D01*
X137943355Y-74315224D01*
X137915224Y-74343355D01*
X137900000Y-74380109D01*
X137900000Y-74419891D01*
X137550000Y-74419891D01*
X137550000Y-74150000D01*
X137050000Y-74150000D01*
X133400500Y-74150000D01*
X133400500Y-73719891D01*
X138600000Y-73719891D01*
X138615224Y-73756645D01*
X138643355Y-73784776D01*
X138680109Y-73800000D01*
X138719891Y-73800000D01*
X138756645Y-73784776D01*
X138784776Y-73756645D01*
X138800000Y-73719891D01*
X140000000Y-73719891D01*
X140015224Y-73756645D01*
X140043355Y-73784776D01*
X140080109Y-73800000D01*
X140119891Y-73800000D01*
X140156645Y-73784776D01*
X140184776Y-73756645D01*
X140200000Y-73719891D01*
X140200000Y-73680109D01*
X140184776Y-73643355D01*
X140156645Y-73615224D01*
X140119891Y-73600000D01*
X140080109Y-73600000D01*
X140043355Y-73615224D01*
X140015224Y-73643355D01*
X140000000Y-73680109D01*
X140000000Y-73719891D01*
X138800000Y-73719891D01*
X138800000Y-73680109D01*
X138784776Y-73643355D01*
X138756645Y-73615224D01*
X138719891Y-73600000D01*
X138680109Y-73600000D01*
X138643355Y-73615224D01*
X138615224Y-73643355D01*
X138600000Y-73680109D01*
X138600000Y-73719891D01*
X133400500Y-73719891D01*
X133400499Y-73250000D01*
X137050000Y-73250000D01*
X137550000Y-73250000D01*
X137550000Y-72750000D01*
X138450000Y-72750000D01*
X138450000Y-73250000D01*
X138950000Y-73250000D01*
X138950000Y-72750000D01*
X139850000Y-72750000D01*
X139850000Y-73250000D01*
X140350000Y-73250000D01*
X140350000Y-72750000D01*
X141250000Y-72750000D01*
X141250000Y-73250000D01*
X141750000Y-73250000D01*
X141750000Y-73202172D01*
X141749999Y-73202155D01*
X141743598Y-73142627D01*
X141743596Y-73142620D01*
X141693354Y-73007913D01*
X141693350Y-73007906D01*
X141607190Y-72892812D01*
X141607187Y-72892809D01*
X141492093Y-72806649D01*
X141492086Y-72806645D01*
X141357379Y-72756403D01*
X141357372Y-72756401D01*
X141297844Y-72750000D01*
X141250000Y-72750000D01*
X140350000Y-72750000D01*
X140302155Y-72750000D01*
X140242627Y-72756401D01*
X140242616Y-72756403D01*
X140143332Y-72793434D01*
X140073640Y-72798418D01*
X140056668Y-72793434D01*
X139957383Y-72756403D01*
X139957372Y-72756401D01*
X139897844Y-72750000D01*
X139850000Y-72750000D01*
X138950000Y-72750000D01*
X138902155Y-72750000D01*
X138842627Y-72756401D01*
X138842616Y-72756403D01*
X138743332Y-72793434D01*
X138673640Y-72798418D01*
X138656668Y-72793434D01*
X138557383Y-72756403D01*
X138557372Y-72756401D01*
X138497844Y-72750000D01*
X138450000Y-72750000D01*
X137550000Y-72750000D01*
X137502155Y-72750000D01*
X137442627Y-72756401D01*
X137442620Y-72756403D01*
X137307913Y-72806645D01*
X137307906Y-72806649D01*
X137192812Y-72892809D01*
X137192809Y-72892812D01*
X137106649Y-73007906D01*
X137106645Y-73007913D01*
X137056403Y-73142620D01*
X137056401Y-73142627D01*
X137050000Y-73202155D01*
X137050000Y-73250000D01*
X133400499Y-73250000D01*
X133400499Y-73232128D01*
X133394091Y-73172517D01*
X133381340Y-73138332D01*
X133376357Y-73068642D01*
X133381340Y-73051669D01*
X133394091Y-73017483D01*
X133400500Y-72957873D01*
X133400499Y-71962128D01*
X133394091Y-71902517D01*
X133381340Y-71868332D01*
X133376357Y-71798642D01*
X133381340Y-71781669D01*
X133394091Y-71747483D01*
X133400500Y-71687873D01*
X133400499Y-70692128D01*
X133394091Y-70632517D01*
X133381340Y-70598332D01*
X133376357Y-70528642D01*
X133381338Y-70511672D01*
X133394091Y-70477483D01*
X133400500Y-70417873D01*
X133400499Y-69422128D01*
X133396804Y-69387753D01*
X133409211Y-69318994D01*
X133456822Y-69267857D01*
X133520094Y-69250500D01*
X146539903Y-69250500D01*
X146606942Y-69270185D01*
G37*
%TD.AperFunction*%
%TA.AperFunction,Conductor*%
G36*
X157743039Y-82069685D02*
G01*
X157788794Y-82122489D01*
X157800000Y-82174000D01*
X157800000Y-83499499D01*
X157780315Y-83566538D01*
X157731096Y-83610587D01*
X157664571Y-83643580D01*
X157664552Y-83643591D01*
X157624290Y-83665898D01*
X157624269Y-83665910D01*
X157605086Y-83677712D01*
X157605071Y-83677721D01*
X157605068Y-83677724D01*
X157567023Y-83703589D01*
X157567021Y-83703591D01*
X157465286Y-83805322D01*
X157465280Y-83805329D01*
X157429311Y-83853377D01*
X157424393Y-83859948D01*
X157423477Y-83861171D01*
X157423418Y-83861250D01*
X157423405Y-83861266D01*
X157423403Y-83861270D01*
X157354451Y-83987548D01*
X157323870Y-84128132D01*
X157323869Y-84128140D01*
X157318885Y-84197830D01*
X157318885Y-84197833D01*
X157329149Y-84341343D01*
X157335540Y-84358479D01*
X157379431Y-84476152D01*
X157412916Y-84537475D01*
X157499140Y-84652656D01*
X157501174Y-84654690D01*
X157501636Y-84655537D01*
X157502043Y-84656006D01*
X157501941Y-84656094D01*
X157534664Y-84716008D01*
X157537500Y-84742378D01*
X157537500Y-85976000D01*
X157517815Y-86043039D01*
X157465011Y-86088794D01*
X157413500Y-86100000D01*
X156461500Y-86100000D01*
X156394461Y-86080315D01*
X156348706Y-86027511D01*
X156337500Y-85976000D01*
X156337500Y-84746999D01*
X156357185Y-84679960D01*
X156396400Y-84641462D01*
X156444392Y-84611861D01*
X156458043Y-84604578D01*
X156480574Y-84594307D01*
X156480573Y-84594307D01*
X156480585Y-84594302D01*
X156526187Y-84567248D01*
X156606185Y-84507288D01*
X156613174Y-84502050D01*
X156613176Y-84502048D01*
X156613176Y-84502047D01*
X156613180Y-84502045D01*
X156703322Y-84389902D01*
X156738900Y-84329769D01*
X156793796Y-84196775D01*
X156808999Y-84053700D01*
X156806419Y-83983878D01*
X156780699Y-83842317D01*
X156716137Y-83713735D01*
X156676219Y-83656393D01*
X156676218Y-83656392D01*
X156676215Y-83656389D01*
X156676214Y-83656387D01*
X156675885Y-83655995D01*
X156674770Y-83654840D01*
X156633349Y-83610460D01*
X156601997Y-83548019D01*
X156600000Y-83525853D01*
X156600000Y-82174000D01*
X156619685Y-82106961D01*
X156672489Y-82061206D01*
X156724000Y-82050000D01*
X157676000Y-82050000D01*
X157743039Y-82069685D01*
G37*
%TD.AperFunction*%
%TA.AperFunction,Conductor*%
G36*
X169628306Y-78120185D02*
G01*
X169674061Y-78172989D01*
X169678972Y-78185494D01*
X169690184Y-78219328D01*
X169690187Y-78219336D01*
X169721550Y-78270184D01*
X169782288Y-78368656D01*
X169906344Y-78492712D01*
X170055666Y-78584814D01*
X170222203Y-78639999D01*
X170324991Y-78650500D01*
X171675008Y-78650499D01*
X171777797Y-78639999D01*
X171944334Y-78584814D01*
X172093656Y-78492712D01*
X172217712Y-78368656D01*
X172269961Y-78283945D01*
X172321909Y-78237221D01*
X172390871Y-78225998D01*
X172454953Y-78253841D01*
X172493810Y-78311910D01*
X172499500Y-78349042D01*
X172499500Y-81551910D01*
X172479815Y-81618949D01*
X172427011Y-81664704D01*
X172357853Y-81674648D01*
X172294297Y-81645623D01*
X172269961Y-81617007D01*
X172217315Y-81531655D01*
X172093344Y-81407684D01*
X171944123Y-81315643D01*
X171944118Y-81315641D01*
X171777696Y-81260494D01*
X171777689Y-81260493D01*
X171674985Y-81250000D01*
X171600000Y-81250000D01*
X171600000Y-83675000D01*
X171674973Y-83675000D01*
X171674985Y-83674999D01*
X171777689Y-83664506D01*
X171777696Y-83664505D01*
X171944118Y-83609358D01*
X171944123Y-83609356D01*
X172093344Y-83517315D01*
X172217317Y-83393342D01*
X172269961Y-83307993D01*
X172321909Y-83261268D01*
X172390871Y-83250045D01*
X172454954Y-83277889D01*
X172493810Y-83335957D01*
X172499500Y-83373089D01*
X172499500Y-84525958D01*
X172479815Y-84592997D01*
X172427011Y-84638752D01*
X172357853Y-84648696D01*
X172294297Y-84619671D01*
X172269962Y-84591056D01*
X172217711Y-84506345D01*
X172093655Y-84382289D01*
X172093651Y-84382286D01*
X171944337Y-84290187D01*
X171944335Y-84290186D01*
X171861065Y-84262593D01*
X171777797Y-84235001D01*
X171777795Y-84235000D01*
X171675015Y-84224500D01*
X171675008Y-84224500D01*
X170324992Y-84224500D01*
X170324984Y-84224500D01*
X170222204Y-84235000D01*
X170222203Y-84235001D01*
X170055664Y-84290186D01*
X170055662Y-84290187D01*
X169906348Y-84382286D01*
X169906344Y-84382289D01*
X169782289Y-84506344D01*
X169782286Y-84506348D01*
X169690187Y-84655662D01*
X169690186Y-84655664D01*
X169678809Y-84690000D01*
X169661453Y-84742378D01*
X169658263Y-84752004D01*
X169618491Y-84809449D01*
X169553975Y-84836272D01*
X169540557Y-84837000D01*
X169413768Y-84837000D01*
X169346729Y-84817315D01*
X169308229Y-84778097D01*
X169288278Y-84745751D01*
X169217712Y-84631344D01*
X169093656Y-84507288D01*
X168944334Y-84415186D01*
X168777797Y-84360001D01*
X168777795Y-84360000D01*
X168675010Y-84349500D01*
X167324998Y-84349500D01*
X167324980Y-84349501D01*
X167237101Y-84358479D01*
X167168408Y-84345709D01*
X167117524Y-84297828D01*
X167100500Y-84235121D01*
X167100500Y-84200097D01*
X167120185Y-84133058D01*
X167136819Y-84112416D01*
X167305519Y-83943716D01*
X167479500Y-83769735D01*
X167662416Y-83586817D01*
X167723739Y-83553333D01*
X167750097Y-83550499D01*
X168675002Y-83550499D01*
X168675008Y-83550499D01*
X168777797Y-83539999D01*
X168944334Y-83484814D01*
X169093656Y-83392712D01*
X169217712Y-83268656D01*
X169309814Y-83119334D01*
X169328647Y-83062500D01*
X169633942Y-83062500D01*
X169635494Y-83077696D01*
X169690641Y-83244118D01*
X169690643Y-83244123D01*
X169782684Y-83393344D01*
X169906655Y-83517315D01*
X170055876Y-83609356D01*
X170055881Y-83609358D01*
X170222303Y-83664505D01*
X170222310Y-83664506D01*
X170325014Y-83674999D01*
X170325027Y-83675000D01*
X170400000Y-83675000D01*
X170400000Y-83062500D01*
X169633942Y-83062500D01*
X169328647Y-83062500D01*
X169364999Y-82952797D01*
X169375500Y-82850009D01*
X169375499Y-81949992D01*
X169375442Y-81949438D01*
X169366562Y-81862500D01*
X169633942Y-81862500D01*
X170400000Y-81862500D01*
X170400000Y-81250000D01*
X170325014Y-81250000D01*
X170222310Y-81260493D01*
X170222303Y-81260494D01*
X170055881Y-81315641D01*
X170055876Y-81315643D01*
X169906655Y-81407684D01*
X169782684Y-81531655D01*
X169690643Y-81680876D01*
X169690641Y-81680881D01*
X169635494Y-81847303D01*
X169633942Y-81862499D01*
X169633942Y-81862500D01*
X169366562Y-81862500D01*
X169364999Y-81847203D01*
X169364998Y-81847200D01*
X169309814Y-81680666D01*
X169217712Y-81531344D01*
X169093656Y-81407288D01*
X168944334Y-81315186D01*
X168777797Y-81260001D01*
X168777795Y-81260000D01*
X168675010Y-81249500D01*
X167324998Y-81249500D01*
X167324981Y-81249501D01*
X167222203Y-81260000D01*
X167222200Y-81260001D01*
X167168504Y-81277795D01*
X167098676Y-81280197D01*
X167038634Y-81244465D01*
X167007441Y-81181945D01*
X167005500Y-81160089D01*
X167005500Y-78739910D01*
X167025185Y-78672871D01*
X167077989Y-78627116D01*
X167147147Y-78617172D01*
X167168492Y-78622201D01*
X167222203Y-78639999D01*
X167324991Y-78650500D01*
X168675008Y-78650499D01*
X168777797Y-78639999D01*
X168944334Y-78584814D01*
X169093656Y-78492712D01*
X169217712Y-78368656D01*
X169309814Y-78219334D01*
X169321028Y-78185494D01*
X169360801Y-78128050D01*
X169425317Y-78101228D01*
X169438733Y-78100500D01*
X169561267Y-78100500D01*
X169628306Y-78120185D01*
G37*
%TD.AperFunction*%
%TA.AperFunction,Conductor*%
G36*
X125496442Y-74469685D02*
G01*
X125517084Y-74486319D01*
X125563681Y-74532916D01*
X125597166Y-74594239D01*
X125600000Y-74620597D01*
X125600000Y-76199999D01*
X125674972Y-76199999D01*
X125674986Y-76199998D01*
X125777697Y-76189505D01*
X125944119Y-76134358D01*
X125944124Y-76134356D01*
X126093345Y-76042315D01*
X126217315Y-75918345D01*
X126309356Y-75769124D01*
X126309358Y-75769119D01*
X126366635Y-75596270D01*
X126368171Y-75596779D01*
X126397487Y-75542666D01*
X126458698Y-75508978D01*
X126528406Y-75513731D01*
X126573139Y-75542375D01*
X126667233Y-75636469D01*
X126700718Y-75697792D01*
X126699327Y-75756243D01*
X126664938Y-75884586D01*
X126664936Y-75884596D01*
X126644341Y-76119999D01*
X126644341Y-76120000D01*
X126664936Y-76355403D01*
X126664938Y-76355413D01*
X126726094Y-76583655D01*
X126726096Y-76583659D01*
X126726097Y-76583663D01*
X126814711Y-76773695D01*
X126825965Y-76797830D01*
X126825967Y-76797834D01*
X126929495Y-76945686D01*
X126955319Y-76982567D01*
X126961501Y-76991395D01*
X126961506Y-76991402D01*
X127128597Y-77158493D01*
X127128603Y-77158498D01*
X127314158Y-77288425D01*
X127357783Y-77343002D01*
X127364977Y-77412500D01*
X127333454Y-77474855D01*
X127314158Y-77491575D01*
X127128597Y-77621505D01*
X126961506Y-77788596D01*
X126825965Y-77982170D01*
X126825962Y-77982175D01*
X126823289Y-77987909D01*
X126777115Y-78040346D01*
X126710909Y-78059500D01*
X126508526Y-78059500D01*
X126441487Y-78039815D01*
X126420845Y-78023181D01*
X124461819Y-76064155D01*
X124428334Y-76002832D01*
X124425500Y-75976474D01*
X124425500Y-74574000D01*
X124445185Y-74506961D01*
X124497989Y-74461206D01*
X124549500Y-74450000D01*
X125429403Y-74450000D01*
X125496442Y-74469685D01*
G37*
%TD.AperFunction*%
%TA.AperFunction,Conductor*%
G36*
X161854177Y-68420185D02*
G01*
X161888711Y-68453375D01*
X161926462Y-68507289D01*
X162000713Y-68613331D01*
X162156669Y-68769287D01*
X162337337Y-68895792D01*
X162337339Y-68895793D01*
X162337342Y-68895795D01*
X162404127Y-68926937D01*
X162478404Y-68961573D01*
X162530844Y-69007745D01*
X162550000Y-69073955D01*
X162550000Y-71600000D01*
X162757828Y-71600000D01*
X162757844Y-71599999D01*
X162817372Y-71593598D01*
X162817379Y-71593596D01*
X162952086Y-71543354D01*
X162952093Y-71543350D01*
X163067186Y-71457190D01*
X163105793Y-71405620D01*
X163161727Y-71363749D01*
X163231419Y-71358765D01*
X163276184Y-71378356D01*
X163357593Y-71435359D01*
X163557406Y-71528533D01*
X163557412Y-71528536D01*
X163770365Y-71585597D01*
X163770373Y-71585598D01*
X163989998Y-71604813D01*
X163990002Y-71604813D01*
X164209630Y-71585598D01*
X164349572Y-71548099D01*
X163229153Y-70427680D01*
X163213626Y-70399244D01*
X163540000Y-70399244D01*
X163570667Y-70513694D01*
X163629910Y-70616306D01*
X163713694Y-70700090D01*
X163816306Y-70759333D01*
X163930756Y-70790000D01*
X164049244Y-70790000D01*
X164163694Y-70759333D01*
X164266306Y-70700090D01*
X164350090Y-70616306D01*
X164409333Y-70513694D01*
X164440000Y-70399244D01*
X164440000Y-70280756D01*
X164409333Y-70166306D01*
X164350090Y-70063694D01*
X164266306Y-69979910D01*
X164163694Y-69920667D01*
X164049244Y-69890000D01*
X163930756Y-69890000D01*
X163816306Y-69920667D01*
X163713694Y-69979910D01*
X163629910Y-70063694D01*
X163570667Y-70166306D01*
X163540000Y-70280756D01*
X163540000Y-70399244D01*
X163213626Y-70399244D01*
X163195668Y-70366357D01*
X163200652Y-70296665D01*
X163229153Y-70252318D01*
X163990000Y-69491472D01*
X164349571Y-69131899D01*
X164342134Y-69104141D01*
X164342282Y-69097907D01*
X164323773Y-69108791D01*
X164261490Y-69108297D01*
X164209637Y-69094403D01*
X164209626Y-69094401D01*
X163990002Y-69075187D01*
X163989998Y-69075187D01*
X163770373Y-69094401D01*
X163770359Y-69094404D01*
X163718508Y-69108297D01*
X163648658Y-69106634D01*
X163590796Y-69067471D01*
X163563293Y-69003242D01*
X163574880Y-68934340D01*
X163615291Y-68886949D01*
X163783329Y-68769288D01*
X163817214Y-68735403D01*
X163902319Y-68650299D01*
X163963642Y-68616814D01*
X164033334Y-68621798D01*
X164077681Y-68650299D01*
X164196668Y-68769286D01*
X164196671Y-68769288D01*
X164338513Y-68868607D01*
X164364706Y-68886947D01*
X164408331Y-68941524D01*
X164410713Y-68964542D01*
X164447188Y-68948924D01*
X164514311Y-68959664D01*
X164577237Y-68989007D01*
X164790280Y-69046092D01*
X164941031Y-69059281D01*
X165009998Y-69065315D01*
X165010000Y-69065315D01*
X165010002Y-69065315D01*
X165064930Y-69060509D01*
X165229720Y-69046092D01*
X165280296Y-69032540D01*
X165350144Y-69034203D01*
X165408006Y-69073365D01*
X165435511Y-69137593D01*
X165423925Y-69206495D01*
X165383511Y-69253890D01*
X165216668Y-69370713D01*
X165060713Y-69526668D01*
X164934205Y-69707342D01*
X164934204Y-69707344D01*
X164840994Y-69907235D01*
X164840990Y-69907244D01*
X164783909Y-70120275D01*
X164783907Y-70120285D01*
X164764685Y-70339998D01*
X164764685Y-70340001D01*
X164783907Y-70559714D01*
X164783909Y-70559724D01*
X164840990Y-70772755D01*
X164840995Y-70772769D01*
X164934203Y-70972654D01*
X164934207Y-70972662D01*
X165060712Y-71153330D01*
X165191392Y-71284010D01*
X165224877Y-71345333D01*
X165219893Y-71415025D01*
X165191392Y-71459372D01*
X164787584Y-71863181D01*
X164726261Y-71896666D01*
X164699903Y-71899500D01*
X160300097Y-71899500D01*
X160233058Y-71879815D01*
X160212416Y-71863181D01*
X159289235Y-70940000D01*
X160690000Y-70940000D01*
X160690000Y-71147844D01*
X160696401Y-71207372D01*
X160696403Y-71207379D01*
X160746645Y-71342086D01*
X160746649Y-71342093D01*
X160832809Y-71457187D01*
X160832812Y-71457190D01*
X160947906Y-71543350D01*
X160947913Y-71543354D01*
X161082620Y-71593596D01*
X161082627Y-71593598D01*
X161142155Y-71599999D01*
X161142172Y-71600000D01*
X161350000Y-71600000D01*
X161350000Y-70940000D01*
X160690000Y-70940000D01*
X159289235Y-70940000D01*
X158987590Y-70638355D01*
X158987588Y-70638352D01*
X158868717Y-70519481D01*
X158868716Y-70519480D01*
X158781904Y-70469360D01*
X158781904Y-70469359D01*
X158781900Y-70469358D01*
X158731785Y-70440423D01*
X158579057Y-70399499D01*
X158420943Y-70399499D01*
X158413347Y-70399499D01*
X158413331Y-70399500D01*
X157383063Y-70399500D01*
X157382191Y-70399244D01*
X161500000Y-70399244D01*
X161530667Y-70513694D01*
X161589910Y-70616306D01*
X161673694Y-70700090D01*
X161776306Y-70759333D01*
X161890756Y-70790000D01*
X162009244Y-70790000D01*
X162123694Y-70759333D01*
X162226306Y-70700090D01*
X162310090Y-70616306D01*
X162369333Y-70513694D01*
X162400000Y-70399244D01*
X162400000Y-70280756D01*
X162369333Y-70166306D01*
X162310090Y-70063694D01*
X162226306Y-69979910D01*
X162123694Y-69920667D01*
X162009244Y-69890000D01*
X161890756Y-69890000D01*
X161776306Y-69920667D01*
X161673694Y-69979910D01*
X161589910Y-70063694D01*
X161530667Y-70166306D01*
X161500000Y-70280756D01*
X161500000Y-70399244D01*
X157382191Y-70399244D01*
X157316024Y-70379815D01*
X157270269Y-70327011D01*
X157260325Y-70257853D01*
X157266021Y-70234546D01*
X157271345Y-70219331D01*
X157285368Y-70179255D01*
X157295161Y-70092329D01*
X157322226Y-70027918D01*
X157330690Y-70018543D01*
X157609233Y-69740000D01*
X160690000Y-69740000D01*
X161350000Y-69740000D01*
X161350000Y-69080000D01*
X161142155Y-69080000D01*
X161082627Y-69086401D01*
X161082620Y-69086403D01*
X160947913Y-69136645D01*
X160947906Y-69136649D01*
X160832812Y-69222809D01*
X160832809Y-69222812D01*
X160746649Y-69337906D01*
X160746645Y-69337913D01*
X160696403Y-69472620D01*
X160696401Y-69472627D01*
X160690000Y-69532155D01*
X160690000Y-69740000D01*
X157609233Y-69740000D01*
X158912416Y-68436819D01*
X158973739Y-68403334D01*
X159000097Y-68400500D01*
X161787138Y-68400500D01*
X161854177Y-68420185D01*
G37*
%TD.AperFunction*%
%TD*%
M02*
