%TF.GenerationSoftware,KiCad,Pcbnew,8.0.1*%
%TF.CreationDate,2024-04-08T22:20:49+02:00*%
%TF.ProjectId,driver,64726976-6572-42e6-9b69-6361645f7063,rev?*%
%TF.SameCoordinates,Original*%
%TF.FileFunction,Copper,L1,Top*%
%TF.FilePolarity,Positive*%
%FSLAX46Y46*%
G04 Gerber Fmt 4.6, Leading zero omitted, Abs format (unit mm)*
G04 Created by KiCad (PCBNEW 8.0.1) date 2024-04-08 22:20:49*
%MOMM*%
%LPD*%
G01*
G04 APERTURE LIST*
G04 Aperture macros list*
%AMRoundRect*
0 Rectangle with rounded corners*
0 $1 Rounding radius*
0 $2 $3 $4 $5 $6 $7 $8 $9 X,Y pos of 4 corners*
0 Add a 4 corners polygon primitive as box body*
4,1,4,$2,$3,$4,$5,$6,$7,$8,$9,$2,$3,0*
0 Add four circle primitives for the rounded corners*
1,1,$1+$1,$2,$3*
1,1,$1+$1,$4,$5*
1,1,$1+$1,$6,$7*
1,1,$1+$1,$8,$9*
0 Add four rect primitives between the rounded corners*
20,1,$1+$1,$2,$3,$4,$5,0*
20,1,$1+$1,$4,$5,$6,$7,0*
20,1,$1+$1,$6,$7,$8,$9,0*
20,1,$1+$1,$8,$9,$2,$3,0*%
G04 Aperture macros list end*
%TA.AperFunction,ComponentPad*%
%ADD10R,1.600000X1.600000*%
%TD*%
%TA.AperFunction,ComponentPad*%
%ADD11O,1.600000X1.600000*%
%TD*%
%TA.AperFunction,SMDPad,CuDef*%
%ADD12RoundRect,0.250000X-0.650000X0.412500X-0.650000X-0.412500X0.650000X-0.412500X0.650000X0.412500X0*%
%TD*%
%TA.AperFunction,SMDPad,CuDef*%
%ADD13RoundRect,0.250000X0.412500X0.650000X-0.412500X0.650000X-0.412500X-0.650000X0.412500X-0.650000X0*%
%TD*%
%TA.AperFunction,SMDPad,CuDef*%
%ADD14RoundRect,0.250000X-0.400000X-0.625000X0.400000X-0.625000X0.400000X0.625000X-0.400000X0.625000X0*%
%TD*%
%TA.AperFunction,SMDPad,CuDef*%
%ADD15RoundRect,0.250000X-0.625000X0.400000X-0.625000X-0.400000X0.625000X-0.400000X0.625000X0.400000X0*%
%TD*%
%TA.AperFunction,ComponentPad*%
%ADD16R,1.980000X3.960000*%
%TD*%
%TA.AperFunction,ComponentPad*%
%ADD17O,1.980000X3.960000*%
%TD*%
%TA.AperFunction,SMDPad,CuDef*%
%ADD18RoundRect,0.250000X0.400000X0.625000X-0.400000X0.625000X-0.400000X-0.625000X0.400000X-0.625000X0*%
%TD*%
%TA.AperFunction,ComponentPad*%
%ADD19R,1.700000X1.700000*%
%TD*%
%TA.AperFunction,ComponentPad*%
%ADD20O,1.700000X1.700000*%
%TD*%
%TA.AperFunction,SMDPad,CuDef*%
%ADD21RoundRect,0.250001X0.624999X-0.462499X0.624999X0.462499X-0.624999X0.462499X-0.624999X-0.462499X0*%
%TD*%
%TA.AperFunction,SMDPad,CuDef*%
%ADD22RoundRect,0.375000X0.625000X0.375000X-0.625000X0.375000X-0.625000X-0.375000X0.625000X-0.375000X0*%
%TD*%
%TA.AperFunction,SMDPad,CuDef*%
%ADD23RoundRect,0.500000X0.500000X1.400000X-0.500000X1.400000X-0.500000X-1.400000X0.500000X-1.400000X0*%
%TD*%
%TA.AperFunction,SMDPad,CuDef*%
%ADD24R,2.500000X1.000000*%
%TD*%
%TA.AperFunction,SMDPad,CuDef*%
%ADD25R,1.000000X1.800000*%
%TD*%
%TA.AperFunction,ComponentPad*%
%ADD26R,1.520000X1.520000*%
%TD*%
%TA.AperFunction,ComponentPad*%
%ADD27C,1.520000*%
%TD*%
%TA.AperFunction,SMDPad,CuDef*%
%ADD28RoundRect,0.250000X-0.412500X-0.650000X0.412500X-0.650000X0.412500X0.650000X-0.412500X0.650000X0*%
%TD*%
%TA.AperFunction,ViaPad*%
%ADD29C,0.600000*%
%TD*%
%TA.AperFunction,Conductor*%
%ADD30C,0.500000*%
%TD*%
%TA.AperFunction,Conductor*%
%ADD31C,0.200000*%
%TD*%
G04 APERTURE END LIST*
D10*
%TO.P,IC3,1,EN1\u002C2*%
%TO.N,Net-(IC1-GPIO16)*%
X92200000Y-55950000D03*
D11*
%TO.P,IC3,2,1A*%
%TO.N,Net-(IC2-QC)*%
X89660000Y-55950000D03*
%TO.P,IC3,3,1Y*%
%TO.N,Net-(IC3-1Y)*%
X87120000Y-55950000D03*
%TO.P,IC3,4,GND*%
%TO.N,GND*%
X84580000Y-55950000D03*
%TO.P,IC3,5,GND*%
X82040000Y-55950000D03*
%TO.P,IC3,6,2Y*%
%TO.N,Net-(IC3-2Y)*%
X79500000Y-55950000D03*
%TO.P,IC3,7,2A*%
%TO.N,Net-(IC2-QD)*%
X76960000Y-55950000D03*
%TO.P,IC3,8,VCC2*%
%TO.N,+9V*%
X74420000Y-55950000D03*
%TO.P,IC3,9,EN3\u002C4*%
%TO.N,Net-(IC1-GPIO14)*%
X74420000Y-63570000D03*
%TO.P,IC3,10,3A*%
%TO.N,Net-(IC2-QE)*%
X76960000Y-63570000D03*
%TO.P,IC3,11,3Y*%
%TO.N,Net-(IC3-3Y)*%
X79500000Y-63570000D03*
%TO.P,IC3,12,GND*%
%TO.N,GND*%
X82040000Y-63570000D03*
%TO.P,IC3,13,GND*%
X84580000Y-63570000D03*
%TO.P,IC3,14,4Y*%
%TO.N,Net-(IC3-4Y)*%
X87120000Y-63570000D03*
%TO.P,IC3,15,4A*%
%TO.N,Net-(IC2-QB)*%
X89660000Y-63570000D03*
%TO.P,IC3,16,VCC1*%
%TO.N,+9V*%
X92200000Y-63570000D03*
%TD*%
D12*
%TO.P,C5,1*%
%TO.N,+9V*%
X71500000Y-56450000D03*
%TO.P,C5,2*%
%TO.N,GND*%
X71500000Y-59575000D03*
%TD*%
D13*
%TO.P,C3,1*%
%TO.N,GND*%
X99156250Y-57950000D03*
%TO.P,C3,2*%
%TO.N,+9V*%
X96031250Y-57950000D03*
%TD*%
D14*
%TO.P,R4,1*%
%TO.N,Net-(IC1-GPIO4)*%
X103000000Y-60450000D03*
%TO.P,R4,2*%
%TO.N,+3.3V*%
X106100000Y-60450000D03*
%TD*%
D15*
%TO.P,R2,1*%
%TO.N,+3.3V*%
X110000000Y-68900000D03*
%TO.P,R2,2*%
%TO.N,Net-(D1-A)*%
X110000000Y-72000000D03*
%TD*%
D16*
%TO.P,M1,1,Pin_1*%
%TO.N,Net-(IC3-1Y)*%
X83235000Y-46450000D03*
D17*
%TO.P,M1,2,Pin_2*%
%TO.N,Net-(IC3-2Y)*%
X88235000Y-46450000D03*
%TD*%
D16*
%TO.P,BAT,1,Pin_1*%
%TO.N,+9V*%
X103765000Y-83450000D03*
D17*
%TO.P,BAT,2,Pin_2*%
%TO.N,GND*%
X98765000Y-83450000D03*
%TD*%
D18*
%TO.P,R1,1*%
%TO.N,Net-(IC1-GPIO0)*%
X120600000Y-72950000D03*
%TO.P,R1,2*%
%TO.N,+3.3V*%
X117500000Y-72950000D03*
%TD*%
D10*
%TO.P,IC2,1,QB*%
%TO.N,Net-(IC2-QB)*%
X111460000Y-83570000D03*
D11*
%TO.P,IC2,2,QC*%
%TO.N,Net-(IC2-QC)*%
X114000000Y-83570000D03*
%TO.P,IC2,3,QD*%
%TO.N,Net-(IC2-QD)*%
X116540000Y-83570000D03*
%TO.P,IC2,4,QE*%
%TO.N,Net-(IC2-QE)*%
X119080000Y-83570000D03*
%TO.P,IC2,5,QF*%
%TO.N,Net-(IC2-QF)*%
X121620000Y-83570000D03*
%TO.P,IC2,6,QG*%
%TO.N,Net-(IC2-QG)*%
X124160000Y-83570000D03*
%TO.P,IC2,7,QH*%
%TO.N,Net-(IC2-QH)*%
X126700000Y-83570000D03*
%TO.P,IC2,8,GND*%
%TO.N,GND*%
X129240000Y-83570000D03*
%TO.P,IC2,9,QH'*%
%TO.N,unconnected-(IC2-QH'-Pad9)*%
X129240000Y-75950000D03*
%TO.P,IC2,10,~{SRCLR}*%
%TO.N,+3.3V*%
X126700000Y-75950000D03*
%TO.P,IC2,11,SRCLK*%
%TO.N,Net-(IC1-GPIO3{slash}RXD)*%
X124160000Y-75950000D03*
%TO.P,IC2,12,RCLK*%
%TO.N,Net-(IC1-GPIO15)*%
X121620000Y-75950000D03*
%TO.P,IC2,13,~{OE}*%
%TO.N,Net-(IC1-GPIO0)*%
X119080000Y-75950000D03*
%TO.P,IC2,14,SER*%
%TO.N,Net-(IC1-GPIO2)*%
X116540000Y-75950000D03*
%TO.P,IC2,15,QA*%
%TO.N,Net-(IC2-QA)*%
X114000000Y-75950000D03*
%TO.P,IC2,16,VCC*%
%TO.N,+3.3V*%
X111460000Y-75950000D03*
%TD*%
D19*
%TO.P,J9,1,Pin_1*%
%TO.N,Net-(IC1-CS0)*%
X115880000Y-70010000D03*
D20*
%TO.P,J9,2,Pin_2*%
%TO.N,Net-(IC1-MISO)*%
X118420000Y-70010000D03*
%TO.P,J9,3,Pin_3*%
%TO.N,Net-(IC1-GPIO9)*%
X120960000Y-70010000D03*
%TO.P,J9,4,Pin_4*%
%TO.N,Net-(IC1-GPIO10)*%
X123500000Y-70010000D03*
%TO.P,J9,5,Pin_5*%
%TO.N,Net-(IC1-MOSI)*%
X126040000Y-70010000D03*
%TO.P,J9,6,Pin_6*%
%TO.N,Net-(IC1-SCLK)*%
X128580000Y-70010000D03*
%TD*%
D21*
%TO.P,D1,1,K*%
%TO.N,GND*%
X112500000Y-71937500D03*
%TO.P,D1,2,A*%
%TO.N,Net-(D1-A)*%
X112500000Y-68962500D03*
%TD*%
D22*
%TO.P,U5,1,GND*%
%TO.N,GND*%
X104300000Y-74250000D03*
%TO.P,U5,2,VO*%
%TO.N,+3.3V*%
X104300000Y-71950000D03*
D23*
X98000000Y-71950000D03*
D22*
%TO.P,U5,3,VI*%
%TO.N,+9V*%
X104300000Y-69650000D03*
%TD*%
D19*
%TO.P,J7,1,Pin_1*%
%TO.N,Net-(IC1-~{RST})*%
X110500000Y-46830000D03*
D20*
%TO.P,J7,2,Pin_2*%
%TO.N,Net-(IC1-ADC)*%
X110500000Y-49370000D03*
%TO.P,J7,3,Pin_3*%
%TO.N,Net-(IC1-EN)*%
X110500000Y-51910000D03*
%TO.P,J7,4,Pin_4*%
%TO.N,Net-(IC1-GPIO16)*%
X110500000Y-54450000D03*
%TO.P,J7,5,Pin_5*%
%TO.N,Net-(IC1-GPIO14)*%
X110500000Y-56990000D03*
%TO.P,J7,6,Pin_6*%
%TO.N,Net-(IC1-GPIO12)*%
X110500000Y-59530000D03*
%TO.P,J7,7,Pin_7*%
%TO.N,Net-(IC1-GPIO13)*%
X110500000Y-62070000D03*
%TO.P,J7,8,Pin_8*%
%TO.N,+3.3V*%
X110500000Y-64610000D03*
%TD*%
D13*
%TO.P,C2,1*%
%TO.N,GND*%
X99093750Y-62950000D03*
%TO.P,C2,2*%
%TO.N,+9V*%
X95968750Y-62950000D03*
%TD*%
D24*
%TO.P,IC1,1,~{RST}*%
%TO.N,Net-(IC1-~{RST})*%
X114400000Y-50950000D03*
%TO.P,IC1,2,ADC*%
%TO.N,Net-(IC1-ADC)*%
X114400000Y-52950000D03*
%TO.P,IC1,3,EN*%
%TO.N,Net-(IC1-EN)*%
X114400000Y-54950000D03*
%TO.P,IC1,4,GPIO16*%
%TO.N,Net-(IC1-GPIO16)*%
X114400000Y-56950000D03*
%TO.P,IC1,5,GPIO14*%
%TO.N,Net-(IC1-GPIO14)*%
X114400000Y-58950000D03*
%TO.P,IC1,6,GPIO12*%
%TO.N,Net-(IC1-GPIO12)*%
X114400000Y-60950000D03*
%TO.P,IC1,7,GPIO13*%
%TO.N,Net-(IC1-GPIO13)*%
X114400000Y-62950000D03*
%TO.P,IC1,8,VCC*%
%TO.N,+3.3V*%
X114400000Y-64950000D03*
D25*
%TO.P,IC1,9,CS0*%
%TO.N,Net-(IC1-CS0)*%
X117000000Y-66450000D03*
%TO.P,IC1,10,MISO*%
%TO.N,Net-(IC1-MISO)*%
X119000000Y-66450000D03*
%TO.P,IC1,11,GPIO9*%
%TO.N,Net-(IC1-GPIO9)*%
X121000000Y-66450000D03*
%TO.P,IC1,12,GPIO10*%
%TO.N,Net-(IC1-GPIO10)*%
X123000000Y-66450000D03*
%TO.P,IC1,13,MOSI*%
%TO.N,Net-(IC1-MOSI)*%
X125000000Y-66450000D03*
%TO.P,IC1,14,SCLK*%
%TO.N,Net-(IC1-SCLK)*%
X127000000Y-66450000D03*
D24*
%TO.P,IC1,15,GND*%
%TO.N,GND*%
X129600000Y-64950000D03*
%TO.P,IC1,16,GPIO15*%
%TO.N,Net-(IC1-GPIO15)*%
X129600000Y-62950000D03*
%TO.P,IC1,17,GPIO2*%
%TO.N,Net-(IC1-GPIO2)*%
X129600000Y-60950000D03*
%TO.P,IC1,18,GPIO0*%
%TO.N,Net-(IC1-GPIO0)*%
X129600000Y-58950000D03*
%TO.P,IC1,19,GPIO4*%
%TO.N,Net-(IC1-GPIO4)*%
X129600000Y-56950000D03*
%TO.P,IC1,20,GPIO5*%
%TO.N,Net-(IC1-GPIO5)*%
X129600000Y-54950000D03*
%TO.P,IC1,21,GPIO3/RXD*%
%TO.N,Net-(IC1-GPIO3{slash}RXD)*%
X129600000Y-52950000D03*
%TO.P,IC1,22,GPIO1/TXD*%
%TO.N,Net-(IC1-GPIO1{slash}TXD)*%
X129600000Y-50950000D03*
%TD*%
D12*
%TO.P,C6,1*%
%TO.N,+9V*%
X71500000Y-67950000D03*
%TO.P,C6,2*%
%TO.N,GND*%
X71500000Y-71075000D03*
%TD*%
D10*
%TO.P,IC4,1,EN1\u002C2*%
%TO.N,Net-(IC1-GPIO13)*%
X92240000Y-67450000D03*
D11*
%TO.P,IC4,2,1A*%
%TO.N,Net-(IC2-QA)*%
X89700000Y-67450000D03*
%TO.P,IC4,3,1Y*%
%TO.N,Net-(IC4-1Y)*%
X87160000Y-67450000D03*
%TO.P,IC4,4,GND*%
%TO.N,GND*%
X84620000Y-67450000D03*
%TO.P,IC4,5,GND*%
X82080000Y-67450000D03*
%TO.P,IC4,6,2Y*%
%TO.N,Net-(IC4-2Y)*%
X79540000Y-67450000D03*
%TO.P,IC4,7,2A*%
%TO.N,Net-(IC2-QG)*%
X77000000Y-67450000D03*
%TO.P,IC4,8,VCC2*%
%TO.N,+9V*%
X74460000Y-67450000D03*
%TO.P,IC4,9,EN3\u002C4*%
%TO.N,Net-(IC1-GPIO12)*%
X74460000Y-75070000D03*
%TO.P,IC4,10,3A*%
%TO.N,Net-(IC2-QH)*%
X77000000Y-75070000D03*
%TO.P,IC4,11,3Y*%
%TO.N,Net-(IC4-3Y)*%
X79540000Y-75070000D03*
%TO.P,IC4,12,GND*%
%TO.N,GND*%
X82080000Y-75070000D03*
%TO.P,IC4,13,GND*%
X84620000Y-75070000D03*
%TO.P,IC4,14,4Y*%
%TO.N,Net-(IC4-4Y)*%
X87160000Y-75070000D03*
%TO.P,IC4,15,4A*%
%TO.N,Net-(IC2-QF)*%
X89700000Y-75070000D03*
%TO.P,IC4,16,VCC1*%
%TO.N,+9V*%
X92240000Y-75070000D03*
%TD*%
D16*
%TO.P,M3,1,Pin_1*%
%TO.N,Net-(IC4-1Y)*%
X75500000Y-83450000D03*
D17*
%TO.P,M3,2,Pin_2*%
%TO.N,Net-(IC4-2Y)*%
X70500000Y-83450000D03*
%TD*%
D26*
%TO.P,6P6C,1*%
%TO.N,GND*%
X98400000Y-51290000D03*
D27*
%TO.P,6P6C,2*%
%TO.N,+3.3V*%
X99420000Y-48750000D03*
%TO.P,6P6C,3*%
%TO.N,GND*%
X100440000Y-51290000D03*
%TO.P,6P6C,4*%
%TO.N,unconnected-(J6-Pad4)*%
X101460000Y-48750000D03*
%TO.P,6P6C,5*%
%TO.N,Net-(IC1-GPIO5)*%
X102480000Y-51290000D03*
%TO.P,6P6C,6*%
%TO.N,Net-(IC1-GPIO4)*%
X103500000Y-48750000D03*
%TD*%
D13*
%TO.P,C7,1*%
%TO.N,+3.3V*%
X106062500Y-63950000D03*
%TO.P,C7,2*%
%TO.N,GND*%
X102937500Y-63950000D03*
%TD*%
D28*
%TO.P,C1,1*%
%TO.N,+9V*%
X95968750Y-60450000D03*
%TO.P,C1,2*%
%TO.N,GND*%
X99093750Y-60450000D03*
%TD*%
D19*
%TO.P,J8,1,Pin_1*%
%TO.N,GND*%
X133500000Y-64530000D03*
D20*
%TO.P,J8,2,Pin_2*%
%TO.N,Net-(IC1-GPIO15)*%
X133500000Y-61990000D03*
%TO.P,J8,3,Pin_3*%
%TO.N,Net-(IC1-GPIO2)*%
X133500000Y-59450000D03*
%TO.P,J8,4,Pin_4*%
%TO.N,Net-(IC1-GPIO0)*%
X133500000Y-56910000D03*
%TO.P,J8,5,Pin_5*%
%TO.N,Net-(IC1-GPIO4)*%
X133500000Y-54370000D03*
%TO.P,J8,6,Pin_6*%
%TO.N,Net-(IC1-GPIO5)*%
X133500000Y-51830000D03*
%TO.P,J8,7,Pin_7*%
%TO.N,Net-(IC1-GPIO3{slash}RXD)*%
X133500000Y-49290000D03*
%TO.P,J8,8,Pin_8*%
%TO.N,Net-(IC1-GPIO1{slash}TXD)*%
X133500000Y-46750000D03*
%TD*%
D16*
%TO.P,M2,1,Pin_1*%
%TO.N,Net-(IC3-3Y)*%
X70000000Y-46450000D03*
D17*
%TO.P,M2,2,Pin_2*%
%TO.N,Net-(IC3-4Y)*%
X75000000Y-46450000D03*
%TD*%
D16*
%TO.P,M4,1,Pin_1*%
%TO.N,Net-(IC4-3Y)*%
X88765000Y-83450000D03*
D17*
%TO.P,M4,2,Pin_2*%
%TO.N,Net-(IC4-4Y)*%
X83765000Y-83450000D03*
%TD*%
D14*
%TO.P,R3,1*%
%TO.N,Net-(IC1-GPIO5)*%
X103000000Y-57950000D03*
%TO.P,R3,2*%
%TO.N,+3.3V*%
X106100000Y-57950000D03*
%TD*%
D28*
%TO.P,C4,1*%
%TO.N,+9V*%
X95968750Y-65450000D03*
%TO.P,C4,2*%
%TO.N,GND*%
X99093750Y-65450000D03*
%TD*%
D29*
%TO.N,+9V*%
X107900000Y-73450000D03*
X70000000Y-69450000D03*
X103000000Y-66950000D03*
X70000000Y-60450000D03*
X106500000Y-80450000D03*
X106500000Y-66950000D03*
%TO.N,GND*%
X81500000Y-69950000D03*
X77530331Y-58919669D03*
X101000000Y-56050000D03*
X107000000Y-65950000D03*
X75969669Y-59480331D03*
X101531250Y-65450000D03*
%TO.N,Net-(IC1-GPIO15)*%
X131900000Y-67450000D03*
%TO.N,Net-(IC1-GPIO4)*%
X102000000Y-56050000D03*
%TO.N,+3.3V*%
X96000000Y-52450000D03*
X113500000Y-77450000D03*
X99100000Y-55550000D03*
%TO.N,Net-(IC1-GPIO14)*%
X80551471Y-59550000D03*
%TO.N,Net-(IC1-GPIO0)*%
X134100000Y-72950000D03*
X137200000Y-60450000D03*
X129699994Y-72950000D03*
%TO.N,Net-(IC1-GPIO3{slash}RXD)*%
X128000000Y-72350000D03*
X130299994Y-67450000D03*
%TO.N,Net-(IC1-GPIO5)*%
X103000000Y-56050000D03*
X103000000Y-52950000D03*
%TO.N,Net-(IC1-GPIO2)*%
X131099997Y-67450000D03*
%TO.N,Net-(IC2-QD)*%
X89000000Y-53450000D03*
X118210000Y-85740000D03*
X85500000Y-53450000D03*
%TO.N,Net-(IC2-QE)*%
X82000000Y-58950000D03*
X121180000Y-85670000D03*
%TO.N,Net-(IC2-QG)*%
X93934313Y-75015687D03*
X86000000Y-68950000D03*
X92434313Y-73515687D03*
X88108578Y-69189952D03*
%TO.N,Net-(IC2-QB)*%
X93700000Y-72250000D03*
X99006066Y-79443934D03*
%TO.N,Net-(IC2-QA)*%
X93000000Y-72950000D03*
X94464127Y-74416270D03*
%TO.N,Net-(IC4-3Y)*%
X81930000Y-77520000D03*
%TO.N,Net-(IC4-4Y)*%
X87160000Y-77290000D03*
%TD*%
D30*
%TO.N,+9V*%
X107750000Y-69650000D02*
X104300000Y-69650000D01*
D31*
X92240000Y-75070000D02*
X92120000Y-75070000D01*
D30*
X94500000Y-63450000D02*
X94380000Y-63570000D01*
X70300000Y-69150000D02*
X70000000Y-69450000D01*
X103000000Y-66950000D02*
X95000000Y-66950000D01*
X94500000Y-72810000D02*
X92240000Y-75070000D01*
D31*
X92000000Y-74950000D02*
X92120000Y-75070000D01*
D30*
X72000000Y-76450000D02*
X89500000Y-76450000D01*
X107950000Y-67900000D02*
X107950000Y-69450000D01*
X95000000Y-66950000D02*
X94500000Y-67450000D01*
X70000000Y-57950000D02*
X71500000Y-56450000D01*
X70000000Y-69450000D02*
X70000000Y-74450000D01*
X94500000Y-67450000D02*
X94500000Y-68450000D01*
X95468750Y-65950000D02*
X95968750Y-65450000D01*
X94500000Y-69825000D02*
X94500000Y-72810000D01*
X106500000Y-80450000D02*
X103765000Y-83185000D01*
X73960000Y-67950000D02*
X74460000Y-67450000D01*
X107950000Y-69450000D02*
X107750000Y-69650000D01*
X107950000Y-70950000D02*
X107950000Y-73400000D01*
X71500000Y-56450000D02*
X74300000Y-56450000D01*
X71500000Y-67950000D02*
X73960000Y-67950000D01*
X95031250Y-60450000D02*
X95968750Y-60450000D01*
X94500000Y-65950000D02*
X95468750Y-65950000D01*
D31*
X96031250Y-63012500D02*
X95968750Y-62950000D01*
D30*
X107000000Y-66950000D02*
X107950000Y-67900000D01*
X70300000Y-69150000D02*
X71500000Y-67950000D01*
X94500000Y-65950000D02*
X94500000Y-67450000D01*
X103765000Y-83185000D02*
X103765000Y-83450000D01*
X106500000Y-66950000D02*
X107000000Y-66950000D01*
X94380000Y-63570000D02*
X92200000Y-63570000D01*
D31*
X74300000Y-56450000D02*
X74420000Y-56330000D01*
D30*
X70000000Y-74450000D02*
X72000000Y-76450000D01*
D31*
X95991250Y-62450000D02*
X95968750Y-62472500D01*
D30*
X94500000Y-63450000D02*
X94500000Y-60981250D01*
D31*
X95968750Y-58012500D02*
X96031250Y-57950000D01*
D30*
X92500000Y-79450000D02*
X97951471Y-79450000D01*
X94500000Y-63450000D02*
X94500000Y-65950000D01*
X95968750Y-60450000D02*
X95968750Y-58012500D01*
X94500000Y-68450000D02*
X94500000Y-69825000D01*
X70000000Y-60450000D02*
X70000000Y-57950000D01*
X107950000Y-73400000D02*
X107900000Y-73450000D01*
X97951471Y-79450000D02*
X101951471Y-83450000D01*
X94500000Y-60981250D02*
X95031250Y-60450000D01*
X89500000Y-76450000D02*
X92500000Y-79450000D01*
X101951471Y-83450000D02*
X103765000Y-83450000D01*
X96031250Y-65472500D02*
X96031250Y-63012500D01*
X107950000Y-69450000D02*
X107950000Y-70950000D01*
D31*
%TO.N,GND*%
X75969669Y-59480331D02*
X75875000Y-59575000D01*
X81500000Y-69950000D02*
X80375000Y-71075000D01*
X133080000Y-64950000D02*
X133500000Y-64530000D01*
X77530331Y-58919669D02*
X79070331Y-58919669D01*
X101000000Y-63450000D02*
X101000000Y-56050000D01*
X108500000Y-74250000D02*
X108500000Y-67450000D01*
X75875000Y-59575000D02*
X71500000Y-59575000D01*
X80375000Y-71075000D02*
X71500000Y-71075000D01*
X111175000Y-74250000D02*
X112500000Y-72925000D01*
X129600000Y-64950000D02*
X133080000Y-64950000D01*
X82080000Y-75070000D02*
X82460000Y-75450000D01*
X112500000Y-72925000D02*
X112500000Y-71937500D01*
X108500000Y-67450000D02*
X107000000Y-65950000D01*
X102937500Y-63950000D02*
X101500000Y-63950000D01*
X101500000Y-63950000D02*
X101000000Y-63450000D01*
X79070331Y-58919669D02*
X82040000Y-55950000D01*
X99116250Y-62450000D02*
X99093750Y-62472500D01*
X99178750Y-65450000D02*
X99156250Y-65472500D01*
X101531250Y-65450000D02*
X99093750Y-65450000D01*
X104300000Y-74250000D02*
X111175000Y-74250000D01*
%TO.N,Net-(D1-A)*%
X112500000Y-68962500D02*
X112500000Y-69500000D01*
X112500000Y-69500000D02*
X110000000Y-72000000D01*
%TO.N,Net-(IC1-MISO)*%
X119000000Y-69430000D02*
X118420000Y-70010000D01*
X119000000Y-66010000D02*
X119000000Y-69430000D01*
%TO.N,Net-(IC1-GPIO13)*%
X109350000Y-60006346D02*
X110500000Y-61156346D01*
X111500000Y-62950000D02*
X114400000Y-62950000D01*
X110620000Y-62070000D02*
X111500000Y-62950000D01*
X92240000Y-65964314D02*
X92240000Y-67450000D01*
X105934314Y-54950000D02*
X97076378Y-54950000D01*
X91000000Y-64724314D02*
X92240000Y-65964314D01*
X109350000Y-58365686D02*
X105934314Y-54950000D01*
X110500000Y-61156346D02*
X110500000Y-62070000D01*
X97076378Y-54950000D02*
X91000000Y-61026378D01*
X110500000Y-62070000D02*
X110620000Y-62070000D01*
X109350000Y-60006346D02*
X109350000Y-58365686D01*
X91000000Y-61026378D02*
X91000000Y-64724314D01*
%TO.N,Net-(IC1-GPIO15)*%
X132540000Y-62950000D02*
X133500000Y-61990000D01*
X129600000Y-62950000D02*
X132540000Y-62950000D01*
X131900000Y-67450000D02*
X131900000Y-73181372D01*
X131900000Y-73181372D02*
X130631372Y-74450000D01*
X130631372Y-74450000D02*
X123120000Y-74450000D01*
X123120000Y-74450000D02*
X121620000Y-75950000D01*
%TO.N,Net-(IC1-GPIO10)*%
X123000000Y-66010000D02*
X123000000Y-69510000D01*
X123000000Y-69510000D02*
X123500000Y-70010000D01*
%TO.N,Net-(IC1-GPIO1{slash}TXD)*%
X129600000Y-50950000D02*
X129600000Y-50650000D01*
X129600000Y-50650000D02*
X133500000Y-46750000D01*
%TO.N,Net-(IC1-ADC)*%
X114400000Y-52950000D02*
X114080000Y-52950000D01*
X114080000Y-52950000D02*
X110500000Y-49370000D01*
%TO.N,Net-(IC1-GPIO4)*%
X129600000Y-56950000D02*
X130920000Y-56950000D01*
X130920000Y-56950000D02*
X133500000Y-54370000D01*
X103000000Y-60450000D02*
X102000000Y-59450000D01*
X133500000Y-54370000D02*
X135400000Y-52470000D01*
X131465686Y-41350000D02*
X107534314Y-41350000D01*
X107534314Y-41350000D02*
X103500000Y-45384314D01*
X135400000Y-52470000D02*
X135400000Y-45284314D01*
X102000000Y-59450000D02*
X102000000Y-56050000D01*
X103500000Y-45384314D02*
X103500000Y-48750000D01*
X135400000Y-45284314D02*
X131465686Y-41350000D01*
%TO.N,Net-(IC1-GPIO16)*%
X94980000Y-53550000D02*
X109600000Y-53550000D01*
X113000000Y-56950000D02*
X110500000Y-54450000D01*
X114400000Y-56950000D02*
X113000000Y-56950000D01*
X92200000Y-56330000D02*
X94980000Y-53550000D01*
X109600000Y-53550000D02*
X110500000Y-54450000D01*
%TO.N,+3.3V*%
X114400000Y-64950000D02*
X110840000Y-64950000D01*
X106062500Y-61277500D02*
X106100000Y-61240000D01*
X125700000Y-77450000D02*
X126700000Y-76450000D01*
X106062500Y-65887500D02*
X103000000Y-68950000D01*
X109500000Y-64610000D02*
X110500000Y-64610000D01*
X110840000Y-64950000D02*
X110500000Y-64610000D01*
X96000000Y-50002843D02*
X97252843Y-48750000D01*
X106062500Y-63950000D02*
X106062500Y-65887500D01*
X97252843Y-48750000D02*
X99420000Y-48750000D01*
X108500000Y-64610000D02*
X109500000Y-64610000D01*
X96000000Y-52450000D02*
X96000000Y-50002843D01*
X114460000Y-72950000D02*
X114400000Y-73010000D01*
X105868628Y-55450000D02*
X108950000Y-58531372D01*
X114400000Y-73010000D02*
X111460000Y-75950000D01*
X107340000Y-64610000D02*
X106722500Y-64610000D01*
X104300000Y-71950000D02*
X103000000Y-70650000D01*
X103000000Y-70650000D02*
X103000000Y-68950000D01*
X117500000Y-72950000D02*
X114460000Y-72950000D01*
X113500000Y-77450000D02*
X125700000Y-77450000D01*
X114400000Y-64950000D02*
X114500000Y-65050000D01*
X107340000Y-64610000D02*
X108500000Y-64610000D01*
X108950000Y-58531372D02*
X108950000Y-63060000D01*
X106062500Y-63950000D02*
X106062500Y-61277500D01*
X99200000Y-55450000D02*
X105868628Y-55450000D01*
X113950000Y-64950000D02*
X114400000Y-64950000D01*
X114400000Y-64950000D02*
X114400000Y-73010000D01*
X108950000Y-63060000D02*
X110500000Y-64610000D01*
X99100000Y-55550000D02*
X99200000Y-55450000D01*
X98000000Y-71950000D02*
X104300000Y-71950000D01*
X106722500Y-64610000D02*
X106062500Y-63950000D01*
X110000000Y-68900000D02*
X113950000Y-64950000D01*
X106100000Y-61240000D02*
X106100000Y-57950000D01*
%TO.N,Net-(IC1-GPIO14)*%
X80551471Y-59550000D02*
X91334314Y-59550000D01*
X112460000Y-58950000D02*
X114400000Y-58950000D01*
X107460000Y-53950000D02*
X110500000Y-56990000D01*
X112460000Y-58950000D02*
X110500000Y-56990000D01*
X91334314Y-59550000D02*
X96934314Y-53950000D01*
X96934314Y-53950000D02*
X107460000Y-53950000D01*
%TO.N,Net-(IC1-GPIO0)*%
X129600000Y-58950000D02*
X131460000Y-58950000D01*
X120600000Y-72950000D02*
X120600000Y-74430000D01*
X131460000Y-58950000D02*
X133500000Y-56910000D01*
X137200000Y-64947058D02*
X137200000Y-60450000D01*
X120600000Y-74430000D02*
X119080000Y-75950000D01*
X134100000Y-68047058D02*
X136598529Y-65548529D01*
X136598529Y-65548529D02*
X137200000Y-64947058D01*
X134100000Y-72950000D02*
X134100000Y-68047058D01*
X120600000Y-72950000D02*
X129699994Y-72950000D01*
%TO.N,Net-(IC1-GPIO9)*%
X121000000Y-66010000D02*
X121000000Y-69970000D01*
X121000000Y-69970000D02*
X120960000Y-70010000D01*
%TO.N,Net-(IC1-GPIO3{slash}RXD)*%
X129600000Y-72350000D02*
X130299994Y-71650006D01*
X128000000Y-72350000D02*
X129600000Y-72350000D01*
X130299994Y-71650006D02*
X130299994Y-67450000D01*
X129840000Y-52950000D02*
X133500000Y-49290000D01*
X129600000Y-52950000D02*
X129840000Y-52950000D01*
%TO.N,Net-(IC1-GPIO5)*%
X103000000Y-57950000D02*
X103000000Y-56050000D01*
X103000000Y-52950000D02*
X103000000Y-51810000D01*
X131300000Y-41750000D02*
X107700000Y-41750000D01*
X104560000Y-51390000D02*
X103000000Y-52950000D01*
X135000000Y-45450000D02*
X131300000Y-41750000D01*
X104560000Y-44890000D02*
X104560000Y-51390000D01*
X103000000Y-51810000D02*
X102480000Y-51290000D01*
X130380000Y-54950000D02*
X133500000Y-51830000D01*
X107700000Y-41750000D02*
X104560000Y-44890000D01*
X129600000Y-54950000D02*
X130380000Y-54950000D01*
X133500000Y-51830000D02*
X135000000Y-50330000D01*
X135000000Y-50330000D02*
X135000000Y-45450000D01*
%TO.N,Net-(IC1-~{RST})*%
X114400000Y-50950000D02*
X110500000Y-47050000D01*
X110500000Y-47050000D02*
X110500000Y-46830000D01*
%TO.N,Net-(IC1-SCLK)*%
X127000000Y-68430000D02*
X128580000Y-70010000D01*
X127000000Y-66010000D02*
X127000000Y-68430000D01*
%TO.N,Net-(IC1-EN)*%
X113540000Y-54950000D02*
X110500000Y-51910000D01*
X114400000Y-54950000D02*
X113540000Y-54950000D01*
%TO.N,Net-(IC1-MOSI)*%
X125000000Y-68970000D02*
X126040000Y-70010000D01*
X125000000Y-66010000D02*
X125000000Y-68970000D01*
%TO.N,Net-(IC1-GPIO12)*%
X97000000Y-54450000D02*
X88260000Y-63190000D01*
X78055000Y-71475000D02*
X74460000Y-75070000D01*
X88260000Y-68190000D02*
X84975000Y-71475000D01*
X110500000Y-59530000D02*
X111920000Y-60950000D01*
X106000000Y-54450000D02*
X97000000Y-54450000D01*
X110500000Y-58950000D02*
X106000000Y-54450000D01*
X84975000Y-71475000D02*
X78055000Y-71475000D01*
X88260000Y-63190000D02*
X88260000Y-68190000D01*
X111920000Y-60950000D02*
X114400000Y-60950000D01*
%TO.N,Net-(IC1-GPIO2)*%
X119535635Y-77050000D02*
X117140000Y-77050000D01*
X130565686Y-73950000D02*
X121750000Y-73950000D01*
X120520000Y-76065635D02*
X119535635Y-77050000D01*
X132000000Y-60950000D02*
X133500000Y-59450000D01*
X120520000Y-75180000D02*
X120520000Y-76065635D01*
X117140000Y-77050000D02*
X116540000Y-76450000D01*
X131099997Y-67450000D02*
X131099997Y-73415689D01*
X131099997Y-73415689D02*
X130565686Y-73950000D01*
X121750000Y-73950000D02*
X120520000Y-75180000D01*
X129600000Y-60950000D02*
X132000000Y-60950000D01*
%TO.N,Net-(IC1-CS0)*%
X117000000Y-66010000D02*
X117000000Y-68890000D01*
X117000000Y-68890000D02*
X115880000Y-70010000D01*
%TO.N,Net-(IC2-QD)*%
X99498528Y-44451472D02*
X102735785Y-44451472D01*
X107037257Y-40150000D02*
X131962743Y-40150000D01*
X136600000Y-64981371D02*
X133500000Y-68081372D01*
X131962743Y-40150000D02*
X136600000Y-44787256D01*
X79460000Y-53450000D02*
X76960000Y-55950000D01*
X89000000Y-53450000D02*
X90500000Y-53450000D01*
X85500000Y-53450000D02*
X79460000Y-53450000D01*
X133500000Y-68081372D02*
X133500000Y-83081372D01*
X136600000Y-44787256D02*
X136600000Y-64981371D01*
X118759265Y-86289265D02*
X118210000Y-85740000D01*
X133500000Y-83081372D02*
X130292107Y-86289265D01*
X102735785Y-44451472D02*
X107037257Y-40150000D01*
X90500000Y-53450000D02*
X99498528Y-44451472D01*
X130292107Y-86289265D02*
X118759265Y-86289265D01*
%TO.N,Net-(IC2-QE)*%
X136200000Y-64815686D02*
X133000000Y-68015686D01*
X88500000Y-55373403D02*
X89923403Y-53950000D01*
X136200000Y-44952942D02*
X136200000Y-64815686D01*
X130345686Y-85670000D02*
X121180000Y-85670000D01*
X133000000Y-68015686D02*
X133000000Y-83015686D01*
X82000000Y-58950000D02*
X82500000Y-58450000D01*
X133000000Y-83015686D02*
X130345686Y-85670000D01*
X88500000Y-56125635D02*
X88500000Y-55373403D01*
X82500000Y-58450000D02*
X86175635Y-58450000D01*
X99664214Y-44851472D02*
X102901471Y-44851472D01*
X102901471Y-44851472D02*
X107202943Y-40550000D01*
X90565686Y-53950000D02*
X99664214Y-44851472D01*
X131797058Y-40550000D02*
X136200000Y-44952942D01*
X89923403Y-53950000D02*
X90565686Y-53950000D01*
X107202943Y-40550000D02*
X131797058Y-40550000D01*
X86175635Y-58450000D02*
X88500000Y-56125635D01*
%TO.N,Net-(IC2-QG)*%
X93934313Y-76384313D02*
X95000000Y-77450000D01*
X95000000Y-77450000D02*
X107065686Y-77450000D01*
X92434313Y-73515687D02*
X88108578Y-69189952D01*
X111065686Y-81450000D02*
X126317817Y-81450000D01*
X128000000Y-83132183D02*
X128000000Y-84325635D01*
X128000000Y-84325635D02*
X127655635Y-84670000D01*
X78500000Y-68950000D02*
X77000000Y-67450000D01*
X93934313Y-75015687D02*
X93934313Y-76384313D01*
X107065686Y-77450000D02*
X111065686Y-81450000D01*
X86000000Y-68950000D02*
X78500000Y-68950000D01*
X124760000Y-84670000D02*
X124160000Y-84070000D01*
X127655635Y-84670000D02*
X124760000Y-84670000D01*
X126317817Y-81450000D02*
X128000000Y-83132183D01*
%TO.N,Net-(IC2-QB)*%
X90800000Y-65090000D02*
X89660000Y-63950000D01*
X93700000Y-72250000D02*
X90800000Y-69350000D01*
X107368628Y-79450000D02*
X111460000Y-83541372D01*
X99012132Y-79450000D02*
X107368628Y-79450000D01*
X99006066Y-79443934D02*
X99012132Y-79450000D01*
X90800000Y-69350000D02*
X90800000Y-65090000D01*
X111460000Y-83541372D02*
X111460000Y-84070000D01*
%TO.N,Net-(IC2-QF)*%
X106934315Y-78450000D02*
X110934315Y-82450000D01*
X93080000Y-78450000D02*
X106934315Y-78450000D01*
X110934315Y-82450000D02*
X120500000Y-82450000D01*
X89700000Y-75070000D02*
X93080000Y-78450000D01*
X120500000Y-82450000D02*
X121620000Y-83570000D01*
%TO.N,Net-(IC2-QA)*%
X94534313Y-74486456D02*
X94534313Y-75984313D01*
X94534313Y-75984313D02*
X95500000Y-76950000D01*
X94464127Y-74416270D02*
X94534313Y-74486456D01*
X112000000Y-77950000D02*
X114000000Y-75950000D01*
X93000000Y-72950000D02*
X89700000Y-69650000D01*
X89700000Y-69650000D02*
X89700000Y-67450000D01*
X95500000Y-76950000D02*
X107131372Y-76950000D01*
X108131372Y-77950000D02*
X112000000Y-77950000D01*
X107131372Y-76950000D02*
X108131372Y-77950000D01*
%TO.N,Net-(IC2-QC)*%
X130380000Y-85070000D02*
X132500000Y-82950000D01*
X89660000Y-55605686D02*
X89660000Y-55950000D01*
X135800000Y-64650000D02*
X135800000Y-45118628D01*
X131631372Y-40950000D02*
X107368629Y-40950000D01*
X115000000Y-85070000D02*
X130380000Y-85070000D01*
X107368629Y-40950000D02*
X103067157Y-45251472D01*
X135800000Y-45118628D02*
X131631372Y-40950000D01*
X100014214Y-45251472D02*
X89660000Y-55605686D01*
X114000000Y-84070000D02*
X115000000Y-85070000D01*
X103067157Y-45251472D02*
X100014214Y-45251472D01*
X132500000Y-82950000D02*
X132500000Y-67950000D01*
X132500000Y-67950000D02*
X135800000Y-64650000D01*
%TO.N,Net-(IC2-QH)*%
X77000000Y-75070000D02*
X80120000Y-71950000D01*
X125080000Y-81950000D02*
X126700000Y-83570000D01*
X111000000Y-81950000D02*
X125080000Y-81950000D01*
X88135635Y-71950000D02*
X91000000Y-74814365D01*
X91000000Y-75585635D02*
X93364365Y-77950000D01*
X80120000Y-71950000D02*
X88135635Y-71950000D01*
X107000000Y-77950000D02*
X111000000Y-81950000D01*
X91000000Y-74814365D02*
X91000000Y-75585635D01*
X93364365Y-77950000D02*
X107000000Y-77950000D01*
D30*
%TO.N,Net-(IC3-2Y)*%
X87000000Y-46950000D02*
X87000000Y-53450000D01*
X81380000Y-54450000D02*
X79500000Y-56330000D01*
X87000000Y-53450000D02*
X86000000Y-54450000D01*
X87500000Y-46450000D02*
X87000000Y-46950000D01*
X86000000Y-54450000D02*
X81380000Y-54450000D01*
%TO.N,Net-(IC3-4Y)*%
X74735000Y-46450000D02*
X75000000Y-46715000D01*
X75000000Y-49950000D02*
X75670000Y-50620000D01*
X75670000Y-50620000D02*
X75670000Y-58120000D01*
X85750000Y-60450000D02*
X87120000Y-61820000D01*
X87120000Y-61820000D02*
X87120000Y-63570000D01*
X75670000Y-58120000D02*
X78000000Y-60450000D01*
X75000000Y-46715000D02*
X75000000Y-49950000D01*
X78000000Y-60450000D02*
X85750000Y-60450000D01*
%TO.N,Net-(IC3-3Y)*%
X70000000Y-46450000D02*
X70000000Y-53950000D01*
X68500000Y-60950000D02*
X69500000Y-61950000D01*
X69500000Y-61950000D02*
X77880000Y-61950000D01*
X70000000Y-53950000D02*
X68500000Y-55450000D01*
X77880000Y-61950000D02*
X79500000Y-63570000D01*
X68500000Y-55450000D02*
X68500000Y-60950000D01*
%TO.N,Net-(IC3-1Y)*%
X90500000Y-47700000D02*
X88000000Y-50200000D01*
X82500000Y-46450000D02*
X85500000Y-43450000D01*
X90500000Y-44950000D02*
X90500000Y-47700000D01*
X88000000Y-50200000D02*
X88000000Y-55070000D01*
X88000000Y-55070000D02*
X87120000Y-55950000D01*
X85500000Y-43450000D02*
X89000000Y-43450000D01*
X87120000Y-55950000D02*
X87120000Y-56330000D01*
X89000000Y-43450000D02*
X90500000Y-44950000D01*
%TO.N,Net-(IC4-3Y)*%
X82000000Y-77590000D02*
X82000000Y-84950000D01*
X81930000Y-77520000D02*
X82000000Y-77590000D01*
X83000000Y-85950000D02*
X86265000Y-85950000D01*
X86265000Y-85950000D02*
X88765000Y-83450000D01*
X82000000Y-84950000D02*
X83000000Y-85950000D01*
%TO.N,Net-(IC4-4Y)*%
X87160000Y-77290000D02*
X83765000Y-80685000D01*
X83765000Y-80685000D02*
X83765000Y-83450000D01*
%TO.N,Net-(IC4-2Y)*%
X69000000Y-67450000D02*
X70500000Y-65950000D01*
X69000000Y-81950000D02*
X69000000Y-67450000D01*
X78040000Y-65950000D02*
X79540000Y-67450000D01*
X70500000Y-65950000D02*
X78040000Y-65950000D01*
X70500000Y-83450000D02*
X69000000Y-81950000D01*
%TO.N,Net-(IC4-1Y)*%
X75500000Y-83450000D02*
X72917914Y-86032086D01*
X69582086Y-86032086D02*
X68000000Y-84450000D01*
X68000000Y-66450000D02*
X69500000Y-64950000D01*
X68000000Y-84450000D02*
X68000000Y-66450000D01*
X87160000Y-66110000D02*
X87160000Y-67450000D01*
X72917914Y-86032086D02*
X69582086Y-86032086D01*
X69500000Y-64950000D02*
X86000000Y-64950000D01*
X86000000Y-64950000D02*
X87160000Y-66110000D01*
%TD*%
%TA.AperFunction,Conductor*%
%TO.N,+3.3V*%
G36*
X105883599Y-67469685D02*
G01*
X105904241Y-67486319D01*
X105997738Y-67579816D01*
X106150478Y-67675789D01*
X106167611Y-67681784D01*
X106320745Y-67735368D01*
X106320750Y-67735369D01*
X106499996Y-67755565D01*
X106500000Y-67755565D01*
X106500003Y-67755565D01*
X106660129Y-67737523D01*
X106728951Y-67749577D01*
X106761694Y-67773062D01*
X107163181Y-68174549D01*
X107196666Y-68235872D01*
X107199500Y-68262230D01*
X107199500Y-68775500D01*
X107179815Y-68842539D01*
X107127011Y-68888294D01*
X107075500Y-68899500D01*
X105792942Y-68899500D01*
X105725903Y-68879815D01*
X105681854Y-68830594D01*
X105667030Y-68800704D01*
X105547722Y-68652278D01*
X105547721Y-68652277D01*
X105399295Y-68532969D01*
X105399292Y-68532967D01*
X105228697Y-68448360D01*
X105043892Y-68402400D01*
X105022506Y-68400950D01*
X105001123Y-68399500D01*
X105001120Y-68399500D01*
X103598877Y-68399500D01*
X103598874Y-68399501D01*
X103556113Y-68402399D01*
X103556112Y-68402399D01*
X103371303Y-68448360D01*
X103200707Y-68532967D01*
X103200704Y-68532969D01*
X103052278Y-68652277D01*
X103052277Y-68652278D01*
X102932969Y-68800704D01*
X102932967Y-68800707D01*
X102848360Y-68971302D01*
X102802400Y-69156107D01*
X102799500Y-69198879D01*
X102799500Y-70101122D01*
X102799501Y-70101125D01*
X102802399Y-70143886D01*
X102802399Y-70143887D01*
X102848360Y-70328696D01*
X102932967Y-70499292D01*
X102932969Y-70499295D01*
X103052277Y-70647721D01*
X103052278Y-70647722D01*
X103121884Y-70703673D01*
X103161803Y-70761016D01*
X103164383Y-70830838D01*
X103128804Y-70890971D01*
X103121885Y-70896967D01*
X103052631Y-70952635D01*
X102933392Y-71100974D01*
X102933390Y-71100977D01*
X102848831Y-71271476D01*
X102802897Y-71456175D01*
X102800000Y-71498903D01*
X102800000Y-71700000D01*
X105800000Y-71700000D01*
X105800000Y-71498903D01*
X105797102Y-71456175D01*
X105751168Y-71271476D01*
X105666609Y-71100977D01*
X105666607Y-71100974D01*
X105547367Y-70952633D01*
X105547366Y-70952632D01*
X105478115Y-70896967D01*
X105438196Y-70839624D01*
X105435616Y-70769802D01*
X105471194Y-70709669D01*
X105478089Y-70703694D01*
X105547722Y-70647722D01*
X105667030Y-70499296D01*
X105681854Y-70469406D01*
X105729275Y-70418093D01*
X105792942Y-70400500D01*
X107075500Y-70400500D01*
X107142539Y-70420185D01*
X107188294Y-70472989D01*
X107199500Y-70524500D01*
X107199500Y-73024507D01*
X107180494Y-73090478D01*
X107174209Y-73100479D01*
X107114633Y-73270737D01*
X107114630Y-73270750D01*
X107094435Y-73449996D01*
X107094435Y-73449997D01*
X107097874Y-73480525D01*
X107085817Y-73549347D01*
X107038467Y-73600725D01*
X107013867Y-73612042D01*
X106920590Y-73643136D01*
X106881376Y-73649500D01*
X105866916Y-73649500D01*
X105799877Y-73629815D01*
X105754122Y-73577011D01*
X105752425Y-73572887D01*
X105667032Y-73400707D01*
X105667030Y-73400704D01*
X105547724Y-73252280D01*
X105547722Y-73252278D01*
X105478112Y-73196324D01*
X105438196Y-73138985D01*
X105435616Y-73069163D01*
X105471194Y-73009030D01*
X105478115Y-73003033D01*
X105547366Y-72947367D01*
X105547367Y-72947366D01*
X105666607Y-72799025D01*
X105666609Y-72799022D01*
X105751168Y-72628523D01*
X105797102Y-72443824D01*
X105800000Y-72401096D01*
X105800000Y-72200000D01*
X102800000Y-72200000D01*
X102800000Y-72401096D01*
X102802897Y-72443824D01*
X102848831Y-72628523D01*
X102933390Y-72799022D01*
X102933392Y-72799025D01*
X103052630Y-72947364D01*
X103121884Y-73003031D01*
X103161803Y-73060375D01*
X103164383Y-73130197D01*
X103128805Y-73190329D01*
X103121885Y-73196326D01*
X103052276Y-73252280D01*
X102932969Y-73400704D01*
X102932967Y-73400707D01*
X102848360Y-73571302D01*
X102802400Y-73756107D01*
X102799500Y-73798879D01*
X102799500Y-74701122D01*
X102799501Y-74701125D01*
X102802399Y-74743886D01*
X102802399Y-74743887D01*
X102848360Y-74928696D01*
X102932967Y-75099292D01*
X102932969Y-75099295D01*
X103052277Y-75247721D01*
X103052278Y-75247722D01*
X103200704Y-75367030D01*
X103200707Y-75367032D01*
X103286005Y-75409335D01*
X103371307Y-75451641D01*
X103463775Y-75474637D01*
X103524081Y-75509918D01*
X103544757Y-75539516D01*
X103860022Y-76170045D01*
X103872397Y-76238811D01*
X103845629Y-76303350D01*
X103788219Y-76343172D01*
X103749113Y-76349500D01*
X95800098Y-76349500D01*
X95733059Y-76329815D01*
X95712417Y-76313181D01*
X95171132Y-75771896D01*
X95137647Y-75710573D01*
X95134813Y-75684215D01*
X95134813Y-74889210D01*
X95153819Y-74823239D01*
X95189916Y-74765792D01*
X95249495Y-74595525D01*
X95249939Y-74591584D01*
X95269692Y-74416273D01*
X95269692Y-74416266D01*
X95249496Y-74237020D01*
X95249495Y-74237015D01*
X95189915Y-74066746D01*
X95093942Y-73914007D01*
X95036319Y-73856384D01*
X95002834Y-73795061D01*
X95000000Y-73768703D01*
X95000000Y-73422729D01*
X95019685Y-73355690D01*
X95036320Y-73335047D01*
X95082950Y-73288417D01*
X95082950Y-73288416D01*
X95082952Y-73288415D01*
X95121256Y-73231088D01*
X95165084Y-73165495D01*
X95194489Y-73094506D01*
X95221659Y-73028912D01*
X95250500Y-72883917D01*
X95250500Y-72736082D01*
X95250500Y-72200000D01*
X96500000Y-72200000D01*
X96500000Y-73408000D01*
X96510608Y-73527325D01*
X96510609Y-73527328D01*
X96566557Y-73722861D01*
X96660721Y-73903129D01*
X96789246Y-74060753D01*
X96946870Y-74189278D01*
X97127138Y-74283442D01*
X97322671Y-74339390D01*
X97322674Y-74339391D01*
X97441999Y-74349999D01*
X97442002Y-74350000D01*
X97750000Y-74350000D01*
X97750000Y-72200000D01*
X98250000Y-72200000D01*
X98250000Y-74350000D01*
X98557998Y-74350000D01*
X98558000Y-74349999D01*
X98677325Y-74339391D01*
X98677328Y-74339390D01*
X98872861Y-74283442D01*
X99053129Y-74189278D01*
X99210753Y-74060753D01*
X99339278Y-73903129D01*
X99433442Y-73722861D01*
X99489390Y-73527328D01*
X99489391Y-73527325D01*
X99499999Y-73408000D01*
X99500000Y-73407998D01*
X99500000Y-72200000D01*
X98250000Y-72200000D01*
X97750000Y-72200000D01*
X96500000Y-72200000D01*
X95250500Y-72200000D01*
X95250500Y-71700000D01*
X96500000Y-71700000D01*
X97750000Y-71700000D01*
X97750000Y-69550000D01*
X98250000Y-69550000D01*
X98250000Y-71700000D01*
X99500000Y-71700000D01*
X99500000Y-70492002D01*
X99499999Y-70491999D01*
X99489391Y-70372674D01*
X99489390Y-70372671D01*
X99433442Y-70177138D01*
X99339278Y-69996870D01*
X99210753Y-69839246D01*
X99053129Y-69710721D01*
X98872861Y-69616557D01*
X98677328Y-69560609D01*
X98677325Y-69560608D01*
X98558000Y-69550000D01*
X98250000Y-69550000D01*
X97750000Y-69550000D01*
X97441999Y-69550000D01*
X97322674Y-69560608D01*
X97322671Y-69560609D01*
X97127138Y-69616557D01*
X96946870Y-69710721D01*
X96789246Y-69839246D01*
X96660721Y-69996870D01*
X96566557Y-70177138D01*
X96510609Y-70372671D01*
X96510608Y-70372674D01*
X96500000Y-70491999D01*
X96500000Y-71700000D01*
X95250500Y-71700000D01*
X95250500Y-69751082D01*
X95250500Y-68376082D01*
X95250500Y-67824500D01*
X95270185Y-67757461D01*
X95322989Y-67711706D01*
X95374500Y-67700500D01*
X102700028Y-67700500D01*
X102740983Y-67707458D01*
X102820745Y-67735368D01*
X102820750Y-67735369D01*
X102999996Y-67755565D01*
X103000000Y-67755565D01*
X103000004Y-67755565D01*
X103179249Y-67735369D01*
X103179252Y-67735368D01*
X103179255Y-67735368D01*
X103349522Y-67675789D01*
X103502262Y-67579816D01*
X103595759Y-67486319D01*
X103657082Y-67452834D01*
X103683440Y-67450000D01*
X105816560Y-67450000D01*
X105883599Y-67469685D01*
G37*
%TD.AperFunction*%
%TD*%
%TA.AperFunction,Conductor*%
%TO.N,GND*%
G36*
X106155199Y-39970185D02*
G01*
X106200954Y-40022989D01*
X106210898Y-40092147D01*
X106181873Y-40155703D01*
X106175841Y-40162181D01*
X102523369Y-43814653D01*
X102462046Y-43848138D01*
X102435688Y-43850972D01*
X99419468Y-43850972D01*
X99378547Y-43861936D01*
X99378547Y-43861937D01*
X99341279Y-43871923D01*
X99266742Y-43891895D01*
X99266737Y-43891898D01*
X99129818Y-43970947D01*
X99129810Y-43970953D01*
X96562181Y-46538583D01*
X96500858Y-46572068D01*
X96431166Y-46567084D01*
X96375233Y-46525212D01*
X96350816Y-46459748D01*
X96350500Y-46450902D01*
X96350500Y-46339778D01*
X96342035Y-46286335D01*
X96316015Y-46122049D01*
X96281955Y-46017221D01*
X96247896Y-45912396D01*
X96247895Y-45912393D01*
X96213237Y-45844375D01*
X96147815Y-45715978D01*
X96079867Y-45622455D01*
X96018247Y-45537641D01*
X96018243Y-45537636D01*
X95862363Y-45381756D01*
X95862358Y-45381752D01*
X95684025Y-45252187D01*
X95684024Y-45252186D01*
X95684022Y-45252185D01*
X95614872Y-45216951D01*
X95487606Y-45152104D01*
X95487603Y-45152103D01*
X95277952Y-45083985D01*
X95169086Y-45066742D01*
X95060222Y-45049500D01*
X94839778Y-45049500D01*
X94767201Y-45060995D01*
X94622047Y-45083985D01*
X94412396Y-45152103D01*
X94412393Y-45152104D01*
X94215974Y-45252187D01*
X94037641Y-45381752D01*
X94037636Y-45381756D01*
X93881756Y-45537636D01*
X93881752Y-45537641D01*
X93752187Y-45715974D01*
X93652104Y-45912393D01*
X93652103Y-45912396D01*
X93583985Y-46122047D01*
X93549500Y-46339778D01*
X93549500Y-46560221D01*
X93583985Y-46777952D01*
X93652103Y-46987603D01*
X93652104Y-46987606D01*
X93716382Y-47113756D01*
X93751973Y-47183606D01*
X93752187Y-47184025D01*
X93881752Y-47362358D01*
X93881756Y-47362363D01*
X94037636Y-47518243D01*
X94037641Y-47518247D01*
X94193192Y-47631260D01*
X94215978Y-47647815D01*
X94344375Y-47713237D01*
X94412393Y-47747895D01*
X94412396Y-47747896D01*
X94492486Y-47773918D01*
X94622049Y-47816015D01*
X94839778Y-47850500D01*
X94839779Y-47850500D01*
X94950902Y-47850500D01*
X95017941Y-47870185D01*
X95063696Y-47922989D01*
X95073640Y-47992147D01*
X95044615Y-48055703D01*
X95038583Y-48062181D01*
X90287584Y-52813181D01*
X90226261Y-52846666D01*
X90199903Y-52849500D01*
X89582412Y-52849500D01*
X89515373Y-52829815D01*
X89505097Y-52822445D01*
X89502263Y-52820185D01*
X89502262Y-52820184D01*
X89440539Y-52781401D01*
X89349523Y-52724211D01*
X89179254Y-52664631D01*
X89179249Y-52664630D01*
X89000004Y-52644435D01*
X88999996Y-52644435D01*
X88888383Y-52657010D01*
X88819561Y-52644955D01*
X88768182Y-52597606D01*
X88750500Y-52533790D01*
X88750500Y-50562230D01*
X88770185Y-50495191D01*
X88786819Y-50474549D01*
X89912926Y-49348442D01*
X91082952Y-48178416D01*
X91145327Y-48085063D01*
X91165084Y-48055495D01*
X91221658Y-47918913D01*
X91242126Y-47816015D01*
X91250500Y-47773920D01*
X91250500Y-44876079D01*
X91221659Y-44731092D01*
X91221658Y-44731091D01*
X91221658Y-44731087D01*
X91212178Y-44708201D01*
X91165087Y-44594511D01*
X91165080Y-44594498D01*
X91082952Y-44471585D01*
X91033483Y-44422116D01*
X90978416Y-44367049D01*
X90617568Y-44006201D01*
X89478421Y-42867052D01*
X89478414Y-42867046D01*
X89404729Y-42817812D01*
X89404729Y-42817813D01*
X89355491Y-42784913D01*
X89218917Y-42728343D01*
X89218907Y-42728340D01*
X89073920Y-42699500D01*
X89073918Y-42699500D01*
X85426082Y-42699500D01*
X85426076Y-42699500D01*
X85397242Y-42705234D01*
X85397243Y-42705235D01*
X85281093Y-42728339D01*
X85281083Y-42728342D01*
X85201081Y-42761479D01*
X85201082Y-42761480D01*
X85144505Y-42784915D01*
X85062372Y-42839795D01*
X85021585Y-42867047D01*
X85021581Y-42867050D01*
X83955450Y-43933181D01*
X83894127Y-43966666D01*
X83867769Y-43969500D01*
X82197129Y-43969500D01*
X82197123Y-43969501D01*
X82137516Y-43975908D01*
X82002671Y-44026202D01*
X82002664Y-44026206D01*
X81887455Y-44112452D01*
X81887452Y-44112455D01*
X81801206Y-44227664D01*
X81801202Y-44227671D01*
X81750908Y-44362517D01*
X81744885Y-44418542D01*
X81744501Y-44422123D01*
X81744500Y-44422135D01*
X81744500Y-48477870D01*
X81744501Y-48477876D01*
X81750908Y-48537483D01*
X81801202Y-48672328D01*
X81801206Y-48672335D01*
X81887452Y-48787544D01*
X81887455Y-48787547D01*
X82002664Y-48873793D01*
X82002671Y-48873797D01*
X82137517Y-48924091D01*
X82137516Y-48924091D01*
X82144444Y-48924835D01*
X82197127Y-48930500D01*
X84272872Y-48930499D01*
X84332483Y-48924091D01*
X84467331Y-48873796D01*
X84582546Y-48787546D01*
X84668796Y-48672331D01*
X84719091Y-48537483D01*
X84725500Y-48477873D01*
X84725499Y-45337228D01*
X84745184Y-45270190D01*
X84761813Y-45249553D01*
X85774548Y-44236819D01*
X85835871Y-44203334D01*
X85862229Y-44200500D01*
X87087252Y-44200500D01*
X87154291Y-44220185D01*
X87200046Y-44272989D01*
X87209990Y-44342147D01*
X87180965Y-44405703D01*
X87174933Y-44412181D01*
X87098108Y-44489005D01*
X87098104Y-44489010D01*
X86960212Y-44678804D01*
X86853697Y-44887849D01*
X86781201Y-45110972D01*
X86744500Y-45342695D01*
X86744500Y-46092770D01*
X86724815Y-46159809D01*
X86708181Y-46180451D01*
X86417047Y-46471584D01*
X86417045Y-46471586D01*
X86388314Y-46514589D01*
X86388312Y-46514592D01*
X86334914Y-46594507D01*
X86278343Y-46731082D01*
X86278340Y-46731092D01*
X86249500Y-46876079D01*
X86249500Y-52768060D01*
X86229815Y-52835099D01*
X86177011Y-52880854D01*
X86107853Y-52890798D01*
X86044297Y-52861773D01*
X86037819Y-52855741D01*
X86002262Y-52820184D01*
X85849523Y-52724211D01*
X85679254Y-52664631D01*
X85679249Y-52664630D01*
X85500004Y-52644435D01*
X85499996Y-52644435D01*
X85320750Y-52664630D01*
X85320745Y-52664631D01*
X85150476Y-52724211D01*
X84997736Y-52820185D01*
X84994903Y-52822445D01*
X84992724Y-52823334D01*
X84991842Y-52823889D01*
X84991744Y-52823734D01*
X84930217Y-52848855D01*
X84917588Y-52849500D01*
X79546669Y-52849500D01*
X79546653Y-52849499D01*
X79539057Y-52849499D01*
X79380943Y-52849499D01*
X79304579Y-52869961D01*
X79228212Y-52890423D01*
X79228211Y-52890424D01*
X79193440Y-52910500D01*
X79091287Y-52969477D01*
X79091282Y-52969481D01*
X78979478Y-53081286D01*
X77402705Y-54658058D01*
X77341382Y-54691543D01*
X77282931Y-54690152D01*
X77186697Y-54664366D01*
X77186693Y-54664365D01*
X77186692Y-54664365D01*
X77186691Y-54664364D01*
X77186686Y-54664364D01*
X76960002Y-54644532D01*
X76959998Y-54644532D01*
X76733313Y-54664364D01*
X76733302Y-54664366D01*
X76576593Y-54706356D01*
X76506743Y-54704693D01*
X76448881Y-54665530D01*
X76421377Y-54601302D01*
X76420500Y-54586581D01*
X76420500Y-50546079D01*
X76391659Y-50401092D01*
X76391658Y-50401091D01*
X76391658Y-50401087D01*
X76390705Y-50398786D01*
X76335087Y-50264511D01*
X76335080Y-50264498D01*
X76252952Y-50141585D01*
X76203379Y-50092012D01*
X76148416Y-50037049D01*
X75973048Y-49861681D01*
X75786819Y-49675451D01*
X75753334Y-49614128D01*
X75750500Y-49587770D01*
X75750500Y-48800270D01*
X75770185Y-48733231D01*
X75801612Y-48699953D01*
X75970996Y-48576890D01*
X76136890Y-48410996D01*
X76274790Y-48221192D01*
X76381301Y-48012153D01*
X76453799Y-47789026D01*
X76490500Y-47557305D01*
X76490500Y-45342695D01*
X76453799Y-45110974D01*
X76381301Y-44887847D01*
X76274790Y-44678808D01*
X76185181Y-44555471D01*
X76136895Y-44489010D01*
X76136891Y-44489005D01*
X75970994Y-44323108D01*
X75970989Y-44323104D01*
X75781195Y-44185212D01*
X75781194Y-44185211D01*
X75781192Y-44185210D01*
X75638397Y-44112452D01*
X75572150Y-44078697D01*
X75349027Y-44006201D01*
X75233165Y-43987850D01*
X75117305Y-43969500D01*
X74882695Y-43969500D01*
X74805454Y-43981733D01*
X74650972Y-44006201D01*
X74427849Y-44078697D01*
X74218804Y-44185212D01*
X74029010Y-44323104D01*
X74029005Y-44323108D01*
X73863108Y-44489005D01*
X73863104Y-44489010D01*
X73725212Y-44678804D01*
X73618697Y-44887849D01*
X73546201Y-45110972D01*
X73518127Y-45288226D01*
X73509500Y-45342695D01*
X73509500Y-47557305D01*
X73510859Y-47565885D01*
X73546201Y-47789027D01*
X73618697Y-48012150D01*
X73671594Y-48115965D01*
X73721892Y-48214681D01*
X73725212Y-48221195D01*
X73863104Y-48410989D01*
X73863108Y-48410994D01*
X73863110Y-48410996D01*
X74029004Y-48576890D01*
X74198386Y-48699953D01*
X74241051Y-48755281D01*
X74249500Y-48800270D01*
X74249500Y-50023918D01*
X74249500Y-50023920D01*
X74249499Y-50023920D01*
X74278340Y-50168907D01*
X74278343Y-50168917D01*
X74334914Y-50305491D01*
X74334916Y-50305495D01*
X74345084Y-50320712D01*
X74359652Y-50342516D01*
X74417049Y-50428418D01*
X74417052Y-50428421D01*
X74883181Y-50894548D01*
X74916666Y-50955871D01*
X74919500Y-50982229D01*
X74919500Y-54575863D01*
X74899815Y-54642902D01*
X74847011Y-54688657D01*
X74777853Y-54698601D01*
X74763407Y-54695638D01*
X74646697Y-54664366D01*
X74646693Y-54664365D01*
X74646692Y-54664365D01*
X74646691Y-54664364D01*
X74646686Y-54664364D01*
X74420002Y-54644532D01*
X74419998Y-54644532D01*
X74193313Y-54664364D01*
X74193302Y-54664366D01*
X73973511Y-54723258D01*
X73973502Y-54723261D01*
X73767267Y-54819431D01*
X73767265Y-54819432D01*
X73580858Y-54949954D01*
X73419954Y-55110858D01*
X73289432Y-55297265D01*
X73289431Y-55297267D01*
X73193261Y-55503502D01*
X73193259Y-55503508D01*
X73165370Y-55607594D01*
X73129005Y-55667254D01*
X73066158Y-55697783D01*
X73045595Y-55699500D01*
X72892508Y-55699500D01*
X72825469Y-55679815D01*
X72786969Y-55640597D01*
X72786601Y-55640000D01*
X72742712Y-55568844D01*
X72618656Y-55444788D01*
X72469334Y-55352686D01*
X72302797Y-55297501D01*
X72302795Y-55297500D01*
X72200010Y-55287000D01*
X70799998Y-55287000D01*
X70799981Y-55287001D01*
X70697203Y-55297500D01*
X70697200Y-55297501D01*
X70530668Y-55352685D01*
X70530663Y-55352687D01*
X70381342Y-55444789D01*
X70257289Y-55568842D01*
X70165187Y-55718163D01*
X70165185Y-55718168D01*
X70151036Y-55760867D01*
X70110001Y-55884703D01*
X70110001Y-55884704D01*
X70110000Y-55884704D01*
X70099500Y-55987483D01*
X70099500Y-56737769D01*
X70079815Y-56804808D01*
X70063181Y-56825450D01*
X69462181Y-57426450D01*
X69400858Y-57459935D01*
X69331166Y-57454951D01*
X69275233Y-57413079D01*
X69250816Y-57347615D01*
X69250500Y-57338769D01*
X69250500Y-55812229D01*
X69270185Y-55745190D01*
X69286819Y-55724548D01*
X70582948Y-54428419D01*
X70582951Y-54428416D01*
X70665084Y-54305495D01*
X70721658Y-54168913D01*
X70744649Y-54053334D01*
X70750500Y-54023920D01*
X70750500Y-49054499D01*
X70770185Y-48987460D01*
X70822989Y-48941705D01*
X70874500Y-48930499D01*
X71037871Y-48930499D01*
X71037872Y-48930499D01*
X71097483Y-48924091D01*
X71232331Y-48873796D01*
X71347546Y-48787546D01*
X71433796Y-48672331D01*
X71484091Y-48537483D01*
X71490500Y-48477873D01*
X71490499Y-44422128D01*
X71484091Y-44362517D01*
X71476493Y-44342147D01*
X71433797Y-44227671D01*
X71433793Y-44227664D01*
X71347547Y-44112455D01*
X71347544Y-44112452D01*
X71232335Y-44026206D01*
X71232328Y-44026202D01*
X71097482Y-43975908D01*
X71097483Y-43975908D01*
X71037883Y-43969501D01*
X71037881Y-43969500D01*
X71037873Y-43969500D01*
X71037864Y-43969500D01*
X68962129Y-43969500D01*
X68962123Y-43969501D01*
X68902516Y-43975908D01*
X68767671Y-44026202D01*
X68767664Y-44026206D01*
X68652455Y-44112452D01*
X68652452Y-44112455D01*
X68566206Y-44227664D01*
X68566202Y-44227671D01*
X68515908Y-44362517D01*
X68509885Y-44418542D01*
X68509501Y-44422123D01*
X68509500Y-44422135D01*
X68509500Y-48477870D01*
X68509501Y-48477876D01*
X68515908Y-48537483D01*
X68566202Y-48672328D01*
X68566206Y-48672335D01*
X68652452Y-48787544D01*
X68652455Y-48787547D01*
X68767664Y-48873793D01*
X68767671Y-48873797D01*
X68811833Y-48890268D01*
X68902517Y-48924091D01*
X68962127Y-48930500D01*
X69125500Y-48930499D01*
X69192539Y-48950183D01*
X69238294Y-49002987D01*
X69249500Y-49054499D01*
X69249500Y-53587770D01*
X69229815Y-53654809D01*
X69213181Y-53675451D01*
X67917047Y-54971584D01*
X67903946Y-54991192D01*
X67890901Y-55010717D01*
X67866103Y-55047830D01*
X67834914Y-55094507D01*
X67778343Y-55231082D01*
X67778340Y-55231092D01*
X67749500Y-55376079D01*
X67749500Y-55376082D01*
X67749500Y-61023918D01*
X67749500Y-61023920D01*
X67749499Y-61023920D01*
X67778340Y-61168907D01*
X67778343Y-61168917D01*
X67834912Y-61305487D01*
X67834916Y-61305495D01*
X67839377Y-61312171D01*
X67906200Y-61412181D01*
X67917051Y-61428420D01*
X67917052Y-61428421D01*
X69021581Y-62532949D01*
X69021580Y-62532949D01*
X69024904Y-62535170D01*
X69034616Y-62541659D01*
X69144505Y-62615084D01*
X69181537Y-62630423D01*
X69281088Y-62671659D01*
X69379751Y-62691284D01*
X69400946Y-62695500D01*
X69426081Y-62700500D01*
X69426082Y-62700500D01*
X69426083Y-62700500D01*
X69573918Y-62700500D01*
X73203012Y-62700500D01*
X73270051Y-62720185D01*
X73315806Y-62772989D01*
X73325750Y-62842147D01*
X73304587Y-62895621D01*
X73303165Y-62897653D01*
X73289432Y-62917265D01*
X73289431Y-62917267D01*
X73193261Y-63123502D01*
X73193258Y-63123511D01*
X73134366Y-63343302D01*
X73134364Y-63343313D01*
X73114532Y-63569998D01*
X73114532Y-63570001D01*
X73134364Y-63796686D01*
X73134366Y-63796697D01*
X73193258Y-64016488D01*
X73193263Y-64016503D01*
X73196339Y-64023098D01*
X73206830Y-64092176D01*
X73178308Y-64155959D01*
X73119831Y-64194197D01*
X73083956Y-64199500D01*
X69426080Y-64199500D01*
X69281092Y-64228340D01*
X69281082Y-64228343D01*
X69144511Y-64284912D01*
X69144498Y-64284919D01*
X69021584Y-64367048D01*
X69021580Y-64367051D01*
X67417048Y-65971583D01*
X67397787Y-66000410D01*
X67378653Y-66029048D01*
X67334919Y-66094499D01*
X67334912Y-66094511D01*
X67278343Y-66231082D01*
X67278340Y-66231092D01*
X67249500Y-66376079D01*
X67249500Y-66376082D01*
X67249500Y-84523918D01*
X67249500Y-84523920D01*
X67249499Y-84523920D01*
X67278340Y-84668907D01*
X67278343Y-84668917D01*
X67334914Y-84805492D01*
X67367812Y-84854727D01*
X67367813Y-84854730D01*
X67417046Y-84928414D01*
X67417052Y-84928421D01*
X68730895Y-86242262D01*
X68999134Y-86510501D01*
X68999135Y-86510502D01*
X69059333Y-86570700D01*
X69103671Y-86615038D01*
X69226584Y-86697166D01*
X69226597Y-86697173D01*
X69363168Y-86753742D01*
X69363173Y-86753744D01*
X69363177Y-86753744D01*
X69363178Y-86753745D01*
X69508165Y-86782586D01*
X69508168Y-86782586D01*
X72991834Y-86782586D01*
X73089376Y-86763182D01*
X73136827Y-86753744D01*
X73273409Y-86697170D01*
X73332060Y-86657981D01*
X73396330Y-86615038D01*
X74117884Y-85893482D01*
X74179205Y-85859999D01*
X74248896Y-85864983D01*
X74264996Y-85872336D01*
X74267665Y-85873793D01*
X74267669Y-85873796D01*
X74389535Y-85919249D01*
X74402517Y-85924091D01*
X74402516Y-85924091D01*
X74409444Y-85924835D01*
X74462127Y-85930500D01*
X76537872Y-85930499D01*
X76597483Y-85924091D01*
X76732331Y-85873796D01*
X76847546Y-85787546D01*
X76933796Y-85672331D01*
X76984091Y-85537483D01*
X76990500Y-85477873D01*
X76990499Y-81422128D01*
X76984091Y-81362517D01*
X76969392Y-81323108D01*
X76933797Y-81227671D01*
X76933793Y-81227664D01*
X76847547Y-81112455D01*
X76847544Y-81112452D01*
X76732335Y-81026206D01*
X76732328Y-81026202D01*
X76597482Y-80975908D01*
X76597483Y-80975908D01*
X76537883Y-80969501D01*
X76537881Y-80969500D01*
X76537873Y-80969500D01*
X76537864Y-80969500D01*
X74462129Y-80969500D01*
X74462123Y-80969501D01*
X74402516Y-80975908D01*
X74267671Y-81026202D01*
X74267664Y-81026206D01*
X74152455Y-81112452D01*
X74152452Y-81112455D01*
X74066206Y-81227664D01*
X74066202Y-81227671D01*
X74015908Y-81362517D01*
X74009501Y-81422116D01*
X74009501Y-81422123D01*
X74009500Y-81422135D01*
X74009500Y-83827769D01*
X73989815Y-83894808D01*
X73973181Y-83915450D01*
X72643365Y-85245267D01*
X72582042Y-85278752D01*
X72555684Y-85281586D01*
X71946368Y-85281586D01*
X71879329Y-85261901D01*
X71833574Y-85209097D01*
X71823630Y-85139939D01*
X71835883Y-85101291D01*
X71855038Y-85063696D01*
X71881301Y-85012153D01*
X71953799Y-84789026D01*
X71990500Y-84557305D01*
X71990500Y-82342695D01*
X71953799Y-82110974D01*
X71881301Y-81887847D01*
X71774790Y-81678808D01*
X71682892Y-81552320D01*
X71636895Y-81489010D01*
X71636891Y-81489005D01*
X71470994Y-81323108D01*
X71470989Y-81323104D01*
X71281195Y-81185212D01*
X71281194Y-81185211D01*
X71281192Y-81185210D01*
X71113427Y-81099729D01*
X71072150Y-81078697D01*
X70849027Y-81006201D01*
X70684799Y-80980190D01*
X70617305Y-80969500D01*
X70382695Y-80969500D01*
X70315201Y-80980190D01*
X70150972Y-81006201D01*
X69927846Y-81078698D01*
X69923348Y-81080562D01*
X69922596Y-81078746D01*
X69862072Y-81090087D01*
X69797343Y-81063782D01*
X69757111Y-81006658D01*
X69750500Y-80966711D01*
X69750500Y-75561229D01*
X69770185Y-75494190D01*
X69822989Y-75448435D01*
X69892147Y-75438491D01*
X69955703Y-75467516D01*
X69962181Y-75473548D01*
X71417049Y-76928416D01*
X71521584Y-77032951D01*
X71521585Y-77032952D01*
X71644498Y-77115080D01*
X71644511Y-77115087D01*
X71751228Y-77159290D01*
X71781087Y-77171658D01*
X71781091Y-77171658D01*
X71781092Y-77171659D01*
X71926079Y-77200500D01*
X71926082Y-77200500D01*
X71926083Y-77200500D01*
X72073917Y-77200500D01*
X81021677Y-77200500D01*
X81088716Y-77220185D01*
X81134471Y-77272989D01*
X81144897Y-77338383D01*
X81124435Y-77519996D01*
X81124435Y-77520003D01*
X81144630Y-77699249D01*
X81144631Y-77699254D01*
X81182862Y-77808511D01*
X81204211Y-77869522D01*
X81230493Y-77911349D01*
X81249500Y-77977321D01*
X81249500Y-85023918D01*
X81249500Y-85023920D01*
X81249499Y-85023920D01*
X81278340Y-85168907D01*
X81278343Y-85168917D01*
X81334914Y-85305492D01*
X81334915Y-85305494D01*
X81334916Y-85305495D01*
X81363102Y-85347679D01*
X81367812Y-85354727D01*
X81367813Y-85354730D01*
X81417046Y-85428414D01*
X81417052Y-85428421D01*
X82417049Y-86428416D01*
X82521584Y-86532951D01*
X82521587Y-86532953D01*
X82521588Y-86532954D01*
X82644503Y-86615083D01*
X82644506Y-86615085D01*
X82701079Y-86638518D01*
X82701080Y-86638518D01*
X82781088Y-86671659D01*
X82897241Y-86694763D01*
X82909357Y-86697173D01*
X82926081Y-86700500D01*
X82926082Y-86700500D01*
X86338920Y-86700500D01*
X86436462Y-86681096D01*
X86483913Y-86671658D01*
X86620495Y-86615084D01*
X86669729Y-86582186D01*
X86743416Y-86532952D01*
X87382884Y-85893482D01*
X87444205Y-85859999D01*
X87513896Y-85864983D01*
X87529996Y-85872336D01*
X87532665Y-85873793D01*
X87532669Y-85873796D01*
X87654535Y-85919249D01*
X87667517Y-85924091D01*
X87667516Y-85924091D01*
X87674444Y-85924835D01*
X87727127Y-85930500D01*
X89802872Y-85930499D01*
X89862483Y-85924091D01*
X89997331Y-85873796D01*
X90112546Y-85787546D01*
X90198796Y-85672331D01*
X90249091Y-85537483D01*
X90255500Y-85477873D01*
X90255499Y-81422128D01*
X90249091Y-81362517D01*
X90234392Y-81323108D01*
X90198797Y-81227671D01*
X90198793Y-81227664D01*
X90112547Y-81112455D01*
X90112544Y-81112452D01*
X89997335Y-81026206D01*
X89997328Y-81026202D01*
X89862482Y-80975908D01*
X89862483Y-80975908D01*
X89802883Y-80969501D01*
X89802881Y-80969500D01*
X89802873Y-80969500D01*
X89802864Y-80969500D01*
X87727129Y-80969500D01*
X87727123Y-80969501D01*
X87667516Y-80975908D01*
X87532671Y-81026202D01*
X87532664Y-81026206D01*
X87417455Y-81112452D01*
X87417452Y-81112455D01*
X87331206Y-81227664D01*
X87331202Y-81227671D01*
X87280908Y-81362517D01*
X87274501Y-81422116D01*
X87274501Y-81422123D01*
X87274500Y-81422135D01*
X87274500Y-83827769D01*
X87254815Y-83894808D01*
X87238181Y-83915450D01*
X85990451Y-85163181D01*
X85929128Y-85196666D01*
X85902770Y-85199500D01*
X85253193Y-85199500D01*
X85186154Y-85179815D01*
X85140399Y-85127011D01*
X85130455Y-85057853D01*
X85142708Y-85019205D01*
X85143232Y-85018174D01*
X85146301Y-85012153D01*
X85218799Y-84789026D01*
X85255500Y-84557305D01*
X85255500Y-82342695D01*
X85218799Y-82110974D01*
X85146301Y-81887847D01*
X85039790Y-81678808D01*
X84947892Y-81552320D01*
X84901895Y-81489010D01*
X84901891Y-81489005D01*
X84735994Y-81323108D01*
X84735989Y-81323104D01*
X84566615Y-81200047D01*
X84523949Y-81144717D01*
X84515500Y-81099729D01*
X84515500Y-81047229D01*
X84535185Y-80980190D01*
X84551814Y-80959553D01*
X87468061Y-78043305D01*
X87504134Y-78020655D01*
X87503246Y-78018811D01*
X87509518Y-78015790D01*
X87509522Y-78015789D01*
X87662262Y-77919816D01*
X87789816Y-77792262D01*
X87885789Y-77639522D01*
X87945368Y-77469255D01*
X87956429Y-77371087D01*
X87963243Y-77310616D01*
X87990310Y-77246202D01*
X88047904Y-77206647D01*
X88086463Y-77200500D01*
X89137770Y-77200500D01*
X89204809Y-77220185D01*
X89225451Y-77236819D01*
X90619799Y-78631166D01*
X91917049Y-79928416D01*
X92021584Y-80032951D01*
X92021587Y-80032953D01*
X92021588Y-80032954D01*
X92144503Y-80115083D01*
X92144506Y-80115085D01*
X92201079Y-80138518D01*
X92201080Y-80138518D01*
X92281088Y-80171659D01*
X92397241Y-80194763D01*
X92416468Y-80198587D01*
X92426081Y-80200500D01*
X92426082Y-80200500D01*
X92426083Y-80200500D01*
X92573918Y-80200500D01*
X97589241Y-80200500D01*
X97656280Y-80220185D01*
X97676922Y-80236819D01*
X98534260Y-81094157D01*
X98567745Y-81155480D01*
X98562761Y-81225172D01*
X98520889Y-81281105D01*
X98484897Y-81299769D01*
X98308200Y-81357181D01*
X98141303Y-81442220D01*
X97989765Y-81552320D01*
X97857320Y-81684765D01*
X97747220Y-81836303D01*
X97662181Y-82003200D01*
X97604301Y-82181337D01*
X97604301Y-82181340D01*
X97575000Y-82366339D01*
X97575000Y-83200000D01*
X98154175Y-83200000D01*
X98130364Y-83257485D01*
X98105000Y-83384996D01*
X98105000Y-83515004D01*
X98130364Y-83642515D01*
X98154175Y-83700000D01*
X97575000Y-83700000D01*
X97575000Y-84533660D01*
X97604301Y-84718659D01*
X97604301Y-84718662D01*
X97662181Y-84896799D01*
X97747220Y-85063696D01*
X97857320Y-85215234D01*
X97989765Y-85347679D01*
X98141303Y-85457779D01*
X98308200Y-85542818D01*
X98486338Y-85600698D01*
X98515000Y-85605238D01*
X98515000Y-84060824D01*
X98572485Y-84084636D01*
X98699996Y-84110000D01*
X98830004Y-84110000D01*
X98957515Y-84084636D01*
X99015000Y-84060824D01*
X99015000Y-85605237D01*
X99043659Y-85600698D01*
X99043662Y-85600698D01*
X99221799Y-85542818D01*
X99388696Y-85457779D01*
X99540234Y-85347679D01*
X99672679Y-85215234D01*
X99782779Y-85063696D01*
X99867818Y-84896799D01*
X99925698Y-84718662D01*
X99925698Y-84718659D01*
X99955000Y-84533660D01*
X99955000Y-83700000D01*
X99375825Y-83700000D01*
X99399636Y-83642515D01*
X99425000Y-83515004D01*
X99425000Y-83384996D01*
X99399636Y-83257485D01*
X99375825Y-83200000D01*
X99955000Y-83200000D01*
X99955000Y-82814258D01*
X99974685Y-82747219D01*
X100027489Y-82701464D01*
X100096647Y-82691520D01*
X100160203Y-82720545D01*
X100166676Y-82726572D01*
X101368519Y-83928415D01*
X101368520Y-83928416D01*
X101456600Y-84016496D01*
X101473056Y-84032952D01*
X101595969Y-84115080D01*
X101595982Y-84115087D01*
X101718437Y-84165809D01*
X101732558Y-84171658D01*
X101732562Y-84171658D01*
X101732563Y-84171659D01*
X101877550Y-84200500D01*
X101877553Y-84200500D01*
X102150501Y-84200500D01*
X102217540Y-84220185D01*
X102263295Y-84272989D01*
X102274501Y-84324500D01*
X102274501Y-85477876D01*
X102280908Y-85537483D01*
X102331202Y-85672328D01*
X102331206Y-85672335D01*
X102417452Y-85787544D01*
X102417455Y-85787547D01*
X102532664Y-85873793D01*
X102532671Y-85873797D01*
X102667517Y-85924091D01*
X102667516Y-85924091D01*
X102674444Y-85924835D01*
X102727127Y-85930500D01*
X104802872Y-85930499D01*
X104862483Y-85924091D01*
X104997331Y-85873796D01*
X105112546Y-85787546D01*
X105198796Y-85672331D01*
X105249091Y-85537483D01*
X105255500Y-85477873D01*
X105255499Y-82807228D01*
X105275184Y-82740190D01*
X105291813Y-82719553D01*
X106808059Y-81203306D01*
X106844132Y-81180657D01*
X106843244Y-81178813D01*
X106849515Y-81175792D01*
X106849516Y-81175790D01*
X106849522Y-81175789D01*
X107002262Y-81079816D01*
X107129816Y-80952262D01*
X107225789Y-80799522D01*
X107285368Y-80629255D01*
X107298388Y-80513693D01*
X107325454Y-80449280D01*
X107383048Y-80409725D01*
X107452885Y-80407586D01*
X107509289Y-80439896D01*
X110123181Y-83053788D01*
X110156666Y-83115111D01*
X110159500Y-83141469D01*
X110159500Y-84417870D01*
X110159501Y-84417876D01*
X110165908Y-84477483D01*
X110216202Y-84612328D01*
X110216206Y-84612335D01*
X110302452Y-84727544D01*
X110302455Y-84727547D01*
X110417664Y-84813793D01*
X110417671Y-84813797D01*
X110552517Y-84864091D01*
X110552516Y-84864091D01*
X110559444Y-84864835D01*
X110612127Y-84870500D01*
X112307872Y-84870499D01*
X112367483Y-84864091D01*
X112502331Y-84813796D01*
X112617546Y-84727546D01*
X112703796Y-84612331D01*
X112754091Y-84477483D01*
X112757862Y-84442401D01*
X112784599Y-84377855D01*
X112841990Y-84338006D01*
X112911816Y-84335511D01*
X112971905Y-84371163D01*
X112982726Y-84384536D01*
X112999956Y-84409143D01*
X113160858Y-84570045D01*
X113160861Y-84570047D01*
X113347266Y-84700568D01*
X113553504Y-84796739D01*
X113773308Y-84855635D01*
X113907075Y-84867337D01*
X113972143Y-84892789D01*
X113983948Y-84903183D01*
X114631284Y-85550520D01*
X114631286Y-85550521D01*
X114631290Y-85550524D01*
X114726057Y-85605237D01*
X114768216Y-85629577D01*
X114920943Y-85670501D01*
X114920945Y-85670501D01*
X115086654Y-85670501D01*
X115086670Y-85670500D01*
X117285791Y-85670500D01*
X117352830Y-85690185D01*
X117398585Y-85742989D01*
X117409011Y-85780617D01*
X117424630Y-85919249D01*
X117424631Y-85919254D01*
X117484211Y-86089523D01*
X117580184Y-86242262D01*
X117707738Y-86369816D01*
X117860478Y-86465789D01*
X118030745Y-86525368D01*
X118117669Y-86535161D01*
X118182080Y-86562226D01*
X118191465Y-86570700D01*
X118274404Y-86653639D01*
X118274414Y-86653650D01*
X118278744Y-86657980D01*
X118278745Y-86657981D01*
X118390549Y-86769785D01*
X118412722Y-86782586D01*
X118477360Y-86819904D01*
X118477362Y-86819906D01*
X118515416Y-86841876D01*
X118527480Y-86848842D01*
X118680208Y-86889766D01*
X118680211Y-86889766D01*
X118845918Y-86889766D01*
X118845934Y-86889765D01*
X130205438Y-86889765D01*
X130205454Y-86889766D01*
X130213050Y-86889766D01*
X130371161Y-86889766D01*
X130371164Y-86889766D01*
X130523892Y-86848842D01*
X130574011Y-86819904D01*
X130660823Y-86769785D01*
X130772627Y-86657981D01*
X130772627Y-86657979D01*
X130782835Y-86647772D01*
X130782836Y-86647769D01*
X133980520Y-83450088D01*
X134059577Y-83313157D01*
X134100501Y-83160429D01*
X134100501Y-83002314D01*
X134100501Y-82994719D01*
X134100500Y-82994701D01*
X134100500Y-73866321D01*
X134120185Y-73799282D01*
X134172989Y-73753527D01*
X134210612Y-73743101D01*
X134279255Y-73735368D01*
X134449522Y-73675789D01*
X134602262Y-73579816D01*
X134729816Y-73452262D01*
X134825789Y-73299522D01*
X134885368Y-73129255D01*
X134890233Y-73086077D01*
X134905565Y-72950003D01*
X134905565Y-72949996D01*
X134885369Y-72770750D01*
X134885368Y-72770745D01*
X134867379Y-72719336D01*
X134825789Y-72600478D01*
X134817206Y-72586819D01*
X134738184Y-72461056D01*
X134729816Y-72447738D01*
X134729814Y-72447736D01*
X134729813Y-72447734D01*
X134727550Y-72444896D01*
X134726659Y-72442715D01*
X134726111Y-72441842D01*
X134726264Y-72441745D01*
X134701144Y-72380209D01*
X134700500Y-72367587D01*
X134700500Y-68347155D01*
X134720185Y-68280116D01*
X134736819Y-68259474D01*
X135888699Y-67107594D01*
X137079049Y-65917245D01*
X137079049Y-65917243D01*
X137089253Y-65907040D01*
X137089256Y-65907035D01*
X137287820Y-65708472D01*
X137349142Y-65674988D01*
X137418834Y-65679972D01*
X137474767Y-65721844D01*
X137499184Y-65787308D01*
X137499500Y-65796154D01*
X137499500Y-89825500D01*
X137479815Y-89892539D01*
X137427011Y-89938294D01*
X137375500Y-89949500D01*
X67124500Y-89949500D01*
X67057461Y-89929815D01*
X67011706Y-89877011D01*
X67000500Y-89825500D01*
X67000500Y-40074500D01*
X67020185Y-40007461D01*
X67072989Y-39961706D01*
X67124500Y-39950500D01*
X106088160Y-39950500D01*
X106155199Y-39970185D01*
G37*
%TD.AperFunction*%
%TA.AperFunction,Conductor*%
G36*
X131818834Y-74214286D02*
G01*
X131874767Y-74256158D01*
X131899184Y-74321622D01*
X131899500Y-74330468D01*
X131899500Y-82649902D01*
X131879815Y-82716941D01*
X131863181Y-82737583D01*
X130167584Y-84433181D01*
X130106261Y-84466666D01*
X130079903Y-84469500D01*
X130057619Y-84469500D01*
X129990580Y-84449815D01*
X129944825Y-84397011D01*
X129934881Y-84327853D01*
X129961766Y-84266835D01*
X130075492Y-84128260D01*
X130075496Y-84128253D01*
X130168347Y-83954541D01*
X130209160Y-83820000D01*
X129555686Y-83820000D01*
X129560080Y-83815606D01*
X129612741Y-83724394D01*
X129640000Y-83622661D01*
X129640000Y-83517339D01*
X129612741Y-83415606D01*
X129560080Y-83324394D01*
X129555686Y-83320000D01*
X130209160Y-83320000D01*
X130209160Y-83319999D01*
X130168347Y-83185458D01*
X130075496Y-83011746D01*
X130075492Y-83011739D01*
X129950528Y-82859471D01*
X129798260Y-82734507D01*
X129798253Y-82734503D01*
X129624541Y-82641652D01*
X129490000Y-82600839D01*
X129490000Y-83254314D01*
X129485606Y-83249920D01*
X129394394Y-83197259D01*
X129292661Y-83170000D01*
X129187339Y-83170000D01*
X129085606Y-83197259D01*
X128994394Y-83249920D01*
X128990000Y-83254314D01*
X128990000Y-82600839D01*
X128989999Y-82600839D01*
X128855458Y-82641652D01*
X128681742Y-82734505D01*
X128681740Y-82734507D01*
X128642190Y-82766965D01*
X128577880Y-82794277D01*
X128509013Y-82782486D01*
X128475847Y-82758794D01*
X128368716Y-82651663D01*
X128368715Y-82651662D01*
X128364385Y-82647332D01*
X128364374Y-82647322D01*
X126805407Y-81088355D01*
X126805405Y-81088352D01*
X126686534Y-80969481D01*
X126686526Y-80969475D01*
X126572966Y-80903912D01*
X126572966Y-80903911D01*
X126572961Y-80903910D01*
X126564810Y-80899203D01*
X126549603Y-80890423D01*
X126511420Y-80880192D01*
X126396874Y-80849499D01*
X126238760Y-80849499D01*
X126231164Y-80849499D01*
X126231148Y-80849500D01*
X111365783Y-80849500D01*
X111298744Y-80829815D01*
X111278102Y-80813181D01*
X109227102Y-78762181D01*
X109193617Y-78700858D01*
X109198601Y-78631166D01*
X109240473Y-78575233D01*
X109305937Y-78550816D01*
X109314783Y-78550500D01*
X111913331Y-78550500D01*
X111913347Y-78550501D01*
X111920943Y-78550501D01*
X112079054Y-78550501D01*
X112079057Y-78550501D01*
X112231785Y-78509577D01*
X112281904Y-78480639D01*
X112368716Y-78430520D01*
X112480520Y-78318716D01*
X112480520Y-78318714D01*
X112490728Y-78308507D01*
X112490730Y-78308504D01*
X112770897Y-78028337D01*
X112832220Y-77994852D01*
X112901912Y-77999836D01*
X112946259Y-78028337D01*
X112997738Y-78079816D01*
X113150478Y-78175789D01*
X113320745Y-78235368D01*
X113320750Y-78235369D01*
X113499996Y-78255565D01*
X113500000Y-78255565D01*
X113500004Y-78255565D01*
X113679249Y-78235369D01*
X113679252Y-78235368D01*
X113679255Y-78235368D01*
X113849522Y-78175789D01*
X114002262Y-78079816D01*
X114002267Y-78079810D01*
X114005097Y-78077555D01*
X114007275Y-78076665D01*
X114008158Y-78076111D01*
X114008255Y-78076265D01*
X114069783Y-78051145D01*
X114082412Y-78050500D01*
X125613331Y-78050500D01*
X125613347Y-78050501D01*
X125620943Y-78050501D01*
X125779054Y-78050501D01*
X125779057Y-78050501D01*
X125931785Y-78009577D01*
X126001233Y-77969481D01*
X126068716Y-77930520D01*
X126180520Y-77818716D01*
X126180520Y-77818714D01*
X126190724Y-77808511D01*
X126190728Y-77808506D01*
X126716051Y-77283182D01*
X126777372Y-77249699D01*
X126792914Y-77247338D01*
X126926692Y-77235635D01*
X127146496Y-77176739D01*
X127352734Y-77080568D01*
X127539139Y-76950047D01*
X127700047Y-76789139D01*
X127830568Y-76602734D01*
X127857618Y-76544724D01*
X127903790Y-76492285D01*
X127970983Y-76473133D01*
X128037865Y-76493348D01*
X128082382Y-76544725D01*
X128109429Y-76602728D01*
X128109432Y-76602734D01*
X128239954Y-76789141D01*
X128400858Y-76950045D01*
X128400861Y-76950047D01*
X128587266Y-77080568D01*
X128793504Y-77176739D01*
X129013308Y-77235635D01*
X129174060Y-77249699D01*
X129239998Y-77255468D01*
X129240000Y-77255468D01*
X129240002Y-77255468D01*
X129305940Y-77249699D01*
X129466692Y-77235635D01*
X129686496Y-77176739D01*
X129892734Y-77080568D01*
X130079139Y-76950047D01*
X130240047Y-76789139D01*
X130370568Y-76602734D01*
X130466739Y-76396496D01*
X130525635Y-76176692D01*
X130545468Y-75950000D01*
X130525635Y-75723308D01*
X130466739Y-75503504D01*
X130370568Y-75297266D01*
X130334406Y-75245621D01*
X130312080Y-75179417D01*
X130329090Y-75111650D01*
X130380038Y-75063837D01*
X130435982Y-75050500D01*
X130544703Y-75050500D01*
X130544719Y-75050501D01*
X130552315Y-75050501D01*
X130710426Y-75050501D01*
X130710429Y-75050501D01*
X130863157Y-75009577D01*
X130924173Y-74974349D01*
X131000088Y-74930520D01*
X131111892Y-74818716D01*
X131111892Y-74818714D01*
X131122096Y-74808511D01*
X131122099Y-74808506D01*
X131687820Y-74242786D01*
X131749142Y-74209302D01*
X131818834Y-74214286D01*
G37*
%TD.AperFunction*%
%TA.AperFunction,Conductor*%
G36*
X113732023Y-70000707D02*
G01*
X113782720Y-70048786D01*
X113799500Y-70111075D01*
X113799500Y-71310315D01*
X113779815Y-71377354D01*
X113727011Y-71423109D01*
X113657853Y-71433053D01*
X113594297Y-71404028D01*
X113558458Y-71351269D01*
X113527346Y-71262355D01*
X113446791Y-71153208D01*
X113337644Y-71072653D01*
X113209601Y-71027850D01*
X113179206Y-71025000D01*
X112750000Y-71025000D01*
X112750000Y-72850000D01*
X113179206Y-72850000D01*
X113209599Y-72847149D01*
X113209603Y-72847149D01*
X113337644Y-72802346D01*
X113446791Y-72721791D01*
X113527346Y-72612644D01*
X113558458Y-72523730D01*
X113599179Y-72466954D01*
X113664132Y-72441206D01*
X113732694Y-72454662D01*
X113783097Y-72503049D01*
X113799500Y-72564684D01*
X113799500Y-72709902D01*
X113779815Y-72776941D01*
X113763181Y-72797583D01*
X111902705Y-74658058D01*
X111841382Y-74691543D01*
X111782931Y-74690152D01*
X111686697Y-74664366D01*
X111686693Y-74664365D01*
X111686692Y-74664365D01*
X111686691Y-74664364D01*
X111686686Y-74664364D01*
X111460002Y-74644532D01*
X111459998Y-74644532D01*
X111233313Y-74664364D01*
X111233302Y-74664366D01*
X111013511Y-74723258D01*
X111013502Y-74723261D01*
X110807267Y-74819431D01*
X110807265Y-74819432D01*
X110620858Y-74949954D01*
X110459954Y-75110858D01*
X110329432Y-75297265D01*
X110329431Y-75297267D01*
X110233261Y-75503502D01*
X110233258Y-75503511D01*
X110174366Y-75723302D01*
X110174364Y-75723313D01*
X110154532Y-75949998D01*
X110154532Y-75950001D01*
X110174364Y-76176686D01*
X110174366Y-76176697D01*
X110233258Y-76396488D01*
X110233261Y-76396497D01*
X110329431Y-76602732D01*
X110329432Y-76602734D01*
X110459954Y-76789141D01*
X110620858Y-76950045D01*
X110620861Y-76950047D01*
X110807266Y-77080568D01*
X110877070Y-77113118D01*
X110929509Y-77159290D01*
X110948661Y-77226484D01*
X110928445Y-77293365D01*
X110875280Y-77338700D01*
X110824665Y-77349500D01*
X108431470Y-77349500D01*
X108364431Y-77329815D01*
X108343789Y-77313181D01*
X107618962Y-76588355D01*
X107618960Y-76588352D01*
X107500089Y-76469481D01*
X107500088Y-76469480D01*
X107413276Y-76419360D01*
X107413276Y-76419359D01*
X107413272Y-76419358D01*
X107363157Y-76390423D01*
X107210429Y-76349499D01*
X107052315Y-76349499D01*
X107044719Y-76349499D01*
X107044703Y-76349500D01*
X104496670Y-76349500D01*
X104429631Y-76329815D01*
X104383876Y-76277011D01*
X104372747Y-76229870D01*
X104370871Y-76176686D01*
X104369905Y-76149280D01*
X104357530Y-76080514D01*
X104312155Y-75943978D01*
X104016745Y-75353160D01*
X104004371Y-75284395D01*
X104031139Y-75219856D01*
X104039975Y-75210024D01*
X104050000Y-75199999D01*
X104050000Y-74500000D01*
X104550000Y-74500000D01*
X104550000Y-75200000D01*
X104962683Y-75200000D01*
X104962697Y-75199999D01*
X105075104Y-75185199D01*
X105075108Y-75185198D01*
X105214978Y-75127263D01*
X105335094Y-75035094D01*
X105427263Y-74914978D01*
X105485198Y-74775108D01*
X105485199Y-74775104D01*
X105499999Y-74662697D01*
X105500000Y-74662683D01*
X105500000Y-74500000D01*
X104550000Y-74500000D01*
X104050000Y-74500000D01*
X104050000Y-74124000D01*
X104069685Y-74056961D01*
X104122489Y-74011206D01*
X104174000Y-74000000D01*
X105416780Y-74000000D01*
X105483819Y-74019685D01*
X105497981Y-74030285D01*
X105526580Y-74055067D01*
X105526584Y-74055069D01*
X105606580Y-74091603D01*
X105657457Y-74114838D01*
X105724496Y-74134523D01*
X105724500Y-74134524D01*
X105866916Y-74155000D01*
X105866919Y-74155000D01*
X106881372Y-74155000D01*
X106881376Y-74155000D01*
X106962354Y-74148472D01*
X107001568Y-74142108D01*
X107080451Y-74122693D01*
X107173728Y-74091599D01*
X107225134Y-74071277D01*
X107249734Y-74059960D01*
X107250504Y-74059553D01*
X107252697Y-74058396D01*
X107321169Y-74044495D01*
X107386288Y-74069820D01*
X107396920Y-74079163D01*
X107397737Y-74079815D01*
X107397738Y-74079816D01*
X107453475Y-74114838D01*
X107537623Y-74167712D01*
X107550478Y-74175789D01*
X107646253Y-74209302D01*
X107720745Y-74235368D01*
X107720750Y-74235369D01*
X107899996Y-74255565D01*
X107900000Y-74255565D01*
X107900004Y-74255565D01*
X108079249Y-74235369D01*
X108079252Y-74235368D01*
X108079255Y-74235368D01*
X108249522Y-74175789D01*
X108402262Y-74079816D01*
X108529816Y-73952262D01*
X108625789Y-73799522D01*
X108685368Y-73629255D01*
X108685369Y-73629249D01*
X108705565Y-73450003D01*
X108705565Y-73449998D01*
X108701280Y-73411969D01*
X108700500Y-73398085D01*
X108700500Y-73086077D01*
X108720185Y-73019038D01*
X108772989Y-72973283D01*
X108842147Y-72963339D01*
X108901413Y-72988812D01*
X108906340Y-72992708D01*
X108906344Y-72992712D01*
X109055666Y-73084814D01*
X109222203Y-73139999D01*
X109324991Y-73150500D01*
X110675008Y-73150499D01*
X110777797Y-73139999D01*
X110944334Y-73084814D01*
X111093656Y-72992712D01*
X111217712Y-72868656D01*
X111309814Y-72719334D01*
X111309816Y-72719326D01*
X111312864Y-72712791D01*
X111314354Y-72713486D01*
X111349127Y-72663254D01*
X111413641Y-72636425D01*
X111482418Y-72648734D01*
X111526840Y-72686063D01*
X111553209Y-72721792D01*
X111662355Y-72802346D01*
X111790398Y-72847149D01*
X111820794Y-72850000D01*
X112250000Y-72850000D01*
X112250000Y-71025000D01*
X112123596Y-71025000D01*
X112056557Y-71005315D01*
X112010802Y-70952511D01*
X112000858Y-70883353D01*
X112029883Y-70819797D01*
X112035908Y-70813326D01*
X112637416Y-70211819D01*
X112698739Y-70178334D01*
X112725097Y-70175500D01*
X113175003Y-70175500D01*
X113175008Y-70175500D01*
X113277797Y-70164999D01*
X113444334Y-70109814D01*
X113593655Y-70017711D01*
X113593666Y-70017699D01*
X113598586Y-70013811D01*
X113663381Y-69987669D01*
X113732023Y-70000707D01*
G37*
%TD.AperFunction*%
%TA.AperFunction,Conductor*%
G36*
X75797865Y-67993348D02*
G01*
X75842381Y-68044724D01*
X75856517Y-68075038D01*
X75869429Y-68102728D01*
X75869432Y-68102734D01*
X75999954Y-68289141D01*
X76160858Y-68450045D01*
X76160861Y-68450047D01*
X76347266Y-68580568D01*
X76553504Y-68676739D01*
X76553509Y-68676740D01*
X76553511Y-68676741D01*
X76594374Y-68687690D01*
X76773308Y-68735635D01*
X76935230Y-68749801D01*
X76999998Y-68755468D01*
X77000000Y-68755468D01*
X77000002Y-68755468D01*
X77056807Y-68750498D01*
X77226692Y-68735635D01*
X77322932Y-68709847D01*
X77392781Y-68711510D01*
X77442706Y-68741941D01*
X78015139Y-69314374D01*
X78015149Y-69314385D01*
X78019479Y-69318715D01*
X78019480Y-69318716D01*
X78131284Y-69430520D01*
X78131286Y-69430521D01*
X78131290Y-69430524D01*
X78268209Y-69509573D01*
X78268216Y-69509577D01*
X78367149Y-69536086D01*
X78367148Y-69536086D01*
X78374169Y-69537967D01*
X78420942Y-69550500D01*
X78420943Y-69550500D01*
X85417588Y-69550500D01*
X85484627Y-69570185D01*
X85494903Y-69577555D01*
X85497736Y-69579814D01*
X85497738Y-69579816D01*
X85587242Y-69636055D01*
X85650478Y-69675789D01*
X85667550Y-69681763D01*
X85724326Y-69722485D01*
X85750074Y-69787437D01*
X85736618Y-69855999D01*
X85714277Y-69886486D01*
X84762584Y-70838181D01*
X84701261Y-70871666D01*
X84674903Y-70874500D01*
X78141670Y-70874500D01*
X78141654Y-70874499D01*
X78134058Y-70874499D01*
X77975943Y-70874499D01*
X77899579Y-70894961D01*
X77823214Y-70915423D01*
X77823209Y-70915426D01*
X77686290Y-70994475D01*
X77686282Y-70994481D01*
X74902705Y-73778058D01*
X74841382Y-73811543D01*
X74782931Y-73810152D01*
X74686697Y-73784366D01*
X74686693Y-73784365D01*
X74686692Y-73784365D01*
X74686691Y-73784364D01*
X74686686Y-73784364D01*
X74460002Y-73764532D01*
X74459998Y-73764532D01*
X74233313Y-73784364D01*
X74233302Y-73784366D01*
X74013511Y-73843258D01*
X74013502Y-73843261D01*
X73807267Y-73939431D01*
X73807265Y-73939432D01*
X73620858Y-74069954D01*
X73459954Y-74230858D01*
X73329432Y-74417265D01*
X73329431Y-74417267D01*
X73233261Y-74623502D01*
X73233258Y-74623511D01*
X73174366Y-74843302D01*
X73174364Y-74843313D01*
X73154532Y-75069998D01*
X73154532Y-75070001D01*
X73174364Y-75296686D01*
X73174366Y-75296697D01*
X73233258Y-75516488D01*
X73233263Y-75516503D01*
X73236339Y-75523098D01*
X73246830Y-75592176D01*
X73218308Y-75655959D01*
X73159831Y-75694197D01*
X73123956Y-75699500D01*
X72362229Y-75699500D01*
X72295190Y-75679815D01*
X72274548Y-75663181D01*
X70786819Y-74175451D01*
X70753334Y-74114128D01*
X70750500Y-74087770D01*
X70750500Y-72061499D01*
X70770185Y-71994460D01*
X70822989Y-71948705D01*
X70874500Y-71937499D01*
X71249999Y-71937499D01*
X71250000Y-71937498D01*
X71250000Y-71325000D01*
X71750000Y-71325000D01*
X71750000Y-71937499D01*
X72204196Y-71937499D01*
X72234606Y-71934648D01*
X72362645Y-71889846D01*
X72471792Y-71809292D01*
X72552346Y-71700145D01*
X72597149Y-71572104D01*
X72597149Y-71572100D01*
X72600000Y-71541706D01*
X72600000Y-71325000D01*
X71750000Y-71325000D01*
X71250000Y-71325000D01*
X71250000Y-70212500D01*
X71750000Y-70212500D01*
X71750000Y-70825000D01*
X72599999Y-70825000D01*
X72599999Y-70608303D01*
X72597148Y-70577893D01*
X72552346Y-70449854D01*
X72471792Y-70340707D01*
X72362645Y-70260153D01*
X72234602Y-70215350D01*
X72204207Y-70212500D01*
X71750000Y-70212500D01*
X71250000Y-70212500D01*
X70874500Y-70212500D01*
X70807461Y-70192815D01*
X70761706Y-70140011D01*
X70750500Y-70088500D01*
X70750500Y-69812230D01*
X70770185Y-69745191D01*
X70786819Y-69724549D01*
X70835579Y-69675789D01*
X70882952Y-69628416D01*
X70882952Y-69628415D01*
X71362048Y-69149317D01*
X71423371Y-69115833D01*
X71449729Y-69112999D01*
X72200002Y-69112999D01*
X72200008Y-69112999D01*
X72302797Y-69102499D01*
X72469334Y-69047314D01*
X72618656Y-68955212D01*
X72742712Y-68831156D01*
X72786970Y-68759402D01*
X72838917Y-68712679D01*
X72892508Y-68700500D01*
X74033921Y-68700500D01*
X74044730Y-68698349D01*
X74101022Y-68700188D01*
X74233308Y-68735635D01*
X74395230Y-68749801D01*
X74459998Y-68755468D01*
X74460000Y-68755468D01*
X74460002Y-68755468D01*
X74516807Y-68750498D01*
X74686692Y-68735635D01*
X74906496Y-68676739D01*
X75112734Y-68580568D01*
X75299139Y-68450047D01*
X75460047Y-68289139D01*
X75590568Y-68102734D01*
X75617618Y-68044724D01*
X75663790Y-67992285D01*
X75730983Y-67973133D01*
X75797865Y-67993348D01*
G37*
%TD.AperFunction*%
%TA.AperFunction,Conductor*%
G36*
X87902577Y-72570185D02*
G01*
X87923219Y-72586819D01*
X89077922Y-73741522D01*
X89111407Y-73802845D01*
X89106423Y-73872537D01*
X89064551Y-73928470D01*
X89051667Y-73936212D01*
X89051961Y-73936721D01*
X89047268Y-73939430D01*
X88860858Y-74069954D01*
X88699954Y-74230858D01*
X88569432Y-74417265D01*
X88569431Y-74417267D01*
X88542382Y-74475275D01*
X88496209Y-74527714D01*
X88429016Y-74546866D01*
X88362135Y-74526650D01*
X88317618Y-74475275D01*
X88290568Y-74417267D01*
X88290567Y-74417265D01*
X88268726Y-74386073D01*
X88160047Y-74230861D01*
X88160045Y-74230858D01*
X87999141Y-74069954D01*
X87812734Y-73939432D01*
X87812732Y-73939431D01*
X87606497Y-73843261D01*
X87606488Y-73843258D01*
X87386697Y-73784366D01*
X87386693Y-73784365D01*
X87386692Y-73784365D01*
X87386691Y-73784364D01*
X87386686Y-73784364D01*
X87160002Y-73764532D01*
X87159998Y-73764532D01*
X86933313Y-73784364D01*
X86933302Y-73784366D01*
X86713511Y-73843258D01*
X86713502Y-73843261D01*
X86507267Y-73939431D01*
X86507265Y-73939432D01*
X86320858Y-74069954D01*
X86159954Y-74230858D01*
X86029432Y-74417265D01*
X86029431Y-74417267D01*
X85933261Y-74623502D01*
X85933258Y-74623511D01*
X85874366Y-74843302D01*
X85874364Y-74843313D01*
X85854532Y-75069998D01*
X85854532Y-75070001D01*
X85874364Y-75296686D01*
X85874366Y-75296697D01*
X85933258Y-75516488D01*
X85933263Y-75516503D01*
X85936339Y-75523098D01*
X85946830Y-75592176D01*
X85918308Y-75655959D01*
X85859831Y-75694197D01*
X85823956Y-75699500D01*
X85624295Y-75699500D01*
X85557256Y-75679815D01*
X85511501Y-75627011D01*
X85501557Y-75557853D01*
X85514937Y-75517046D01*
X85548348Y-75454538D01*
X85589160Y-75320000D01*
X84935686Y-75320000D01*
X84940080Y-75315606D01*
X84992741Y-75224394D01*
X85020000Y-75122661D01*
X85020000Y-75017339D01*
X84992741Y-74915606D01*
X84940080Y-74824394D01*
X84935686Y-74820000D01*
X85589160Y-74820000D01*
X85589160Y-74819999D01*
X85548347Y-74685458D01*
X85455496Y-74511746D01*
X85455492Y-74511739D01*
X85330528Y-74359471D01*
X85178260Y-74234507D01*
X85178253Y-74234503D01*
X85004541Y-74141652D01*
X84870000Y-74100839D01*
X84870000Y-74754314D01*
X84865606Y-74749920D01*
X84774394Y-74697259D01*
X84672661Y-74670000D01*
X84567339Y-74670000D01*
X84465606Y-74697259D01*
X84374394Y-74749920D01*
X84370000Y-74754314D01*
X84370000Y-74100839D01*
X84369999Y-74100839D01*
X84235458Y-74141652D01*
X84061746Y-74234503D01*
X84061739Y-74234507D01*
X83909471Y-74359471D01*
X83784507Y-74511739D01*
X83784503Y-74511746D01*
X83691652Y-74685458D01*
X83650839Y-74819999D01*
X83650840Y-74820000D01*
X84304314Y-74820000D01*
X84299920Y-74824394D01*
X84247259Y-74915606D01*
X84220000Y-75017339D01*
X84220000Y-75122661D01*
X84247259Y-75224394D01*
X84299920Y-75315606D01*
X84304314Y-75320000D01*
X83650840Y-75320000D01*
X83691651Y-75454538D01*
X83725063Y-75517046D01*
X83739305Y-75585449D01*
X83714305Y-75650693D01*
X83658000Y-75692064D01*
X83615705Y-75699500D01*
X83084295Y-75699500D01*
X83017256Y-75679815D01*
X82971501Y-75627011D01*
X82961557Y-75557853D01*
X82974937Y-75517046D01*
X83008348Y-75454538D01*
X83049160Y-75320000D01*
X82395686Y-75320000D01*
X82400080Y-75315606D01*
X82452741Y-75224394D01*
X82480000Y-75122661D01*
X82480000Y-75017339D01*
X82452741Y-74915606D01*
X82400080Y-74824394D01*
X82395686Y-74820000D01*
X83049160Y-74820000D01*
X83049160Y-74819999D01*
X83008347Y-74685458D01*
X82915496Y-74511746D01*
X82915492Y-74511739D01*
X82790528Y-74359471D01*
X82638260Y-74234507D01*
X82638253Y-74234503D01*
X82464541Y-74141652D01*
X82330000Y-74100839D01*
X82330000Y-74754314D01*
X82325606Y-74749920D01*
X82234394Y-74697259D01*
X82132661Y-74670000D01*
X82027339Y-74670000D01*
X81925606Y-74697259D01*
X81834394Y-74749920D01*
X81830000Y-74754314D01*
X81830000Y-74100839D01*
X81829999Y-74100839D01*
X81695458Y-74141652D01*
X81521746Y-74234503D01*
X81521739Y-74234507D01*
X81369471Y-74359471D01*
X81244507Y-74511739D01*
X81244503Y-74511746D01*
X81151652Y-74685458D01*
X81110839Y-74819999D01*
X81110840Y-74820000D01*
X81764314Y-74820000D01*
X81759920Y-74824394D01*
X81707259Y-74915606D01*
X81680000Y-75017339D01*
X81680000Y-75122661D01*
X81707259Y-75224394D01*
X81759920Y-75315606D01*
X81764314Y-75320000D01*
X81110840Y-75320000D01*
X81151651Y-75454538D01*
X81185063Y-75517046D01*
X81199305Y-75585449D01*
X81174305Y-75650693D01*
X81118000Y-75692064D01*
X81075705Y-75699500D01*
X80876044Y-75699500D01*
X80809005Y-75679815D01*
X80763250Y-75627011D01*
X80753306Y-75557853D01*
X80763661Y-75523098D01*
X80766736Y-75516503D01*
X80766736Y-75516501D01*
X80766739Y-75516496D01*
X80825635Y-75296692D01*
X80845468Y-75070000D01*
X80825635Y-74843308D01*
X80775998Y-74658058D01*
X80766741Y-74623511D01*
X80766738Y-74623502D01*
X80714625Y-74511746D01*
X80670568Y-74417266D01*
X80540047Y-74230861D01*
X80540045Y-74230858D01*
X80379141Y-74069954D01*
X80192734Y-73939432D01*
X80192732Y-73939431D01*
X79986497Y-73843261D01*
X79986488Y-73843258D01*
X79766697Y-73784366D01*
X79766693Y-73784365D01*
X79766692Y-73784365D01*
X79766691Y-73784364D01*
X79766686Y-73784364D01*
X79540002Y-73764532D01*
X79539998Y-73764532D01*
X79457150Y-73771780D01*
X79388650Y-73758013D01*
X79338467Y-73709398D01*
X79322534Y-73641369D01*
X79345910Y-73575526D01*
X79358654Y-73560579D01*
X80332416Y-72586819D01*
X80393739Y-72553334D01*
X80420097Y-72550500D01*
X87835538Y-72550500D01*
X87902577Y-72570185D01*
G37*
%TD.AperFunction*%
%TA.AperFunction,Conductor*%
G36*
X129518441Y-49669685D02*
G01*
X129564196Y-49722489D01*
X129574140Y-49791647D01*
X129545115Y-49855203D01*
X129539083Y-49861681D01*
X129487583Y-49913181D01*
X129426260Y-49946666D01*
X129399902Y-49949500D01*
X128302129Y-49949500D01*
X128302123Y-49949501D01*
X128242516Y-49955908D01*
X128107671Y-50006202D01*
X128107664Y-50006206D01*
X127992455Y-50092452D01*
X127992452Y-50092455D01*
X127906206Y-50207664D01*
X127906202Y-50207671D01*
X127855909Y-50342516D01*
X127855908Y-50342516D01*
X127851175Y-50386544D01*
X127849501Y-50402123D01*
X127849500Y-50402135D01*
X127849500Y-51497870D01*
X127849501Y-51497876D01*
X127855908Y-51557483D01*
X127906202Y-51692328D01*
X127906206Y-51692335D01*
X127992452Y-51807544D01*
X127992453Y-51807544D01*
X127992454Y-51807546D01*
X128000620Y-51813659D01*
X128050145Y-51850734D01*
X128092015Y-51906668D01*
X128096999Y-51976360D01*
X128063513Y-52037683D01*
X128050145Y-52049266D01*
X127992452Y-52092455D01*
X127906206Y-52207664D01*
X127906202Y-52207671D01*
X127855908Y-52342517D01*
X127850424Y-52393531D01*
X127849501Y-52402123D01*
X127849500Y-52402135D01*
X127849500Y-53497870D01*
X127849501Y-53497876D01*
X127855908Y-53557483D01*
X127906202Y-53692328D01*
X127906206Y-53692335D01*
X127992452Y-53807544D01*
X127992453Y-53807544D01*
X127992454Y-53807546D01*
X128007883Y-53819096D01*
X128050145Y-53850734D01*
X128092015Y-53906668D01*
X128096999Y-53976360D01*
X128063513Y-54037683D01*
X128050145Y-54049266D01*
X127992452Y-54092455D01*
X127906206Y-54207664D01*
X127906202Y-54207671D01*
X127855908Y-54342517D01*
X127852954Y-54369997D01*
X127849501Y-54402123D01*
X127849500Y-54402135D01*
X127849500Y-55497870D01*
X127849501Y-55497876D01*
X127855908Y-55557483D01*
X127906202Y-55692328D01*
X127906206Y-55692335D01*
X127992452Y-55807544D01*
X127992453Y-55807544D01*
X127992454Y-55807546D01*
X127998710Y-55812229D01*
X128050145Y-55850734D01*
X128092015Y-55906668D01*
X128096999Y-55976360D01*
X128063513Y-56037683D01*
X128050145Y-56049266D01*
X127992452Y-56092455D01*
X127906206Y-56207664D01*
X127906202Y-56207671D01*
X127855908Y-56342517D01*
X127850106Y-56396488D01*
X127849501Y-56402123D01*
X127849500Y-56402135D01*
X127849500Y-57497870D01*
X127849501Y-57497876D01*
X127855908Y-57557483D01*
X127906202Y-57692328D01*
X127906206Y-57692335D01*
X127992452Y-57807544D01*
X127992453Y-57807544D01*
X127992454Y-57807546D01*
X128021615Y-57829376D01*
X128050145Y-57850734D01*
X128092015Y-57906668D01*
X128096999Y-57976360D01*
X128063513Y-58037683D01*
X128050145Y-58049266D01*
X127992452Y-58092455D01*
X127906206Y-58207664D01*
X127906202Y-58207671D01*
X127855908Y-58342517D01*
X127849501Y-58402116D01*
X127849501Y-58402123D01*
X127849500Y-58402135D01*
X127849500Y-59497870D01*
X127849501Y-59497876D01*
X127855908Y-59557483D01*
X127906202Y-59692328D01*
X127906206Y-59692335D01*
X127992452Y-59807544D01*
X127992453Y-59807544D01*
X127992454Y-59807546D01*
X128007377Y-59818717D01*
X128050145Y-59850734D01*
X128092015Y-59906668D01*
X128096999Y-59976360D01*
X128063513Y-60037683D01*
X128050145Y-60049266D01*
X127992452Y-60092455D01*
X127906206Y-60207664D01*
X127906202Y-60207671D01*
X127855908Y-60342517D01*
X127850820Y-60389846D01*
X127849501Y-60402123D01*
X127849500Y-60402135D01*
X127849500Y-61497870D01*
X127849501Y-61497876D01*
X127855908Y-61557483D01*
X127906202Y-61692328D01*
X127906206Y-61692335D01*
X127992452Y-61807544D01*
X127992453Y-61807544D01*
X127992454Y-61807546D01*
X128021615Y-61829376D01*
X128050145Y-61850734D01*
X128092015Y-61906668D01*
X128096999Y-61976360D01*
X128063513Y-62037683D01*
X128050145Y-62049266D01*
X127992452Y-62092455D01*
X127906206Y-62207664D01*
X127906202Y-62207671D01*
X127855908Y-62342517D01*
X127849501Y-62402116D01*
X127849501Y-62402123D01*
X127849500Y-62402135D01*
X127849500Y-63497870D01*
X127849501Y-63497876D01*
X127855908Y-63557483D01*
X127906202Y-63692328D01*
X127906206Y-63692335D01*
X127992452Y-63807544D01*
X127992455Y-63807547D01*
X128107664Y-63893793D01*
X128107671Y-63893797D01*
X128242517Y-63944091D01*
X128242516Y-63944091D01*
X128249444Y-63944835D01*
X128302127Y-63950500D01*
X130897872Y-63950499D01*
X130957483Y-63944091D01*
X131092331Y-63893796D01*
X131207546Y-63807546D01*
X131293796Y-63692331D01*
X131300447Y-63674500D01*
X131316609Y-63631167D01*
X131358480Y-63575233D01*
X131423944Y-63550816D01*
X131432791Y-63550500D01*
X132326000Y-63550500D01*
X132393039Y-63570185D01*
X132438794Y-63622989D01*
X132450000Y-63674500D01*
X132450000Y-64280000D01*
X133066988Y-64280000D01*
X133034075Y-64337007D01*
X133000000Y-64464174D01*
X133000000Y-64595826D01*
X133034075Y-64722993D01*
X133066988Y-64780000D01*
X132450000Y-64780000D01*
X132450000Y-65399702D01*
X132461602Y-65458033D01*
X132461603Y-65458034D01*
X132505808Y-65524191D01*
X132571965Y-65568396D01*
X132571966Y-65568397D01*
X132630297Y-65579999D01*
X132630301Y-65580000D01*
X133250000Y-65580000D01*
X133250000Y-64963012D01*
X133307007Y-64995925D01*
X133434174Y-65030000D01*
X133565826Y-65030000D01*
X133692993Y-64995925D01*
X133750000Y-64963012D01*
X133750000Y-65580000D01*
X133761888Y-65591888D01*
X133788441Y-65599685D01*
X133834196Y-65652489D01*
X133844140Y-65721647D01*
X133815115Y-65785203D01*
X133809083Y-65791681D01*
X132679102Y-66921662D01*
X132617779Y-66955147D01*
X132548087Y-66950163D01*
X132503740Y-66921662D01*
X132402262Y-66820184D01*
X132249523Y-66724211D01*
X132079254Y-66664631D01*
X132079249Y-66664630D01*
X131900004Y-66644435D01*
X131899996Y-66644435D01*
X131720750Y-66664630D01*
X131720737Y-66664633D01*
X131543906Y-66726510D01*
X131543157Y-66724369D01*
X131484821Y-66733958D01*
X131456405Y-66725611D01*
X131456091Y-66726510D01*
X131279259Y-66664633D01*
X131279246Y-66664630D01*
X131100001Y-66644435D01*
X131099993Y-66644435D01*
X130920747Y-66664630D01*
X130920734Y-66664633D01*
X130743903Y-66726510D01*
X130743154Y-66724369D01*
X130684818Y-66733958D01*
X130656402Y-66725611D01*
X130656088Y-66726510D01*
X130479256Y-66664633D01*
X130479243Y-66664630D01*
X130299998Y-66644435D01*
X130299990Y-66644435D01*
X130120744Y-66664630D01*
X130120739Y-66664631D01*
X129950470Y-66724211D01*
X129797731Y-66820184D01*
X129670178Y-66947737D01*
X129574205Y-67100476D01*
X129514625Y-67270745D01*
X129514624Y-67270750D01*
X129494429Y-67449996D01*
X129494429Y-67450003D01*
X129514624Y-67629249D01*
X129514625Y-67629254D01*
X129574205Y-67799523D01*
X129615819Y-67865751D01*
X129655776Y-67929342D01*
X129670179Y-67952263D01*
X129672439Y-67955097D01*
X129673328Y-67957275D01*
X129673883Y-67958158D01*
X129673728Y-67958255D01*
X129698849Y-68019783D01*
X129699494Y-68032412D01*
X129699494Y-68920235D01*
X129679809Y-68987274D01*
X129627005Y-69033029D01*
X129557847Y-69042973D01*
X129494291Y-69013948D01*
X129487814Y-69007917D01*
X129451403Y-68971507D01*
X129451402Y-68971506D01*
X129451401Y-68971505D01*
X129412521Y-68944281D01*
X129257834Y-68835967D01*
X129257830Y-68835965D01*
X129245596Y-68830260D01*
X129043663Y-68736097D01*
X129043659Y-68736096D01*
X129043655Y-68736094D01*
X128815413Y-68674938D01*
X128815403Y-68674936D01*
X128580001Y-68654341D01*
X128579999Y-68654341D01*
X128344596Y-68674936D01*
X128344583Y-68674939D01*
X128216241Y-68709327D01*
X128146392Y-68707664D01*
X128096468Y-68677233D01*
X127636819Y-68217584D01*
X127603334Y-68156261D01*
X127600500Y-68129903D01*
X127600500Y-67932790D01*
X127620185Y-67865751D01*
X127672989Y-67819996D01*
X127681146Y-67816616D01*
X127742331Y-67793796D01*
X127857546Y-67707546D01*
X127943796Y-67592331D01*
X127994091Y-67457483D01*
X128000500Y-67397873D01*
X128000499Y-65688244D01*
X128020184Y-65621206D01*
X128072987Y-65575451D01*
X128142146Y-65565507D01*
X128194355Y-65589350D01*
X128195654Y-65587407D01*
X128271965Y-65638396D01*
X128271966Y-65638397D01*
X128330297Y-65649999D01*
X128330301Y-65650000D01*
X129350000Y-65650000D01*
X129350000Y-65200000D01*
X129850000Y-65200000D01*
X129850000Y-65650000D01*
X130869699Y-65650000D01*
X130869702Y-65649999D01*
X130928033Y-65638397D01*
X130928034Y-65638396D01*
X130994191Y-65594191D01*
X131038396Y-65528034D01*
X131038397Y-65528033D01*
X131049999Y-65469702D01*
X131050000Y-65469699D01*
X131050000Y-65200000D01*
X129850000Y-65200000D01*
X129350000Y-65200000D01*
X128150000Y-65200000D01*
X128150000Y-65210565D01*
X128130315Y-65277604D01*
X128077511Y-65323359D01*
X128008353Y-65333303D01*
X127944797Y-65304278D01*
X127926734Y-65284876D01*
X127857547Y-65192455D01*
X127857544Y-65192452D01*
X127742335Y-65106206D01*
X127742328Y-65106202D01*
X127607482Y-65055908D01*
X127607483Y-65055908D01*
X127547883Y-65049501D01*
X127547881Y-65049500D01*
X127547873Y-65049500D01*
X127547864Y-65049500D01*
X126452129Y-65049500D01*
X126452123Y-65049501D01*
X126392516Y-65055908D01*
X126257671Y-65106202D01*
X126257664Y-65106206D01*
X126142455Y-65192452D01*
X126099266Y-65250145D01*
X126043332Y-65292015D01*
X125973640Y-65296999D01*
X125912317Y-65263513D01*
X125900734Y-65250145D01*
X125857739Y-65192712D01*
X125857546Y-65192454D01*
X125857544Y-65192453D01*
X125857544Y-65192452D01*
X125742335Y-65106206D01*
X125742328Y-65106202D01*
X125607482Y-65055908D01*
X125607483Y-65055908D01*
X125547883Y-65049501D01*
X125547881Y-65049500D01*
X125547873Y-65049500D01*
X125547864Y-65049500D01*
X124452129Y-65049500D01*
X124452123Y-65049501D01*
X124392516Y-65055908D01*
X124257671Y-65106202D01*
X124257664Y-65106206D01*
X124142455Y-65192452D01*
X124099266Y-65250145D01*
X124043332Y-65292015D01*
X123973640Y-65296999D01*
X123912317Y-65263513D01*
X123900734Y-65250145D01*
X123857739Y-65192712D01*
X123857546Y-65192454D01*
X123857544Y-65192453D01*
X123857544Y-65192452D01*
X123742335Y-65106206D01*
X123742328Y-65106202D01*
X123607482Y-65055908D01*
X123607483Y-65055908D01*
X123547883Y-65049501D01*
X123547881Y-65049500D01*
X123547873Y-65049500D01*
X123547864Y-65049500D01*
X122452129Y-65049500D01*
X122452123Y-65049501D01*
X122392516Y-65055908D01*
X122257671Y-65106202D01*
X122257664Y-65106206D01*
X122142455Y-65192452D01*
X122099266Y-65250145D01*
X122043332Y-65292015D01*
X121973640Y-65296999D01*
X121912317Y-65263513D01*
X121900734Y-65250145D01*
X121857739Y-65192712D01*
X121857546Y-65192454D01*
X121857544Y-65192453D01*
X121857544Y-65192452D01*
X121742335Y-65106206D01*
X121742328Y-65106202D01*
X121607482Y-65055908D01*
X121607483Y-65055908D01*
X121547883Y-65049501D01*
X121547881Y-65049500D01*
X121547873Y-65049500D01*
X121547864Y-65049500D01*
X120452129Y-65049500D01*
X120452123Y-65049501D01*
X120392516Y-65055908D01*
X120257671Y-65106202D01*
X120257664Y-65106206D01*
X120142455Y-65192452D01*
X120099266Y-65250145D01*
X120043332Y-65292015D01*
X119973640Y-65296999D01*
X119912317Y-65263513D01*
X119900734Y-65250145D01*
X119857739Y-65192712D01*
X119857546Y-65192454D01*
X119857544Y-65192453D01*
X119857544Y-65192452D01*
X119742335Y-65106206D01*
X119742328Y-65106202D01*
X119607482Y-65055908D01*
X119607483Y-65055908D01*
X119547883Y-65049501D01*
X119547881Y-65049500D01*
X119547873Y-65049500D01*
X119547864Y-65049500D01*
X118452129Y-65049500D01*
X118452123Y-65049501D01*
X118392516Y-65055908D01*
X118257671Y-65106202D01*
X118257664Y-65106206D01*
X118142455Y-65192452D01*
X118099266Y-65250145D01*
X118043332Y-65292015D01*
X117973640Y-65296999D01*
X117912317Y-65263513D01*
X117900734Y-65250145D01*
X117857739Y-65192712D01*
X117857546Y-65192454D01*
X117857544Y-65192453D01*
X117857544Y-65192452D01*
X117742335Y-65106206D01*
X117742328Y-65106202D01*
X117607482Y-65055908D01*
X117607483Y-65055908D01*
X117547883Y-65049501D01*
X117547881Y-65049500D01*
X117547873Y-65049500D01*
X117547864Y-65049500D01*
X116452129Y-65049500D01*
X116452123Y-65049501D01*
X116392515Y-65055909D01*
X116317831Y-65083764D01*
X116248140Y-65088748D01*
X116186817Y-65055262D01*
X116153333Y-64993939D01*
X116150499Y-64967582D01*
X116150499Y-64700000D01*
X128150000Y-64700000D01*
X129350000Y-64700000D01*
X129350000Y-64250000D01*
X129850000Y-64250000D01*
X129850000Y-64700000D01*
X131050000Y-64700000D01*
X131050000Y-64430301D01*
X131049999Y-64430297D01*
X131038397Y-64371966D01*
X131038396Y-64371965D01*
X130994191Y-64305808D01*
X130928034Y-64261603D01*
X130928033Y-64261602D01*
X130869702Y-64250000D01*
X129850000Y-64250000D01*
X129350000Y-64250000D01*
X128330297Y-64250000D01*
X128271966Y-64261602D01*
X128271965Y-64261603D01*
X128205808Y-64305808D01*
X128161603Y-64371965D01*
X128161602Y-64371966D01*
X128150000Y-64430297D01*
X128150000Y-64700000D01*
X116150499Y-64700000D01*
X116150499Y-64402129D01*
X116150498Y-64402123D01*
X116149516Y-64392989D01*
X116144091Y-64342517D01*
X116143221Y-64340185D01*
X116093797Y-64207671D01*
X116093793Y-64207664D01*
X116007547Y-64092456D01*
X116007548Y-64092456D01*
X116007546Y-64092454D01*
X115949854Y-64049265D01*
X115907984Y-63993333D01*
X115903000Y-63923641D01*
X115936485Y-63862318D01*
X115949854Y-63850734D01*
X116007546Y-63807546D01*
X116093796Y-63692331D01*
X116144091Y-63557483D01*
X116150500Y-63497873D01*
X116150499Y-62402128D01*
X116144091Y-62342517D01*
X116144059Y-62342432D01*
X116093797Y-62207671D01*
X116093793Y-62207664D01*
X116036302Y-62130867D01*
X116007546Y-62092454D01*
X115949854Y-62049265D01*
X115907984Y-61993333D01*
X115903000Y-61923641D01*
X115936485Y-61862318D01*
X115949854Y-61850734D01*
X116007546Y-61807546D01*
X116093796Y-61692331D01*
X116144091Y-61557483D01*
X116150500Y-61497873D01*
X116150499Y-60402128D01*
X116144091Y-60342517D01*
X116139353Y-60329815D01*
X116093797Y-60207671D01*
X116093793Y-60207664D01*
X116034028Y-60127830D01*
X116007546Y-60092454D01*
X115949854Y-60049265D01*
X115907984Y-59993333D01*
X115903000Y-59923641D01*
X115936485Y-59862318D01*
X115949854Y-59850734D01*
X116007546Y-59807546D01*
X116093796Y-59692331D01*
X116144091Y-59557483D01*
X116150500Y-59497873D01*
X116150499Y-58402128D01*
X116144091Y-58342517D01*
X116142748Y-58338917D01*
X116093797Y-58207671D01*
X116093793Y-58207664D01*
X116042123Y-58138643D01*
X116007546Y-58092454D01*
X115949854Y-58049265D01*
X115907984Y-57993333D01*
X115903000Y-57923641D01*
X115936485Y-57862318D01*
X115949854Y-57850734D01*
X116007546Y-57807546D01*
X116093796Y-57692331D01*
X116144091Y-57557483D01*
X116150500Y-57497873D01*
X116150499Y-56402128D01*
X116144091Y-56342517D01*
X116141116Y-56334541D01*
X116093797Y-56207671D01*
X116093793Y-56207664D01*
X116032304Y-56125527D01*
X116007546Y-56092454D01*
X115949854Y-56049265D01*
X115907984Y-55993333D01*
X115903000Y-55923641D01*
X115936485Y-55862318D01*
X115949854Y-55850734D01*
X116007546Y-55807546D01*
X116093796Y-55692331D01*
X116144091Y-55557483D01*
X116150500Y-55497873D01*
X116150499Y-54402128D01*
X116144091Y-54342517D01*
X116143955Y-54342153D01*
X116093797Y-54207671D01*
X116093793Y-54207664D01*
X116042123Y-54138643D01*
X116007546Y-54092454D01*
X115949854Y-54049265D01*
X115907984Y-53993333D01*
X115903000Y-53923641D01*
X115936485Y-53862318D01*
X115949854Y-53850734D01*
X116007546Y-53807546D01*
X116093796Y-53692331D01*
X116144091Y-53557483D01*
X116150500Y-53497873D01*
X116150499Y-52402128D01*
X116144091Y-52342517D01*
X116118445Y-52273757D01*
X116093797Y-52207671D01*
X116093793Y-52207664D01*
X116034180Y-52128033D01*
X116007546Y-52092454D01*
X115949854Y-52049265D01*
X115907984Y-51993333D01*
X115903000Y-51923641D01*
X115936485Y-51862318D01*
X115949854Y-51850734D01*
X116007546Y-51807546D01*
X116093796Y-51692331D01*
X116144091Y-51557483D01*
X116150500Y-51497873D01*
X116150499Y-50402128D01*
X116144556Y-50346846D01*
X116144091Y-50342516D01*
X116093797Y-50207671D01*
X116093793Y-50207664D01*
X116007547Y-50092455D01*
X116007544Y-50092452D01*
X115892335Y-50006206D01*
X115892328Y-50006202D01*
X115757482Y-49955908D01*
X115757483Y-49955908D01*
X115697883Y-49949501D01*
X115697881Y-49949500D01*
X115697873Y-49949500D01*
X115697865Y-49949500D01*
X114300097Y-49949500D01*
X114233058Y-49929815D01*
X114212416Y-49913181D01*
X114160916Y-49861681D01*
X114127431Y-49800358D01*
X114132415Y-49730666D01*
X114174287Y-49674733D01*
X114239751Y-49650316D01*
X114248597Y-49650000D01*
X129451402Y-49650000D01*
X129518441Y-49669685D01*
G37*
%TD.AperFunction*%
%TA.AperFunction,Conductor*%
G36*
X85704809Y-65720185D02*
G01*
X85725451Y-65736819D01*
X86292041Y-66303409D01*
X86325526Y-66364732D01*
X86320542Y-66434424D01*
X86292042Y-66478771D01*
X86159951Y-66610862D01*
X86029432Y-66797265D01*
X86029431Y-66797267D01*
X85933261Y-67003502D01*
X85933258Y-67003511D01*
X85874366Y-67223302D01*
X85874364Y-67223313D01*
X85854532Y-67449998D01*
X85854532Y-67450001D01*
X85874364Y-67676686D01*
X85874366Y-67676697D01*
X85933258Y-67896488D01*
X85933263Y-67896502D01*
X85973546Y-67982889D01*
X85984038Y-68051966D01*
X85955518Y-68115750D01*
X85897041Y-68153989D01*
X85875047Y-68158513D01*
X85820750Y-68164630D01*
X85820745Y-68164631D01*
X85650476Y-68224211D01*
X85527293Y-68301613D01*
X85460056Y-68320613D01*
X85393221Y-68300245D01*
X85348007Y-68246977D01*
X85338770Y-68177721D01*
X85365468Y-68117954D01*
X85455492Y-68008260D01*
X85455496Y-68008253D01*
X85548347Y-67834541D01*
X85589160Y-67700000D01*
X84935686Y-67700000D01*
X84940080Y-67695606D01*
X84992741Y-67604394D01*
X85020000Y-67502661D01*
X85020000Y-67397339D01*
X84992741Y-67295606D01*
X84940080Y-67204394D01*
X84935686Y-67200000D01*
X85589160Y-67200000D01*
X85589160Y-67199999D01*
X85548347Y-67065458D01*
X85455496Y-66891746D01*
X85455492Y-66891739D01*
X85330528Y-66739471D01*
X85178260Y-66614507D01*
X85178253Y-66614503D01*
X85004541Y-66521652D01*
X84870000Y-66480839D01*
X84870000Y-67134314D01*
X84865606Y-67129920D01*
X84774394Y-67077259D01*
X84672661Y-67050000D01*
X84567339Y-67050000D01*
X84465606Y-67077259D01*
X84374394Y-67129920D01*
X84370000Y-67134314D01*
X84370000Y-66480839D01*
X84369999Y-66480839D01*
X84235458Y-66521652D01*
X84061746Y-66614503D01*
X84061739Y-66614507D01*
X83909471Y-66739471D01*
X83784507Y-66891739D01*
X83784503Y-66891746D01*
X83691652Y-67065458D01*
X83650839Y-67199999D01*
X83650840Y-67200000D01*
X84304314Y-67200000D01*
X84299920Y-67204394D01*
X84247259Y-67295606D01*
X84220000Y-67397339D01*
X84220000Y-67502661D01*
X84247259Y-67604394D01*
X84299920Y-67695606D01*
X84304314Y-67700000D01*
X83650840Y-67700000D01*
X83691652Y-67834541D01*
X83784503Y-68008253D01*
X83784507Y-68008260D01*
X83898234Y-68146835D01*
X83925547Y-68211145D01*
X83913756Y-68280012D01*
X83866604Y-68331573D01*
X83802381Y-68349500D01*
X82897619Y-68349500D01*
X82830580Y-68329815D01*
X82784825Y-68277011D01*
X82774881Y-68207853D01*
X82801766Y-68146835D01*
X82915492Y-68008260D01*
X82915496Y-68008253D01*
X83008347Y-67834541D01*
X83049160Y-67700000D01*
X82395686Y-67700000D01*
X82400080Y-67695606D01*
X82452741Y-67604394D01*
X82480000Y-67502661D01*
X82480000Y-67397339D01*
X82452741Y-67295606D01*
X82400080Y-67204394D01*
X82395686Y-67200000D01*
X83049160Y-67200000D01*
X83049160Y-67199999D01*
X83008347Y-67065458D01*
X82915496Y-66891746D01*
X82915492Y-66891739D01*
X82790528Y-66739471D01*
X82638260Y-66614507D01*
X82638253Y-66614503D01*
X82464541Y-66521652D01*
X82330000Y-66480839D01*
X82330000Y-67134314D01*
X82325606Y-67129920D01*
X82234394Y-67077259D01*
X82132661Y-67050000D01*
X82027339Y-67050000D01*
X81925606Y-67077259D01*
X81834394Y-67129920D01*
X81830000Y-67134314D01*
X81830000Y-66480839D01*
X81829999Y-66480839D01*
X81695458Y-66521652D01*
X81521746Y-66614503D01*
X81521739Y-66614507D01*
X81369471Y-66739471D01*
X81244507Y-66891739D01*
X81244503Y-66891746D01*
X81151652Y-67065458D01*
X81110839Y-67199999D01*
X81110840Y-67200000D01*
X81764314Y-67200000D01*
X81759920Y-67204394D01*
X81707259Y-67295606D01*
X81680000Y-67397339D01*
X81680000Y-67502661D01*
X81707259Y-67604394D01*
X81759920Y-67695606D01*
X81764314Y-67700000D01*
X81110840Y-67700000D01*
X81151652Y-67834541D01*
X81244503Y-68008253D01*
X81244507Y-68008260D01*
X81358234Y-68146835D01*
X81385547Y-68211145D01*
X81373756Y-68280012D01*
X81326604Y-68331573D01*
X81262381Y-68349500D01*
X80735982Y-68349500D01*
X80668943Y-68329815D01*
X80623188Y-68277011D01*
X80613244Y-68207853D01*
X80634406Y-68154378D01*
X80670568Y-68102734D01*
X80766739Y-67896496D01*
X80825635Y-67676692D01*
X80844813Y-67457482D01*
X80845468Y-67450001D01*
X80845468Y-67449998D01*
X80831960Y-67295606D01*
X80825635Y-67223308D01*
X80766739Y-67003504D01*
X80670568Y-66797266D01*
X80540047Y-66610861D01*
X80540045Y-66610858D01*
X80379141Y-66449954D01*
X80192734Y-66319432D01*
X80192732Y-66319431D01*
X79986497Y-66223261D01*
X79986488Y-66223258D01*
X79766697Y-66164366D01*
X79766693Y-66164365D01*
X79766692Y-66164365D01*
X79766691Y-66164364D01*
X79766686Y-66164364D01*
X79540002Y-66144532D01*
X79539997Y-66144532D01*
X79373137Y-66159129D01*
X79304637Y-66145362D01*
X79274650Y-66123282D01*
X79063549Y-65912181D01*
X79030064Y-65850858D01*
X79035048Y-65781166D01*
X79076920Y-65725233D01*
X79142384Y-65700816D01*
X79151230Y-65700500D01*
X85637770Y-65700500D01*
X85704809Y-65720185D01*
G37*
%TD.AperFunction*%
%TA.AperFunction,Conductor*%
G36*
X109277948Y-65230185D02*
G01*
X109323292Y-65282097D01*
X109325965Y-65287830D01*
X109461505Y-65481401D01*
X109628599Y-65648495D01*
X109702156Y-65700000D01*
X109822165Y-65784032D01*
X109822167Y-65784033D01*
X109822170Y-65784035D01*
X110036337Y-65883903D01*
X110036343Y-65883904D01*
X110036344Y-65883905D01*
X110091285Y-65898626D01*
X110264592Y-65945063D01*
X110452918Y-65961539D01*
X110499999Y-65965659D01*
X110500000Y-65965659D01*
X110500001Y-65965659D01*
X110545193Y-65961705D01*
X110735408Y-65945063D01*
X110963663Y-65883903D01*
X111177830Y-65784035D01*
X111371401Y-65648495D01*
X111433077Y-65586819D01*
X111494400Y-65553334D01*
X111520758Y-65550500D01*
X112200902Y-65550500D01*
X112267941Y-65570185D01*
X112313696Y-65622989D01*
X112323640Y-65692147D01*
X112294615Y-65755703D01*
X112288583Y-65762181D01*
X110337582Y-67713181D01*
X110276259Y-67746666D01*
X110249901Y-67749500D01*
X109324998Y-67749500D01*
X109324980Y-67749501D01*
X109222203Y-67760000D01*
X109222200Y-67760001D01*
X109055668Y-67815185D01*
X109055663Y-67815187D01*
X108906343Y-67907288D01*
X108900853Y-67911630D01*
X108836057Y-67937768D01*
X108767415Y-67924726D01*
X108716721Y-67876643D01*
X108702295Y-67831936D01*
X108701689Y-67832057D01*
X108700652Y-67826844D01*
X108700541Y-67826500D01*
X108700499Y-67826076D01*
X108671659Y-67681092D01*
X108671658Y-67681091D01*
X108671658Y-67681087D01*
X108639891Y-67604394D01*
X108615085Y-67544507D01*
X108614945Y-67544297D01*
X108556020Y-67456109D01*
X108532952Y-67421584D01*
X108019549Y-66908181D01*
X107478421Y-66367052D01*
X107478414Y-66367046D01*
X107404729Y-66317812D01*
X107404729Y-66317813D01*
X107355491Y-66284913D01*
X107218917Y-66228343D01*
X107218907Y-66228340D01*
X107073920Y-66199500D01*
X107073918Y-66199500D01*
X106799972Y-66199500D01*
X106759019Y-66192542D01*
X106724469Y-66180453D01*
X106667692Y-66139732D01*
X106641944Y-66074780D01*
X106645647Y-66031319D01*
X106663001Y-65966557D01*
X106663001Y-65808443D01*
X106663001Y-65800848D01*
X106663000Y-65800830D01*
X106663000Y-65417874D01*
X106682685Y-65350835D01*
X106735489Y-65305080D01*
X106747988Y-65300170D01*
X106794334Y-65284814D01*
X106866725Y-65240162D01*
X106884887Y-65228961D01*
X106949983Y-65210500D01*
X107260943Y-65210500D01*
X108420943Y-65210500D01*
X109210909Y-65210500D01*
X109277948Y-65230185D01*
G37*
%TD.AperFunction*%
%TA.AperFunction,Conductor*%
G36*
X98250717Y-55570185D02*
G01*
X98296472Y-55622989D01*
X98306898Y-55660617D01*
X98314630Y-55729249D01*
X98374210Y-55899521D01*
X98441244Y-56006204D01*
X98470184Y-56052262D01*
X98597738Y-56179816D01*
X98750478Y-56275789D01*
X98846896Y-56309527D01*
X98920745Y-56335368D01*
X98920750Y-56335369D01*
X99099996Y-56355565D01*
X99100000Y-56355565D01*
X99100004Y-56355565D01*
X99279249Y-56335369D01*
X99279252Y-56335368D01*
X99279255Y-56335368D01*
X99449522Y-56275789D01*
X99602262Y-56179816D01*
X99695260Y-56086818D01*
X99756584Y-56053334D01*
X99782941Y-56050500D01*
X101083678Y-56050500D01*
X101150717Y-56070185D01*
X101196472Y-56122989D01*
X101206898Y-56160617D01*
X101214630Y-56229249D01*
X101274210Y-56399521D01*
X101303627Y-56446337D01*
X101368616Y-56549767D01*
X101370185Y-56552263D01*
X101372445Y-56555097D01*
X101373334Y-56557275D01*
X101373889Y-56558158D01*
X101373734Y-56558255D01*
X101398855Y-56619783D01*
X101399500Y-56632412D01*
X101399500Y-59363330D01*
X101399499Y-59363348D01*
X101399499Y-59529054D01*
X101399498Y-59529054D01*
X101440423Y-59681785D01*
X101440424Y-59681788D01*
X101442515Y-59685409D01*
X101442518Y-59685414D01*
X101519477Y-59818712D01*
X101519481Y-59818717D01*
X101638349Y-59937585D01*
X101638355Y-59937590D01*
X101813181Y-60112416D01*
X101846666Y-60173739D01*
X101849500Y-60200097D01*
X101849500Y-61125001D01*
X101849501Y-61125019D01*
X101860000Y-61227796D01*
X101860001Y-61227799D01*
X101897707Y-61341587D01*
X101915186Y-61394334D01*
X102007288Y-61543656D01*
X102131344Y-61667712D01*
X102280666Y-61759814D01*
X102447203Y-61814999D01*
X102549991Y-61825500D01*
X103450008Y-61825499D01*
X103450016Y-61825498D01*
X103450019Y-61825498D01*
X103506302Y-61819748D01*
X103552797Y-61814999D01*
X103719334Y-61759814D01*
X103868656Y-61667712D01*
X103992712Y-61543656D01*
X104084814Y-61394334D01*
X104139999Y-61227797D01*
X104150500Y-61125009D01*
X104150499Y-59774992D01*
X104149520Y-59765412D01*
X104139999Y-59672203D01*
X104139998Y-59672200D01*
X104130816Y-59644491D01*
X104084814Y-59505666D01*
X103992712Y-59356344D01*
X103924049Y-59287681D01*
X103890564Y-59226358D01*
X103895548Y-59156666D01*
X103924049Y-59112319D01*
X103955300Y-59081068D01*
X103992712Y-59043656D01*
X104084814Y-58894334D01*
X104139999Y-58727797D01*
X104150500Y-58625009D01*
X104150499Y-57274992D01*
X104147342Y-57244091D01*
X104139999Y-57172203D01*
X104139998Y-57172200D01*
X104118574Y-57107547D01*
X104084814Y-57005666D01*
X103992712Y-56856344D01*
X103868656Y-56732288D01*
X103721421Y-56641473D01*
X103674699Y-56589527D01*
X103663476Y-56520565D01*
X103681524Y-56469967D01*
X103725789Y-56399522D01*
X103785368Y-56229255D01*
X103788665Y-56200000D01*
X103793102Y-56160617D01*
X103820168Y-56096203D01*
X103877763Y-56056648D01*
X103916322Y-56050500D01*
X105568531Y-56050500D01*
X105635570Y-56070185D01*
X105656212Y-56086819D01*
X105932212Y-56362819D01*
X105965697Y-56424142D01*
X105960713Y-56493834D01*
X105918841Y-56549767D01*
X105853377Y-56574184D01*
X105844532Y-56574500D01*
X105649999Y-56574500D01*
X105649980Y-56574501D01*
X105547203Y-56585000D01*
X105547200Y-56585001D01*
X105380668Y-56640185D01*
X105380663Y-56640187D01*
X105231342Y-56732289D01*
X105107289Y-56856342D01*
X105015187Y-57005663D01*
X105015186Y-57005666D01*
X104960001Y-57172203D01*
X104960001Y-57172204D01*
X104960000Y-57172204D01*
X104949500Y-57274983D01*
X104949500Y-58625001D01*
X104949501Y-58625018D01*
X104960000Y-58727796D01*
X104960001Y-58727799D01*
X105015185Y-58894331D01*
X105015187Y-58894336D01*
X105107289Y-59043657D01*
X105175951Y-59112319D01*
X105209436Y-59173642D01*
X105204452Y-59243334D01*
X105175951Y-59287681D01*
X105107289Y-59356342D01*
X105015187Y-59505663D01*
X105015185Y-59505668D01*
X104992133Y-59575235D01*
X104960001Y-59672203D01*
X104960001Y-59672204D01*
X104960000Y-59672204D01*
X104949500Y-59774983D01*
X104949500Y-61125001D01*
X104949501Y-61125018D01*
X104960000Y-61227796D01*
X104960001Y-61227799D01*
X104997707Y-61341587D01*
X105015186Y-61394334D01*
X105107288Y-61543656D01*
X105231344Y-61667712D01*
X105326425Y-61726358D01*
X105380671Y-61759817D01*
X105387216Y-61762869D01*
X105386228Y-61764987D01*
X105434448Y-61798372D01*
X105461272Y-61862887D01*
X105462000Y-61876307D01*
X105462000Y-62482125D01*
X105442315Y-62549164D01*
X105389511Y-62594919D01*
X105377009Y-62599829D01*
X105330986Y-62615080D01*
X105330666Y-62615186D01*
X105330663Y-62615187D01*
X105181342Y-62707289D01*
X105057289Y-62831342D01*
X104965187Y-62980663D01*
X104965185Y-62980668D01*
X104965094Y-62980943D01*
X104910001Y-63147203D01*
X104910001Y-63147204D01*
X104910000Y-63147204D01*
X104899500Y-63249983D01*
X104899500Y-64650001D01*
X104899501Y-64650018D01*
X104910000Y-64752796D01*
X104910001Y-64752799D01*
X104948618Y-64869335D01*
X104965186Y-64919334D01*
X105057288Y-65068656D01*
X105181344Y-65192712D01*
X105330666Y-65284814D01*
X105330668Y-65284815D01*
X105346923Y-65290201D01*
X105377002Y-65300168D01*
X105434447Y-65339938D01*
X105461272Y-65404453D01*
X105462000Y-65417874D01*
X105462000Y-65587403D01*
X105442315Y-65654442D01*
X105425681Y-65675084D01*
X104192584Y-66908181D01*
X104131261Y-66941666D01*
X104104903Y-66944500D01*
X103915759Y-66944500D01*
X103848720Y-66924815D01*
X103802965Y-66872011D01*
X103792539Y-66834384D01*
X103785369Y-66770749D01*
X103785368Y-66770745D01*
X103780184Y-66755929D01*
X103725789Y-66600478D01*
X103629816Y-66447738D01*
X103502262Y-66320184D01*
X103458127Y-66292452D01*
X103349523Y-66224211D01*
X103179254Y-66164631D01*
X103179249Y-66164630D01*
X103000004Y-66144435D01*
X102999996Y-66144435D01*
X102820750Y-66164630D01*
X102820745Y-66164631D01*
X102740983Y-66192542D01*
X102700028Y-66199500D01*
X100080250Y-66199500D01*
X100013211Y-66179815D01*
X99967456Y-66127011D01*
X99956250Y-66075500D01*
X99956250Y-65700000D01*
X98231251Y-65700000D01*
X98231251Y-66075500D01*
X98211566Y-66142539D01*
X98158762Y-66188294D01*
X98107251Y-66199500D01*
X97255750Y-66199500D01*
X97188711Y-66179815D01*
X97142956Y-66127011D01*
X97131750Y-66075500D01*
X97131749Y-65200000D01*
X98231250Y-65200000D01*
X98843750Y-65200000D01*
X98843750Y-64350000D01*
X99343750Y-64350000D01*
X99343750Y-65200000D01*
X99956249Y-65200000D01*
X99956249Y-64745803D01*
X99953398Y-64715393D01*
X99908596Y-64587354D01*
X99828042Y-64478207D01*
X99718895Y-64397653D01*
X99590852Y-64352850D01*
X99560457Y-64350000D01*
X99343750Y-64350000D01*
X98843750Y-64350000D01*
X98627054Y-64350000D01*
X98596643Y-64352851D01*
X98468604Y-64397653D01*
X98359457Y-64478207D01*
X98278903Y-64587354D01*
X98234100Y-64715395D01*
X98234100Y-64715399D01*
X98231250Y-64745793D01*
X98231250Y-65200000D01*
X97131749Y-65200000D01*
X97131749Y-64749998D01*
X97131748Y-64749981D01*
X97121249Y-64647203D01*
X97121248Y-64647200D01*
X97095681Y-64570045D01*
X97066064Y-64480666D01*
X96973962Y-64331344D01*
X96930299Y-64287681D01*
X96896814Y-64226358D01*
X96898699Y-64200000D01*
X102075001Y-64200000D01*
X102075001Y-64654196D01*
X102077851Y-64684606D01*
X102122653Y-64812645D01*
X102203207Y-64921792D01*
X102312354Y-65002346D01*
X102440397Y-65047149D01*
X102470792Y-65049999D01*
X102687499Y-65049999D01*
X102687500Y-65049998D01*
X102687500Y-64200000D01*
X103187500Y-64200000D01*
X103187500Y-65049999D01*
X103404196Y-65049999D01*
X103434606Y-65047148D01*
X103562645Y-65002346D01*
X103671792Y-64921792D01*
X103752346Y-64812645D01*
X103797149Y-64684604D01*
X103797149Y-64684600D01*
X103800000Y-64654206D01*
X103800000Y-64200000D01*
X103187500Y-64200000D01*
X102687500Y-64200000D01*
X102075001Y-64200000D01*
X96898699Y-64200000D01*
X96901798Y-64156666D01*
X96930299Y-64112319D01*
X96950442Y-64092176D01*
X96973962Y-64068656D01*
X97066064Y-63919334D01*
X97121249Y-63752797D01*
X97131750Y-63650009D01*
X97131750Y-63200000D01*
X98231251Y-63200000D01*
X98231251Y-63654196D01*
X98234101Y-63684606D01*
X98278903Y-63812645D01*
X98359457Y-63921792D01*
X98468604Y-64002346D01*
X98596647Y-64047149D01*
X98627042Y-64049999D01*
X98843749Y-64049999D01*
X98843750Y-64049998D01*
X98843750Y-63200000D01*
X99343750Y-63200000D01*
X99343750Y-64049999D01*
X99560446Y-64049999D01*
X99590856Y-64047148D01*
X99718895Y-64002346D01*
X99828042Y-63921792D01*
X99908596Y-63812645D01*
X99948012Y-63700000D01*
X102075000Y-63700000D01*
X102687500Y-63700000D01*
X102687500Y-62850000D01*
X103187500Y-62850000D01*
X103187500Y-63700000D01*
X103799999Y-63700000D01*
X103799999Y-63245803D01*
X103797148Y-63215393D01*
X103752346Y-63087354D01*
X103671792Y-62978207D01*
X103562645Y-62897653D01*
X103434602Y-62852850D01*
X103404207Y-62850000D01*
X103187500Y-62850000D01*
X102687500Y-62850000D01*
X102470804Y-62850000D01*
X102440393Y-62852851D01*
X102312354Y-62897653D01*
X102203207Y-62978207D01*
X102122653Y-63087354D01*
X102077850Y-63215395D01*
X102077850Y-63215399D01*
X102075000Y-63245793D01*
X102075000Y-63700000D01*
X99948012Y-63700000D01*
X99953399Y-63684604D01*
X99953399Y-63684600D01*
X99956250Y-63654206D01*
X99956250Y-63200000D01*
X99343750Y-63200000D01*
X98843750Y-63200000D01*
X98231251Y-63200000D01*
X97131750Y-63200000D01*
X97131749Y-62700000D01*
X98231250Y-62700000D01*
X98843750Y-62700000D01*
X98843750Y-61850000D01*
X99343750Y-61850000D01*
X99343750Y-62700000D01*
X99956249Y-62700000D01*
X99956249Y-62245803D01*
X99953398Y-62215393D01*
X99908596Y-62087354D01*
X99828042Y-61978207D01*
X99718895Y-61897653D01*
X99590852Y-61852850D01*
X99560457Y-61850000D01*
X99343750Y-61850000D01*
X98843750Y-61850000D01*
X98627054Y-61850000D01*
X98596643Y-61852851D01*
X98468604Y-61897653D01*
X98359457Y-61978207D01*
X98278903Y-62087354D01*
X98234100Y-62215395D01*
X98234100Y-62215399D01*
X98231250Y-62245793D01*
X98231250Y-62700000D01*
X97131749Y-62700000D01*
X97131749Y-62249992D01*
X97121249Y-62147203D01*
X97066064Y-61980666D01*
X96973962Y-61831344D01*
X96930299Y-61787681D01*
X96896814Y-61726358D01*
X96901798Y-61656666D01*
X96930299Y-61612319D01*
X96941532Y-61601086D01*
X96973962Y-61568656D01*
X97066064Y-61419334D01*
X97121249Y-61252797D01*
X97131750Y-61150009D01*
X97131750Y-60700000D01*
X98231251Y-60700000D01*
X98231251Y-61154196D01*
X98234101Y-61184606D01*
X98278903Y-61312645D01*
X98359457Y-61421792D01*
X98468604Y-61502346D01*
X98596647Y-61547149D01*
X98627042Y-61549999D01*
X98843749Y-61549999D01*
X98843750Y-61549998D01*
X98843750Y-60700000D01*
X99343750Y-60700000D01*
X99343750Y-61549999D01*
X99560446Y-61549999D01*
X99590856Y-61547148D01*
X99718895Y-61502346D01*
X99828042Y-61421792D01*
X99908596Y-61312645D01*
X99953399Y-61184604D01*
X99953399Y-61184600D01*
X99956250Y-61154206D01*
X99956250Y-60700000D01*
X99343750Y-60700000D01*
X98843750Y-60700000D01*
X98231251Y-60700000D01*
X97131750Y-60700000D01*
X97131749Y-60200000D01*
X98231250Y-60200000D01*
X98843750Y-60200000D01*
X98843750Y-59350000D01*
X99343750Y-59350000D01*
X99343750Y-60200000D01*
X99956249Y-60200000D01*
X99956249Y-59745803D01*
X99953398Y-59715393D01*
X99908596Y-59587354D01*
X99828042Y-59478207D01*
X99718895Y-59397653D01*
X99590852Y-59352850D01*
X99560457Y-59350000D01*
X99343750Y-59350000D01*
X98843750Y-59350000D01*
X98627054Y-59350000D01*
X98596643Y-59352851D01*
X98468604Y-59397653D01*
X98359457Y-59478207D01*
X98278903Y-59587354D01*
X98234100Y-59715395D01*
X98234100Y-59715399D01*
X98231250Y-59745793D01*
X98231250Y-60200000D01*
X97131749Y-60200000D01*
X97131749Y-59749992D01*
X97121249Y-59647203D01*
X97066064Y-59480666D01*
X96973962Y-59331344D01*
X96961549Y-59318931D01*
X96928064Y-59257608D01*
X96933048Y-59187916D01*
X96961549Y-59143569D01*
X96996815Y-59108303D01*
X97036462Y-59068656D01*
X97128564Y-58919334D01*
X97183749Y-58752797D01*
X97194250Y-58650009D01*
X97194250Y-58200000D01*
X98293751Y-58200000D01*
X98293751Y-58654196D01*
X98296601Y-58684606D01*
X98341403Y-58812645D01*
X98421957Y-58921792D01*
X98531104Y-59002346D01*
X98659147Y-59047149D01*
X98689542Y-59049999D01*
X98906249Y-59049999D01*
X98906250Y-59049998D01*
X98906250Y-58200000D01*
X99406250Y-58200000D01*
X99406250Y-59049999D01*
X99622946Y-59049999D01*
X99653356Y-59047148D01*
X99781395Y-59002346D01*
X99890542Y-58921792D01*
X99971096Y-58812645D01*
X100015899Y-58684604D01*
X100015899Y-58684600D01*
X100018750Y-58654206D01*
X100018750Y-58200000D01*
X99406250Y-58200000D01*
X98906250Y-58200000D01*
X98293751Y-58200000D01*
X97194250Y-58200000D01*
X97194249Y-57700000D01*
X98293750Y-57700000D01*
X98906250Y-57700000D01*
X98906250Y-56850000D01*
X99406250Y-56850000D01*
X99406250Y-57700000D01*
X100018749Y-57700000D01*
X100018749Y-57245803D01*
X100015898Y-57215393D01*
X99971096Y-57087354D01*
X99890542Y-56978207D01*
X99781395Y-56897653D01*
X99653352Y-56852850D01*
X99622957Y-56850000D01*
X99406250Y-56850000D01*
X98906250Y-56850000D01*
X98689554Y-56850000D01*
X98659143Y-56852851D01*
X98531104Y-56897653D01*
X98421957Y-56978207D01*
X98341403Y-57087354D01*
X98296600Y-57215395D01*
X98296600Y-57215399D01*
X98293750Y-57245793D01*
X98293750Y-57700000D01*
X97194249Y-57700000D01*
X97194249Y-57249992D01*
X97192782Y-57235635D01*
X97183749Y-57147203D01*
X97183748Y-57147200D01*
X97163917Y-57087354D01*
X97128564Y-56980666D01*
X97036462Y-56831344D01*
X96912406Y-56707288D01*
X96763084Y-56615186D01*
X96596547Y-56560001D01*
X96596543Y-56560000D01*
X96589923Y-56558583D01*
X96590458Y-56556081D01*
X96536546Y-56534077D01*
X96496401Y-56476893D01*
X96493544Y-56407081D01*
X96526167Y-56349444D01*
X97288794Y-55586819D01*
X97350117Y-55553334D01*
X97376475Y-55550500D01*
X98183678Y-55550500D01*
X98250717Y-55570185D01*
G37*
%TD.AperFunction*%
%TA.AperFunction,Conductor*%
G36*
X135118834Y-53702914D02*
G01*
X135174767Y-53744786D01*
X135199184Y-53810250D01*
X135199500Y-53819096D01*
X135199500Y-64349902D01*
X135179815Y-64416941D01*
X135163181Y-64437583D01*
X134761681Y-64839083D01*
X134700358Y-64872568D01*
X134630666Y-64867584D01*
X134574733Y-64825712D01*
X134562253Y-64792253D01*
X134550000Y-64780000D01*
X133933012Y-64780000D01*
X133965925Y-64722993D01*
X134000000Y-64595826D01*
X134000000Y-64464174D01*
X133965925Y-64337007D01*
X133933012Y-64280000D01*
X134550000Y-64280000D01*
X134550000Y-63660301D01*
X134549999Y-63660297D01*
X134538397Y-63601966D01*
X134538396Y-63601965D01*
X134494191Y-63535808D01*
X134428034Y-63491603D01*
X134428033Y-63491602D01*
X134369702Y-63480000D01*
X134059569Y-63480000D01*
X133992530Y-63460315D01*
X133946775Y-63407511D01*
X133936831Y-63338353D01*
X133965856Y-63274797D01*
X134007164Y-63243618D01*
X134177830Y-63164035D01*
X134371401Y-63028495D01*
X134538495Y-62861401D01*
X134674035Y-62667830D01*
X134773903Y-62453663D01*
X134835063Y-62225408D01*
X134855659Y-61990000D01*
X134835063Y-61754592D01*
X134785652Y-61570185D01*
X134773905Y-61526344D01*
X134773904Y-61526343D01*
X134773903Y-61526337D01*
X134674035Y-61312171D01*
X134669361Y-61305495D01*
X134538494Y-61118597D01*
X134371402Y-60951506D01*
X134371396Y-60951501D01*
X134185842Y-60821575D01*
X134142217Y-60766998D01*
X134135023Y-60697500D01*
X134166546Y-60635145D01*
X134185842Y-60618425D01*
X134260824Y-60565922D01*
X134371401Y-60488495D01*
X134538495Y-60321401D01*
X134674035Y-60127830D01*
X134773903Y-59913663D01*
X134835063Y-59685408D01*
X134855659Y-59450000D01*
X134835063Y-59214592D01*
X134773903Y-58986337D01*
X134674035Y-58772171D01*
X134668757Y-58764632D01*
X134538494Y-58578597D01*
X134371402Y-58411506D01*
X134371396Y-58411501D01*
X134185842Y-58281575D01*
X134142217Y-58226998D01*
X134135023Y-58157500D01*
X134166546Y-58095145D01*
X134185842Y-58078425D01*
X134288984Y-58006204D01*
X134371401Y-57948495D01*
X134538495Y-57781401D01*
X134674035Y-57587830D01*
X134773903Y-57373663D01*
X134835063Y-57145408D01*
X134855659Y-56910000D01*
X134835063Y-56674592D01*
X134773903Y-56446337D01*
X134674035Y-56232171D01*
X134671994Y-56229255D01*
X134538494Y-56038597D01*
X134371402Y-55871506D01*
X134371396Y-55871501D01*
X134185842Y-55741575D01*
X134142217Y-55686998D01*
X134135023Y-55617500D01*
X134166546Y-55555145D01*
X134185842Y-55538425D01*
X134235704Y-55503511D01*
X134371401Y-55408495D01*
X134538495Y-55241401D01*
X134674035Y-55047830D01*
X134773903Y-54833663D01*
X134835063Y-54605408D01*
X134855659Y-54370000D01*
X134853254Y-54342517D01*
X134850015Y-54305488D01*
X134835063Y-54134592D01*
X134800671Y-54006239D01*
X134802334Y-53936393D01*
X134832761Y-53886472D01*
X134987822Y-53731412D01*
X135049142Y-53697930D01*
X135118834Y-53702914D01*
G37*
%TD.AperFunction*%
%TA.AperFunction,Conductor*%
G36*
X85454809Y-61220185D02*
G01*
X85475451Y-61236819D01*
X86333181Y-62094548D01*
X86366666Y-62155871D01*
X86369500Y-62182229D01*
X86369500Y-62443336D01*
X86349815Y-62510375D01*
X86316625Y-62544910D01*
X86280863Y-62569951D01*
X86119951Y-62730862D01*
X85989432Y-62917265D01*
X85989431Y-62917267D01*
X85893261Y-63123502D01*
X85893258Y-63123511D01*
X85834366Y-63343302D01*
X85834364Y-63343313D01*
X85814532Y-63569998D01*
X85814532Y-63570001D01*
X85834364Y-63796686D01*
X85834366Y-63796697D01*
X85893258Y-64016488D01*
X85893263Y-64016503D01*
X85896339Y-64023098D01*
X85906830Y-64092176D01*
X85878308Y-64155959D01*
X85819831Y-64194197D01*
X85783956Y-64199500D01*
X85584295Y-64199500D01*
X85517256Y-64179815D01*
X85471501Y-64127011D01*
X85461557Y-64057853D01*
X85474937Y-64017046D01*
X85508348Y-63954538D01*
X85549160Y-63820000D01*
X84895686Y-63820000D01*
X84900080Y-63815606D01*
X84952741Y-63724394D01*
X84980000Y-63622661D01*
X84980000Y-63517339D01*
X84952741Y-63415606D01*
X84900080Y-63324394D01*
X84895686Y-63320000D01*
X85549160Y-63320000D01*
X85549160Y-63319999D01*
X85508347Y-63185458D01*
X85415496Y-63011746D01*
X85415492Y-63011739D01*
X85290528Y-62859471D01*
X85138260Y-62734507D01*
X85138253Y-62734503D01*
X84964541Y-62641652D01*
X84830000Y-62600839D01*
X84830000Y-63254314D01*
X84825606Y-63249920D01*
X84734394Y-63197259D01*
X84632661Y-63170000D01*
X84527339Y-63170000D01*
X84425606Y-63197259D01*
X84334394Y-63249920D01*
X84330000Y-63254314D01*
X84330000Y-62600839D01*
X84329999Y-62600839D01*
X84195458Y-62641652D01*
X84021746Y-62734503D01*
X84021739Y-62734507D01*
X83869471Y-62859471D01*
X83744507Y-63011739D01*
X83744503Y-63011746D01*
X83651652Y-63185458D01*
X83610839Y-63319999D01*
X83610840Y-63320000D01*
X84264314Y-63320000D01*
X84259920Y-63324394D01*
X84207259Y-63415606D01*
X84180000Y-63517339D01*
X84180000Y-63622661D01*
X84207259Y-63724394D01*
X84259920Y-63815606D01*
X84264314Y-63820000D01*
X83610840Y-63820000D01*
X83651651Y-63954538D01*
X83685063Y-64017046D01*
X83699305Y-64085449D01*
X83674305Y-64150693D01*
X83618000Y-64192064D01*
X83575705Y-64199500D01*
X83044295Y-64199500D01*
X82977256Y-64179815D01*
X82931501Y-64127011D01*
X82921557Y-64057853D01*
X82934937Y-64017046D01*
X82968348Y-63954538D01*
X83009160Y-63820000D01*
X82355686Y-63820000D01*
X82360080Y-63815606D01*
X82412741Y-63724394D01*
X82440000Y-63622661D01*
X82440000Y-63517339D01*
X82412741Y-63415606D01*
X82360080Y-63324394D01*
X82355686Y-63320000D01*
X83009160Y-63320000D01*
X83009160Y-63319999D01*
X82968347Y-63185458D01*
X82875496Y-63011746D01*
X82875492Y-63011739D01*
X82750528Y-62859471D01*
X82598260Y-62734507D01*
X82598253Y-62734503D01*
X82424541Y-62641652D01*
X82290000Y-62600839D01*
X82290000Y-63254314D01*
X82285606Y-63249920D01*
X82194394Y-63197259D01*
X82092661Y-63170000D01*
X81987339Y-63170000D01*
X81885606Y-63197259D01*
X81794394Y-63249920D01*
X81790000Y-63254314D01*
X81790000Y-62600839D01*
X81789999Y-62600839D01*
X81655458Y-62641652D01*
X81481746Y-62734503D01*
X81481739Y-62734507D01*
X81329471Y-62859471D01*
X81204507Y-63011739D01*
X81204503Y-63011746D01*
X81111652Y-63185458D01*
X81070839Y-63319999D01*
X81070840Y-63320000D01*
X81724314Y-63320000D01*
X81719920Y-63324394D01*
X81667259Y-63415606D01*
X81640000Y-63517339D01*
X81640000Y-63622661D01*
X81667259Y-63724394D01*
X81719920Y-63815606D01*
X81724314Y-63820000D01*
X81070840Y-63820000D01*
X81111651Y-63954538D01*
X81145063Y-64017046D01*
X81159305Y-64085449D01*
X81134305Y-64150693D01*
X81078000Y-64192064D01*
X81035705Y-64199500D01*
X80836044Y-64199500D01*
X80769005Y-64179815D01*
X80723250Y-64127011D01*
X80713306Y-64057853D01*
X80723661Y-64023098D01*
X80726736Y-64016503D01*
X80726736Y-64016501D01*
X80726739Y-64016496D01*
X80785635Y-63796692D01*
X80805468Y-63570000D01*
X80785635Y-63343308D01*
X80726739Y-63123504D01*
X80630568Y-62917266D01*
X80500047Y-62730861D01*
X80500045Y-62730858D01*
X80339141Y-62569954D01*
X80152734Y-62439432D01*
X80152732Y-62439431D01*
X79946497Y-62343261D01*
X79946488Y-62343258D01*
X79726697Y-62284366D01*
X79726693Y-62284365D01*
X79726692Y-62284365D01*
X79726691Y-62284364D01*
X79726686Y-62284364D01*
X79500002Y-62264532D01*
X79499997Y-62264532D01*
X79333137Y-62279129D01*
X79264637Y-62265362D01*
X79234650Y-62243282D01*
X78403550Y-61412181D01*
X78370065Y-61350858D01*
X78375049Y-61281166D01*
X78416921Y-61225233D01*
X78482385Y-61200816D01*
X78491231Y-61200500D01*
X85387770Y-61200500D01*
X85454809Y-61220185D01*
G37*
%TD.AperFunction*%
%TA.AperFunction,Conductor*%
G36*
X74077949Y-57204724D02*
G01*
X74193308Y-57235635D01*
X74355230Y-57249801D01*
X74419998Y-57255468D01*
X74420000Y-57255468D01*
X74420002Y-57255468D01*
X74482591Y-57249992D01*
X74646692Y-57235635D01*
X74763408Y-57204361D01*
X74833256Y-57206024D01*
X74891119Y-57245186D01*
X74918623Y-57309415D01*
X74919500Y-57324136D01*
X74919500Y-58193918D01*
X74919500Y-58193920D01*
X74919499Y-58193920D01*
X74948340Y-58338907D01*
X74948343Y-58338917D01*
X75004914Y-58475492D01*
X75037812Y-58524727D01*
X75037813Y-58524730D01*
X75087046Y-58598414D01*
X75087052Y-58598421D01*
X77476451Y-60987819D01*
X77509936Y-61049142D01*
X77504952Y-61118834D01*
X77463080Y-61174767D01*
X77397616Y-61199184D01*
X77388770Y-61199500D01*
X70681940Y-61199500D01*
X70614901Y-61179815D01*
X70569146Y-61127011D01*
X70559202Y-61057853D01*
X70588227Y-60994297D01*
X70594259Y-60987819D01*
X70629816Y-60952262D01*
X70725789Y-60799522D01*
X70785368Y-60629255D01*
X70785762Y-60625758D01*
X70794567Y-60547616D01*
X70821633Y-60483202D01*
X70879228Y-60443646D01*
X70917787Y-60437499D01*
X71250000Y-60437499D01*
X71250000Y-59825000D01*
X71750000Y-59825000D01*
X71750000Y-60437499D01*
X72204196Y-60437499D01*
X72234606Y-60434648D01*
X72362645Y-60389846D01*
X72471792Y-60309292D01*
X72552346Y-60200145D01*
X72597149Y-60072104D01*
X72597149Y-60072100D01*
X72600000Y-60041706D01*
X72600000Y-59825000D01*
X71750000Y-59825000D01*
X71250000Y-59825000D01*
X71250000Y-58712500D01*
X71750000Y-58712500D01*
X71750000Y-59325000D01*
X72599999Y-59325000D01*
X72599999Y-59108303D01*
X72597148Y-59077893D01*
X72552346Y-58949854D01*
X72471792Y-58840707D01*
X72362645Y-58760153D01*
X72234602Y-58715350D01*
X72204207Y-58712500D01*
X71750000Y-58712500D01*
X71250000Y-58712500D01*
X70874500Y-58712500D01*
X70807461Y-58692815D01*
X70761706Y-58640011D01*
X70750500Y-58588500D01*
X70750500Y-58312228D01*
X70770185Y-58245189D01*
X70786815Y-58224551D01*
X71362048Y-57649317D01*
X71423371Y-57615833D01*
X71449729Y-57612999D01*
X72200002Y-57612999D01*
X72200008Y-57612999D01*
X72302797Y-57602499D01*
X72469334Y-57547314D01*
X72618656Y-57455212D01*
X72742712Y-57331156D01*
X72786970Y-57259402D01*
X72838917Y-57212679D01*
X72892508Y-57200500D01*
X74045857Y-57200500D01*
X74077949Y-57204724D01*
G37*
%TD.AperFunction*%
%TA.AperFunction,Conductor*%
G36*
X83707341Y-55220185D02*
G01*
X83753096Y-55272989D01*
X83763040Y-55342147D01*
X83746312Y-55385798D01*
X83747378Y-55386368D01*
X83651652Y-55565458D01*
X83610839Y-55699999D01*
X83610840Y-55700000D01*
X84264314Y-55700000D01*
X84259920Y-55704394D01*
X84207259Y-55795606D01*
X84180000Y-55897339D01*
X84180000Y-56002661D01*
X84207259Y-56104394D01*
X84259920Y-56195606D01*
X84264314Y-56200000D01*
X83610840Y-56200000D01*
X83651652Y-56334541D01*
X83744503Y-56508253D01*
X83744507Y-56508260D01*
X83869471Y-56660528D01*
X84021739Y-56785491D01*
X84195465Y-56878349D01*
X84330000Y-56919159D01*
X84330000Y-56265686D01*
X84334394Y-56270080D01*
X84425606Y-56322741D01*
X84527339Y-56350000D01*
X84632661Y-56350000D01*
X84734394Y-56322741D01*
X84825606Y-56270080D01*
X84830000Y-56265686D01*
X84830000Y-56919159D01*
X84964534Y-56878349D01*
X85138260Y-56785491D01*
X85290528Y-56660528D01*
X85415492Y-56508260D01*
X85415496Y-56508253D01*
X85508347Y-56334541D01*
X85549160Y-56200000D01*
X84895686Y-56200000D01*
X84900080Y-56195606D01*
X84952741Y-56104394D01*
X84980000Y-56002661D01*
X84980000Y-55897339D01*
X84952741Y-55795606D01*
X84900080Y-55704394D01*
X84895686Y-55700000D01*
X85549160Y-55700000D01*
X85549160Y-55699999D01*
X85508347Y-55565458D01*
X85412622Y-55386368D01*
X85414143Y-55385554D01*
X85395718Y-55326718D01*
X85414200Y-55259337D01*
X85466178Y-55212645D01*
X85519698Y-55200500D01*
X85839913Y-55200500D01*
X85906952Y-55220185D01*
X85952707Y-55272989D01*
X85962651Y-55342147D01*
X85952295Y-55376904D01*
X85893263Y-55503497D01*
X85893258Y-55503511D01*
X85834366Y-55723302D01*
X85834364Y-55723313D01*
X85814532Y-55949998D01*
X85814532Y-55950001D01*
X85834364Y-56176686D01*
X85834366Y-56176697D01*
X85893258Y-56396488D01*
X85893261Y-56396497D01*
X85989431Y-56602732D01*
X85989432Y-56602734D01*
X86119954Y-56789141D01*
X86280858Y-56950045D01*
X86280861Y-56950047D01*
X86467266Y-57080568D01*
X86467269Y-57080569D01*
X86471957Y-57083276D01*
X86470667Y-57085509D01*
X86515016Y-57124476D01*
X86534238Y-57191649D01*
X86514092Y-57258551D01*
X86497922Y-57278476D01*
X85963219Y-57813181D01*
X85901896Y-57846666D01*
X85875538Y-57849500D01*
X82586670Y-57849500D01*
X82586654Y-57849499D01*
X82579058Y-57849499D01*
X82420943Y-57849499D01*
X82353115Y-57867674D01*
X82268214Y-57890423D01*
X82268209Y-57890426D01*
X82131290Y-57969475D01*
X82131286Y-57969478D01*
X81981465Y-58119299D01*
X81920142Y-58152783D01*
X81907668Y-58154837D01*
X81820750Y-58164630D01*
X81650478Y-58224210D01*
X81497737Y-58320184D01*
X81370184Y-58447737D01*
X81274210Y-58600478D01*
X81214630Y-58770750D01*
X81210364Y-58808616D01*
X81183297Y-58873029D01*
X81125702Y-58912584D01*
X81055865Y-58914721D01*
X81021172Y-58899724D01*
X80900997Y-58824212D01*
X80730725Y-58764631D01*
X80730720Y-58764630D01*
X80551475Y-58744435D01*
X80551467Y-58744435D01*
X80372221Y-58764630D01*
X80372216Y-58764631D01*
X80201947Y-58824211D01*
X80049208Y-58920184D01*
X79921655Y-59047737D01*
X79825682Y-59200476D01*
X79766102Y-59370745D01*
X79766101Y-59370750D01*
X79745906Y-59549996D01*
X79745906Y-59550000D01*
X79745962Y-59550501D01*
X79747215Y-59561614D01*
X79735162Y-59630436D01*
X79687814Y-59681816D01*
X79623995Y-59699500D01*
X78362229Y-59699500D01*
X78295190Y-59679815D01*
X78274548Y-59663181D01*
X76456819Y-57845451D01*
X76423334Y-57784128D01*
X76420500Y-57757770D01*
X76420500Y-57313418D01*
X76440185Y-57246379D01*
X76492989Y-57200624D01*
X76562147Y-57190680D01*
X76576580Y-57193640D01*
X76733308Y-57235635D01*
X76895230Y-57249801D01*
X76959998Y-57255468D01*
X76960000Y-57255468D01*
X76960002Y-57255468D01*
X77022591Y-57249992D01*
X77186692Y-57235635D01*
X77406496Y-57176739D01*
X77612734Y-57080568D01*
X77799139Y-56950047D01*
X77960047Y-56789139D01*
X78090568Y-56602734D01*
X78117618Y-56544724D01*
X78163790Y-56492285D01*
X78230983Y-56473133D01*
X78297865Y-56493348D01*
X78342381Y-56544724D01*
X78345897Y-56552263D01*
X78369429Y-56602728D01*
X78369432Y-56602734D01*
X78499954Y-56789141D01*
X78660858Y-56950045D01*
X78660861Y-56950047D01*
X78847266Y-57080568D01*
X79053504Y-57176739D01*
X79273308Y-57235635D01*
X79435230Y-57249801D01*
X79499998Y-57255468D01*
X79500000Y-57255468D01*
X79500002Y-57255468D01*
X79562591Y-57249992D01*
X79726692Y-57235635D01*
X79946496Y-57176739D01*
X80152734Y-57080568D01*
X80339139Y-56950047D01*
X80500047Y-56789139D01*
X80630568Y-56602734D01*
X80726739Y-56396496D01*
X80785635Y-56176692D01*
X80788504Y-56143889D01*
X80813955Y-56078822D01*
X80824343Y-56067023D01*
X80841367Y-56049999D01*
X80902688Y-56016516D01*
X80972380Y-56021500D01*
X81028313Y-56063372D01*
X81052449Y-56125527D01*
X81054468Y-56146032D01*
X81111651Y-56334539D01*
X81204503Y-56508253D01*
X81204507Y-56508260D01*
X81329471Y-56660528D01*
X81481739Y-56785491D01*
X81655465Y-56878349D01*
X81790000Y-56919159D01*
X81790000Y-56265686D01*
X81794394Y-56270080D01*
X81885606Y-56322741D01*
X81987339Y-56350000D01*
X82092661Y-56350000D01*
X82194394Y-56322741D01*
X82285606Y-56270080D01*
X82290000Y-56265686D01*
X82290000Y-56919159D01*
X82424534Y-56878349D01*
X82598260Y-56785491D01*
X82750528Y-56660528D01*
X82875492Y-56508260D01*
X82875496Y-56508253D01*
X82968347Y-56334541D01*
X83009160Y-56200000D01*
X82355686Y-56200000D01*
X82360080Y-56195606D01*
X82412741Y-56104394D01*
X82440000Y-56002661D01*
X82440000Y-55897339D01*
X82412741Y-55795606D01*
X82360080Y-55704394D01*
X82355686Y-55700000D01*
X83009160Y-55700000D01*
X83009160Y-55699999D01*
X82968347Y-55565458D01*
X82872622Y-55386368D01*
X82874143Y-55385554D01*
X82855718Y-55326718D01*
X82874200Y-55259337D01*
X82926178Y-55212645D01*
X82979698Y-55200500D01*
X83640302Y-55200500D01*
X83707341Y-55220185D01*
G37*
%TD.AperFunction*%
%TA.AperFunction,Conductor*%
G36*
X98304177Y-49370185D02*
G01*
X98338713Y-49403377D01*
X98450713Y-49563331D01*
X98606669Y-49719287D01*
X98787337Y-49845792D01*
X98787339Y-49845793D01*
X98787342Y-49845795D01*
X98807518Y-49855203D01*
X98987230Y-49939004D01*
X98987232Y-49939004D01*
X98987237Y-49939007D01*
X99200280Y-49996092D01*
X99357222Y-50009822D01*
X99419998Y-50015315D01*
X99420000Y-50015315D01*
X99420002Y-50015315D01*
X99474930Y-50010509D01*
X99639720Y-49996092D01*
X99852763Y-49939007D01*
X100052658Y-49845795D01*
X100233329Y-49719288D01*
X100282932Y-49669685D01*
X100352319Y-49600299D01*
X100413642Y-49566814D01*
X100483334Y-49571798D01*
X100527681Y-49600299D01*
X100646669Y-49719287D01*
X100827337Y-49845792D01*
X100827339Y-49845793D01*
X100827342Y-49845795D01*
X100847518Y-49855203D01*
X101027230Y-49939004D01*
X101027232Y-49939004D01*
X101027237Y-49939007D01*
X101240280Y-49996092D01*
X101397222Y-50009822D01*
X101459998Y-50015315D01*
X101460000Y-50015315D01*
X101460002Y-50015315D01*
X101514930Y-50010509D01*
X101679720Y-49996092D01*
X101730296Y-49982540D01*
X101800144Y-49984203D01*
X101858006Y-50023365D01*
X101885511Y-50087593D01*
X101873925Y-50156495D01*
X101833511Y-50203890D01*
X101666668Y-50320713D01*
X101510713Y-50476668D01*
X101384204Y-50657343D01*
X101349036Y-50732762D01*
X101302863Y-50785201D01*
X101296551Y-50786999D01*
X100882137Y-51201413D01*
X100859333Y-51116306D01*
X100800090Y-51013694D01*
X100716306Y-50929910D01*
X100613694Y-50870667D01*
X100528584Y-50847861D01*
X100918966Y-50457480D01*
X100809157Y-50398785D01*
X100628190Y-50343889D01*
X100440000Y-50325355D01*
X100251809Y-50343889D01*
X100070839Y-50398786D01*
X99961033Y-50457479D01*
X99961033Y-50457480D01*
X100351415Y-50847861D01*
X100266306Y-50870667D01*
X100163694Y-50929910D01*
X100079910Y-51013694D01*
X100020667Y-51116306D01*
X99997861Y-51201414D01*
X99607480Y-50811033D01*
X99607478Y-50811033D01*
X99593358Y-50837452D01*
X99544396Y-50887297D01*
X99476258Y-50902757D01*
X99410578Y-50878925D01*
X99368210Y-50823368D01*
X99360000Y-50778999D01*
X99360000Y-50510301D01*
X99359999Y-50510297D01*
X99348397Y-50451966D01*
X99348396Y-50451965D01*
X99304191Y-50385808D01*
X99238034Y-50341603D01*
X99238033Y-50341602D01*
X99179702Y-50330000D01*
X98650000Y-50330000D01*
X98650000Y-50914722D01*
X98573694Y-50870667D01*
X98459244Y-50840000D01*
X98340756Y-50840000D01*
X98226306Y-50870667D01*
X98150000Y-50914722D01*
X98150000Y-50330000D01*
X97620297Y-50330000D01*
X97561966Y-50341602D01*
X97561965Y-50341603D01*
X97495808Y-50385808D01*
X97451603Y-50451965D01*
X97451602Y-50451966D01*
X97440000Y-50510297D01*
X97440000Y-51040000D01*
X98024722Y-51040000D01*
X97980667Y-51116306D01*
X97950000Y-51230756D01*
X97950000Y-51349244D01*
X97980667Y-51463694D01*
X98024722Y-51540000D01*
X97440000Y-51540000D01*
X97440000Y-52069702D01*
X97451602Y-52128033D01*
X97451603Y-52128034D01*
X97495808Y-52194191D01*
X97561965Y-52238396D01*
X97561966Y-52238397D01*
X97620297Y-52249999D01*
X97620301Y-52250000D01*
X98150000Y-52250000D01*
X98150000Y-51665277D01*
X98226306Y-51709333D01*
X98340756Y-51740000D01*
X98459244Y-51740000D01*
X98573694Y-51709333D01*
X98650000Y-51665277D01*
X98650000Y-52250000D01*
X99179699Y-52250000D01*
X99179702Y-52249999D01*
X99238033Y-52238397D01*
X99238034Y-52238396D01*
X99304191Y-52194191D01*
X99348396Y-52128034D01*
X99348397Y-52128033D01*
X99359999Y-52069702D01*
X99360000Y-52069699D01*
X99360000Y-51800999D01*
X99379685Y-51733960D01*
X99432489Y-51688205D01*
X99501647Y-51678261D01*
X99565203Y-51707286D01*
X99593358Y-51742546D01*
X99607479Y-51768966D01*
X99607480Y-51768966D01*
X99997861Y-51378584D01*
X100020667Y-51463694D01*
X100079910Y-51566306D01*
X100163694Y-51650090D01*
X100266306Y-51709333D01*
X100351414Y-51732137D01*
X99961032Y-52122519D01*
X100070842Y-52181214D01*
X100251809Y-52236110D01*
X100440000Y-52254644D01*
X100628190Y-52236110D01*
X100809159Y-52181213D01*
X100918966Y-52122519D01*
X100918966Y-52122518D01*
X100528585Y-51732137D01*
X100613694Y-51709333D01*
X100716306Y-51650090D01*
X100800090Y-51566306D01*
X100859333Y-51463694D01*
X100882137Y-51378585D01*
X101305428Y-51801876D01*
X101340665Y-51832131D01*
X101349034Y-51847235D01*
X101356068Y-51862318D01*
X101384205Y-51922658D01*
X101384207Y-51922662D01*
X101510712Y-52103330D01*
X101666669Y-52259287D01*
X101847337Y-52385792D01*
X101847339Y-52385793D01*
X101847342Y-52385795D01*
X101967603Y-52441873D01*
X102047230Y-52479004D01*
X102047232Y-52479004D01*
X102047237Y-52479007D01*
X102164528Y-52510435D01*
X102224189Y-52546800D01*
X102254718Y-52609647D01*
X102249477Y-52671164D01*
X102214630Y-52770750D01*
X102206898Y-52839383D01*
X102179832Y-52903797D01*
X102122237Y-52943352D01*
X102083678Y-52949500D01*
X96848072Y-52949500D01*
X96781033Y-52929815D01*
X96735278Y-52877011D01*
X96725334Y-52807853D01*
X96731030Y-52784546D01*
X96785367Y-52629257D01*
X96785368Y-52629255D01*
X96785369Y-52629249D01*
X96805565Y-52450003D01*
X96805565Y-52449996D01*
X96785369Y-52270750D01*
X96785368Y-52270745D01*
X96763295Y-52207664D01*
X96725789Y-52100478D01*
X96720748Y-52092456D01*
X96686332Y-52037683D01*
X96629816Y-51947738D01*
X96629814Y-51947736D01*
X96629813Y-51947734D01*
X96627550Y-51944896D01*
X96626659Y-51942715D01*
X96626111Y-51941842D01*
X96626264Y-51941745D01*
X96601144Y-51880209D01*
X96600500Y-51867587D01*
X96600500Y-50302940D01*
X96620185Y-50235901D01*
X96636819Y-50215259D01*
X97465260Y-49386819D01*
X97526583Y-49353334D01*
X97552941Y-49350500D01*
X98237138Y-49350500D01*
X98304177Y-49370185D01*
G37*
%TD.AperFunction*%
%TD*%
M02*
