%TF.GenerationSoftware,KiCad,Pcbnew,8.0.1*%
%TF.CreationDate,2024-04-08T22:20:49+02:00*%
%TF.ProjectId,driver,64726976-6572-42e6-9b69-6361645f7063,rev?*%
%TF.SameCoordinates,Original*%
%TF.FileFunction,Legend,Top*%
%TF.FilePolarity,Positive*%
%FSLAX46Y46*%
G04 Gerber Fmt 4.6, Leading zero omitted, Abs format (unit mm)*
G04 Created by KiCad (PCBNEW 8.0.1) date 2024-04-08 22:20:49*
%MOMM*%
%LPD*%
G01*
G04 APERTURE LIST*
%ADD10C,0.120000*%
%ADD11C,0.300000*%
%ADD12C,0.187500*%
%ADD13C,0.110000*%
%ADD14C,0.150000*%
%ADD15C,0.000000*%
G04 APERTURE END LIST*
D10*
X135269423Y-47345855D02*
X135269423Y-46545855D01*
X135802756Y-46545855D02*
X135955137Y-46545855D01*
X135955137Y-46545855D02*
X136031327Y-46583950D01*
X136031327Y-46583950D02*
X136107518Y-46660140D01*
X136107518Y-46660140D02*
X136145613Y-46812521D01*
X136145613Y-46812521D02*
X136145613Y-47079188D01*
X136145613Y-47079188D02*
X136107518Y-47231569D01*
X136107518Y-47231569D02*
X136031327Y-47307760D01*
X136031327Y-47307760D02*
X135955137Y-47345855D01*
X135955137Y-47345855D02*
X135802756Y-47345855D01*
X135802756Y-47345855D02*
X135726565Y-47307760D01*
X135726565Y-47307760D02*
X135650375Y-47231569D01*
X135650375Y-47231569D02*
X135612279Y-47079188D01*
X135612279Y-47079188D02*
X135612279Y-46812521D01*
X135612279Y-46812521D02*
X135650375Y-46660140D01*
X135650375Y-46660140D02*
X135726565Y-46583950D01*
X135726565Y-46583950D02*
X135802756Y-46545855D01*
X136907517Y-47345855D02*
X136450374Y-47345855D01*
X136678946Y-47345855D02*
X136678946Y-46545855D01*
X136678946Y-46545855D02*
X136602755Y-46660140D01*
X136602755Y-46660140D02*
X136526565Y-46736331D01*
X136526565Y-46736331D02*
X136450374Y-46774426D01*
D11*
X136208971Y-88466917D02*
X136208971Y-88066917D01*
X136837542Y-87895489D02*
X136837542Y-88466917D01*
X136837542Y-88466917D02*
X135637542Y-88466917D01*
X135637542Y-88466917D02*
X135637542Y-87895489D01*
X136780400Y-87438346D02*
X136837542Y-87266918D01*
X136837542Y-87266918D02*
X136837542Y-86981203D01*
X136837542Y-86981203D02*
X136780400Y-86866918D01*
X136780400Y-86866918D02*
X136723257Y-86809775D01*
X136723257Y-86809775D02*
X136608971Y-86752632D01*
X136608971Y-86752632D02*
X136494685Y-86752632D01*
X136494685Y-86752632D02*
X136380400Y-86809775D01*
X136380400Y-86809775D02*
X136323257Y-86866918D01*
X136323257Y-86866918D02*
X136266114Y-86981203D01*
X136266114Y-86981203D02*
X136208971Y-87209775D01*
X136208971Y-87209775D02*
X136151828Y-87324060D01*
X136151828Y-87324060D02*
X136094685Y-87381203D01*
X136094685Y-87381203D02*
X135980400Y-87438346D01*
X135980400Y-87438346D02*
X135866114Y-87438346D01*
X135866114Y-87438346D02*
X135751828Y-87381203D01*
X135751828Y-87381203D02*
X135694685Y-87324060D01*
X135694685Y-87324060D02*
X135637542Y-87209775D01*
X135637542Y-87209775D02*
X135637542Y-86924060D01*
X135637542Y-86924060D02*
X135694685Y-86752632D01*
X136837542Y-86238346D02*
X135637542Y-86238346D01*
X135637542Y-86238346D02*
X135637542Y-85781203D01*
X135637542Y-85781203D02*
X135694685Y-85666918D01*
X135694685Y-85666918D02*
X135751828Y-85609775D01*
X135751828Y-85609775D02*
X135866114Y-85552632D01*
X135866114Y-85552632D02*
X136037542Y-85552632D01*
X136037542Y-85552632D02*
X136151828Y-85609775D01*
X136151828Y-85609775D02*
X136208971Y-85666918D01*
X136208971Y-85666918D02*
X136266114Y-85781203D01*
X136266114Y-85781203D02*
X136266114Y-86238346D01*
X136837542Y-84124060D02*
X135637542Y-84124060D01*
X135637542Y-84124060D02*
X136494685Y-83724060D01*
X136494685Y-83724060D02*
X135637542Y-83324060D01*
X135637542Y-83324060D02*
X136837542Y-83324060D01*
X136837542Y-82581203D02*
X136780400Y-82695488D01*
X136780400Y-82695488D02*
X136723257Y-82752631D01*
X136723257Y-82752631D02*
X136608971Y-82809774D01*
X136608971Y-82809774D02*
X136266114Y-82809774D01*
X136266114Y-82809774D02*
X136151828Y-82752631D01*
X136151828Y-82752631D02*
X136094685Y-82695488D01*
X136094685Y-82695488D02*
X136037542Y-82581203D01*
X136037542Y-82581203D02*
X136037542Y-82409774D01*
X136037542Y-82409774D02*
X136094685Y-82295488D01*
X136094685Y-82295488D02*
X136151828Y-82238346D01*
X136151828Y-82238346D02*
X136266114Y-82181203D01*
X136266114Y-82181203D02*
X136608971Y-82181203D01*
X136608971Y-82181203D02*
X136723257Y-82238346D01*
X136723257Y-82238346D02*
X136780400Y-82295488D01*
X136780400Y-82295488D02*
X136837542Y-82409774D01*
X136837542Y-82409774D02*
X136837542Y-82581203D01*
X136037542Y-81838346D02*
X136037542Y-81381203D01*
X135637542Y-81666917D02*
X136666114Y-81666917D01*
X136666114Y-81666917D02*
X136780400Y-81609774D01*
X136780400Y-81609774D02*
X136837542Y-81495489D01*
X136837542Y-81495489D02*
X136837542Y-81381203D01*
X136837542Y-80809775D02*
X136780400Y-80924060D01*
X136780400Y-80924060D02*
X136723257Y-80981203D01*
X136723257Y-80981203D02*
X136608971Y-81038346D01*
X136608971Y-81038346D02*
X136266114Y-81038346D01*
X136266114Y-81038346D02*
X136151828Y-80981203D01*
X136151828Y-80981203D02*
X136094685Y-80924060D01*
X136094685Y-80924060D02*
X136037542Y-80809775D01*
X136037542Y-80809775D02*
X136037542Y-80638346D01*
X136037542Y-80638346D02*
X136094685Y-80524060D01*
X136094685Y-80524060D02*
X136151828Y-80466918D01*
X136151828Y-80466918D02*
X136266114Y-80409775D01*
X136266114Y-80409775D02*
X136608971Y-80409775D01*
X136608971Y-80409775D02*
X136723257Y-80466918D01*
X136723257Y-80466918D02*
X136780400Y-80524060D01*
X136780400Y-80524060D02*
X136837542Y-80638346D01*
X136837542Y-80638346D02*
X136837542Y-80809775D01*
X136837542Y-79895489D02*
X136037542Y-79895489D01*
X136266114Y-79895489D02*
X136151828Y-79838346D01*
X136151828Y-79838346D02*
X136094685Y-79781204D01*
X136094685Y-79781204D02*
X136037542Y-79666918D01*
X136037542Y-79666918D02*
X136037542Y-79552632D01*
X136837542Y-78238346D02*
X135637542Y-78238346D01*
X135637542Y-78238346D02*
X135637542Y-77952632D01*
X135637542Y-77952632D02*
X135694685Y-77781203D01*
X135694685Y-77781203D02*
X135808971Y-77666918D01*
X135808971Y-77666918D02*
X135923257Y-77609775D01*
X135923257Y-77609775D02*
X136151828Y-77552632D01*
X136151828Y-77552632D02*
X136323257Y-77552632D01*
X136323257Y-77552632D02*
X136551828Y-77609775D01*
X136551828Y-77609775D02*
X136666114Y-77666918D01*
X136666114Y-77666918D02*
X136780400Y-77781203D01*
X136780400Y-77781203D02*
X136837542Y-77952632D01*
X136837542Y-77952632D02*
X136837542Y-78238346D01*
X136837542Y-77038346D02*
X136037542Y-77038346D01*
X136266114Y-77038346D02*
X136151828Y-76981203D01*
X136151828Y-76981203D02*
X136094685Y-76924061D01*
X136094685Y-76924061D02*
X136037542Y-76809775D01*
X136037542Y-76809775D02*
X136037542Y-76695489D01*
X136837542Y-76295489D02*
X136037542Y-76295489D01*
X135637542Y-76295489D02*
X135694685Y-76352632D01*
X135694685Y-76352632D02*
X135751828Y-76295489D01*
X135751828Y-76295489D02*
X135694685Y-76238346D01*
X135694685Y-76238346D02*
X135637542Y-76295489D01*
X135637542Y-76295489D02*
X135751828Y-76295489D01*
X136037542Y-75838346D02*
X136837542Y-75552632D01*
X136837542Y-75552632D02*
X136037542Y-75266917D01*
X136780400Y-74352631D02*
X136837542Y-74466917D01*
X136837542Y-74466917D02*
X136837542Y-74695489D01*
X136837542Y-74695489D02*
X136780400Y-74809774D01*
X136780400Y-74809774D02*
X136666114Y-74866917D01*
X136666114Y-74866917D02*
X136208971Y-74866917D01*
X136208971Y-74866917D02*
X136094685Y-74809774D01*
X136094685Y-74809774D02*
X136037542Y-74695489D01*
X136037542Y-74695489D02*
X136037542Y-74466917D01*
X136037542Y-74466917D02*
X136094685Y-74352631D01*
X136094685Y-74352631D02*
X136208971Y-74295489D01*
X136208971Y-74295489D02*
X136323257Y-74295489D01*
X136323257Y-74295489D02*
X136437542Y-74866917D01*
X136837542Y-73781203D02*
X136037542Y-73781203D01*
X136266114Y-73781203D02*
X136151828Y-73724060D01*
X136151828Y-73724060D02*
X136094685Y-73666918D01*
X136094685Y-73666918D02*
X136037542Y-73552632D01*
X136037542Y-73552632D02*
X136037542Y-73438346D01*
X135637542Y-72295489D02*
X136837542Y-71895489D01*
X136837542Y-71895489D02*
X135637542Y-71495489D01*
X135637542Y-70866918D02*
X135637542Y-70752632D01*
X135637542Y-70752632D02*
X135694685Y-70638346D01*
X135694685Y-70638346D02*
X135751828Y-70581204D01*
X135751828Y-70581204D02*
X135866114Y-70524061D01*
X135866114Y-70524061D02*
X136094685Y-70466918D01*
X136094685Y-70466918D02*
X136380400Y-70466918D01*
X136380400Y-70466918D02*
X136608971Y-70524061D01*
X136608971Y-70524061D02*
X136723257Y-70581204D01*
X136723257Y-70581204D02*
X136780400Y-70638346D01*
X136780400Y-70638346D02*
X136837542Y-70752632D01*
X136837542Y-70752632D02*
X136837542Y-70866918D01*
X136837542Y-70866918D02*
X136780400Y-70981204D01*
X136780400Y-70981204D02*
X136723257Y-71038346D01*
X136723257Y-71038346D02*
X136608971Y-71095489D01*
X136608971Y-71095489D02*
X136380400Y-71152632D01*
X136380400Y-71152632D02*
X136094685Y-71152632D01*
X136094685Y-71152632D02*
X135866114Y-71095489D01*
X135866114Y-71095489D02*
X135751828Y-71038346D01*
X135751828Y-71038346D02*
X135694685Y-70981204D01*
X135694685Y-70981204D02*
X135637542Y-70866918D01*
X136723257Y-69952632D02*
X136780400Y-69895489D01*
X136780400Y-69895489D02*
X136837542Y-69952632D01*
X136837542Y-69952632D02*
X136780400Y-70009775D01*
X136780400Y-70009775D02*
X136723257Y-69952632D01*
X136723257Y-69952632D02*
X136837542Y-69952632D01*
X136837542Y-68752632D02*
X136837542Y-69438346D01*
X136837542Y-69095489D02*
X135637542Y-69095489D01*
X135637542Y-69095489D02*
X135808971Y-69209775D01*
X135808971Y-69209775D02*
X135923257Y-69324060D01*
X135923257Y-69324060D02*
X135980400Y-69438346D01*
D10*
X135269423Y-62345855D02*
X135269423Y-61545855D01*
X135802756Y-61545855D02*
X135955137Y-61545855D01*
X135955137Y-61545855D02*
X136031327Y-61583950D01*
X136031327Y-61583950D02*
X136107518Y-61660140D01*
X136107518Y-61660140D02*
X136145613Y-61812521D01*
X136145613Y-61812521D02*
X136145613Y-62079188D01*
X136145613Y-62079188D02*
X136107518Y-62231569D01*
X136107518Y-62231569D02*
X136031327Y-62307760D01*
X136031327Y-62307760D02*
X135955137Y-62345855D01*
X135955137Y-62345855D02*
X135802756Y-62345855D01*
X135802756Y-62345855D02*
X135726565Y-62307760D01*
X135726565Y-62307760D02*
X135650375Y-62231569D01*
X135650375Y-62231569D02*
X135612279Y-62079188D01*
X135612279Y-62079188D02*
X135612279Y-61812521D01*
X135612279Y-61812521D02*
X135650375Y-61660140D01*
X135650375Y-61660140D02*
X135726565Y-61583950D01*
X135726565Y-61583950D02*
X135802756Y-61545855D01*
X136907517Y-62345855D02*
X136450374Y-62345855D01*
X136678946Y-62345855D02*
X136678946Y-61545855D01*
X136678946Y-61545855D02*
X136602755Y-61660140D01*
X136602755Y-61660140D02*
X136526565Y-61736331D01*
X136526565Y-61736331D02*
X136450374Y-61774426D01*
X137631327Y-61545855D02*
X137250375Y-61545855D01*
X137250375Y-61545855D02*
X137212279Y-61926807D01*
X137212279Y-61926807D02*
X137250375Y-61888712D01*
X137250375Y-61888712D02*
X137326565Y-61850617D01*
X137326565Y-61850617D02*
X137517041Y-61850617D01*
X137517041Y-61850617D02*
X137593232Y-61888712D01*
X137593232Y-61888712D02*
X137631327Y-61926807D01*
X137631327Y-61926807D02*
X137669422Y-62002998D01*
X137669422Y-62002998D02*
X137669422Y-62193474D01*
X137669422Y-62193474D02*
X137631327Y-62269664D01*
X137631327Y-62269664D02*
X137593232Y-62307760D01*
X137593232Y-62307760D02*
X137517041Y-62345855D01*
X137517041Y-62345855D02*
X137326565Y-62345855D01*
X137326565Y-62345855D02*
X137250375Y-62307760D01*
X137250375Y-62307760D02*
X137212279Y-62269664D01*
X135269423Y-57345855D02*
X135269423Y-56545855D01*
X135802756Y-56545855D02*
X135955137Y-56545855D01*
X135955137Y-56545855D02*
X136031327Y-56583950D01*
X136031327Y-56583950D02*
X136107518Y-56660140D01*
X136107518Y-56660140D02*
X136145613Y-56812521D01*
X136145613Y-56812521D02*
X136145613Y-57079188D01*
X136145613Y-57079188D02*
X136107518Y-57231569D01*
X136107518Y-57231569D02*
X136031327Y-57307760D01*
X136031327Y-57307760D02*
X135955137Y-57345855D01*
X135955137Y-57345855D02*
X135802756Y-57345855D01*
X135802756Y-57345855D02*
X135726565Y-57307760D01*
X135726565Y-57307760D02*
X135650375Y-57231569D01*
X135650375Y-57231569D02*
X135612279Y-57079188D01*
X135612279Y-57079188D02*
X135612279Y-56812521D01*
X135612279Y-56812521D02*
X135650375Y-56660140D01*
X135650375Y-56660140D02*
X135726565Y-56583950D01*
X135726565Y-56583950D02*
X135802756Y-56545855D01*
X136640851Y-56545855D02*
X136717041Y-56545855D01*
X136717041Y-56545855D02*
X136793232Y-56583950D01*
X136793232Y-56583950D02*
X136831327Y-56622045D01*
X136831327Y-56622045D02*
X136869422Y-56698236D01*
X136869422Y-56698236D02*
X136907517Y-56850617D01*
X136907517Y-56850617D02*
X136907517Y-57041093D01*
X136907517Y-57041093D02*
X136869422Y-57193474D01*
X136869422Y-57193474D02*
X136831327Y-57269664D01*
X136831327Y-57269664D02*
X136793232Y-57307760D01*
X136793232Y-57307760D02*
X136717041Y-57345855D01*
X136717041Y-57345855D02*
X136640851Y-57345855D01*
X136640851Y-57345855D02*
X136564660Y-57307760D01*
X136564660Y-57307760D02*
X136526565Y-57269664D01*
X136526565Y-57269664D02*
X136488470Y-57193474D01*
X136488470Y-57193474D02*
X136450374Y-57041093D01*
X136450374Y-57041093D02*
X136450374Y-56850617D01*
X136450374Y-56850617D02*
X136488470Y-56698236D01*
X136488470Y-56698236D02*
X136526565Y-56622045D01*
X136526565Y-56622045D02*
X136564660Y-56583950D01*
X136564660Y-56583950D02*
X136640851Y-56545855D01*
X123895855Y-74180576D02*
X123095855Y-74180576D01*
X123095855Y-73647243D02*
X123095855Y-73494862D01*
X123095855Y-73494862D02*
X123133950Y-73418672D01*
X123133950Y-73418672D02*
X123210140Y-73342481D01*
X123210140Y-73342481D02*
X123362521Y-73304386D01*
X123362521Y-73304386D02*
X123629188Y-73304386D01*
X123629188Y-73304386D02*
X123781569Y-73342481D01*
X123781569Y-73342481D02*
X123857760Y-73418672D01*
X123857760Y-73418672D02*
X123895855Y-73494862D01*
X123895855Y-73494862D02*
X123895855Y-73647243D01*
X123895855Y-73647243D02*
X123857760Y-73723434D01*
X123857760Y-73723434D02*
X123781569Y-73799624D01*
X123781569Y-73799624D02*
X123629188Y-73837720D01*
X123629188Y-73837720D02*
X123362521Y-73837720D01*
X123362521Y-73837720D02*
X123210140Y-73799624D01*
X123210140Y-73799624D02*
X123133950Y-73723434D01*
X123133950Y-73723434D02*
X123095855Y-73647243D01*
X123895855Y-72542482D02*
X123895855Y-72999625D01*
X123895855Y-72771053D02*
X123095855Y-72771053D01*
X123095855Y-72771053D02*
X123210140Y-72847244D01*
X123210140Y-72847244D02*
X123286331Y-72923434D01*
X123286331Y-72923434D02*
X123324426Y-72999625D01*
X123095855Y-72047243D02*
X123095855Y-71971053D01*
X123095855Y-71971053D02*
X123133950Y-71894862D01*
X123133950Y-71894862D02*
X123172045Y-71856767D01*
X123172045Y-71856767D02*
X123248236Y-71818672D01*
X123248236Y-71818672D02*
X123400617Y-71780577D01*
X123400617Y-71780577D02*
X123591093Y-71780577D01*
X123591093Y-71780577D02*
X123743474Y-71818672D01*
X123743474Y-71818672D02*
X123819664Y-71856767D01*
X123819664Y-71856767D02*
X123857760Y-71894862D01*
X123857760Y-71894862D02*
X123895855Y-71971053D01*
X123895855Y-71971053D02*
X123895855Y-72047243D01*
X123895855Y-72047243D02*
X123857760Y-72123434D01*
X123857760Y-72123434D02*
X123819664Y-72161529D01*
X123819664Y-72161529D02*
X123743474Y-72199624D01*
X123743474Y-72199624D02*
X123591093Y-72237720D01*
X123591093Y-72237720D02*
X123400617Y-72237720D01*
X123400617Y-72237720D02*
X123248236Y-72199624D01*
X123248236Y-72199624D02*
X123172045Y-72161529D01*
X123172045Y-72161529D02*
X123133950Y-72123434D01*
X123133950Y-72123434D02*
X123095855Y-72047243D01*
X107688470Y-59845855D02*
X107231327Y-59845855D01*
X107459899Y-59845855D02*
X107459899Y-59045855D01*
X107459899Y-59045855D02*
X107383708Y-59160140D01*
X107383708Y-59160140D02*
X107307518Y-59236331D01*
X107307518Y-59236331D02*
X107231327Y-59274426D01*
X107993232Y-59122045D02*
X108031328Y-59083950D01*
X108031328Y-59083950D02*
X108107518Y-59045855D01*
X108107518Y-59045855D02*
X108297994Y-59045855D01*
X108297994Y-59045855D02*
X108374185Y-59083950D01*
X108374185Y-59083950D02*
X108412280Y-59122045D01*
X108412280Y-59122045D02*
X108450375Y-59198236D01*
X108450375Y-59198236D02*
X108450375Y-59274426D01*
X108450375Y-59274426D02*
X108412280Y-59388712D01*
X108412280Y-59388712D02*
X107955137Y-59845855D01*
X107955137Y-59845855D02*
X108450375Y-59845855D01*
X135269423Y-54845855D02*
X135269423Y-54045855D01*
X135802756Y-54045855D02*
X135955137Y-54045855D01*
X135955137Y-54045855D02*
X136031327Y-54083950D01*
X136031327Y-54083950D02*
X136107518Y-54160140D01*
X136107518Y-54160140D02*
X136145613Y-54312521D01*
X136145613Y-54312521D02*
X136145613Y-54579188D01*
X136145613Y-54579188D02*
X136107518Y-54731569D01*
X136107518Y-54731569D02*
X136031327Y-54807760D01*
X136031327Y-54807760D02*
X135955137Y-54845855D01*
X135955137Y-54845855D02*
X135802756Y-54845855D01*
X135802756Y-54845855D02*
X135726565Y-54807760D01*
X135726565Y-54807760D02*
X135650375Y-54731569D01*
X135650375Y-54731569D02*
X135612279Y-54579188D01*
X135612279Y-54579188D02*
X135612279Y-54312521D01*
X135612279Y-54312521D02*
X135650375Y-54160140D01*
X135650375Y-54160140D02*
X135726565Y-54083950D01*
X135726565Y-54083950D02*
X135802756Y-54045855D01*
X136831327Y-54312521D02*
X136831327Y-54845855D01*
X136640851Y-54007760D02*
X136450374Y-54579188D01*
X136450374Y-54579188D02*
X136945613Y-54579188D01*
X107688470Y-57345855D02*
X107231327Y-57345855D01*
X107459899Y-57345855D02*
X107459899Y-56545855D01*
X107459899Y-56545855D02*
X107383708Y-56660140D01*
X107383708Y-56660140D02*
X107307518Y-56736331D01*
X107307518Y-56736331D02*
X107231327Y-56774426D01*
X108374185Y-56812521D02*
X108374185Y-57345855D01*
X108183709Y-56507760D02*
X107993232Y-57079188D01*
X107993232Y-57079188D02*
X108488471Y-57079188D01*
X110226566Y-44845855D02*
X109959899Y-44464902D01*
X109769423Y-44845855D02*
X109769423Y-44045855D01*
X109769423Y-44045855D02*
X110074185Y-44045855D01*
X110074185Y-44045855D02*
X110150375Y-44083950D01*
X110150375Y-44083950D02*
X110188470Y-44122045D01*
X110188470Y-44122045D02*
X110226566Y-44198236D01*
X110226566Y-44198236D02*
X110226566Y-44312521D01*
X110226566Y-44312521D02*
X110188470Y-44388712D01*
X110188470Y-44388712D02*
X110150375Y-44426807D01*
X110150375Y-44426807D02*
X110074185Y-44464902D01*
X110074185Y-44464902D02*
X109769423Y-44464902D01*
X110531327Y-44807760D02*
X110645613Y-44845855D01*
X110645613Y-44845855D02*
X110836089Y-44845855D01*
X110836089Y-44845855D02*
X110912280Y-44807760D01*
X110912280Y-44807760D02*
X110950375Y-44769664D01*
X110950375Y-44769664D02*
X110988470Y-44693474D01*
X110988470Y-44693474D02*
X110988470Y-44617283D01*
X110988470Y-44617283D02*
X110950375Y-44541093D01*
X110950375Y-44541093D02*
X110912280Y-44502998D01*
X110912280Y-44502998D02*
X110836089Y-44464902D01*
X110836089Y-44464902D02*
X110683708Y-44426807D01*
X110683708Y-44426807D02*
X110607518Y-44388712D01*
X110607518Y-44388712D02*
X110569423Y-44350617D01*
X110569423Y-44350617D02*
X110531327Y-44274426D01*
X110531327Y-44274426D02*
X110531327Y-44198236D01*
X110531327Y-44198236D02*
X110569423Y-44122045D01*
X110569423Y-44122045D02*
X110607518Y-44083950D01*
X110607518Y-44083950D02*
X110683708Y-44045855D01*
X110683708Y-44045855D02*
X110874185Y-44045855D01*
X110874185Y-44045855D02*
X110988470Y-44083950D01*
X111217042Y-44045855D02*
X111674185Y-44045855D01*
X111445613Y-44845855D02*
X111445613Y-44045855D01*
X126395855Y-73680576D02*
X125595855Y-73680576D01*
X125595855Y-73147243D02*
X125595855Y-72994862D01*
X125595855Y-72994862D02*
X125633950Y-72918672D01*
X125633950Y-72918672D02*
X125710140Y-72842481D01*
X125710140Y-72842481D02*
X125862521Y-72804386D01*
X125862521Y-72804386D02*
X126129188Y-72804386D01*
X126129188Y-72804386D02*
X126281569Y-72842481D01*
X126281569Y-72842481D02*
X126357760Y-72918672D01*
X126357760Y-72918672D02*
X126395855Y-72994862D01*
X126395855Y-72994862D02*
X126395855Y-73147243D01*
X126395855Y-73147243D02*
X126357760Y-73223434D01*
X126357760Y-73223434D02*
X126281569Y-73299624D01*
X126281569Y-73299624D02*
X126129188Y-73337720D01*
X126129188Y-73337720D02*
X125862521Y-73337720D01*
X125862521Y-73337720D02*
X125710140Y-73299624D01*
X125710140Y-73299624D02*
X125633950Y-73223434D01*
X125633950Y-73223434D02*
X125595855Y-73147243D01*
X125938712Y-72347244D02*
X125900617Y-72423434D01*
X125900617Y-72423434D02*
X125862521Y-72461529D01*
X125862521Y-72461529D02*
X125786331Y-72499625D01*
X125786331Y-72499625D02*
X125748236Y-72499625D01*
X125748236Y-72499625D02*
X125672045Y-72461529D01*
X125672045Y-72461529D02*
X125633950Y-72423434D01*
X125633950Y-72423434D02*
X125595855Y-72347244D01*
X125595855Y-72347244D02*
X125595855Y-72194863D01*
X125595855Y-72194863D02*
X125633950Y-72118672D01*
X125633950Y-72118672D02*
X125672045Y-72080577D01*
X125672045Y-72080577D02*
X125748236Y-72042482D01*
X125748236Y-72042482D02*
X125786331Y-72042482D01*
X125786331Y-72042482D02*
X125862521Y-72080577D01*
X125862521Y-72080577D02*
X125900617Y-72118672D01*
X125900617Y-72118672D02*
X125938712Y-72194863D01*
X125938712Y-72194863D02*
X125938712Y-72347244D01*
X125938712Y-72347244D02*
X125976807Y-72423434D01*
X125976807Y-72423434D02*
X126014902Y-72461529D01*
X126014902Y-72461529D02*
X126091093Y-72499625D01*
X126091093Y-72499625D02*
X126243474Y-72499625D01*
X126243474Y-72499625D02*
X126319664Y-72461529D01*
X126319664Y-72461529D02*
X126357760Y-72423434D01*
X126357760Y-72423434D02*
X126395855Y-72347244D01*
X126395855Y-72347244D02*
X126395855Y-72194863D01*
X126395855Y-72194863D02*
X126357760Y-72118672D01*
X126357760Y-72118672D02*
X126319664Y-72080577D01*
X126319664Y-72080577D02*
X126243474Y-72042482D01*
X126243474Y-72042482D02*
X126091093Y-72042482D01*
X126091093Y-72042482D02*
X126014902Y-72080577D01*
X126014902Y-72080577D02*
X125976807Y-72118672D01*
X125976807Y-72118672D02*
X125938712Y-72194863D01*
X135269423Y-59845855D02*
X135269423Y-59045855D01*
X135802756Y-59045855D02*
X135955137Y-59045855D01*
X135955137Y-59045855D02*
X136031327Y-59083950D01*
X136031327Y-59083950D02*
X136107518Y-59160140D01*
X136107518Y-59160140D02*
X136145613Y-59312521D01*
X136145613Y-59312521D02*
X136145613Y-59579188D01*
X136145613Y-59579188D02*
X136107518Y-59731569D01*
X136107518Y-59731569D02*
X136031327Y-59807760D01*
X136031327Y-59807760D02*
X135955137Y-59845855D01*
X135955137Y-59845855D02*
X135802756Y-59845855D01*
X135802756Y-59845855D02*
X135726565Y-59807760D01*
X135726565Y-59807760D02*
X135650375Y-59731569D01*
X135650375Y-59731569D02*
X135612279Y-59579188D01*
X135612279Y-59579188D02*
X135612279Y-59312521D01*
X135612279Y-59312521D02*
X135650375Y-59160140D01*
X135650375Y-59160140D02*
X135726565Y-59083950D01*
X135726565Y-59083950D02*
X135802756Y-59045855D01*
X136450374Y-59122045D02*
X136488470Y-59083950D01*
X136488470Y-59083950D02*
X136564660Y-59045855D01*
X136564660Y-59045855D02*
X136755136Y-59045855D01*
X136755136Y-59045855D02*
X136831327Y-59083950D01*
X136831327Y-59083950D02*
X136869422Y-59122045D01*
X136869422Y-59122045D02*
X136907517Y-59198236D01*
X136907517Y-59198236D02*
X136907517Y-59274426D01*
X136907517Y-59274426D02*
X136869422Y-59388712D01*
X136869422Y-59388712D02*
X136412279Y-59845855D01*
X136412279Y-59845855D02*
X136907517Y-59845855D01*
X135688470Y-64583950D02*
X135612280Y-64545855D01*
X135612280Y-64545855D02*
X135497994Y-64545855D01*
X135497994Y-64545855D02*
X135383708Y-64583950D01*
X135383708Y-64583950D02*
X135307518Y-64660140D01*
X135307518Y-64660140D02*
X135269423Y-64736331D01*
X135269423Y-64736331D02*
X135231327Y-64888712D01*
X135231327Y-64888712D02*
X135231327Y-65002998D01*
X135231327Y-65002998D02*
X135269423Y-65155379D01*
X135269423Y-65155379D02*
X135307518Y-65231569D01*
X135307518Y-65231569D02*
X135383708Y-65307760D01*
X135383708Y-65307760D02*
X135497994Y-65345855D01*
X135497994Y-65345855D02*
X135574185Y-65345855D01*
X135574185Y-65345855D02*
X135688470Y-65307760D01*
X135688470Y-65307760D02*
X135726566Y-65269664D01*
X135726566Y-65269664D02*
X135726566Y-65002998D01*
X135726566Y-65002998D02*
X135574185Y-65002998D01*
X136069423Y-65345855D02*
X136069423Y-64545855D01*
X136069423Y-64545855D02*
X136526566Y-65345855D01*
X136526566Y-65345855D02*
X136526566Y-64545855D01*
X136907518Y-65345855D02*
X136907518Y-64545855D01*
X136907518Y-64545855D02*
X137097994Y-64545855D01*
X137097994Y-64545855D02*
X137212280Y-64583950D01*
X137212280Y-64583950D02*
X137288470Y-64660140D01*
X137288470Y-64660140D02*
X137326565Y-64736331D01*
X137326565Y-64736331D02*
X137364661Y-64888712D01*
X137364661Y-64888712D02*
X137364661Y-65002998D01*
X137364661Y-65002998D02*
X137326565Y-65155379D01*
X137326565Y-65155379D02*
X137288470Y-65231569D01*
X137288470Y-65231569D02*
X137212280Y-65307760D01*
X137212280Y-65307760D02*
X137097994Y-65345855D01*
X137097994Y-65345855D02*
X136907518Y-65345855D01*
X128895855Y-73680576D02*
X128095855Y-73680576D01*
X128095855Y-73147243D02*
X128095855Y-72994862D01*
X128095855Y-72994862D02*
X128133950Y-72918672D01*
X128133950Y-72918672D02*
X128210140Y-72842481D01*
X128210140Y-72842481D02*
X128362521Y-72804386D01*
X128362521Y-72804386D02*
X128629188Y-72804386D01*
X128629188Y-72804386D02*
X128781569Y-72842481D01*
X128781569Y-72842481D02*
X128857760Y-72918672D01*
X128857760Y-72918672D02*
X128895855Y-72994862D01*
X128895855Y-72994862D02*
X128895855Y-73147243D01*
X128895855Y-73147243D02*
X128857760Y-73223434D01*
X128857760Y-73223434D02*
X128781569Y-73299624D01*
X128781569Y-73299624D02*
X128629188Y-73337720D01*
X128629188Y-73337720D02*
X128362521Y-73337720D01*
X128362521Y-73337720D02*
X128210140Y-73299624D01*
X128210140Y-73299624D02*
X128133950Y-73223434D01*
X128133950Y-73223434D02*
X128095855Y-73147243D01*
X128095855Y-72118672D02*
X128095855Y-72271053D01*
X128095855Y-72271053D02*
X128133950Y-72347244D01*
X128133950Y-72347244D02*
X128172045Y-72385339D01*
X128172045Y-72385339D02*
X128286331Y-72461529D01*
X128286331Y-72461529D02*
X128438712Y-72499625D01*
X128438712Y-72499625D02*
X128743474Y-72499625D01*
X128743474Y-72499625D02*
X128819664Y-72461529D01*
X128819664Y-72461529D02*
X128857760Y-72423434D01*
X128857760Y-72423434D02*
X128895855Y-72347244D01*
X128895855Y-72347244D02*
X128895855Y-72194863D01*
X128895855Y-72194863D02*
X128857760Y-72118672D01*
X128857760Y-72118672D02*
X128819664Y-72080577D01*
X128819664Y-72080577D02*
X128743474Y-72042482D01*
X128743474Y-72042482D02*
X128552998Y-72042482D01*
X128552998Y-72042482D02*
X128476807Y-72080577D01*
X128476807Y-72080577D02*
X128438712Y-72118672D01*
X128438712Y-72118672D02*
X128400617Y-72194863D01*
X128400617Y-72194863D02*
X128400617Y-72347244D01*
X128400617Y-72347244D02*
X128438712Y-72423434D01*
X128438712Y-72423434D02*
X128476807Y-72461529D01*
X128476807Y-72461529D02*
X128552998Y-72499625D01*
X115895855Y-74180576D02*
X115095855Y-74180576D01*
X115095855Y-73647243D02*
X115095855Y-73494862D01*
X115095855Y-73494862D02*
X115133950Y-73418672D01*
X115133950Y-73418672D02*
X115210140Y-73342481D01*
X115210140Y-73342481D02*
X115362521Y-73304386D01*
X115362521Y-73304386D02*
X115629188Y-73304386D01*
X115629188Y-73304386D02*
X115781569Y-73342481D01*
X115781569Y-73342481D02*
X115857760Y-73418672D01*
X115857760Y-73418672D02*
X115895855Y-73494862D01*
X115895855Y-73494862D02*
X115895855Y-73647243D01*
X115895855Y-73647243D02*
X115857760Y-73723434D01*
X115857760Y-73723434D02*
X115781569Y-73799624D01*
X115781569Y-73799624D02*
X115629188Y-73837720D01*
X115629188Y-73837720D02*
X115362521Y-73837720D01*
X115362521Y-73837720D02*
X115210140Y-73799624D01*
X115210140Y-73799624D02*
X115133950Y-73723434D01*
X115133950Y-73723434D02*
X115095855Y-73647243D01*
X115895855Y-72542482D02*
X115895855Y-72999625D01*
X115895855Y-72771053D02*
X115095855Y-72771053D01*
X115095855Y-72771053D02*
X115210140Y-72847244D01*
X115210140Y-72847244D02*
X115286331Y-72923434D01*
X115286331Y-72923434D02*
X115324426Y-72999625D01*
X115895855Y-71780577D02*
X115895855Y-72237720D01*
X115895855Y-72009148D02*
X115095855Y-72009148D01*
X115095855Y-72009148D02*
X115210140Y-72085339D01*
X115210140Y-72085339D02*
X115286331Y-72161529D01*
X115286331Y-72161529D02*
X115324426Y-72237720D01*
X106269423Y-54845855D02*
X106269423Y-54045855D01*
X106802756Y-54045855D02*
X106955137Y-54045855D01*
X106955137Y-54045855D02*
X107031327Y-54083950D01*
X107031327Y-54083950D02*
X107107518Y-54160140D01*
X107107518Y-54160140D02*
X107145613Y-54312521D01*
X107145613Y-54312521D02*
X107145613Y-54579188D01*
X107145613Y-54579188D02*
X107107518Y-54731569D01*
X107107518Y-54731569D02*
X107031327Y-54807760D01*
X107031327Y-54807760D02*
X106955137Y-54845855D01*
X106955137Y-54845855D02*
X106802756Y-54845855D01*
X106802756Y-54845855D02*
X106726565Y-54807760D01*
X106726565Y-54807760D02*
X106650375Y-54731569D01*
X106650375Y-54731569D02*
X106612279Y-54579188D01*
X106612279Y-54579188D02*
X106612279Y-54312521D01*
X106612279Y-54312521D02*
X106650375Y-54160140D01*
X106650375Y-54160140D02*
X106726565Y-54083950D01*
X106726565Y-54083950D02*
X106802756Y-54045855D01*
X107907517Y-54845855D02*
X107450374Y-54845855D01*
X107678946Y-54845855D02*
X107678946Y-54045855D01*
X107678946Y-54045855D02*
X107602755Y-54160140D01*
X107602755Y-54160140D02*
X107526565Y-54236331D01*
X107526565Y-54236331D02*
X107450374Y-54274426D01*
X108593232Y-54045855D02*
X108440851Y-54045855D01*
X108440851Y-54045855D02*
X108364660Y-54083950D01*
X108364660Y-54083950D02*
X108326565Y-54122045D01*
X108326565Y-54122045D02*
X108250375Y-54236331D01*
X108250375Y-54236331D02*
X108212279Y-54388712D01*
X108212279Y-54388712D02*
X108212279Y-54693474D01*
X108212279Y-54693474D02*
X108250375Y-54769664D01*
X108250375Y-54769664D02*
X108288470Y-54807760D01*
X108288470Y-54807760D02*
X108364660Y-54845855D01*
X108364660Y-54845855D02*
X108517041Y-54845855D01*
X108517041Y-54845855D02*
X108593232Y-54807760D01*
X108593232Y-54807760D02*
X108631327Y-54769664D01*
X108631327Y-54769664D02*
X108669422Y-54693474D01*
X108669422Y-54693474D02*
X108669422Y-54502998D01*
X108669422Y-54502998D02*
X108631327Y-54426807D01*
X108631327Y-54426807D02*
X108593232Y-54388712D01*
X108593232Y-54388712D02*
X108517041Y-54350617D01*
X108517041Y-54350617D02*
X108364660Y-54350617D01*
X108364660Y-54350617D02*
X108288470Y-54388712D01*
X108288470Y-54388712D02*
X108250375Y-54426807D01*
X108250375Y-54426807D02*
X108212279Y-54502998D01*
X107688470Y-62345855D02*
X107231327Y-62345855D01*
X107459899Y-62345855D02*
X107459899Y-61545855D01*
X107459899Y-61545855D02*
X107383708Y-61660140D01*
X107383708Y-61660140D02*
X107307518Y-61736331D01*
X107307518Y-61736331D02*
X107231327Y-61774426D01*
X107955137Y-61545855D02*
X108450375Y-61545855D01*
X108450375Y-61545855D02*
X108183709Y-61850617D01*
X108183709Y-61850617D02*
X108297994Y-61850617D01*
X108297994Y-61850617D02*
X108374185Y-61888712D01*
X108374185Y-61888712D02*
X108412280Y-61926807D01*
X108412280Y-61926807D02*
X108450375Y-62002998D01*
X108450375Y-62002998D02*
X108450375Y-62193474D01*
X108450375Y-62193474D02*
X108412280Y-62269664D01*
X108412280Y-62269664D02*
X108374185Y-62307760D01*
X108374185Y-62307760D02*
X108297994Y-62345855D01*
X108297994Y-62345855D02*
X108069423Y-62345855D01*
X108069423Y-62345855D02*
X107993232Y-62307760D01*
X107993232Y-62307760D02*
X107955137Y-62269664D01*
X135269423Y-49845855D02*
X135269423Y-49045855D01*
X135802756Y-49045855D02*
X135955137Y-49045855D01*
X135955137Y-49045855D02*
X136031327Y-49083950D01*
X136031327Y-49083950D02*
X136107518Y-49160140D01*
X136107518Y-49160140D02*
X136145613Y-49312521D01*
X136145613Y-49312521D02*
X136145613Y-49579188D01*
X136145613Y-49579188D02*
X136107518Y-49731569D01*
X136107518Y-49731569D02*
X136031327Y-49807760D01*
X136031327Y-49807760D02*
X135955137Y-49845855D01*
X135955137Y-49845855D02*
X135802756Y-49845855D01*
X135802756Y-49845855D02*
X135726565Y-49807760D01*
X135726565Y-49807760D02*
X135650375Y-49731569D01*
X135650375Y-49731569D02*
X135612279Y-49579188D01*
X135612279Y-49579188D02*
X135612279Y-49312521D01*
X135612279Y-49312521D02*
X135650375Y-49160140D01*
X135650375Y-49160140D02*
X135726565Y-49083950D01*
X135726565Y-49083950D02*
X135802756Y-49045855D01*
X136412279Y-49045855D02*
X136907517Y-49045855D01*
X136907517Y-49045855D02*
X136640851Y-49350617D01*
X136640851Y-49350617D02*
X136755136Y-49350617D01*
X136755136Y-49350617D02*
X136831327Y-49388712D01*
X136831327Y-49388712D02*
X136869422Y-49426807D01*
X136869422Y-49426807D02*
X136907517Y-49502998D01*
X136907517Y-49502998D02*
X136907517Y-49693474D01*
X136907517Y-49693474D02*
X136869422Y-49769664D01*
X136869422Y-49769664D02*
X136831327Y-49807760D01*
X136831327Y-49807760D02*
X136755136Y-49845855D01*
X136755136Y-49845855D02*
X136526565Y-49845855D01*
X136526565Y-49845855D02*
X136450374Y-49807760D01*
X136450374Y-49807760D02*
X136412279Y-49769664D01*
D12*
X108019502Y-89185250D02*
X106876645Y-89185250D01*
X107448073Y-89756678D02*
X107448073Y-88613821D01*
D13*
X109648558Y-66546375D02*
X109915225Y-67346375D01*
X109915225Y-67346375D02*
X110181891Y-66546375D01*
X110905701Y-67270184D02*
X110867605Y-67308280D01*
X110867605Y-67308280D02*
X110753320Y-67346375D01*
X110753320Y-67346375D02*
X110677129Y-67346375D01*
X110677129Y-67346375D02*
X110562843Y-67308280D01*
X110562843Y-67308280D02*
X110486653Y-67232089D01*
X110486653Y-67232089D02*
X110448558Y-67155899D01*
X110448558Y-67155899D02*
X110410462Y-67003518D01*
X110410462Y-67003518D02*
X110410462Y-66889232D01*
X110410462Y-66889232D02*
X110448558Y-66736851D01*
X110448558Y-66736851D02*
X110486653Y-66660660D01*
X110486653Y-66660660D02*
X110562843Y-66584470D01*
X110562843Y-66584470D02*
X110677129Y-66546375D01*
X110677129Y-66546375D02*
X110753320Y-66546375D01*
X110753320Y-66546375D02*
X110867605Y-66584470D01*
X110867605Y-66584470D02*
X110905701Y-66622565D01*
X111705701Y-67270184D02*
X111667605Y-67308280D01*
X111667605Y-67308280D02*
X111553320Y-67346375D01*
X111553320Y-67346375D02*
X111477129Y-67346375D01*
X111477129Y-67346375D02*
X111362843Y-67308280D01*
X111362843Y-67308280D02*
X111286653Y-67232089D01*
X111286653Y-67232089D02*
X111248558Y-67155899D01*
X111248558Y-67155899D02*
X111210462Y-67003518D01*
X111210462Y-67003518D02*
X111210462Y-66889232D01*
X111210462Y-66889232D02*
X111248558Y-66736851D01*
X111248558Y-66736851D02*
X111286653Y-66660660D01*
X111286653Y-66660660D02*
X111362843Y-66584470D01*
X111362843Y-66584470D02*
X111477129Y-66546375D01*
X111477129Y-66546375D02*
X111553320Y-66546375D01*
X111553320Y-66546375D02*
X111667605Y-66584470D01*
X111667605Y-66584470D02*
X111705701Y-66622565D01*
D12*
X95019502Y-89185250D02*
X93876645Y-89185250D01*
D10*
X135269423Y-52345855D02*
X135269423Y-51545855D01*
X135802756Y-51545855D02*
X135955137Y-51545855D01*
X135955137Y-51545855D02*
X136031327Y-51583950D01*
X136031327Y-51583950D02*
X136107518Y-51660140D01*
X136107518Y-51660140D02*
X136145613Y-51812521D01*
X136145613Y-51812521D02*
X136145613Y-52079188D01*
X136145613Y-52079188D02*
X136107518Y-52231569D01*
X136107518Y-52231569D02*
X136031327Y-52307760D01*
X136031327Y-52307760D02*
X135955137Y-52345855D01*
X135955137Y-52345855D02*
X135802756Y-52345855D01*
X135802756Y-52345855D02*
X135726565Y-52307760D01*
X135726565Y-52307760D02*
X135650375Y-52231569D01*
X135650375Y-52231569D02*
X135612279Y-52079188D01*
X135612279Y-52079188D02*
X135612279Y-51812521D01*
X135612279Y-51812521D02*
X135650375Y-51660140D01*
X135650375Y-51660140D02*
X135726565Y-51583950D01*
X135726565Y-51583950D02*
X135802756Y-51545855D01*
X136869422Y-51545855D02*
X136488470Y-51545855D01*
X136488470Y-51545855D02*
X136450374Y-51926807D01*
X136450374Y-51926807D02*
X136488470Y-51888712D01*
X136488470Y-51888712D02*
X136564660Y-51850617D01*
X136564660Y-51850617D02*
X136755136Y-51850617D01*
X136755136Y-51850617D02*
X136831327Y-51888712D01*
X136831327Y-51888712D02*
X136869422Y-51926807D01*
X136869422Y-51926807D02*
X136907517Y-52002998D01*
X136907517Y-52002998D02*
X136907517Y-52193474D01*
X136907517Y-52193474D02*
X136869422Y-52269664D01*
X136869422Y-52269664D02*
X136831327Y-52307760D01*
X136831327Y-52307760D02*
X136755136Y-52345855D01*
X136755136Y-52345855D02*
X136564660Y-52345855D01*
X136564660Y-52345855D02*
X136488470Y-52307760D01*
X136488470Y-52307760D02*
X136450374Y-52269664D01*
D14*
X94984819Y-60736189D02*
X93984819Y-60736189D01*
X94889580Y-59688571D02*
X94937200Y-59736190D01*
X94937200Y-59736190D02*
X94984819Y-59879047D01*
X94984819Y-59879047D02*
X94984819Y-59974285D01*
X94984819Y-59974285D02*
X94937200Y-60117142D01*
X94937200Y-60117142D02*
X94841961Y-60212380D01*
X94841961Y-60212380D02*
X94746723Y-60259999D01*
X94746723Y-60259999D02*
X94556247Y-60307618D01*
X94556247Y-60307618D02*
X94413390Y-60307618D01*
X94413390Y-60307618D02*
X94222914Y-60259999D01*
X94222914Y-60259999D02*
X94127676Y-60212380D01*
X94127676Y-60212380D02*
X94032438Y-60117142D01*
X94032438Y-60117142D02*
X93984819Y-59974285D01*
X93984819Y-59974285D02*
X93984819Y-59879047D01*
X93984819Y-59879047D02*
X94032438Y-59736190D01*
X94032438Y-59736190D02*
X94080057Y-59688571D01*
X93984819Y-59355237D02*
X93984819Y-58736190D01*
X93984819Y-58736190D02*
X94365771Y-59069523D01*
X94365771Y-59069523D02*
X94365771Y-58926666D01*
X94365771Y-58926666D02*
X94413390Y-58831428D01*
X94413390Y-58831428D02*
X94461009Y-58783809D01*
X94461009Y-58783809D02*
X94556247Y-58736190D01*
X94556247Y-58736190D02*
X94794342Y-58736190D01*
X94794342Y-58736190D02*
X94889580Y-58783809D01*
X94889580Y-58783809D02*
X94937200Y-58831428D01*
X94937200Y-58831428D02*
X94984819Y-58926666D01*
X94984819Y-58926666D02*
X94984819Y-59212380D01*
X94984819Y-59212380D02*
X94937200Y-59307618D01*
X94937200Y-59307618D02*
X94889580Y-59355237D01*
X81690952Y-60214819D02*
X81214762Y-60214819D01*
X81214762Y-60214819D02*
X81214762Y-59214819D01*
X81976667Y-59310057D02*
X82024286Y-59262438D01*
X82024286Y-59262438D02*
X82119524Y-59214819D01*
X82119524Y-59214819D02*
X82357619Y-59214819D01*
X82357619Y-59214819D02*
X82452857Y-59262438D01*
X82452857Y-59262438D02*
X82500476Y-59310057D01*
X82500476Y-59310057D02*
X82548095Y-59405295D01*
X82548095Y-59405295D02*
X82548095Y-59500533D01*
X82548095Y-59500533D02*
X82500476Y-59643390D01*
X82500476Y-59643390D02*
X81929048Y-60214819D01*
X81929048Y-60214819D02*
X82548095Y-60214819D01*
X83024286Y-60214819D02*
X83214762Y-60214819D01*
X83214762Y-60214819D02*
X83310000Y-60167200D01*
X83310000Y-60167200D02*
X83357619Y-60119580D01*
X83357619Y-60119580D02*
X83452857Y-59976723D01*
X83452857Y-59976723D02*
X83500476Y-59786247D01*
X83500476Y-59786247D02*
X83500476Y-59405295D01*
X83500476Y-59405295D02*
X83452857Y-59310057D01*
X83452857Y-59310057D02*
X83405238Y-59262438D01*
X83405238Y-59262438D02*
X83310000Y-59214819D01*
X83310000Y-59214819D02*
X83119524Y-59214819D01*
X83119524Y-59214819D02*
X83024286Y-59262438D01*
X83024286Y-59262438D02*
X82976667Y-59310057D01*
X82976667Y-59310057D02*
X82929048Y-59405295D01*
X82929048Y-59405295D02*
X82929048Y-59643390D01*
X82929048Y-59643390D02*
X82976667Y-59738628D01*
X82976667Y-59738628D02*
X83024286Y-59786247D01*
X83024286Y-59786247D02*
X83119524Y-59833866D01*
X83119524Y-59833866D02*
X83310000Y-59833866D01*
X83310000Y-59833866D02*
X83405238Y-59786247D01*
X83405238Y-59786247D02*
X83452857Y-59738628D01*
X83452857Y-59738628D02*
X83500476Y-59643390D01*
X83833810Y-59214819D02*
X84452857Y-59214819D01*
X84452857Y-59214819D02*
X84119524Y-59595771D01*
X84119524Y-59595771D02*
X84262381Y-59595771D01*
X84262381Y-59595771D02*
X84357619Y-59643390D01*
X84357619Y-59643390D02*
X84405238Y-59691009D01*
X84405238Y-59691009D02*
X84452857Y-59786247D01*
X84452857Y-59786247D02*
X84452857Y-60024342D01*
X84452857Y-60024342D02*
X84405238Y-60119580D01*
X84405238Y-60119580D02*
X84357619Y-60167200D01*
X84357619Y-60167200D02*
X84262381Y-60214819D01*
X84262381Y-60214819D02*
X83976667Y-60214819D01*
X83976667Y-60214819D02*
X83881429Y-60167200D01*
X83881429Y-60167200D02*
X83833810Y-60119580D01*
X84881429Y-60214819D02*
X84881429Y-59214819D01*
X84881429Y-59214819D02*
X85119524Y-59214819D01*
X85119524Y-59214819D02*
X85262381Y-59262438D01*
X85262381Y-59262438D02*
X85357619Y-59357676D01*
X85357619Y-59357676D02*
X85405238Y-59452914D01*
X85405238Y-59452914D02*
X85452857Y-59643390D01*
X85452857Y-59643390D02*
X85452857Y-59786247D01*
X85452857Y-59786247D02*
X85405238Y-59976723D01*
X85405238Y-59976723D02*
X85357619Y-60071961D01*
X85357619Y-60071961D02*
X85262381Y-60167200D01*
X85262381Y-60167200D02*
X85119524Y-60214819D01*
X85119524Y-60214819D02*
X84881429Y-60214819D01*
X69859580Y-58179166D02*
X69907200Y-58226785D01*
X69907200Y-58226785D02*
X69954819Y-58369642D01*
X69954819Y-58369642D02*
X69954819Y-58464880D01*
X69954819Y-58464880D02*
X69907200Y-58607737D01*
X69907200Y-58607737D02*
X69811961Y-58702975D01*
X69811961Y-58702975D02*
X69716723Y-58750594D01*
X69716723Y-58750594D02*
X69526247Y-58798213D01*
X69526247Y-58798213D02*
X69383390Y-58798213D01*
X69383390Y-58798213D02*
X69192914Y-58750594D01*
X69192914Y-58750594D02*
X69097676Y-58702975D01*
X69097676Y-58702975D02*
X69002438Y-58607737D01*
X69002438Y-58607737D02*
X68954819Y-58464880D01*
X68954819Y-58464880D02*
X68954819Y-58369642D01*
X68954819Y-58369642D02*
X69002438Y-58226785D01*
X69002438Y-58226785D02*
X69050057Y-58179166D01*
X68954819Y-57274404D02*
X68954819Y-57750594D01*
X68954819Y-57750594D02*
X69431009Y-57798213D01*
X69431009Y-57798213D02*
X69383390Y-57750594D01*
X69383390Y-57750594D02*
X69335771Y-57655356D01*
X69335771Y-57655356D02*
X69335771Y-57417261D01*
X69335771Y-57417261D02*
X69383390Y-57322023D01*
X69383390Y-57322023D02*
X69431009Y-57274404D01*
X69431009Y-57274404D02*
X69526247Y-57226785D01*
X69526247Y-57226785D02*
X69764342Y-57226785D01*
X69764342Y-57226785D02*
X69859580Y-57274404D01*
X69859580Y-57274404D02*
X69907200Y-57322023D01*
X69907200Y-57322023D02*
X69954819Y-57417261D01*
X69954819Y-57417261D02*
X69954819Y-57655356D01*
X69954819Y-57655356D02*
X69907200Y-57750594D01*
X69907200Y-57750594D02*
X69859580Y-57798213D01*
X100864583Y-58309580D02*
X100816964Y-58357200D01*
X100816964Y-58357200D02*
X100674107Y-58404819D01*
X100674107Y-58404819D02*
X100578869Y-58404819D01*
X100578869Y-58404819D02*
X100436012Y-58357200D01*
X100436012Y-58357200D02*
X100340774Y-58261961D01*
X100340774Y-58261961D02*
X100293155Y-58166723D01*
X100293155Y-58166723D02*
X100245536Y-57976247D01*
X100245536Y-57976247D02*
X100245536Y-57833390D01*
X100245536Y-57833390D02*
X100293155Y-57642914D01*
X100293155Y-57642914D02*
X100340774Y-57547676D01*
X100340774Y-57547676D02*
X100436012Y-57452438D01*
X100436012Y-57452438D02*
X100578869Y-57404819D01*
X100578869Y-57404819D02*
X100674107Y-57404819D01*
X100674107Y-57404819D02*
X100816964Y-57452438D01*
X100816964Y-57452438D02*
X100864583Y-57500057D01*
X101197917Y-57404819D02*
X101816964Y-57404819D01*
X101816964Y-57404819D02*
X101483631Y-57785771D01*
X101483631Y-57785771D02*
X101626488Y-57785771D01*
X101626488Y-57785771D02*
X101721726Y-57833390D01*
X101721726Y-57833390D02*
X101769345Y-57881009D01*
X101769345Y-57881009D02*
X101816964Y-57976247D01*
X101816964Y-57976247D02*
X101816964Y-58214342D01*
X101816964Y-58214342D02*
X101769345Y-58309580D01*
X101769345Y-58309580D02*
X101721726Y-58357200D01*
X101721726Y-58357200D02*
X101626488Y-58404819D01*
X101626488Y-58404819D02*
X101340774Y-58404819D01*
X101340774Y-58404819D02*
X101245536Y-58357200D01*
X101245536Y-58357200D02*
X101197917Y-58309580D01*
X104333333Y-62904819D02*
X104000000Y-62428628D01*
X103761905Y-62904819D02*
X103761905Y-61904819D01*
X103761905Y-61904819D02*
X104142857Y-61904819D01*
X104142857Y-61904819D02*
X104238095Y-61952438D01*
X104238095Y-61952438D02*
X104285714Y-62000057D01*
X104285714Y-62000057D02*
X104333333Y-62095295D01*
X104333333Y-62095295D02*
X104333333Y-62238152D01*
X104333333Y-62238152D02*
X104285714Y-62333390D01*
X104285714Y-62333390D02*
X104238095Y-62381009D01*
X104238095Y-62381009D02*
X104142857Y-62428628D01*
X104142857Y-62428628D02*
X103761905Y-62428628D01*
X105190476Y-62238152D02*
X105190476Y-62904819D01*
X104952381Y-61857200D02*
X104714286Y-62571485D01*
X104714286Y-62571485D02*
X105333333Y-62571485D01*
X109833333Y-74404819D02*
X109500000Y-73928628D01*
X109261905Y-74404819D02*
X109261905Y-73404819D01*
X109261905Y-73404819D02*
X109642857Y-73404819D01*
X109642857Y-73404819D02*
X109738095Y-73452438D01*
X109738095Y-73452438D02*
X109785714Y-73500057D01*
X109785714Y-73500057D02*
X109833333Y-73595295D01*
X109833333Y-73595295D02*
X109833333Y-73738152D01*
X109833333Y-73738152D02*
X109785714Y-73833390D01*
X109785714Y-73833390D02*
X109738095Y-73881009D01*
X109738095Y-73881009D02*
X109642857Y-73928628D01*
X109642857Y-73928628D02*
X109261905Y-73928628D01*
X110214286Y-73500057D02*
X110261905Y-73452438D01*
X110261905Y-73452438D02*
X110357143Y-73404819D01*
X110357143Y-73404819D02*
X110595238Y-73404819D01*
X110595238Y-73404819D02*
X110690476Y-73452438D01*
X110690476Y-73452438D02*
X110738095Y-73500057D01*
X110738095Y-73500057D02*
X110785714Y-73595295D01*
X110785714Y-73595295D02*
X110785714Y-73690533D01*
X110785714Y-73690533D02*
X110738095Y-73833390D01*
X110738095Y-73833390D02*
X110166667Y-74404819D01*
X110166667Y-74404819D02*
X110785714Y-74404819D01*
X92689819Y-50759523D02*
X91689819Y-50759523D01*
X91689819Y-50759523D02*
X92404104Y-50426190D01*
X92404104Y-50426190D02*
X91689819Y-50092857D01*
X91689819Y-50092857D02*
X92689819Y-50092857D01*
X92689819Y-49092857D02*
X92689819Y-49664285D01*
X92689819Y-49378571D02*
X91689819Y-49378571D01*
X91689819Y-49378571D02*
X91832676Y-49473809D01*
X91832676Y-49473809D02*
X91927914Y-49569047D01*
X91927914Y-49569047D02*
X91975533Y-49664285D01*
X107431009Y-85188095D02*
X107478628Y-85045238D01*
X107478628Y-85045238D02*
X107526247Y-84997619D01*
X107526247Y-84997619D02*
X107621485Y-84950000D01*
X107621485Y-84950000D02*
X107764342Y-84950000D01*
X107764342Y-84950000D02*
X107859580Y-84997619D01*
X107859580Y-84997619D02*
X107907200Y-85045238D01*
X107907200Y-85045238D02*
X107954819Y-85140476D01*
X107954819Y-85140476D02*
X107954819Y-85521428D01*
X107954819Y-85521428D02*
X106954819Y-85521428D01*
X106954819Y-85521428D02*
X106954819Y-85188095D01*
X106954819Y-85188095D02*
X107002438Y-85092857D01*
X107002438Y-85092857D02*
X107050057Y-85045238D01*
X107050057Y-85045238D02*
X107145295Y-84997619D01*
X107145295Y-84997619D02*
X107240533Y-84997619D01*
X107240533Y-84997619D02*
X107335771Y-85045238D01*
X107335771Y-85045238D02*
X107383390Y-85092857D01*
X107383390Y-85092857D02*
X107431009Y-85188095D01*
X107431009Y-85188095D02*
X107431009Y-85521428D01*
X107669104Y-84569047D02*
X107669104Y-84092857D01*
X107954819Y-84664285D02*
X106954819Y-84330952D01*
X106954819Y-84330952D02*
X107954819Y-83997619D01*
X106954819Y-83807142D02*
X106954819Y-83235714D01*
X107954819Y-83521428D02*
X106954819Y-83521428D01*
D10*
X122363855Y-73083332D02*
X121982902Y-73349999D01*
X122363855Y-73540475D02*
X121563855Y-73540475D01*
X121563855Y-73540475D02*
X121563855Y-73235713D01*
X121563855Y-73235713D02*
X121601950Y-73159523D01*
X121601950Y-73159523D02*
X121640045Y-73121428D01*
X121640045Y-73121428D02*
X121716236Y-73083332D01*
X121716236Y-73083332D02*
X121830521Y-73083332D01*
X121830521Y-73083332D02*
X121906712Y-73121428D01*
X121906712Y-73121428D02*
X121944807Y-73159523D01*
X121944807Y-73159523D02*
X121982902Y-73235713D01*
X121982902Y-73235713D02*
X121982902Y-73540475D01*
X122363855Y-72321428D02*
X122363855Y-72778571D01*
X122363855Y-72549999D02*
X121563855Y-72549999D01*
X121563855Y-72549999D02*
X121678140Y-72626190D01*
X121678140Y-72626190D02*
X121754331Y-72702380D01*
X121754331Y-72702380D02*
X121792426Y-72778571D01*
D14*
X131954819Y-80426189D02*
X130954819Y-80426189D01*
X131859580Y-79378571D02*
X131907200Y-79426190D01*
X131907200Y-79426190D02*
X131954819Y-79569047D01*
X131954819Y-79569047D02*
X131954819Y-79664285D01*
X131954819Y-79664285D02*
X131907200Y-79807142D01*
X131907200Y-79807142D02*
X131811961Y-79902380D01*
X131811961Y-79902380D02*
X131716723Y-79949999D01*
X131716723Y-79949999D02*
X131526247Y-79997618D01*
X131526247Y-79997618D02*
X131383390Y-79997618D01*
X131383390Y-79997618D02*
X131192914Y-79949999D01*
X131192914Y-79949999D02*
X131097676Y-79902380D01*
X131097676Y-79902380D02*
X131002438Y-79807142D01*
X131002438Y-79807142D02*
X130954819Y-79664285D01*
X130954819Y-79664285D02*
X130954819Y-79569047D01*
X130954819Y-79569047D02*
X131002438Y-79426190D01*
X131002438Y-79426190D02*
X131050057Y-79378571D01*
X131050057Y-78997618D02*
X131002438Y-78949999D01*
X131002438Y-78949999D02*
X130954819Y-78854761D01*
X130954819Y-78854761D02*
X130954819Y-78616666D01*
X130954819Y-78616666D02*
X131002438Y-78521428D01*
X131002438Y-78521428D02*
X131050057Y-78473809D01*
X131050057Y-78473809D02*
X131145295Y-78426190D01*
X131145295Y-78426190D02*
X131240533Y-78426190D01*
X131240533Y-78426190D02*
X131383390Y-78473809D01*
X131383390Y-78473809D02*
X131954819Y-79045237D01*
X131954819Y-79045237D02*
X131954819Y-78426190D01*
X117073095Y-79224819D02*
X117739761Y-79224819D01*
X117739761Y-79224819D02*
X117311190Y-80224819D01*
X118549285Y-79558152D02*
X118549285Y-80224819D01*
X118311190Y-79177200D02*
X118073095Y-79891485D01*
X118073095Y-79891485D02*
X118692142Y-79891485D01*
X119073095Y-80224819D02*
X119073095Y-79224819D01*
X119073095Y-79701009D02*
X119644523Y-79701009D01*
X119644523Y-80224819D02*
X119644523Y-79224819D01*
X120692142Y-80129580D02*
X120644523Y-80177200D01*
X120644523Y-80177200D02*
X120501666Y-80224819D01*
X120501666Y-80224819D02*
X120406428Y-80224819D01*
X120406428Y-80224819D02*
X120263571Y-80177200D01*
X120263571Y-80177200D02*
X120168333Y-80081961D01*
X120168333Y-80081961D02*
X120120714Y-79986723D01*
X120120714Y-79986723D02*
X120073095Y-79796247D01*
X120073095Y-79796247D02*
X120073095Y-79653390D01*
X120073095Y-79653390D02*
X120120714Y-79462914D01*
X120120714Y-79462914D02*
X120168333Y-79367676D01*
X120168333Y-79367676D02*
X120263571Y-79272438D01*
X120263571Y-79272438D02*
X120406428Y-79224819D01*
X120406428Y-79224819D02*
X120501666Y-79224819D01*
X120501666Y-79224819D02*
X120644523Y-79272438D01*
X120644523Y-79272438D02*
X120692142Y-79320057D01*
X121596904Y-79224819D02*
X121120714Y-79224819D01*
X121120714Y-79224819D02*
X121073095Y-79701009D01*
X121073095Y-79701009D02*
X121120714Y-79653390D01*
X121120714Y-79653390D02*
X121215952Y-79605771D01*
X121215952Y-79605771D02*
X121454047Y-79605771D01*
X121454047Y-79605771D02*
X121549285Y-79653390D01*
X121549285Y-79653390D02*
X121596904Y-79701009D01*
X121596904Y-79701009D02*
X121644523Y-79796247D01*
X121644523Y-79796247D02*
X121644523Y-80034342D01*
X121644523Y-80034342D02*
X121596904Y-80129580D01*
X121596904Y-80129580D02*
X121549285Y-80177200D01*
X121549285Y-80177200D02*
X121454047Y-80224819D01*
X121454047Y-80224819D02*
X121215952Y-80224819D01*
X121215952Y-80224819D02*
X121120714Y-80177200D01*
X121120714Y-80177200D02*
X121073095Y-80129580D01*
X122120714Y-80224819D02*
X122311190Y-80224819D01*
X122311190Y-80224819D02*
X122406428Y-80177200D01*
X122406428Y-80177200D02*
X122454047Y-80129580D01*
X122454047Y-80129580D02*
X122549285Y-79986723D01*
X122549285Y-79986723D02*
X122596904Y-79796247D01*
X122596904Y-79796247D02*
X122596904Y-79415295D01*
X122596904Y-79415295D02*
X122549285Y-79320057D01*
X122549285Y-79320057D02*
X122501666Y-79272438D01*
X122501666Y-79272438D02*
X122406428Y-79224819D01*
X122406428Y-79224819D02*
X122215952Y-79224819D01*
X122215952Y-79224819D02*
X122120714Y-79272438D01*
X122120714Y-79272438D02*
X122073095Y-79320057D01*
X122073095Y-79320057D02*
X122025476Y-79415295D01*
X122025476Y-79415295D02*
X122025476Y-79653390D01*
X122025476Y-79653390D02*
X122073095Y-79748628D01*
X122073095Y-79748628D02*
X122120714Y-79796247D01*
X122120714Y-79796247D02*
X122215952Y-79843866D01*
X122215952Y-79843866D02*
X122406428Y-79843866D01*
X122406428Y-79843866D02*
X122501666Y-79796247D01*
X122501666Y-79796247D02*
X122549285Y-79748628D01*
X122549285Y-79748628D02*
X122596904Y-79653390D01*
X123501666Y-79224819D02*
X123025476Y-79224819D01*
X123025476Y-79224819D02*
X122977857Y-79701009D01*
X122977857Y-79701009D02*
X123025476Y-79653390D01*
X123025476Y-79653390D02*
X123120714Y-79605771D01*
X123120714Y-79605771D02*
X123358809Y-79605771D01*
X123358809Y-79605771D02*
X123454047Y-79653390D01*
X123454047Y-79653390D02*
X123501666Y-79701009D01*
X123501666Y-79701009D02*
X123549285Y-79796247D01*
X123549285Y-79796247D02*
X123549285Y-80034342D01*
X123549285Y-80034342D02*
X123501666Y-80129580D01*
X123501666Y-80129580D02*
X123454047Y-80177200D01*
X123454047Y-80177200D02*
X123358809Y-80224819D01*
X123358809Y-80224819D02*
X123120714Y-80224819D01*
X123120714Y-80224819D02*
X123025476Y-80177200D01*
X123025476Y-80177200D02*
X122977857Y-80129580D01*
X111857142Y-74404819D02*
X111380952Y-74404819D01*
X111380952Y-74404819D02*
X111380952Y-73404819D01*
X112190476Y-73881009D02*
X112523809Y-73881009D01*
X112666666Y-74404819D02*
X112190476Y-74404819D01*
X112190476Y-74404819D02*
X112190476Y-73404819D01*
X112190476Y-73404819D02*
X112666666Y-73404819D01*
X113095238Y-74404819D02*
X113095238Y-73404819D01*
X113095238Y-73404819D02*
X113333333Y-73404819D01*
X113333333Y-73404819D02*
X113476190Y-73452438D01*
X113476190Y-73452438D02*
X113571428Y-73547676D01*
X113571428Y-73547676D02*
X113619047Y-73642914D01*
X113619047Y-73642914D02*
X113666666Y-73833390D01*
X113666666Y-73833390D02*
X113666666Y-73976247D01*
X113666666Y-73976247D02*
X113619047Y-74166723D01*
X113619047Y-74166723D02*
X113571428Y-74261961D01*
X113571428Y-74261961D02*
X113476190Y-74357200D01*
X113476190Y-74357200D02*
X113333333Y-74404819D01*
X113333333Y-74404819D02*
X113095238Y-74404819D01*
X100388095Y-75904819D02*
X100388095Y-76714342D01*
X100388095Y-76714342D02*
X100435714Y-76809580D01*
X100435714Y-76809580D02*
X100483333Y-76857200D01*
X100483333Y-76857200D02*
X100578571Y-76904819D01*
X100578571Y-76904819D02*
X100769047Y-76904819D01*
X100769047Y-76904819D02*
X100864285Y-76857200D01*
X100864285Y-76857200D02*
X100911904Y-76809580D01*
X100911904Y-76809580D02*
X100959523Y-76714342D01*
X100959523Y-76714342D02*
X100959523Y-75904819D01*
X101911904Y-75904819D02*
X101435714Y-75904819D01*
X101435714Y-75904819D02*
X101388095Y-76381009D01*
X101388095Y-76381009D02*
X101435714Y-76333390D01*
X101435714Y-76333390D02*
X101530952Y-76285771D01*
X101530952Y-76285771D02*
X101769047Y-76285771D01*
X101769047Y-76285771D02*
X101864285Y-76333390D01*
X101864285Y-76333390D02*
X101911904Y-76381009D01*
X101911904Y-76381009D02*
X101959523Y-76476247D01*
X101959523Y-76476247D02*
X101959523Y-76714342D01*
X101959523Y-76714342D02*
X101911904Y-76809580D01*
X101911904Y-76809580D02*
X101864285Y-76857200D01*
X101864285Y-76857200D02*
X101769047Y-76904819D01*
X101769047Y-76904819D02*
X101530952Y-76904819D01*
X101530952Y-76904819D02*
X101435714Y-76857200D01*
X101435714Y-76857200D02*
X101388095Y-76809580D01*
D10*
X101285283Y-74502381D02*
X101285283Y-74121428D01*
X101513855Y-74578571D02*
X100713855Y-74311904D01*
X100713855Y-74311904D02*
X101513855Y-74045238D01*
X101475760Y-73816667D02*
X101513855Y-73702381D01*
X101513855Y-73702381D02*
X101513855Y-73511905D01*
X101513855Y-73511905D02*
X101475760Y-73435714D01*
X101475760Y-73435714D02*
X101437664Y-73397619D01*
X101437664Y-73397619D02*
X101361474Y-73359524D01*
X101361474Y-73359524D02*
X101285283Y-73359524D01*
X101285283Y-73359524D02*
X101209093Y-73397619D01*
X101209093Y-73397619D02*
X101170998Y-73435714D01*
X101170998Y-73435714D02*
X101132902Y-73511905D01*
X101132902Y-73511905D02*
X101094807Y-73664286D01*
X101094807Y-73664286D02*
X101056712Y-73740476D01*
X101056712Y-73740476D02*
X101018617Y-73778571D01*
X101018617Y-73778571D02*
X100942426Y-73816667D01*
X100942426Y-73816667D02*
X100866236Y-73816667D01*
X100866236Y-73816667D02*
X100790045Y-73778571D01*
X100790045Y-73778571D02*
X100751950Y-73740476D01*
X100751950Y-73740476D02*
X100713855Y-73664286D01*
X100713855Y-73664286D02*
X100713855Y-73473809D01*
X100713855Y-73473809D02*
X100751950Y-73359524D01*
X101513855Y-73016666D02*
X100713855Y-73016666D01*
X100713855Y-73016666D02*
X101285283Y-72750000D01*
X101285283Y-72750000D02*
X100713855Y-72483333D01*
X100713855Y-72483333D02*
X101513855Y-72483333D01*
X101513855Y-71683333D02*
X101513855Y-72140476D01*
X101513855Y-71911904D02*
X100713855Y-71911904D01*
X100713855Y-71911904D02*
X100828140Y-71988095D01*
X100828140Y-71988095D02*
X100904331Y-72064285D01*
X100904331Y-72064285D02*
X100942426Y-72140476D01*
X101513855Y-70921428D02*
X101513855Y-71378571D01*
X101513855Y-71149999D02*
X100713855Y-71149999D01*
X100713855Y-71149999D02*
X100828140Y-71226190D01*
X100828140Y-71226190D02*
X100904331Y-71302380D01*
X100904331Y-71302380D02*
X100942426Y-71378571D01*
X101513855Y-70159523D02*
X101513855Y-70616666D01*
X101513855Y-70388094D02*
X100713855Y-70388094D01*
X100713855Y-70388094D02*
X100828140Y-70464285D01*
X100828140Y-70464285D02*
X100904331Y-70540475D01*
X100904331Y-70540475D02*
X100942426Y-70616666D01*
X100713855Y-69892856D02*
X100713855Y-69359522D01*
X100713855Y-69359522D02*
X101513855Y-69702380D01*
D14*
X100824583Y-63548330D02*
X100776964Y-63595950D01*
X100776964Y-63595950D02*
X100634107Y-63643569D01*
X100634107Y-63643569D02*
X100538869Y-63643569D01*
X100538869Y-63643569D02*
X100396012Y-63595950D01*
X100396012Y-63595950D02*
X100300774Y-63500711D01*
X100300774Y-63500711D02*
X100253155Y-63405473D01*
X100253155Y-63405473D02*
X100205536Y-63214997D01*
X100205536Y-63214997D02*
X100205536Y-63072140D01*
X100205536Y-63072140D02*
X100253155Y-62881664D01*
X100253155Y-62881664D02*
X100300774Y-62786426D01*
X100300774Y-62786426D02*
X100396012Y-62691188D01*
X100396012Y-62691188D02*
X100538869Y-62643569D01*
X100538869Y-62643569D02*
X100634107Y-62643569D01*
X100634107Y-62643569D02*
X100776964Y-62691188D01*
X100776964Y-62691188D02*
X100824583Y-62738807D01*
X101205536Y-62738807D02*
X101253155Y-62691188D01*
X101253155Y-62691188D02*
X101348393Y-62643569D01*
X101348393Y-62643569D02*
X101586488Y-62643569D01*
X101586488Y-62643569D02*
X101681726Y-62691188D01*
X101681726Y-62691188D02*
X101729345Y-62738807D01*
X101729345Y-62738807D02*
X101776964Y-62834045D01*
X101776964Y-62834045D02*
X101776964Y-62929283D01*
X101776964Y-62929283D02*
X101729345Y-63072140D01*
X101729345Y-63072140D02*
X101157917Y-63643569D01*
X101157917Y-63643569D02*
X101776964Y-63643569D01*
X121023810Y-41904819D02*
X121023810Y-40904819D01*
X122071428Y-41809580D02*
X122023809Y-41857200D01*
X122023809Y-41857200D02*
X121880952Y-41904819D01*
X121880952Y-41904819D02*
X121785714Y-41904819D01*
X121785714Y-41904819D02*
X121642857Y-41857200D01*
X121642857Y-41857200D02*
X121547619Y-41761961D01*
X121547619Y-41761961D02*
X121500000Y-41666723D01*
X121500000Y-41666723D02*
X121452381Y-41476247D01*
X121452381Y-41476247D02*
X121452381Y-41333390D01*
X121452381Y-41333390D02*
X121500000Y-41142914D01*
X121500000Y-41142914D02*
X121547619Y-41047676D01*
X121547619Y-41047676D02*
X121642857Y-40952438D01*
X121642857Y-40952438D02*
X121785714Y-40904819D01*
X121785714Y-40904819D02*
X121880952Y-40904819D01*
X121880952Y-40904819D02*
X122023809Y-40952438D01*
X122023809Y-40952438D02*
X122071428Y-41000057D01*
X123023809Y-41904819D02*
X122452381Y-41904819D01*
X122738095Y-41904819D02*
X122738095Y-40904819D01*
X122738095Y-40904819D02*
X122642857Y-41047676D01*
X122642857Y-41047676D02*
X122547619Y-41142914D01*
X122547619Y-41142914D02*
X122452381Y-41190533D01*
X118785714Y-57381009D02*
X119119047Y-57381009D01*
X119261904Y-57904819D02*
X118785714Y-57904819D01*
X118785714Y-57904819D02*
X118785714Y-56904819D01*
X118785714Y-56904819D02*
X119261904Y-56904819D01*
X119642857Y-57857200D02*
X119785714Y-57904819D01*
X119785714Y-57904819D02*
X120023809Y-57904819D01*
X120023809Y-57904819D02*
X120119047Y-57857200D01*
X120119047Y-57857200D02*
X120166666Y-57809580D01*
X120166666Y-57809580D02*
X120214285Y-57714342D01*
X120214285Y-57714342D02*
X120214285Y-57619104D01*
X120214285Y-57619104D02*
X120166666Y-57523866D01*
X120166666Y-57523866D02*
X120119047Y-57476247D01*
X120119047Y-57476247D02*
X120023809Y-57428628D01*
X120023809Y-57428628D02*
X119833333Y-57381009D01*
X119833333Y-57381009D02*
X119738095Y-57333390D01*
X119738095Y-57333390D02*
X119690476Y-57285771D01*
X119690476Y-57285771D02*
X119642857Y-57190533D01*
X119642857Y-57190533D02*
X119642857Y-57095295D01*
X119642857Y-57095295D02*
X119690476Y-57000057D01*
X119690476Y-57000057D02*
X119738095Y-56952438D01*
X119738095Y-56952438D02*
X119833333Y-56904819D01*
X119833333Y-56904819D02*
X120071428Y-56904819D01*
X120071428Y-56904819D02*
X120214285Y-56952438D01*
X120642857Y-57904819D02*
X120642857Y-56904819D01*
X120642857Y-56904819D02*
X121023809Y-56904819D01*
X121023809Y-56904819D02*
X121119047Y-56952438D01*
X121119047Y-56952438D02*
X121166666Y-57000057D01*
X121166666Y-57000057D02*
X121214285Y-57095295D01*
X121214285Y-57095295D02*
X121214285Y-57238152D01*
X121214285Y-57238152D02*
X121166666Y-57333390D01*
X121166666Y-57333390D02*
X121119047Y-57381009D01*
X121119047Y-57381009D02*
X121023809Y-57428628D01*
X121023809Y-57428628D02*
X120642857Y-57428628D01*
X121642857Y-57523866D02*
X122404762Y-57523866D01*
X123404761Y-57904819D02*
X122833333Y-57904819D01*
X123119047Y-57904819D02*
X123119047Y-56904819D01*
X123119047Y-56904819D02*
X123023809Y-57047676D01*
X123023809Y-57047676D02*
X122928571Y-57142914D01*
X122928571Y-57142914D02*
X122833333Y-57190533D01*
X123785714Y-57000057D02*
X123833333Y-56952438D01*
X123833333Y-56952438D02*
X123928571Y-56904819D01*
X123928571Y-56904819D02*
X124166666Y-56904819D01*
X124166666Y-56904819D02*
X124261904Y-56952438D01*
X124261904Y-56952438D02*
X124309523Y-57000057D01*
X124309523Y-57000057D02*
X124357142Y-57095295D01*
X124357142Y-57095295D02*
X124357142Y-57190533D01*
X124357142Y-57190533D02*
X124309523Y-57333390D01*
X124309523Y-57333390D02*
X123738095Y-57904819D01*
X123738095Y-57904819D02*
X124357142Y-57904819D01*
X124785714Y-57381009D02*
X125119047Y-57381009D01*
X125261904Y-57904819D02*
X124785714Y-57904819D01*
X124785714Y-57904819D02*
X124785714Y-56904819D01*
X124785714Y-56904819D02*
X125261904Y-56904819D01*
X69859580Y-69679166D02*
X69907200Y-69726785D01*
X69907200Y-69726785D02*
X69954819Y-69869642D01*
X69954819Y-69869642D02*
X69954819Y-69964880D01*
X69954819Y-69964880D02*
X69907200Y-70107737D01*
X69907200Y-70107737D02*
X69811961Y-70202975D01*
X69811961Y-70202975D02*
X69716723Y-70250594D01*
X69716723Y-70250594D02*
X69526247Y-70298213D01*
X69526247Y-70298213D02*
X69383390Y-70298213D01*
X69383390Y-70298213D02*
X69192914Y-70250594D01*
X69192914Y-70250594D02*
X69097676Y-70202975D01*
X69097676Y-70202975D02*
X69002438Y-70107737D01*
X69002438Y-70107737D02*
X68954819Y-69964880D01*
X68954819Y-69964880D02*
X68954819Y-69869642D01*
X68954819Y-69869642D02*
X69002438Y-69726785D01*
X69002438Y-69726785D02*
X69050057Y-69679166D01*
X68954819Y-68822023D02*
X68954819Y-69012499D01*
X68954819Y-69012499D02*
X69002438Y-69107737D01*
X69002438Y-69107737D02*
X69050057Y-69155356D01*
X69050057Y-69155356D02*
X69192914Y-69250594D01*
X69192914Y-69250594D02*
X69383390Y-69298213D01*
X69383390Y-69298213D02*
X69764342Y-69298213D01*
X69764342Y-69298213D02*
X69859580Y-69250594D01*
X69859580Y-69250594D02*
X69907200Y-69202975D01*
X69907200Y-69202975D02*
X69954819Y-69107737D01*
X69954819Y-69107737D02*
X69954819Y-68917261D01*
X69954819Y-68917261D02*
X69907200Y-68822023D01*
X69907200Y-68822023D02*
X69859580Y-68774404D01*
X69859580Y-68774404D02*
X69764342Y-68726785D01*
X69764342Y-68726785D02*
X69526247Y-68726785D01*
X69526247Y-68726785D02*
X69431009Y-68774404D01*
X69431009Y-68774404D02*
X69383390Y-68822023D01*
X69383390Y-68822023D02*
X69335771Y-68917261D01*
X69335771Y-68917261D02*
X69335771Y-69107737D01*
X69335771Y-69107737D02*
X69383390Y-69202975D01*
X69383390Y-69202975D02*
X69431009Y-69250594D01*
X69431009Y-69250594D02*
X69526247Y-69298213D01*
X94954819Y-72236189D02*
X93954819Y-72236189D01*
X94859580Y-71188571D02*
X94907200Y-71236190D01*
X94907200Y-71236190D02*
X94954819Y-71379047D01*
X94954819Y-71379047D02*
X94954819Y-71474285D01*
X94954819Y-71474285D02*
X94907200Y-71617142D01*
X94907200Y-71617142D02*
X94811961Y-71712380D01*
X94811961Y-71712380D02*
X94716723Y-71759999D01*
X94716723Y-71759999D02*
X94526247Y-71807618D01*
X94526247Y-71807618D02*
X94383390Y-71807618D01*
X94383390Y-71807618D02*
X94192914Y-71759999D01*
X94192914Y-71759999D02*
X94097676Y-71712380D01*
X94097676Y-71712380D02*
X94002438Y-71617142D01*
X94002438Y-71617142D02*
X93954819Y-71474285D01*
X93954819Y-71474285D02*
X93954819Y-71379047D01*
X93954819Y-71379047D02*
X94002438Y-71236190D01*
X94002438Y-71236190D02*
X94050057Y-71188571D01*
X94288152Y-70331428D02*
X94954819Y-70331428D01*
X93907200Y-70569523D02*
X94621485Y-70807618D01*
X94621485Y-70807618D02*
X94621485Y-70188571D01*
X81730952Y-71714819D02*
X81254762Y-71714819D01*
X81254762Y-71714819D02*
X81254762Y-70714819D01*
X82016667Y-70810057D02*
X82064286Y-70762438D01*
X82064286Y-70762438D02*
X82159524Y-70714819D01*
X82159524Y-70714819D02*
X82397619Y-70714819D01*
X82397619Y-70714819D02*
X82492857Y-70762438D01*
X82492857Y-70762438D02*
X82540476Y-70810057D01*
X82540476Y-70810057D02*
X82588095Y-70905295D01*
X82588095Y-70905295D02*
X82588095Y-71000533D01*
X82588095Y-71000533D02*
X82540476Y-71143390D01*
X82540476Y-71143390D02*
X81969048Y-71714819D01*
X81969048Y-71714819D02*
X82588095Y-71714819D01*
X83064286Y-71714819D02*
X83254762Y-71714819D01*
X83254762Y-71714819D02*
X83350000Y-71667200D01*
X83350000Y-71667200D02*
X83397619Y-71619580D01*
X83397619Y-71619580D02*
X83492857Y-71476723D01*
X83492857Y-71476723D02*
X83540476Y-71286247D01*
X83540476Y-71286247D02*
X83540476Y-70905295D01*
X83540476Y-70905295D02*
X83492857Y-70810057D01*
X83492857Y-70810057D02*
X83445238Y-70762438D01*
X83445238Y-70762438D02*
X83350000Y-70714819D01*
X83350000Y-70714819D02*
X83159524Y-70714819D01*
X83159524Y-70714819D02*
X83064286Y-70762438D01*
X83064286Y-70762438D02*
X83016667Y-70810057D01*
X83016667Y-70810057D02*
X82969048Y-70905295D01*
X82969048Y-70905295D02*
X82969048Y-71143390D01*
X82969048Y-71143390D02*
X83016667Y-71238628D01*
X83016667Y-71238628D02*
X83064286Y-71286247D01*
X83064286Y-71286247D02*
X83159524Y-71333866D01*
X83159524Y-71333866D02*
X83350000Y-71333866D01*
X83350000Y-71333866D02*
X83445238Y-71286247D01*
X83445238Y-71286247D02*
X83492857Y-71238628D01*
X83492857Y-71238628D02*
X83540476Y-71143390D01*
X83873810Y-70714819D02*
X84492857Y-70714819D01*
X84492857Y-70714819D02*
X84159524Y-71095771D01*
X84159524Y-71095771D02*
X84302381Y-71095771D01*
X84302381Y-71095771D02*
X84397619Y-71143390D01*
X84397619Y-71143390D02*
X84445238Y-71191009D01*
X84445238Y-71191009D02*
X84492857Y-71286247D01*
X84492857Y-71286247D02*
X84492857Y-71524342D01*
X84492857Y-71524342D02*
X84445238Y-71619580D01*
X84445238Y-71619580D02*
X84397619Y-71667200D01*
X84397619Y-71667200D02*
X84302381Y-71714819D01*
X84302381Y-71714819D02*
X84016667Y-71714819D01*
X84016667Y-71714819D02*
X83921429Y-71667200D01*
X83921429Y-71667200D02*
X83873810Y-71619580D01*
X84921429Y-71714819D02*
X84921429Y-70714819D01*
X84921429Y-70714819D02*
X85159524Y-70714819D01*
X85159524Y-70714819D02*
X85302381Y-70762438D01*
X85302381Y-70762438D02*
X85397619Y-70857676D01*
X85397619Y-70857676D02*
X85445238Y-70952914D01*
X85445238Y-70952914D02*
X85492857Y-71143390D01*
X85492857Y-71143390D02*
X85492857Y-71286247D01*
X85492857Y-71286247D02*
X85445238Y-71476723D01*
X85445238Y-71476723D02*
X85397619Y-71571961D01*
X85397619Y-71571961D02*
X85302381Y-71667200D01*
X85302381Y-71667200D02*
X85159524Y-71714819D01*
X85159524Y-71714819D02*
X84921429Y-71714819D01*
X79689819Y-87759523D02*
X78689819Y-87759523D01*
X78689819Y-87759523D02*
X79404104Y-87426190D01*
X79404104Y-87426190D02*
X78689819Y-87092857D01*
X78689819Y-87092857D02*
X79689819Y-87092857D01*
X78689819Y-86711904D02*
X78689819Y-86092857D01*
X78689819Y-86092857D02*
X79070771Y-86426190D01*
X79070771Y-86426190D02*
X79070771Y-86283333D01*
X79070771Y-86283333D02*
X79118390Y-86188095D01*
X79118390Y-86188095D02*
X79166009Y-86140476D01*
X79166009Y-86140476D02*
X79261247Y-86092857D01*
X79261247Y-86092857D02*
X79499342Y-86092857D01*
X79499342Y-86092857D02*
X79594580Y-86140476D01*
X79594580Y-86140476D02*
X79642200Y-86188095D01*
X79642200Y-86188095D02*
X79689819Y-86283333D01*
X79689819Y-86283333D02*
X79689819Y-86569047D01*
X79689819Y-86569047D02*
X79642200Y-86664285D01*
X79642200Y-86664285D02*
X79594580Y-86711904D01*
X92454819Y-43235714D02*
X92454819Y-43426190D01*
X92454819Y-43426190D02*
X92502438Y-43521428D01*
X92502438Y-43521428D02*
X92550057Y-43569047D01*
X92550057Y-43569047D02*
X92692914Y-43664285D01*
X92692914Y-43664285D02*
X92883390Y-43711904D01*
X92883390Y-43711904D02*
X93264342Y-43711904D01*
X93264342Y-43711904D02*
X93359580Y-43664285D01*
X93359580Y-43664285D02*
X93407200Y-43616666D01*
X93407200Y-43616666D02*
X93454819Y-43521428D01*
X93454819Y-43521428D02*
X93454819Y-43330952D01*
X93454819Y-43330952D02*
X93407200Y-43235714D01*
X93407200Y-43235714D02*
X93359580Y-43188095D01*
X93359580Y-43188095D02*
X93264342Y-43140476D01*
X93264342Y-43140476D02*
X93026247Y-43140476D01*
X93026247Y-43140476D02*
X92931009Y-43188095D01*
X92931009Y-43188095D02*
X92883390Y-43235714D01*
X92883390Y-43235714D02*
X92835771Y-43330952D01*
X92835771Y-43330952D02*
X92835771Y-43521428D01*
X92835771Y-43521428D02*
X92883390Y-43616666D01*
X92883390Y-43616666D02*
X92931009Y-43664285D01*
X92931009Y-43664285D02*
X93026247Y-43711904D01*
X93454819Y-42711904D02*
X92454819Y-42711904D01*
X92454819Y-42711904D02*
X92454819Y-42330952D01*
X92454819Y-42330952D02*
X92502438Y-42235714D01*
X92502438Y-42235714D02*
X92550057Y-42188095D01*
X92550057Y-42188095D02*
X92645295Y-42140476D01*
X92645295Y-42140476D02*
X92788152Y-42140476D01*
X92788152Y-42140476D02*
X92883390Y-42188095D01*
X92883390Y-42188095D02*
X92931009Y-42235714D01*
X92931009Y-42235714D02*
X92978628Y-42330952D01*
X92978628Y-42330952D02*
X92978628Y-42711904D01*
X92454819Y-41283333D02*
X92454819Y-41473809D01*
X92454819Y-41473809D02*
X92502438Y-41569047D01*
X92502438Y-41569047D02*
X92550057Y-41616666D01*
X92550057Y-41616666D02*
X92692914Y-41711904D01*
X92692914Y-41711904D02*
X92883390Y-41759523D01*
X92883390Y-41759523D02*
X93264342Y-41759523D01*
X93264342Y-41759523D02*
X93359580Y-41711904D01*
X93359580Y-41711904D02*
X93407200Y-41664285D01*
X93407200Y-41664285D02*
X93454819Y-41569047D01*
X93454819Y-41569047D02*
X93454819Y-41378571D01*
X93454819Y-41378571D02*
X93407200Y-41283333D01*
X93407200Y-41283333D02*
X93359580Y-41235714D01*
X93359580Y-41235714D02*
X93264342Y-41188095D01*
X93264342Y-41188095D02*
X93026247Y-41188095D01*
X93026247Y-41188095D02*
X92931009Y-41235714D01*
X92931009Y-41235714D02*
X92883390Y-41283333D01*
X92883390Y-41283333D02*
X92835771Y-41378571D01*
X92835771Y-41378571D02*
X92835771Y-41569047D01*
X92835771Y-41569047D02*
X92883390Y-41664285D01*
X92883390Y-41664285D02*
X92931009Y-41711904D01*
X92931009Y-41711904D02*
X93026247Y-41759523D01*
X93359580Y-40188095D02*
X93407200Y-40235714D01*
X93407200Y-40235714D02*
X93454819Y-40378571D01*
X93454819Y-40378571D02*
X93454819Y-40473809D01*
X93454819Y-40473809D02*
X93407200Y-40616666D01*
X93407200Y-40616666D02*
X93311961Y-40711904D01*
X93311961Y-40711904D02*
X93216723Y-40759523D01*
X93216723Y-40759523D02*
X93026247Y-40807142D01*
X93026247Y-40807142D02*
X92883390Y-40807142D01*
X92883390Y-40807142D02*
X92692914Y-40759523D01*
X92692914Y-40759523D02*
X92597676Y-40711904D01*
X92597676Y-40711904D02*
X92502438Y-40616666D01*
X92502438Y-40616666D02*
X92454819Y-40473809D01*
X92454819Y-40473809D02*
X92454819Y-40378571D01*
X92454819Y-40378571D02*
X92502438Y-40235714D01*
X92502438Y-40235714D02*
X92550057Y-40188095D01*
X104333333Y-66309580D02*
X104285714Y-66357200D01*
X104285714Y-66357200D02*
X104142857Y-66404819D01*
X104142857Y-66404819D02*
X104047619Y-66404819D01*
X104047619Y-66404819D02*
X103904762Y-66357200D01*
X103904762Y-66357200D02*
X103809524Y-66261961D01*
X103809524Y-66261961D02*
X103761905Y-66166723D01*
X103761905Y-66166723D02*
X103714286Y-65976247D01*
X103714286Y-65976247D02*
X103714286Y-65833390D01*
X103714286Y-65833390D02*
X103761905Y-65642914D01*
X103761905Y-65642914D02*
X103809524Y-65547676D01*
X103809524Y-65547676D02*
X103904762Y-65452438D01*
X103904762Y-65452438D02*
X104047619Y-65404819D01*
X104047619Y-65404819D02*
X104142857Y-65404819D01*
X104142857Y-65404819D02*
X104285714Y-65452438D01*
X104285714Y-65452438D02*
X104333333Y-65500057D01*
X104666667Y-65404819D02*
X105333333Y-65404819D01*
X105333333Y-65404819D02*
X104904762Y-66404819D01*
X100864583Y-60809580D02*
X100816964Y-60857200D01*
X100816964Y-60857200D02*
X100674107Y-60904819D01*
X100674107Y-60904819D02*
X100578869Y-60904819D01*
X100578869Y-60904819D02*
X100436012Y-60857200D01*
X100436012Y-60857200D02*
X100340774Y-60761961D01*
X100340774Y-60761961D02*
X100293155Y-60666723D01*
X100293155Y-60666723D02*
X100245536Y-60476247D01*
X100245536Y-60476247D02*
X100245536Y-60333390D01*
X100245536Y-60333390D02*
X100293155Y-60142914D01*
X100293155Y-60142914D02*
X100340774Y-60047676D01*
X100340774Y-60047676D02*
X100436012Y-59952438D01*
X100436012Y-59952438D02*
X100578869Y-59904819D01*
X100578869Y-59904819D02*
X100674107Y-59904819D01*
X100674107Y-59904819D02*
X100816964Y-59952438D01*
X100816964Y-59952438D02*
X100864583Y-60000057D01*
X101816964Y-60904819D02*
X101245536Y-60904819D01*
X101531250Y-60904819D02*
X101531250Y-59904819D01*
X101531250Y-59904819D02*
X101436012Y-60047676D01*
X101436012Y-60047676D02*
X101340774Y-60142914D01*
X101340774Y-60142914D02*
X101245536Y-60190533D01*
X79719819Y-50759523D02*
X78719819Y-50759523D01*
X78719819Y-50759523D02*
X79434104Y-50426190D01*
X79434104Y-50426190D02*
X78719819Y-50092857D01*
X78719819Y-50092857D02*
X79719819Y-50092857D01*
X78815057Y-49664285D02*
X78767438Y-49616666D01*
X78767438Y-49616666D02*
X78719819Y-49521428D01*
X78719819Y-49521428D02*
X78719819Y-49283333D01*
X78719819Y-49283333D02*
X78767438Y-49188095D01*
X78767438Y-49188095D02*
X78815057Y-49140476D01*
X78815057Y-49140476D02*
X78910295Y-49092857D01*
X78910295Y-49092857D02*
X79005533Y-49092857D01*
X79005533Y-49092857D02*
X79148390Y-49140476D01*
X79148390Y-49140476D02*
X79719819Y-49711904D01*
X79719819Y-49711904D02*
X79719819Y-49092857D01*
X92954819Y-87759523D02*
X91954819Y-87759523D01*
X91954819Y-87759523D02*
X92669104Y-87426190D01*
X92669104Y-87426190D02*
X91954819Y-87092857D01*
X91954819Y-87092857D02*
X92954819Y-87092857D01*
X92288152Y-86188095D02*
X92954819Y-86188095D01*
X91907200Y-86426190D02*
X92621485Y-86664285D01*
X92621485Y-86664285D02*
X92621485Y-86045238D01*
X104383333Y-56584819D02*
X104050000Y-56108628D01*
X103811905Y-56584819D02*
X103811905Y-55584819D01*
X103811905Y-55584819D02*
X104192857Y-55584819D01*
X104192857Y-55584819D02*
X104288095Y-55632438D01*
X104288095Y-55632438D02*
X104335714Y-55680057D01*
X104335714Y-55680057D02*
X104383333Y-55775295D01*
X104383333Y-55775295D02*
X104383333Y-55918152D01*
X104383333Y-55918152D02*
X104335714Y-56013390D01*
X104335714Y-56013390D02*
X104288095Y-56061009D01*
X104288095Y-56061009D02*
X104192857Y-56108628D01*
X104192857Y-56108628D02*
X103811905Y-56108628D01*
X104716667Y-55584819D02*
X105335714Y-55584819D01*
X105335714Y-55584819D02*
X105002381Y-55965771D01*
X105002381Y-55965771D02*
X105145238Y-55965771D01*
X105145238Y-55965771D02*
X105240476Y-56013390D01*
X105240476Y-56013390D02*
X105288095Y-56061009D01*
X105288095Y-56061009D02*
X105335714Y-56156247D01*
X105335714Y-56156247D02*
X105335714Y-56394342D01*
X105335714Y-56394342D02*
X105288095Y-56489580D01*
X105288095Y-56489580D02*
X105240476Y-56537200D01*
X105240476Y-56537200D02*
X105145238Y-56584819D01*
X105145238Y-56584819D02*
X104859524Y-56584819D01*
X104859524Y-56584819D02*
X104764286Y-56537200D01*
X104764286Y-56537200D02*
X104716667Y-56489580D01*
X100864583Y-65809580D02*
X100816964Y-65857200D01*
X100816964Y-65857200D02*
X100674107Y-65904819D01*
X100674107Y-65904819D02*
X100578869Y-65904819D01*
X100578869Y-65904819D02*
X100436012Y-65857200D01*
X100436012Y-65857200D02*
X100340774Y-65761961D01*
X100340774Y-65761961D02*
X100293155Y-65666723D01*
X100293155Y-65666723D02*
X100245536Y-65476247D01*
X100245536Y-65476247D02*
X100245536Y-65333390D01*
X100245536Y-65333390D02*
X100293155Y-65142914D01*
X100293155Y-65142914D02*
X100340774Y-65047676D01*
X100340774Y-65047676D02*
X100436012Y-64952438D01*
X100436012Y-64952438D02*
X100578869Y-64904819D01*
X100578869Y-64904819D02*
X100674107Y-64904819D01*
X100674107Y-64904819D02*
X100816964Y-64952438D01*
X100816964Y-64952438D02*
X100864583Y-65000057D01*
X101721726Y-65238152D02*
X101721726Y-65904819D01*
X101483631Y-64857200D02*
X101245536Y-65571485D01*
X101245536Y-65571485D02*
X101864583Y-65571485D01*
D10*
%TO.C,IC3*%
X73090000Y-57110000D02*
X73090000Y-62410000D01*
X73090000Y-62410000D02*
X93530000Y-62410000D01*
X93530000Y-57110000D02*
X73090000Y-57110000D01*
X93530000Y-58760000D02*
X93530000Y-57110000D01*
X93530000Y-62410000D02*
X93530000Y-60760000D01*
X93530000Y-60760000D02*
G75*
G02*
X93530000Y-58760000I0J1000000D01*
G01*
%TO.C,C5*%
X70590000Y-57301248D02*
X70590000Y-58723752D01*
X72410000Y-57301248D02*
X72410000Y-58723752D01*
%TO.C,C3*%
X98305002Y-57040000D02*
X96882498Y-57040000D01*
X98305002Y-58860000D02*
X96882498Y-58860000D01*
%TO.C,R4*%
X103822936Y-59540000D02*
X105277064Y-59540000D01*
X103822936Y-61360000D02*
X105277064Y-61360000D01*
%TO.C,R2*%
X109090000Y-69722936D02*
X109090000Y-71177064D01*
X110910000Y-69722936D02*
X110910000Y-71177064D01*
%TO.C,M1*%
X80585000Y-40150000D02*
X80585000Y-52750000D01*
X80585000Y-52750000D02*
X90935000Y-52750000D01*
X90935000Y-44950000D02*
X91435000Y-45250000D01*
X90935000Y-50350000D02*
X90935000Y-44950000D01*
X90935000Y-51800000D02*
X91435000Y-52050000D01*
X90935000Y-52750000D02*
X90935000Y-51800000D01*
X91435000Y-40150000D02*
X80585000Y-40150000D01*
X91435000Y-45250000D02*
X91435000Y-40150000D01*
X91435000Y-50100000D02*
X90935000Y-50350000D01*
X91435000Y-50150000D02*
X91435000Y-50100000D01*
X91435000Y-52050000D02*
X91435000Y-50150000D01*
%TO.C,BAT*%
X95565000Y-77850000D02*
X95565000Y-79750000D01*
X95565000Y-79750000D02*
X95565000Y-79800000D01*
X95565000Y-79800000D02*
X96065000Y-79550000D01*
X95565000Y-84650000D02*
X95565000Y-89750000D01*
X95565000Y-89750000D02*
X106415000Y-89750000D01*
X96065000Y-77150000D02*
X96065000Y-78100000D01*
X96065000Y-78100000D02*
X95565000Y-77850000D01*
X96065000Y-79550000D02*
X96065000Y-84950000D01*
X96065000Y-84950000D02*
X95565000Y-84650000D01*
X106415000Y-77150000D02*
X96065000Y-77150000D01*
X106415000Y-89750000D02*
X106415000Y-77150000D01*
%TO.C,R1*%
X119777064Y-72040000D02*
X118322936Y-72040000D01*
X119777064Y-73860000D02*
X118322936Y-73860000D01*
%TO.C,IC2*%
X110130000Y-77110000D02*
X110130000Y-78760000D01*
X110130000Y-80760000D02*
X110130000Y-82410000D01*
X110130000Y-82410000D02*
X130570000Y-82410000D01*
X130570000Y-77110000D02*
X110130000Y-77110000D01*
X130570000Y-82410000D02*
X130570000Y-77110000D01*
X110130000Y-78760000D02*
G75*
G02*
X110130000Y-80760000I0J-1000000D01*
G01*
%TO.C,J9*%
X114550000Y-71340000D02*
X114550000Y-70010000D01*
X115880000Y-71340000D02*
X114550000Y-71340000D01*
X117150000Y-68680000D02*
X129910000Y-68680000D01*
X117150000Y-71340000D02*
X117150000Y-68680000D01*
X117150000Y-71340000D02*
X129910000Y-71340000D01*
X129910000Y-71340000D02*
X129910000Y-68680000D01*
%TO.C,D1*%
X111365000Y-68850000D02*
X111365000Y-72910000D01*
X111365000Y-72910000D02*
X113635000Y-72910000D01*
X113635000Y-72910000D02*
X113635000Y-68850000D01*
%TO.C,U5*%
X99240000Y-68540000D02*
X99240000Y-69800000D01*
X99240000Y-75360000D02*
X99240000Y-74100000D01*
X103000000Y-68540000D02*
X99240000Y-68540000D01*
X103000000Y-75360000D02*
X99240000Y-75360000D01*
X104520000Y-75590000D02*
X104040000Y-75590000D01*
X104280000Y-75260000D01*
X104520000Y-75590000D01*
G36*
X104520000Y-75590000D02*
G01*
X104040000Y-75590000D01*
X104280000Y-75260000D01*
X104520000Y-75590000D01*
G37*
%TO.C,J7*%
X109170000Y-45500000D02*
X110500000Y-45500000D01*
X109170000Y-46830000D02*
X109170000Y-45500000D01*
X109170000Y-48100000D02*
X109170000Y-65940000D01*
X109170000Y-48100000D02*
X111830000Y-48100000D01*
X109170000Y-65940000D02*
X111830000Y-65940000D01*
X111830000Y-48100000D02*
X111830000Y-65940000D01*
%TO.C,C2*%
X98242502Y-62040000D02*
X96819998Y-62040000D01*
X98242502Y-63860000D02*
X96819998Y-63860000D01*
D15*
%TO.C,G\u002A\u002A\u002A*%
G36*
X120314132Y-87450000D02*
G01*
X120314132Y-89853785D01*
X117906340Y-89853785D01*
X115498549Y-89853785D01*
X115498549Y-87450000D01*
X115498549Y-86336246D01*
X117766119Y-86336246D01*
X117766119Y-87694385D01*
X117766119Y-89052524D01*
X118038549Y-89052524D01*
X118310978Y-89052524D01*
X118311136Y-88117050D01*
X118311230Y-87971691D01*
X118311457Y-87835555D01*
X118311812Y-87709292D01*
X118312290Y-87593554D01*
X118312885Y-87488990D01*
X118313592Y-87396249D01*
X118314406Y-87315982D01*
X118315322Y-87248838D01*
X118316334Y-87195468D01*
X118317436Y-87156522D01*
X118318625Y-87132650D01*
X118319204Y-87126876D01*
X118337191Y-87056766D01*
X118369417Y-86992799D01*
X118414814Y-86936364D01*
X118472318Y-86888850D01*
X118524846Y-86858897D01*
X118587413Y-86829022D01*
X119054148Y-86826714D01*
X119520883Y-86824406D01*
X119520883Y-86580326D01*
X119520883Y-86336246D01*
X118643501Y-86336246D01*
X117766119Y-86336246D01*
X115498549Y-86336246D01*
X115498549Y-85791388D01*
X116275772Y-85791388D01*
X116275772Y-86059811D01*
X116275772Y-86328233D01*
X117016940Y-86328233D01*
X117758107Y-86328233D01*
X117758107Y-86059811D01*
X117758107Y-85791388D01*
X117016940Y-85791388D01*
X116275772Y-85791388D01*
X115498549Y-85791388D01*
X115498549Y-85046215D01*
X117906340Y-85046215D01*
X120314132Y-85046215D01*
X120314132Y-87450000D01*
G37*
G36*
X127501451Y-87450000D02*
G01*
X127501451Y-89853785D01*
X123999937Y-89853785D01*
X120498422Y-89853785D01*
X120498422Y-87450000D01*
X120498422Y-86079842D01*
X121556088Y-86079842D01*
X121556088Y-87393912D01*
X121556088Y-88707981D01*
X121780441Y-88707981D01*
X122004795Y-88707981D01*
X122004795Y-88143091D01*
X122004795Y-87578202D01*
X122513596Y-87578202D01*
X123022397Y-87578202D01*
X123022397Y-87385899D01*
X123022397Y-87193596D01*
X122513596Y-87193596D01*
X122004795Y-87193596D01*
X122004795Y-86829022D01*
X122004795Y-86464448D01*
X122549653Y-86464448D01*
X123094511Y-86464448D01*
X123094511Y-86272145D01*
X123094511Y-86079842D01*
X123647381Y-86079842D01*
X123647381Y-87393912D01*
X123647381Y-88707981D01*
X123871735Y-88707981D01*
X124096088Y-88707981D01*
X124096088Y-87393912D01*
X124096088Y-86079842D01*
X124584858Y-86079842D01*
X124584858Y-86272145D01*
X124584858Y-86464448D01*
X124961451Y-86464448D01*
X125338044Y-86464448D01*
X125338044Y-87586215D01*
X125338044Y-88707981D01*
X125562397Y-88707981D01*
X125786750Y-88707981D01*
X125786750Y-87586215D01*
X125786750Y-86464448D01*
X126163343Y-86464448D01*
X126539937Y-86464448D01*
X126539937Y-86272145D01*
X126539937Y-86079842D01*
X125562397Y-86079842D01*
X124584858Y-86079842D01*
X124096088Y-86079842D01*
X123871735Y-86079842D01*
X123647381Y-86079842D01*
X123094511Y-86079842D01*
X122325299Y-86079842D01*
X121556088Y-86079842D01*
X120498422Y-86079842D01*
X120498422Y-85046215D01*
X123999937Y-85046215D01*
X127501451Y-85046215D01*
X127501451Y-87450000D01*
G37*
D10*
%TO.C,IC1*%
X113880000Y-42330000D02*
X130120000Y-42330000D01*
X113880000Y-49950000D02*
X113880000Y-42330000D01*
X113880000Y-66570000D02*
X113880000Y-65950000D01*
X116000000Y-66570000D02*
X113880000Y-66570000D01*
X130120000Y-42330000D02*
X130120000Y-49950000D01*
X130120000Y-65950000D02*
X130120000Y-66570000D01*
X130120000Y-66570000D02*
X128000000Y-66570000D01*
X113450000Y-49950000D02*
X113210000Y-49614000D01*
X113690000Y-49614000D01*
X113450000Y-49950000D01*
G36*
X113450000Y-49950000D02*
G01*
X113210000Y-49614000D01*
X113690000Y-49614000D01*
X113450000Y-49950000D01*
G37*
%TO.C,C6*%
X70590000Y-68801248D02*
X70590000Y-70223752D01*
X72410000Y-68801248D02*
X72410000Y-70223752D01*
%TO.C,IC4*%
X73130000Y-68610000D02*
X73130000Y-73910000D01*
X73130000Y-73910000D02*
X93570000Y-73910000D01*
X93570000Y-68610000D02*
X73130000Y-68610000D01*
X93570000Y-70260000D02*
X93570000Y-68610000D01*
X93570000Y-73910000D02*
X93570000Y-72260000D01*
X93570000Y-72260000D02*
G75*
G02*
X93570000Y-70260000I0J1000000D01*
G01*
%TO.C,M3*%
X67300000Y-77850000D02*
X67300000Y-79750000D01*
X67300000Y-79750000D02*
X67300000Y-79800000D01*
X67300000Y-79800000D02*
X67800000Y-79550000D01*
X67300000Y-84650000D02*
X67300000Y-89750000D01*
X67300000Y-89750000D02*
X78150000Y-89750000D01*
X67800000Y-77150000D02*
X67800000Y-78100000D01*
X67800000Y-78100000D02*
X67300000Y-77850000D01*
X67800000Y-79550000D02*
X67800000Y-84950000D01*
X67800000Y-84950000D02*
X67300000Y-84650000D01*
X78150000Y-77150000D02*
X67800000Y-77150000D01*
X78150000Y-89750000D02*
X78150000Y-77150000D01*
%TO.C,6P6C*%
X94080000Y-51790000D02*
X94080000Y-50790000D01*
X94080000Y-51790000D02*
X94580000Y-51290000D01*
X94580000Y-51290000D02*
X94080000Y-50790000D01*
X94740000Y-45070000D02*
X94740000Y-40340000D01*
X94740000Y-53560000D02*
X94740000Y-47820000D01*
X107160000Y-40340000D02*
X94740000Y-40340000D01*
X107160000Y-45070000D02*
X107160000Y-40340000D01*
X107160000Y-53560000D02*
X94740000Y-53560000D01*
X107160000Y-53560000D02*
X107160000Y-47820000D01*
%TO.C,C7*%
X105211252Y-63040000D02*
X103788748Y-63040000D01*
X105211252Y-64860000D02*
X103788748Y-64860000D01*
%TO.C,C1*%
X96819998Y-59540000D02*
X98242502Y-59540000D01*
X96819998Y-61360000D02*
X98242502Y-61360000D01*
%TO.C,J8*%
X132170000Y-63260000D02*
X132170000Y-45420000D01*
X134830000Y-45420000D02*
X132170000Y-45420000D01*
X134830000Y-63260000D02*
X132170000Y-63260000D01*
X134830000Y-63260000D02*
X134830000Y-45420000D01*
X134830000Y-64530000D02*
X134830000Y-65860000D01*
X134830000Y-65860000D02*
X133500000Y-65860000D01*
%TO.C,M2*%
X67350000Y-40150000D02*
X67350000Y-52750000D01*
X67350000Y-52750000D02*
X77700000Y-52750000D01*
X77700000Y-44950000D02*
X78200000Y-45250000D01*
X77700000Y-50350000D02*
X77700000Y-44950000D01*
X77700000Y-51800000D02*
X78200000Y-52050000D01*
X77700000Y-52750000D02*
X77700000Y-51800000D01*
X78200000Y-40150000D02*
X67350000Y-40150000D01*
X78200000Y-45250000D02*
X78200000Y-40150000D01*
X78200000Y-50100000D02*
X77700000Y-50350000D01*
X78200000Y-50150000D02*
X78200000Y-50100000D01*
X78200000Y-52050000D02*
X78200000Y-50150000D01*
%TO.C,M4*%
X80565000Y-77850000D02*
X80565000Y-79750000D01*
X80565000Y-79750000D02*
X80565000Y-79800000D01*
X80565000Y-79800000D02*
X81065000Y-79550000D01*
X80565000Y-84650000D02*
X80565000Y-89750000D01*
X80565000Y-89750000D02*
X91415000Y-89750000D01*
X81065000Y-77150000D02*
X81065000Y-78100000D01*
X81065000Y-78100000D02*
X80565000Y-77850000D01*
X81065000Y-79550000D02*
X81065000Y-84950000D01*
X81065000Y-84950000D02*
X80565000Y-84650000D01*
X91415000Y-77150000D02*
X81065000Y-77150000D01*
X91415000Y-89750000D02*
X91415000Y-77150000D01*
%TO.C,R3*%
X103822936Y-57040000D02*
X105277064Y-57040000D01*
X103822936Y-58860000D02*
X105277064Y-58860000D01*
%TO.C,C4*%
X96819998Y-64540000D02*
X98242502Y-64540000D01*
X96819998Y-66360000D02*
X98242502Y-66360000D01*
%TD*%
M02*
