%TF.GenerationSoftware,KiCad,Pcbnew,8.0.1*%
%TF.CreationDate,2024-04-08T22:20:49+02:00*%
%TF.ProjectId,driver,64726976-6572-42e6-9b69-6361645f7063,rev?*%
%TF.SameCoordinates,Original*%
%TF.FileFunction,Soldermask,Top*%
%TF.FilePolarity,Negative*%
%FSLAX46Y46*%
G04 Gerber Fmt 4.6, Leading zero omitted, Abs format (unit mm)*
G04 Created by KiCad (PCBNEW 8.0.1) date 2024-04-08 22:20:49*
%MOMM*%
%LPD*%
G01*
G04 APERTURE LIST*
G04 Aperture macros list*
%AMRoundRect*
0 Rectangle with rounded corners*
0 $1 Rounding radius*
0 $2 $3 $4 $5 $6 $7 $8 $9 X,Y pos of 4 corners*
0 Add a 4 corners polygon primitive as box body*
4,1,4,$2,$3,$4,$5,$6,$7,$8,$9,$2,$3,0*
0 Add four circle primitives for the rounded corners*
1,1,$1+$1,$2,$3*
1,1,$1+$1,$4,$5*
1,1,$1+$1,$6,$7*
1,1,$1+$1,$8,$9*
0 Add four rect primitives between the rounded corners*
20,1,$1+$1,$2,$3,$4,$5,0*
20,1,$1+$1,$4,$5,$6,$7,0*
20,1,$1+$1,$6,$7,$8,$9,0*
20,1,$1+$1,$8,$9,$2,$3,0*%
G04 Aperture macros list end*
%ADD10R,1.600000X1.600000*%
%ADD11O,1.600000X1.600000*%
%ADD12RoundRect,0.250000X-0.650000X0.412500X-0.650000X-0.412500X0.650000X-0.412500X0.650000X0.412500X0*%
%ADD13RoundRect,0.250000X0.412500X0.650000X-0.412500X0.650000X-0.412500X-0.650000X0.412500X-0.650000X0*%
%ADD14RoundRect,0.250000X-0.400000X-0.625000X0.400000X-0.625000X0.400000X0.625000X-0.400000X0.625000X0*%
%ADD15RoundRect,0.250000X-0.625000X0.400000X-0.625000X-0.400000X0.625000X-0.400000X0.625000X0.400000X0*%
%ADD16R,1.980000X3.960000*%
%ADD17O,1.980000X3.960000*%
%ADD18RoundRect,0.250000X0.400000X0.625000X-0.400000X0.625000X-0.400000X-0.625000X0.400000X-0.625000X0*%
%ADD19R,1.700000X1.700000*%
%ADD20O,1.700000X1.700000*%
%ADD21RoundRect,0.250001X0.624999X-0.462499X0.624999X0.462499X-0.624999X0.462499X-0.624999X-0.462499X0*%
%ADD22RoundRect,0.375000X0.625000X0.375000X-0.625000X0.375000X-0.625000X-0.375000X0.625000X-0.375000X0*%
%ADD23RoundRect,0.500000X0.500000X1.400000X-0.500000X1.400000X-0.500000X-1.400000X0.500000X-1.400000X0*%
%ADD24R,2.500000X1.000000*%
%ADD25R,1.000000X1.800000*%
%ADD26C,2.300000*%
%ADD27R,1.520000X1.520000*%
%ADD28C,1.520000*%
%ADD29RoundRect,0.250000X-0.412500X-0.650000X0.412500X-0.650000X0.412500X0.650000X-0.412500X0.650000X0*%
G04 APERTURE END LIST*
D10*
%TO.C,IC3*%
X92200000Y-55950000D03*
D11*
X89660000Y-55950000D03*
X87120000Y-55950000D03*
X84580000Y-55950000D03*
X82040000Y-55950000D03*
X79500000Y-55950000D03*
X76960000Y-55950000D03*
X74420000Y-55950000D03*
X74420000Y-63570000D03*
X76960000Y-63570000D03*
X79500000Y-63570000D03*
X82040000Y-63570000D03*
X84580000Y-63570000D03*
X87120000Y-63570000D03*
X89660000Y-63570000D03*
X92200000Y-63570000D03*
%TD*%
D12*
%TO.C,C5*%
X71500000Y-56450000D03*
X71500000Y-59575000D03*
%TD*%
D13*
%TO.C,C3*%
X99156250Y-57950000D03*
X96031250Y-57950000D03*
%TD*%
D14*
%TO.C,R4*%
X103000000Y-60450000D03*
X106100000Y-60450000D03*
%TD*%
D15*
%TO.C,R2*%
X110000000Y-68900000D03*
X110000000Y-72000000D03*
%TD*%
D16*
%TO.C,M1*%
X83235000Y-46450000D03*
D17*
X88235000Y-46450000D03*
%TD*%
D16*
%TO.C,BAT*%
X103765000Y-83450000D03*
D17*
X98765000Y-83450000D03*
%TD*%
D18*
%TO.C,R1*%
X120600000Y-72950000D03*
X117500000Y-72950000D03*
%TD*%
D10*
%TO.C,IC2*%
X111460000Y-83570000D03*
D11*
X114000000Y-83570000D03*
X116540000Y-83570000D03*
X119080000Y-83570000D03*
X121620000Y-83570000D03*
X124160000Y-83570000D03*
X126700000Y-83570000D03*
X129240000Y-83570000D03*
X129240000Y-75950000D03*
X126700000Y-75950000D03*
X124160000Y-75950000D03*
X121620000Y-75950000D03*
X119080000Y-75950000D03*
X116540000Y-75950000D03*
X114000000Y-75950000D03*
X111460000Y-75950000D03*
%TD*%
D19*
%TO.C,J9*%
X115880000Y-70010000D03*
D20*
X118420000Y-70010000D03*
X120960000Y-70010000D03*
X123500000Y-70010000D03*
X126040000Y-70010000D03*
X128580000Y-70010000D03*
%TD*%
D21*
%TO.C,D1*%
X112500000Y-71937500D03*
X112500000Y-68962500D03*
%TD*%
D22*
%TO.C,U5*%
X104300000Y-74250000D03*
X104300000Y-71950000D03*
D23*
X98000000Y-71950000D03*
D22*
X104300000Y-69650000D03*
%TD*%
D19*
%TO.C,J7*%
X110500000Y-46830000D03*
D20*
X110500000Y-49370000D03*
X110500000Y-51910000D03*
X110500000Y-54450000D03*
X110500000Y-56990000D03*
X110500000Y-59530000D03*
X110500000Y-62070000D03*
X110500000Y-64610000D03*
%TD*%
D13*
%TO.C,C2*%
X99093750Y-62950000D03*
X95968750Y-62950000D03*
%TD*%
D24*
%TO.C,IC1*%
X114400000Y-50950000D03*
X114400000Y-52950000D03*
X114400000Y-54950000D03*
X114400000Y-56950000D03*
X114400000Y-58950000D03*
X114400000Y-60950000D03*
X114400000Y-62950000D03*
X114400000Y-64950000D03*
D25*
X117000000Y-66450000D03*
X119000000Y-66450000D03*
X121000000Y-66450000D03*
X123000000Y-66450000D03*
X125000000Y-66450000D03*
X127000000Y-66450000D03*
D24*
X129600000Y-64950000D03*
X129600000Y-62950000D03*
X129600000Y-60950000D03*
X129600000Y-58950000D03*
X129600000Y-56950000D03*
X129600000Y-54950000D03*
X129600000Y-52950000D03*
X129600000Y-50950000D03*
%TD*%
D12*
%TO.C,C6*%
X71500000Y-67950000D03*
X71500000Y-71075000D03*
%TD*%
D10*
%TO.C,IC4*%
X92240000Y-67450000D03*
D11*
X89700000Y-67450000D03*
X87160000Y-67450000D03*
X84620000Y-67450000D03*
X82080000Y-67450000D03*
X79540000Y-67450000D03*
X77000000Y-67450000D03*
X74460000Y-67450000D03*
X74460000Y-75070000D03*
X77000000Y-75070000D03*
X79540000Y-75070000D03*
X82080000Y-75070000D03*
X84620000Y-75070000D03*
X87160000Y-75070000D03*
X89700000Y-75070000D03*
X92240000Y-75070000D03*
%TD*%
D16*
%TO.C,M3*%
X75500000Y-83450000D03*
D17*
X70500000Y-83450000D03*
%TD*%
D26*
%TO.C,6P6C*%
X106950000Y-46450000D03*
X94950000Y-46450000D03*
D27*
X98400000Y-51290000D03*
D28*
X99420000Y-48750000D03*
X100440000Y-51290000D03*
X101460000Y-48750000D03*
X102480000Y-51290000D03*
X103500000Y-48750000D03*
%TD*%
D13*
%TO.C,C7*%
X106062500Y-63950000D03*
X102937500Y-63950000D03*
%TD*%
D29*
%TO.C,C1*%
X95968750Y-60450000D03*
X99093750Y-60450000D03*
%TD*%
D19*
%TO.C,J8*%
X133500000Y-64530000D03*
D20*
X133500000Y-61990000D03*
X133500000Y-59450000D03*
X133500000Y-56910000D03*
X133500000Y-54370000D03*
X133500000Y-51830000D03*
X133500000Y-49290000D03*
X133500000Y-46750000D03*
%TD*%
D16*
%TO.C,M2*%
X70000000Y-46450000D03*
D17*
X75000000Y-46450000D03*
%TD*%
D16*
%TO.C,M4*%
X88765000Y-83450000D03*
D17*
X83765000Y-83450000D03*
%TD*%
D14*
%TO.C,R3*%
X103000000Y-57950000D03*
X106100000Y-57950000D03*
%TD*%
D29*
%TO.C,C4*%
X95968750Y-65450000D03*
X99093750Y-65450000D03*
%TD*%
M02*
