M48
; DRILL file {KiCad 8.0.1} date 2024-04-08T22:20:56+0200
; FORMAT={-:-/ absolute / inch / decimal}
; #@! TF.CreationDate,2024-04-08T22:20:56+02:00
; #@! TF.GenerationSoftware,Kicad,Pcbnew,8.0.1
; #@! TF.FileFunction,Plated,1,2,PTH
FMAT,2
INCH
; #@! TA.AperFunction,Plated,PTH,ViaDrill
T1C0.0118
; #@! TA.AperFunction,Plated,PTH,ComponentDrill
T2C0.0315
; #@! TA.AperFunction,Plated,PTH,ComponentDrill
T3C0.0354
; #@! TA.AperFunction,Plated,PTH,ComponentDrill
T4C0.0394
; #@! TA.AperFunction,Plated,PTH,ComponentDrill
T5C0.0520
%
G90
G05
T1
X2.7559Y-2.3799
X2.7559Y-2.7343
X2.9909Y-2.3417
X3.0524Y-2.3197
X3.1713Y-2.3445
X3.2087Y-2.7539
X3.2256Y-3.052
X3.2283Y-2.3209
X3.3661Y-2.1043
X3.3858Y-2.7146
X3.4315Y-3.0429
X3.4688Y-2.724
X3.5039Y-2.1043
X3.6391Y-2.8943
X3.6614Y-2.872
X3.689Y-2.8445
X3.6982Y-2.9534
X3.7191Y-2.9298
X3.7795Y-2.065
X3.8979Y-3.1277
X3.9016Y-2.187
X3.9764Y-2.2067
X3.9973Y-2.5768
X4.0157Y-2.2067
X4.0551Y-2.0846
X4.0551Y-2.2067
X4.0551Y-2.6358
X4.1929Y-2.6358
X4.1929Y-3.1673
X4.2126Y-2.5965
X4.248Y-2.8917
X4.4685Y-3.0492
X4.6539Y-3.3756
X4.7709Y-3.3728
X5.0394Y-2.8484
X5.1063Y-2.872
X5.1299Y-2.6555
X5.1614Y-2.6555
X5.1929Y-2.6555
X5.2795Y-2.872
X5.4016Y-2.3799
T2
X2.9299Y-2.2028
X2.9299Y-2.5028
X2.9315Y-2.6555
X2.9315Y-2.9555
X3.0299Y-2.2028
X3.0299Y-2.5028
X3.0315Y-2.6555
X3.0315Y-2.9555
X3.1299Y-2.2028
X3.1299Y-2.5028
X3.1315Y-2.6555
X3.1315Y-2.9555
X3.2299Y-2.2028
X3.2299Y-2.5028
X3.2315Y-2.6555
X3.2315Y-2.9555
X3.3299Y-2.2028
X3.3299Y-2.5028
X3.3315Y-2.6555
X3.3315Y-2.9555
X3.4299Y-2.2028
X3.4299Y-2.5028
X3.4315Y-2.6555
X3.4315Y-2.9555
X3.5299Y-2.2028
X3.5299Y-2.5028
X3.5315Y-2.6555
X3.5315Y-2.9555
X3.6299Y-2.2028
X3.6299Y-2.5028
X3.6315Y-2.6555
X3.6315Y-2.9555
X4.3882Y-2.9902
X4.3882Y-3.2902
X4.4882Y-2.9902
X4.4882Y-3.2902
X4.5882Y-2.9902
X4.5882Y-3.2902
X4.6882Y-2.9902
X4.6882Y-3.2902
X4.7882Y-2.9902
X4.7882Y-3.2902
X4.8882Y-2.9902
X4.8882Y-3.2902
X4.9882Y-2.9902
X4.9882Y-3.2902
X5.0882Y-2.9902
X5.0882Y-3.2902
T3
X3.874Y-2.0193
X3.9142Y-1.9193
X3.9543Y-2.0193
X3.9945Y-1.9193
X4.0346Y-2.0193
X4.0748Y-1.9193
T4
X4.3504Y-1.8437
X4.3504Y-1.9437
X4.3504Y-2.0437
X4.3504Y-2.1437
X4.3504Y-2.2437
X4.3504Y-2.3437
X4.3504Y-2.4437
X4.3504Y-2.5437
X4.5622Y-2.7563
X4.6622Y-2.7563
X4.7622Y-2.7563
X4.8622Y-2.7563
X4.9622Y-2.7563
X5.0622Y-2.7563
X5.2559Y-1.8406
X5.2559Y-1.9406
X5.2559Y-2.0406
X5.2559Y-2.1406
X5.2559Y-2.2406
X5.2559Y-2.3406
X5.2559Y-2.4406
X5.2559Y-2.5406
T5
X2.7559Y-1.8287
X2.7756Y-3.2854
X2.9528Y-1.8287
X2.9724Y-3.2854
X3.277Y-1.8287
X3.2978Y-3.2854
X3.4738Y-1.8287
X3.4947Y-3.2854
X3.8884Y-3.2854
X4.0852Y-3.2854
M30
